<svg width="663" height="820" viewBox="0 0 663 820" fill="none" xmlns="http://www.w3.org/2000/svg">
<g clip-path="url(#clip0)">
<rect width="663" height="820" fill="white"/>
<rect x="-4.09863" y="-86.7777" width="1460" height="911.588" fill="#016FAD"/>
<rect x="-4.09961" y="-86.7777" width="1460" height="911.588" fill="#653CDB"/>
<path d="M624.074 -198.758C652.665 -167.527 680.871 -136.444 712.408 -105.93C753.006 -66.6485 804.844 -16.7554 846.247 -5.65691C899.007 8.48579 931.341 -10.1096 963.924 -19.1054C992.38 -26.9618 1026.51 -41.0145 1083.52 -12.6201C1169.52 30.2151 1221.08 122.427 1266.83 183.935C1288.24 212.711 1323.59 258.407 1348.33 254.269" stroke="#FFA0AC" stroke-width="10" stroke-linecap="round" stroke-linejoin="round"/>
<path fill-rule="evenodd" clip-rule="evenodd" d="M460.444 666.468C459.983 667.107 459.513 667.742 459.033 668.372C428.428 708.536 368.925 714.408 326.129 681.489C283.333 648.57 273.45 589.324 304.054 549.161C334.659 508.997 394.162 503.125 436.958 536.044C445.818 542.859 453.268 550.803 459.24 559.473L452.233 568.668C446.647 559.507 439.258 551.141 430.16 544.143C392.823 515.422 340.849 520.625 314.074 555.762C287.299 590.9 295.862 642.667 333.199 671.388C370.537 700.108 422.51 694.906 449.285 659.768C449.587 659.372 449.885 658.973 450.179 658.572L460.444 666.468Z" fill="#BDB2FF"/>
<path d="M483.331 596.07L472.639 576.263L495.857 576.335C506.401 576.368 515.694 583.619 518.442 593.959L531.205 601.485L523.838 614.495L511.075 606.97C500.539 610.735 488.747 606.103 483.331 596.07Z" stroke="#BDB2FF" stroke-width="7"/>
<ellipse rx="4.61249" ry="4.80701" transform="matrix(0.490817 -0.866858 0.864432 0.509713 499.406 591.919)" fill="#BDB2FF"/>
<line y1="-2.5" x2="34.3358" y2="-2.5" transform="matrix(0.864432 0.509713 -0.490817 0.866858 473.072 578.296)" stroke="#BDB2FF" stroke-width="5"/>
<path opacity="0.8" fill-rule="evenodd" clip-rule="evenodd" d="M371.496 -11.8573C370.154 -13.5677 367.597 -13.9809 365.784 -12.7803L365.183 -12.3823C363.371 -11.1818 362.989 -8.82202 364.332 -7.11171V-7.11171C365.674 -5.40139 368.231 -4.98816 370.043 -6.18873L370.644 -6.5867C372.457 -7.78727 372.838 -10.147 371.496 -11.8573V-11.8573ZM421.636 -44.9774C420.294 -46.6877 417.737 -47.101 415.924 -45.9004L381.687 -23.2221C379.874 -22.0215 379.493 -19.6618 380.835 -17.9515V-17.9515C382.177 -16.2412 384.735 -15.8279 386.547 -17.0285L420.784 -39.7068C422.597 -40.9074 422.978 -43.2671 421.636 -44.9774V-44.9774ZM452.423 -42.6411C451.081 -44.3514 448.524 -44.7647 446.711 -43.5641L433.788 -35.0036C431.975 -33.803 431.594 -31.4433 432.936 -29.7329V-29.7329C434.278 -28.0226 436.835 -27.6094 438.648 -28.81L451.572 -37.3705C453.384 -38.5711 453.766 -40.9308 452.423 -42.6411V-42.6411ZM461.347 -24.1819C460.005 -25.8922 460.386 -28.2519 462.199 -29.4525L476.576 -38.9757C478.388 -40.1762 480.946 -39.763 482.288 -38.0527V-38.0527C483.63 -36.3424 483.249 -33.9826 481.436 -32.7821L467.059 -23.2589C465.247 -22.0583 462.689 -22.4715 461.347 -24.1819V-24.1819ZM512.354 -35.8397C511.012 -37.55 508.455 -37.9632 506.642 -36.7627L489.509 -25.4141C487.697 -24.2135 487.315 -21.8538 488.657 -20.1435V-20.1435C490 -18.4331 492.557 -18.0199 494.369 -19.2205L511.502 -30.5691C513.315 -31.7696 513.696 -34.1294 512.354 -35.8397V-35.8397ZM468.332 -11.2361C466.989 -12.9464 467.371 -15.3061 469.183 -16.5067L471.64 -18.1342C473.453 -19.3348 476.01 -18.9216 477.352 -17.2112V-17.2112C478.694 -15.5009 478.313 -13.1412 476.501 -11.9406L474.043 -10.3131C472.231 -9.11251 469.674 -9.52574 468.332 -11.2361V-11.2361ZM441.096 -16.6628C440.22 -17.7784 440.469 -19.3176 441.651 -20.1007V-20.1007C442.834 -20.8838 444.502 -20.6142 445.377 -19.4986L447.067 -17.3449C447.943 -16.2293 447.694 -14.6901 446.512 -13.9071V-13.9071C445.329 -13.124 443.661 -13.3935 442.786 -14.5091L441.096 -16.6628ZM419.878 -24.0295C418.536 -25.7398 415.978 -26.153 414.166 -24.9525L412.419 -23.795C410.606 -22.5945 410.225 -20.2347 411.567 -18.5244V-18.5244C412.909 -16.8141 415.466 -16.4008 417.279 -17.6014L419.026 -18.7589C420.839 -19.9594 421.22 -22.3192 419.878 -24.0295V-24.0295Z" fill="#FFBFC4" fill-opacity="0.4"/>
<path opacity="0.5" fill-rule="evenodd" clip-rule="evenodd" d="M406.018 31.9539C407.186 30.3485 408.288 28.6946 409.32 26.9923C410.057 25.7782 410.754 24.5484 411.41 23.3033L-39.0479 -219.169C-39.8536 -218.004 -40.6251 -216.815 -41.3618 -215.601C-42.3947 -213.899 -43.3485 -212.165 -44.2242 -210.403L406.018 31.9539ZM396.791 42.3915L-49.0889 -197.617C-50.0196 -194.216 -50.7058 -190.733 -51.1539 -187.176L388.288 49.3673C391.315 47.198 394.153 44.8728 396.791 42.3915ZM374.707 57.4608L-51.6638 -172.046C-51.4502 -168.005 -50.9689 -163.892 -50.2276 -159.72L362.702 62.552C366.895 61.0358 370.901 59.3389 374.707 57.4608ZM343.969 67.8723L-45.5857 -141.817C-43.9487 -136.967 -41.9971 -132.062 -39.742 -127.119L327.557 70.5909C333.224 69.9121 338.701 69.0061 343.969 67.8723ZM301.766 72.1119L-28.0416 -105.417C-24.253 -99.311 -20.0383 -93.185 -15.4176 -87.0687L278.574 71.1809C286.514 71.8261 294.257 72.1368 301.766 72.1119ZM239.639 65.6272L9.42595 -58.2919C18.6853 -48.7839 28.8825 -39.4186 39.9387 -30.3145L198.558 55.067C212.498 59.418 226.241 62.9393 239.639 65.6272ZM-30.1163 -229.765L416.569 10.6768C417.576 7.3186 418.339 3.87655 418.866 0.3598L-21.8442 -236.865C-24.7941 -234.653 -27.5553 -232.287 -30.1163 -229.765ZM-8.59305 -245.137L419.706 -14.592C419.58 -18.5838 419.189 -22.6476 418.541 -26.7719L3.13998 -250.374C-0.962111 -248.807 -4.87791 -247.061 -8.59305 -245.137ZM21.4617 -255.916L414.31 -44.4531C412.79 -49.2367 410.961 -54.076 408.832 -58.955L37.5084 -258.831C31.9645 -258.082 26.6089 -257.11 21.4617 -255.916ZM62.6829 -260.684L397.749 -80.325C394.161 -86.3118 390.16 -92.3226 385.764 -98.329L85.2357 -260.097C77.5099 -260.616 69.9805 -260.812 62.6829 -260.684ZM122.748 -255.309L362.343 -126.34C353.848 -135.353 344.508 -144.253 334.387 -152.941L161.272 -246.126C148.187 -249.928 135.304 -252.99 122.748 -255.309Z" fill="#95F1F7"/>
<path fill-rule="evenodd" clip-rule="evenodd" d="M-157.261 1123.84C-150.955 1119.3 -142.403 1120.52 -138.161 1126.58C-133.919 1132.64 -135.592 1141.23 -141.898 1145.78C-148.204 1150.33 -156.755 1149.1 -160.998 1143.04C-165.24 1136.99 -163.567 1128.39 -157.261 1123.84ZM-101.934 1116.97C-95.6275 1112.43 -87.0762 1113.65 -82.8337 1119.71C-78.5913 1125.77 -80.2643 1134.36 -86.5704 1138.91C-92.8766 1143.45 -101.428 1142.23 -105.67 1136.17C-109.913 1130.11 -108.24 1121.52 -101.934 1116.97ZM-116.415 1077.89C-120.657 1071.84 -129.208 1070.61 -135.515 1075.16C-141.821 1079.7 -143.494 1088.3 -139.251 1094.36C-135.009 1100.41 -126.458 1101.64 -120.151 1097.09C-113.845 1092.55 -112.172 1083.95 -116.415 1077.89ZM-117.661 1008.64C-111.355 1004.1 -102.804 1005.32 -98.5613 1011.38C-94.3189 1017.44 -95.9919 1026.03 -102.298 1030.58C-108.604 1035.13 -117.155 1033.9 -121.398 1027.84C-125.64 1021.79 -123.967 1013.19 -117.661 1008.64ZM-65.573 1076.55C-63.1732 1069.25 -67.074 1061.7 -74.2856 1059.68C-81.4972 1057.66 -89.2887 1061.94 -91.6885 1069.24C-94.0882 1076.54 -90.1874 1084.1 -82.9758 1086.11C-75.7643 1088.13 -67.9727 1083.85 -65.573 1076.55ZM-73.8043 997.661C-67.4982 993.115 -58.9468 994.341 -54.7044 1000.4C-50.462 1006.46 -52.135 1015.05 -58.4411 1019.6C-64.7473 1024.14 -73.2986 1022.92 -77.541 1016.86C-81.7835 1010.8 -80.1105 1002.21 -73.8043 997.661ZM7.83881 1120.37C3.59638 1114.31 -4.95492 1113.08 -11.2611 1117.63C-17.5672 1122.18 -19.2402 1130.77 -14.9978 1136.83C-10.7553 1142.89 -2.20404 1144.11 4.10213 1139.57C10.4083 1135.02 12.0812 1126.42 7.83881 1120.37ZM-53.3016 1106.67C-46.9954 1102.13 -38.4441 1103.35 -34.2017 1109.41C-29.9593 1115.47 -31.6322 1124.06 -37.9384 1128.61C-44.2445 1133.15 -52.7959 1131.93 -57.0383 1125.87C-61.2807 1119.81 -59.6077 1111.22 -53.3016 1106.67ZM171.794 1051.76C176.575 1057.39 185.241 1057.85 191.149 1052.79C197.056 1047.73 197.969 1039.06 193.188 1033.43C188.406 1027.79 179.741 1027.33 173.833 1032.39C167.925 1037.45 167.012 1046.12 171.794 1051.76ZM133.849 1044.58C127.941 1049.64 119.275 1049.18 114.494 1043.55C109.712 1037.91 110.625 1029.24 116.533 1024.18C122.441 1019.12 131.107 1019.58 135.888 1025.22C140.67 1030.85 139.757 1039.52 133.849 1044.58ZM122.384 1103.88C127.165 1109.51 135.831 1109.98 141.739 1104.92C147.646 1099.85 148.559 1091.18 143.778 1085.55C138.996 1079.92 130.331 1079.45 124.423 1084.52C118.515 1089.58 117.602 1098.25 122.384 1103.88ZM87.2412 1082.31C81.3334 1087.37 72.668 1086.9 67.8864 1081.27C63.1048 1075.64 64.0179 1066.97 69.9257 1061.91C75.8335 1056.84 84.499 1057.31 89.2805 1062.94C94.0621 1068.57 93.1491 1077.24 87.2412 1082.31ZM81.8991 1009.27C86.6807 1014.91 95.3461 1015.37 101.254 1010.31C107.162 1005.25 108.075 996.577 103.293 990.944C98.5117 985.31 89.8462 984.847 83.9384 989.909C78.0306 994.971 77.1176 1003.64 81.8991 1009.27ZM79.8199 1133.05C73.9121 1138.11 65.2466 1137.64 60.4651 1132.01C55.6835 1126.38 56.5966 1117.71 62.5044 1112.65C68.4122 1107.58 77.0777 1108.05 81.8592 1113.68C86.6408 1119.31 85.7278 1127.98 79.8199 1133.05ZM-11.3158 1084.72C-6.53422 1090.36 2.13123 1090.82 8.03907 1085.76C13.9469 1080.7 14.8599 1072.03 10.0784 1066.39C5.29682 1060.76 -3.36865 1060.3 -9.27649 1065.36C-15.1843 1070.42 -16.0973 1079.09 -11.3158 1084.72ZM52.7783 1057.63C46.8704 1062.69 38.205 1062.23 33.4234 1056.6C28.6419 1050.96 29.5549 1042.29 35.4627 1037.23C41.3706 1032.17 50.036 1032.63 54.8176 1038.27C59.5992 1043.9 58.6861 1052.57 52.7783 1057.63ZM65.9621 909.499C70.7437 915.132 79.4092 915.595 85.317 910.533C91.2248 905.471 92.1378 896.801 87.3563 891.168C82.5748 885.534 73.9093 885.071 68.0014 890.133C62.0936 895.195 61.1806 903.865 65.9621 909.499ZM37.8808 919.823C31.973 924.885 23.3075 924.421 18.526 918.788C13.7444 913.155 14.6574 904.484 20.5653 899.422C26.4731 894.36 35.1386 894.824 39.9201 900.457C44.7017 906.09 43.7887 914.761 37.8808 919.823ZM55.9477 966.087C60.7292 971.72 69.3947 972.183 75.3025 967.121C81.2104 962.059 82.1234 953.389 77.3418 947.756C72.5603 942.122 63.8948 941.659 57.987 946.721C52.0791 951.783 51.1661 960.453 55.9477 966.087ZM32.5359 1010.33C26.628 1015.39 17.9626 1014.93 13.181 1009.29C8.39949 1003.66 9.31249 994.991 15.2203 989.929C21.1282 984.867 29.7936 985.33 34.5752 990.964C39.3567 996.597 38.4437 1005.27 32.5359 1010.33ZM-25.4871 892.747C-20.7055 898.38 -12.0401 898.843 -6.13224 893.781C-0.224388 888.719 0.688616 880.049 -4.09293 874.416C-8.87447 868.782 -17.5399 868.319 -23.4478 873.381C-29.3556 878.443 -30.2686 887.113 -25.4871 892.747ZM-39.1928 975.383C-45.1007 980.445 -53.7661 979.982 -58.5477 974.348C-63.3292 968.715 -62.4162 960.045 -56.5084 954.983C-50.6005 949.921 -41.9351 950.384 -37.1535 956.017C-32.372 961.651 -33.285 970.321 -39.1928 975.383ZM-45.8308 1047.71C-41.0492 1053.34 -32.3838 1053.81 -26.4759 1048.74C-20.5681 1043.68 -19.6551 1035.01 -24.4366 1029.38C-29.2182 1023.74 -37.8837 1023.28 -43.7915 1028.34C-49.6993 1033.4 -50.6123 1042.08 -45.8308 1047.71ZM-57.5548 927.239C-63.4627 932.301 -72.1281 931.838 -76.9097 926.204C-81.6912 920.571 -80.7782 911.901 -74.8704 906.839C-68.9626 901.777 -60.2971 902.24 -55.5155 907.873C-50.734 913.507 -51.647 922.177 -57.5548 927.239ZM-8.98147 959.249C-4.19991 964.883 4.46556 965.346 10.3734 960.284C16.2812 955.222 17.1942 946.552 12.4127 940.918C7.63114 935.285 -1.03434 934.822 -6.94216 939.884C-12.85 944.946 -13.763 953.616 -8.98147 959.249ZM358.947 1010.23C353.039 1015.29 344.373 1014.83 339.592 1009.2C334.81 1003.56 335.723 994.894 341.631 989.832C347.539 984.77 356.204 985.233 360.986 990.867C365.767 996.5 364.854 1005.17 358.947 1010.23ZM295.891 1057.21C300.673 1062.84 309.338 1063.3 315.246 1058.24C321.154 1053.18 322.067 1044.51 317.285 1038.87C312.504 1033.24 303.838 1032.78 297.93 1037.84C292.022 1042.9 291.109 1051.57 295.891 1057.21ZM343.222 1128.85C337.314 1133.92 328.648 1133.45 323.867 1127.82C319.085 1122.19 319.998 1113.52 325.906 1108.45C331.814 1103.39 340.479 1103.85 345.261 1109.49C350.042 1115.12 349.129 1123.79 343.222 1128.85ZM207.347 1108.66C212.129 1114.29 220.794 1114.75 226.702 1109.69C232.61 1104.63 233.523 1095.96 228.741 1090.32C223.96 1084.69 215.294 1084.23 209.386 1089.29C203.479 1094.35 202.566 1103.02 207.347 1108.66ZM221.511 1010.27C215.603 1015.34 206.937 1014.87 202.156 1009.24C197.374 1003.61 198.287 994.935 204.195 989.873C210.103 984.811 218.768 985.274 223.55 990.908C228.331 996.541 227.418 1005.21 221.511 1010.27ZM219.543 1058.6C224.325 1064.23 232.99 1064.7 238.898 1059.63C244.806 1054.57 245.719 1045.9 240.937 1040.27C236.156 1034.64 227.49 1034.17 221.583 1039.23C215.675 1044.3 214.762 1052.97 219.543 1058.6ZM279.227 1117.22C273.319 1122.28 264.653 1121.82 259.872 1116.18C255.09 1110.55 256.003 1101.88 261.911 1096.82C267.819 1091.75 276.484 1092.22 281.266 1097.85C286.047 1103.48 285.134 1112.15 279.227 1117.22ZM368.187 774.013C372.968 779.647 381.634 780.11 387.541 775.048C393.449 769.986 394.362 761.316 389.581 755.682C384.799 750.049 376.134 749.586 370.226 754.648C364.318 759.71 363.405 768.38 368.187 774.013ZM317.163 834.034C311.256 839.096 302.59 838.633 297.809 833C293.027 827.366 293.94 818.696 299.848 813.634C305.756 808.572 314.421 809.035 319.203 814.669C323.984 820.302 323.071 828.972 317.163 834.034ZM180.875 942.052C185.657 947.685 194.322 948.148 200.23 943.086C206.138 938.024 207.051 929.354 202.269 923.721C197.488 918.087 188.822 917.624 182.914 922.686C177.007 927.748 176.094 936.418 180.875 942.052ZM279.276 902.61C273.368 907.672 264.703 907.209 259.921 901.575C255.139 895.942 256.053 887.272 261.96 882.21C267.868 877.148 276.534 877.611 281.315 883.244C286.097 888.878 285.184 897.548 279.276 902.61ZM251.513 944.773C256.295 950.407 264.96 950.87 270.868 945.808C276.776 940.746 277.689 932.076 272.908 926.442C268.126 920.809 259.461 920.346 253.553 925.408C247.645 930.47 246.732 939.14 251.513 944.773ZM244.813 877.937C238.905 882.999 230.24 882.536 225.458 876.902C220.676 871.269 221.589 862.599 227.497 857.537C233.405 852.475 242.071 852.938 246.852 858.572C251.634 864.205 250.721 872.875 244.813 877.937ZM130.997 883.101C135.778 888.735 144.444 889.198 150.352 884.136C156.259 879.074 157.172 870.404 152.391 864.77C147.609 859.137 138.944 858.674 133.036 863.736C127.128 868.797 126.215 877.468 130.997 883.101ZM157.463 986.295C151.556 991.357 142.89 990.893 138.109 985.26C133.327 979.627 134.24 970.956 140.148 965.894C146.056 960.832 154.721 961.296 159.503 966.929C164.284 972.562 163.371 981.233 157.463 986.295ZM33.5248 854.333C38.3064 859.966 46.9719 860.43 52.8797 855.368C58.7875 850.306 59.7005 841.635 54.919 836.002C50.1374 830.369 41.472 829.905 35.5641 834.967C29.6563 840.029 28.7433 848.7 33.5248 854.333ZM145.785 932.818C139.877 937.88 131.211 937.417 126.43 931.783C121.648 926.15 122.561 917.48 128.469 912.418C134.377 907.356 143.043 907.819 147.824 913.452C152.606 919.086 151.693 927.756 145.785 932.818ZM142.777 734.313C147.558 739.946 156.224 740.41 162.131 735.348C168.039 730.286 168.952 721.615 164.171 715.982C159.389 710.349 150.724 709.885 144.816 714.947C138.908 720.009 137.995 728.68 142.777 734.313ZM144.505 788.119C138.597 793.181 129.932 792.718 125.15 787.085C120.368 781.451 121.282 772.781 127.189 767.719C133.097 762.657 141.763 763.12 146.544 768.754C151.326 774.387 150.413 783.057 144.505 788.119ZM93.6269 848.144C98.4085 853.778 107.074 854.241 112.982 849.179C118.89 844.117 119.803 835.447 115.021 829.813C110.24 824.18 101.574 823.717 95.6662 828.779C89.7584 833.841 88.8454 842.511 93.6269 848.144ZM52.4442 761.289C46.5364 766.351 37.8709 765.888 33.0894 760.254C28.3079 754.621 29.2209 745.951 35.1287 740.889C41.0365 735.827 49.702 736.29 54.4836 741.923C59.2651 747.557 58.3521 756.227 52.4442 761.289ZM51.0398 797.729C55.8213 803.362 64.4868 803.826 70.3946 798.764C76.3025 793.702 77.2155 785.031 72.4339 779.398C67.6524 773.765 58.9869 773.301 53.0791 778.363C47.1713 783.425 46.2582 792.096 51.0398 797.729ZM18.052 744.304C12.1442 749.366 3.47872 748.903 -1.30282 743.269C-6.08437 737.636 -5.17133 728.966 0.736485 723.904C6.64432 718.842 15.3098 719.305 20.0913 724.938C24.8729 730.572 23.9599 739.242 18.052 744.304ZM167.325 671.226C172.107 676.86 180.772 677.323 186.68 672.261C192.588 667.199 193.501 658.529 188.72 652.895C183.938 647.262 175.273 646.799 169.365 651.861C163.457 656.923 162.544 665.593 167.325 671.226ZM100.161 751.136C94.2529 756.198 85.5875 755.735 80.8059 750.101C76.0244 744.468 76.9374 735.797 82.8452 730.736C88.7531 725.674 97.4185 726.137 102.2 731.77C106.982 737.404 106.069 746.074 100.161 751.136ZM150.771 819.33C155.552 824.964 164.218 825.427 170.125 820.365C176.033 815.303 176.946 806.633 172.165 800.999C167.383 795.366 158.718 794.903 152.81 799.965C146.902 805.027 145.989 813.697 150.771 819.33ZM-11.2715 806.706C-17.1793 811.768 -25.8448 811.305 -30.6264 805.671C-35.4079 800.038 -34.4949 791.368 -28.587 786.306C-22.6792 781.244 -14.0137 781.707 -9.2322 787.341C-4.45065 792.974 -5.36365 801.644 -11.2715 806.706ZM-41.8885 850.927C-37.1069 856.561 -28.4414 857.024 -22.5336 851.962C-16.6258 846.9 -15.7128 838.23 -20.4943 832.596C-25.2759 826.963 -33.9413 826.5 -39.8492 831.562C-45.757 836.624 -46.67 845.294 -41.8885 850.927ZM268.068 989.232C273.694 983.857 282.397 983.824 287.508 989.16C292.619 994.495 292.202 1003.18 286.577 1008.55C280.951 1013.93 272.248 1013.96 267.137 1008.63C262.026 1003.29 262.443 994.607 268.068 989.232ZM346.75 859.07C341.639 853.735 332.936 853.767 327.31 859.143C321.685 864.518 321.268 873.2 326.379 878.536C331.49 883.871 340.194 883.838 345.819 878.463C351.444 873.088 351.861 864.405 346.75 859.07ZM306.602 927.713C312.228 922.338 320.931 922.305 326.042 927.641C331.153 932.976 330.736 941.659 325.111 947.034C319.486 952.409 310.782 952.441 305.671 947.106C300.56 941.771 300.977 933.088 306.602 927.713ZM378.619 947.509C373.508 942.174 364.804 942.206 359.179 947.581C353.554 952.956 353.137 961.639 358.248 966.974C363.359 972.31 372.062 972.277 377.688 966.902C383.313 961.527 383.73 952.844 378.619 947.509ZM351.341 899.588C356.967 894.213 365.67 894.181 370.781 899.516C375.892 904.851 375.475 913.534 369.85 918.909C364.225 924.284 355.521 924.317 350.41 918.982C345.299 913.646 345.716 904.964 351.341 899.588ZM431.817 888.528C426.706 883.192 418.003 883.225 412.378 888.6C406.752 893.975 406.336 902.658 411.446 907.993C416.557 913.328 425.261 913.296 430.886 907.921C436.511 902.545 436.928 893.863 431.817 888.528ZM447.671 883.79C453.296 878.415 462 878.382 467.111 883.718C472.222 889.053 471.805 897.735 466.179 903.111C460.554 908.486 451.851 908.518 446.74 903.183C441.629 897.848 442.046 889.165 447.671 883.79ZM426.834 838.477C421.723 833.142 413.02 833.174 407.395 838.549C401.769 843.925 401.352 852.607 406.463 857.942C411.574 863.278 420.278 863.245 425.903 857.87C431.528 852.495 431.945 843.812 426.834 838.477ZM176.432 839.989C182.057 834.614 190.76 834.582 195.871 839.917C200.982 845.252 200.565 853.935 194.94 859.31C189.315 864.685 180.611 864.718 175.5 859.382C170.389 854.047 170.806 845.365 176.432 839.989ZM207.651 691.129C202.54 685.793 193.837 685.826 188.212 691.201C182.586 696.576 182.169 705.259 187.28 710.594C192.391 715.93 201.095 715.897 206.72 710.522C212.345 705.147 212.762 696.464 207.651 691.129ZM224.025 809.807C229.65 804.432 238.354 804.399 243.465 809.735C248.576 815.07 248.159 823.752 242.534 829.128C236.908 834.503 228.205 834.535 223.094 829.2C217.983 823.865 218.4 815.182 224.025 809.807ZM214.607 756.263C209.496 750.928 200.792 750.96 195.167 756.335C189.542 761.711 189.125 770.393 194.236 775.728C199.347 781.064 208.05 781.031 213.675 775.656C219.301 770.281 219.718 761.598 214.607 756.263ZM361.461 809.766C367.087 804.391 375.79 804.358 380.901 809.694C386.012 815.029 385.595 823.712 379.97 829.087C374.344 834.462 365.641 834.494 360.53 829.159C355.419 823.824 355.836 815.141 361.461 809.766ZM265.211 761.047C260.1 755.712 251.397 755.744 245.772 761.12C240.146 766.495 239.729 775.177 244.84 780.513C249.951 785.848 258.655 785.816 264.28 780.44C269.905 775.065 270.322 766.383 265.211 761.047ZM51.7097 686.442C57.335 681.067 66.0385 681.034 71.1494 686.37C76.2604 691.705 75.8435 700.388 70.2182 705.763C64.5929 711.138 55.8894 711.17 50.7784 705.835C45.6675 700.5 46.0844 691.817 51.7097 686.442ZM38.1101 665.22C32.9992 659.885 24.2957 659.917 18.6704 665.293C13.0451 670.668 12.6282 679.35 17.7391 684.686C22.8501 690.021 31.5535 689.989 37.1788 684.613C42.8041 679.238 43.2211 670.556 38.1101 665.22ZM38.3578 609.474C43.9831 604.099 52.6866 604.066 57.7976 609.401C62.9085 614.737 62.4916 623.419 56.8663 628.794C51.241 634.17 42.5375 634.202 37.4265 628.867C32.3156 623.532 32.7325 614.849 38.3578 609.474ZM131.252 680.181C126.141 674.846 117.437 674.878 111.812 680.254C106.187 685.629 105.77 694.311 110.881 699.647C115.992 704.982 124.695 704.95 130.32 699.574C135.946 694.199 136.363 685.516 131.252 680.181ZM80.0474 616.498C85.6727 611.123 94.3762 611.09 99.4871 616.426C104.598 621.761 104.181 630.443 98.5558 635.819C92.9305 641.194 84.2271 641.226 79.1161 635.891C74.0052 630.556 74.4221 621.873 80.0474 616.498ZM111.631 554.028C106.52 548.693 97.8168 548.725 92.1915 554.101C86.5662 559.476 86.1492 568.159 91.2602 573.494C96.3711 578.829 105.075 578.797 110.7 573.421C116.325 568.046 116.742 559.364 111.631 554.028ZM197.293 581.495C202.918 576.12 211.622 576.088 216.733 581.423C221.844 586.758 221.427 595.441 215.801 600.816C210.176 606.191 201.473 606.224 196.362 600.888C191.251 595.553 191.668 586.871 197.293 581.495ZM151.518 630.866C146.407 625.531 137.704 625.563 132.079 630.938C126.453 636.314 126.036 644.996 131.147 650.332C136.258 655.667 144.962 655.634 150.587 650.259C156.212 644.884 156.629 636.201 151.518 630.866ZM59.1523 532.951C64.7776 527.576 73.4811 527.543 78.592 532.879C83.703 538.214 83.286 546.897 77.6607 552.272C72.0354 557.647 63.332 557.68 58.221 552.344C53.1101 547.009 53.527 538.326 59.1523 532.951ZM103.689 481.352C98.5785 476.017 89.875 476.049 84.2498 481.425C78.6244 486.8 78.2075 495.483 83.3184 500.818C88.4294 506.153 97.1328 506.121 102.758 500.745C108.383 495.37 108.8 486.688 103.689 481.352ZM116.793 503.356C122.418 497.98 131.121 497.948 136.232 503.283C141.343 508.619 140.926 517.301 135.301 522.676C129.676 528.052 120.972 528.084 115.861 522.749C110.75 517.413 111.167 508.731 116.793 503.356ZM172.313 554.343C167.202 549.008 158.499 549.04 152.873 554.416C147.248 559.791 146.831 568.473 151.942 573.809C157.053 579.144 165.756 579.112 171.382 573.736C177.007 568.361 177.424 559.679 172.313 554.343ZM144.248 450.553C149.873 445.178 158.576 445.145 163.687 450.481C168.798 455.816 168.381 464.498 162.756 469.874C157.131 475.249 148.427 475.281 143.316 469.946C138.205 464.611 138.622 455.928 144.248 450.553ZM146.352 413.461C141.241 408.126 132.538 408.158 126.912 413.533C121.287 418.909 120.87 427.591 125.981 432.927C131.092 438.262 139.795 438.229 145.421 432.854C151.046 427.479 151.463 418.796 146.352 413.461ZM197.085 532.129C202.71 526.754 211.414 526.721 216.525 532.057C221.635 537.392 221.219 546.075 215.593 551.45C209.968 556.825 201.264 556.857 196.154 551.522C191.043 546.187 191.46 537.504 197.085 532.129ZM192 498.525C186.889 493.189 178.186 493.222 172.56 498.597C166.935 503.972 166.518 512.655 171.629 517.99C176.74 523.326 185.443 523.293 191.069 517.918C196.694 512.543 197.111 503.86 192 498.525ZM344.995 734.955C337.922 732.551 334.442 724.781 337.223 717.599C340.003 710.417 347.992 706.543 355.065 708.947C362.138 711.35 365.618 719.121 362.838 726.303C360.057 733.485 352.069 737.359 344.995 734.955ZM305.667 677.446C302.887 684.628 306.367 692.398 313.44 694.802C320.514 697.206 328.502 693.332 331.283 686.15C334.063 678.968 330.583 671.197 323.51 668.794C316.436 666.39 308.448 670.264 305.667 677.446ZM281.364 748.677C274.291 746.274 270.811 738.503 273.592 731.321C276.372 724.139 284.361 720.265 291.434 722.669C298.507 725.073 301.987 732.843 299.207 740.025C296.426 747.207 288.438 751.081 281.364 748.677ZM306.186 765.594C303.406 772.776 306.886 780.546 313.959 782.95C321.033 785.354 329.021 781.48 331.802 774.298C334.582 767.116 331.102 759.345 324.029 756.942C316.955 754.538 308.967 758.412 306.186 765.594ZM264.702 645.15C257.629 642.747 254.149 634.976 256.93 627.794C259.71 620.612 267.699 616.738 274.772 619.142C281.846 621.545 285.326 629.316 282.545 636.498C279.764 643.68 271.776 647.554 264.702 645.15ZM227.502 665.513C224.721 672.695 228.201 680.466 235.275 682.869C242.348 685.273 250.336 681.399 253.117 674.217C255.898 667.035 252.418 659.265 245.344 656.861C238.271 654.458 230.283 658.331 227.502 665.513ZM397.005 1011.93C389.931 1009.53 386.451 1001.76 389.232 994.574C392.012 987.392 400.001 983.519 407.074 985.922C414.148 988.326 417.628 996.096 414.847 1003.28C412.066 1010.46 404.078 1014.33 397.005 1011.93ZM242.397 576.375C239.616 583.557 243.096 591.328 250.169 593.731C257.243 596.135 265.231 592.261 268.012 585.079C270.792 577.897 267.312 570.127 260.239 567.723C253.166 565.319 245.177 569.193 242.397 576.375ZM257.385 720.573C250.312 718.17 246.832 710.399 249.612 703.217C252.393 696.035 260.381 692.161 267.455 694.565C274.528 696.968 278.008 704.739 275.228 711.921C272.447 719.103 264.459 722.977 257.385 720.573ZM570.566 1061.92C567.785 1069.1 571.265 1076.87 578.339 1079.28C585.412 1081.68 593.401 1077.81 596.181 1070.63C598.962 1063.44 595.482 1055.67 588.408 1053.27C581.335 1050.87 573.347 1054.74 570.566 1061.92ZM546.783 1039.12C539.71 1036.72 536.23 1028.95 539.011 1021.77C541.791 1014.59 549.78 1010.71 556.853 1013.12C563.927 1015.52 567.407 1023.29 564.626 1030.47C561.845 1037.65 553.857 1041.53 546.783 1039.12ZM604.418 1099.41C601.637 1106.6 605.117 1114.37 612.191 1116.77C619.264 1119.17 627.253 1115.3 630.033 1108.12C632.814 1100.94 629.334 1093.17 622.26 1090.76C615.187 1088.36 607.199 1092.23 604.418 1099.41ZM471.952 1131.21C464.879 1128.81 461.399 1121.04 464.179 1113.85C466.96 1106.67 474.948 1102.8 482.022 1105.2C489.095 1107.61 492.575 1115.38 489.795 1122.56C487.014 1129.74 479.026 1133.61 471.952 1131.21ZM537.62 1102.18C534.84 1109.36 538.32 1117.13 545.393 1119.53C552.467 1121.94 560.455 1118.06 563.236 1110.88C566.016 1103.7 562.536 1095.93 555.463 1093.52C548.389 1091.12 540.401 1094.99 537.62 1102.18ZM519.078 989.954C512.004 987.55 508.524 979.779 511.305 972.597C514.085 965.415 522.074 961.542 529.147 963.945C536.221 966.349 539.701 974.119 536.92 981.301C534.139 988.483 526.151 992.357 519.078 989.954ZM492.351 1020.63C489.57 1027.81 493.05 1035.58 500.124 1037.99C507.197 1040.39 515.185 1036.52 517.966 1029.33C520.747 1022.15 517.267 1014.38 510.193 1011.98C503.12 1009.57 495.131 1013.45 492.351 1020.63ZM480.774 959.797C473.7 957.393 470.22 949.622 473.001 942.44C475.781 935.258 483.77 931.385 490.843 933.788C497.917 936.192 501.397 943.963 498.616 951.145C495.835 958.327 487.847 962.2 480.774 959.797ZM458.963 994.568C456.182 1001.75 459.662 1009.52 466.736 1011.92C473.809 1014.33 481.798 1010.45 484.578 1003.27C487.359 996.09 483.879 988.32 476.805 985.916C469.732 983.513 461.744 987.386 458.963 994.568ZM403.908 1064.72C396.835 1062.32 393.355 1054.55 396.135 1047.37C398.916 1040.18 406.904 1036.31 413.978 1038.71C421.051 1041.12 424.531 1048.89 421.751 1056.07C418.97 1063.25 410.982 1067.13 403.908 1064.72ZM345.531 1042.58C342.751 1049.76 346.231 1057.54 353.304 1059.94C360.377 1062.34 368.366 1058.47 371.146 1051.29C373.927 1044.1 370.447 1036.33 363.374 1033.93C356.3 1031.53 348.312 1035.4 345.531 1042.58ZM405.103 1121.63C398.029 1119.23 394.549 1111.46 397.33 1104.27C400.111 1097.09 408.099 1093.22 415.172 1095.62C422.246 1098.03 425.726 1105.8 422.945 1112.98C420.164 1120.16 412.176 1124.03 405.103 1121.63ZM158.789 1119.43C156.009 1126.61 159.489 1134.38 166.562 1136.79C173.636 1139.19 181.624 1135.32 184.405 1128.13C187.185 1120.95 183.705 1113.18 176.632 1110.78C169.558 1108.37 161.57 1112.25 158.789 1119.43ZM462.194 1080.48C455.121 1078.07 451.641 1070.3 454.421 1063.12C457.202 1055.94 465.19 1052.06 472.264 1054.47C479.337 1056.87 482.817 1064.64 480.037 1071.82C477.256 1079.01 469.268 1082.88 462.194 1080.48ZM420.528 947.256C417.747 954.438 421.227 962.208 428.301 964.612C435.374 967.015 443.363 963.142 446.143 955.96C448.924 948.778 445.444 941.007 438.371 938.603C431.297 936.2 423.309 940.074 420.528 947.256Z" fill="#95F1F7" fill-opacity="0.5"/>
<path fill-rule="evenodd" clip-rule="evenodd" d="M-45.531 119.129C-52.2474 116.588 -59.1825 114.702 -66.2251 113.477L22.4098 204.053C21.6389 197.294 20.1672 190.588 17.9905 184.041L-45.531 119.129ZM7.00799 161.196C3.28839 155.445 -1.08161 149.956 -6.1056 144.822C-11.1296 139.688 -16.5743 135.147 -22.3424 131.203L7.00799 161.196ZM23.0406 216.319L-79.0621 111.981C-84.0827 111.68 -89.1235 111.707 -94.1456 112.063L21.8493 230.598C22.5915 225.868 22.9891 221.096 23.0406 216.319ZM19.8561 240.183L-104.359 113.248C-108.558 113.927 -112.725 114.842 -116.838 115.992L16.0602 251.8C17.5694 247.99 18.835 244.11 19.8561 240.183ZM12.4912 259.774L-125.475 118.787C-129.097 120.124 -132.661 121.652 -136.151 123.373L6.89251 269.549C8.95544 266.37 10.8219 263.107 12.4912 259.774ZM2.11833 276.292L-143.583 127.4C-146.729 129.265 -149.799 131.298 -152.779 133.499L-4.96053 284.554C-2.43057 281.893 -0.0707878 279.134 2.11833 276.292ZM-10.7811 290.228L-159.164 138.595C-159.495 138.88 -159.824 139.166 -160.151 139.455C-162.563 141.583 -164.85 143.791 -167.013 146.07L-19.2067 297.113C-16.6548 295.232 -14.1687 293.227 -11.757 291.099C-11.4294 290.81 -11.1041 290.52 -10.7811 290.228ZM-26.0341 301.758L-172.392 152.195C-174.726 155.072 -176.88 158.041 -178.854 161.088L-35.8476 307.226C-32.5026 305.58 -29.2264 303.757 -26.0341 301.758ZM-43.7743 310.747L-183.133 168.337C-184.971 171.769 -186.596 175.28 -188.007 178.852L-55.1752 314.592C-51.3202 313.518 -47.5135 312.237 -43.7743 310.747ZM-64.4292 316.757L-190.959 187.457C-192.175 191.611 -193.114 195.826 -193.776 200.074L-77.8871 318.501C-73.377 318.185 -68.8817 317.605 -64.4292 316.757ZM-89.0261 318.74L-194.843 210.605C-196.115 237.36 -186.518 264.564 -165.803 285.733C-145.087 306.902 -117.219 317.983 -89.0261 318.74Z" fill="#95F1F7"/>
<path d="M428.381 69C428.381 76.1797 422.251 82 414.69 82C407.129 82 401 76.1797 401 69C401 61.8203 407.129 56 414.69 56C422.251 56 428.381 61.8203 428.381 69Z" fill="#CAC1FF"/>
<path opacity="0.8" d="M564.216 261.364L614.514 127.941L704.955 257.075L564.216 261.364Z" fill="#BDB2FF"/>
</g>
<defs>
<clipPath id="clip0">
<rect width="663" height="820" fill="white"/>
</clipPath>
</defs>
</svg>
