<svg width="21" height="20" viewBox="0 0 21 20" fill="none" xmlns="http://www.w3.org/2000/svg">
<g clip-path="url(#clip0)">
<path d="M7.06962 15.7504C6.89908 15.9209 6.61898 16.139 6.49108 15.9259C6.40581 15.798 6.64767 15.8002 6.73294 15.715C6.69031 15.715 6.70429 15.7343 6.66166 15.7343C6.78956 15.6916 6.95182 15.76 7.07972 15.76C7.08689 15.7594 7.06962 15.7504 7.06962 15.7504Z" fill="black"/>
<path d="M5.75194 15.5837C5.66668 15.6689 5.71733 15.7943 5.71733 15.8796C5.9305 15.837 6.11847 15.8505 6.33164 15.7652C6.1611 15.68 5.97228 15.5854 5.80174 15.5428C5.75911 15.5428 5.70215 15.5607 5.70215 15.6033C5.74478 15.6033 5.8008 15.5899 5.8008 15.6752C5.75817 15.6752 5.75084 15.6335 5.75084 15.5909C5.75028 15.5865 5.75194 15.5837 5.75194 15.5837Z" fill="black"/>
<path d="M7.33828 15.6726C7.31696 15.6513 7.32412 15.6378 7.29718 15.6243C7.25454 15.6243 7.20398 15.6828 7.24661 15.7254C7.28925 15.7254 7.328 15.7178 7.37063 15.7178C7.328 15.7605 7.29901 15.8427 7.29901 15.8854C7.31248 15.9124 7.30894 15.9136 7.33819 15.9208C7.46609 15.9208 7.54978 15.8496 7.67769 15.8496C7.72032 15.807 7.77161 15.705 7.68634 15.6197C7.60107 15.5771 7.46422 15.6347 7.33631 15.6773C7.33461 15.6779 7.33828 15.6726 7.33828 15.6726Z" fill="black"/>
<path d="M20.4769 9.59488C20.4758 9.57523 20.4733 9.55562 20.4694 9.5363C20.4569 9.4738 20.4577 9.40857 20.4588 9.32599C20.4601 9.22009 20.4618 9.08826 20.4317 8.93764C20.3923 8.74109 20.3631 8.54562 20.3321 8.33863L20.3291 8.31893C20.306 8.16498 20.2736 8.017 20.2423 7.87392C20.227 7.80379 20.2115 7.73357 20.1974 7.66288C20.1961 7.65627 20.1946 7.64967 20.1929 7.6431C20.1325 7.40149 20.0631 7.16019 19.9865 6.92587C19.9661 6.86345 19.9465 6.80087 19.927 6.73849C19.8736 6.56783 19.8184 6.39137 19.7465 6.21661C19.6781 6.05034 19.5968 5.90057 19.5183 5.75578C19.4792 5.68377 19.4422 5.61577 19.4081 5.54794C19.2857 5.30489 19.1546 5.08195 19.0425 4.89598C19.0171 4.8539 18.9919 4.81165 18.9668 4.76945C18.8678 4.60305 18.7653 4.43097 18.6463 4.26274L18.5795 4.16805C18.4622 4.00135 18.3409 3.82894 18.2041 3.66165L18.1617 3.60976C18.0229 3.43978 17.8794 3.26404 17.7214 3.09427C17.718 3.09056 17.7144 3.0869 17.7108 3.08327C17.6613 3.03369 17.609 2.99323 17.5629 2.9575C17.5214 2.9254 17.4698 2.88545 17.4537 2.86124C17.4362 2.83497 17.4158 2.81076 17.393 2.78901C17.202 2.6071 17.0016 2.44654 16.8078 2.29122L16.7543 2.24833C16.6892 2.19606 16.6251 2.14166 16.5573 2.08406C16.4144 1.96277 16.2667 1.8373 16.0998 1.725C15.9006 1.591 15.6955 1.47764 15.4972 1.36794C15.457 1.34577 15.417 1.3236 15.3771 1.30135C15.1227 1.15933 14.8566 1.03612 14.6271 0.931796C14.5633 0.90272 14.4997 0.872833 14.4361 0.842947C14.2531 0.756869 14.0638 0.667849 13.8616 0.594945C13.6781 0.528778 13.497 0.486783 13.3219 0.446153C13.2282 0.42441 13.1397 0.403903 13.0539 0.380411C12.761 0.300345 12.4958 0.237886 12.2432 0.189625C11.9315 0.130065 11.6701 0.0892219 11.4203 0.0611261C11.1522 0.0310265 10.8809 0.0113723 10.5909 0.000969664C10.5859 0.000799128 10.5808 0.000713838 10.5757 0.000713838C10.5679 0.000671204 10.5596 0.000926959 10.5517 0.00139593C10.2545 -0.00256902 10.0056 0.00152385 9.77125 0.0141009C9.53208 0.0269763 9.24894 0.0448826 8.96266 0.0803966C8.71278 0.111391 8.46977 0.159525 8.23477 0.206124L8.16293 0.220406C8.08811 0.2352 8.01294 0.248715 7.93786 0.262188C7.75211 0.295655 7.56004 0.330231 7.36585 0.383737C7.1447 0.444661 6.93392 0.521615 6.73005 0.596011C6.68473 0.612553 6.63945 0.629053 6.59413 0.645381C6.54297 0.663799 6.49168 0.681919 6.44039 0.700038C6.24112 0.770384 6.03511 0.843118 5.83115 0.935591C5.59087 1.04452 5.34525 1.16876 5.10113 1.30489C4.89969 1.41718 4.71384 1.54427 4.5341 1.66723C4.49394 1.69469 4.45378 1.72219 4.41336 1.74951C4.36335 1.78337 4.31296 1.81679 4.26248 1.85026C4.09083 1.96405 3.91331 2.08176 3.7423 2.22117C3.56968 2.36195 3.34359 2.5509 3.12543 2.76459C2.94735 2.93904 2.78521 3.12633 2.62798 3.31115C2.53538 3.36325 2.41873 3.44528 2.33479 3.5838C2.29424 3.63406 2.2534 3.68373 2.21272 3.73319C2.09339 3.87823 1.97005 4.02821 1.85801 4.18903C1.70099 4.41452 1.56482 4.64073 1.42749 4.87202C1.32125 5.05109 1.23462 5.23198 1.1508 5.40699C1.12113 5.46894 1.09154 5.53076 1.06118 5.59211C1.02477 5.6657 0.986104 5.73877 0.945133 5.81619C0.861443 5.97432 0.774853 6.13787 0.702758 6.31672C0.61813 6.52647 0.550513 6.73982 0.485112 6.94612C0.470873 6.99097 0.456675 7.03582 0.442265 7.08067C0.367272 7.31401 0.282303 7.57851 0.213875 7.85205C0.205434 7.88586 0.20117 7.9206 0.20117 7.95544C0.20117 8.01755 0.212724 8.0746 0.223425 8.1223C0.212383 8.17061 0.201 8.21874 0.189617 8.26679C0.145192 8.45459 0.0992753 8.64875 0.0725438 8.85194C0.0434248 9.07283 0.0354096 9.28749 0.0276928 9.49512C0.0253906 9.5563 0.0231315 9.61739 0.0203176 9.67823L0.0176738 9.73464C0.00586422 9.9849 -0.00632891 10.2437 0.0037327 10.5058L0.00629063 10.572C0.0156701 10.8195 0.0253909 11.0753 0.0573237 11.3327C0.0921983 11.614 0.137731 11.8891 0.192644 12.1504C0.23289 12.3421 0.292407 12.5193 0.34992 12.6908C0.379252 12.7781 0.406922 12.8606 0.431351 12.9426C0.456548 13.0273 0.478717 13.115 0.502209 13.2079C0.545653 13.3797 0.590546 13.5572 0.660167 13.7371C0.75473 13.9814 0.862338 14.2158 0.994886 14.4925C1.10906 14.7308 1.23858 14.9762 1.37979 15.2217C1.47703 15.3909 1.5866 15.5449 1.69255 15.6938C1.74405 15.7662 1.79274 15.8347 1.83968 15.9042C1.87609 15.9581 1.91203 16.0124 1.94805 16.0668C2.05963 16.2353 2.17499 16.4095 2.30955 16.5816C2.34945 16.6319 2.38889 16.6825 2.42832 16.733C2.55081 16.8901 2.67743 17.0524 2.81843 17.2067C2.95353 17.3547 3.09636 17.4854 3.23445 17.6118C3.29038 17.663 3.34619 17.714 3.40093 17.7659C3.60204 17.9564 3.806 18.1359 4.00714 18.2994C4.25152 18.4982 4.45634 18.6536 4.65168 18.7884C4.8487 18.9243 5.05189 19.041 5.24839 19.1538L5.34363 19.2086C5.5788 19.3443 5.8103 19.4758 6.0569 19.5923C6.32686 19.7198 6.59856 19.8251 6.80517 19.9025C6.81007 19.9044 6.81506 19.9061 6.82005 19.9078C7.06719 19.9903 7.30155 19.906 7.45661 19.8503C7.47588 19.8433 7.49451 19.8366 7.51229 19.8307C7.54823 19.8187 7.58247 19.802 7.61398 19.7809C7.88871 19.5978 8.0054 19.2431 7.89873 18.917C7.82544 18.6837 7.80063 18.4254 7.78153 18.1807C7.76196 17.9304 7.74597 17.6616 7.76119 17.3934C7.77607 17.1315 7.80148 16.8773 7.82838 16.608L7.83102 16.5819C7.84407 16.4511 7.79611 16.3216 7.70103 16.2309C7.60592 16.1403 7.47414 16.0986 7.34436 16.1177C7.11818 16.1513 6.89103 16.1692 6.64989 16.1725C6.44431 16.1752 6.21243 16.1559 5.95982 16.1145C5.75352 16.0808 5.54934 16.0148 5.35284 15.9186C5.15438 15.8214 5.01787 15.7144 4.92326 15.582C4.81062 15.4244 4.74816 15.2632 4.72659 15.0748C4.72212 15.0357 4.71227 14.9974 4.69726 14.9609C4.64708 14.8391 4.54796 14.7462 4.42534 14.706C4.42219 14.705 4.41899 14.704 4.41571 14.703C4.36646 14.6422 4.31735 14.5776 4.2667 14.5109C4.21652 14.4448 4.16459 14.3765 4.10993 14.3087L4.09766 14.2934C3.95227 14.1128 3.8019 13.926 3.64164 13.749C3.48488 13.5759 3.29354 13.3762 3.06314 13.2073C2.92637 13.107 2.77754 13.0201 2.61839 12.9476C2.5966 12.8842 2.57196 12.8259 2.54685 12.771C2.62184 12.7856 2.70775 12.8009 2.80171 12.8077C2.86404 12.8426 2.95562 12.886 3.07205 12.886C3.08834 12.886 3.10544 12.8865 3.12262 12.8869C3.31149 12.9619 3.4917 13.0601 3.64817 13.1478C3.82433 13.2466 3.9614 13.3404 4.07229 13.4387C4.18186 13.7384 4.31296 13.9735 4.48072 14.1721C4.65889 14.3832 4.88864 14.5769 5.18316 14.7643C5.19237 14.7702 5.20179 14.7757 5.21138 14.7808C5.47375 14.9207 5.74669 15.007 6.02275 15.037C6.29424 15.0666 6.55337 15.023 6.78197 14.9847L6.82414 14.9776C7.10552 14.9306 7.35404 14.8539 7.53911 14.7922C7.72389 14.7306 7.84343 14.5515 7.82958 14.3573C7.81273 14.122 7.91211 13.9081 7.99845 13.7701C8.11569 13.5826 8.26892 13.4541 8.45378 13.3881C8.62726 13.3261 8.74134 13.1597 8.73661 12.9755C8.73188 12.7914 8.60939 12.6311 8.43293 12.5782C8.21102 12.5116 7.98472 12.4683 7.72069 12.4419C7.64331 12.4342 7.56959 12.4306 7.49831 12.4272C7.36687 12.4208 7.25329 12.4153 7.15651 12.3863C7.11678 12.3744 7.07551 12.3683 7.03398 12.3683C6.99804 12.3683 6.93968 12.3546 6.87786 12.3401C6.78935 12.3194 6.68093 12.2939 6.55955 12.2899C6.31454 12.2566 6.03379 12.2086 5.78374 12.1097C5.55983 12.0212 5.33545 11.8924 5.0984 11.7165C5.05432 11.6774 5.01207 11.6503 4.98231 11.6312C4.97992 11.6297 4.97758 11.6282 4.97519 11.6267C4.85752 11.4897 4.75303 11.3223 4.64806 11.103C4.56377 10.9269 4.50012 10.7258 4.44764 10.4702C4.405 10.2623 4.39597 10.044 4.38855 9.78025C4.3819 9.54466 4.38872 9.30254 4.40888 9.06068C4.40931 9.05569 4.40961 9.0507 4.40986 9.04567C4.42291 8.77183 4.46525 8.52225 4.53922 8.28261C4.61272 8.04454 4.71602 7.80507 4.85505 7.55058C4.98014 7.32168 5.12117 7.09849 5.28574 6.86912C5.46928 6.65885 5.42886 6.4201 5.41513 6.33901C5.41432 6.33441 5.41351 6.3298 5.41279 6.3252C5.41215 6.30627 5.41031 6.28743 5.4072 6.26875C5.37621 6.08274 5.3635 5.89549 5.35007 5.69725C5.34713 5.6535 5.34414 5.60993 5.34099 5.56649C5.32496 5.34483 5.3108 5.10996 5.32909 4.88925C5.3447 4.70106 5.36316 4.53743 5.39629 4.38382C5.58008 4.40595 5.76353 4.44125 5.94353 4.48926C6.18778 4.55436 6.4276 4.65438 6.60926 4.73419C6.80508 4.82027 7.0122 4.93039 7.24229 5.07078C7.44318 5.19336 7.64467 5.34944 7.83375 5.49874C7.92806 5.57322 8.04948 5.60443 8.16805 5.58465C8.29642 5.56329 8.42662 5.54112 8.55682 5.51895C8.68247 5.49759 8.80811 5.47623 8.93205 5.45555C9.04311 5.44251 9.14573 5.42115 9.24511 5.40047C9.33234 5.38231 9.41479 5.36513 9.49034 5.35673C9.64821 5.33912 9.8109 5.33938 9.9704 5.35711C10.1098 5.37387 10.2473 5.38683 10.3802 5.39936C10.5071 5.41134 10.6268 5.42264 10.746 5.43675C10.9309 5.45871 11.1195 5.48723 11.3018 5.51481C11.3698 5.52509 11.4377 5.53536 11.5055 5.54534C11.5557 5.55272 11.606 5.55996 11.6563 5.56717C11.8625 5.59676 12.0573 5.62472 12.2508 5.66467C12.4797 5.71191 12.7129 5.77834 12.9719 5.85388C13.1116 5.89464 13.2625 5.8613 13.3721 5.76546C13.5197 5.63628 13.6992 5.52705 13.8727 5.42145C14.0388 5.3204 14.2211 5.22925 14.4141 5.13273L14.4264 5.12655C14.5078 5.09325 14.5848 5.0565 14.6594 5.0209C14.7822 4.96232 14.8982 4.90703 15.0018 4.88298C15.0834 4.86405 15.1899 4.84819 15.3007 4.85633C15.3514 5.01489 15.3931 5.19549 15.4287 5.40964C15.476 5.69396 15.4913 5.94597 15.4755 6.17999C15.4604 6.40433 15.4122 6.64589 15.3239 6.94024C15.3129 6.9769 15.307 7.01485 15.3061 7.05309C15.305 7.06093 15.3033 7.06861 15.3019 7.07611C15.2868 7.15857 15.2478 7.36999 15.4003 7.54969C15.433 7.59326 15.466 7.63705 15.4991 7.68104C15.5897 7.8011 15.6833 7.92529 15.7723 8.04757C15.8877 8.20608 15.997 8.36101 16.0655 8.51403C16.1399 8.6884 16.1921 8.88106 16.2297 9.12015C16.2608 9.31716 16.2908 9.5479 16.278 9.76529C16.2658 9.97095 16.2336 10.1884 16.1795 10.43C16.1449 10.5842 16.0883 10.7415 16.0284 10.908C16.0067 10.968 15.9851 11.0281 15.9643 11.0885C15.9332 11.1792 15.9053 11.2689 15.8784 11.3557C15.8456 11.4615 15.8141 11.563 15.7791 11.6584C15.7036 11.7194 15.6614 11.7901 15.6381 11.8546C15.5347 12.0555 15.4187 12.2287 15.2931 12.37C15.1593 12.5203 14.9761 12.6453 14.7822 12.7777L14.734 12.8106C14.5489 12.9373 14.3741 13.0568 14.1935 13.1279C14.0245 13.1945 13.8284 13.245 13.5605 13.2908C13.4397 13.2971 13.3493 13.3302 13.2748 13.3648C13.2563 13.3667 13.2401 13.3689 13.2258 13.3708C13.2002 13.3741 13.1907 13.3753 13.1766 13.3753C13.1444 13.3753 13.1122 13.3789 13.0808 13.3862C12.7939 13.4524 12.5551 13.4938 12.3294 13.5166C12.1579 13.5339 11.9726 13.5311 11.776 13.5281C11.6989 13.527 11.6216 13.5258 11.5445 13.5258C11.3872 13.5258 11.2428 13.6124 11.1686 13.751C11.0944 13.8896 11.1025 14.0578 11.1898 14.1886C11.275 14.3165 11.387 14.3975 11.4689 14.4568C11.4897 14.4719 11.5189 14.493 11.5354 14.507C11.5526 14.5393 11.5683 14.5667 11.5827 14.5918C11.5999 14.6218 11.6148 14.6478 11.6307 14.6796C11.6355 14.6894 11.6408 14.6989 11.6464 14.7083C11.7673 14.9099 11.8293 15.0681 11.8415 15.2059C11.8545 15.3537 11.8231 15.529 11.7458 15.7417C11.7247 15.7996 11.7164 15.8614 11.7215 15.9228C11.7367 16.1045 11.7443 16.2859 11.7524 16.478C11.7552 16.5438 11.758 16.6097 11.7611 16.6753C11.7663 16.7865 11.7743 16.8966 11.782 17.0031C11.7927 17.1516 11.8028 17.2918 11.8058 17.4309L11.8097 17.6083C11.814 17.8002 11.8184 17.9988 11.8194 18.1922C11.8201 18.3107 11.8135 18.4336 11.8065 18.5638C11.7996 18.6941 11.7924 18.8287 11.7924 18.9651C11.7924 19.0619 11.8253 19.1558 11.8858 19.2314C11.918 19.2718 11.9521 19.3242 11.9882 19.3797C12.1206 19.5836 12.302 19.8628 12.6745 19.9692C12.6899 19.9736 12.7056 19.9771 12.7214 19.9797C12.8013 19.9931 12.8817 19.9998 12.9628 19.9998C13.2008 19.9998 13.4457 19.9422 13.7049 19.826C13.8314 19.7692 13.9524 19.705 14.0693 19.6428C14.1729 19.5879 14.271 19.5358 14.3686 19.4909C14.5668 19.4153 14.7464 19.3199 14.9204 19.2276C14.9688 19.2019 15.0172 19.1762 15.0658 19.1511C15.1234 19.1213 15.1817 19.0925 15.2402 19.0636C15.4098 18.9797 15.5852 18.8929 15.758 18.78C15.9627 18.6461 16.1695 18.4968 16.393 18.3212C16.6207 18.139 16.8299 17.9519 17.0145 17.7868C17.2368 17.588 17.4383 17.382 17.6061 17.2067C17.7859 17.0189 17.9776 16.8136 18.1608 16.5846C18.1635 16.5811 18.1663 16.5776 18.1689 16.574C18.2205 16.5052 18.2783 16.4419 18.3396 16.3749C18.4084 16.2995 18.4864 16.2141 18.5628 16.1124C18.5638 16.111 18.5648 16.1096 18.5658 16.1082C18.685 15.9452 18.7768 15.7804 18.8655 15.6209C18.9092 15.5425 18.9504 15.4684 18.9931 15.398C19.0313 15.3349 19.0704 15.2726 19.1094 15.2105C19.2137 15.0444 19.3216 14.8725 19.4139 14.685C19.5069 14.4959 19.5791 14.3056 19.6488 14.1215C19.6742 14.0546 19.6995 13.9875 19.7259 13.9209C19.8422 13.6268 19.9305 13.3819 20.004 13.1502C20.0183 13.1052 20.0328 13.0601 20.0473 13.0149C20.1136 12.8084 20.182 12.5949 20.2398 12.3709C20.2488 12.3362 20.2534 12.3003 20.2534 12.2644C20.2534 12.2465 20.254 12.2202 20.2545 12.1935C20.3164 12.0536 20.3485 11.9351 20.3537 11.8279C20.3692 11.6897 20.3761 11.5551 20.3829 11.4248C20.3885 11.3161 20.3938 11.2134 20.4036 11.1132C20.425 10.8959 20.4398 10.6648 20.4517 10.3639C20.4545 10.2924 20.4594 10.2201 20.4645 10.1435C20.4761 9.9681 20.4882 9.78656 20.4769 9.59488ZM19.6135 10.0867C19.6082 10.1657 19.6028 10.2473 19.5995 10.3304C19.5882 10.6141 19.5745 10.8299 19.5548 11.03C19.543 11.1499 19.5369 11.2674 19.5311 11.381C19.5245 11.5092 19.5182 11.6303 19.5044 11.7472C19.5034 11.7566 19.5026 11.766 19.5021 11.7754C19.4982 11.7895 19.4851 11.8303 19.4481 11.9043C19.4185 11.9635 19.4031 12.0287 19.4031 12.0949C19.4031 12.1139 19.4024 12.1422 19.4018 12.1705C19.4016 12.1828 19.4013 12.195 19.4011 12.2067C19.3518 12.3908 19.2925 12.5755 19.235 12.7547C19.2203 12.8007 19.2056 12.8466 19.191 12.8924C19.1235 13.105 19.0414 13.3323 18.9326 13.6077C18.9047 13.6781 18.8779 13.7488 18.8511 13.8195C18.7856 13.9926 18.7236 14.1561 18.6485 14.3087C18.5756 14.4567 18.484 14.6027 18.3869 14.7574C18.3455 14.8233 18.3041 14.8895 18.2634 14.9565C18.2127 15.0403 18.1657 15.1247 18.1203 15.2063C18.041 15.3486 17.9661 15.4831 17.8786 15.6031C17.8275 15.671 17.7702 15.7337 17.7096 15.8C17.6421 15.874 17.5657 15.9576 17.4907 16.0569C17.3294 16.258 17.1547 16.445 16.9898 16.6172C16.8333 16.7807 16.6463 16.972 16.4456 17.1514C16.2692 17.3092 16.0693 17.4881 15.8629 17.6532C15.6619 17.8112 15.4749 17.9463 15.2912 18.0665C15.1611 18.1514 15.0157 18.2233 14.8617 18.2995C14.7989 18.3306 14.7362 18.3617 14.6741 18.3937C14.6226 18.4203 14.5714 18.4475 14.5203 18.4746C14.359 18.5602 14.2066 18.6411 14.0543 18.6982C14.0452 18.7016 14.0363 18.7052 14.0275 18.7092C13.9021 18.7663 13.7836 18.8292 13.6691 18.8899C13.5597 18.948 13.4562 19.003 13.3556 19.0481C13.1769 19.1283 13.0288 19.1589 12.8918 19.1432C12.8357 19.1165 12.7819 19.037 12.7028 18.9153C12.6853 18.8883 12.6668 18.8599 12.6472 18.8308C12.6496 18.7592 12.6535 18.6857 12.6576 18.6096C12.6649 18.4728 12.6725 18.3315 12.6717 18.188C12.6707 17.9873 12.6661 17.785 12.6618 17.5894L12.658 17.4133C12.6546 17.2523 12.6431 17.0944 12.6321 16.9417C12.6244 16.8359 12.6172 16.7359 12.6125 16.6355C12.6095 16.5712 12.6067 16.5067 12.6041 16.4422C12.5972 16.2793 12.5901 16.1118 12.5781 15.9432C12.6757 15.6474 12.7125 15.3809 12.6906 15.1313C12.6638 14.8266 12.5413 14.559 12.4317 14.3634C12.6774 14.3378 12.9328 14.2942 13.2305 14.2268C13.2744 14.2245 13.3091 14.22 13.3365 14.2164C13.3621 14.213 13.3716 14.2119 13.3857 14.2119C13.4519 14.2119 13.5172 14.1965 13.5763 14.1669L13.5953 14.1573C13.6054 14.1522 13.617 14.1464 13.6263 14.1419C13.6419 14.141 13.6573 14.1393 13.6727 14.1368C13.904 14.0982 14.2077 14.0389 14.5058 13.9214C14.7758 13.815 15.0092 13.6554 15.2151 13.5146L15.2627 13.4821C15.4801 13.3337 15.7265 13.1655 15.9299 12.9368C16.0922 12.7544 16.2399 12.5388 16.3698 12.2948C16.4676 12.2232 16.5151 12.1356 16.5377 12.06C16.5996 11.9082 16.6469 11.7559 16.6926 11.6083C16.7188 11.5239 16.7435 11.4442 16.7704 11.3659C16.7898 11.3095 16.8101 11.2532 16.8304 11.1968C16.8966 11.0129 16.965 10.8229 17.0113 10.6165C17.0755 10.3296 17.114 10.0677 17.1289 9.81572C17.1465 9.51716 17.1099 9.22947 17.0718 8.9876C17.0227 8.67557 16.9515 8.41746 16.8478 8.17547C16.847 8.17372 16.8463 8.17202 16.8455 8.17031C16.7432 7.94022 16.6054 7.7435 16.4613 7.54568C16.3681 7.41769 16.2723 7.29065 16.1797 7.16782C16.1715 7.15695 16.1633 7.14607 16.1552 7.13524C16.2529 6.79993 16.3073 6.51343 16.326 6.23742C16.3463 5.93663 16.3278 5.62016 16.2696 5.26984C16.2069 4.89313 16.1254 4.59324 16.0129 4.32622C15.9669 4.21683 15.8772 4.1316 15.7657 4.09101C15.4794 3.98694 15.1484 3.97356 14.8087 4.05239C14.6146 4.09745 14.4432 4.17922 14.292 4.25136C14.2213 4.28512 14.1544 4.31701 14.0922 4.34187C14.0812 4.3463 14.0704 4.35112 14.0598 4.35645L14.0324 4.37009C13.8231 4.47476 13.6254 4.57359 13.4291 4.69305C13.293 4.77588 13.1442 4.86644 12.9977 4.974C12.8015 4.91841 12.6148 4.86921 12.4227 4.8296C12.2038 4.78441 11.9869 4.75329 11.7771 4.72319C11.7278 4.71611 11.6785 4.70903 11.6292 4.70179C11.5625 4.69198 11.4958 4.68188 11.429 4.67177C11.24 4.64321 11.0446 4.61366 10.8461 4.59008C10.7167 4.57474 10.5862 4.56242 10.4599 4.55048C10.3323 4.53846 10.2003 4.52601 10.068 4.51015C9.84228 4.48503 9.61594 4.48478 9.39548 4.50934C9.27998 4.52221 9.17369 4.54434 9.0709 4.56574C8.98351 4.58395 8.90092 4.60113 8.82525 4.60953C8.81757 4.61038 8.8099 4.61144 8.80223 4.61272C8.67385 4.63408 8.54365 4.65625 8.41345 4.67842C8.3463 4.68985 8.27915 4.70127 8.21226 4.71257C8.0462 4.58429 7.87102 4.45583 7.68603 4.34298C7.4231 4.18255 7.18299 4.0552 6.952 3.95369C6.74237 3.86156 6.46329 3.74555 6.1628 3.66544C5.90342 3.59629 5.63785 3.54875 5.37258 3.52398C5.27231 3.4958 5.08804 3.46404 4.90382 3.57092C4.75435 3.65768 4.65544 3.8072 4.60965 4.01555C4.5306 4.29092 4.50008 4.56421 4.47897 4.81886C4.45561 5.1005 4.47173 5.3731 4.49019 5.62822C4.49321 5.67034 4.49611 5.71264 4.49897 5.75506C4.51265 5.9568 4.52677 6.16511 4.56143 6.38254C4.56211 6.39286 4.56301 6.40279 4.56403 6.41226C4.39115 6.65625 4.24103 6.89556 4.10648 7.14185C3.9397 7.44707 3.81465 7.738 3.72414 8.03128C3.62945 8.33799 3.57513 8.65421 3.55821 8.99766C3.53595 9.26839 3.52845 9.5398 3.53591 9.80438C3.54418 10.0998 3.55565 10.3666 3.61206 10.6417C3.67886 10.9672 3.76353 11.2308 3.8786 11.4712C4.02578 11.7788 4.17904 12.0166 4.36092 12.2199C4.36621 12.2258 4.37158 12.2315 4.37716 12.2371C4.43105 12.291 4.48554 12.326 4.52165 12.3491C4.52651 12.3522 4.53141 12.3553 4.53615 12.3584C4.54668 12.3681 4.55768 12.3773 4.56914 12.3859C4.87423 12.6147 5.16883 12.7838 5.46991 12.9028C5.81376 13.0388 6.1686 13.0982 6.47032 13.1384C6.48899 13.141 6.50784 13.1422 6.52668 13.1422C6.56262 13.1422 6.62099 13.1559 6.68281 13.1704C6.76321 13.1892 6.86008 13.212 6.9682 13.219C7.08608 13.2492 7.19949 13.2626 7.30599 13.2704C7.2955 13.2861 7.28527 13.302 7.27521 13.3181C7.12432 13.5593 7.02874 13.8138 6.9919 14.0684C6.88229 14.0983 6.78313 14.1201 6.68362 14.1368L6.6406 14.144C6.44956 14.176 6.26909 14.2064 6.11471 14.1895C5.9521 14.1718 5.78784 14.1201 5.62638 14.036C5.41287 13.8987 5.25103 13.7633 5.132 13.6223C5.0174 13.4865 4.92608 13.3096 4.84469 13.0653C4.82375 13.0025 4.78854 12.9455 4.74173 12.8987C4.56335 12.7203 4.3483 12.5632 4.06491 12.4042C3.8468 12.282 3.60924 12.1558 3.3502 12.0616C3.30351 12.0446 3.25419 12.0359 3.20448 12.0359C3.19275 12.0359 3.18056 12.0356 3.16824 12.0353C3.10599 12.0008 3.01561 11.9589 2.90126 11.9589C2.83411 11.9589 2.75622 11.9435 2.67373 11.9271C2.47326 11.8873 2.1987 11.8327 1.90585 11.9792C1.80314 12.0306 1.56422 12.1906 1.56422 12.5669C1.56422 12.6128 1.5716 12.6583 1.58609 12.7017C1.62971 12.8325 1.68163 12.9396 1.72742 13.034C1.74264 13.0654 1.75671 13.0944 1.76933 13.1217C1.76498 13.1374 1.76153 13.1535 1.75897 13.1699C1.72674 13.3777 1.85072 13.5779 2.05106 13.6416C2.24086 13.7019 2.41165 13.7872 2.55878 13.895C2.72761 14.0188 2.88131 14.1801 3.00934 14.3215C3.15302 14.4801 3.2891 14.6492 3.43316 14.8282L3.44544 14.8434C3.4926 14.902 3.53868 14.9627 3.5875 15.0269C3.6862 15.1568 3.7883 15.2912 3.90781 15.4186C3.91437 15.4256 3.92115 15.4323 3.92814 15.4389C3.98659 15.6667 4.08614 15.8775 4.22927 16.0778C4.40688 16.3264 4.65164 16.5247 4.97749 16.6843C5.24903 16.8174 5.53314 16.9089 5.82186 16.9561C6.12379 17.0055 6.40624 17.029 6.66158 17.0252C6.75358 17.0239 6.84392 17.0208 6.9332 17.0158C6.92412 17.1242 6.9161 17.2333 6.90975 17.3451C6.89159 17.6648 6.91047 17.9805 6.93128 18.2472C6.95208 18.5136 6.97933 18.7962 7.05901 19.0843C7.05747 19.0846 7.05598 19.0851 7.05453 19.0854C6.87078 19.0159 6.64218 18.9258 6.42095 18.8213C6.20364 18.7187 5.9889 18.5966 5.76972 18.4701L5.67277 18.4143C5.483 18.3054 5.30373 18.2025 5.13592 18.0867C4.95942 17.9649 4.77166 17.8222 4.54497 17.6379C4.36041 17.4878 4.17273 17.3226 3.98715 17.1468C3.92891 17.0917 3.86956 17.0374 3.81009 16.9829C3.6801 16.8639 3.55731 16.7515 3.44787 16.6317C3.32922 16.5018 3.21812 16.3594 3.10049 16.2086C3.05956 16.1561 3.01859 16.1035 2.9792 16.054C2.86728 15.9108 2.76607 15.758 2.65889 15.5961C2.62146 15.5395 2.58407 15.4831 2.54625 15.4271C2.49347 15.3489 2.43949 15.273 2.38727 15.1996C2.2887 15.0611 2.19563 14.9303 2.11893 14.7968C1.9883 14.5695 1.8688 14.3432 1.76379 14.1241C1.63985 13.8654 1.53996 13.6482 1.45529 13.4294C1.40439 13.2979 1.36768 13.1527 1.3288 12.9989C1.3042 12.9017 1.27879 12.8011 1.24847 12.6994C1.21982 12.6032 1.18849 12.5098 1.15817 12.4195C1.10616 12.2645 1.057 12.1181 1.02695 11.9751C0.976937 11.737 0.93537 11.4856 0.903394 11.2279C0.875938 11.0067 0.867369 10.7798 0.858202 10.5397L0.855644 10.473C0.846947 10.2475 0.857775 10.0179 0.869244 9.77488L0.87193 9.71796C0.874872 9.65444 0.877259 9.59074 0.879647 9.52692C0.88698 9.33029 0.893887 9.14458 0.917804 8.9633C0.938908 8.80296 0.977961 8.63788 1.01927 8.46308C1.03816 8.38322 1.05705 8.3032 1.07453 8.22271C1.08101 8.19295 1.08429 8.16259 1.08429 8.13211C1.08429 8.07281 1.07376 8.01807 1.06344 7.97172C1.12134 7.75408 1.1913 7.53635 1.25393 7.34151C1.26868 7.29563 1.28322 7.24972 1.29776 7.20384C1.36111 7.00402 1.42097 6.81528 1.49341 6.63566C1.549 6.49774 1.62169 6.36046 1.6986 6.21512C1.74047 6.13603 1.78374 6.05426 1.82535 5.97019C1.85729 5.9056 1.88849 5.8405 1.9197 5.77531C1.99892 5.60985 2.07378 5.45359 2.16063 5.30719C2.28955 5.09001 2.41694 4.87829 2.55759 4.67633C2.65006 4.54353 2.75742 4.41303 2.87108 4.27485C2.92134 4.21371 2.97186 4.15228 3.02179 4.0899C3.03113 4.07822 3.03987 4.06603 3.04792 4.05345C3.05781 4.04791 3.07184 4.04058 3.08979 4.03162C3.14121 4.00591 3.18832 3.96844 3.22549 3.92461C3.39313 3.72722 3.55147 3.54074 3.72192 3.37378C3.91552 3.18419 4.12243 3.01139 4.28098 2.88204C4.41937 2.76923 4.57196 2.66802 4.73346 2.56097C4.78619 2.52601 4.83889 2.49105 4.89107 2.4557C4.93256 2.42765 4.97387 2.39938 5.01518 2.37112C5.1867 2.25383 5.34871 2.14307 5.51617 2.04966C5.73974 1.925 5.96404 1.81146 6.18297 1.71225C6.35346 1.63496 6.5335 1.57139 6.72408 1.50407C6.77703 1.4854 6.82998 1.46668 6.8828 1.44767C6.92932 1.43091 6.97574 1.41394 7.02222 1.39702C7.21876 1.32526 7.40439 1.25752 7.59219 1.20576C7.749 1.16253 7.91403 1.13286 8.0887 1.10139C8.16851 1.08703 8.24837 1.07266 8.32784 1.05693L8.40032 1.0426C8.63058 0.996983 8.8481 0.953838 9.06737 0.92668C9.32765 0.894406 9.59227 0.877736 9.81674 0.865671C10.039 0.853733 10.278 0.850152 10.5688 0.854501C10.5756 0.854501 10.5825 0.854501 10.5894 0.85433C10.8465 0.864179 11.0875 0.881957 11.3249 0.908603C11.5523 0.934183 11.7931 0.971872 12.0828 1.02725C12.3134 1.07134 12.5574 1.12881 12.8287 1.20303C12.9306 1.23087 13.0315 1.25428 13.129 1.27687C13.2869 1.3135 13.436 1.34807 13.572 1.39715C13.7368 1.45653 13.9001 1.53336 14.073 1.61466C14.1398 1.64608 14.2067 1.67751 14.2738 1.70803C14.4977 1.80984 14.7351 1.91979 14.9614 2.04608C15.0023 2.06889 15.0433 2.09157 15.0844 2.11429C15.2751 2.21977 15.4553 2.31936 15.6236 2.4326C15.7509 2.51825 15.8744 2.62313 16.0051 2.73414C16.0743 2.79294 16.146 2.85373 16.2203 2.91342L16.2744 2.95674C16.4517 3.09884 16.6199 3.23356 16.7764 3.37988C16.8634 3.49456 16.9644 3.5728 17.0405 3.63172C17.0631 3.64924 17.0907 3.67064 17.1041 3.68296C17.2407 3.83039 17.3729 3.99236 17.5009 4.14908L17.5437 4.20148C17.661 4.34498 17.7684 4.49744 17.8819 4.65885L17.9501 4.7555C18.0497 4.89615 18.1392 5.04648 18.2339 5.20568C18.2598 5.24921 18.2858 5.29282 18.3119 5.33626C18.4158 5.50855 18.5367 5.71396 18.6463 5.93152C18.6863 6.01107 18.7282 6.08811 18.7686 6.16259C18.8396 6.29344 18.9067 6.41703 18.9578 6.5411C19.0155 6.68149 19.0629 6.83288 19.113 6.99315C19.1336 7.05897 19.1543 7.12501 19.1759 7.19088C19.2451 7.40299 19.3082 7.62148 19.3632 7.84045C19.3777 7.91272 19.3935 7.9846 19.4092 8.05635C19.4388 8.19176 19.4668 8.31966 19.4857 8.44547L19.4886 8.46508C19.5198 8.67297 19.552 8.88797 19.5954 9.10485C19.6079 9.16735 19.607 9.23258 19.606 9.31516C19.6048 9.41309 19.6032 9.53315 19.6268 9.66983C19.6327 9.80072 19.6234 9.93987 19.6135 10.0867Z" fill="black"/>
<path d="M4.05664 14.1346C4.18454 14.2199 4.30857 14.2258 4.43647 14.2684C4.39383 14.2684 4.35009 14.3127 4.39272 14.3553C4.47799 14.398 4.61544 14.3508 4.61544 14.2229C4.57281 14.2229 4.56445 14.2693 4.52182 14.2693C4.47919 14.2693 4.45011 14.2189 4.40748 14.1762C4.40748 14.1336 4.39848 14.1385 4.39848 14.0959C4.31321 13.9254 4.14596 14.0631 4.06069 14.1483C4.05813 14.1508 4.05664 14.1346 4.05664 14.1346Z" fill="black"/>
<path d="M3.66406 13.7333C3.8346 13.776 3.92093 13.9548 4.1341 13.9121C4.09147 13.9121 4.09522 13.9577 4.05259 13.9577C4.09522 13.9577 4.18756 13.967 4.14493 13.8391C4.1023 13.7538 3.96655 13.8015 3.92392 13.6736C3.83865 13.7589 3.76515 13.6873 3.67988 13.73C3.67165 13.7356 3.66406 13.7333 3.66406 13.7333Z" fill="black"/>
<path d="M5.10004 15.0783C5.10004 15.2488 4.8598 15.1654 4.94507 15.336C5.07297 15.5065 5.33176 15.3866 5.54493 15.4292C5.54493 15.3866 5.54902 15.3753 5.54902 15.3327C5.50639 15.2474 5.32523 15.2586 5.23997 15.2159C5.19733 15.1733 5.16646 15.1134 5.12383 15.0707C5.11624 15.0654 5.10004 15.0783 5.10004 15.0783Z" fill="black"/>
<path d="M4.55993 14.5651C4.5173 14.693 4.65885 14.7709 4.65885 14.8988C4.70148 14.8135 4.92412 14.8651 4.92412 14.7372C4.92412 14.6093 4.64985 14.5727 4.52195 14.5727C4.50063 14.5727 4.54301 14.5602 4.56428 14.5594C4.56671 14.5593 4.55993 14.5651 4.55993 14.5651Z" fill="black"/>
</g>
<defs>
<clipPath id="clip0">
<rect width="20.4814" height="20" fill="white"/>
</clipPath>
</defs>
</svg>
