<svg width="21" height="20" viewBox="0 0 21 20" fill="none" xmlns="http://www.w3.org/2000/svg">
<g clip-path="url(#clip0)">
<path d="M5.58286 8.73131C5.58273 8.72682 5.58256 8.72233 5.5823 8.71789C5.57552 8.60286 5.57764 8.48282 5.57984 8.35575C5.58191 8.23809 5.58402 8.11641 5.5791 7.99081C5.57324 7.84165 5.56068 7.69538 5.54856 7.5539C5.53954 7.4484 5.53095 7.34878 5.52508 7.24898C5.52042 7.16997 5.51736 7.09075 5.5143 7.01149C5.50795 6.84701 5.50135 6.67706 5.48142 6.50252C5.46157 6.25322 5.24734 6.05392 4.98078 6.03782C4.70627 6.00508 4.45947 6.01017 4.22065 6.015C4.13962 6.01668 4.05725 6.01837 3.9722 6.01858C3.9272 6.01496 3.88224 6.0112 3.83737 6.00749C3.61969 5.98941 3.39459 5.97069 3.16854 5.96486C2.96846 5.95981 2.77167 5.96573 2.58143 5.97151C2.50389 5.97388 2.42644 5.97621 2.34904 5.97781C2.26145 5.97962 2.17373 5.98027 2.08592 5.98096C1.90691 5.98238 1.72176 5.9838 1.53415 5.99433C1.36847 6.00361 1.2036 6.02035 1.04417 6.03657C0.93889 6.04727 0.830072 6.05832 0.724965 6.06673C0.604497 6.0764 0.493651 6.13607 0.419308 6.2313C0.344965 6.32653 0.313942 6.44859 0.333833 6.56776C0.375082 6.81534 0.397605 7.07751 0.417453 7.30878L0.41879 7.32435C0.44058 7.57858 0.461161 7.81874 0.468021 8.06006C0.476263 8.35368 0.479542 8.59639 0.478334 8.82386C0.477686 8.94748 0.479887 9.07062 0.482044 9.18975C0.48459 9.33097 0.486963 9.46439 0.484979 9.59806C0.48377 9.68081 0.482174 9.76361 0.480577 9.84641C0.477298 10.0181 0.473889 10.1954 0.47376 10.372C0.466554 10.5187 0.45361 10.6654 0.439932 10.8206C0.430699 10.9255 0.421466 11.0305 0.413958 11.1356C0.399935 11.3328 0.382115 11.5353 0.364942 11.7311L0.34915 11.9115C0.338233 12.0377 0.330251 12.1639 0.322571 12.2859C0.313683 12.4263 0.305356 12.5588 0.292886 12.6918C0.280416 12.8245 0.269716 12.9575 0.259015 13.0906C0.248703 13.2185 0.238434 13.3465 0.226482 13.4746C0.215781 13.5891 0.199256 13.7051 0.181738 13.8279C0.161976 13.9665 0.141567 14.1098 0.128968 14.2577C0.115161 14.4199 0.105885 14.5824 0.0969531 14.7396C0.091085 14.8425 0.0852596 14.9454 0.0780971 15.0482C0.0713661 15.1454 0.0632113 15.2426 0.0550565 15.3399C0.041465 15.5028 0.0273557 15.6712 0.0192439 15.8456L0.0157493 15.9383C0.0079827 16.1435 -4.29743e-05 16.3556 1.73206e-07 16.5696C1.73206e-07 16.7129 0.00875921 16.8522 0.0172161 16.9869C0.0237745 17.0911 0.0299444 17.1895 0.0320586 17.2866C0.0343454 17.3917 0.0330512 17.4974 0.0317136 17.6094C0.0302035 17.7353 0.0286069 17.8656 0.0324471 17.9979C0.0367618 18.1467 0.0395231 18.2953 0.0422846 18.4436C0.0439242 18.5299 0.0455208 18.6162 0.0474193 18.7023C0.0495335 18.7981 0.0531583 18.8938 0.0567827 18.9892C0.0621762 19.1317 0.0673102 19.2663 0.0673102 19.4C0.0673102 19.601 0.206332 19.776 0.402178 19.8211C0.460039 19.8345 0.518159 19.8355 0.573776 19.8255C0.677675 19.826 0.781531 19.8275 0.885474 19.829C1.01694 19.8308 1.14841 19.8327 1.27993 19.8327C1.40152 19.8327 1.52345 19.8371 1.65255 19.8418C1.78368 19.8466 1.91929 19.8516 2.05658 19.8516C2.20009 19.8516 2.33886 19.8425 2.473 19.8338C2.59891 19.8256 2.71786 19.8178 2.83324 19.8178C2.96441 19.8178 3.09558 19.8163 3.22675 19.8147C3.35446 19.8131 3.48218 19.8116 3.60989 19.8116L4.38655 19.8119C4.51418 19.8119 4.63849 19.8135 4.76284 19.815C4.89069 19.8166 5.01858 19.8182 5.14983 19.8182C5.29938 19.8182 5.43827 19.7407 5.51684 19.6135C5.59546 19.4864 5.60262 19.3275 5.53574 19.1938C5.47382 19.0699 5.44742 18.9773 5.44742 18.8841C5.44742 18.8603 5.44548 18.8365 5.44155 18.8131C5.42425 18.7093 5.41963 18.6061 5.41471 18.4968C5.40932 18.3763 5.40319 18.2402 5.37912 18.0902C5.35314 17.8495 5.32669 17.5938 5.3112 17.3403C5.30624 17.2597 5.30059 17.1791 5.29489 17.0986C5.28203 16.9167 5.26991 16.7448 5.26637 16.5737C5.26007 16.2696 5.25843 16.0246 5.26132 15.8028C5.26296 15.678 5.27569 15.5483 5.2892 15.411C5.30128 15.2884 5.31375 15.1616 5.31888 15.0305C5.32212 14.9485 5.32492 14.8666 5.32777 14.7847C5.33381 14.61 5.34002 14.4294 5.35016 14.2545C5.35491 14.1721 5.35948 14.0897 5.36401 14.0073C5.37364 13.8325 5.3836 13.6518 5.39573 13.4757C5.40488 13.343 5.4104 13.2107 5.41571 13.0829C5.42131 12.948 5.42658 12.8206 5.43577 12.6932C5.44444 12.5736 5.45622 12.4549 5.46865 12.3293C5.48215 12.1928 5.49613 12.0516 5.5058 11.9092C5.51715 11.742 5.5253 11.5739 5.5332 11.4112C5.5379 11.3142 5.5426 11.2171 5.548 11.12C5.55391 11.0132 5.56275 10.9066 5.57211 10.7937C5.58463 10.6429 5.59757 10.4869 5.60318 10.328C5.61121 10.1011 5.61272 9.87282 5.61418 9.65208L5.61505 9.53075C5.61634 9.36148 5.60681 9.19635 5.59757 9.03666C5.59136 8.93104 5.58562 8.83115 5.58286 8.73131ZM4.75119 9.64647C4.74977 9.86113 4.7483 10.0831 4.74071 10.2977C4.73583 10.4361 4.72427 10.5752 4.71206 10.7225C4.70261 10.8362 4.69285 10.9538 4.6863 11.0724C4.68082 11.1714 4.67603 11.2705 4.67119 11.3695C4.66351 11.528 4.65558 11.692 4.64479 11.8509C4.63603 11.98 4.6233 12.1084 4.60984 12.2443C4.59737 12.37 4.58451 12.5 4.57502 12.631C4.56488 12.7717 4.55905 12.9117 4.55345 13.0471C4.54814 13.1749 4.54313 13.2955 4.53481 13.4165C4.52225 13.5985 4.51211 13.7823 4.50236 13.9601C4.49787 14.0416 4.49338 14.1232 4.48864 14.2047C4.47794 14.3897 4.47155 14.5755 4.46534 14.7551C4.46258 14.8356 4.45982 14.9162 4.45662 14.9968C4.45248 15.1026 4.44174 15.2114 4.43043 15.3267C4.41576 15.476 4.40053 15.6303 4.39846 15.7919C4.39548 16.0236 4.39708 16.2778 4.40359 16.5918C4.40756 16.7844 4.42107 16.9751 4.4341 17.1596C4.43958 17.2374 4.4451 17.3153 4.44985 17.3932C4.46676 17.6692 4.49494 17.9405 4.52242 18.1947C4.52333 18.2029 4.52445 18.2112 4.52583 18.2193C4.54313 18.3231 4.54775 18.4263 4.55267 18.5356C4.5578 18.6505 4.56358 18.7795 4.58503 18.9213C4.58529 18.931 4.58563 18.9405 4.58611 18.9502C4.52022 18.9495 4.45386 18.9491 4.38659 18.9491L3.60994 18.9488C3.47877 18.9488 3.3476 18.9504 3.21643 18.9519C3.08872 18.9534 2.961 18.955 2.83328 18.955C2.68977 18.955 2.55101 18.964 2.41687 18.9728C2.29096 18.981 2.172 18.9888 2.05663 18.9888C1.93504 18.9888 1.8131 18.9843 1.68401 18.9796C1.55288 18.9748 1.41727 18.9699 1.27997 18.9699C1.15985 18.9699 1.03973 18.9683 0.91956 18.9665C0.919431 18.9632 0.919302 18.9599 0.919172 18.9566C0.915721 18.8658 0.912226 18.7747 0.910241 18.6834C0.908385 18.5983 0.906789 18.513 0.905192 18.4276C0.902388 18.2763 0.899583 18.1247 0.895139 17.973C0.891816 17.8584 0.893241 17.7426 0.894708 17.62C0.896131 17.5057 0.897555 17.3875 0.894923 17.2679C0.89242 17.1531 0.885387 17.0411 0.87857 16.9327C0.870588 16.8058 0.863037 16.6859 0.863037 16.5696C0.862994 16.372 0.870717 16.1681 0.878182 15.971L0.881504 15.8818C0.88871 15.7273 0.901482 15.5741 0.915073 15.4119C0.92353 15.3106 0.931987 15.2094 0.93902 15.1081C0.946398 15.0016 0.952482 14.8951 0.958522 14.7887C0.967497 14.6306 0.975998 14.4812 0.988812 14.3311C0.99934 14.2075 1.0172 14.0822 1.03606 13.9497C1.05422 13.8222 1.07299 13.6902 1.08563 13.5549C1.09798 13.4233 1.10855 13.2915 1.11916 13.1599C1.12956 13.0306 1.13991 12.9015 1.15204 12.7726C1.16576 12.6265 1.17495 12.481 1.1838 12.3403C1.19152 12.2178 1.19885 12.1021 1.20891 11.9859L1.22457 11.8067C1.24209 11.6074 1.26021 11.4013 1.27475 11.1969C1.28191 11.0967 1.29076 10.9966 1.29956 10.8964C1.31367 10.7362 1.3283 10.5706 1.33624 10.4032C1.33654 10.3964 1.33671 10.3895 1.33671 10.3827C1.33671 10.2109 1.34012 10.034 1.3434 9.86307C1.345 9.77902 1.34659 9.69501 1.34789 9.61096C1.35004 9.46313 1.34741 9.3163 1.34487 9.17435C1.34271 9.05487 1.34068 8.94208 1.34128 8.82852C1.34254 8.59121 1.33917 8.3394 1.33063 8.03577C1.32308 7.76968 1.30047 7.50583 1.27859 7.25075L1.27725 7.23513C1.26767 7.12372 1.25753 7.00562 1.24498 6.88373C1.36053 6.8723 1.47202 6.8622 1.58248 6.85603C1.74933 6.84667 1.9161 6.84537 2.0927 6.84399C2.18409 6.84326 2.27539 6.84257 2.36664 6.84071C2.44694 6.83907 2.52732 6.83662 2.60771 6.83416C2.79428 6.82846 2.97045 6.82315 3.14636 6.82764C3.34773 6.83282 3.55087 6.84973 3.76587 6.8676C3.81743 6.87191 3.86908 6.87618 3.92077 6.88032C3.93225 6.88123 3.94368 6.8817 3.95516 6.8817C4.05375 6.8817 4.14756 6.87981 4.23834 6.87795C4.38202 6.87497 4.51358 6.8723 4.64496 6.87713C4.64764 6.9321 4.64979 6.98806 4.65199 7.0451C4.65532 7.13015 4.65864 7.21511 4.66364 7.29993C4.6702 7.41125 4.67965 7.52132 4.6888 7.62781C4.70062 7.76558 4.7118 7.89571 4.71685 8.02485C4.72081 8.12595 4.71896 8.23032 4.71702 8.34087C4.71464 8.47639 4.71223 8.61645 4.72043 8.76186C4.72358 8.8724 4.72988 8.98131 4.73596 9.08672C4.74476 9.23929 4.75309 9.38335 4.75205 9.52449L4.75119 9.64647Z" fill="black"/>
<path d="M20.2333 10.8788C20.2273 10.7807 20.2211 10.6792 20.2172 10.5811C20.2167 10.5709 20.216 10.5608 20.2148 10.5507C20.1689 10.1371 20.0924 9.7759 20.0044 9.38028C20.0012 9.36583 19.9973 9.3515 19.9926 9.33739C19.9289 9.14634 19.8457 8.97634 19.7653 8.81194C19.7421 8.76465 19.7191 8.71749 19.6966 8.67003C19.6726 8.61933 19.65 8.56786 19.6272 8.51643C19.5557 8.35445 19.4746 8.1709 19.3532 7.9993C19.2049 7.78965 19.0329 7.59467 18.8441 7.4216C18.6616 7.25207 18.4724 7.12047 18.2896 6.99315C18.2535 6.96799 18.2175 6.94301 18.182 6.91785C17.9466 6.75165 17.7104 6.61112 17.4598 6.48823C17.2844 6.40224 17.0988 6.32803 16.8759 6.25532C16.8092 6.20355 16.7283 6.16877 16.6377 6.15552C16.6068 6.14616 16.5745 6.14016 16.541 6.13792C16.3133 6.12277 16.0944 6.12325 15.8824 6.12359C15.7738 6.1239 15.6714 6.12403 15.5686 6.12226C15.2636 6.11708 14.9179 6.11104 14.5558 6.15928C14.5498 6.1601 14.5438 6.16105 14.5378 6.16208C14.2112 6.21973 13.918 6.32496 13.6457 6.42787C13.3826 6.5272 13.0846 6.63981 12.8026 6.80403C12.5514 6.9503 12.285 7.11206 12.039 7.30351C11.8651 7.43877 11.7167 7.5885 11.5732 7.7333C11.5445 7.76229 11.5165 7.79064 11.4887 7.8183C11.4885 7.80311 11.4884 7.78797 11.4882 7.77282C11.486 7.56312 11.4838 7.34627 11.4689 7.12755C11.4499 6.85063 11.4172 6.56741 11.3689 6.26167C11.3358 6.05193 11.1551 5.8975 10.9427 5.8975C10.7976 5.8975 10.6527 5.89957 10.5127 5.9016C10.3767 5.90358 10.2361 5.90561 10.0992 5.90561L9.2535 5.90535C9.12401 5.90535 8.99267 5.89836 8.85365 5.89099C8.7095 5.88331 8.56042 5.87537 8.40798 5.87537C8.26149 5.87537 8.11544 5.87942 7.97413 5.88335C7.832 5.88727 7.69773 5.89103 7.5622 5.89103C7.4149 5.89103 7.27186 5.89586 7.13358 5.90056C6.99537 5.90522 6.86485 5.90967 6.7301 5.90967C6.49409 5.90967 6.30186 6.09934 6.29867 6.33532C6.29703 6.45777 6.28866 6.57893 6.27977 6.70716C6.27067 6.83863 6.26126 6.97459 6.25902 7.1178C6.25686 7.25484 6.25876 7.39097 6.26061 7.52261C6.26251 7.65852 6.26433 7.78689 6.262 7.91555C6.25954 8.05168 6.25501 8.19165 6.2506 8.32705C6.24642 8.45559 6.24228 8.58417 6.23964 8.71279C6.23693 8.84573 6.23149 8.98298 6.22614 9.11566C6.221 9.24424 6.21565 9.37722 6.21268 9.50986C6.20961 9.64512 6.20974 9.78013 6.20987 9.91065C6.21 10.0477 6.21013 10.1771 6.2069 10.3075C6.20336 10.4497 6.19874 10.592 6.19404 10.7342C6.18998 10.8577 6.18593 10.9813 6.18265 11.1048C6.17911 11.235 6.17734 11.3653 6.17557 11.4957C6.17376 11.6296 6.1719 11.768 6.16798 11.9022C6.16392 12.0399 6.16431 12.1766 6.16465 12.3088C6.165 12.4443 6.16539 12.5722 6.16133 12.7C6.15758 12.8192 6.14515 12.9419 6.13203 13.0719C6.11827 13.2084 6.10399 13.3496 6.09907 13.496C6.09428 13.6384 6.09657 13.7779 6.09885 13.9128C6.10105 14.0456 6.10317 14.171 6.09872 14.2941C6.08919 14.5598 6.07918 14.8254 6.069 15.0911C6.06425 15.2156 6.05346 15.3412 6.04207 15.4743C6.03064 15.6079 6.01877 15.7462 6.01303 15.8887C6.00691 16.0539 6.00954 16.2172 6.01208 16.3752C6.01338 16.4546 6.01467 16.5341 6.0148 16.6137C6.0151 16.7844 6.02093 16.955 6.02654 17.1199C6.02896 17.1908 6.03137 17.2617 6.03336 17.3326C6.03612 17.4325 6.03569 17.5331 6.03521 17.6396C6.03465 17.7717 6.03405 17.9082 6.03991 18.0471C6.04453 18.1572 6.0476 18.2673 6.05066 18.3771C6.05411 18.5009 6.05765 18.629 6.06343 18.7562C6.06895 18.878 6.07914 18.9967 6.08893 19.1114C6.09929 19.2322 6.10904 19.3463 6.11318 19.4583C6.11754 19.5757 6.16949 19.6862 6.25708 19.7643C6.34462 19.8426 6.46017 19.8815 6.57745 19.8726C6.64605 19.8674 6.71526 19.8617 6.78494 19.856C6.99451 19.8389 7.2112 19.8212 7.42236 19.8134C7.49519 19.8107 7.56803 19.8084 7.64069 19.806C7.85647 19.7991 8.07958 19.792 8.29726 19.7753C8.45147 19.767 8.61121 19.769 8.78013 19.7712C8.87423 19.7724 8.96864 19.7735 9.06331 19.773C9.18882 19.7722 9.31438 19.775 9.44715 19.7778C9.57987 19.7807 9.71733 19.7836 9.85472 19.7828C10.1189 19.7813 10.4047 19.7723 10.6813 19.7569C10.7968 19.7505 10.9049 19.6979 10.9813 19.611C11.0577 19.5241 11.096 19.4102 11.0877 19.2948C11.0815 19.2107 11.0743 19.1253 11.0671 19.0395C11.0521 18.861 11.0365 18.6765 11.0318 18.5055C11.0296 18.4255 11.0267 18.3453 11.0238 18.2652C11.0172 18.078 11.0108 17.9013 11.0125 17.724C11.0137 17.5958 11.0263 17.4625 11.0396 17.3213C11.0512 17.1986 11.0632 17.0717 11.0683 16.9404C11.0732 16.8099 11.072 16.6821 11.0709 16.5584C11.0695 16.4164 11.0682 16.2823 11.0761 16.1521C11.0844 16.0125 11.098 15.8732 11.1124 15.7256C11.1239 15.6079 11.1359 15.486 11.1449 15.3634C11.1547 15.2304 11.1602 15.0982 11.1656 14.9704C11.1714 14.8315 11.177 14.7004 11.1874 14.5698C11.1976 14.4427 11.2107 14.3117 11.2234 14.1848C11.2367 14.0515 11.2504 13.9135 11.2614 13.7755C11.2737 13.6195 11.2832 13.4629 11.2923 13.3114C11.299 13.1996 11.3057 13.0879 11.3135 12.9764C11.3216 12.8636 11.3332 12.7517 11.3455 12.6332C11.3556 12.5371 11.3659 12.4388 11.3741 12.3387C11.4874 12.2116 11.5801 12.0865 11.6642 11.973C11.6749 11.9586 11.6855 11.9442 11.6962 11.9299C11.7527 11.8808 11.8089 11.8326 11.8648 11.7847C11.9702 11.6945 12.0792 11.6012 12.1869 11.504C12.2454 11.4511 12.3022 11.3972 12.357 11.345C12.4588 11.2481 12.5551 11.1564 12.6607 11.073C12.6904 11.0537 12.7184 11.0368 12.7479 11.0191C12.8201 10.9756 12.9007 10.9271 12.9832 10.8524C13.1204 10.7642 13.2696 10.6904 13.4496 10.6217C13.6258 10.5544 13.8138 10.4856 14.0042 10.4475C14.0317 10.442 14.0993 10.4654 14.1709 10.4902C14.2344 10.5121 14.3048 10.5364 14.3858 10.5558C14.5377 10.6251 14.6455 10.7196 14.732 10.8586C14.8363 11.0261 14.9326 11.2282 15.0146 11.4069C15.008 11.4826 14.9984 11.561 14.9885 11.6426C14.9722 11.776 14.9554 11.9139 14.9493 12.0575C14.9435 12.1936 14.9437 12.3277 14.9438 12.4574C14.9439 12.5782 14.944 12.6922 14.9396 12.8052C14.9345 12.9382 14.9328 13.0707 14.9312 13.1989C14.9296 13.3209 14.9282 13.4361 14.924 13.5522C14.9193 13.6827 14.9154 13.8133 14.9113 13.9438C14.9077 14.0619 14.9041 14.1801 14.9 14.2984C14.896 14.4117 14.8861 14.5269 14.8756 14.649C14.8646 14.7761 14.8532 14.9077 14.8485 15.0428C14.8439 15.1772 14.846 15.3083 14.8481 15.4352C14.8502 15.5584 14.8521 15.6748 14.848 15.7887C14.844 15.8996 14.832 16.0143 14.8194 16.1356C14.8061 16.263 14.7923 16.3948 14.787 16.5316C14.7819 16.6614 14.7819 16.7893 14.7818 16.913C14.7817 17.0392 14.7817 17.1584 14.7766 17.2761C14.7716 17.3938 14.7607 17.5127 14.7492 17.6387C14.7379 17.7614 14.7264 17.8883 14.7201 18.0179C14.7134 18.1555 14.7168 18.2878 14.72 18.4158C14.7231 18.5377 14.7261 18.6528 14.7201 18.7619C14.7135 18.8819 14.701 19.0036 14.6877 19.1323C14.6753 19.2527 14.6625 19.3772 14.6544 19.5036C14.6472 19.6182 14.6859 19.7309 14.7619 19.8169C14.838 19.9029 14.9451 19.955 15.0597 19.9617C15.228 19.9716 15.3957 19.9749 15.5578 19.978C15.6413 19.9796 15.7246 19.9811 15.8078 19.9837C15.9794 19.9888 16.1499 19.988 16.315 19.9871C16.3945 19.9866 16.4738 19.9862 16.5532 19.9865C16.6496 19.9868 16.7462 19.9897 16.8484 19.9929C16.9588 19.9963 17.072 19.9998 17.1873 19.9998C17.2241 19.9998 17.2612 19.9994 17.2985 19.9986C17.4626 19.995 17.6254 19.9857 17.7829 19.9768C17.8693 19.972 17.9556 19.967 18.0421 19.9631C18.139 19.9587 18.2355 19.9565 18.3379 19.9541C18.4831 19.9509 18.6334 19.9475 18.7856 19.9371C19.0402 19.9198 19.3039 19.8966 19.5173 19.8778C19.6416 19.8703 19.7717 19.8142 19.8615 19.7024C19.9641 19.6211 20.025 19.4968 20.025 19.3642C20.025 19.2334 20.0203 19.1027 20.0156 18.9764C20.0104 18.8333 20.0055 18.6982 20.0071 18.5663C20.0088 18.4324 20.0158 18.2981 20.0233 18.1559C20.0298 18.0324 20.0365 17.9048 20.0395 17.7758C20.042 17.6654 20.0437 17.5551 20.0453 17.4446C20.0475 17.2931 20.0498 17.1364 20.0546 16.984C20.059 16.8458 20.0665 16.7091 20.0746 16.5644C20.0813 16.4431 20.0883 16.3177 20.0931 16.1922C20.0984 16.0529 20.0972 15.9161 20.096 15.7839C20.0947 15.6497 20.0935 15.523 20.0989 15.3984C20.1045 15.2671 20.1133 15.1372 20.1226 14.9996C20.1312 14.8711 20.1402 14.7383 20.1463 14.6052C20.1521 14.4768 20.1611 14.3496 20.1706 14.2149C20.1798 14.0835 20.1895 13.9477 20.1959 13.8086C20.2019 13.6584 20.1989 13.5129 20.196 13.3722C20.1933 13.2448 20.1908 13.1245 20.195 13.0077C20.1989 12.8977 20.2051 12.7843 20.2112 12.6746C20.2195 12.5214 20.2282 12.3629 20.2315 12.2033C20.2336 12.1013 20.2378 11.9999 20.2422 11.8926C20.2489 11.7309 20.2558 11.5638 20.255 11.3937C20.2541 11.2187 20.2435 11.0459 20.2333 10.8788ZM19.3801 11.8572C19.3756 11.9642 19.371 12.0749 19.3687 12.1859C19.3658 12.3307 19.3579 12.475 19.3495 12.6277C19.3433 12.7413 19.3369 12.8589 19.3326 12.9771C19.3276 13.1183 19.3304 13.2567 19.3332 13.3903C19.336 13.524 19.3386 13.6503 19.3338 13.7716C19.3279 13.8976 19.3191 14.0224 19.3098 14.1545C19.3004 14.2885 19.2906 14.4271 19.2843 14.5662C19.2786 14.6898 19.2704 14.8122 19.2616 14.9417C19.2524 15.0784 19.2428 15.2198 19.2368 15.3617C19.2305 15.5087 19.2318 15.6527 19.233 15.792C19.2342 15.9199 19.2353 16.0407 19.2308 16.1597C19.2263 16.2775 19.2195 16.3991 19.213 16.5167C19.205 16.6601 19.1968 16.8086 19.1921 16.9572C19.1871 17.1167 19.1848 17.277 19.1825 17.4321C19.1809 17.5402 19.1793 17.6482 19.1768 17.7563C19.1741 17.8723 19.1681 17.9881 19.1616 18.1107C19.154 18.2552 19.1461 18.4045 19.1443 18.5559C19.1424 18.7087 19.148 18.8608 19.1533 19.008C19.1537 19.0198 19.1542 19.0316 19.1546 19.0433C19.007 19.0557 18.8684 19.0667 18.7271 19.0763C18.5943 19.0853 18.4602 19.0884 18.3183 19.0916C18.2156 19.094 18.1094 19.0964 18.0027 19.1013C17.9132 19.1054 17.8238 19.1104 17.7343 19.1154C17.5771 19.1243 17.4287 19.1327 17.2795 19.136C17.1483 19.1391 17.0155 19.1349 16.8749 19.1305C16.7714 19.1274 16.6644 19.1241 16.5561 19.1237C16.5384 19.1237 16.5208 19.1236 16.503 19.1236C16.4389 19.1236 16.3746 19.124 16.3104 19.1243C16.1458 19.1252 15.9903 19.126 15.8339 19.1214C15.7476 19.1187 15.661 19.117 15.5744 19.1154C15.5685 19.1153 15.5627 19.1151 15.5568 19.115C15.5668 19.0153 15.5759 18.9133 15.5817 18.8097C15.5897 18.6657 15.5861 18.5275 15.5827 18.3939C15.5797 18.2765 15.5768 18.1656 15.5819 18.0599C15.5873 17.9486 15.5976 17.8363 15.6084 17.7174C15.6203 17.5868 15.6327 17.4518 15.6386 17.3135C15.6446 17.1773 15.6446 17.0432 15.6446 16.9135C15.6447 16.7928 15.6448 16.6787 15.6492 16.5656C15.6534 16.4567 15.6651 16.3443 15.6776 16.2253C15.6911 16.095 15.7052 15.9603 15.7103 15.8202C15.7152 15.6835 15.713 15.55 15.7109 15.421C15.7089 15.2997 15.7069 15.1851 15.7109 15.0731C15.7148 14.9601 15.7247 14.8451 15.7352 14.7234C15.7462 14.5958 15.7576 14.4639 15.7623 14.3287C15.7665 14.2092 15.7702 14.0898 15.7738 13.9704C15.7778 13.8414 15.7817 13.7124 15.7863 13.5835C15.7908 13.4573 15.7925 13.3316 15.794 13.2099C15.7956 13.0817 15.7971 12.9605 15.8018 12.8387C15.8068 12.7087 15.8067 12.5807 15.8066 12.4569C15.8065 12.3308 15.8064 12.2118 15.8114 12.0942C15.816 11.9848 15.8301 11.8694 15.845 11.7473C15.8606 11.6187 15.8768 11.4858 15.8834 11.3479C15.8866 11.2795 15.8735 11.2113 15.8452 11.149C15.7211 10.8759 15.6068 10.6311 15.4644 10.4026C15.2762 10.1005 15.0214 9.8855 14.6855 9.74548C14.6593 9.73457 14.632 9.72624 14.6041 9.72067C14.5593 9.7117 14.5099 9.69461 14.4526 9.67485C14.3004 9.62225 14.092 9.5502 13.8349 9.60163C13.579 9.6528 13.3522 9.73543 13.1418 9.81573C12.8873 9.91285 12.6754 10.0203 12.4752 10.1537C12.4516 10.1695 12.4295 10.1875 12.4094 10.2076C12.39 10.2271 12.3611 10.2448 12.3029 10.2799C12.2661 10.302 12.2202 10.3296 12.169 10.3637C12.1602 10.3696 12.1517 10.3757 12.1433 10.3822C11.9988 10.4946 11.8784 10.6093 11.762 10.7201C11.7089 10.7707 11.6586 10.8184 11.6087 10.8635C11.5093 10.9531 11.4093 11.0388 11.3034 11.1294C11.2339 11.189 11.164 11.2489 11.0937 11.3103C11.0711 11.3301 11.0506 11.3522 11.0326 11.3762C11.0119 11.4039 10.9914 11.4316 10.9707 11.4593C10.8686 11.5971 10.7722 11.7273 10.6491 11.8503C10.574 11.9255 10.5292 12.0257 10.5234 12.1319C10.5161 12.2664 10.502 12.4012 10.4871 12.5439C10.4746 12.6642 10.4616 12.7885 10.4526 12.9157C10.4445 13.0302 10.4376 13.1449 10.4307 13.2598C10.4218 13.4072 10.4127 13.5597 10.401 13.7075C10.3907 13.8368 10.3774 13.9703 10.3645 14.0994C10.3514 14.2302 10.3379 14.3656 10.3271 14.5011C10.3153 14.6479 10.3092 14.7935 10.3032 14.9344C10.2979 15.0611 10.2929 15.1808 10.2841 15.3002C10.2758 15.4125 10.265 15.524 10.2534 15.6419C10.2389 15.7908 10.2238 15.9449 10.2145 16.1008C10.2049 16.2608 10.2064 16.4163 10.2078 16.5668C10.209 16.6855 10.21 16.7977 10.2059 16.9075C10.2017 17.0145 10.1914 17.1242 10.1804 17.2403C10.1659 17.3932 10.1509 17.5513 10.1494 17.7162C10.1476 17.9129 10.1545 18.1077 10.1613 18.2961C10.164 18.374 10.1668 18.4517 10.169 18.5295C10.1725 18.6578 10.1809 18.7867 10.1908 18.914C10.0746 18.9173 9.95995 18.9193 9.84941 18.92C9.72372 18.9208 9.59833 18.9181 9.46561 18.9152C9.33289 18.9124 9.19581 18.9095 9.05808 18.9102C8.96894 18.9107 8.8798 18.9095 8.791 18.9084C8.61349 18.9061 8.42981 18.9038 8.24484 18.9141C8.24178 18.9142 8.23876 18.9145 8.23569 18.9147C8.0357 18.93 7.83028 18.9367 7.61273 18.9437C7.53869 18.946 7.46443 18.9484 7.39017 18.9512C7.2392 18.9568 7.08995 18.9666 6.94338 18.9778C6.93587 18.8885 6.92914 18.8027 6.92526 18.7171C6.91982 18.5975 6.91637 18.4734 6.91305 18.3534C6.9099 18.2393 6.90671 18.1251 6.90192 18.0109C6.89687 17.8919 6.89739 17.7712 6.89795 17.6434C6.89842 17.5348 6.8989 17.4225 6.89575 17.3087C6.89372 17.2359 6.89126 17.1632 6.88876 17.0905C6.8831 16.9252 6.8778 16.769 6.87754 16.6123C6.87741 16.5286 6.87607 16.4449 6.87473 16.3614C6.87227 16.2079 6.86994 16.063 6.87516 15.9221C6.88008 15.8005 6.89061 15.6778 6.90174 15.5479C6.91348 15.4107 6.92565 15.2689 6.93117 15.1241C6.9414 14.8578 6.95141 14.5915 6.96099 14.3252C6.96625 14.1793 6.96383 14.0365 6.96155 13.8984C6.95939 13.7685 6.95732 13.6458 6.96142 13.5251C6.96539 13.4075 6.9776 13.2866 6.99054 13.1586C7.00456 13.0197 7.01906 12.8762 7.02376 12.7272C7.02825 12.5846 7.02786 12.4432 7.02752 12.3064C7.02713 12.1753 7.02679 12.0515 7.03045 11.9275C7.03455 11.7864 7.03649 11.6445 7.03835 11.5074C7.04007 11.3809 7.04176 11.2545 7.04521 11.1281C7.04849 11.0063 7.05246 10.8844 7.05647 10.7625C7.06122 10.618 7.06596 10.4735 7.06954 10.3289C7.07304 10.1874 7.07291 10.0463 7.07278 9.90988C7.07265 9.77853 7.07252 9.65448 7.07537 9.5294C7.07817 9.40423 7.08335 9.27505 7.08836 9.15018C7.09384 9.01327 7.09949 8.8717 7.10238 8.73035C7.10493 8.60522 7.10898 8.48014 7.11308 8.35501C7.11757 8.21659 7.12218 8.07347 7.12477 7.93113C7.12736 7.78866 7.12538 7.64722 7.12344 7.51048C7.12162 7.3794 7.11985 7.25557 7.1218 7.13139C7.12369 7.01122 7.13189 6.89248 7.14065 6.76675C7.14069 6.76576 7.14078 6.76477 7.14082 6.76377C7.14816 6.76351 7.15545 6.76326 7.16274 6.76304C7.29991 6.75838 7.42944 6.75402 7.56216 6.75402C7.70968 6.75402 7.85625 6.74997 7.99804 6.746C8.13965 6.74207 8.2734 6.73836 8.40794 6.73836C8.53742 6.73836 8.66872 6.74535 8.80774 6.75273C8.9519 6.76041 9.10102 6.76835 9.25346 6.76835L10.0992 6.76861C10.2423 6.76861 10.386 6.76653 10.5251 6.76451C10.5393 6.76429 10.5535 6.76412 10.5678 6.7639C10.5851 6.90862 10.5985 7.04872 10.6079 7.18662C10.6212 7.38022 10.6232 7.57525 10.6252 7.78167C10.626 7.85463 10.6268 7.92755 10.628 8.00034C10.63 8.11597 10.6335 8.22937 10.637 8.34189C10.6421 8.50538 10.6469 8.65981 10.6469 8.81703C10.6469 8.99498 10.7561 9.15466 10.9219 9.21917C11.0878 9.28363 11.2762 9.23979 11.3964 9.10863C11.5227 8.97094 11.6594 8.84387 11.8041 8.70938C11.8628 8.65493 11.9217 8.60013 11.9807 8.54395C12.0519 8.47626 12.1201 8.40735 12.1861 8.34077C12.3161 8.20965 12.4387 8.08581 12.5687 7.98472C12.7632 7.8334 12.9764 7.70146 13.2367 7.54988C13.4566 7.42182 13.7077 7.32698 13.9505 7.23525C14.1819 7.14783 14.4286 7.05882 14.6788 7.0136C14.9737 6.9752 15.2683 6.98029 15.5536 6.98521C15.6647 6.98711 15.7762 6.98693 15.8839 6.98667C15.9796 6.98654 16.0726 6.98633 16.1647 6.98749C16.2284 7.02456 16.3024 7.04583 16.3814 7.04583C16.3909 7.04583 16.4004 7.0457 16.4099 7.04544C16.4969 7.10037 16.6009 7.12242 16.7024 7.10762C16.8443 7.15711 16.9661 7.20746 17.0798 7.26321C17.2889 7.36568 17.4865 7.4833 17.684 7.6228C17.7211 7.64903 17.7587 7.67518 17.7964 7.70146C17.9621 7.81683 18.1186 7.92578 18.2589 8.05596C18.4045 8.18945 18.5356 8.3381 18.6485 8.4977C18.72 8.59875 18.7772 8.72819 18.8377 8.86527C18.8634 8.92344 18.8892 8.98156 18.9162 9.03881C18.9403 9.08973 18.9651 9.14043 18.99 9.19125C19.0576 9.32958 19.1217 9.46062 19.167 9.59054C19.2461 9.94737 19.3148 10.274 19.3554 10.6314C19.3596 10.7333 19.3658 10.834 19.3718 10.9316C19.3817 11.094 19.3911 11.2474 19.3919 11.3984C19.3928 11.5484 19.3866 11.6983 19.3801 11.8572Z" fill="black"/>
<path d="M0.832466 4.26434C1.04389 4.50058 1.3073 4.70367 1.61551 4.86793C1.90403 5.02171 2.19291 5.11797 2.47578 5.15478C2.52165 5.171 2.57032 5.17959 2.61989 5.17959C2.64013 5.17959 2.66054 5.17816 2.68099 5.17523C3.08632 5.11733 3.39875 5.02922 3.66337 4.89814C3.94094 4.77128 4.17748 4.62281 4.38635 4.44435C4.57862 4.28 4.75086 4.08304 4.94498 3.80573C4.95711 3.78843 4.96794 3.77022 4.97739 3.75128C5.02041 3.66528 5.05699 3.59241 5.09363 3.51953C5.13048 3.44618 5.16737 3.37283 5.21064 3.28623C5.21535 3.27683 5.2197 3.26725 5.22372 3.25754C5.38194 2.87322 5.334 2.50776 5.28417 2.26627C5.22937 2.00078 5.11585 1.7312 4.93704 1.44215C4.78007 1.18844 4.61292 0.964248 4.44024 0.775909C4.43602 0.771335 4.4317 0.766805 4.4273 0.762404C4.13109 0.466196 3.85741 0.273413 3.56608 0.155879C3.21706 0.0149163 2.83753 -0.0317261 2.46862 0.0210433C2.07214 0.077696 1.71237 0.260339 1.41271 0.431592C1.39567 0.441343 1.37932 0.45226 1.36374 0.464211C1.13273 0.641893 0.951164 0.81664 0.808691 0.998464C0.666995 1.17925 0.570604 1.37493 0.485517 1.54752C0.469207 1.58065 0.452897 1.6137 0.436371 1.64645L0.399265 1.71972C0.306497 1.9024 0.210581 2.0913 0.136971 2.29751C0.120359 2.34411 0.111816 2.39316 0.111816 2.44261C0.111816 2.78982 0.176926 3.13207 0.300026 3.43224C0.419199 3.7228 0.598347 4.00278 0.832466 4.26434ZM1.16871 2.11042L1.20686 2.03517C1.22459 2 1.24207 1.96454 1.25958 1.92907C1.33255 1.78099 1.4015 1.64115 1.48796 1.53078C1.58099 1.41208 1.70508 1.2926 1.86684 1.16614C2.07861 1.04631 2.34651 0.910271 2.59068 0.875364C2.80914 0.844125 3.03476 0.872042 3.24307 0.956136C3.4189 1.02711 3.60452 1.16117 3.81033 1.36591C3.94267 1.51136 4.07832 1.69448 4.20315 1.89619C4.32785 2.09778 4.40499 2.27589 4.43899 2.44071C4.48093 2.64398 4.47847 2.79159 4.43071 2.9165C4.39114 2.99559 4.35688 3.06385 4.32258 3.13211C4.28992 3.19713 4.25721 3.26216 4.22006 3.33637C4.0772 3.53782 3.95483 3.67797 3.82569 3.78838C3.67744 3.91506 3.50519 4.02216 3.29917 4.11583C3.29433 4.11803 3.2895 4.12032 3.28475 4.12269C3.12317 4.2035 2.92171 4.2624 2.6561 4.30607C2.65398 4.30589 2.65182 4.30568 2.64971 4.30551C2.45222 4.29032 2.24084 4.22331 2.02144 4.10638C1.80294 3.98988 1.61926 3.84939 1.47554 3.6888C1.3095 3.50331 1.17911 3.30133 1.09851 3.10471C1.0262 2.92841 0.984345 2.72678 0.976276 2.51752C1.02896 2.38561 1.09718 2.25134 1.16871 2.11042Z" fill="black"/>
</g>
<defs>
<clipPath id="clip0">
<rect width="20.255" height="20" fill="white"/>
</clipPath>
</defs>
</svg>
