<svg width="16" height="20" viewBox="0 0 16 20" fill="none" xmlns="http://www.w3.org/2000/svg">
<g clip-path="url(#clip0)">
<path d="M15.0609 8.70311C15.0609 8.68596 15.0599 8.66886 15.0577 8.65188C15.0033 8.21584 14.8918 7.85527 14.7172 7.54961C14.7139 7.54391 14.7105 7.53833 14.707 7.5328C14.548 7.28286 14.3325 7.05371 14.0665 6.85182C13.8613 6.69595 13.5837 6.50302 13.2561 6.39384C13.2182 6.3812 13.1786 6.37413 13.1387 6.37285C12.8351 6.36306 12.5902 6.35397 12.368 6.34431C12.2399 6.33869 12.113 6.33749 11.9902 6.33633C11.8542 6.33505 11.7258 6.33381 11.5981 6.32708C11.4746 6.32059 11.3508 6.31638 11.2311 6.31237C11.0979 6.30787 10.9601 6.3032 10.8274 6.29539C10.6942 6.28754 10.5569 6.27705 10.4242 6.26689C10.302 6.25751 10.1796 6.24817 10.0571 6.24049C9.93528 6.23285 9.81333 6.22054 9.68427 6.20748C9.55534 6.19447 9.42198 6.18096 9.28677 6.17233C9.15028 6.16361 9.01457 6.15919 8.88328 6.15493C8.75522 6.15076 8.63426 6.14684 8.51305 6.13924C8.40762 6.13263 8.30224 6.12564 8.19693 6.1187C8.04445 6.10862 7.89197 6.09854 7.73953 6.08954C7.59688 6.08111 7.45564 6.07822 7.31906 6.07541C7.19595 6.07285 7.07962 6.07045 6.96358 6.06434C6.84919 6.05831 6.73455 6.04777 6.61313 6.03666C6.47561 6.02402 6.33337 6.01096 6.18828 6.0046C6.07129 5.99948 5.95293 5.99638 5.83639 5.99378C5.83801 5.97924 5.83962 5.96461 5.84127 5.9499C5.85217 5.85171 5.86345 5.75016 5.87188 5.64796C5.88262 5.51774 5.88902 5.38794 5.89518 5.26244C5.90183 5.12756 5.90811 5.00015 5.91931 4.87324C5.93633 4.68015 5.94356 4.48872 5.95058 4.30356C5.95339 4.22874 5.95624 4.15397 5.95971 4.07924C5.97004 3.85653 5.9802 3.5628 5.9669 3.2654L5.96347 3.18674C5.9531 2.94334 5.94232 2.69167 5.89349 2.4331C5.84379 2.16994 5.76534 1.90233 5.65359 1.61492C5.63797 1.57473 5.61616 1.53734 5.58906 1.504C5.58307 1.49169 5.57469 1.4729 5.56812 1.45819C5.55465 1.42811 5.54056 1.39701 5.52536 1.36656C5.5135 1.34289 5.49946 1.32041 5.4833 1.29943C5.32335 1.09147 5.14009 0.924154 4.98092 0.783613C4.806 0.629232 4.61122 0.469935 4.37256 0.350957C4.15704 0.243506 3.91586 0.164271 3.65577 0.115482C3.63065 0.110772 3.60516 0.108418 3.57959 0.108418C3.5579 0.108418 3.5253 0.108748 3.49271 0.109079C3.48647 0.10912 3.48027 0.109203 3.47412 0.109244C3.17106 0.0206308 2.8794 -0.01436 2.606 0.0050977C2.31955 0.0255882 2.01698 0.106807 1.70661 0.246522C1.41032 0.379917 1.15188 0.547642 0.938378 0.74511C0.722484 0.937787 0.535549 1.1769 0.397652 1.43683C0.232819 1.74758 0.1604 2.05807 0.182295 2.35998C0.185517 2.60144 0.188533 2.85931 0.189277 3.11342C0.189649 3.24103 0.194151 3.36728 0.19853 3.48935C0.203405 3.62518 0.207991 3.7535 0.207165 3.88111C0.206297 4.02508 0.202744 4.17318 0.199315 4.31645C0.196671 4.42745 0.194027 4.53837 0.192458 4.64934C0.190722 4.77236 0.182791 4.89663 0.174405 5.0282C0.166349 5.15429 0.158045 5.28467 0.155277 5.41736C0.152592 5.54575 0.153377 5.67353 0.154079 5.79709C0.154905 5.93181 0.155649 6.05909 0.152303 6.1867C0.148957 6.31468 0.14842 6.44259 0.147965 6.56627C0.147428 6.70103 0.146932 6.82831 0.143049 6.9565C0.139207 7.08448 0.13772 7.21271 0.136274 7.33673C0.134787 7.46529 0.133258 7.59827 0.129044 7.72671C0.125078 7.84747 0.115907 7.96892 0.106199 8.09744C0.0964497 8.22671 0.0864109 8.36039 0.0817014 8.49639C0.0774463 8.62032 0.0704233 8.74302 0.0629872 8.8729C0.0556337 9.00121 0.0480328 9.13386 0.0434472 9.26697C0.0386137 9.4083 0.042125 9.54603 0.0455539 9.67922C0.0487761 9.8048 0.0517918 9.92345 0.0479499 10.0393C0.0394397 10.2965 0.0315906 10.5539 0.0237414 10.8114C0.020767 10.9085 0.0175861 11.0054 0.0144051 11.1022C0.00919982 11.2619 0.00395348 11.4216 -0.000342914 11.5821C-0.00121046 11.6149 0.00180504 11.6477 0.00870406 11.6797C0.0636897 11.9363 0.0683166 12.2059 0.0683579 12.4601C0.0683579 12.5093 0.0682338 12.5585 0.0680685 12.6077C0.0673249 12.8509 0.0665816 13.1024 0.0848413 13.3579C0.0849652 13.3595 0.0850892 13.3611 0.0852132 13.3628C0.0892204 13.4108 0.0927727 13.4587 0.0963668 13.5064C0.111487 13.7091 0.127144 13.9188 0.173992 14.131C0.208735 14.2884 0.257523 14.4317 0.304701 14.5703C0.336387 14.6634 0.366338 14.7513 0.38972 14.8371C0.392819 14.8484 0.396371 14.8596 0.400379 14.8706C0.430908 14.9539 0.458463 15.0396 0.487628 15.1304C0.541623 15.2982 0.597393 15.472 0.677496 15.6451C0.802711 15.9158 0.947467 16.1674 1.07256 16.3778C1.20917 16.6076 1.36827 16.8128 1.52215 17.0113L1.56016 17.0604C1.71082 17.2552 1.8854 17.4475 2.12612 17.6841C2.3143 17.8689 2.49809 18.03 2.68561 18.1744C2.70655 18.2192 2.73977 18.2756 2.79322 18.329C2.81074 18.3465 2.82983 18.3625 2.85019 18.3765C3.04002 18.508 3.24699 18.641 3.50159 18.7952C3.55315 18.8264 3.60421 18.8581 3.65515 18.8896C3.82184 18.9927 3.99423 19.0994 4.17918 19.1911C4.43242 19.3166 4.69186 19.4164 4.91213 19.4974C5.14959 19.5848 5.40085 19.6588 5.68032 19.7237C5.95107 19.7864 6.2291 19.8132 6.47759 19.8372C6.57025 19.8454 6.66262 19.8553 6.75479 19.8652C6.92528 19.8834 7.10164 19.9022 7.28122 19.9112C7.44953 19.9196 7.61465 19.9187 7.77415 19.9177C7.88156 19.9171 7.98294 19.9165 8.08461 19.9186L8.25783 19.9222C8.46219 19.9267 8.67354 19.9314 8.88353 19.9314C8.99825 19.9315 9.11562 19.9384 9.23984 19.9457C9.38146 19.954 9.52803 19.9625 9.6789 19.9613C9.81622 19.96 9.95284 19.9548 10.085 19.9497C10.2179 19.9446 10.3434 19.9398 10.4697 19.9387C10.5877 19.9376 10.7061 19.9347 10.8205 19.9319C10.9642 19.9284 11.1126 19.9254 11.2563 19.925C11.3929 19.9253 11.5303 19.9328 11.6758 19.9407C11.7212 19.9432 11.7672 19.9457 11.8138 19.948C11.8735 19.9813 11.9421 20 12.0145 20C12.0798 20 12.1419 19.9871 12.1982 19.9638C12.2479 19.952 12.2997 19.9456 12.361 19.9379C12.4767 19.9235 12.6154 19.9062 12.7733 19.8454C12.8536 19.8524 12.9309 19.8538 13.0033 19.8296C13.3257 19.7222 13.578 19.6048 13.7974 19.4602C14.0812 19.2732 14.299 19.0568 14.4632 18.7986C14.4709 18.7867 14.4779 18.7743 14.4842 18.7616C14.5041 18.7218 14.5204 18.6902 14.5366 18.6586C14.5541 18.6246 14.5715 18.5905 14.5929 18.5476C14.5944 18.5447 14.5958 18.5417 14.5972 18.5388C14.743 18.2289 14.8266 17.9451 14.8527 17.6711C14.8804 17.3808 14.8649 17.0829 14.8066 16.7861C14.7463 16.4791 14.6575 16.1997 14.5425 15.9555C14.5222 15.9123 14.496 15.8746 14.4623 15.8409C14.4535 15.8313 14.4262 15.7943 14.4023 15.7466C14.393 15.7279 14.3823 15.71 14.3703 15.693C14.1719 15.412 13.9445 15.1855 13.6946 15.0199C13.4068 14.8292 13.0845 14.7416 12.8071 14.681C12.545 14.6238 12.2746 14.6035 12.0018 14.6202C11.9766 14.6155 11.9507 14.613 11.9242 14.613C11.8176 14.613 11.712 14.6149 11.6098 14.6168C11.4408 14.6198 11.2812 14.6227 11.1239 14.6174C10.9785 14.6125 10.8312 14.5975 10.6754 14.5816C10.5623 14.57 10.4454 14.5581 10.3263 14.55C10.1399 14.5372 9.95366 14.5176 9.75653 14.4969C9.68109 14.4889 9.60537 14.481 9.52919 14.4734C9.52204 14.4726 9.51489 14.4721 9.50775 14.4718C9.30685 14.4622 9.10579 14.4514 8.90485 14.4407L8.85775 14.4382C8.75001 14.4324 8.64467 14.4312 8.54275 14.43C8.42716 14.4287 8.31802 14.4274 8.21205 14.4199C8.09502 14.4115 7.97625 14.3963 7.85045 14.3803C7.76126 14.3689 7.66901 14.357 7.57536 14.3476C7.48365 14.3383 7.39314 14.3319 7.3056 14.3258C7.17922 14.3168 7.05983 14.3085 6.94491 14.2922C6.75859 14.262 6.56934 14.1941 6.38249 14.0905C6.19382 13.9859 6.03159 13.8598 5.9003 13.7158C5.75009 13.5511 5.62905 13.3765 5.54044 13.197C5.45501 13.0238 5.38763 12.8229 5.34016 12.5998C5.31256 12.3891 5.34669 12.1736 5.38275 11.9457L5.38858 11.9088C5.41138 11.7646 5.43575 11.6107 5.44026 11.4477C5.50805 11.4503 5.57489 11.4538 5.64144 11.4587C5.86106 11.4749 6.09583 11.4946 6.40248 11.5226C6.5479 11.536 6.6977 11.5528 6.84262 11.5691C6.95003 11.5811 7.05744 11.5932 7.16489 11.6041C7.29077 11.617 7.41544 11.6331 7.54747 11.6502C7.67157 11.6663 7.79989 11.6829 7.92882 11.6965C8.04206 11.7084 8.15517 11.7213 8.26828 11.7341C8.41109 11.7504 8.55386 11.7666 8.69684 11.781C8.84676 11.7961 8.99656 11.8068 9.1414 11.8171C9.2498 11.8249 9.36192 11.8329 9.47007 11.8425C9.5755 11.8519 9.68031 11.864 9.79123 11.8769C9.93825 11.894 10.0902 11.9116 10.2448 11.9225C10.4026 11.9335 10.5557 11.9329 10.7037 11.9323C10.8162 11.9319 10.9226 11.9314 11.0269 11.9359C11.1285 11.9404 11.2325 11.9506 11.3427 11.9614C11.4929 11.9762 11.6483 11.9915 11.8104 11.993C11.9769 11.9942 12.1387 11.9824 12.2944 11.9706C12.3999 11.9627 12.4996 11.9551 12.5977 11.952C12.6019 11.9518 12.6061 11.9516 12.6103 11.9513C12.904 11.933 13.1416 11.8831 13.3579 11.7944C13.6364 11.6801 13.8387 11.5676 14.0136 11.4295C14.2045 11.2788 14.3603 11.0983 14.5186 10.9082C14.729 10.6511 14.8774 10.3276 14.9596 9.94675C15.0327 9.60878 15.0598 9.28403 15.0402 8.98109C15.0412 8.95821 15.0451 8.92041 15.0482 8.88918C15.0545 8.82832 15.0609 8.76549 15.0609 8.70311ZM14.2263 8.80511C14.2201 8.86588 14.2137 8.92871 14.2137 8.99105C14.2137 9.00088 14.2141 9.01067 14.2147 9.02046C14.2311 9.25065 14.2101 9.50352 14.152 9.77209C14.0969 10.0274 14.0076 10.2278 13.8814 10.3821C13.7497 10.5402 13.6303 10.6793 13.5017 10.7808C13.3897 10.8692 13.2487 10.946 13.0444 11.0298C12.9154 11.0827 12.7628 11.1133 12.5648 11.1262C12.4509 11.13 12.3398 11.1384 12.2322 11.1466C12.0873 11.1575 11.9501 11.1681 11.8182 11.1666C11.6926 11.1654 11.562 11.1525 11.4236 11.139C11.3073 11.1276 11.1869 11.1157 11.0628 11.1103C10.939 11.1049 10.8177 11.1055 10.7005 11.1059C10.5612 11.1064 10.4298 11.107 10.3025 11.0981C10.1668 11.0886 10.0307 11.0728 9.88657 11.056C9.77516 11.0431 9.6599 11.0297 9.54348 11.0193C9.42797 11.009 9.31218 11.0008 9.20014 10.9928C9.05485 10.9824 8.91761 10.9726 8.77976 10.9588C8.64025 10.9447 8.50094 10.9288 8.3616 10.913C8.24622 10.8999 8.13083 10.8868 8.0152 10.8746C7.89614 10.8621 7.77837 10.8468 7.65365 10.8307C7.52194 10.8136 7.38578 10.7959 7.24867 10.782C7.14394 10.7713 7.03938 10.7596 6.93478 10.7478C6.78577 10.7311 6.63168 10.7138 6.47776 10.6997C6.16602 10.6712 5.92683 10.6511 5.70213 10.6345C5.54048 10.6226 5.38069 10.6185 5.22618 10.6145C5.13323 10.612 5.04478 10.6098 4.95662 10.6059C4.93882 10.6045 4.92035 10.6038 4.90118 10.6038C4.67695 10.6038 4.49365 10.7826 4.48819 11.0068C4.48534 11.1252 4.5326 11.2334 4.61085 11.3107C4.6246 11.45 4.60081 11.6005 4.57247 11.7796L4.56664 11.8164C4.52397 12.0858 4.47563 12.3911 4.52389 12.7289C4.52513 12.7375 4.52661 12.7461 4.52839 12.7547C4.59023 13.0515 4.68141 13.3233 4.79943 13.5625C4.92234 13.8115 5.08733 14.0504 5.28976 14.2724C5.48161 14.4828 5.7144 14.6646 5.98177 14.813C6.25405 14.9639 6.53534 15.0633 6.81783 15.1085C6.8201 15.1089 6.82233 15.1092 6.82465 15.1095C6.9699 15.1302 7.11106 15.1402 7.24755 15.1498C7.33261 15.1558 7.41292 15.1615 7.49212 15.1695C7.57507 15.1779 7.65798 15.1885 7.74577 15.1997C7.87726 15.2165 8.01322 15.2339 8.1531 15.2439C8.28377 15.2533 8.41064 15.2547 8.53333 15.2561C8.63095 15.2572 8.7232 15.2583 8.81355 15.2631L8.86073 15.2656C9.05956 15.2763 9.25868 15.2869 9.45751 15.2964C9.52869 15.3036 9.5995 15.311 9.67002 15.3185C9.86592 15.3391 10.0685 15.3604 10.27 15.3742C10.3752 15.3814 10.4803 15.3921 10.5915 15.4034C10.7542 15.42 10.9225 15.4372 11.0958 15.4431C11.2746 15.4491 11.4527 15.4459 11.6248 15.4427C11.6889 15.4416 11.7543 15.4404 11.8194 15.4397C11.8672 15.4525 11.9172 15.4568 11.9673 15.4517C12.1965 15.4288 12.4136 15.4407 12.6309 15.4881C12.8437 15.5346 13.0645 15.5935 13.2383 15.7086C13.3963 15.8133 13.5446 15.9608 13.6795 16.1472C13.7207 16.2247 13.7688 16.2977 13.8181 16.3583C13.8933 16.5296 13.953 16.7268 13.9959 16.9452C14.0388 17.1638 14.0504 17.3816 14.0302 17.5927C14.0132 17.7716 13.9565 17.9591 13.8518 18.1825C13.8329 18.2202 13.8172 18.2506 13.8016 18.2811C13.787 18.3095 13.7725 18.3379 13.7556 18.3714C13.6562 18.5222 13.5209 18.6529 13.3429 18.7702C13.2014 18.8634 13.0331 18.9435 12.8178 19.0197C12.7788 19.0162 12.7388 19.0127 12.7016 19.0127C12.6374 19.0127 12.5742 19.0276 12.5168 19.0563C12.4417 19.0939 12.3767 19.1033 12.259 19.1179C12.217 19.1232 12.1709 19.1289 12.1211 19.1372C12.12 19.137 12.1188 19.1368 12.1177 19.1366C12.0968 19.1329 12.0756 19.1307 12.0545 19.1303C11.9448 19.1278 11.8359 19.1219 11.7207 19.1157C11.571 19.1075 11.4163 19.0991 11.2579 19.0988C11.2525 19.0988 11.247 19.0988 11.2415 19.0988C11.0925 19.0988 10.9441 19.1024 10.8004 19.1059C10.6877 19.1086 10.5751 19.1115 10.4625 19.1124C10.3239 19.1136 10.1864 19.1189 10.0534 19.124C9.9214 19.1291 9.79668 19.1338 9.67138 19.135C9.54852 19.1364 9.42215 19.1287 9.28838 19.1209C9.15784 19.1132 9.02287 19.1053 8.88407 19.1052C8.68284 19.1051 8.47599 19.1006 8.27596 19.0962L8.10138 19.0925C7.98914 19.0902 7.87751 19.0908 7.76952 19.0914C7.61423 19.0924 7.46766 19.0932 7.32253 19.0859C7.16629 19.0781 7.00906 19.0613 6.84258 19.0435C6.74554 19.0332 6.64833 19.0228 6.55393 19.0145C6.32325 18.9922 6.08472 18.9691 5.86696 18.9187C5.62145 18.8618 5.40254 18.7975 5.19764 18.7221C4.99794 18.6486 4.76436 18.5589 4.54624 18.4508C4.39607 18.3763 4.24739 18.2844 4.08999 18.1869C4.03682 18.1541 3.98353 18.1211 3.92983 18.0885C3.72835 17.9665 3.55955 17.8592 3.40653 17.7559C3.38542 17.7127 3.35316 17.6603 3.30321 17.6104C3.28884 17.5959 3.27339 17.5826 3.25703 17.5705C3.07282 17.434 2.89233 17.2784 2.70531 17.0946C2.49231 16.8853 2.3407 16.7188 2.21379 16.5548L2.17533 16.5051C2.03041 16.3182 1.89354 16.1416 1.78295 15.9556C1.66864 15.7633 1.53702 15.5348 1.42755 15.2981C1.36868 15.1709 1.32291 15.0284 1.27441 14.8775C1.24569 14.7882 1.21603 14.6959 1.18228 14.6026C1.1532 14.4984 1.11957 14.3997 1.08702 14.304C1.04525 14.1813 1.00584 14.0655 0.980929 13.9528C0.946847 13.7983 0.93404 13.6266 0.920449 13.4449C0.916772 13.3958 0.913095 13.3464 0.908964 13.2968C0.893059 13.0727 0.89372 12.848 0.894464 12.6102C0.894629 12.5602 0.894753 12.5101 0.894753 12.46C0.894712 12.1888 0.889259 11.8753 0.827085 11.5569C0.831051 11.414 0.835719 11.2717 0.840387 11.1292C0.843568 11.0318 0.846791 10.9343 0.849765 10.8366C0.857614 10.5797 0.865422 10.3231 0.873932 10.0666C0.878559 9.92651 0.875089 9.79001 0.871701 9.65802C0.868479 9.5314 0.865422 9.41181 0.869388 9.29527C0.873643 9.17171 0.880625 9.04951 0.888061 8.92012C0.895456 8.79127 0.903057 8.65808 0.907642 8.52464C0.911732 8.40562 0.920738 8.28607 0.930281 8.15953C0.940196 8.02808 0.950441 7.89212 0.954985 7.75389C0.959488 7.61658 0.9611 7.47909 0.962628 7.34615C0.964033 7.22593 0.965437 7.10167 0.969073 6.98133C0.973245 6.84236 0.973782 6.70363 0.974319 6.56949C0.974815 6.44486 0.975269 6.32712 0.978409 6.20831C0.982086 6.06744 0.98126 5.92747 0.980475 5.79214C0.979731 5.66861 0.979029 5.55195 0.981507 5.43454C0.983903 5.31953 0.991257 5.20357 0.999106 5.08079C1.00774 4.94492 1.01675 4.80446 1.01877 4.66099C1.0203 4.55275 1.0229 4.44447 1.02546 4.33615C1.02897 4.18933 1.03261 4.03751 1.03356 3.88631C1.03447 3.74131 1.02935 3.59821 1.02439 3.45981C1.02009 3.3391 1.01596 3.22508 1.01567 3.11102C1.01489 2.84853 1.01175 2.58327 1.00844 2.33577C1.00832 2.32614 1.00786 2.31652 1.00704 2.30693C0.99481 2.16048 1.03542 1.99796 1.12767 1.82404C1.22066 1.6488 1.34625 1.48822 1.4908 1.3597C1.49303 1.35772 1.49522 1.35574 1.49741 1.35367C1.64559 1.2161 1.83013 1.09708 2.0459 0.99992C2.26745 0.900194 2.47579 0.842771 2.66503 0.829221C2.85321 0.81567 3.06352 0.845167 3.28991 0.916718C3.33015 0.929442 3.37208 0.935887 3.4143 0.935887C3.43599 0.935887 3.46858 0.935557 3.50118 0.935226C3.51473 0.935102 3.52824 0.934937 3.5408 0.934854C3.71121 0.969721 3.86687 1.02198 4.00402 1.09039C4.15749 1.16694 4.30151 1.28592 4.43428 1.40308C4.56065 1.51462 4.69248 1.63446 4.80282 1.77063C4.80662 1.77905 4.81038 1.7874 4.81406 1.79562C4.83744 1.84792 4.86462 1.90861 4.90395 1.96756C4.98624 2.18655 5.04454 2.38951 5.08167 2.58636C5.11947 2.78639 5.12848 2.99795 5.13806 3.2219L5.14153 3.30213C5.15327 3.56474 5.14455 3.82294 5.13443 4.04082C5.13083 4.11786 5.12794 4.19499 5.12501 4.2722C5.11811 4.45526 5.11154 4.6281 5.09634 4.80054C5.08374 4.94339 5.07676 5.08484 5.07002 5.22167C5.06391 5.34593 5.05808 5.4633 5.0485 5.57992C5.04102 5.67052 5.0309 5.7619 5.02016 5.85865C5.00124 6.02939 4.98162 6.20599 4.97678 6.38512C4.97067 6.61233 5.14922 6.80183 5.37643 6.80918C5.48471 6.8127 5.59431 6.81497 5.70428 6.81724C5.85259 6.82034 6.00602 6.82348 6.15226 6.82988C6.27756 6.83537 6.40389 6.84698 6.53766 6.85925C6.66159 6.87061 6.78974 6.88243 6.92024 6.88929C7.04955 6.8961 7.17798 6.89875 7.30221 6.90131C7.43693 6.90408 7.56416 6.90668 7.69099 6.9142C7.84153 6.92308 7.99203 6.93304 8.14261 6.94299C8.2489 6.95001 8.3552 6.95704 8.46153 6.96369C8.59513 6.97207 8.72812 6.97641 8.85668 6.98054C8.98726 6.9848 9.11062 6.98881 9.23418 6.9967C9.35423 7.00438 9.47433 7.01653 9.6014 7.02937C9.73248 7.04263 9.86802 7.05631 10.0055 7.06494C10.1242 7.07242 10.2428 7.08147 10.3614 7.09056C10.4977 7.10097 10.6385 7.11175 10.779 7.12001C10.9221 7.12844 11.065 7.13323 11.2033 7.13794C11.3192 7.14186 11.4391 7.14591 11.5548 7.15203C11.7002 7.15971 11.8437 7.16103 11.9825 7.16236C12.1037 7.16351 12.2181 7.16459 12.332 7.16954C12.5413 7.17871 12.7699 7.18727 13.0471 7.19635C13.2409 7.27183 13.425 7.40188 13.567 7.5097C13.7542 7.65186 13.8975 7.80182 14.0048 7.96789C14.1178 8.16883 14.1929 8.41628 14.234 8.72315C14.2323 8.74624 14.2291 8.77809 14.2263 8.80511Z" fill="black"/>
</g>
<defs>
<clipPath id="clip0">
<rect width="15.0613" height="20" fill="white"/>
</clipPath>
</defs>
</svg>
