<?xml version="1.0" encoding="UTF-8"?>
<svg width="277px" height="137px" viewBox="0 0 277 137" version="1.1" xmlns="http://www.w3.org/2000/svg" xmlns:xlink="http://www.w3.org/1999/xlink">
    <!-- Generator: Sketch 55.2 (78181) - https://sketchapp.com -->
    <title>spaceKit_logo_500</title>
    <desc>Created with Sketch.</desc>
    <g id="Page-1" stroke="none" stroke-width="1" fill="none" fill-rule="evenodd">
        <g id="spaceKit_logo_500" transform="translate(0.000000, -1.000000)" fill="#FFFFFF">
            <path d="M117.472,24.384 C116.384,24.384 115.424,24.152 114.592,23.688 C113.776,23.224 113.152,22.568 112.72,21.72 L114.184,21 C114.776,22.264 115.936,22.896 117.664,22.896 C118.496,22.896 119.184,22.744 119.728,22.44 C120.272,22.136 120.544,21.664 120.544,21.024 C120.544,20.368 120.32,19.88 119.872,19.56 C119.44,19.24 118.672,19.032 117.568,18.936 C116.032,18.808 114.928,18.464 114.256,17.904 C113.6,17.344 113.272,16.6 113.272,15.672 C113.272,14.632 113.648,13.824 114.4,13.248 C115.152,12.672 116.184,12.384 117.496,12.384 C119.72,12.384 121.232,13.264 122.032,15.024 L120.568,15.744 C120.296,15.104 119.896,14.632 119.368,14.328 C118.856,14.024 118.192,13.872 117.376,13.872 C116.544,13.872 115.904,14.024 115.456,14.328 C115.024,14.632 114.808,15.064 114.808,15.624 C114.808,16.152 115.04,16.584 115.504,16.92 C115.984,17.24 116.8,17.448 117.952,17.544 C119.376,17.672 120.432,18.024 121.12,18.6 C121.824,19.16 122.176,19.904 122.176,20.832 C122.176,21.584 121.96,22.232 121.528,22.776 C121.096,23.304 120.52,23.704 119.8,23.976 C119.08,24.248 118.304,24.384 117.472,24.384 Z M133.163,12.384 C134.235,12.384 135.195,12.64 136.043,13.152 C136.891,13.664 137.555,14.376 138.035,15.288 C138.515,16.2 138.755,17.24 138.755,18.408 C138.755,19.56 138.515,20.592 138.035,21.504 C137.571,22.4 136.915,23.104 136.067,23.616 C135.235,24.128 134.283,24.384 133.211,24.384 C132.395,24.384 131.643,24.208 130.955,23.856 C130.283,23.488 129.715,22.976 129.251,22.32 L129.251,28.8 L127.619,28.8 L127.619,12.768 L129.251,12.768 L129.251,14.424 C129.715,13.784 130.283,13.288 130.955,12.936 C131.627,12.568 132.363,12.384 133.163,12.384 Z M133.211,22.896 C133.963,22.896 134.635,22.704 135.227,22.32 C135.819,21.936 136.283,21.408 136.619,20.736 C136.955,20.048 137.123,19.272 137.123,18.408 C137.123,17.528 136.955,16.744 136.619,16.056 C136.283,15.368 135.819,14.832 135.227,14.448 C134.635,14.064 133.963,13.872 133.211,13.872 C132.443,13.872 131.755,14.064 131.147,14.448 C130.555,14.832 130.091,15.368 129.755,16.056 C129.419,16.744 129.251,17.52 129.251,18.384 C129.251,19.248 129.419,20.024 129.755,20.712 C130.091,21.4 130.555,21.936 131.147,22.32 C131.755,22.704 132.443,22.896 133.211,22.896 Z M154.438,12.768 L154.438,24 L152.806,24 L152.806,22.344 C152.342,22.984 151.774,23.488 151.102,23.856 C150.43,24.208 149.694,24.384 148.894,24.384 C147.822,24.384 146.862,24.128 146.014,23.616 C145.166,23.104 144.502,22.392 144.022,21.48 C143.542,20.568 143.302,19.528 143.302,18.36 C143.302,17.208 143.534,16.184 143.998,15.288 C144.478,14.376 145.134,13.664 145.966,13.152 C146.814,12.64 147.774,12.384 148.846,12.384 C149.662,12.384 150.406,12.568 151.078,12.936 C151.766,13.288 152.342,13.792 152.806,14.448 L152.806,12.768 L154.438,12.768 Z M148.846,22.896 C149.614,22.896 150.294,22.704 150.886,22.32 C151.494,21.936 151.966,21.4 152.302,20.712 C152.638,20.024 152.806,19.248 152.806,18.384 C152.806,17.52 152.638,16.744 152.302,16.056 C151.966,15.368 151.494,14.832 150.886,14.448 C150.294,14.064 149.614,13.872 148.846,13.872 C148.094,13.872 147.422,14.064 146.83,14.448 C146.238,14.832 145.774,15.368 145.438,16.056 C145.102,16.728 144.934,17.496 144.934,18.36 C144.934,19.24 145.102,20.024 145.438,20.712 C145.774,21.4 146.238,21.936 146.83,22.32 C147.422,22.704 148.094,22.896 148.846,22.896 Z M165.273,24.384 C164.185,24.384 163.217,24.128 162.369,23.616 C161.521,23.104 160.857,22.392 160.377,21.48 C159.897,20.568 159.657,19.536 159.657,18.384 C159.657,17.232 159.889,16.2 160.353,15.288 C160.833,14.376 161.497,13.664 162.345,13.152 C163.193,12.64 164.153,12.384 165.225,12.384 C166.137,12.384 166.929,12.584 167.601,12.984 C168.289,13.368 168.913,13.92 169.473,14.64 L168.273,15.576 C167.489,14.44 166.473,13.872 165.225,13.872 C164.473,13.872 163.793,14.064 163.185,14.448 C162.593,14.832 162.129,15.368 161.793,16.056 C161.457,16.744 161.289,17.52 161.289,18.384 C161.289,19.248 161.457,20.024 161.793,20.712 C162.129,21.4 162.593,21.936 163.185,22.32 C163.793,22.704 164.473,22.896 165.225,22.896 C165.993,22.896 166.625,22.768 167.121,22.512 C167.617,22.24 168.065,21.848 168.465,21.336 L169.737,22.224 C169.209,22.88 168.553,23.408 167.769,23.808 C167.001,24.192 166.169,24.384 165.273,24.384 Z M179.637,12.384 C180.645,12.384 181.557,12.632 182.373,13.128 C183.189,13.624 183.829,14.304 184.293,15.168 C184.757,16.016 184.989,16.968 184.989,18.024 C184.989,18.328 184.981,18.56 184.965,18.72 L175.725,18.72 C175.789,19.872 176.165,20.856 176.853,21.672 C177.541,22.488 178.477,22.896 179.661,22.896 C180.621,22.896 181.413,22.72 182.037,22.368 C182.677,22 183.189,21.496 183.573,20.856 L184.869,21.72 C184.341,22.552 183.645,23.208 182.781,23.688 C181.917,24.152 180.893,24.384 179.709,24.384 C178.621,24.384 177.653,24.128 176.805,23.616 C175.957,23.104 175.293,22.392 174.813,21.48 C174.333,20.568 174.093,19.536 174.093,18.384 C174.093,17.232 174.325,16.2 174.789,15.288 C175.269,14.376 175.925,13.664 176.757,13.152 C177.605,12.64 178.565,12.384 179.637,12.384 Z M183.357,17.376 C183.197,16.208 182.805,15.336 182.181,14.76 C181.557,14.168 180.709,13.872 179.637,13.872 C178.597,13.872 177.741,14.208 177.069,14.88 C176.413,15.536 175.997,16.368 175.821,17.376 L183.357,17.376 Z M199.876,24 L194.26,16.128 L192.532,18.168 L192.532,24 L190.732,24 L190.732,7.632 L192.532,7.632 L192.532,15.912 L199.444,7.632 L201.436,7.632 L195.316,14.88 L201.916,24 L199.876,24 Z M207.264,24 L207.264,12.768 L208.896,12.768 L208.896,24 L207.264,24 Z M208.08,10.584 C207.712,10.584 207.4,10.456 207.144,10.2 C206.904,9.944 206.784,9.632 206.784,9.264 C206.784,8.912 206.904,8.616 207.144,8.376 C207.4,8.12 207.712,7.992 208.08,7.992 C208.432,7.992 208.736,8.12 208.992,8.376 C209.248,8.616 209.376,8.92 209.376,9.288 C209.376,9.64 209.248,9.944 208.992,10.2 C208.736,10.456 208.432,10.584 208.08,10.584 Z M216.348,24 L216.348,14.256 L214.428,14.256 L214.428,12.768 L216.348,12.768 L216.348,9.048 L217.98,9.048 L217.98,12.768 L220.572,12.768 L220.572,14.256 L217.98,14.256 L217.98,24 L216.348,24 Z" id="Shape" fill-rule="nonzero"></path>
            <path d="M114.592,23.688 L114.419,23.9923 L114.422,23.9937 L114.592,23.688 Z M112.72,21.72 L112.566,21.4059 L112.247,21.5626 L112.408,21.8789 L112.72,21.72 Z M114.184,21 L114.501,20.8516 L114.35,20.5285 L114.03,20.6859 L114.184,21 Z M119.728,22.44 L119.899,22.7455 L119.899,22.7455 L119.728,22.44 Z M119.872,19.56 L119.664,19.8413 L119.669,19.8448 L119.872,19.56 Z M117.568,18.936 L117.598,18.5873 L117.597,18.5872 L117.568,18.936 Z M114.256,17.904 L114.029,18.1702 L114.032,18.1729 L114.256,17.904 Z M114.4,13.248 L114.613,13.5259 L114.613,13.5259 L114.4,13.248 Z M122.032,15.024 L122.186,15.3381 L122.491,15.1882 L122.351,14.8792 L122.032,15.024 Z M120.568,15.744 L120.246,15.8809 L120.391,16.2213 L120.722,16.0581 L120.568,15.744 Z M119.368,14.328 L119.189,14.629 L119.193,14.6313 L119.368,14.328 Z M115.456,14.328 L115.259,14.0383 L115.255,14.0418 L115.456,14.328 Z M115.504,16.92 L115.299,17.2037 L115.31,17.2112 L115.504,16.92 Z M117.952,17.544 L117.983,17.1954 L117.981,17.1952 L117.952,17.544 Z M121.12,18.6 L120.895,18.8685 L120.902,18.8739 L121.12,18.6 Z M121.528,22.776 L121.799,22.9977 L121.802,22.9937 L121.528,22.776 Z M119.8,23.976 L119.924,24.3034 L119.8,23.976 Z M117.472,24.034 C116.435,24.034 115.535,23.8133 114.762,23.3823 L114.422,23.9937 C115.313,24.4907 116.333,24.734 117.472,24.734 L117.472,24.034 Z M114.765,23.3837 C114.009,22.9541 113.433,22.349 113.032,21.5611 L112.408,21.8789 C112.871,22.787 113.543,23.4939 114.419,23.9923 L114.765,23.3837 Z M112.874,22.0341 L114.338,21.3141 L114.03,20.6859 L112.566,21.4059 L112.874,22.0341 Z M113.867,21.1484 C114.193,21.8439 114.681,22.3756 115.331,22.7293 C115.975,23.0806 116.759,23.246 117.664,23.246 L117.664,22.546 C116.841,22.546 116.181,22.3954 115.665,22.1147 C115.155,21.8364 114.767,21.4201 114.501,20.8516 L113.867,21.1484 Z M117.664,23.246 C118.536,23.246 119.288,23.0868 119.899,22.7455 L119.557,22.1345 C119.08,22.4012 118.456,22.546 117.664,22.546 L117.664,23.246 Z M119.899,22.7455 C120.218,22.5672 120.471,22.331 120.643,22.0328 C120.815,21.735 120.894,21.3945 120.894,21.024 L120.194,21.024 C120.194,21.2935 120.137,21.509 120.037,21.6832 C119.937,21.857 119.782,22.0088 119.557,22.1345 L119.899,22.7455 Z M120.894,21.024 C120.894,20.2796 120.634,19.674 120.075,19.2752 L119.669,19.8448 C120.006,20.086 120.194,20.4564 120.194,21.024 L120.894,21.024 Z M120.08,19.2788 C119.565,18.897 118.711,18.6841 117.598,18.5873 L117.538,19.2847 C118.633,19.3799 119.315,19.583 119.664,19.8412 L120.08,19.2788 Z M117.597,18.5872 C116.085,18.4612 115.069,18.1256 114.48,17.6351 L114.032,18.1729 C114.787,18.8024 115.979,19.1548 117.539,19.2848 L117.597,18.5872 Z M114.483,17.6378 C113.912,17.1498 113.622,16.5064 113.622,15.672 L112.922,15.672 C112.922,16.6936 113.288,17.5382 114.029,18.1702 L114.483,17.6378 Z M113.622,15.672 C113.622,14.7286 113.957,14.0285 114.613,13.5259 L114.187,12.9701 C113.339,13.6195 112.922,14.5354 112.922,15.672 L113.622,15.672 Z M114.613,13.5259 C115.284,13.0117 116.232,12.734 117.496,12.734 L117.496,12.034 C116.136,12.034 115.02,12.3323 114.187,12.9701 L114.613,13.5259 Z M117.496,12.734 C118.563,12.734 119.432,12.945 120.122,13.3465 C120.809,13.7462 121.34,14.3476 121.713,15.1688 L122.351,14.8792 C121.924,13.9404 121.299,13.2218 120.474,12.7415 C119.652,12.263 118.653,12.034 117.496,12.034 L117.496,12.734 Z M121.878,14.7099 L120.414,15.4299 L120.722,16.0581 L122.186,15.3381 L121.878,14.7099 Z M120.89,15.6071 C120.593,14.9074 120.146,14.3719 119.543,14.0247 L119.193,14.6313 C119.646,14.8921 119.999,15.3006 120.246,15.8809 L120.89,15.6071 Z M119.547,14.0271 C118.964,13.6812 118.233,13.522 117.376,13.522 L117.376,14.222 C118.151,14.222 118.748,14.3668 119.189,14.6289 L119.547,14.0271 Z M117.376,13.522 C116.509,13.522 115.789,13.6791 115.259,14.0384 L115.653,14.6176 C116.019,14.3689 116.579,14.222 117.376,14.222 L117.376,13.522 Z M115.255,14.0418 C114.723,14.4158 114.458,14.9582 114.458,15.624 L115.158,15.624 C115.158,15.1698 115.325,14.8482 115.657,14.6142 L115.255,14.0418 Z M114.458,15.624 C114.458,16.2749 114.753,16.8082 115.299,17.2035 L115.709,16.6365 C115.327,16.3598 115.158,16.0291 115.158,15.624 L114.458,15.624 Z M115.31,17.2112 C115.868,17.5832 116.76,17.7959 117.923,17.8928 L117.981,17.1952 C116.84,17.1001 116.1,16.8968 115.698,16.6288 L115.31,17.2112 Z M117.921,17.8926 C119.312,18.0177 120.286,18.3581 120.895,18.8684 L121.345,18.3316 C120.578,17.6899 119.44,17.3263 117.983,17.1954 L117.921,17.8926 Z M120.902,18.8739 C121.52,19.3651 121.826,20.0067 121.826,20.832 L122.526,20.832 C122.526,19.8013 122.128,18.9549 121.338,18.3261 L120.902,18.8739 Z M121.826,20.832 C121.826,21.5119 121.633,22.0815 121.254,22.5583 L121.802,22.9937 C122.287,22.3825 122.526,21.6561 122.526,20.832 L121.826,20.832 Z M121.257,22.5544 C120.869,23.0289 120.346,23.3955 119.676,23.6486 L119.924,24.3034 C120.694,24.0125 121.323,23.5791 121.799,22.9976 L121.257,22.5544 Z M119.676,23.6486 C118.999,23.9045 118.265,24.034 117.472,24.034 L117.472,24.734 C118.343,24.734 119.161,24.5915 119.924,24.3034 L119.676,23.6486 Z M138.035,15.288 L138.345,15.125 L138.035,15.288 Z M138.035,21.504 L137.725,21.341 L137.724,21.3431 L138.035,21.504 Z M136.067,23.616 L135.886,23.3164 L135.883,23.3179 L136.067,23.616 Z M130.955,23.856 L130.787,24.1631 L130.795,24.1676 L130.955,23.856 Z M129.251,22.32 L129.537,22.1179 L128.901,21.2191 L128.901,22.32 L129.251,22.32 Z M129.251,28.8 L129.251,29.15 L129.601,29.15 L129.601,28.8 L129.251,28.8 Z M127.619,28.8 L127.269,28.8 L127.269,29.15 L127.619,29.15 L127.619,28.8 Z M127.619,12.768 L127.619,12.418 L127.269,12.418 L127.269,12.768 L127.619,12.768 Z M129.251,12.768 L129.601,12.768 L129.601,12.418 L129.251,12.418 L129.251,12.768 Z M129.251,14.424 L128.901,14.424 L128.901,15.503 L129.534,14.6294 L129.251,14.424 Z M130.955,12.936 L131.117,13.2461 L131.123,13.243 L130.955,12.936 Z M135.227,22.32 L135.417,22.6136 L135.227,22.32 Z M136.619,20.736 L136.932,20.8925 L136.933,20.8896 L136.619,20.736 Z M136.619,16.056 L136.933,15.9024 L136.619,16.056 Z M135.227,14.448 L135.417,14.1544 L135.227,14.448 Z M131.147,14.448 L130.96,14.1521 L130.956,14.1544 L131.147,14.448 Z M129.755,16.056 L130.069,16.2096 L129.755,16.056 Z M129.755,20.712 L130.069,20.5584 L129.755,20.712 Z M131.147,22.32 L130.956,22.6137 L130.96,22.6159 L131.147,22.32 Z M133.163,12.734 C134.176,12.734 135.073,12.9753 135.862,13.4516 L136.224,12.8524 C135.317,12.3047 134.293,12.034 133.163,12.034 L133.163,12.734 Z M135.862,13.4516 C136.653,13.9293 137.274,14.593 137.725,15.451 L138.345,15.125 C137.836,14.159 137.129,13.3987 136.224,12.8524 L135.862,13.4516 Z M137.725,15.451 C138.175,16.3064 138.405,17.2891 138.405,18.408 L139.105,18.408 C139.105,17.1909 138.854,16.0936 138.345,15.125 L137.725,15.451 Z M138.405,18.408 C138.405,19.51 138.176,20.4849 137.725,21.341 L138.345,21.667 C138.854,20.6991 139.105,19.61 139.105,18.408 L138.405,18.408 Z M137.724,21.3431 C137.289,22.1829 136.678,22.8384 135.886,23.3164 L136.248,23.9156 C137.152,23.3696 137.853,22.6171 138.346,21.6649 L137.724,21.3431 Z M135.883,23.3179 C135.112,23.7927 134.225,24.034 133.211,24.034 L133.211,24.734 C134.341,24.734 135.358,24.4633 136.25,23.9141 L135.883,23.3179 Z M133.211,24.034 C132.447,24.034 131.75,23.8698 131.114,23.5444 L130.795,24.1676 C131.536,24.5462 132.343,24.734 133.211,24.734 L133.211,24.034 Z M131.123,23.549 C130.5,23.2078 129.971,22.7326 129.537,22.1179 L128.965,22.5221 C129.458,23.2194 130.066,23.7682 130.787,24.163 L131.123,23.549 Z M128.901,22.32 L128.901,28.8 L129.601,28.8 L129.601,22.32 L128.901,22.32 Z M129.251,28.45 L127.619,28.45 L127.619,29.15 L129.251,29.15 L129.251,28.45 Z M127.969,28.8 L127.969,12.768 L127.269,12.768 L127.269,28.8 L127.969,28.8 Z M127.619,13.118 L129.251,13.118 L129.251,12.418 L127.619,12.418 L127.619,13.118 Z M128.901,12.768 L128.901,14.424 L129.601,14.424 L129.601,12.768 L128.901,12.768 Z M129.534,14.6294 C129.968,14.0313 130.495,13.5719 131.117,13.246 L130.792,12.626 C130.071,13.0041 129.462,13.5367 128.967,14.2186 L129.534,14.6294 Z M131.123,13.243 C131.741,12.9045 132.419,12.734 133.163,12.734 L133.163,12.034 C132.307,12.034 131.513,12.2315 130.787,12.629 L131.123,13.243 Z M133.211,23.246 C134.026,23.246 134.765,23.0369 135.417,22.6136 L135.036,22.0264 C134.505,22.3711 133.9,22.546 133.211,22.546 L133.211,23.246 Z M135.417,22.6136 C136.065,22.1935 136.57,21.6166 136.932,20.8925 L136.306,20.5795 C135.996,21.1994 135.573,21.6785 135.036,22.0264 L135.417,22.6136 Z M136.933,20.8896 C137.296,20.1479 137.473,19.3183 137.473,18.408 L136.773,18.408 C136.773,19.2257 136.614,19.9481 136.304,20.5824 L136.933,20.8896 Z M137.473,18.408 C137.473,17.4827 137.296,16.6449 136.933,15.9024 L136.304,16.2096 C136.614,16.8431 136.773,17.5733 136.773,18.408 L137.473,18.408 Z M136.933,15.9024 C136.572,15.1624 136.067,14.5758 135.417,14.1544 L135.036,14.7416 C135.571,15.0882 135.994,15.5736 136.304,16.2096 L136.933,15.9024 Z M135.417,14.1544 C134.765,13.7311 134.026,13.522 133.211,13.522 L133.211,14.222 C133.9,14.222 134.505,14.3969 135.036,14.7416 L135.417,14.1544 Z M133.211,13.522 C132.381,13.522 131.628,13.7303 130.96,14.1521 L131.334,14.7439 C131.882,14.3977 132.504,14.222 133.211,14.222 L133.211,13.522 Z M130.956,14.1544 C130.307,14.5758 129.802,15.1624 129.44,15.9024 L130.069,16.2096 C130.38,15.5736 130.803,15.0882 131.337,14.7416 L130.956,14.1544 Z M129.44,15.9024 C129.078,16.6441 128.901,17.4736 128.901,18.384 L129.601,18.384 C129.601,17.5663 129.76,16.8439 130.069,16.2096 L129.44,15.9024 Z M128.901,18.384 C128.901,19.2943 129.078,20.1239 129.44,20.8656 L130.069,20.5584 C129.76,19.9241 129.601,19.2017 129.601,18.384 L128.901,18.384 Z M129.44,20.8656 C129.802,21.6056 130.307,22.1922 130.956,22.6136 L131.337,22.0264 C130.803,21.6798 130.38,21.1944 130.069,20.5584 L129.44,20.8656 Z M130.96,22.6159 C131.628,23.0377 132.381,23.246 133.211,23.246 L133.211,22.546 C132.504,22.546 131.882,22.3703 131.334,22.0241 L130.96,22.6159 Z M154.438,12.768 L154.788,12.768 L154.788,12.418 L154.438,12.418 L154.438,12.768 Z M154.438,24 L154.438,24.35 L154.788,24.35 L154.788,24 L154.438,24 Z M152.806,24 L152.456,24 L152.456,24.35 L152.806,24.35 L152.806,24 Z M152.806,22.344 L153.156,22.344 L153.156,21.265 L152.523,22.1386 L152.806,22.344 Z M151.102,23.856 L151.264,24.1661 L151.27,24.163 L151.102,23.856 Z M146.014,23.616 L145.833,23.9156 L146.014,23.616 Z M144.022,21.48 L144.332,21.317 L144.022,21.48 Z M143.998,15.288 L143.688,15.125 L143.687,15.1271 L143.998,15.288 Z M145.966,13.152 L145.785,12.8524 L145.783,12.8539 L145.966,13.152 Z M151.078,12.936 L150.91,13.2431 L150.919,13.2476 L151.078,12.936 Z M152.806,14.448 L152.52,14.6501 L153.156,15.5489 L153.156,14.448 L152.806,14.448 Z M152.806,12.768 L152.806,12.418 L152.456,12.418 L152.456,12.768 L152.806,12.768 Z M150.886,22.32 L150.699,22.0241 L150.695,22.0264 L150.886,22.32 Z M152.302,20.712 L151.987,20.5584 L152.302,20.712 Z M152.302,16.056 L152.616,15.9024 L152.302,16.056 Z M150.886,14.448 L150.695,14.7417 L150.699,14.7439 L150.886,14.448 Z M146.83,14.448 L146.639,14.1544 L146.83,14.448 Z M145.438,16.056 L145.751,16.2125 L145.752,16.2096 L145.438,16.056 Z M145.438,20.712 L145.123,20.8656 L145.438,20.712 Z M146.83,22.32 L146.639,22.6136 L146.83,22.32 Z M154.088,12.768 L154.088,24 L154.788,24 L154.788,12.768 L154.088,12.768 Z M154.438,23.65 L152.806,23.65 L152.806,24.35 L154.438,24.35 L154.438,23.65 Z M153.156,24 L153.156,22.344 L152.456,22.344 L152.456,24 L153.156,24 Z M152.523,22.1386 C152.088,22.738 151.559,23.2067 150.934,23.549 L151.27,24.163 C151.989,23.7693 152.596,23.23 153.089,22.5494 L152.523,22.1386 Z M150.94,23.546 C150.32,23.8703 149.641,24.034 148.894,24.034 L148.894,24.734 C149.747,24.734 150.539,24.5457 151.264,24.166 L150.94,23.546 Z M148.894,24.034 C147.88,24.034 146.984,23.7927 146.195,23.3164 L145.833,23.9156 C146.74,24.4633 147.764,24.734 148.894,24.734 L148.894,24.034 Z M146.195,23.3164 C145.404,22.8387 144.783,22.175 144.332,21.317 L143.712,21.643 C144.221,22.609 144.928,23.3693 145.833,23.9156 L146.195,23.3164 Z M144.332,21.317 C143.881,20.4616 143.652,19.4789 143.652,18.36 L142.952,18.36 C142.952,19.5771 143.202,20.6744 143.712,21.643 L144.332,21.317 Z M143.652,18.36 C143.652,17.256 143.874,16.2886 144.309,15.4489 L143.687,15.1271 C143.194,16.0794 142.952,17.16 142.952,18.36 L143.652,18.36 Z M144.308,15.451 C144.76,14.5914 145.374,13.9274 146.149,13.4501 L145.783,12.8539 C144.894,13.4006 144.196,14.1606 143.688,15.125 L144.308,15.451 Z M146.147,13.4516 C146.936,12.9753 147.832,12.734 148.846,12.734 L148.846,12.034 C147.716,12.034 146.692,12.3047 145.785,12.8524 L146.147,13.4516 Z M148.846,12.734 C149.607,12.734 150.293,12.905 150.91,13.243 L151.246,12.629 C150.519,12.231 149.717,12.034 148.846,12.034 L148.846,12.734 Z M150.919,13.2476 C151.554,13.5728 152.087,14.0384 152.52,14.6501 L153.092,14.2459 C152.596,13.5456 151.978,13.0032 151.237,12.6244 L150.919,13.2476 Z M153.156,14.448 L153.156,12.768 L152.456,12.768 L152.456,14.448 L153.156,14.448 Z M152.806,13.118 L154.438,13.118 L154.438,12.418 L152.806,12.418 L152.806,13.118 Z M148.846,23.246 C149.675,23.246 150.423,23.0377 151.076,22.6136 L150.695,22.0264 C150.165,22.3703 149.553,22.546 148.846,22.546 L148.846,23.246 Z M151.073,22.6159 C151.739,22.195 152.254,21.608 152.616,20.8656 L151.987,20.5584 C151.678,21.192 151.249,21.677 150.699,22.0241 L151.073,22.6159 Z M152.616,20.8656 C152.979,20.1239 153.156,19.2943 153.156,18.384 L152.456,18.384 C152.456,19.2017 152.297,19.9241 151.987,20.5584 L152.616,20.8656 Z M153.156,18.384 C153.156,17.4736 152.979,16.6441 152.616,15.9024 L151.987,16.2096 C152.297,16.8439 152.456,17.5663 152.456,18.384 L153.156,18.384 Z M152.616,15.9024 C152.254,15.16 151.739,14.573 151.073,14.1521 L150.699,14.7439 C151.249,15.091 151.678,15.576 151.987,16.2096 L152.616,15.9024 Z M151.076,14.1544 C150.423,13.7303 149.675,13.522 148.846,13.522 L148.846,14.222 C149.553,14.222 150.165,14.3977 150.695,14.7416 L151.076,14.1544 Z M148.846,13.522 C148.031,13.522 147.292,13.7311 146.639,14.1544 L147.02,14.7416 C147.552,14.3969 148.157,14.222 148.846,14.222 L148.846,13.522 Z M146.639,14.1544 C145.99,14.5758 145.485,15.1624 145.123,15.9024 L145.752,16.2096 C146.063,15.5736 146.486,15.0882 147.02,14.7416 L146.639,14.1544 Z M145.125,15.8995 C144.761,16.6269 144.584,17.4498 144.584,18.36 L145.284,18.36 C145.284,17.5422 145.443,16.8291 145.751,16.2125 L145.125,15.8995 Z M144.584,18.36 C144.584,19.2853 144.761,20.1231 145.123,20.8656 L145.752,20.5584 C145.443,19.9249 145.284,19.1947 145.284,18.36 L144.584,18.36 Z M145.123,20.8656 C145.485,21.6056 145.99,22.1922 146.639,22.6136 L147.02,22.0264 C146.486,21.6798 146.063,21.1944 145.752,20.5584 L145.123,20.8656 Z M146.639,22.6136 C147.292,23.0369 148.031,23.246 148.846,23.246 L148.846,22.546 C148.157,22.546 147.552,22.3711 147.02,22.0264 L146.639,22.6136 Z M162.369,23.616 L162.55,23.3164 L162.369,23.616 Z M160.377,21.48 L160.687,21.317 L160.377,21.48 Z M160.353,15.288 L160.043,15.125 L160.041,15.1293 L160.353,15.288 Z M167.601,12.984 L167.422,13.2849 L167.43,13.2896 L167.601,12.984 Z M169.473,14.64 L169.688,14.916 L169.964,14.701 L169.749,14.4251 L169.473,14.64 Z M168.273,15.576 L167.985,15.7748 L168.196,16.0802 L168.488,15.852 L168.273,15.576 Z M163.185,14.448 L162.998,14.1521 L162.995,14.1544 L163.185,14.448 Z M161.793,16.056 L161.479,15.9024 L161.793,16.056 Z M161.793,20.712 L162.108,20.5584 L161.793,20.712 Z M163.185,22.32 L162.995,22.6137 L162.998,22.6159 L163.185,22.32 Z M167.121,22.512 L167.282,22.8231 L167.289,22.8189 L167.121,22.512 Z M168.465,21.336 L168.665,21.049 L168.393,20.8592 L168.189,21.1205 L168.465,21.336 Z M169.737,22.224 L170.01,22.4435 L170.245,22.1515 L169.937,21.937 L169.737,22.224 Z M167.769,23.808 L167.926,24.1211 L167.928,24.1198 L167.769,23.808 Z M165.273,24.034 C164.242,24.034 163.338,23.7922 162.55,23.3164 L162.188,23.9156 C163.096,24.4638 164.128,24.734 165.273,24.734 L165.273,24.034 Z M162.55,23.3164 C161.759,22.8387 161.138,22.175 160.687,21.317 L160.067,21.643 C160.576,22.609 161.283,23.3693 162.188,23.9156 L162.55,23.3164 Z M160.687,21.317 C160.236,20.4609 160.007,19.486 160.007,18.384 L159.307,18.384 C159.307,19.586 159.558,20.6751 160.067,21.643 L160.687,21.317 Z M160.007,18.384 C160.007,17.2802 160.229,16.3037 160.665,15.4467 L160.041,15.1293 C159.549,16.0963 159.307,17.1838 159.307,18.384 L160.007,18.384 Z M160.663,15.451 C161.114,14.593 161.735,13.9293 162.526,13.4516 L162.164,12.8524 C161.259,13.3987 160.552,14.159 160.043,15.125 L160.663,15.451 Z M162.526,13.4516 C163.315,12.9753 164.211,12.734 165.225,12.734 L165.225,12.034 C164.095,12.034 163.071,12.3047 162.164,12.8524 L162.526,13.4516 Z M165.225,12.734 C166.085,12.734 166.813,12.922 167.422,13.2848 L167.78,12.6832 C167.045,12.246 166.189,12.034 165.225,12.034 L165.225,12.734 Z M167.43,13.2896 C168.072,13.6474 168.661,14.1661 169.197,14.8549 L169.749,14.4251 C169.165,13.6739 168.507,13.0886 167.772,12.6784 L167.43,13.2896 Z M169.258,14.364 L168.058,15.3 L168.488,15.852 L169.688,14.916 L169.258,14.364 Z M168.561,15.3772 C167.72,14.1583 166.602,13.522 165.225,13.522 L165.225,14.222 C166.344,14.222 167.258,14.7217 167.985,15.7748 L168.561,15.3772 Z M165.225,13.522 C164.41,13.522 163.665,13.7311 162.998,14.1521 L163.372,14.7439 C163.921,14.3969 164.536,14.222 165.225,14.222 L165.225,13.522 Z M162.995,14.1544 C162.345,14.5758 161.84,15.1624 161.479,15.9024 L162.108,16.2096 C162.418,15.5736 162.841,15.0882 163.376,14.7416 L162.995,14.1544 Z M161.479,15.9024 C161.116,16.6441 160.939,17.4736 160.939,18.384 L161.639,18.384 C161.639,17.5663 161.798,16.8439 162.108,16.2096 L161.479,15.9024 Z M160.939,18.384 C160.939,19.2943 161.116,20.1239 161.479,20.8656 L162.108,20.5584 C161.798,19.9241 161.639,19.2017 161.639,18.384 L160.939,18.384 Z M161.479,20.8656 C161.84,21.6056 162.345,22.1922 162.995,22.6136 L163.376,22.0264 C162.841,21.6798 162.418,21.1944 162.108,20.5584 L161.479,20.8656 Z M162.998,22.6159 C163.665,23.0369 164.41,23.246 165.225,23.246 L165.225,22.546 C164.536,22.546 163.921,22.3711 163.372,22.0241 L162.998,22.6159 Z M165.225,23.246 C166.029,23.246 166.721,23.1124 167.282,22.823 L166.961,22.201 C166.529,22.4236 165.957,22.546 165.225,22.546 L165.225,23.246 Z M167.289,22.8189 C167.833,22.5209 168.316,22.0954 168.741,21.5515 L168.189,21.1205 C167.814,21.6006 167.401,21.9591 166.953,22.2051 L167.289,22.8189 Z M168.265,21.623 L169.537,22.511 L169.937,21.937 L168.665,21.049 L168.265,21.623 Z M169.464,22.0045 C168.969,22.6204 168.352,23.1176 167.61,23.4962 L167.928,24.1198 C168.754,23.6984 169.449,23.1396 170.01,22.4435 L169.464,22.0045 Z M167.613,23.495 C166.895,23.8536 166.117,24.034 165.273,24.034 L165.273,24.734 C166.221,24.734 167.107,24.5304 167.926,24.121 L167.613,23.495 Z M182.373,13.128 L182.191,13.4271 L182.373,13.128 Z M184.293,15.168 L183.984,15.3336 L183.986,15.336 L184.293,15.168 Z M184.965,18.72 L184.965,19.07 L185.281,19.07 L185.313,18.7548 L184.965,18.72 Z M175.725,18.72 L175.725,18.37 L175.355,18.37 L175.375,18.7394 L175.725,18.72 Z M182.037,22.368 L182.209,22.6729 L182.211,22.6714 L182.037,22.368 Z M183.573,20.856 L183.767,20.5648 L183.461,20.3612 L183.272,20.6759 L183.573,20.856 Z M184.869,21.72 L185.164,21.9075 L185.347,21.6186 L185.063,21.4288 L184.869,21.72 Z M182.781,23.688 L182.946,23.9964 L182.951,23.994 L182.781,23.688 Z M176.805,23.616 L176.624,23.9156 L176.805,23.616 Z M174.813,21.48 L175.122,21.317 L174.813,21.48 Z M174.789,15.288 L174.479,15.125 L174.477,15.1293 L174.789,15.288 Z M176.757,13.152 L176.576,12.8524 L176.573,12.8539 L176.757,13.152 Z M183.357,17.376 L183.357,17.726 L183.758,17.726 L183.703,17.3285 L183.357,17.376 Z M182.181,14.76 L181.94,15.0139 L181.943,15.0172 L182.181,14.76 Z M177.069,14.88 L176.821,14.6325 L177.069,14.88 Z M175.821,17.376 L175.476,17.3158 L175.404,17.726 L175.821,17.726 L175.821,17.376 Z M179.637,12.734 C180.584,12.734 181.433,12.9663 182.191,13.4271 L182.554,12.8289 C181.68,12.2977 180.705,12.034 179.637,12.034 L179.637,12.734 Z M182.191,13.4271 C182.952,13.8898 183.549,14.523 183.984,15.3336 L184.601,15.0024 C184.108,14.085 183.425,13.3582 182.554,12.8289 L182.191,13.4271 Z M183.986,15.336 C184.419,16.1278 184.639,17.0212 184.639,18.024 L185.339,18.024 C185.339,16.9148 185.094,15.9042 184.6,15 L183.986,15.336 Z M184.639,18.024 C184.639,18.3247 184.631,18.5428 184.616,18.6852 L185.313,18.7548 C185.331,18.5772 185.339,18.3313 185.339,18.024 L184.639,18.024 Z M184.965,18.37 L175.725,18.37 L175.725,19.07 L184.965,19.07 L184.965,18.37 Z M175.375,18.7394 C175.443,19.9607 175.844,21.0188 176.585,21.8976 L177.12,21.4464 C176.485,20.6932 176.134,19.7833 176.074,18.7006 L175.375,18.7394 Z M176.585,21.8976 C177.347,22.8017 178.386,23.246 179.661,23.246 L179.661,22.546 C178.567,22.546 177.734,22.1743 177.12,21.4464 L176.585,21.8976 Z M179.661,23.246 C180.661,23.246 181.517,23.0628 182.209,22.6728 L181.865,22.0632 C181.308,22.3772 180.58,22.546 179.661,22.546 L179.661,23.246 Z M182.211,22.6714 C182.903,22.2733 183.458,21.7266 183.873,21.0361 L183.272,20.6759 C182.919,21.2654 182.45,21.7267 181.862,22.0646 L182.211,22.6714 Z M183.378,21.1472 L184.674,22.0112 L185.063,21.4288 L183.767,20.5648 L183.378,21.1472 Z M184.573,21.5325 C184.076,22.315 183.424,22.9303 182.611,23.382 L182.951,23.994 C183.865,23.4857 184.605,22.789 185.164,21.9075 L184.573,21.5325 Z M182.615,23.3797 C181.811,23.8112 180.847,24.034 179.709,24.034 L179.709,24.734 C180.938,24.734 182.022,24.4928 182.946,23.9963 L182.615,23.3797 Z M179.709,24.034 C178.678,24.034 177.774,23.7922 176.985,23.3164 L176.624,23.9156 C177.532,24.4638 178.563,24.734 179.709,24.734 L179.709,24.034 Z M176.985,23.3164 C176.194,22.8387 175.574,22.175 175.122,21.317 L174.503,21.643 C175.011,22.609 175.719,23.3693 176.624,23.9156 L176.985,23.3164 Z M175.122,21.317 C174.672,20.4609 174.443,19.486 174.443,18.384 L173.743,18.384 C173.743,19.586 173.993,20.6751 174.503,21.643 L175.122,21.317 Z M174.443,18.384 C174.443,17.2802 174.665,16.3037 175.101,15.4467 L174.477,15.1293 C173.985,16.0963 173.743,17.1838 173.743,18.384 L174.443,18.384 Z M175.098,15.451 C175.551,14.5914 176.164,13.9274 176.94,13.4501 L176.573,12.8539 C175.685,13.4006 174.986,14.1606 174.479,15.125 L175.098,15.451 Z M176.937,13.4516 C177.726,12.9753 178.623,12.734 179.637,12.734 L179.637,12.034 C178.506,12.034 177.483,12.3047 176.576,12.8524 L176.937,13.4516 Z M183.703,17.3285 C183.537,16.111 183.121,15.1519 182.418,14.5028 L181.943,15.0172 C182.488,15.5201 182.857,16.305 183.01,17.4235 L183.703,17.3285 Z M182.421,14.5061 C181.717,13.8381 180.775,13.522 179.637,13.522 L179.637,14.222 C180.642,14.222 181.396,14.4979 181.94,15.0139 L182.421,14.5061 Z M179.637,13.522 C178.513,13.522 177.565,13.8884 176.821,14.6325 L177.316,15.1275 C177.916,14.5276 178.68,14.222 179.637,14.222 L179.637,13.522 Z M176.821,14.6325 C176.109,15.3447 175.663,16.2445 175.476,17.3158 L176.165,17.4362 C176.33,16.4915 176.716,15.7273 177.316,15.1275 L176.821,14.6325 Z M175.821,17.726 L183.357,17.726 L183.357,17.026 L175.821,17.026 L175.821,17.726 Z M199.876,24 L199.591,24.2033 L199.696,24.35 L199.876,24.35 L199.876,24 Z M194.26,16.128 L194.545,15.9247 L194.284,15.5585 L193.993,15.9018 L194.26,16.128 Z M192.532,18.168 L192.265,17.9418 L192.182,18.0397 L192.182,18.168 L192.532,18.168 Z M192.532,24 L192.532,24.35 L192.882,24.35 L192.882,24 L192.532,24 Z M190.732,24 L190.382,24 L190.382,24.35 L190.732,24.35 L190.732,24 Z M190.732,7.632 L190.732,7.282 L190.382,7.282 L190.382,7.632 L190.732,7.632 Z M192.532,7.632 L192.882,7.632 L192.882,7.282 L192.532,7.282 L192.532,7.632 Z M192.532,15.912 L192.182,15.912 L192.182,16.8774 L192.801,16.1363 L192.532,15.912 Z M199.444,7.632 L199.444,7.282 L199.28,7.282 L199.175,7.4077 L199.444,7.632 Z M201.436,7.632 L201.703,7.8578 L202.19,7.282 L201.436,7.282 L201.436,7.632 Z M195.316,14.88 L195.049,14.6542 L194.872,14.8634 L195.032,15.0852 L195.316,14.88 Z M201.916,24 L201.916,24.35 L202.601,24.35 L202.199,23.7948 L201.916,24 Z M200.161,23.7967 L194.545,15.9247 L193.975,16.3313 L199.591,24.2033 L200.161,23.7967 Z M193.993,15.9018 L192.265,17.9418 L192.799,18.3942 L194.527,16.3542 L193.993,15.9018 Z M192.182,18.168 L192.182,24 L192.882,24 L192.882,18.168 L192.182,18.168 Z M192.532,23.65 L190.732,23.65 L190.732,24.35 L192.532,24.35 L192.532,23.65 Z M191.082,24 L191.082,7.632 L190.382,7.632 L190.382,24 L191.082,24 Z M190.732,7.982 L192.532,7.982 L192.532,7.282 L190.732,7.282 L190.732,7.982 Z M192.182,7.632 L192.182,15.912 L192.882,15.912 L192.882,7.632 L192.182,7.632 Z M192.801,16.1363 L199.713,7.85629 L199.175,7.4077 L192.263,15.6877 L192.801,16.1363 Z M199.444,7.982 L201.436,7.982 L201.436,7.282 L199.444,7.282 L199.444,7.982 Z M201.169,7.4062 L195.049,14.6542 L195.583,15.1058 L201.703,7.8578 L201.169,7.4062 Z M195.032,15.0852 L201.632,24.2052 L202.199,23.7948 L195.599,14.6748 L195.032,15.0852 Z M201.916,23.65 L199.876,23.65 L199.876,24.35 L201.916,24.35 L201.916,23.65 Z M207.264,24 L206.914,24 L206.914,24.35 L207.264,24.35 L207.264,24 Z M207.264,12.768 L207.264,12.418 L206.914,12.418 L206.914,12.768 L207.264,12.768 Z M208.896,12.768 L209.246,12.768 L209.246,12.418 L208.896,12.418 L208.896,12.768 Z M208.896,24 L208.896,24.35 L209.246,24.35 L209.246,24 L208.896,24 Z M207.144,10.2 L206.889,10.4395 L206.897,10.4475 L207.144,10.2 Z M207.144,8.376 L207.392,8.62349 L207.144,8.376 Z M208.992,8.376 L208.744,8.62362 L208.753,8.63134 L208.992,8.376 Z M208.992,10.2 L208.745,9.9525 L208.745,9.9525 L208.992,10.2 Z M207.614,24 L207.614,12.768 L206.914,12.768 L206.914,24 L207.614,24 Z M207.264,13.118 L208.896,13.118 L208.896,12.418 L207.264,12.418 L207.264,13.118 Z M208.546,12.768 L208.546,24 L209.246,24 L209.246,12.768 L208.546,12.768 Z M208.896,23.65 L207.264,23.65 L207.264,24.35 L208.896,24.35 L208.896,23.65 Z M208.08,10.234 C207.803,10.234 207.581,10.1417 207.392,9.9525 L206.897,10.4475 C207.219,10.7703 207.621,10.934 208.08,10.934 L208.08,10.234 Z M207.399,9.9606 C207.223,9.7729 207.134,9.5479 207.134,9.264 L206.434,9.264 C206.434,9.7161 206.585,10.1151 206.889,10.4394 L207.399,9.9606 Z M207.134,9.264 C207.134,9.001 207.22,8.79518 207.392,8.62349 L206.897,8.12851 C206.588,8.43682 206.434,8.82302 206.434,9.264 L207.134,9.264 Z M207.392,8.62349 C207.581,8.43433 207.803,8.342 208.08,8.342 L208.08,7.642 C207.621,7.642 207.219,7.80567 206.897,8.12851 L207.392,8.62349 Z M208.08,8.342 C208.336,8.342 208.552,8.43103 208.745,8.62349 L209.24,8.12851 C208.92,7.80897 208.528,7.642 208.08,7.642 L208.08,8.342 Z M208.753,8.63134 C208.934,8.80163 209.026,9.0114 209.026,9.288 L209.726,9.288 C209.726,8.82856 209.562,8.43037 209.231,8.12066 L208.753,8.63134 Z M209.026,9.288 C209.026,9.5443 208.937,9.7601 208.745,9.9525 L209.24,10.4475 C209.559,10.1279 209.726,9.7357 209.726,9.288 L209.026,9.288 Z M208.745,9.9525 C208.552,10.145 208.336,10.234 208.08,10.234 L208.08,10.934 C208.528,10.934 208.92,10.767 209.24,10.4475 L208.745,9.9525 Z M216.348,24 L215.998,24 L215.998,24.35 L216.348,24.35 L216.348,24 Z M216.348,14.256 L216.698,14.256 L216.698,13.906 L216.348,13.906 L216.348,14.256 Z M214.428,14.256 L214.078,14.256 L214.078,14.606 L214.428,14.606 L214.428,14.256 Z M214.428,12.768 L214.428,12.418 L214.078,12.418 L214.078,12.768 L214.428,12.768 Z M216.348,12.768 L216.348,13.118 L216.698,13.118 L216.698,12.768 L216.348,12.768 Z M216.348,9.048 L216.348,8.698 L215.998,8.698 L215.998,9.048 L216.348,9.048 Z M217.98,9.048 L218.33,9.048 L218.33,8.698 L217.98,8.698 L217.98,9.048 Z M217.98,12.768 L217.63,12.768 L217.63,13.118 L217.98,13.118 L217.98,12.768 Z M220.572,12.768 L220.922,12.768 L220.922,12.418 L220.572,12.418 L220.572,12.768 Z M220.572,14.256 L220.572,14.606 L220.922,14.606 L220.922,14.256 L220.572,14.256 Z M217.98,14.256 L217.98,13.906 L217.63,13.906 L217.63,14.256 L217.98,14.256 Z M217.98,24 L217.98,24.35 L218.33,24.35 L218.33,24 L217.98,24 Z M216.698,24 L216.698,14.256 L215.998,14.256 L215.998,24 L216.698,24 Z M216.348,13.906 L214.428,13.906 L214.428,14.606 L216.348,14.606 L216.348,13.906 Z M214.778,14.256 L214.778,12.768 L214.078,12.768 L214.078,14.256 L214.778,14.256 Z M214.428,13.118 L216.348,13.118 L216.348,12.418 L214.428,12.418 L214.428,13.118 Z M216.698,12.768 L216.698,9.048 L215.998,9.048 L215.998,12.768 L216.698,12.768 Z M216.348,9.398 L217.98,9.398 L217.98,8.698 L216.348,8.698 L216.348,9.398 Z M217.63,9.048 L217.63,12.768 L218.33,12.768 L218.33,9.048 L217.63,9.048 Z M217.98,13.118 L220.572,13.118 L220.572,12.418 L217.98,12.418 L217.98,13.118 Z M220.222,12.768 L220.222,14.256 L220.922,14.256 L220.922,12.768 L220.222,12.768 Z M220.572,13.906 L217.98,13.906 L217.98,14.606 L220.572,14.606 L220.572,13.906 Z M217.63,14.256 L217.63,24 L218.33,24 L218.33,14.256 L217.63,14.256 Z M217.98,23.65 L216.348,23.65 L216.348,24.35 L217.98,24.35 L217.98,23.65 Z" id="Shape" fill-rule="nonzero"></path>
            <path d="M79.7172,23.5302 C79.6693,23.5418 73.3591,25.5502 74.0533,37.934 L74.7786,37.934 C74.7786,37.934 76.8796,29.0842 80.7357,29.1635 C80.7097,29.1086 79.9493,25.0018 79.7172,23.5302 Z M81.545,32.1506 C74.1879,4.46926 87.3557,0.98068 87.3557,0.98068 C101.169,6.43851 93.2874,32.1506 93.2874,32.1506 L81.545,32.1506 Z M112.049,37.9751 L99.094,22.683 L95.1858,22.683 L95.4278,20.314 L95.5264,18.3702 L101.271,18.3702 L114.832,34.077 L119.745,34.0104 L119.809,37.9751 L112.049,37.9751 Z M95.1138,23.4678 C95.2414,23.4184 101.512,25.5409 100.826,37.975 L100.109,37.975 C100.109,37.975 97.8168,29.3094 94.0059,29.389 C94.0059,29.389 94.8844,24.9454 95.1138,23.4678 Z M90.9615,12.0174 C90.9615,9.9934 89.2913,8.35268 87.2308,8.35268 C85.1704,8.35268 83.5003,9.9934 83.5003,12.0174 C83.5003,14.0414 85.1704,15.6822 87.2308,15.6822 C89.2913,15.6822 90.9615,14.0414 90.9615,12.0174 Z" id="Shape"></path>
            <rect id="Rectangle" fill-rule="nonzero" x="52" y="55" width="192" height="1" rx="0.5"></rect>
            <path d="M9.7171,92 L8.4571,88.562 L3.36306,88.562 L2.22906,92 L0.87906,92 L5.23506,79.724 L6.49506,79.724 L10.9771,92 L9.7171,92 Z M3.77706,87.446 L8.0431,87.446 L5.84706,81.488 L3.77706,87.446 Z M22.1082,92.288 C21.2922,92.288 20.5662,92.096 19.9302,91.712 C19.2942,91.328 18.7962,90.794 18.4362,90.11 C18.0762,89.426 17.8962,88.652 17.8962,87.788 C17.8962,86.924 18.0702,86.15 18.4182,85.466 C18.7782,84.782 19.2762,84.248 19.9122,83.864 C20.5482,83.48 21.2682,83.288 22.0722,83.288 C22.7562,83.288 23.3502,83.438 23.8542,83.738 C24.3702,84.026 24.8382,84.44 25.2582,84.98 L24.3582,85.682 C23.7702,84.83 23.0082,84.404 22.0722,84.404 C21.5082,84.404 20.9982,84.548 20.5422,84.836 C20.0982,85.124 19.7502,85.526 19.4982,86.042 C19.2462,86.558 19.1202,87.14 19.1202,87.788 C19.1202,88.436 19.2462,89.018 19.4982,89.534 C19.7502,90.05 20.0982,90.452 20.5422,90.74 C20.9982,91.028 21.5082,91.172 22.0722,91.172 C22.6482,91.172 23.1222,91.076 23.4942,90.884 C23.8662,90.68 24.2022,90.386 24.5022,90.002 L25.4562,90.668 C25.0602,91.16 24.5682,91.556 23.9802,91.856 C23.4042,92.144 22.7802,92.288 22.1082,92.288 Z M28.1823,92 L28.1823,78.932 L29.4063,78.932 L29.4063,92 L28.1823,92 Z M36.4805,92.288 C35.6765,92.288 34.9565,92.096 34.3205,91.712 C33.6845,91.328 33.1865,90.794 32.8265,90.11 C32.4665,89.414 32.2865,88.634 32.2865,87.77 C32.2865,86.906 32.4605,86.138 32.8085,85.466 C33.1685,84.782 33.6605,84.248 34.2845,83.864 C34.9205,83.48 35.6405,83.288 36.4445,83.288 C37.2485,83.288 37.9685,83.48 38.6045,83.864 C39.2405,84.248 39.7385,84.782 40.0985,85.466 C40.4585,86.15 40.6385,86.924 40.6385,87.788 C40.6385,88.652 40.4585,89.426 40.0985,90.11 C39.7505,90.794 39.2585,91.328 38.6225,91.712 C37.9985,92.096 37.2845,92.288 36.4805,92.288 Z M36.4445,91.172 C37.0205,91.172 37.5305,91.028 37.9745,90.74 C38.4305,90.452 38.7845,90.05 39.0365,89.534 C39.2885,89.018 39.4145,88.436 39.4145,87.788 C39.4145,87.14 39.2885,86.558 39.0365,86.042 C38.7845,85.526 38.4305,85.124 37.9745,84.836 C37.5305,84.548 37.0205,84.404 36.4445,84.404 C35.8805,84.404 35.3765,84.548 34.9325,84.836 C34.4885,85.124 34.1405,85.526 33.8885,86.042 C33.6365,86.546 33.5105,87.122 33.5105,87.77 C33.5105,88.43 33.6365,89.018 33.8885,89.534 C34.1405,90.05 34.4885,90.452 34.9325,90.74 C35.3765,91.028 35.8805,91.172 36.4445,91.172 Z M50.829,83.576 L50.829,92 L49.605,92 L49.605,90.596 C49.317,91.136 48.933,91.556 48.453,91.856 C47.985,92.144 47.439,92.288 46.815,92.288 C46.227,92.288 45.681,92.168 45.177,91.928 C44.685,91.688 44.289,91.334 43.989,90.866 C43.701,90.398 43.557,89.846 43.557,89.21 L43.557,83.576 L44.781,83.576 L44.781,88.67 C44.781,90.338 45.525,91.172 47.013,91.172 C47.877,91.172 48.525,90.866 48.957,90.254 C49.389,89.642 49.605,88.82 49.605,87.788 L49.605,83.576 L50.829,83.576 Z M61.989,78.932 L61.989,92 L60.765,92 L60.765,90.758 C60.417,91.238 59.991,91.616 59.487,91.892 C58.983,92.156 58.431,92.288 57.831,92.288 C57.027,92.288 56.307,92.096 55.671,91.712 C55.035,91.328 54.537,90.794 54.177,90.11 C53.817,89.426 53.637,88.646 53.637,87.77 C53.637,86.906 53.811,86.138 54.159,85.466 C54.519,84.782 55.011,84.248 55.635,83.864 C56.271,83.48 56.991,83.288 57.795,83.288 C58.407,83.288 58.965,83.426 59.469,83.702 C59.985,83.966 60.417,84.344 60.765,84.836 L60.765,78.932 L61.989,78.932 Z M57.795,91.172 C58.371,91.172 58.881,91.028 59.325,90.74 C59.781,90.452 60.135,90.05 60.387,89.534 C60.639,89.018 60.765,88.436 60.765,87.788 C60.765,87.14 60.639,86.558 60.387,86.042 C60.135,85.526 59.781,85.124 59.325,84.836 C58.881,84.548 58.371,84.404 57.795,84.404 C57.231,84.404 56.727,84.548 56.283,84.836 C55.839,85.124 55.491,85.526 55.239,86.042 C54.987,86.546 54.861,87.122 54.861,87.77 C54.861,88.43 54.987,89.018 55.239,89.534 C55.491,90.05 55.839,90.452 56.283,90.74 C56.727,91.028 57.231,91.172 57.795,91.172 Z M73.3467,92.288 C72.5307,92.288 71.8107,92.114 71.1867,91.766 C70.5747,91.418 70.1067,90.926 69.7827,90.29 L70.8807,89.75 C71.3247,90.698 72.1947,91.172 73.4907,91.172 C74.1147,91.172 74.6307,91.058 75.0387,90.83 C75.4467,90.602 75.6507,90.248 75.6507,89.768 C75.6507,89.276 75.4827,88.91 75.1467,88.67 C74.8227,88.43 74.2467,88.274 73.4187,88.202 C72.2667,88.106 71.4387,87.848 70.9347,87.428 C70.4427,87.008 70.1967,86.45 70.1967,85.754 C70.1967,84.974 70.4787,84.368 71.0427,83.936 C71.6067,83.504 72.3807,83.288 73.3647,83.288 C75.0327,83.288 76.1667,83.948 76.7667,85.268 L75.6687,85.808 C75.4647,85.328 75.1647,84.974 74.7687,84.746 C74.3847,84.518 73.8867,84.404 73.2747,84.404 C72.6507,84.404 72.1707,84.518 71.8347,84.746 C71.5107,84.974 71.3487,85.298 71.3487,85.718 C71.3487,86.114 71.5227,86.438 71.8707,86.69 C72.2307,86.93 72.8427,87.086 73.7067,87.158 C74.7747,87.254 75.5667,87.518 76.0827,87.95 C76.6107,88.37 76.8747,88.928 76.8747,89.624 C76.8747,90.188 76.7127,90.674 76.3887,91.082 C76.0647,91.478 75.6327,91.778 75.0927,91.982 C74.5527,92.186 73.9707,92.288 73.3467,92.288 Z M80.2363,92 L80.2363,84.692 L78.7963,84.692 L78.7963,83.576 L80.2363,83.576 L80.2363,80.786 L81.4603,80.786 L81.4603,83.576 L83.4043,83.576 L83.4043,84.692 L81.4603,84.692 L81.4603,92 L80.2363,92 Z M89.4753,92.288 C88.6713,92.288 87.9513,92.096 87.3153,91.712 C86.6793,91.328 86.1813,90.794 85.8213,90.11 C85.4613,89.414 85.2813,88.634 85.2813,87.77 C85.2813,86.906 85.4553,86.138 85.8033,85.466 C86.1633,84.782 86.6553,84.248 87.2793,83.864 C87.9153,83.48 88.6353,83.288 89.4393,83.288 C90.2433,83.288 90.9633,83.48 91.5993,83.864 C92.2353,84.248 92.7333,84.782 93.0933,85.466 C93.4533,86.15 93.6333,86.924 93.6333,87.788 C93.6333,88.652 93.4533,89.426 93.0933,90.11 C92.7453,90.794 92.2533,91.328 91.6173,91.712 C90.9933,92.096 90.2793,92.288 89.4753,92.288 Z M89.4393,91.172 C90.0153,91.172 90.5253,91.028 90.9693,90.74 C91.4253,90.452 91.7793,90.05 92.0313,89.534 C92.2833,89.018 92.4093,88.436 92.4093,87.788 C92.4093,87.14 92.2833,86.558 92.0313,86.042 C91.7793,85.526 91.4253,85.124 90.9693,84.836 C90.5253,84.548 90.0153,84.404 89.4393,84.404 C88.8753,84.404 88.3713,84.548 87.9273,84.836 C87.4833,85.124 87.1353,85.526 86.8833,86.042 C86.6313,86.546 86.5053,87.122 86.5053,87.77 C86.5053,88.43 86.6313,89.018 86.8833,89.534 C87.1353,90.05 87.4833,90.452 87.9273,90.74 C88.3713,91.028 88.8753,91.172 89.4393,91.172 Z M100.566,83.288 C100.854,83.288 101.13,83.33 101.394,83.414 L101.394,84.53 C101.142,84.41 100.866,84.35 100.566,84.35 C100.05,84.35 99.57,84.494 99.126,84.782 C98.682,85.07 98.322,85.49 98.046,86.042 C97.7818,86.582 97.6498,87.224 97.6498,87.968 L97.6498,92 L96.4258,92 L96.4258,83.576 L97.6498,83.576 L97.6498,85.268 C97.9738,84.644 98.382,84.158 98.874,83.81 C99.378,83.462 99.942,83.288 100.566,83.288 Z M111.415,83.576 L111.415,92 L110.191,92 L110.191,90.758 C109.843,91.238 109.417,91.616 108.913,91.892 C108.409,92.156 107.857,92.288 107.257,92.288 C106.453,92.288 105.733,92.096 105.097,91.712 C104.461,91.328 103.963,90.794 103.603,90.11 C103.243,89.426 103.063,88.646 103.063,87.77 C103.063,86.906 103.237,86.138 103.585,85.466 C103.945,84.782 104.437,84.248 105.061,83.864 C105.697,83.48 106.417,83.288 107.221,83.288 C107.833,83.288 108.391,83.426 108.895,83.702 C109.411,83.966 109.843,84.344 110.191,84.836 L110.191,83.576 L111.415,83.576 Z M107.221,91.172 C107.797,91.172 108.307,91.028 108.751,90.74 C109.207,90.452 109.561,90.05 109.813,89.534 C110.065,89.018 110.191,88.436 110.191,87.788 C110.191,87.14 110.065,86.558 109.813,86.042 C109.561,85.526 109.207,85.124 108.751,84.836 C108.307,84.548 107.797,84.404 107.221,84.404 C106.657,84.404 106.153,84.548 105.709,84.836 C105.265,85.124 104.917,85.526 104.665,86.042 C104.413,86.546 104.287,87.122 104.287,87.77 C104.287,88.43 104.413,89.018 104.665,89.534 C104.917,90.05 105.265,90.452 105.709,90.74 C106.153,91.028 106.657,91.172 107.221,91.172 Z M122.565,83.576 L122.565,91.676 C122.565,92.432 122.409,93.104 122.097,93.692 C121.785,94.292 121.347,94.76 120.783,95.096 C120.219,95.432 119.577,95.6 118.857,95.6 L115.365,95.6 L115.365,94.484 L118.857,94.484 C119.589,94.484 120.183,94.22 120.639,93.692 C121.107,93.164 121.341,92.492 121.341,91.676 L121.341,90.758 C120.993,91.238 120.567,91.616 120.063,91.892 C119.559,92.156 119.007,92.288 118.407,92.288 C117.603,92.288 116.883,92.096 116.247,91.712 C115.611,91.328 115.113,90.794 114.753,90.11 C114.393,89.426 114.213,88.646 114.213,87.77 C114.213,86.906 114.387,86.138 114.735,85.466 C115.095,84.782 115.587,84.248 116.211,83.864 C116.847,83.48 117.567,83.288 118.371,83.288 C118.983,83.288 119.541,83.426 120.045,83.702 C120.561,83.966 120.993,84.344 121.341,84.836 L121.341,83.576 L122.565,83.576 Z M118.371,91.172 C118.947,91.172 119.457,91.028 119.901,90.74 C120.357,90.452 120.711,90.05 120.963,89.534 C121.215,89.018 121.341,88.436 121.341,87.788 C121.341,87.14 121.215,86.558 120.963,86.042 C120.711,85.526 120.357,85.124 119.901,84.836 C119.457,84.548 118.947,84.404 118.371,84.404 C117.807,84.404 117.303,84.548 116.859,84.836 C116.415,85.124 116.067,85.526 115.815,86.042 C115.563,86.546 115.437,87.122 115.437,87.77 C115.437,88.43 115.563,89.018 115.815,89.534 C116.067,90.05 116.415,90.452 116.859,90.74 C117.303,91.028 117.807,91.172 118.371,91.172 Z M129.521,83.288 C130.277,83.288 130.961,83.474 131.573,83.846 C132.185,84.218 132.665,84.728 133.013,85.376 C133.361,86.012 133.535,86.726 133.535,87.518 C133.535,87.746 133.529,87.92 133.517,88.04 L126.587,88.04 C126.635,88.904 126.917,89.642 127.433,90.254 C127.949,90.866 128.651,91.172 129.539,91.172 C130.259,91.172 130.853,91.04 131.321,90.776 C131.801,90.5 132.185,90.122 132.473,89.642 L133.445,90.29 C133.049,90.914 132.527,91.406 131.879,91.766 C131.231,92.114 130.463,92.288 129.575,92.288 C128.759,92.288 128.033,92.096 127.397,91.712 C126.761,91.328 126.263,90.794 125.903,90.11 C125.543,89.426 125.363,88.652 125.363,87.788 C125.363,86.924 125.537,86.15 125.885,85.466 C126.245,84.782 126.737,84.248 127.361,83.864 C127.997,83.48 128.717,83.288 129.521,83.288 Z M132.311,87.032 C132.191,86.156 131.897,85.502 131.429,85.07 C130.961,84.626 130.325,84.404 129.521,84.404 C128.741,84.404 128.099,84.656 127.595,85.16 C127.103,85.652 126.791,86.276 126.659,87.032 L132.311,87.032 Z M149.3,83.576 L149.3,92 L148.076,92 L148.076,90.758 C147.728,91.238 147.302,91.616 146.798,91.892 C146.294,92.156 145.742,92.288 145.142,92.288 C144.338,92.288 143.618,92.096 142.982,91.712 C142.346,91.328 141.848,90.794 141.488,90.11 C141.128,89.426 140.948,88.646 140.948,87.77 C140.948,86.906 141.122,86.138 141.47,85.466 C141.83,84.782 142.322,84.248 142.946,83.864 C143.582,83.48 144.302,83.288 145.106,83.288 C145.718,83.288 146.276,83.426 146.78,83.702 C147.296,83.966 147.728,84.344 148.076,84.836 L148.076,83.576 L149.3,83.576 Z M145.106,91.172 C145.682,91.172 146.192,91.028 146.636,90.74 C147.092,90.452 147.446,90.05 147.698,89.534 C147.95,89.018 148.076,88.436 148.076,87.788 C148.076,87.14 147.95,86.558 147.698,86.042 C147.446,85.526 147.092,85.124 146.636,84.836 C146.192,84.548 145.682,84.404 145.106,84.404 C144.542,84.404 144.038,84.548 143.594,84.836 C143.15,85.124 142.802,85.526 142.55,86.042 C142.298,86.546 142.172,87.122 142.172,87.77 C142.172,88.43 142.298,89.018 142.55,89.534 C142.802,90.05 143.15,90.452 143.594,90.74 C144.038,91.028 144.542,91.172 145.106,91.172 Z M156.796,83.288 C157.6,83.288 158.32,83.48 158.956,83.864 C159.592,84.248 160.09,84.782 160.45,85.466 C160.81,86.15 160.99,86.93 160.99,87.806 C160.99,88.67 160.81,89.444 160.45,90.128 C160.102,90.8 159.61,91.328 158.974,91.712 C158.35,92.096 157.636,92.288 156.832,92.288 C156.22,92.288 155.656,92.156 155.14,91.892 C154.636,91.616 154.21,91.232 153.862,90.74 L153.862,95.6 L152.638,95.6 L152.638,83.576 L153.862,83.576 L153.862,84.818 C154.21,84.338 154.636,83.966 155.14,83.702 C155.644,83.426 156.196,83.288 156.796,83.288 Z M156.832,91.172 C157.396,91.172 157.9,91.028 158.344,90.74 C158.788,90.452 159.136,90.056 159.388,89.552 C159.64,89.036 159.766,88.454 159.766,87.806 C159.766,87.146 159.64,86.558 159.388,86.042 C159.136,85.526 158.788,85.124 158.344,84.836 C157.9,84.548 157.396,84.404 156.832,84.404 C156.256,84.404 155.74,84.548 155.284,84.836 C154.84,85.124 154.492,85.526 154.24,86.042 C153.988,86.558 153.862,87.14 153.862,87.788 C153.862,88.436 153.988,89.018 154.24,89.534 C154.492,90.05 154.84,90.452 155.284,90.74 C155.74,91.028 156.256,91.172 156.832,91.172 Z M167.946,83.288 C168.75,83.288 169.47,83.48 170.106,83.864 C170.742,84.248 171.24,84.782 171.6,85.466 C171.96,86.15 172.14,86.93 172.14,87.806 C172.14,88.67 171.96,89.444 171.6,90.128 C171.252,90.8 170.76,91.328 170.124,91.712 C169.5,92.096 168.786,92.288 167.982,92.288 C167.37,92.288 166.806,92.156 166.29,91.892 C165.786,91.616 165.36,91.232 165.012,90.74 L165.012,95.6 L163.788,95.6 L163.788,83.576 L165.012,83.576 L165.012,84.818 C165.36,84.338 165.786,83.966 166.29,83.702 C166.794,83.426 167.346,83.288 167.946,83.288 Z M167.982,91.172 C168.546,91.172 169.05,91.028 169.494,90.74 C169.938,90.452 170.286,90.056 170.538,89.552 C170.79,89.036 170.916,88.454 170.916,87.806 C170.916,87.146 170.79,86.558 170.538,86.042 C170.286,85.526 169.938,85.124 169.494,84.836 C169.05,84.548 168.546,84.404 167.982,84.404 C167.406,84.404 166.89,84.548 166.434,84.836 C165.99,85.124 165.642,85.526 165.39,86.042 C165.138,86.558 165.012,87.14 165.012,87.788 C165.012,88.436 165.138,89.018 165.39,89.534 C165.642,90.05 165.99,90.452 166.434,90.74 C166.89,91.028 167.406,91.172 167.982,91.172 Z M175.009,92 L175.009,78.932 L176.233,78.932 L176.233,92 L175.009,92 Z M180.302,92 L180.302,83.576 L181.526,83.576 L181.526,92 L180.302,92 Z M180.914,81.938 C180.638,81.938 180.404,81.842 180.212,81.65 C180.032,81.458 179.942,81.224 179.942,80.948 C179.942,80.684 180.032,80.462 180.212,80.282 C180.404,80.09 180.638,79.994 180.914,79.994 C181.178,79.994 181.406,80.09 181.598,80.282 C181.79,80.462 181.886,80.69 181.886,80.966 C181.886,81.23 181.79,81.458 181.598,81.65 C181.406,81.842 181.178,81.938 180.914,81.938 Z M189.166,92.288 C188.35,92.288 187.624,92.096 186.988,91.712 C186.352,91.328 185.854,90.794 185.494,90.11 C185.134,89.426 184.954,88.652 184.954,87.788 C184.954,86.924 185.128,86.15 185.476,85.466 C185.836,84.782 186.334,84.248 186.97,83.864 C187.606,83.48 188.326,83.288 189.13,83.288 C189.814,83.288 190.408,83.438 190.912,83.738 C191.428,84.026 191.896,84.44 192.316,84.98 L191.416,85.682 C190.828,84.83 190.066,84.404 189.13,84.404 C188.566,84.404 188.056,84.548 187.6,84.836 C187.156,85.124 186.808,85.526 186.556,86.042 C186.304,86.558 186.178,87.14 186.178,87.788 C186.178,88.436 186.304,89.018 186.556,89.534 C186.808,90.05 187.156,90.452 187.6,90.74 C188.056,91.028 188.566,91.172 189.13,91.172 C189.706,91.172 190.18,91.076 190.552,90.884 C190.924,90.68 191.26,90.386 191.56,90.002 L192.514,90.668 C192.118,91.16 191.626,91.556 191.038,91.856 C190.462,92.144 189.838,92.288 189.166,92.288 Z M202.98,83.576 L202.98,92 L201.756,92 L201.756,90.758 C201.408,91.238 200.982,91.616 200.478,91.892 C199.974,92.156 199.422,92.288 198.822,92.288 C198.018,92.288 197.298,92.096 196.662,91.712 C196.026,91.328 195.528,90.794 195.168,90.11 C194.808,89.426 194.628,88.646 194.628,87.77 C194.628,86.906 194.802,86.138 195.15,85.466 C195.51,84.782 196.002,84.248 196.626,83.864 C197.262,83.48 197.982,83.288 198.786,83.288 C199.398,83.288 199.956,83.426 200.46,83.702 C200.976,83.966 201.408,84.344 201.756,84.836 L201.756,83.576 L202.98,83.576 Z M198.786,91.172 C199.362,91.172 199.872,91.028 200.316,90.74 C200.772,90.452 201.126,90.05 201.378,89.534 C201.63,89.018 201.756,88.436 201.756,87.788 C201.756,87.14 201.63,86.558 201.378,86.042 C201.126,85.526 200.772,85.124 200.316,84.836 C199.872,84.548 199.362,84.404 198.786,84.404 C198.222,84.404 197.718,84.548 197.274,84.836 C196.83,85.124 196.482,85.526 196.23,86.042 C195.978,86.546 195.852,87.122 195.852,87.77 C195.852,88.43 195.978,89.018 196.23,89.534 C196.482,90.05 196.83,90.452 197.274,90.74 C197.718,91.028 198.222,91.172 198.786,91.172 Z M206.75,92 L206.75,84.692 L205.31,84.692 L205.31,83.576 L206.75,83.576 L206.75,80.786 L207.974,80.786 L207.974,83.576 L209.918,83.576 L209.918,84.692 L207.974,84.692 L207.974,92 L206.75,92 Z M212.983,92 L212.983,83.576 L214.207,83.576 L214.207,92 L212.983,92 Z M213.595,81.938 C213.319,81.938 213.085,81.842 212.893,81.65 C212.713,81.458 212.623,81.224 212.623,80.948 C212.623,80.684 212.713,80.462 212.893,80.282 C213.085,80.09 213.319,79.994 213.595,79.994 C213.859,79.994 214.087,80.09 214.279,80.282 C214.471,80.462 214.567,80.69 214.567,80.966 C214.567,81.23 214.471,81.458 214.279,81.65 C214.087,81.842 213.859,81.938 213.595,81.938 Z M221.866,92.288 C221.062,92.288 220.342,92.096 219.706,91.712 C219.07,91.328 218.572,90.794 218.212,90.11 C217.852,89.414 217.672,88.634 217.672,87.77 C217.672,86.906 217.846,86.138 218.194,85.466 C218.554,84.782 219.046,84.248 219.67,83.864 C220.306,83.48 221.026,83.288 221.83,83.288 C222.634,83.288 223.354,83.48 223.99,83.864 C224.626,84.248 225.124,84.782 225.484,85.466 C225.844,86.15 226.024,86.924 226.024,87.788 C226.024,88.652 225.844,89.426 225.484,90.11 C225.136,90.794 224.644,91.328 224.008,91.712 C223.384,92.096 222.67,92.288 221.866,92.288 Z M221.83,91.172 C222.406,91.172 222.916,91.028 223.36,90.74 C223.816,90.452 224.17,90.05 224.422,89.534 C224.674,89.018 224.8,88.436 224.8,87.788 C224.8,87.14 224.674,86.558 224.422,86.042 C224.17,85.526 223.816,85.124 223.36,84.836 C222.916,84.548 222.406,84.404 221.83,84.404 C221.266,84.404 220.762,84.548 220.318,84.836 C219.874,85.124 219.526,85.526 219.274,86.042 C219.022,86.546 218.896,87.122 218.896,87.77 C218.896,88.43 219.022,89.018 219.274,89.534 C219.526,90.05 219.874,90.452 220.318,90.74 C220.762,91.028 221.266,91.172 221.83,91.172 Z M232.83,83.288 C233.418,83.288 233.958,83.408 234.45,83.648 C234.954,83.888 235.35,84.242 235.638,84.71 C235.938,85.178 236.088,85.73 236.088,86.366 L236.088,92 L234.864,92 L234.864,86.906 C234.864,85.238 234.12,84.404 232.632,84.404 C231.768,84.404 231.12,84.71 230.688,85.322 C230.256,85.934 230.04,86.756 230.04,87.788 L230.04,92 L228.816,92 L228.816,83.576 L230.04,83.576 L230.04,84.98 C230.328,84.44 230.706,84.026 231.174,83.738 C231.654,83.438 232.206,83.288 232.83,83.288 Z M245.062,92 L245.062,84.692 L243.622,84.692 L243.622,83.576 L245.062,83.576 L245.062,80.786 L246.286,80.786 L246.286,83.576 L248.23,83.576 L248.23,84.692 L246.286,84.692 L246.286,92 L245.062,92 Z M254.643,83.288 C255.231,83.288 255.771,83.408 256.263,83.648 C256.767,83.888 257.163,84.242 257.451,84.71 C257.751,85.178 257.901,85.73 257.901,86.366 L257.901,92 L256.677,92 L256.677,86.906 C256.677,85.238 255.933,84.404 254.445,84.404 C253.581,84.404 252.933,84.71 252.501,85.322 C252.069,85.934 251.853,86.756 251.853,87.788 L251.853,92 L250.629,92 L250.629,78.932 L251.853,78.932 L251.853,84.98 C252.141,84.44 252.519,84.026 252.987,83.738 C253.467,83.438 254.019,83.288 254.643,83.288 Z M269.134,83.576 L269.134,92 L267.91,92 L267.91,90.758 C267.562,91.238 267.136,91.616 266.632,91.892 C266.128,92.156 265.576,92.288 264.976,92.288 C264.172,92.288 263.452,92.096 262.816,91.712 C262.18,91.328 261.682,90.794 261.322,90.11 C260.962,89.426 260.782,88.646 260.782,87.77 C260.782,86.906 260.956,86.138 261.304,85.466 C261.664,84.782 262.156,84.248 262.78,83.864 C263.416,83.48 264.136,83.288 264.94,83.288 C265.552,83.288 266.11,83.426 266.614,83.702 C267.13,83.966 267.562,84.344 267.91,84.836 L267.91,83.576 L269.134,83.576 Z M264.94,91.172 C265.516,91.172 266.026,91.028 266.47,90.74 C266.926,90.452 267.28,90.05 267.532,89.534 C267.784,89.018 267.91,88.436 267.91,87.788 C267.91,87.14 267.784,86.558 267.532,86.042 C267.28,85.526 266.926,85.124 266.47,84.836 C266.026,84.548 265.516,84.404 264.94,84.404 C264.376,84.404 263.872,84.548 263.428,84.836 C262.984,85.124 262.636,85.526 262.384,86.042 C262.132,86.546 262.006,87.122 262.006,87.77 C262.006,88.43 262.132,89.018 262.384,89.534 C262.636,90.05 262.984,90.452 263.428,90.74 C263.872,91.028 264.376,91.172 264.94,91.172 Z M272.904,92 L272.904,84.692 L271.464,84.692 L271.464,83.576 L272.904,83.576 L272.904,80.786 L274.128,80.786 L274.128,83.576 L276.072,83.576 L276.072,84.692 L274.128,84.692 L274.128,92 L272.904,92 Z M18.7882,104.288 C19.3762,104.288 19.9162,104.408 20.4082,104.648 C20.9122,104.888 21.3082,105.242 21.5962,105.71 C21.8962,106.178 22.0462,106.73 22.0462,107.366 L22.0462,113 L20.8222,113 L20.8222,107.906 C20.8222,106.238 20.0782,105.404 18.5902,105.404 C17.7262,105.404 17.0782,105.71 16.6462,106.322 C16.2142,106.934 15.9982,107.756 15.9982,108.788 L15.9982,113 L14.7742,113 L14.7742,99.932 L15.9982,99.932 L15.9982,105.98 C16.2862,105.44 16.6642,105.026 17.1322,104.738 C17.6122,104.438 18.1642,104.288 18.7882,104.288 Z M29.0854,104.288 C29.8414,104.288 30.5254,104.474 31.1374,104.846 C31.7494,105.218 32.2294,105.728 32.5774,106.376 C32.9254,107.012 33.0994,107.726 33.0994,108.518 C33.0994,108.746 33.0934,108.92 33.0814,109.04 L26.1514,109.04 C26.1994,109.904 26.4814,110.642 26.9974,111.254 C27.5134,111.866 28.2154,112.172 29.1034,112.172 C29.8234,112.172 30.4174,112.04 30.8854,111.776 C31.3654,111.5 31.7494,111.122 32.0374,110.642 L33.0094,111.29 C32.6134,111.914 32.0914,112.406 31.4434,112.766 C30.7954,113.114 30.0274,113.288 29.1394,113.288 C28.3234,113.288 27.5974,113.096 26.9614,112.712 C26.3254,112.328 25.8274,111.794 25.4674,111.11 C25.1074,110.426 24.9274,109.652 24.9274,108.788 C24.9274,107.924 25.1014,107.15 25.4494,106.466 C25.8094,105.782 26.3014,105.248 26.9254,104.864 C27.5614,104.48 28.2814,104.288 29.0854,104.288 Z M31.8754,108.032 C31.7554,107.156 31.4614,106.502 30.9934,106.07 C30.5254,105.626 29.8894,105.404 29.0854,105.404 C28.3054,105.404 27.6634,105.656 27.1594,106.16 C26.6674,106.652 26.3554,107.276 26.2234,108.032 L31.8754,108.032 Z M36.0565,113 L36.0565,99.932 L37.2805,99.932 L37.2805,113 L36.0565,113 Z M44.8587,104.288 C45.6627,104.288 46.3827,104.48 47.0187,104.864 C47.6547,105.248 48.1527,105.782 48.5127,106.466 C48.8727,107.15 49.0527,107.93 49.0527,108.806 C49.0527,109.67 48.8727,110.444 48.5127,111.128 C48.1647,111.8 47.6727,112.328 47.0367,112.712 C46.4127,113.096 45.6987,113.288 44.8947,113.288 C44.2827,113.288 43.7187,113.156 43.2027,112.892 C42.6987,112.616 42.2727,112.232 41.9247,111.74 L41.9247,116.6 L40.7007,116.6 L40.7007,104.576 L41.9247,104.576 L41.9247,105.818 C42.2727,105.338 42.6987,104.966 43.2027,104.702 C43.7067,104.426 44.2587,104.288 44.8587,104.288 Z M44.8947,112.172 C45.4587,112.172 45.9627,112.028 46.4067,111.74 C46.8507,111.452 47.1987,111.056 47.4507,110.552 C47.7027,110.036 47.8287,109.454 47.8287,108.806 C47.8287,108.146 47.7027,107.558 47.4507,107.042 C47.1987,106.526 46.8507,106.124 46.4067,105.836 C45.9627,105.548 45.4587,105.404 44.8947,105.404 C44.3187,105.404 43.8027,105.548 43.3467,105.836 C42.9027,106.124 42.5547,106.526 42.3027,107.042 C42.0507,107.558 41.9247,108.14 41.9247,108.788 C41.9247,109.436 42.0507,110.018 42.3027,110.534 C42.5547,111.05 42.9027,111.452 43.3467,111.74 C43.8027,112.028 44.3187,112.172 44.8947,112.172 Z M54.8026,113.288 C53.9866,113.288 53.2666,113.114 52.6426,112.766 C52.0306,112.418 51.5626,111.926 51.2386,111.29 L52.3366,110.75 C52.7806,111.698 53.6506,112.172 54.9466,112.172 C55.5706,112.172 56.0866,112.058 56.4946,111.83 C56.9026,111.602 57.1066,111.248 57.1066,110.768 C57.1066,110.276 56.9386,109.91 56.6026,109.67 C56.2786,109.43 55.7026,109.274 54.8746,109.202 C53.7226,109.106 52.8946,108.848 52.3906,108.428 C51.8986,108.008 51.6526,107.45 51.6526,106.754 C51.6526,105.974 51.9346,105.368 52.4986,104.936 C53.0626,104.504 53.8366,104.288 54.8206,104.288 C56.4886,104.288 57.6226,104.948 58.2226,106.268 L57.1246,106.808 C56.9206,106.328 56.6206,105.974 56.2246,105.746 C55.8406,105.518 55.3426,105.404 54.7306,105.404 C54.1066,105.404 53.6266,105.518 53.2906,105.746 C52.9666,105.974 52.8046,106.298 52.8046,106.718 C52.8046,107.114 52.9786,107.438 53.3266,107.69 C53.6866,107.93 54.2986,108.086 55.1626,108.158 C56.2306,108.254 57.0226,108.518 57.5386,108.95 C58.0666,109.37 58.3306,109.928 58.3306,110.624 C58.3306,111.188 58.1686,111.674 57.8446,112.082 C57.5206,112.478 57.0886,112.778 56.5486,112.982 C56.0086,113.186 55.4266,113.288 54.8026,113.288 Z M70.522,104.288 C71.326,104.288 72.04,104.48 72.664,104.864 C73.3,105.248 73.792,105.782 74.14,106.466 C74.5,107.138 74.68,107.906 74.68,108.77 C74.68,109.646 74.5,110.426 74.14,111.11 C73.78,111.794 73.282,112.328 72.646,112.712 C72.01,113.096 71.29,113.288 70.486,113.288 C69.886,113.288 69.334,113.156 68.83,112.892 C68.326,112.616 67.9,112.238 67.552,111.758 L67.552,113 L66.328,113 L66.328,99.932 L67.552,99.932 L67.552,105.836 C67.9,105.344 68.326,104.966 68.83,104.702 C69.346,104.426 69.91,104.288 70.522,104.288 Z M70.522,112.172 C71.086,112.172 71.59,112.028 72.034,111.74 C72.478,111.452 72.826,111.05 73.078,110.534 C73.33,110.018 73.456,109.43 73.456,108.77 C73.456,108.122 73.33,107.546 73.078,107.042 C72.826,106.526 72.478,106.124 72.034,105.836 C71.59,105.548 71.086,105.404 70.522,105.404 C69.946,105.404 69.43,105.548 68.974,105.836 C68.53,106.124 68.182,106.526 67.93,107.042 C67.678,107.558 67.552,108.14 67.552,108.788 C67.552,109.436 67.678,110.018 67.93,110.534 C68.182,111.05 68.53,111.452 68.974,111.74 C69.43,112.028 69.946,112.172 70.522,112.172 Z M84.8578,104.576 L84.8578,113 L83.6338,113 L83.6338,111.596 C83.3458,112.136 82.9618,112.556 82.4818,112.856 C82.0138,113.144 81.4678,113.288 80.8438,113.288 C80.2558,113.288 79.7098,113.168 79.2058,112.928 C78.7138,112.688 78.3178,112.334 78.0178,111.866 C77.7298,111.398 77.5858,110.846 77.5858,110.21 L77.5858,104.576 L78.8098,104.576 L78.8098,109.67 C78.8098,111.338 79.5538,112.172 81.0418,112.172 C81.9058,112.172 82.5538,111.866 82.9858,111.254 C83.4178,110.642 83.6338,109.82 83.6338,108.788 L83.6338,104.576 L84.8578,104.576 Z M91.1578,113.288 C90.3418,113.288 89.6218,113.114 88.9978,112.766 C88.3858,112.418 87.9178,111.926 87.5938,111.29 L88.6918,110.75 C89.1358,111.698 90.0058,112.172 91.3018,112.172 C91.9258,112.172 92.4418,112.058 92.8498,111.83 C93.2578,111.602 93.4618,111.248 93.4618,110.768 C93.4618,110.276 93.2938,109.91 92.9578,109.67 C92.6338,109.43 92.0578,109.274 91.2298,109.202 C90.0778,109.106 89.2498,108.848 88.7458,108.428 C88.2538,108.008 88.0078,107.45 88.0078,106.754 C88.0078,105.974 88.2898,105.368 88.8538,104.936 C89.4178,104.504 90.1918,104.288 91.1758,104.288 C92.8438,104.288 93.9778,104.948 94.5778,106.268 L93.4798,106.808 C93.2758,106.328 92.9758,105.974 92.5798,105.746 C92.1958,105.518 91.6978,105.404 91.0858,105.404 C90.4618,105.404 89.9818,105.518 89.6458,105.746 C89.3218,105.974 89.1598,106.298 89.1598,106.718 C89.1598,107.114 89.3338,107.438 89.6818,107.69 C90.0418,107.93 90.6538,108.086 91.5178,108.158 C92.5858,108.254 93.3778,108.518 93.8938,108.95 C94.4218,109.37 94.6858,109.928 94.6858,110.624 C94.6858,111.188 94.5238,111.674 94.1998,112.082 C93.8758,112.478 93.4438,112.778 92.9038,112.982 C92.3638,113.186 91.7818,113.288 91.1578,113.288 Z M103.393,104.576 L104.545,104.576 L99.991,116.6 L98.767,116.6 L100.099,113.162 L96.6434,104.576 L97.9214,104.576 L100.711,111.56 L103.393,104.576 Z M115.465,113.288 C114.649,113.288 113.923,113.096 113.287,112.712 C112.651,112.328 112.153,111.794 111.793,111.11 C111.433,110.426 111.253,109.652 111.253,108.788 C111.253,107.924 111.427,107.15 111.775,106.466 C112.135,105.782 112.633,105.248 113.269,104.864 C113.905,104.48 114.625,104.288 115.429,104.288 C116.113,104.288 116.707,104.438 117.211,104.738 C117.727,105.026 118.195,105.44 118.615,105.98 L117.715,106.682 C117.127,105.83 116.365,105.404 115.429,105.404 C114.865,105.404 114.355,105.548 113.899,105.836 C113.455,106.124 113.107,106.526 112.855,107.042 C112.603,107.558 112.477,108.14 112.477,108.788 C112.477,109.436 112.603,110.018 112.855,110.534 C113.107,111.05 113.455,111.452 113.899,111.74 C114.355,112.028 114.865,112.172 115.429,112.172 C116.005,112.172 116.479,112.076 116.851,111.884 C117.223,111.68 117.559,111.386 117.859,111.002 L118.813,111.668 C118.417,112.16 117.925,112.556 117.337,112.856 C116.761,113.144 116.137,113.288 115.465,113.288 Z M125.589,104.288 C125.877,104.288 126.153,104.33 126.417,104.414 L126.417,105.53 C126.165,105.41 125.889,105.35 125.589,105.35 C125.073,105.35 124.593,105.494 124.149,105.782 C123.705,106.07 123.345,106.49 123.069,107.042 C122.805,107.582 122.673,108.224 122.673,108.968 L122.673,113 L121.449,113 L121.449,104.576 L122.673,104.576 L122.673,106.268 C122.997,105.644 123.405,105.158 123.897,104.81 C124.401,104.462 124.965,104.288 125.589,104.288 Z M132.069,104.288 C132.825,104.288 133.509,104.474 134.121,104.846 C134.733,105.218 135.213,105.728 135.561,106.376 C135.909,107.012 136.083,107.726 136.083,108.518 C136.083,108.746 136.077,108.92 136.065,109.04 L129.135,109.04 C129.183,109.904 129.465,110.642 129.981,111.254 C130.497,111.866 131.199,112.172 132.087,112.172 C132.807,112.172 133.401,112.04 133.869,111.776 C134.349,111.5 134.733,111.122 135.021,110.642 L135.993,111.29 C135.597,111.914 135.075,112.406 134.427,112.766 C133.779,113.114 133.011,113.288 132.123,113.288 C131.307,113.288 130.581,113.096 129.945,112.712 C129.309,112.328 128.811,111.794 128.451,111.11 C128.091,110.426 127.911,109.652 127.911,108.788 C127.911,107.924 128.085,107.15 128.433,106.466 C128.793,105.782 129.285,105.248 129.909,104.864 C130.545,104.48 131.265,104.288 132.069,104.288 Z M134.859,108.032 C134.739,107.156 134.445,106.502 133.977,106.07 C133.509,105.626 132.873,105.404 132.069,105.404 C131.289,105.404 130.647,105.656 130.143,106.16 C129.651,106.652 129.339,107.276 129.207,108.032 L134.859,108.032 Z M146.78,104.576 L146.78,113 L145.556,113 L145.556,111.758 C145.208,112.238 144.782,112.616 144.278,112.892 C143.774,113.156 143.222,113.288 142.622,113.288 C141.818,113.288 141.098,113.096 140.462,112.712 C139.826,112.328 139.328,111.794 138.968,111.11 C138.608,110.426 138.428,109.646 138.428,108.77 C138.428,107.906 138.602,107.138 138.95,106.466 C139.31,105.782 139.802,105.248 140.426,104.864 C141.062,104.48 141.782,104.288 142.586,104.288 C143.198,104.288 143.756,104.426 144.26,104.702 C144.776,104.966 145.208,105.344 145.556,105.836 L145.556,104.576 L146.78,104.576 Z M142.586,112.172 C143.162,112.172 143.672,112.028 144.116,111.74 C144.572,111.452 144.926,111.05 145.178,110.534 C145.43,110.018 145.556,109.436 145.556,108.788 C145.556,108.14 145.43,107.558 145.178,107.042 C144.926,106.526 144.572,106.124 144.116,105.836 C143.672,105.548 143.162,105.404 142.586,105.404 C142.022,105.404 141.518,105.548 141.074,105.836 C140.63,106.124 140.282,106.526 140.03,107.042 C139.778,107.546 139.652,108.122 139.652,108.77 C139.652,109.43 139.778,110.018 140.03,110.534 C140.282,111.05 140.63,111.452 141.074,111.74 C141.518,112.028 142.022,112.172 142.586,112.172 Z M150.55,113 L150.55,105.692 L149.11,105.692 L149.11,104.576 L150.55,104.576 L150.55,101.786 L151.774,101.786 L151.774,104.576 L153.718,104.576 L153.718,105.692 L151.774,105.692 L151.774,113 L150.55,113 Z M156.783,113 L156.783,104.576 L158.007,104.576 L158.007,113 L156.783,113 Z M157.395,102.938 C157.119,102.938 156.885,102.842 156.693,102.65 C156.513,102.458 156.423,102.224 156.423,101.948 C156.423,101.684 156.513,101.462 156.693,101.282 C156.885,101.09 157.119,100.994 157.395,100.994 C157.659,100.994 157.887,101.09 158.079,101.282 C158.271,101.462 158.367,101.69 158.367,101.966 C158.367,102.23 158.271,102.458 158.079,102.65 C157.887,102.842 157.659,102.938 157.395,102.938 Z M167.447,104.576 L168.689,104.576 L165.629,113 L164.279,113 L161.237,104.576 L162.515,104.576 L164.999,111.686 L167.447,104.576 Z M174.529,104.288 C175.285,104.288 175.969,104.474 176.581,104.846 C177.193,105.218 177.673,105.728 178.021,106.376 C178.369,107.012 178.543,107.726 178.543,108.518 C178.543,108.746 178.537,108.92 178.525,109.04 L171.595,109.04 C171.643,109.904 171.925,110.642 172.441,111.254 C172.957,111.866 173.659,112.172 174.547,112.172 C175.267,112.172 175.861,112.04 176.329,111.776 C176.809,111.5 177.193,111.122 177.481,110.642 L178.453,111.29 C178.057,111.914 177.535,112.406 176.887,112.766 C176.239,113.114 175.471,113.288 174.583,113.288 C173.767,113.288 173.041,113.096 172.405,112.712 C171.769,112.328 171.271,111.794 170.911,111.11 C170.551,110.426 170.371,109.652 170.371,108.788 C170.371,107.924 170.545,107.15 170.893,106.466 C171.253,105.782 171.745,105.248 172.369,104.864 C173.005,104.48 173.725,104.288 174.529,104.288 Z M177.319,108.032 C177.199,107.156 176.905,106.502 176.437,106.07 C175.969,105.626 175.333,105.404 174.529,105.404 C173.749,105.404 173.107,105.656 172.603,106.16 C172.111,106.652 171.799,107.276 171.667,108.032 L177.319,108.032 Z M184.38,113.288 C183.564,113.288 182.844,113.114 182.22,112.766 C181.608,112.418 181.14,111.926 180.816,111.29 L181.914,110.75 C182.358,111.698 183.228,112.172 184.524,112.172 C185.148,112.172 185.664,112.058 186.072,111.83 C186.48,111.602 186.684,111.248 186.684,110.768 C186.684,110.276 186.516,109.91 186.18,109.67 C185.856,109.43 185.28,109.274 184.452,109.202 C183.3,109.106 182.472,108.848 181.968,108.428 C181.476,108.008 181.23,107.45 181.23,106.754 C181.23,105.974 181.512,105.368 182.076,104.936 C182.64,104.504 183.414,104.288 184.398,104.288 C186.066,104.288 187.2,104.948 187.8,106.268 L186.702,106.808 C186.498,106.328 186.198,105.974 185.802,105.746 C185.418,105.518 184.92,105.404 184.308,105.404 C183.684,105.404 183.204,105.518 182.868,105.746 C182.544,105.974 182.382,106.298 182.382,106.718 C182.382,107.114 182.556,107.438 182.904,107.69 C183.264,107.93 183.876,108.086 184.74,108.158 C185.808,108.254 186.6,108.518 187.116,108.95 C187.644,109.37 187.908,109.928 187.908,110.624 C187.908,111.188 187.746,111.674 187.422,112.082 C187.098,112.478 186.666,112.778 186.126,112.982 C185.586,113.186 185.004,113.288 184.38,113.288 Z M204.852,104.288 C205.632,104.288 206.28,104.564 206.796,105.116 C207.312,105.656 207.57,106.406 207.57,107.366 L207.57,113 L206.346,113 L206.346,107.906 C206.346,107.018 206.178,106.382 205.842,105.998 C205.506,105.602 205.068,105.404 204.528,105.404 C203.868,105.404 203.352,105.662 202.98,106.178 C202.62,106.682 202.41,107.372 202.35,108.248 L202.35,113 L201.126,113 L201.126,107.906 C201.126,107.018 200.958,106.382 200.622,105.998 C200.286,105.602 199.848,105.404 199.308,105.404 C198.576,105.404 198.024,105.71 197.652,106.322 C197.292,106.934 197.112,107.756 197.112,108.788 L197.112,113 L195.888,113 L195.888,104.576 L197.112,104.576 L197.112,105.89 C197.388,105.374 197.736,104.978 198.156,104.702 C198.588,104.426 199.08,104.288 199.632,104.288 C200.244,104.288 200.778,104.456 201.234,104.792 C201.69,105.116 202.008,105.584 202.188,106.196 C202.452,105.596 202.812,105.128 203.268,104.792 C203.724,104.456 204.252,104.288 204.852,104.288 Z M218.629,104.576 L218.629,113 L217.405,113 L217.405,111.758 C217.057,112.238 216.631,112.616 216.127,112.892 C215.623,113.156 215.071,113.288 214.471,113.288 C213.667,113.288 212.947,113.096 212.311,112.712 C211.675,112.328 211.177,111.794 210.817,111.11 C210.457,110.426 210.277,109.646 210.277,108.77 C210.277,107.906 210.451,107.138 210.799,106.466 C211.159,105.782 211.651,105.248 212.275,104.864 C212.911,104.48 213.631,104.288 214.435,104.288 C215.047,104.288 215.605,104.426 216.109,104.702 C216.625,104.966 217.057,105.344 217.405,105.836 L217.405,104.576 L218.629,104.576 Z M214.435,112.172 C215.011,112.172 215.521,112.028 215.965,111.74 C216.421,111.452 216.775,111.05 217.027,110.534 C217.279,110.018 217.405,109.436 217.405,108.788 C217.405,108.14 217.279,107.558 217.027,107.042 C216.775,106.526 216.421,106.124 215.965,105.836 C215.521,105.548 215.011,105.404 214.435,105.404 C213.871,105.404 213.367,105.548 212.923,105.836 C212.479,106.124 212.131,106.526 211.879,107.042 C211.627,107.546 211.501,108.122 211.501,108.77 C211.501,109.43 211.627,110.018 211.879,110.534 C212.131,111.05 212.479,111.452 212.923,111.74 C213.367,112.028 213.871,112.172 214.435,112.172 Z M225.963,104.288 C226.551,104.288 227.091,104.408 227.583,104.648 C228.087,104.888 228.483,105.242 228.771,105.71 C229.071,106.178 229.221,106.73 229.221,107.366 L229.221,113 L227.997,113 L227.997,107.906 C227.997,106.238 227.253,105.404 225.765,105.404 C224.901,105.404 224.253,105.71 223.821,106.322 C223.389,106.934 223.173,107.756 223.173,108.788 L223.173,113 L221.949,113 L221.949,104.576 L223.173,104.576 L223.173,105.98 C223.461,105.44 223.839,105.026 224.307,104.738 C224.787,104.438 225.339,104.288 225.963,104.288 Z M240.507,104.576 L240.507,113 L239.283,113 L239.283,111.758 C238.935,112.238 238.509,112.616 238.005,112.892 C237.501,113.156 236.949,113.288 236.349,113.288 C235.545,113.288 234.825,113.096 234.189,112.712 C233.553,112.328 233.055,111.794 232.695,111.11 C232.335,110.426 232.155,109.646 232.155,108.77 C232.155,107.906 232.329,107.138 232.677,106.466 C233.037,105.782 233.529,105.248 234.153,104.864 C234.789,104.48 235.509,104.288 236.313,104.288 C236.925,104.288 237.483,104.426 237.987,104.702 C238.503,104.966 238.935,105.344 239.283,105.836 L239.283,104.576 L240.507,104.576 Z M236.313,112.172 C236.889,112.172 237.399,112.028 237.843,111.74 C238.299,111.452 238.653,111.05 238.905,110.534 C239.157,110.018 239.283,109.436 239.283,108.788 C239.283,108.14 239.157,107.558 238.905,107.042 C238.653,106.526 238.299,106.124 237.843,105.836 C237.399,105.548 236.889,105.404 236.313,105.404 C235.749,105.404 235.245,105.548 234.801,105.836 C234.357,106.124 234.009,106.526 233.757,107.042 C233.505,107.546 233.379,108.122 233.379,108.77 C233.379,109.43 233.505,110.018 233.757,110.534 C234.009,111.05 234.357,111.452 234.801,111.74 C235.245,112.028 235.749,112.172 236.313,112.172 Z M251.657,104.576 L251.657,112.676 C251.657,113.432 251.501,114.104 251.189,114.692 C250.877,115.292 250.439,115.76 249.875,116.096 C249.311,116.432 248.669,116.6 247.949,116.6 L244.457,116.6 L244.457,115.484 L247.949,115.484 C248.681,115.484 249.275,115.22 249.731,114.692 C250.199,114.164 250.433,113.492 250.433,112.676 L250.433,111.758 C250.085,112.238 249.659,112.616 249.155,112.892 C248.651,113.156 248.099,113.288 247.499,113.288 C246.695,113.288 245.975,113.096 245.339,112.712 C244.703,112.328 244.205,111.794 243.845,111.11 C243.485,110.426 243.305,109.646 243.305,108.77 C243.305,107.906 243.479,107.138 243.827,106.466 C244.187,105.782 244.679,105.248 245.303,104.864 C245.939,104.48 246.659,104.288 247.463,104.288 C248.075,104.288 248.633,104.426 249.137,104.702 C249.653,104.966 250.085,105.344 250.433,105.836 L250.433,104.576 L251.657,104.576 Z M247.463,112.172 C248.039,112.172 248.549,112.028 248.993,111.74 C249.449,111.452 249.803,111.05 250.055,110.534 C250.307,110.018 250.433,109.436 250.433,108.788 C250.433,108.14 250.307,107.558 250.055,107.042 C249.803,106.526 249.449,106.124 248.993,105.836 C248.549,105.548 248.039,105.404 247.463,105.404 C246.899,105.404 246.395,105.548 245.951,105.836 C245.507,106.124 245.159,106.526 244.907,107.042 C244.655,107.546 244.529,108.122 244.529,108.77 C244.529,109.43 244.655,110.018 244.907,110.534 C245.159,111.05 245.507,111.452 245.951,111.74 C246.395,112.028 246.899,112.172 247.463,112.172 Z M258.613,104.288 C259.369,104.288 260.053,104.474 260.665,104.846 C261.277,105.218 261.757,105.728 262.105,106.376 C262.453,107.012 262.627,107.726 262.627,108.518 C262.627,108.746 262.621,108.92 262.609,109.04 L255.679,109.04 C255.727,109.904 256.009,110.642 256.525,111.254 C257.041,111.866 257.743,112.172 258.631,112.172 C259.351,112.172 259.945,112.04 260.413,111.776 C260.893,111.5 261.277,111.122 261.565,110.642 L262.537,111.29 C262.141,111.914 261.619,112.406 260.971,112.766 C260.323,113.114 259.555,113.288 258.667,113.288 C257.851,113.288 257.125,113.096 256.489,112.712 C255.853,112.328 255.355,111.794 254.995,111.11 C254.635,110.426 254.455,109.652 254.455,108.788 C254.455,107.924 254.629,107.15 254.977,106.466 C255.337,105.782 255.829,105.248 256.453,104.864 C257.089,104.48 257.809,104.288 258.613,104.288 Z M261.403,108.032 C261.283,107.156 260.989,106.502 260.521,106.07 C260.053,105.626 259.417,105.404 258.613,105.404 C257.833,105.404 257.191,105.656 256.687,106.16 C256.195,106.652 255.883,107.276 255.751,108.032 L261.403,108.032 Z M34.2111,125.576 L34.2111,134 L32.9871,134 L32.9871,132.758 C32.6391,133.238 32.2131,133.616 31.7091,133.892 C31.2051,134.156 30.6531,134.288 30.0531,134.288 C29.2491,134.288 28.5291,134.096 27.8931,133.712 C27.2571,133.328 26.7591,132.794 26.3991,132.11 C26.0391,131.426 25.8591,130.646 25.8591,129.77 C25.8591,128.906 26.0331,128.138 26.3811,127.466 C26.7411,126.782 27.2331,126.248 27.8571,125.864 C28.4931,125.48 29.2131,125.288 30.0171,125.288 C30.6291,125.288 31.1871,125.426 31.6911,125.702 C32.2071,125.966 32.6391,126.344 32.9871,126.836 L32.9871,125.576 L34.2111,125.576 Z M30.0171,133.172 C30.5931,133.172 31.1031,133.028 31.5471,132.74 C32.0031,132.452 32.3571,132.05 32.6091,131.534 C32.8611,131.018 32.9871,130.436 32.9871,129.788 C32.9871,129.14 32.8611,128.558 32.6091,128.042 C32.3571,127.526 32.0031,127.124 31.5471,126.836 C31.1031,126.548 30.5931,126.404 30.0171,126.404 C29.4531,126.404 28.9491,126.548 28.5051,126.836 C28.0611,127.124 27.7131,127.526 27.4611,128.042 C27.2091,128.546 27.0831,129.122 27.0831,129.77 C27.0831,130.43 27.2091,131.018 27.4611,131.534 C27.7131,132.05 28.0611,132.452 28.5051,132.74 C28.9491,133.028 29.4531,133.172 30.0171,133.172 Z M41.5449,125.288 C42.1329,125.288 42.6729,125.408 43.1649,125.648 C43.6689,125.888 44.0649,126.242 44.3529,126.71 C44.6529,127.178 44.8029,127.73 44.8029,128.366 L44.8029,134 L43.5789,134 L43.5789,128.906 C43.5789,127.238 42.8349,126.404 41.3469,126.404 C40.4829,126.404 39.8349,126.71 39.4029,127.322 C38.9709,127.934 38.7549,128.756 38.7549,129.788 L38.7549,134 L37.5309,134 L37.5309,125.576 L38.7549,125.576 L38.7549,126.98 C39.0429,126.44 39.4209,126.026 39.8889,125.738 C40.3689,125.438 40.9209,125.288 41.5449,125.288 Z M56.0889,120.932 L56.0889,134 L54.8649,134 L54.8649,132.758 C54.5169,133.238 54.0909,133.616 53.5869,133.892 C53.0829,134.156 52.5309,134.288 51.9309,134.288 C51.1269,134.288 50.4069,134.096 49.7709,133.712 C49.1349,133.328 48.6369,132.794 48.2769,132.11 C47.9169,131.426 47.7369,130.646 47.7369,129.77 C47.7369,128.906 47.9109,128.138 48.2589,127.466 C48.6189,126.782 49.1109,126.248 49.7349,125.864 C50.3709,125.48 51.0909,125.288 51.8949,125.288 C52.5069,125.288 53.0649,125.426 53.5689,125.702 C54.0849,125.966 54.5169,126.344 54.8649,126.836 L54.8649,120.932 L56.0889,120.932 Z M51.8949,133.172 C52.4709,133.172 52.9809,133.028 53.4249,132.74 C53.8809,132.452 54.2349,132.05 54.4869,131.534 C54.7389,131.018 54.8649,130.436 54.8649,129.788 C54.8649,129.14 54.7389,128.558 54.4869,128.042 C54.2349,127.526 53.8809,127.124 53.4249,126.836 C52.9809,126.548 52.4709,126.404 51.8949,126.404 C51.3309,126.404 50.8269,126.548 50.3829,126.836 C49.9389,127.124 49.5909,127.526 49.3389,128.042 C49.0869,128.546 48.9609,129.122 48.9609,129.77 C48.9609,130.43 49.0869,131.018 49.3389,131.534 C49.5909,132.05 49.9389,132.452 50.3829,132.74 C50.8269,133.028 51.3309,133.172 51.8949,133.172 Z M68.1485,134.288 C67.3445,134.288 66.6245,134.096 65.9885,133.712 C65.3525,133.328 64.8545,132.794 64.4945,132.11 C64.1345,131.414 63.9545,130.634 63.9545,129.77 C63.9545,128.906 64.1285,128.138 64.4765,127.466 C64.8365,126.782 65.3285,126.248 65.9525,125.864 C66.5885,125.48 67.3085,125.288 68.1125,125.288 C68.9165,125.288 69.6365,125.48 70.2725,125.864 C70.9085,126.248 71.4065,126.782 71.7665,127.466 C72.1265,128.15 72.3065,128.924 72.3065,129.788 C72.3065,130.652 72.1265,131.426 71.7665,132.11 C71.4185,132.794 70.9265,133.328 70.2905,133.712 C69.6665,134.096 68.9525,134.288 68.1485,134.288 Z M68.1125,133.172 C68.6885,133.172 69.1985,133.028 69.6425,132.74 C70.0985,132.452 70.4525,132.05 70.7045,131.534 C70.9565,131.018 71.0825,130.436 71.0825,129.788 C71.0825,129.14 70.9565,128.558 70.7045,128.042 C70.4525,127.526 70.0985,127.124 69.6425,126.836 C69.1985,126.548 68.6885,126.404 68.1125,126.404 C67.5485,126.404 67.0445,126.548 66.6005,126.836 C66.1565,127.124 65.8085,127.526 65.5565,128.042 C65.3045,128.546 65.1785,129.122 65.1785,129.77 C65.1785,130.43 65.3045,131.018 65.5565,131.534 C65.8085,132.05 66.1565,132.452 66.6005,132.74 C67.0445,133.028 67.5485,133.172 68.1125,133.172 Z M79.239,125.288 C79.527,125.288 79.803,125.33 80.067,125.414 L80.067,126.53 C79.815,126.41 79.539,126.35 79.239,126.35 C78.723,126.35 78.243,126.494 77.799,126.782 C77.355,127.07 76.995,127.49 76.719,128.042 C76.455,128.582 76.323,129.224 76.323,129.968 L76.323,134 L75.099,134 L75.099,125.576 L76.323,125.576 L76.323,127.268 C76.647,126.644 77.055,126.158 77.547,125.81 C78.051,125.462 78.615,125.288 79.239,125.288 Z M90.0886,125.576 L90.0886,133.676 C90.0886,134.432 89.9326,135.104 89.6206,135.692 C89.3086,136.292 88.8706,136.76 88.3066,137.096 C87.7426,137.432 87.1006,137.6 86.3806,137.6 L82.8886,137.6 L82.8886,136.484 L86.3806,136.484 C87.1126,136.484 87.7066,136.22 88.1626,135.692 C88.6306,135.164 88.8646,134.492 88.8646,133.676 L88.8646,132.758 C88.5166,133.238 88.0906,133.616 87.5866,133.892 C87.0826,134.156 86.5306,134.288 85.9306,134.288 C85.1266,134.288 84.4066,134.096 83.7706,133.712 C83.1346,133.328 82.6366,132.794 82.2766,132.11 C81.9166,131.426 81.7366,130.646 81.7366,129.77 C81.7366,128.906 81.9106,128.138 82.2586,127.466 C82.6186,126.782 83.1106,126.248 83.7346,125.864 C84.3706,125.48 85.0906,125.288 85.8946,125.288 C86.5066,125.288 87.0646,125.426 87.5686,125.702 C88.0846,125.966 88.5166,126.344 88.8646,126.836 L88.8646,125.576 L90.0886,125.576 Z M85.8946,133.172 C86.4706,133.172 86.9806,133.028 87.4246,132.74 C87.8806,132.452 88.2346,132.05 88.4866,131.534 C88.7386,131.018 88.8646,130.436 88.8646,129.788 C88.8646,129.14 88.7386,128.558 88.4866,128.042 C88.2346,127.526 87.8806,127.124 87.4246,126.836 C86.9806,126.548 86.4706,126.404 85.8946,126.404 C85.3306,126.404 84.8266,126.548 84.3826,126.836 C83.9386,127.124 83.5906,127.526 83.3386,128.042 C83.0866,128.546 82.9606,129.122 82.9606,129.77 C82.9606,130.43 83.0866,131.018 83.3386,131.534 C83.5906,132.05 83.9386,132.452 84.3826,132.74 C84.8266,133.028 85.3306,133.172 85.8946,133.172 Z M101.238,125.576 L101.238,134 L100.014,134 L100.014,132.758 C99.666,133.238 99.24,133.616 98.736,133.892 C98.232,134.156 97.6805,134.288 97.0805,134.288 C96.2765,134.288 95.5565,134.096 94.9205,133.712 C94.2845,133.328 93.7865,132.794 93.4265,132.11 C93.0665,131.426 92.8865,130.646 92.8865,129.77 C92.8865,128.906 93.0605,128.138 93.4085,127.466 C93.7685,126.782 94.2605,126.248 94.8845,125.864 C95.5205,125.48 96.2405,125.288 97.0445,125.288 C97.6565,125.288 98.214,125.426 98.718,125.702 C99.234,125.966 99.666,126.344 100.014,126.836 L100.014,125.576 L101.238,125.576 Z M97.0445,133.172 C97.6205,133.172 98.13,133.028 98.574,132.74 C99.03,132.452 99.384,132.05 99.636,131.534 C99.888,131.018 100.014,130.436 100.014,129.788 C100.014,129.14 99.888,128.558 99.636,128.042 C99.384,127.526 99.03,127.124 98.574,126.836 C98.13,126.548 97.6205,126.404 97.0445,126.404 C96.4805,126.404 95.9765,126.548 95.5325,126.836 C95.0885,127.124 94.7405,127.526 94.4885,128.042 C94.2365,128.546 94.1105,129.122 94.1105,129.77 C94.1105,130.43 94.2365,131.018 94.4885,131.534 C94.7405,132.05 95.0885,132.452 95.5325,132.74 C95.9765,133.028 96.4805,133.172 97.0445,133.172 Z M108.572,125.288 C109.16,125.288 109.7,125.408 110.192,125.648 C110.696,125.888 111.092,126.242 111.38,126.71 C111.68,127.178 111.83,127.73 111.83,128.366 L111.83,134 L110.606,134 L110.606,128.906 C110.606,127.238 109.862,126.404 108.374,126.404 C107.51,126.404 106.862,126.71 106.43,127.322 C105.998,127.934 105.782,128.756 105.782,129.788 L105.782,134 L104.558,134 L104.558,125.576 L105.782,125.576 L105.782,126.98 C106.07,126.44 106.448,126.026 106.916,125.738 C107.396,125.438 107.948,125.288 108.572,125.288 Z M115.952,134 L115.952,125.576 L117.176,125.576 L117.176,134 L115.952,134 Z M116.564,123.938 C116.288,123.938 116.054,123.842 115.862,123.65 C115.682,123.458 115.592,123.224 115.592,122.948 C115.592,122.684 115.682,122.462 115.862,122.282 C116.054,122.09 116.288,121.994 116.564,121.994 C116.828,121.994 117.056,122.09 117.248,122.282 C117.44,122.462 117.536,122.69 117.536,122.966 C117.536,123.23 117.44,123.458 117.248,123.65 C117.056,123.842 116.828,123.938 116.564,123.938 Z M126.923,125.576 L126.923,126.692 L122.099,132.884 L126.923,132.884 L126.923,134 L120.695,134 L120.695,132.884 L125.519,126.692 L120.695,126.692 L120.695,125.576 L126.923,125.576 Z M133.417,125.288 C134.173,125.288 134.857,125.474 135.469,125.846 C136.081,126.218 136.561,126.728 136.909,127.376 C137.257,128.012 137.431,128.726 137.431,129.518 C137.431,129.746 137.425,129.92 137.413,130.04 L130.483,130.04 C130.531,130.904 130.813,131.642 131.329,132.254 C131.845,132.866 132.547,133.172 133.435,133.172 C134.155,133.172 134.749,133.04 135.217,132.776 C135.697,132.5 136.081,132.122 136.369,131.642 L137.341,132.29 C136.945,132.914 136.423,133.406 135.775,133.766 C135.127,134.114 134.359,134.288 133.471,134.288 C132.655,134.288 131.929,134.096 131.293,133.712 C130.657,133.328 130.159,132.794 129.799,132.11 C129.439,131.426 129.259,130.652 129.259,129.788 C129.259,128.924 129.433,128.15 129.781,127.466 C130.141,126.782 130.633,126.248 131.257,125.864 C131.893,125.48 132.613,125.288 133.417,125.288 Z M136.207,129.032 C136.087,128.156 135.793,127.502 135.325,127.07 C134.857,126.626 134.221,126.404 133.417,126.404 C132.637,126.404 131.995,126.656 131.491,127.16 C130.999,127.652 130.687,128.276 130.555,129.032 L136.207,129.032 Z M145.816,134 L145.816,126.692 L144.376,126.692 L144.376,125.576 L145.816,125.576 L145.816,122.786 L147.04,122.786 L147.04,125.576 L148.984,125.576 L148.984,126.692 L147.04,126.692 L147.04,134 L145.816,134 Z M155.397,125.288 C155.985,125.288 156.525,125.408 157.017,125.648 C157.521,125.888 157.917,126.242 158.205,126.71 C158.505,127.178 158.655,127.73 158.655,128.366 L158.655,134 L157.431,134 L157.431,128.906 C157.431,127.238 156.687,126.404 155.199,126.404 C154.335,126.404 153.687,126.71 153.255,127.322 C152.823,127.934 152.607,128.756 152.607,129.788 L152.607,134 L151.383,134 L151.383,120.932 L152.607,120.932 L152.607,126.98 C152.895,126.44 153.273,126.026 153.741,125.738 C154.221,125.438 154.773,125.288 155.397,125.288 Z M165.694,125.288 C166.45,125.288 167.134,125.474 167.746,125.846 C168.358,126.218 168.838,126.728 169.186,127.376 C169.534,128.012 169.708,128.726 169.708,129.518 C169.708,129.746 169.702,129.92 169.69,130.04 L162.76,130.04 C162.808,130.904 163.09,131.642 163.606,132.254 C164.122,132.866 164.824,133.172 165.712,133.172 C166.432,133.172 167.026,133.04 167.494,132.776 C167.974,132.5 168.358,132.122 168.646,131.642 L169.618,132.29 C169.222,132.914 168.7,133.406 168.052,133.766 C167.404,134.114 166.636,134.288 165.748,134.288 C164.932,134.288 164.206,134.096 163.57,133.712 C162.934,133.328 162.436,132.794 162.076,132.11 C161.716,131.426 161.536,130.652 161.536,129.788 C161.536,128.924 161.71,128.15 162.058,127.466 C162.418,126.782 162.91,126.248 163.534,125.864 C164.17,125.48 164.89,125.288 165.694,125.288 Z M168.484,129.032 C168.364,128.156 168.07,127.502 167.602,127.07 C167.134,126.626 166.498,126.404 165.694,126.404 C164.914,126.404 164.272,126.656 163.768,127.16 C163.276,127.652 162.964,128.276 162.832,129.032 L168.484,129.032 Z M173.241,134 L173.241,125.576 L174.465,125.576 L174.465,134 L173.241,134 Z M173.853,123.938 C173.577,123.938 173.343,123.842 173.151,123.65 C172.971,123.458 172.881,123.224 172.881,122.948 C172.881,122.684 172.971,122.462 173.151,122.282 C173.343,122.09 173.577,121.994 173.853,121.994 C174.117,121.994 174.345,122.09 174.537,122.282 C174.729,122.462 174.825,122.69 174.825,122.966 C174.825,123.23 174.729,123.458 174.537,123.65 C174.345,123.842 174.117,123.938 173.853,123.938 Z M182.592,125.288 C182.88,125.288 183.156,125.33 183.42,125.414 L183.42,126.53 C183.168,126.41 182.892,126.35 182.592,126.35 C182.076,126.35 181.596,126.494 181.152,126.782 C180.708,127.07 180.348,127.49 180.072,128.042 C179.808,128.582 179.676,129.224 179.676,129.968 L179.676,134 L178.452,134 L178.452,125.576 L179.676,125.576 L179.676,127.268 C180,126.644 180.408,126.158 180.9,125.81 C181.404,125.462 181.968,125.288 182.592,125.288 Z M194.333,134.288 C193.517,134.288 192.791,134.096 192.155,133.712 C191.519,133.328 191.021,132.794 190.661,132.11 C190.301,131.426 190.121,130.652 190.121,129.788 C190.121,128.924 190.295,128.15 190.643,127.466 C191.003,126.782 191.501,126.248 192.137,125.864 C192.773,125.48 193.493,125.288 194.297,125.288 C194.981,125.288 195.575,125.438 196.079,125.738 C196.595,126.026 197.063,126.44 197.483,126.98 L196.583,127.682 C195.995,126.83 195.233,126.404 194.297,126.404 C193.733,126.404 193.223,126.548 192.767,126.836 C192.323,127.124 191.975,127.526 191.723,128.042 C191.471,128.558 191.345,129.14 191.345,129.788 C191.345,130.436 191.471,131.018 191.723,131.534 C191.975,132.05 192.323,132.452 192.767,132.74 C193.223,133.028 193.733,133.172 194.297,133.172 C194.873,133.172 195.347,133.076 195.719,132.884 C196.091,132.68 196.427,132.386 196.727,132.002 L197.681,132.668 C197.285,133.16 196.793,133.556 196.205,133.856 C195.629,134.144 195.005,134.288 194.333,134.288 Z M203.989,134.288 C203.185,134.288 202.465,134.096 201.829,133.712 C201.193,133.328 200.695,132.794 200.335,132.11 C199.975,131.414 199.795,130.634 199.795,129.77 C199.795,128.906 199.969,128.138 200.317,127.466 C200.677,126.782 201.169,126.248 201.793,125.864 C202.429,125.48 203.149,125.288 203.953,125.288 C204.757,125.288 205.477,125.48 206.113,125.864 C206.749,126.248 207.247,126.782 207.607,127.466 C207.967,128.15 208.147,128.924 208.147,129.788 C208.147,130.652 207.967,131.426 207.607,132.11 C207.259,132.794 206.767,133.328 206.131,133.712 C205.507,134.096 204.793,134.288 203.989,134.288 Z M203.953,133.172 C204.529,133.172 205.039,133.028 205.483,132.74 C205.939,132.452 206.293,132.05 206.545,131.534 C206.797,131.018 206.923,130.436 206.923,129.788 C206.923,129.14 206.797,128.558 206.545,128.042 C206.293,127.526 205.939,127.124 205.483,126.836 C205.039,126.548 204.529,126.404 203.953,126.404 C203.389,126.404 202.885,126.548 202.441,126.836 C201.997,127.124 201.649,127.526 201.397,128.042 C201.145,128.546 201.019,129.122 201.019,129.77 C201.019,130.43 201.145,131.018 201.397,131.534 C201.649,132.05 201.997,132.452 202.441,132.74 C202.885,133.028 203.389,133.172 203.953,133.172 Z M214.954,125.288 C215.542,125.288 216.082,125.408 216.574,125.648 C217.078,125.888 217.474,126.242 217.762,126.71 C218.062,127.178 218.212,127.73 218.212,128.366 L218.212,134 L216.988,134 L216.988,128.906 C216.988,127.238 216.244,126.404 214.756,126.404 C213.892,126.404 213.244,126.71 212.812,127.322 C212.38,127.934 212.164,128.756 212.164,129.788 L212.164,134 L210.94,134 L210.94,125.576 L212.164,125.576 L212.164,126.98 C212.452,126.44 212.83,126.026 213.298,125.738 C213.778,125.438 214.33,125.288 214.954,125.288 Z M222.118,134 L222.118,126.692 L220.678,126.692 L220.678,125.576 L222.118,125.576 L222.118,122.786 L223.342,122.786 L223.342,125.576 L225.286,125.576 L225.286,126.692 L223.342,126.692 L223.342,134 L222.118,134 Z M231.321,125.288 C232.077,125.288 232.761,125.474 233.373,125.846 C233.985,126.218 234.465,126.728 234.813,127.376 C235.161,128.012 235.335,128.726 235.335,129.518 C235.335,129.746 235.329,129.92 235.317,130.04 L228.387,130.04 C228.435,130.904 228.717,131.642 229.233,132.254 C229.749,132.866 230.451,133.172 231.339,133.172 C232.059,133.172 232.653,133.04 233.121,132.776 C233.601,132.5 233.985,132.122 234.273,131.642 L235.245,132.29 C234.849,132.914 234.327,133.406 233.679,133.766 C233.031,134.114 232.263,134.288 231.375,134.288 C230.559,134.288 229.833,134.096 229.197,133.712 C228.561,133.328 228.063,132.794 227.703,132.11 C227.343,131.426 227.163,130.652 227.163,129.788 C227.163,128.924 227.337,128.15 227.685,127.466 C228.045,126.782 228.537,126.248 229.161,125.864 C229.797,125.48 230.517,125.288 231.321,125.288 Z M234.111,129.032 C233.991,128.156 233.697,127.502 233.229,127.07 C232.761,126.626 232.125,126.404 231.321,126.404 C230.541,126.404 229.899,126.656 229.395,127.16 C228.903,127.652 228.591,128.276 228.459,129.032 L234.111,129.032 Z M242.216,125.288 C242.804,125.288 243.344,125.408 243.836,125.648 C244.34,125.888 244.736,126.242 245.024,126.71 C245.324,127.178 245.474,127.73 245.474,128.366 L245.474,134 L244.25,134 L244.25,128.906 C244.25,127.238 243.506,126.404 242.018,126.404 C241.154,126.404 240.506,126.71 240.074,127.322 C239.642,127.934 239.426,128.756 239.426,129.788 L239.426,134 L238.202,134 L238.202,125.576 L239.426,125.576 L239.426,126.98 C239.714,126.44 240.092,126.026 240.56,125.738 C241.04,125.438 241.592,125.288 242.216,125.288 Z M249.38,134 L249.38,126.692 L247.94,126.692 L247.94,125.576 L249.38,125.576 L249.38,122.786 L250.604,122.786 L250.604,125.576 L252.548,125.576 L252.548,126.692 L250.604,126.692 L250.604,134 L249.38,134 Z" id="Shape" fill-rule="nonzero"></path>
        </g>
    </g>
</svg>