<?xml version="1.0" encoding="UTF-8"?>
<svg width="565px" height="89px" viewBox="0 0 565 89" version="1.1" xmlns="http://www.w3.org/2000/svg" xmlns:xlink="http://www.w3.org/1999/xlink">
    <!-- Generator: Sketch 55.2 (78181) - https://sketchapp.com -->
    <title>spunky</title>
    <desc>Created with Sketch.</desc>
    <g id="Page-1" stroke="none" stroke-width="1" fill="none" fill-rule="evenodd">
        <g id="spunky" fill="#FFFFFF">
            <path d="M297.112,27 L295.864,24.072 L289.912,24.072 L288.648,27 L287.288,27 L292.296,15.608 L293.448,15.608 L298.456,27 L297.112,27 Z M290.376,22.984 L295.4,22.984 L292.888,17.128 L290.376,22.984 Z M309.666,27.112 C308.887,27.112 308.205,26.9413 307.618,26.6 C307.042,26.2587 306.594,25.7787 306.274,25.16 C305.965,24.5307 305.81,23.8 305.81,22.968 C305.81,22.136 305.97,21.4053 306.29,20.776 C306.61,20.136 307.063,19.64 307.65,19.288 C308.247,18.936 308.941,18.76 309.73,18.76 C310.274,18.76 310.797,18.856 311.298,19.048 C311.81,19.2293 312.231,19.4853 312.562,19.816 L312.13,20.776 C311.725,20.456 311.33,20.2213 310.946,20.072 C310.573,19.9227 310.189,19.848 309.794,19.848 C308.973,19.848 308.327,20.1253 307.858,20.68 C307.389,21.224 307.154,21.9867 307.154,22.968 C307.154,23.9387 307.383,24.696 307.842,25.24 C308.311,25.7733 308.962,26.04 309.794,26.04 C310.189,26.04 310.573,25.9653 310.946,25.816 C311.33,25.6667 311.725,25.432 312.13,25.112 L312.562,26.072 C312.221,26.392 311.789,26.648 311.266,26.84 C310.754,27.0213 310.221,27.112 309.666,27.112 Z M315.272,27 L315.272,15.224 L316.568,15.224 L316.568,27 L315.272,27 Z M323.472,27.112 C322.715,27.112 322.048,26.9413 321.472,26.6 C320.896,26.2587 320.448,25.7733 320.128,25.144 C319.819,24.5147 319.664,23.7787 319.664,22.936 C319.664,22.0933 319.819,21.3573 320.128,20.728 C320.448,20.0987 320.896,19.6133 321.472,19.272 C322.048,18.9307 322.715,18.76 323.472,18.76 C324.23,18.76 324.896,18.9307 325.472,19.272 C326.048,19.6133 326.491,20.0987 326.8,20.728 C327.12,21.3573 327.28,22.0933 327.28,22.936 C327.28,23.7787 327.12,24.5147 326.8,25.144 C326.491,25.7733 326.048,26.2587 325.472,26.6 C324.896,26.9413 324.23,27.112 323.472,27.112 Z M323.472,26.04 C324.272,26.04 324.886,25.7787 325.312,25.256 C325.739,24.7227 325.952,23.9493 325.952,22.936 C325.952,21.9547 325.734,21.1973 325.296,20.664 C324.859,20.12 324.251,19.848 323.472,19.848 C322.683,19.848 322.07,20.12 321.632,20.664 C321.195,21.1973 320.976,21.9547 320.976,22.936 C320.976,23.9493 321.19,24.7227 321.616,25.256 C322.054,25.7787 322.672,26.04 323.472,26.04 Z M337.096,18.952 L337.096,27 L335.832,27 L335.832,25.608 C335.576,26.0987 335.219,26.472 334.76,26.728 C334.302,26.984 333.784,27.112 333.208,27.112 C332.259,27.112 331.539,26.8453 331.048,26.312 C330.558,25.7787 330.312,24.9893 330.312,23.944 L330.312,18.952 L331.608,18.952 L331.608,23.912 C331.608,24.6373 331.758,25.1707 332.056,25.512 C332.355,25.8533 332.808,26.024 333.416,26.024 C334.131,26.024 334.707,25.7947 335.144,25.336 C335.582,24.8667 335.8,24.2533 335.8,23.496 L335.8,18.952 L337.096,18.952 Z M347.743,15.224 L347.743,27 L346.463,27 L346.463,25.544 C346.228,26.0453 345.871,26.4347 345.391,26.712 C344.922,26.9787 344.372,27.112 343.743,27.112 C343.039,27.112 342.415,26.936 341.871,26.584 C341.338,26.232 340.922,25.7413 340.623,25.112 C340.324,24.472 340.175,23.736 340.175,22.904 C340.175,22.072 340.319,21.3467 340.607,20.728 C340.906,20.0987 341.327,19.6133 341.871,19.272 C342.415,18.9307 343.039,18.76 343.743,18.76 C344.372,18.76 344.922,18.8987 345.391,19.176 C345.86,19.4427 346.212,19.8213 346.447,20.312 L346.447,15.224 L347.743,15.224 Z M343.999,26.04 C344.788,26.04 345.396,25.7733 345.823,25.24 C346.25,24.696 346.463,23.928 346.463,22.936 C346.463,21.9547 346.25,21.1973 345.823,20.664 C345.396,20.12 344.788,19.848 343.999,19.848 C343.21,19.848 342.591,20.1147 342.143,20.648 C341.706,21.1813 341.487,21.9333 341.487,22.904 C341.487,23.896 341.706,24.6693 342.143,25.224 C342.591,25.768 343.21,26.04 343.999,26.04 Z M359.26,27.112 C357.906,27.112 356.834,26.7653 356.044,26.072 L356.476,25.112 C356.914,25.4533 357.356,25.6987 357.804,25.848 C358.252,25.9973 358.754,26.072 359.308,26.072 C359.916,26.072 360.375,25.9707 360.684,25.768 C361.004,25.5547 361.164,25.2507 361.164,24.856 C361.164,24.536 361.058,24.28 360.844,24.088 C360.631,23.896 360.279,23.7467 359.788,23.64 L358.428,23.32 C357.756,23.1707 357.234,22.904 356.86,22.52 C356.498,22.136 356.316,21.6773 356.316,21.144 C356.316,20.44 356.599,19.8693 357.164,19.432 C357.73,18.984 358.476,18.76 359.404,18.76 C359.97,18.76 360.503,18.8507 361.004,19.032 C361.506,19.2133 361.927,19.4747 362.268,19.816 L361.836,20.76 C361.079,20.1307 360.268,19.816 359.404,19.816 C358.828,19.816 358.38,19.928 358.06,20.152 C357.751,20.3653 357.596,20.6693 357.596,21.064 C357.596,21.3947 357.692,21.656 357.884,21.848 C358.087,22.04 358.407,22.1893 358.844,22.296 L360.204,22.632 C360.951,22.8027 361.506,23.0693 361.868,23.432 C362.231,23.784 362.412,24.248 362.412,24.824 C362.412,25.5173 362.13,26.072 361.564,26.488 C360.999,26.904 360.231,27.112 359.26,27.112 Z M367.188,19.976 L367.188,24.376 C367.188,24.9733 367.311,25.3947 367.556,25.64 C367.801,25.8747 368.148,25.992 368.596,25.992 C368.895,25.992 369.183,25.944 369.46,25.848 L369.46,26.952 C369.129,27.0587 368.756,27.112 368.34,27.112 C367.572,27.112 366.969,26.8987 366.532,26.472 C366.105,26.0347 365.892,25.3947 365.892,24.552 L365.892,19.976 L364.324,19.976 L364.324,18.952 L365.892,18.952 L365.892,16.888 L367.188,16.424 L367.188,18.952 L369.492,18.952 L369.492,19.976 L367.188,19.976 Z M375.442,27.112 C374.684,27.112 374.018,26.9413 373.442,26.6 C372.866,26.2587 372.418,25.7733 372.098,25.144 C371.788,24.5147 371.634,23.7787 371.634,22.936 C371.634,22.0933 371.788,21.3573 372.098,20.728 C372.418,20.0987 372.866,19.6133 373.442,19.272 C374.018,18.9307 374.684,18.76 375.442,18.76 C376.199,18.76 376.866,18.9307 377.442,19.272 C378.018,19.6133 378.46,20.0987 378.77,20.728 C379.09,21.3573 379.25,22.0933 379.25,22.936 C379.25,23.7787 379.09,24.5147 378.77,25.144 C378.46,25.7733 378.018,26.2587 377.442,26.6 C376.866,26.9413 376.199,27.112 375.442,27.112 Z M375.442,26.04 C376.242,26.04 376.855,25.7787 377.282,25.256 C377.708,24.7227 377.922,23.9493 377.922,22.936 C377.922,21.9547 377.703,21.1973 377.266,20.664 C376.828,20.12 376.22,19.848 375.442,19.848 C374.652,19.848 374.039,20.12 373.602,20.664 C373.164,21.1973 372.946,21.9547 372.946,22.936 C372.946,23.9493 373.159,24.7227 373.586,25.256 C374.023,25.7787 374.642,26.04 375.442,26.04 Z M386.074,18.76 C386.341,18.76 386.586,18.792 386.81,18.856 L386.778,20.04 C386.533,19.9547 386.25,19.912 385.93,19.912 C385.151,19.912 384.57,20.1573 384.186,20.648 C383.813,21.128 383.626,21.7147 383.626,22.408 L383.626,27 L382.33,27 L382.33,21.208 C382.33,20.376 382.287,19.624 382.202,18.952 L383.434,18.952 L383.562,20.44 C383.765,19.896 384.09,19.48 384.538,19.192 C384.986,18.904 385.498,18.76 386.074,18.76 Z M396.119,18.952 L396.119,27 L394.839,27 L394.839,25.544 C394.604,26.0453 394.247,26.4347 393.767,26.712 C393.297,26.9787 392.748,27.112 392.119,27.112 C391.404,27.112 390.775,26.9413 390.231,26.6 C389.697,26.2587 389.281,25.7787 388.983,25.16 C388.695,24.5307 388.551,23.8 388.551,22.968 C388.551,22.136 388.7,21.4053 388.999,20.776 C389.297,20.136 389.713,19.64 390.247,19.288 C390.791,18.936 391.415,18.76 392.119,18.76 C392.748,18.76 393.297,18.8987 393.767,19.176 C394.236,19.4533 394.593,19.8427 394.839,20.344 L394.839,18.952 L396.119,18.952 Z M392.375,26.04 C393.164,26.04 393.772,25.7733 394.199,25.24 C394.625,24.696 394.839,23.928 394.839,22.936 C394.839,21.944 394.625,21.1813 394.199,20.648 C393.772,20.1147 393.164,19.848 392.375,19.848 C391.585,19.848 390.967,20.1253 390.519,20.68 C390.081,21.224 389.863,21.9867 389.863,22.968 C389.863,23.9493 390.081,24.7067 390.519,25.24 C390.956,25.7733 391.575,26.04 392.375,26.04 Z M406.852,18.952 L406.852,26.936 C406.852,28.1307 406.543,29.032 405.924,29.64 C405.316,30.2587 404.415,30.568 403.22,30.568 C401.994,30.568 400.938,30.2907 400.052,29.736 L400.276,28.68 C400.788,28.968 401.268,29.176 401.716,29.304 C402.175,29.432 402.676,29.496 403.22,29.496 C403.999,29.496 404.586,29.288 404.98,28.872 C405.375,28.4667 405.572,27.8587 405.572,27.048 L405.572,25.144 C405.327,25.656 404.964,26.056 404.484,26.344 C404.015,26.6213 403.455,26.76 402.804,26.76 C402.1,26.76 401.471,26.5947 400.916,26.264 C400.372,25.9333 399.951,25.464 399.652,24.856 C399.354,24.248 399.204,23.5493 399.204,22.76 C399.204,21.9707 399.354,21.272 399.652,20.664 C399.951,20.056 400.372,19.5867 400.916,19.256 C401.471,18.9253 402.1,18.76 402.804,18.76 C403.444,18.76 403.999,18.8987 404.468,19.176 C404.948,19.4533 405.311,19.8427 405.556,20.344 L405.556,18.952 L406.852,18.952 Z M403.06,25.672 C403.839,25.672 404.447,25.416 404.884,24.904 C405.332,24.3813 405.556,23.6667 405.556,22.76 C405.556,21.8533 405.332,21.144 404.884,20.632 C404.447,20.1093 403.839,19.848 403.06,19.848 C402.271,19.848 401.647,20.1093 401.188,20.632 C400.74,21.144 400.516,21.8533 400.516,22.76 C400.516,23.6667 400.74,24.3813 401.188,24.904 C401.647,25.416 402.271,25.672 403.06,25.672 Z M417.136,22.936 L411.232,22.936 C411.243,23.96 411.478,24.7333 411.936,25.256 C412.406,25.7787 413.083,26.04 413.968,26.04 C414.907,26.04 415.771,25.7253 416.56,25.096 L416.992,26.04 C416.64,26.3707 416.187,26.632 415.632,26.824 C415.088,27.016 414.528,27.112 413.952,27.112 C412.694,27.112 411.707,26.744 410.992,26.008 C410.278,25.2613 409.92,24.2427 409.92,22.952 C409.92,22.1307 410.08,21.4053 410.4,20.776 C410.72,20.136 411.168,19.64 411.744,19.288 C412.32,18.936 412.976,18.76 413.712,18.76 C414.779,18.76 415.616,19.112 416.224,19.816 C416.832,20.5093 417.136,21.4693 417.136,22.696 L417.136,22.936 Z M413.728,19.768 C413.056,19.768 412.507,19.9707 412.08,20.376 C411.664,20.7813 411.398,21.352 411.28,22.088 L415.968,22.088 C415.904,21.3307 415.68,20.7547 415.296,20.36 C414.923,19.9653 414.4,19.768 413.728,19.768 Z M432.483,18.952 L432.483,27 L431.203,27 L431.203,25.544 C430.969,26.0453 430.611,26.4347 430.131,26.712 C429.662,26.9787 429.113,27.112 428.483,27.112 C427.769,27.112 427.139,26.9413 426.595,26.6 C426.062,26.2587 425.646,25.7787 425.347,25.16 C425.059,24.5307 424.915,23.8 424.915,22.968 C424.915,22.136 425.065,21.4053 425.363,20.776 C425.662,20.136 426.078,19.64 426.611,19.288 C427.155,18.936 427.779,18.76 428.483,18.76 C429.113,18.76 429.662,18.8987 430.131,19.176 C430.601,19.4533 430.958,19.8427 431.203,20.344 L431.203,18.952 L432.483,18.952 Z M428.739,26.04 C429.529,26.04 430.137,25.7733 430.563,25.24 C430.99,24.696 431.203,23.928 431.203,22.936 C431.203,21.944 430.99,21.1813 430.563,20.648 C430.137,20.1147 429.529,19.848 428.739,19.848 C427.95,19.848 427.331,20.1253 426.883,20.68 C426.446,21.224 426.227,21.9867 426.227,22.968 C426.227,23.9493 426.446,24.7067 426.883,25.24 C427.321,25.7733 427.939,26.04 428.739,26.04 Z M440.065,18.76 C440.769,18.76 441.393,18.936 441.937,19.288 C442.481,19.64 442.903,20.136 443.201,20.776 C443.5,21.4053 443.649,22.136 443.649,22.968 C443.649,23.8 443.5,24.5307 443.201,25.16 C442.903,25.7787 442.481,26.2587 441.937,26.6 C441.404,26.9413 440.78,27.112 440.065,27.112 C439.436,27.112 438.887,26.9733 438.417,26.696 C437.948,26.4187 437.591,26.024 437.345,25.512 L437.345,30.456 L436.049,30.456 L436.049,21.208 C436.049,20.376 436.007,19.624 435.921,18.952 L437.153,18.952 L437.281,20.504 C437.505,19.9493 437.857,19.5227 438.337,19.224 C438.828,18.9147 439.404,18.76 440.065,18.76 Z M439.825,26.04 C440.615,26.04 441.223,25.7733 441.649,25.24 C442.087,24.7067 442.305,23.9493 442.305,22.968 C442.305,21.9867 442.087,21.224 441.649,20.68 C441.212,20.1253 440.604,19.848 439.825,19.848 C439.025,19.848 438.412,20.1147 437.985,20.648 C437.559,21.1813 437.345,21.944 437.345,22.936 C437.345,23.928 437.559,24.696 437.985,25.24 C438.412,25.7733 439.025,26.04 439.825,26.04 Z M450.719,18.76 C451.423,18.76 452.047,18.936 452.591,19.288 C453.135,19.64 453.556,20.136 453.855,20.776 C454.154,21.4053 454.303,22.136 454.303,22.968 C454.303,23.8 454.154,24.5307 453.855,25.16 C453.556,25.7787 453.135,26.2587 452.591,26.6 C452.058,26.9413 451.434,27.112 450.719,27.112 C450.09,27.112 449.54,26.9733 449.071,26.696 C448.602,26.4187 448.244,26.024 447.999,25.512 L447.999,30.456 L446.703,30.456 L446.703,21.208 C446.703,20.376 446.66,19.624 446.575,18.952 L447.807,18.952 L447.935,20.504 C448.159,19.9493 448.511,19.5227 448.991,19.224 C449.482,18.9147 450.058,18.76 450.719,18.76 Z M450.479,26.04 C451.268,26.04 451.876,25.7733 452.303,25.24 C452.74,24.7067 452.959,23.9493 452.959,22.968 C452.959,21.9867 452.74,21.224 452.303,20.68 C451.866,20.1253 451.258,19.848 450.479,19.848 C449.679,19.848 449.066,20.1147 448.639,20.648 C448.212,21.1813 447.999,21.944 447.999,22.936 C447.999,23.928 448.212,24.696 448.639,25.24 C449.066,25.7733 449.679,26.04 450.479,26.04 Z M457.357,27 L457.357,15.224 L458.653,15.224 L458.653,27 L457.357,27 Z M462.229,27 L462.229,18.952 L463.525,18.952 L463.525,27 L462.229,27 Z M462.101,15.544 L463.685,15.544 L463.685,17.016 L462.101,17.016 L462.101,15.544 Z M470.478,27.112 C469.699,27.112 469.016,26.9413 468.43,26.6 C467.854,26.2587 467.406,25.7787 467.086,25.16 C466.776,24.5307 466.622,23.8 466.622,22.968 C466.622,22.136 466.782,21.4053 467.102,20.776 C467.422,20.136 467.875,19.64 468.462,19.288 C469.059,18.936 469.752,18.76 470.542,18.76 C471.086,18.76 471.608,18.856 472.11,19.048 C472.622,19.2293 473.043,19.4853 473.374,19.816 L472.942,20.776 C472.536,20.456 472.142,20.2213 471.758,20.072 C471.384,19.9227 471,19.848 470.606,19.848 C469.784,19.848 469.139,20.1253 468.67,20.68 C468.2,21.224 467.966,21.9867 467.966,22.968 C467.966,23.9387 468.195,24.696 468.654,25.24 C469.123,25.7733 469.774,26.04 470.606,26.04 C471,26.04 471.384,25.9653 471.758,25.816 C472.142,25.6667 472.536,25.432 472.942,25.112 L473.374,26.072 C473.032,26.392 472.6,26.648 472.078,26.84 C471.566,27.0213 471.032,27.112 470.478,27.112 Z M483.172,18.952 L483.172,27 L481.892,27 L481.892,25.544 C481.657,26.0453 481.3,26.4347 480.82,26.712 C480.35,26.9787 479.801,27.112 479.172,27.112 C478.457,27.112 477.828,26.9413 477.284,26.6 C476.75,26.2587 476.334,25.7787 476.036,25.16 C475.748,24.5307 475.604,23.8 475.604,22.968 C475.604,22.136 475.753,21.4053 476.052,20.776 C476.35,20.136 476.766,19.64 477.3,19.288 C477.844,18.936 478.468,18.76 479.172,18.76 C479.801,18.76 480.35,18.8987 480.82,19.176 C481.289,19.4533 481.646,19.8427 481.892,20.344 L481.892,18.952 L483.172,18.952 Z M479.428,26.04 C480.217,26.04 480.825,25.7733 481.252,25.24 C481.678,24.696 481.892,23.928 481.892,22.936 C481.892,21.944 481.678,21.1813 481.252,20.648 C480.825,20.1147 480.217,19.848 479.428,19.848 C478.638,19.848 478.02,20.1253 477.572,20.68 C477.134,21.224 476.916,21.9867 476.916,22.968 C476.916,23.9493 477.134,24.7067 477.572,25.24 C478.009,25.7733 478.628,26.04 479.428,26.04 Z M488.465,19.976 L488.465,24.376 C488.465,24.9733 488.588,25.3947 488.833,25.64 C489.079,25.8747 489.425,25.992 489.873,25.992 C490.172,25.992 490.46,25.944 490.737,25.848 L490.737,26.952 C490.407,27.0587 490.033,27.112 489.617,27.112 C488.849,27.112 488.247,26.8987 487.809,26.472 C487.383,26.0347 487.169,25.3947 487.169,24.552 L487.169,19.976 L485.601,19.976 L485.601,18.952 L487.169,18.952 L487.169,16.888 L488.465,16.424 L488.465,18.952 L490.769,18.952 L490.769,19.976 L488.465,19.976 Z M493.391,27 L493.391,18.952 L494.687,18.952 L494.687,27 L493.391,27 Z M493.263,15.544 L494.847,15.544 L494.847,17.016 L493.263,17.016 L493.263,15.544 Z M501.592,27.112 C500.834,27.112 500.168,26.9413 499.592,26.6 C499.016,26.2587 498.568,25.7733 498.248,25.144 C497.938,24.5147 497.784,23.7787 497.784,22.936 C497.784,22.0933 497.938,21.3573 498.248,20.728 C498.568,20.0987 499.016,19.6133 499.592,19.272 C500.168,18.9307 500.834,18.76 501.592,18.76 C502.349,18.76 503.016,18.9307 503.592,19.272 C504.168,19.6133 504.61,20.0987 504.92,20.728 C505.24,21.3573 505.4,22.0933 505.4,22.936 C505.4,23.7787 505.24,24.5147 504.92,25.144 C504.61,25.7733 504.168,26.2587 503.592,26.6 C503.016,26.9413 502.349,27.112 501.592,27.112 Z M501.592,26.04 C502.392,26.04 503.005,25.7787 503.432,25.256 C503.858,24.7227 504.072,23.9493 504.072,22.936 C504.072,21.9547 503.853,21.1973 503.416,20.664 C502.978,20.12 502.37,19.848 501.592,19.848 C500.802,19.848 500.189,20.12 499.752,20.664 C499.314,21.1973 499.096,21.9547 499.096,22.936 C499.096,23.9493 499.309,24.7227 499.736,25.256 C500.173,25.7787 500.792,26.04 501.592,26.04 Z M512.496,18.76 C514.427,18.76 515.392,19.8213 515.392,21.944 L515.392,27 L514.096,27 L514.096,22.008 C514.096,21.2613 513.947,20.7173 513.648,20.376 C513.349,20.024 512.88,19.848 512.24,19.848 C511.493,19.848 510.896,20.0773 510.448,20.536 C510,20.9947 509.776,21.6133 509.776,22.392 L509.776,27 L508.48,27 L508.48,21.208 C508.48,20.376 508.437,19.624 508.352,18.952 L509.584,18.952 L509.712,20.392 C509.957,19.8693 510.325,19.4693 510.816,19.192 C511.307,18.904 511.867,18.76 512.496,18.76 Z M525.859,19.976 L525.859,24.376 C525.859,24.9733 525.982,25.3947 526.227,25.64 C526.472,25.8747 526.819,25.992 527.267,25.992 C527.566,25.992 527.854,25.944 528.131,25.848 L528.131,26.952 C527.8,27.0587 527.427,27.112 527.011,27.112 C526.243,27.112 525.64,26.8987 525.203,26.472 C524.776,26.0347 524.563,25.3947 524.563,24.552 L524.563,19.976 L522.995,19.976 L522.995,18.952 L524.563,18.952 L524.563,16.888 L525.859,16.424 L525.859,18.952 L528.163,18.952 L528.163,19.976 L525.859,19.976 Z M534.801,18.76 C536.732,18.76 537.697,19.8213 537.697,21.944 L537.697,27 L536.401,27 L536.401,22.008 C536.401,21.2613 536.252,20.7173 535.953,20.376 C535.654,20.024 535.185,19.848 534.545,19.848 C533.798,19.848 533.201,20.0773 532.753,20.536 C532.305,20.9947 532.081,21.6133 532.081,22.392 L532.081,27 L530.785,27 L530.785,15.224 L532.081,15.224 L532.081,20.264 C532.337,19.7733 532.7,19.4 533.169,19.144 C533.649,18.888 534.193,18.76 534.801,18.76 Z M548.292,18.952 L548.292,27 L547.012,27 L547.012,25.544 C546.778,26.0453 546.42,26.4347 545.94,26.712 C545.471,26.9787 544.922,27.112 544.292,27.112 C543.578,27.112 542.948,26.9413 542.404,26.6 C541.871,26.2587 541.455,25.7787 541.156,25.16 C540.868,24.5307 540.724,23.8 540.724,22.968 C540.724,22.136 540.874,21.4053 541.172,20.776 C541.471,20.136 541.887,19.64 542.42,19.288 C542.964,18.936 543.588,18.76 544.292,18.76 C544.922,18.76 545.471,18.8987 545.94,19.176 C546.41,19.4533 546.767,19.8427 547.012,20.344 L547.012,18.952 L548.292,18.952 Z M544.548,26.04 C545.338,26.04 545.946,25.7733 546.372,25.24 C546.799,24.696 547.012,23.928 547.012,22.936 C547.012,21.944 546.799,21.1813 546.372,20.648 C545.946,20.1147 545.338,19.848 544.548,19.848 C543.759,19.848 543.14,20.1253 542.692,20.68 C542.255,21.224 542.036,21.9867 542.036,22.968 C542.036,23.9493 542.255,24.7067 542.692,25.24 C543.13,25.7733 543.748,26.04 544.548,26.04 Z M553.586,19.976 L553.586,24.376 C553.586,24.9733 553.709,25.3947 553.954,25.64 C554.199,25.8747 554.546,25.992 554.994,25.992 C555.293,25.992 555.581,25.944 555.858,25.848 L555.858,26.952 C555.527,27.0587 555.154,27.112 554.738,27.112 C553.97,27.112 553.367,26.8987 552.93,26.472 C552.503,26.0347 552.29,25.3947 552.29,24.552 L552.29,19.976 L550.722,19.976 L550.722,18.952 L552.29,18.952 L552.29,16.888 L553.586,16.424 L553.586,18.952 L555.89,18.952 L555.89,19.976 L553.586,19.976 Z M292.264,42.76 C294.195,42.76 295.16,43.8213 295.16,45.944 L295.16,51 L293.864,51 L293.864,46.008 C293.864,45.2613 293.715,44.7173 293.416,44.376 C293.117,44.024 292.648,43.848 292.008,43.848 C291.261,43.848 290.664,44.0773 290.216,44.536 C289.768,44.9947 289.544,45.6133 289.544,46.392 L289.544,51 L288.248,51 L288.248,39.224 L289.544,39.224 L289.544,44.264 C289.8,43.7733 290.163,43.4 290.632,43.144 C291.112,42.888 291.656,42.76 292.264,42.76 Z M305.403,46.936 L299.499,46.936 C299.51,47.96 299.745,48.7333 300.203,49.256 C300.673,49.7787 301.35,50.04 302.235,50.04 C303.174,50.04 304.038,49.7253 304.827,49.096 L305.259,50.04 C304.907,50.3707 304.454,50.632 303.899,50.824 C303.355,51.016 302.795,51.112 302.219,51.112 C300.961,51.112 299.974,50.744 299.259,50.008 C298.545,49.2613 298.187,48.2427 298.187,46.952 C298.187,46.1307 298.347,45.4053 298.667,44.776 C298.987,44.136 299.435,43.64 300.011,43.288 C300.587,42.936 301.243,42.76 301.979,42.76 C303.046,42.76 303.883,43.112 304.491,43.816 C305.099,44.5093 305.403,45.4693 305.403,46.696 L305.403,46.936 Z M301.995,43.768 C301.323,43.768 300.774,43.9707 300.347,44.376 C299.931,44.7813 299.665,45.352 299.547,46.088 L304.235,46.088 C304.171,45.3307 303.947,44.7547 303.563,44.36 C303.19,43.9653 302.667,43.768 301.995,43.768 Z M308.43,51 L308.43,39.224 L309.726,39.224 L309.726,51 L308.43,51 Z M317.319,42.76 C318.023,42.76 318.647,42.936 319.191,43.288 C319.735,43.64 320.156,44.136 320.455,44.776 C320.754,45.4053 320.903,46.136 320.903,46.968 C320.903,47.8 320.754,48.5307 320.455,49.16 C320.156,49.7787 319.735,50.2587 319.191,50.6 C318.658,50.9413 318.034,51.112 317.319,51.112 C316.69,51.112 316.14,50.9733 315.671,50.696 C315.202,50.4187 314.844,50.024 314.599,49.512 L314.599,54.456 L313.303,54.456 L313.303,45.208 C313.303,44.376 313.26,43.624 313.175,42.952 L314.407,42.952 L314.535,44.504 C314.759,43.9493 315.111,43.5227 315.591,43.224 C316.082,42.9147 316.658,42.76 317.319,42.76 Z M317.079,50.04 C317.868,50.04 318.476,49.7733 318.903,49.24 C319.34,48.7067 319.559,47.9493 319.559,46.968 C319.559,45.9867 319.34,45.224 318.903,44.68 C318.466,44.1253 317.858,43.848 317.079,43.848 C316.279,43.848 315.666,44.1147 315.239,44.648 C314.812,45.1813 314.599,45.944 314.599,46.936 C314.599,47.928 314.812,48.696 315.239,49.24 C315.666,49.7733 316.279,50.04 317.079,50.04 Z M326.677,51.112 C325.322,51.112 324.25,50.7653 323.461,50.072 L323.893,49.112 C324.33,49.4533 324.773,49.6987 325.221,49.848 C325.669,49.9973 326.17,50.072 326.725,50.072 C327.333,50.072 327.791,49.9707 328.101,49.768 C328.421,49.5547 328.581,49.2507 328.581,48.856 C328.581,48.536 328.474,48.28 328.261,48.088 C328.047,47.896 327.695,47.7467 327.205,47.64 L325.845,47.32 C325.173,47.1707 324.65,46.904 324.277,46.52 C323.914,46.136 323.733,45.6773 323.733,45.144 C323.733,44.44 324.015,43.8693 324.581,43.432 C325.146,42.984 325.893,42.76 326.821,42.76 C327.386,42.76 327.919,42.8507 328.421,43.032 C328.922,43.2133 329.343,43.4747 329.685,43.816 L329.253,44.76 C328.495,44.1307 327.685,43.816 326.821,43.816 C326.245,43.816 325.797,43.928 325.477,44.152 C325.167,44.3653 325.013,44.6693 325.013,45.064 C325.013,45.3947 325.109,45.656 325.301,45.848 C325.503,46.04 325.823,46.1893 326.261,46.296 L327.621,46.632 C328.367,46.8027 328.922,47.0693 329.285,47.432 C329.647,47.784 329.829,48.248 329.829,48.824 C329.829,49.5173 329.546,50.072 328.981,50.488 C328.415,50.904 327.647,51.112 326.677,51.112 Z M342.202,42.76 C342.906,42.76 343.53,42.9307 344.074,43.272 C344.618,43.6133 345.039,44.0987 345.338,44.728 C345.637,45.3467 345.786,46.072 345.786,46.904 C345.786,47.736 345.637,48.472 345.338,49.112 C345.039,49.7413 344.618,50.232 344.074,50.584 C343.53,50.936 342.906,51.112 342.202,51.112 C341.573,51.112 341.023,50.9733 340.554,50.696 C340.085,50.4187 339.727,50.024 339.482,49.512 L339.482,51 L338.186,51 L338.186,39.224 L339.482,39.224 L339.482,44.376 C339.717,43.8533 340.069,43.4533 340.538,43.176 C341.018,42.8987 341.573,42.76 342.202,42.76 Z M341.962,50.04 C342.741,50.04 343.349,49.768 343.786,49.224 C344.223,48.6693 344.442,47.896 344.442,46.904 C344.442,45.9333 344.223,45.1813 343.786,44.648 C343.359,44.1147 342.751,43.848 341.962,43.848 C341.162,43.848 340.549,44.1147 340.122,44.648 C339.695,45.1813 339.482,45.944 339.482,46.936 C339.482,47.928 339.695,48.696 340.122,49.24 C340.549,49.7733 341.162,50.04 341.962,50.04 Z M355.576,42.952 L355.576,51 L354.312,51 L354.312,49.608 C354.056,50.0987 353.699,50.472 353.24,50.728 C352.781,50.984 352.264,51.112 351.688,51.112 C350.739,51.112 350.019,50.8453 349.528,50.312 C349.037,49.7787 348.792,48.9893 348.792,47.944 L348.792,42.952 L350.088,42.952 L350.088,47.912 C350.088,48.6373 350.237,49.1707 350.536,49.512 C350.835,49.8533 351.288,50.024 351.896,50.024 C352.611,50.024 353.187,49.7947 353.624,49.336 C354.061,48.8667 354.28,48.2533 354.28,47.496 L354.28,42.952 L355.576,42.952 Z M361.854,51.112 C360.5,51.112 359.428,50.7653 358.638,50.072 L359.07,49.112 C359.508,49.4533 359.95,49.6987 360.398,49.848 C360.846,49.9973 361.348,50.072 361.902,50.072 C362.51,50.072 362.969,49.9707 363.278,49.768 C363.598,49.5547 363.758,49.2507 363.758,48.856 C363.758,48.536 363.652,48.28 363.438,48.088 C363.225,47.896 362.873,47.7467 362.382,47.64 L361.022,47.32 C360.35,47.1707 359.828,46.904 359.454,46.52 C359.092,46.136 358.91,45.6773 358.91,45.144 C358.91,44.44 359.193,43.8693 359.758,43.432 C360.324,42.984 361.07,42.76 361.998,42.76 C362.564,42.76 363.097,42.8507 363.598,43.032 C364.1,43.2133 364.521,43.4747 364.862,43.816 L364.43,44.76 C363.673,44.1307 362.862,43.816 361.998,43.816 C361.422,43.816 360.974,43.928 360.654,44.152 C360.345,44.3653 360.19,44.6693 360.19,45.064 C360.19,45.3947 360.286,45.656 360.478,45.848 C360.681,46.04 361.001,46.1893 361.438,46.296 L362.798,46.632 C363.545,46.8027 364.1,47.0693 364.462,47.432 C364.825,47.784 365.006,48.248 365.006,48.824 C365.006,49.5173 364.724,50.072 364.158,50.488 C363.593,50.904 362.825,51.112 361.854,51.112 Z M375.063,42.952 L371.303,51.736 C370.908,52.6533 370.412,53.3253 369.815,53.752 C369.218,54.1787 368.482,54.472 367.607,54.632 L367.335,53.624 C368.092,53.4533 368.663,53.224 369.047,52.936 C369.442,52.6587 369.767,52.2267 370.023,51.64 L370.343,50.92 L366.935,42.952 L368.295,42.952 L371.015,49.592 L373.767,42.952 L375.063,42.952 Z M386.159,51.112 C385.38,51.112 384.698,50.9413 384.111,50.6 C383.535,50.2587 383.087,49.7787 382.767,49.16 C382.458,48.5307 382.303,47.8 382.303,46.968 C382.303,46.136 382.463,45.4053 382.783,44.776 C383.103,44.136 383.556,43.64 384.143,43.288 C384.74,42.936 385.434,42.76 386.223,42.76 C386.767,42.76 387.29,42.856 387.791,43.048 C388.303,43.2293 388.724,43.4853 389.055,43.816 L388.623,44.776 C388.218,44.456 387.823,44.2213 387.439,44.072 C387.066,43.9227 386.682,43.848 386.287,43.848 C385.466,43.848 384.82,44.1253 384.351,44.68 C383.882,45.224 383.647,45.9867 383.647,46.968 C383.647,47.9387 383.876,48.696 384.335,49.24 C384.804,49.7733 385.455,50.04 386.287,50.04 C386.682,50.04 387.066,49.9653 387.439,49.816 C387.823,49.6667 388.218,49.432 388.623,49.112 L389.055,50.072 C388.714,50.392 388.282,50.648 387.759,50.84 C387.247,51.0213 386.714,51.112 386.159,51.112 Z M395.509,42.76 C395.776,42.76 396.021,42.792 396.245,42.856 L396.213,44.04 C395.968,43.9547 395.685,43.912 395.365,43.912 C394.586,43.912 394.005,44.1573 393.621,44.648 C393.248,45.128 393.061,45.7147 393.061,46.408 L393.061,51 L391.765,51 L391.765,45.208 C391.765,44.376 391.722,43.624 391.637,42.952 L392.869,42.952 L392.997,44.44 C393.2,43.896 393.525,43.48 393.973,43.192 C394.421,42.904 394.933,42.76 395.509,42.76 Z M405.201,46.936 L399.297,46.936 C399.308,47.96 399.543,48.7333 400.001,49.256 C400.471,49.7787 401.148,50.04 402.033,50.04 C402.972,50.04 403.836,49.7253 404.625,49.096 L405.057,50.04 C404.705,50.3707 404.252,50.632 403.697,50.824 C403.153,51.016 402.593,51.112 402.017,51.112 C400.759,51.112 399.772,50.744 399.057,50.008 C398.343,49.2613 397.985,48.2427 397.985,46.952 C397.985,46.1307 398.145,45.4053 398.465,44.776 C398.785,44.136 399.233,43.64 399.809,43.288 C400.385,42.936 401.041,42.76 401.777,42.76 C402.844,42.76 403.681,43.112 404.289,43.816 C404.897,44.5093 405.201,45.4693 405.201,46.696 L405.201,46.936 Z M401.793,43.768 C401.121,43.768 400.572,43.9707 400.145,44.376 C399.729,44.7813 399.463,45.352 399.345,46.088 L404.033,46.088 C403.969,45.3307 403.745,44.7547 403.361,44.36 C402.988,43.9653 402.465,43.768 401.793,43.768 Z M415.317,42.952 L415.317,51 L414.037,51 L414.037,49.544 C413.802,50.0453 413.445,50.4347 412.965,50.712 C412.495,50.9787 411.946,51.112 411.317,51.112 C410.602,51.112 409.973,50.9413 409.429,50.6 C408.895,50.2587 408.479,49.7787 408.181,49.16 C407.893,48.5307 407.749,47.8 407.749,46.968 C407.749,46.136 407.898,45.4053 408.197,44.776 C408.495,44.136 408.911,43.64 409.445,43.288 C409.989,42.936 410.613,42.76 411.317,42.76 C411.946,42.76 412.495,42.8987 412.965,43.176 C413.434,43.4533 413.791,43.8427 414.037,44.344 L414.037,42.952 L415.317,42.952 Z M411.573,50.04 C412.362,50.04 412.97,49.7733 413.397,49.24 C413.823,48.696 414.037,47.928 414.037,46.936 C414.037,45.944 413.823,45.1813 413.397,44.648 C412.97,44.1147 412.362,43.848 411.573,43.848 C410.783,43.848 410.165,44.1253 409.717,44.68 C409.279,45.224 409.061,45.9867 409.061,46.968 C409.061,47.9493 409.279,48.7067 409.717,49.24 C410.154,49.7733 410.773,50.04 411.573,50.04 Z M420.61,43.976 L420.61,48.376 C420.61,48.9733 420.733,49.3947 420.978,49.64 C421.224,49.8747 421.57,49.992 422.018,49.992 C422.317,49.992 422.605,49.944 422.882,49.848 L422.882,50.952 C422.552,51.0587 422.178,51.112 421.762,51.112 C420.994,51.112 420.392,50.8987 419.954,50.472 C419.528,50.0347 419.314,49.3947 419.314,48.552 L419.314,43.976 L417.746,43.976 L417.746,42.952 L419.314,42.952 L419.314,40.888 L420.61,40.424 L420.61,42.952 L422.914,42.952 L422.914,43.976 L420.61,43.976 Z M425.536,51 L425.536,42.952 L426.832,42.952 L426.832,51 L425.536,51 Z M425.408,39.544 L426.992,39.544 L426.992,41.016 L425.408,41.016 L425.408,39.544 Z M436.185,42.968 L437.481,42.968 L434.009,51 L432.777,51 L429.353,42.968 L430.713,42.968 L433.433,49.592 L436.185,42.968 Z M446.611,46.936 L440.707,46.936 C440.718,47.96 440.952,48.7333 441.411,49.256 C441.88,49.7787 442.558,50.04 443.443,50.04 C444.382,50.04 445.246,49.7253 446.035,49.096 L446.467,50.04 C446.115,50.3707 445.662,50.632 445.107,50.824 C444.563,51.016 444.003,51.112 443.427,51.112 C442.168,51.112 441.182,50.744 440.467,50.008 C439.752,49.2613 439.395,48.2427 439.395,46.952 C439.395,46.1307 439.555,45.4053 439.875,44.776 C440.195,44.136 440.643,43.64 441.219,43.288 C441.795,42.936 442.451,42.76 443.187,42.76 C444.254,42.76 445.091,43.112 445.699,43.816 C446.307,44.5093 446.611,45.4693 446.611,46.696 L446.611,46.936 Z M443.203,43.768 C442.531,43.768 441.982,43.9707 441.555,44.376 C441.139,44.7813 440.872,45.352 440.755,46.088 L445.443,46.088 C445.379,45.3307 445.155,44.7547 444.771,44.36 C444.398,43.9653 443.875,43.768 443.203,43.768 Z M452.358,51.112 C451.003,51.112 449.931,50.7653 449.142,50.072 L449.574,49.112 C450.011,49.4533 450.454,49.6987 450.902,49.848 C451.35,49.9973 451.851,50.072 452.406,50.072 C453.014,50.072 453.473,49.9707 453.782,49.768 C454.102,49.5547 454.262,49.2507 454.262,48.856 C454.262,48.536 454.155,48.28 453.942,48.088 C453.729,47.896 453.377,47.7467 452.886,47.64 L451.526,47.32 C450.854,47.1707 450.331,46.904 449.958,46.52 C449.595,46.136 449.414,45.6773 449.414,45.144 C449.414,44.44 449.697,43.8693 450.262,43.432 C450.827,42.984 451.574,42.76 452.502,42.76 C453.067,42.76 453.601,42.8507 454.102,43.032 C454.603,43.2133 455.025,43.4747 455.366,43.816 L454.934,44.76 C454.177,44.1307 453.366,43.816 452.502,43.816 C451.926,43.816 451.478,43.928 451.158,44.152 C450.849,44.3653 450.694,44.6693 450.694,45.064 C450.694,45.3947 450.79,45.656 450.982,45.848 C451.185,46.04 451.505,46.1893 451.942,46.296 L453.302,46.632 C454.049,46.8027 454.603,47.0693 454.966,47.432 C455.329,47.784 455.51,48.248 455.51,48.824 C455.51,49.5173 455.227,50.072 454.662,50.488 C454.097,50.904 453.329,51.112 452.358,51.112 Z M472.795,42.76 C474.577,42.76 475.467,43.8213 475.467,45.944 L475.467,51 L474.171,51 L474.171,46.008 C474.171,45.2507 474.038,44.7013 473.771,44.36 C473.515,44.0187 473.094,43.848 472.507,43.848 C471.825,43.848 471.291,44.0773 470.907,44.536 C470.523,44.9947 470.331,45.6187 470.331,46.408 L470.331,51 L469.035,51 L469.035,46.008 C469.035,45.2613 468.902,44.7173 468.635,44.376 C468.369,44.024 467.942,43.848 467.355,43.848 C466.673,43.848 466.134,44.0773 465.739,44.536 C465.355,44.9947 465.163,45.6187 465.163,46.408 L465.163,51 L463.867,51 L463.867,45.208 C463.867,44.376 463.825,43.624 463.739,42.952 L464.971,42.952 L465.099,44.36 C465.323,43.848 465.654,43.4533 466.091,43.176 C466.539,42.8987 467.057,42.76 467.643,42.76 C468.283,42.76 468.806,42.888 469.211,43.144 C469.617,43.4 469.915,43.7947 470.107,44.328 C470.353,43.848 470.71,43.4693 471.179,43.192 C471.659,42.904 472.198,42.76 472.795,42.76 Z M486.078,42.952 L486.078,51 L484.798,51 L484.798,49.544 C484.563,50.0453 484.206,50.4347 483.726,50.712 C483.257,50.9787 482.707,51.112 482.078,51.112 C481.363,51.112 480.734,50.9413 480.19,50.6 C479.657,50.2587 479.241,49.7787 478.942,49.16 C478.654,48.5307 478.51,47.8 478.51,46.968 C478.51,46.136 478.659,45.4053 478.958,44.776 C479.257,44.136 479.673,43.64 480.206,43.288 C480.75,42.936 481.374,42.76 482.078,42.76 C482.707,42.76 483.257,42.8987 483.726,43.176 C484.195,43.4533 484.553,43.8427 484.798,44.344 L484.798,42.952 L486.078,42.952 Z M482.334,50.04 C483.123,50.04 483.731,49.7733 484.158,49.24 C484.585,48.696 484.798,47.928 484.798,46.936 C484.798,45.944 484.585,45.1813 484.158,44.648 C483.731,44.1147 483.123,43.848 482.334,43.848 C481.545,43.848 480.926,44.1253 480.478,44.68 C480.041,45.224 479.822,45.9867 479.822,46.968 C479.822,47.9493 480.041,48.7067 480.478,49.24 C480.915,49.7733 481.534,50.04 482.334,50.04 Z M493.66,42.76 C495.59,42.76 496.556,43.8213 496.556,45.944 L496.556,51 L495.26,51 L495.26,46.008 C495.26,45.2613 495.11,44.7173 494.812,44.376 C494.513,44.024 494.044,43.848 493.404,43.848 C492.657,43.848 492.06,44.0773 491.612,44.536 C491.164,44.9947 490.94,45.6133 490.94,46.392 L490.94,51 L489.644,51 L489.644,45.208 C489.644,44.376 489.601,43.624 489.516,42.952 L490.748,42.952 L490.876,44.392 C491.121,43.8693 491.489,43.4693 491.98,43.192 C492.47,42.904 493.03,42.76 493.66,42.76 Z M507.151,42.952 L507.151,51 L505.871,51 L505.871,49.544 C505.636,50.0453 505.279,50.4347 504.799,50.712 C504.33,50.9787 503.78,51.112 503.151,51.112 C502.436,51.112 501.807,50.9413 501.263,50.6 C500.73,50.2587 500.314,49.7787 500.015,49.16 C499.727,48.5307 499.583,47.8 499.583,46.968 C499.583,46.136 499.732,45.4053 500.031,44.776 C500.33,44.136 500.746,43.64 501.279,43.288 C501.823,42.936 502.447,42.76 503.151,42.76 C503.78,42.76 504.33,42.8987 504.799,43.176 C505.268,43.4533 505.626,43.8427 505.871,44.344 L505.871,42.952 L507.151,42.952 Z M503.407,50.04 C504.196,50.04 504.804,49.7733 505.231,49.24 C505.658,48.696 505.871,47.928 505.871,46.936 C505.871,45.944 505.658,45.1813 505.231,44.648 C504.804,44.1147 504.196,43.848 503.407,43.848 C502.618,43.848 501.999,44.1253 501.551,44.68 C501.114,45.224 500.895,45.9867 500.895,46.968 C500.895,47.9493 501.114,48.7067 501.551,49.24 C501.988,49.7733 502.607,50.04 503.407,50.04 Z M517.885,42.952 L517.885,50.936 C517.885,52.1307 517.575,53.032 516.957,53.64 C516.349,54.2587 515.447,54.568 514.253,54.568 C513.026,54.568 511.97,54.2907 511.085,53.736 L511.309,52.68 C511.821,52.968 512.301,53.176 512.749,53.304 C513.207,53.432 513.709,53.496 514.253,53.496 C515.031,53.496 515.618,53.288 516.013,52.872 C516.407,52.4667 516.605,51.8587 516.605,51.048 L516.605,49.144 C516.359,49.656 515.997,50.056 515.517,50.344 C515.047,50.6213 514.487,50.76 513.837,50.76 C513.133,50.76 512.503,50.5947 511.949,50.264 C511.405,49.9333 510.983,49.464 510.685,48.856 C510.386,48.248 510.237,47.5493 510.237,46.76 C510.237,45.9707 510.386,45.272 510.685,44.664 C510.983,44.056 511.405,43.5867 511.949,43.256 C512.503,42.9253 513.133,42.76 513.837,42.76 C514.477,42.76 515.031,42.8987 515.501,43.176 C515.981,43.4533 516.343,43.8427 516.589,44.344 L516.589,42.952 L517.885,42.952 Z M514.093,49.672 C514.871,49.672 515.479,49.416 515.917,48.904 C516.365,48.3813 516.589,47.6667 516.589,46.76 C516.589,45.8533 516.365,45.144 515.917,44.632 C515.479,44.1093 514.871,43.848 514.093,43.848 C513.303,43.848 512.679,44.1093 512.221,44.632 C511.773,45.144 511.549,45.8533 511.549,46.76 C511.549,47.6667 511.773,48.3813 512.221,48.904 C512.679,49.416 513.303,49.672 514.093,49.672 Z M528.169,46.936 L522.265,46.936 C522.276,47.96 522.51,48.7333 522.969,49.256 C523.438,49.7787 524.116,50.04 525.001,50.04 C525.94,50.04 526.804,49.7253 527.593,49.096 L528.025,50.04 C527.673,50.3707 527.22,50.632 526.665,50.824 C526.121,51.016 525.561,51.112 524.985,51.112 C523.726,51.112 522.74,50.744 522.025,50.008 C521.31,49.2613 520.953,48.2427 520.953,46.952 C520.953,46.1307 521.113,45.4053 521.433,44.776 C521.753,44.136 522.201,43.64 522.777,43.288 C523.353,42.936 524.009,42.76 524.745,42.76 C525.812,42.76 526.649,43.112 527.257,43.816 C527.865,44.5093 528.169,45.4693 528.169,46.696 L528.169,46.936 Z M524.761,43.768 C524.089,43.768 523.54,43.9707 523.113,44.376 C522.697,44.7813 522.43,45.352 522.313,46.088 L527.001,46.088 C526.937,45.3307 526.713,44.7547 526.329,44.36 C525.956,43.9653 525.433,43.768 524.761,43.768 Z M543.516,42.952 L543.516,51 L542.236,51 L542.236,49.544 C542.001,50.0453 541.644,50.4347 541.164,50.712 C540.695,50.9787 540.145,51.112 539.516,51.112 C538.801,51.112 538.172,50.9413 537.628,50.6 C537.095,50.2587 536.679,49.7787 536.38,49.16 C536.092,48.5307 535.948,47.8 535.948,46.968 C535.948,46.136 536.097,45.4053 536.396,44.776 C536.695,44.136 537.111,43.64 537.644,43.288 C538.188,42.936 538.812,42.76 539.516,42.76 C540.145,42.76 540.695,42.8987 541.164,43.176 C541.633,43.4533 541.991,43.8427 542.236,44.344 L542.236,42.952 L543.516,42.952 Z M539.772,50.04 C540.561,50.04 541.169,49.7733 541.596,49.24 C542.023,48.696 542.236,47.928 542.236,46.936 C542.236,45.944 542.023,45.1813 541.596,44.648 C541.169,44.1147 540.561,43.848 539.772,43.848 C538.983,43.848 538.364,44.1253 537.916,44.68 C537.479,45.224 537.26,45.9867 537.26,46.968 C537.26,47.9493 537.479,48.7067 537.916,49.24 C538.353,49.7733 538.972,50.04 539.772,50.04 Z M551.098,42.76 C553.028,42.76 553.994,43.8213 553.994,45.944 L553.994,51 L552.698,51 L552.698,46.008 C552.698,45.2613 552.548,44.7173 552.25,44.376 C551.951,44.024 551.482,43.848 550.842,43.848 C550.095,43.848 549.498,44.0773 549.05,44.536 C548.602,44.9947 548.378,45.6133 548.378,46.392 L548.378,51 L547.082,51 L547.082,45.208 C547.082,44.376 547.039,43.624 546.954,42.952 L548.186,42.952 L548.314,44.392 C548.559,43.8693 548.927,43.4693 549.418,43.192 C549.908,42.904 550.468,42.76 551.098,42.76 Z M564.589,39.224 L564.589,51 L563.309,51 L563.309,49.544 C563.074,50.0453 562.717,50.4347 562.237,50.712 C561.768,50.9787 561.218,51.112 560.589,51.112 C559.885,51.112 559.261,50.936 558.717,50.584 C558.184,50.232 557.768,49.7413 557.469,49.112 C557.17,48.472 557.021,47.736 557.021,46.904 C557.021,46.072 557.165,45.3467 557.453,44.728 C557.752,44.0987 558.173,43.6133 558.717,43.272 C559.261,42.9307 559.885,42.76 560.589,42.76 C561.218,42.76 561.768,42.8987 562.237,43.176 C562.706,43.4427 563.058,43.8213 563.293,44.312 L563.293,39.224 L564.589,39.224 Z M560.845,50.04 C561.634,50.04 562.242,49.7733 562.669,49.24 C563.096,48.696 563.309,47.928 563.309,46.936 C563.309,45.9547 563.096,45.1973 562.669,44.664 C562.242,44.12 561.634,43.848 560.845,43.848 C560.056,43.848 559.437,44.1147 558.989,44.648 C558.552,45.1813 558.333,45.9333 558.333,46.904 C558.333,47.896 558.552,48.6693 558.989,49.224 C559.437,49.768 560.056,50.04 560.845,50.04 Z M291.576,75.112 C290.819,75.112 290.152,74.9413 289.576,74.6 C289,74.2587 288.552,73.7733 288.232,73.144 C287.923,72.5147 287.768,71.7787 287.768,70.936 C287.768,70.0933 287.923,69.3573 288.232,68.728 C288.552,68.0987 289,67.6133 289.576,67.272 C290.152,66.9307 290.819,66.76 291.576,66.76 C292.333,66.76 293,66.9307 293.576,67.272 C294.152,67.6133 294.595,68.0987 294.904,68.728 C295.224,69.3573 295.384,70.0933 295.384,70.936 C295.384,71.7787 295.224,72.5147 294.904,73.144 C294.595,73.7733 294.152,74.2587 293.576,74.6 C293,74.9413 292.333,75.112 291.576,75.112 Z M291.576,74.04 C292.376,74.04 292.989,73.7787 293.416,73.256 C293.843,72.7227 294.056,71.9493 294.056,70.936 C294.056,69.9547 293.837,69.1973 293.4,68.664 C292.963,68.12 292.355,67.848 291.576,67.848 C290.787,67.848 290.173,68.12 289.736,68.664 C289.299,69.1973 289.08,69.9547 289.08,70.936 C289.08,71.9493 289.293,72.7227 289.72,73.256 C290.157,73.7787 290.776,74.04 291.576,74.04 Z M302.208,66.76 C302.475,66.76 302.72,66.792 302.944,66.856 L302.912,68.04 C302.667,67.9547 302.384,67.912 302.064,67.912 C301.286,67.912 300.704,68.1573 300.32,68.648 C299.947,69.128 299.76,69.7147 299.76,70.408 L299.76,75 L298.464,75 L298.464,69.208 C298.464,68.376 298.422,67.624 298.336,66.952 L299.568,66.952 L299.696,68.44 C299.899,67.896 300.224,67.48 300.672,67.192 C301.12,66.904 301.632,66.76 302.208,66.76 Z M312.333,66.952 L312.333,74.936 C312.333,76.1307 312.024,77.032 311.405,77.64 C310.797,78.2587 309.896,78.568 308.701,78.568 C307.474,78.568 306.418,78.2907 305.533,77.736 L305.757,76.68 C306.269,76.968 306.749,77.176 307.197,77.304 C307.656,77.432 308.157,77.496 308.701,77.496 C309.48,77.496 310.066,77.288 310.461,76.872 C310.856,76.4667 311.053,75.8587 311.053,75.048 L311.053,73.144 C310.808,73.656 310.445,74.056 309.965,74.344 C309.496,74.6213 308.936,74.76 308.285,74.76 C307.581,74.76 306.952,74.5947 306.397,74.264 C305.853,73.9333 305.432,73.464 305.133,72.856 C304.834,72.248 304.685,71.5493 304.685,70.76 C304.685,69.9707 304.834,69.272 305.133,68.664 C305.432,68.056 305.853,67.5867 306.397,67.256 C306.952,66.9253 307.581,66.76 308.285,66.76 C308.925,66.76 309.48,66.8987 309.949,67.176 C310.429,67.4533 310.792,67.8427 311.037,68.344 L311.037,66.952 L312.333,66.952 Z M308.541,73.672 C309.32,73.672 309.928,73.416 310.365,72.904 C310.813,72.3813 311.037,71.6667 311.037,70.76 C311.037,69.8533 310.813,69.144 310.365,68.632 C309.928,68.1093 309.32,67.848 308.541,67.848 C307.752,67.848 307.128,68.1093 306.669,68.632 C306.221,69.144 305.997,69.8533 305.997,70.76 C305.997,71.6667 306.221,72.3813 306.669,72.904 C307.128,73.416 307.752,73.672 308.541,73.672 Z M322.969,66.952 L322.969,75 L321.689,75 L321.689,73.544 C321.454,74.0453 321.097,74.4347 320.617,74.712 C320.148,74.9787 319.598,75.112 318.969,75.112 C318.254,75.112 317.625,74.9413 317.081,74.6 C316.548,74.2587 316.132,73.7787 315.833,73.16 C315.545,72.5307 315.401,71.8 315.401,70.968 C315.401,70.136 315.55,69.4053 315.849,68.776 C316.148,68.136 316.564,67.64 317.097,67.288 C317.641,66.936 318.265,66.76 318.969,66.76 C319.598,66.76 320.148,66.8987 320.617,67.176 C321.086,67.4533 321.444,67.8427 321.689,68.344 L321.689,66.952 L322.969,66.952 Z M319.225,74.04 C320.014,74.04 320.622,73.7733 321.049,73.24 C321.476,72.696 321.689,71.928 321.689,70.936 C321.689,69.944 321.476,69.1813 321.049,68.648 C320.622,68.1147 320.014,67.848 319.225,67.848 C318.436,67.848 317.817,68.1253 317.369,68.68 C316.932,69.224 316.713,69.9867 316.713,70.968 C316.713,71.9493 316.932,72.7067 317.369,73.24 C317.806,73.7733 318.425,74.04 319.225,74.04 Z M330.551,66.76 C332.482,66.76 333.447,67.8213 333.447,69.944 L333.447,75 L332.151,75 L332.151,70.008 C332.151,69.2613 332.002,68.7173 331.703,68.376 C331.404,68.024 330.935,67.848 330.295,67.848 C329.548,67.848 328.951,68.0773 328.503,68.536 C328.055,68.9947 327.831,69.6133 327.831,70.392 L327.831,75 L326.535,75 L326.535,69.208 C326.535,68.376 326.492,67.624 326.407,66.952 L327.639,66.952 L327.767,68.392 C328.012,67.8693 328.38,67.4693 328.871,67.192 C329.362,66.904 329.922,66.76 330.551,66.76 Z M336.954,75 L336.954,66.952 L338.25,66.952 L338.25,75 L336.954,75 Z M336.826,63.544 L338.41,63.544 L338.41,65.016 L336.826,65.016 L336.826,63.544 Z M342.979,73.976 L348.179,73.976 L348.179,75 L341.379,75 L341.379,74.104 L346.451,67.976 L341.555,67.976 L341.555,66.952 L348.003,66.952 L348.003,67.896 L342.979,73.976 Z M357.732,70.936 L351.828,70.936 C351.839,71.96 352.073,72.7333 352.532,73.256 C353.001,73.7787 353.679,74.04 354.564,74.04 C355.503,74.04 356.367,73.7253 357.156,73.096 L357.588,74.04 C357.236,74.3707 356.783,74.632 356.228,74.824 C355.684,75.016 355.124,75.112 354.548,75.112 C353.289,75.112 352.303,74.744 351.588,74.008 C350.873,73.2613 350.516,72.2427 350.516,70.952 C350.516,70.1307 350.676,69.4053 350.996,68.776 C351.316,68.136 351.764,67.64 352.34,67.288 C352.916,66.936 353.572,66.76 354.308,66.76 C355.375,66.76 356.212,67.112 356.82,67.816 C357.428,68.5093 357.732,69.4693 357.732,70.696 L357.732,70.936 Z M354.324,67.768 C353.652,67.768 353.103,67.9707 352.676,68.376 C352.26,68.7813 351.993,69.352 351.876,70.088 L356.564,70.088 C356.5,69.3307 356.276,68.7547 355.892,68.36 C355.519,67.9653 354.996,67.768 354.324,67.768 Z M367.719,67.976 L367.719,72.376 C367.719,72.9733 367.842,73.3947 368.087,73.64 C368.332,73.8747 368.679,73.992 369.127,73.992 C369.426,73.992 369.714,73.944 369.991,73.848 L369.991,74.952 C369.66,75.0587 369.287,75.112 368.871,75.112 C368.103,75.112 367.5,74.8987 367.063,74.472 C366.636,74.0347 366.423,73.3947 366.423,72.552 L366.423,67.976 L364.855,67.976 L364.855,66.952 L366.423,66.952 L366.423,64.888 L367.719,64.424 L367.719,66.952 L370.023,66.952 L370.023,67.976 L367.719,67.976 Z M376.661,66.76 C378.592,66.76 379.557,67.8213 379.557,69.944 L379.557,75 L378.261,75 L378.261,70.008 C378.261,69.2613 378.112,68.7173 377.813,68.376 C377.514,68.024 377.045,67.848 376.405,67.848 C375.658,67.848 375.061,68.0773 374.613,68.536 C374.165,68.9947 373.941,69.6133 373.941,70.392 L373.941,75 L372.645,75 L372.645,63.224 L373.941,63.224 L373.941,68.264 C374.197,67.7733 374.56,67.4 375.029,67.144 C375.509,66.888 376.053,66.76 376.661,66.76 Z M389.8,70.936 L383.896,70.936 C383.907,71.96 384.142,72.7333 384.6,73.256 C385.07,73.7787 385.747,74.04 386.632,74.04 C387.571,74.04 388.435,73.7253 389.224,73.096 L389.656,74.04 C389.304,74.3707 388.851,74.632 388.296,74.824 C387.752,75.016 387.192,75.112 386.616,75.112 C385.358,75.112 384.371,74.744 383.656,74.008 C382.942,73.2613 382.584,72.2427 382.584,70.952 C382.584,70.1307 382.744,69.4053 383.064,68.776 C383.384,68.136 383.832,67.64 384.408,67.288 C384.984,66.936 385.64,66.76 386.376,66.76 C387.443,66.76 388.28,67.112 388.888,67.816 C389.496,68.5093 389.8,69.4693 389.8,70.696 L389.8,70.936 Z M386.392,67.768 C385.72,67.768 385.171,67.9707 384.744,68.376 C384.328,68.7813 384.062,69.352 383.944,70.088 L388.632,70.088 C388.568,69.3307 388.344,68.7547 387.96,68.36 C387.587,67.9653 387.064,67.768 386.392,67.768 Z M392.827,75 L392.827,66.952 L394.123,66.952 L394.123,75 L392.827,75 Z M392.699,63.544 L394.283,63.544 L394.283,65.016 L392.699,65.016 L392.699,63.544 Z M401.444,66.76 C401.711,66.76 401.956,66.792 402.18,66.856 L402.148,68.04 C401.903,67.9547 401.62,67.912 401.3,67.912 C400.521,67.912 399.94,68.1573 399.556,68.648 C399.183,69.128 398.996,69.7147 398.996,70.408 L398.996,75 L397.7,75 L397.7,69.208 C397.7,68.376 397.657,67.624 397.572,66.952 L398.804,66.952 L398.932,68.44 C399.135,67.896 399.46,67.48 399.908,67.192 C400.356,66.904 400.868,66.76 401.444,66.76 Z M413.165,75.112 C412.386,75.112 411.703,74.9413 411.117,74.6 C410.541,74.2587 410.093,73.7787 409.773,73.16 C409.463,72.5307 409.309,71.8 409.309,70.968 C409.309,70.136 409.469,69.4053 409.789,68.776 C410.109,68.136 410.562,67.64 411.149,67.288 C411.746,66.936 412.439,66.76 413.229,66.76 C413.773,66.76 414.295,66.856 414.797,67.048 C415.309,67.2293 415.73,67.4853 416.061,67.816 L415.629,68.776 C415.223,68.456 414.829,68.2213 414.445,68.072 C414.071,67.9227 413.687,67.848 413.293,67.848 C412.471,67.848 411.826,68.1253 411.357,68.68 C410.887,69.224 410.653,69.9867 410.653,70.968 C410.653,71.9387 410.882,72.696 411.341,73.24 C411.81,73.7733 412.461,74.04 413.293,74.04 C413.687,74.04 414.071,73.9653 414.445,73.816 C414.829,73.6667 415.223,73.432 415.629,73.112 L416.061,74.072 C415.719,74.392 415.287,74.648 414.765,74.84 C414.253,75.0213 413.719,75.112 413.165,75.112 Z M422.098,75.112 C421.341,75.112 420.674,74.9413 420.098,74.6 C419.522,74.2587 419.074,73.7733 418.754,73.144 C418.445,72.5147 418.29,71.7787 418.29,70.936 C418.29,70.0933 418.445,69.3573 418.754,68.728 C419.074,68.0987 419.522,67.6133 420.098,67.272 C420.674,66.9307 421.341,66.76 422.098,66.76 C422.856,66.76 423.522,66.9307 424.098,67.272 C424.674,67.6133 425.117,68.0987 425.426,68.728 C425.746,69.3573 425.906,70.0933 425.906,70.936 C425.906,71.7787 425.746,72.5147 425.426,73.144 C425.117,73.7733 424.674,74.2587 424.098,74.6 C423.522,74.9413 422.856,75.112 422.098,75.112 Z M422.098,74.04 C422.898,74.04 423.512,73.7787 423.938,73.256 C424.365,72.7227 424.578,71.9493 424.578,70.936 C424.578,69.9547 424.36,69.1973 423.922,68.664 C423.485,68.12 422.877,67.848 422.098,67.848 C421.309,67.848 420.696,68.12 420.258,68.664 C419.821,69.1973 419.602,69.9547 419.602,70.936 C419.602,71.9493 419.816,72.7227 420.242,73.256 C420.68,73.7787 421.298,74.04 422.098,74.04 Z M433.003,66.76 C434.933,66.76 435.899,67.8213 435.899,69.944 L435.899,75 L434.603,75 L434.603,70.008 C434.603,69.2613 434.453,68.7173 434.155,68.376 C433.856,68.024 433.387,67.848 432.747,67.848 C432,67.848 431.403,68.0773 430.955,68.536 C430.507,68.9947 430.283,69.6133 430.283,70.392 L430.283,75 L428.987,75 L428.987,69.208 C428.987,68.376 428.944,67.624 428.859,66.952 L430.091,66.952 L430.219,68.392 C430.464,67.8693 430.832,67.4693 431.323,67.192 C431.813,66.904 432.373,66.76 433.003,66.76 Z M441.134,67.976 L441.134,72.376 C441.134,72.9733 441.257,73.3947 441.502,73.64 C441.747,73.8747 442.094,73.992 442.542,73.992 C442.841,73.992 443.129,73.944 443.406,73.848 L443.406,74.952 C443.075,75.0587 442.702,75.112 442.286,75.112 C441.518,75.112 440.915,74.8987 440.478,74.472 C440.051,74.0347 439.838,73.3947 439.838,72.552 L439.838,67.976 L438.27,67.976 L438.27,66.952 L439.838,66.952 L439.838,64.888 L441.134,64.424 L441.134,66.952 L443.438,66.952 L443.438,67.976 L441.134,67.976 Z M452.796,70.936 L446.892,70.936 C446.903,71.96 447.137,72.7333 447.596,73.256 C448.065,73.7787 448.743,74.04 449.628,74.04 C450.567,74.04 451.431,73.7253 452.22,73.096 L452.652,74.04 C452.3,74.3707 451.847,74.632 451.292,74.824 C450.748,75.016 450.188,75.112 449.612,75.112 C448.353,75.112 447.367,74.744 446.652,74.008 C445.937,73.2613 445.58,72.2427 445.58,70.952 C445.58,70.1307 445.74,69.4053 446.06,68.776 C446.38,68.136 446.828,67.64 447.404,67.288 C447.98,66.936 448.636,66.76 449.372,66.76 C450.439,66.76 451.276,67.112 451.884,67.816 C452.492,68.5093 452.796,69.4693 452.796,70.696 L452.796,70.936 Z M449.388,67.768 C448.716,67.768 448.167,67.9707 447.74,68.376 C447.324,68.7813 447.057,69.352 446.94,70.088 L451.628,70.088 C451.564,69.3307 451.34,68.7547 450.956,68.36 C450.583,67.9653 450.06,67.768 449.388,67.768 Z M459.839,66.76 C461.77,66.76 462.735,67.8213 462.735,69.944 L462.735,75 L461.439,75 L461.439,70.008 C461.439,69.2613 461.29,68.7173 460.991,68.376 C460.692,68.024 460.223,67.848 459.583,67.848 C458.836,67.848 458.239,68.0773 457.791,68.536 C457.343,68.9947 457.119,69.6133 457.119,70.392 L457.119,75 L455.823,75 L455.823,69.208 C455.823,68.376 455.78,67.624 455.695,66.952 L456.927,66.952 L457.055,68.392 C457.3,67.8693 457.668,67.4693 458.159,67.192 C458.65,66.904 459.21,66.76 459.839,66.76 Z M467.97,67.976 L467.97,72.376 C467.97,72.9733 468.093,73.3947 468.338,73.64 C468.584,73.8747 468.93,73.992 469.378,73.992 C469.677,73.992 469.965,73.944 470.242,73.848 L470.242,74.952 C469.912,75.0587 469.538,75.112 469.122,75.112 C468.354,75.112 467.752,74.8987 467.314,74.472 C466.888,74.0347 466.674,73.3947 466.674,72.552 L466.674,67.976 L465.106,67.976 L465.106,66.952 L466.674,66.952 L466.674,64.888 L467.97,64.424 L467.97,66.952 L470.274,66.952 L470.274,67.976 L467.97,67.976 Z" id="Shape" stroke="#FFFFFF" stroke-width="0.3" fill-rule="nonzero"></path>
            <path d="M8.26039,53.8961 C8.19196,53.9132 -0.820051,56.8674 0.171397,75.0832 L1.20718,75.0832 C1.20718,75.0832 4.20774,62.0657 9.71492,62.1823 C9.67783,62.1016 8.59182,56.0608 8.26039,53.8961 Z M10.8703,66.5761 C0.363093,25.8584 19.1689,20.7269 19.1689,20.7269 C38.8968,28.7551 27.6404,66.5761 27.6404,66.5761 L10.8703,66.5761 Z M54.4351,75.1459 L35.9342,52.652 L30.3523,52.652 L30.698,49.1673 L30.8388,46.3082 L39.0432,46.3082 L58.4105,69.412 L65.4271,69.3141 L65.5185,75.1459 L54.4351,75.1459 Z M30.2512,53.8063 C30.4334,53.7336 39.3891,56.8557 38.4093,75.1456 L37.3855,75.1456 C37.3855,75.1456 34.1116,62.399 28.669,62.516 C28.669,62.516 29.9236,55.9797 30.2512,53.8063 Z M24.3193,36.9616 C24.3193,33.9844 21.934,31.571 18.9914,31.571 C16.0487,31.571 13.6636,33.9844 13.6636,36.9616 C13.6636,39.9387 16.0487,42.3523 18.9914,42.3523 C21.934,42.3523 24.3193,39.9387 24.3193,36.9616 Z" id="Shape"></path>
            <path d="M68.9438,59.6811 C67.0139,59.6811 65.3111,59.2696 63.8354,58.4466 C62.388,57.6236 61.2812,56.46 60.5149,54.9558 L63.1117,53.6788 C64.1617,55.9208 66.2193,57.0418 69.2843,57.0418 C70.7601,57.0418 71.9804,56.7722 72.9453,56.2329 C73.9103,55.6937 74.3927,54.8565 74.3927,53.7213 C74.3927,52.5577 73.9954,51.6921 73.2008,51.1245 C72.4345,50.5569 71.0723,50.188 69.114,50.0177 C66.3896,49.7907 64.4313,49.1805 63.2394,48.1872 C62.0758,47.1939 61.494,45.8742 61.494,44.2282 C61.494,42.3835 62.1609,40.9503 63.4948,39.9286 C64.8287,38.907 66.6592,38.3961 68.9863,38.3961 C72.9311,38.3961 75.6131,39.957 77.0321,43.0788 L74.4353,44.3559 C73.9528,43.2207 73.2433,42.3835 72.3068,41.8443 C71.3986,41.3051 70.2209,41.0355 68.7735,41.0355 C67.2977,41.0355 66.1625,41.3051 65.3679,41.8443 C64.6016,42.3835 64.2185,43.1498 64.2185,44.1431 C64.2185,45.0796 64.63,45.8459 65.453,46.4418 C66.3044,47.0094 67.7518,47.3784 69.7952,47.5487 C72.321,47.7757 74.1941,48.4001 75.4144,49.4217 C76.6631,50.415 77.2875,51.7347 77.2875,53.3808 C77.2875,54.7146 76.9043,55.864 76.1381,56.8289 C75.3718,57.7655 74.3501,58.475 73.073,58.9574 C71.7959,59.4399 70.4195,59.6811 68.9438,59.6811 Z M94.1978,38.3961 C96.0992,38.3961 97.802,38.8502 99.3062,39.7584 C100.81,40.6665 101.988,41.9294 102.839,43.5471 C103.691,45.1647 104.117,47.0094 104.117,49.0812 C104.117,51.1245 103.691,52.9551 102.839,54.5727 C102.016,56.162 100.853,57.4107 99.3487,58.3189 C97.873,59.227 96.1844,59.6811 94.2829,59.6811 C92.8355,59.6811 91.5017,59.3689 90.2813,58.7446 C89.0894,58.0918 88.0819,57.1837 87.2589,56.0201 L87.2589,67.514 L84.3641,67.514 L84.3641,39.0772 L87.2589,39.0772 L87.2589,42.0146 C88.0819,40.8794 89.0894,39.9996 90.2813,39.3752 C91.4733,38.7225 92.7788,38.3961 94.1978,38.3961 Z M94.2829,57.0418 C95.6168,57.0418 96.8087,56.7012 97.8588,56.0201 C98.9089,55.339 99.7319,54.4024 100.328,53.2105 C100.924,51.9901 101.222,50.6137 101.222,49.0812 C101.222,47.5203 100.924,46.1297 100.328,44.9093 C99.7319,43.689 98.9089,42.7383 97.8588,42.0571 C96.8087,41.376 95.6168,41.0355 94.2829,41.0355 C92.9207,41.0355 91.7003,41.376 90.6219,42.0571 C89.5718,42.7383 88.7488,43.689 88.1528,44.9093 C87.5568,46.1297 87.2589,47.5061 87.2589,49.0386 C87.2589,50.5711 87.5568,51.9476 88.1528,53.1679 C88.7488,54.3882 89.5718,55.339 90.6219,56.0201 C91.7003,56.7012 92.9207,57.0418 94.2829,57.0418 Z M129.357,39.0772 L129.357,59 L126.462,59 L126.462,56.0627 C125.639,57.1979 124.632,58.0918 123.44,58.7446 C122.248,59.3689 120.942,59.6811 119.523,59.6811 C117.622,59.6811 115.919,59.227 114.415,58.3189 C112.911,57.4107 111.733,56.1478 110.882,54.5301 C110.03,52.9125 109.604,51.0678 109.604,48.996 C109.604,46.9527 110.016,45.1364 110.839,43.5471 C111.69,41.9294 112.854,40.6665 114.33,39.7584 C115.834,38.8502 117.537,38.3961 119.438,38.3961 C120.886,38.3961 122.205,38.7225 123.397,39.3752 C124.618,39.9996 125.639,40.8936 126.462,42.0571 L126.462,39.0772 L129.357,39.0772 Z M119.438,57.0418 C120.8,57.0418 122.007,56.7012 123.057,56.0201 C124.135,55.339 124.972,54.3882 125.568,53.1679 C126.164,51.9476 126.462,50.5711 126.462,49.0386 C126.462,47.5061 126.164,46.1297 125.568,44.9093 C124.972,43.689 124.135,42.7383 123.057,42.0571 C122.007,41.376 120.8,41.0355 119.438,41.0355 C118.104,41.0355 116.912,41.376 115.862,42.0571 C114.812,42.7383 113.989,43.689 113.393,44.9093 C112.797,46.1013 112.499,47.4635 112.499,48.996 C112.499,50.5569 112.797,51.9476 113.393,53.1679 C113.989,54.3882 114.812,55.339 115.862,56.0201 C116.912,56.7012 118.104,57.0418 119.438,57.0418 Z M145.998,59.6811 C144.068,59.6811 142.351,59.227 140.847,58.3189 C139.343,57.4107 138.165,56.1478 137.314,54.5301 C136.463,52.9125 136.037,51.082 136.037,49.0386 C136.037,46.9953 136.448,45.1647 137.271,43.5471 C138.123,41.9294 139.301,40.6665 140.805,39.7584 C142.309,38.8502 144.012,38.3961 145.913,38.3961 C147.531,38.3961 148.936,38.7509 150.127,39.4604 C151.348,40.1415 152.455,41.1206 153.448,42.3977 L151.319,44.0579 C149.929,42.0429 148.127,41.0355 145.913,41.0355 C144.579,41.0355 143.373,41.376 142.295,42.0571 C141.245,42.7383 140.422,43.689 139.826,44.9093 C139.23,46.1297 138.932,47.5061 138.932,49.0386 C138.932,50.5711 139.23,51.9476 139.826,53.1679 C140.422,54.3882 141.245,55.339 142.295,56.0201 C143.373,56.7012 144.579,57.0418 145.913,57.0418 C147.275,57.0418 148.396,56.8147 149.276,56.3607 C150.156,55.8782 150.951,55.1829 151.66,54.2747 L153.916,55.8498 C152.98,57.0134 151.816,57.9499 150.425,58.6594 C149.063,59.3406 147.587,59.6811 145.998,59.6811 Z M168.898,38.3961 C170.686,38.3961 172.303,38.836 173.751,39.7158 C175.198,40.5956 176.333,41.8017 177.156,43.3342 C177.979,44.8384 178.391,46.527 178.391,48.4001 C178.391,48.9393 178.377,49.3508 178.348,49.6346 L161.959,49.6346 C162.073,51.678 162.739,53.4233 163.96,54.8707 C165.18,56.3181 166.84,57.0418 168.94,57.0418 C170.643,57.0418 172.048,56.7296 173.155,56.1052 C174.29,55.4525 175.198,54.5585 175.879,53.4233 L178.178,54.9558 C177.242,56.4316 176.007,57.5952 174.475,58.4466 C172.942,59.2696 171.126,59.6811 169.026,59.6811 C167.096,59.6811 165.379,59.227 163.875,58.3189 C162.37,57.4107 161.193,56.1478 160.341,54.5301 C159.49,52.9125 159.064,51.082 159.064,49.0386 C159.064,46.9953 159.476,45.1647 160.299,43.5471 C161.15,41.9294 162.314,40.6665 163.789,39.7584 C165.294,38.8502 166.996,38.3961 168.898,38.3961 Z M175.496,47.2507 C175.212,45.1789 174.517,43.6322 173.41,42.6105 C172.303,41.5605 170.799,41.0355 168.898,41.0355 C167.053,41.0355 165.535,41.6314 164.343,42.8234 C163.179,43.987 162.441,45.4627 162.129,47.2507 L175.496,47.2507 Z M202.22,59 L192.259,45.037 L189.194,48.6555 L189.194,59 L186.001,59 L186.001,29.9673 L189.194,29.9673 L189.194,44.6539 L201.454,29.9673 L204.987,29.9673 L194.132,42.8234 L205.838,59 L202.22,59 Z M212.747,59 L212.747,39.0772 L215.642,39.0772 L215.642,59 L212.747,59 Z M214.194,35.2034 C213.542,35.2034 212.988,34.9763 212.534,34.5222 C212.109,34.0682 211.896,33.5148 211.896,32.862 C211.896,32.2377 212.109,31.7126 212.534,31.2869 C212.988,30.8328 213.542,30.6058 214.194,30.6058 C214.819,30.6058 215.358,30.8328 215.812,31.2869 C216.266,31.7126 216.493,32.2518 216.493,32.9046 C216.493,33.5289 216.266,34.0682 215.812,34.5222 C215.358,34.9763 214.819,35.2034 214.194,35.2034 Z M226.282,59 L226.282,41.7166 L222.876,41.7166 L222.876,39.0772 L226.282,39.0772 L226.282,32.4789 L229.177,32.4789 L229.177,39.0772 L233.774,39.0772 L233.774,41.7166 L229.177,41.7166 L229.177,59 L226.282,59 Z" id="Shape" fill-rule="nonzero"></path>
            <path d="M63.8354,58.4466 L63.6796,58.7204 L63.6819,58.7217 L63.8354,58.4466 Z M60.5149,54.9558 L60.3759,54.6732 L60.0892,54.8142 L60.2342,55.0988 L60.5149,54.9558 Z M63.1117,53.6787 L63.3969,53.5451 L63.2608,53.2544 L62.9726,53.3961 L63.1117,53.6787 Z M72.9453,56.2329 L73.099,56.5079 L72.9453,56.2329 Z M73.2008,51.1245 L73.0132,51.3777 L73.0177,51.3809 L73.2008,51.1245 Z M69.114,50.0177 L69.1413,49.7039 L69.1402,49.7038 L69.114,50.0177 Z M63.2394,48.1872 L63.0348,48.4268 L63.0377,48.4292 L63.2394,48.1872 Z M63.4948,39.9286 L63.6863,40.1787 L63.6863,40.1787 L63.4948,39.9286 Z M77.0321,43.0788 L77.1711,43.3615 L77.4453,43.2266 L77.3188,42.9485 L77.0321,43.0788 Z M74.4353,44.3559 L74.1454,44.4791 L74.2756,44.7855 L74.5743,44.6386 L74.4353,44.3559 Z M72.3068,41.8443 L72.1459,42.1152 L72.1496,42.1173 L72.3068,41.8443 Z M65.3679,41.8443 L65.191,41.5836 L65.1866,41.5867 L65.3679,41.8443 Z M65.453,46.4418 L65.2681,46.6972 L65.2783,46.7039 L65.453,46.4418 Z M69.7952,47.5487 L69.8234,47.2349 L69.8213,47.2348 L69.7952,47.5487 Z M75.4144,49.4217 L75.2121,49.6634 L75.2183,49.6683 L75.4144,49.4217 Z M76.1381,56.8289 L76.3819,57.0284 L76.3848,57.0248 L76.1381,56.8289 Z M73.073,58.9574 L73.1844,59.2521 L73.1844,59.2521 L73.073,58.9574 Z M68.9438,59.3661 C67.0599,59.3661 65.4113,58.9648 63.9888,58.1715 L63.6819,58.7217 C65.2109,59.5744 66.9679,59.9961 68.9438,59.9961 L68.9438,59.3661 Z M63.9911,58.1728 C62.598,57.3806 61.5343,56.2629 60.7956,54.8129 L60.2342,55.0988 C61.028,56.6571 62.1779,57.8665 63.6796,58.7204 L63.9911,58.1728 Z M60.6539,55.2385 L63.2507,53.9614 L62.9726,53.3961 L60.3759,54.6732 L60.6539,55.2385 Z M62.8264,53.8124 C63.3782,54.9905 64.2005,55.8831 65.2917,56.4776 C66.3787,57.0699 67.7149,57.3568 69.2843,57.3568 L69.2843,56.7268 C67.7887,56.7268 66.5635,56.4531 65.5931,55.9244 C64.6267,55.3979 63.8952,54.609 63.3969,53.5451 L62.8264,53.8124 Z M69.2843,57.3568 C70.7965,57.3568 72.074,57.0807 73.099,56.5079 L72.7917,55.958 C71.8868,56.4636 70.7236,56.7268 69.2843,56.7268 L69.2843,57.3568 Z M73.099,56.5079 C73.6238,56.2146 74.0303,55.8326 74.3038,55.3579 C74.5771,54.8837 74.7077,54.3344 74.7077,53.7213 L74.0777,53.7213 C74.0777,54.2434 73.9671,54.6804 73.7579,55.0433 C73.549,55.4059 73.2318,55.712 72.7917,55.958 L73.099,56.5079 Z M74.7077,53.7213 C74.7077,52.4782 74.2778,51.5067 73.3838,50.8682 L73.0177,51.3809 C73.713,51.8775 74.0777,52.6373 74.0777,53.7213 L74.7077,53.7213 Z M73.3883,50.8714 C72.5469,50.2482 71.1078,49.8749 69.1413,49.7039 L69.0867,50.3315 C71.0367,50.5011 72.322,50.8657 73.0133,51.3777 L73.3883,50.8714 Z M69.1402,49.7038 C66.4369,49.4785 64.558,48.876 63.441,47.9452 L63.0377,48.4292 C64.3047,49.485 66.3422,50.1028 69.0879,50.3316 L69.1402,49.7038 Z M63.4439,47.9476 C62.3562,47.0192 61.809,45.79 61.809,44.2282 L61.179,44.2282 C61.179,45.9585 61.7953,47.3687 63.0349,48.4268 L63.4439,47.9476 Z M61.809,44.2282 C61.809,42.4705 62.4387,41.1344 63.6863,40.1787 L63.3032,39.6786 C61.8832,40.7663 61.179,42.2965 61.179,44.2282 L61.809,44.2282 Z M63.6863,40.1787 C64.9475,39.2127 66.7022,38.7111 68.9863,38.7111 L68.9863,38.0811 C66.6161,38.0811 64.7098,38.6012 63.3032,39.6786 L63.6863,40.1787 Z M68.9863,38.7111 C70.9179,38.7111 72.5165,39.0932 73.7979,39.839 C75.0765,40.5832 76.0598,41.7012 76.7453,43.2092 L77.3188,42.9485 C76.5853,41.3347 75.5181,40.1113 74.1148,39.2945 C72.7144,38.4795 70.9996,38.0811 68.9863,38.0811 L68.9863,38.7111 Z M76.893,42.7962 L74.2963,44.0733 L74.5743,44.6386 L77.1711,43.3615 L76.893,42.7962 Z M74.7252,44.2327 C74.2199,43.0438 73.4681,42.1494 72.464,41.5713 L72.1496,42.1173 C73.0186,42.6176 73.6857,43.3976 74.1454,44.4791 L74.7252,44.2327 Z M72.4676,41.5734 C71.496,40.9965 70.2573,40.7205 68.7735,40.7205 L68.7735,41.3505 C70.1844,41.3505 71.3013,41.6136 72.146,42.1151 L72.4676,41.5734 Z M68.7735,40.7205 C67.2662,40.7205 66.0589,40.9947 65.191,41.5836 L65.5447,42.1049 C66.2661,41.6155 67.3293,41.3505 68.7735,41.3505 L68.7735,40.7205 Z M65.1866,41.5867 C64.3307,42.189 63.9035,43.0545 63.9035,44.1431 L64.5335,44.1431 C64.5335,43.245 64.8725,42.5781 65.5492,42.1019 L65.1866,41.5867 Z M63.9035,44.1431 C63.9035,45.1902 64.3715,46.0476 65.2683,46.697 L65.6378,46.1867 C64.8884,45.6441 64.5335,44.969 64.5335,44.1431 L63.9035,44.1431 Z M65.2783,46.7039 C66.1999,47.3183 67.7158,47.6915 69.769,47.8626 L69.8213,47.2348 C67.7878,47.0653 66.409,46.7006 65.6277,46.1798 L65.2783,46.7039 Z M69.767,47.8624 C72.2637,48.0868 74.0625,48.7008 75.2122,49.6633 L75.6166,49.1802 C74.3256,48.0994 72.3782,47.4646 69.8234,47.2349 L69.767,47.8624 Z M75.2183,49.6683 C76.3892,50.5996 76.9725,51.8272 76.9725,53.3808 L77.6025,53.3808 C77.6025,51.6422 76.9371,50.2305 75.6105,49.1752 L75.2183,49.6683 Z M76.9725,53.3808 C76.9725,54.6497 76.6097,55.7285 75.8914,56.633 L76.3848,57.0248 C77.199,55.9995 77.6025,54.7795 77.6025,53.3808 L76.9725,53.3808 Z M75.8943,56.6295 C75.1674,57.5179 74.1938,58.1973 72.9617,58.6628 L73.1844,59.2521 C74.5065,58.7526 75.5763,58.013 76.3819,57.0284 L75.8943,56.6295 Z M72.9617,58.6628 C71.723,59.1307 70.3846,59.3661 68.9438,59.3661 L68.9438,59.9961 C70.4544,59.9961 71.8689,59.7491 73.1844,59.2521 L72.9617,58.6628 Z M102.839,43.5471 L103.118,43.4004 L102.839,43.5471 Z M102.839,54.5727 L102.561,54.426 L102.56,54.4279 L102.839,54.5727 Z M99.3487,58.3189 L99.1859,58.0492 L99.1837,58.0506 L99.3487,58.3189 Z M90.2813,58.7446 L90.13,59.021 L90.1379,59.025 L90.2813,58.7446 Z M87.2589,56.0201 L87.516,55.8382 L86.9439,55.0293 L86.9439,56.0201 L87.2589,56.0201 Z M87.2589,67.514 L87.2589,67.829 L87.5739,67.829 L87.5739,67.514 L87.2589,67.514 Z M84.3641,67.514 L84.0491,67.514 L84.0491,67.829 L84.3641,67.829 L84.3641,67.514 Z M84.3641,39.0772 L84.3641,38.7622 L84.0491,38.7622 L84.0491,39.0772 L84.3641,39.0772 Z M87.2589,39.0772 L87.5739,39.0772 L87.5739,38.7622 L87.2589,38.7622 L87.2589,39.0772 Z M87.2589,42.0146 L86.9439,42.0146 L86.9439,42.9857 L87.5139,42.1995 L87.2589,42.0146 Z M90.2813,39.3752 L90.4275,39.6543 L90.4326,39.6515 L90.2813,39.3752 Z M97.8588,56.0201 L98.0302,56.2844 L97.8588,56.0201 Z M100.328,53.2105 L100.61,53.3514 L100.611,53.3487 L100.328,53.2105 Z M100.328,44.9093 L100.611,44.7711 L100.328,44.9093 Z M97.8588,42.0571 L98.0302,41.7929 L98.0302,41.7929 L97.8588,42.0571 Z M90.6219,42.0571 L90.4537,41.7908 L90.4505,41.7929 L90.6219,42.0571 Z M88.1528,44.9093 L88.4359,45.0476 L88.1528,44.9093 Z M88.1528,53.1679 L88.4359,53.0297 L88.1528,53.1679 Z M90.6219,56.0201 L90.4505,56.2844 L90.4537,56.2864 L90.6219,56.0201 Z M94.1978,38.7111 C96.0467,38.7111 97.6924,39.1519 99.1434,40.028 L99.469,39.4887 C97.9117,38.5484 96.1517,38.0811 94.1978,38.0811 L94.1978,38.7111 Z M99.1434,40.028 C100.596,40.9053 101.735,42.1248 102.561,43.6938 L103.118,43.4004 C102.241,41.7341 101.024,40.4277 99.469,39.4887 L99.1434,40.028 Z M102.561,43.6938 C103.385,45.2605 103.802,47.0537 103.802,49.0812 L104.432,49.0812 C104.432,46.9652 103.996,45.069 103.118,43.4004 L102.561,43.6938 Z M103.802,49.0812 C103.802,51.0795 103.386,52.8587 102.561,54.426 L103.118,54.7194 C103.996,53.0514 104.432,51.1696 104.432,49.0812 L103.802,49.0812 Z M102.56,54.4279 C101.763,55.9666 100.639,57.1717 99.1859,58.0492 L99.5116,58.5885 C101.066,57.6498 102.27,56.3574 103.119,54.7176 L102.56,54.4279 Z M99.1837,58.0506 C97.7623,58.9253 96.1319,59.3661 94.2829,59.3661 L94.2829,59.9961 C96.2368,59.9961 97.9837,59.5288 99.5138,58.5872 L99.1837,58.0506 Z M94.2829,59.3661 C92.8825,59.3661 91.5982,59.0645 90.4248,58.4642 L90.1379,59.025 C91.4051,59.6734 92.7885,59.9961 94.2829,59.9961 L94.2829,59.3661 Z M90.4326,58.4683 C89.2847,57.8397 88.3128,56.9646 87.516,55.8382 L87.0017,56.202 C87.851,57.4027 88.894,58.344 90.13,59.0209 L90.4326,58.4683 Z M86.9439,56.0201 L86.9439,67.514 L87.5739,67.514 L87.5739,56.0201 L86.9439,56.0201 Z M87.2589,67.199 L84.3641,67.199 L84.3641,67.829 L87.2589,67.829 L87.2589,67.199 Z M84.6791,67.514 L84.6791,39.0772 L84.0491,39.0772 L84.0491,67.514 L84.6791,67.514 Z M84.3641,39.3922 L87.2589,39.3922 L87.2589,38.7622 L84.3641,38.7622 L84.3641,39.3922 Z M86.9439,39.0772 L86.9439,42.0146 L87.5739,42.0146 L87.5739,39.0772 L86.9439,39.0772 Z M87.5139,42.1995 C88.3096,41.1019 89.2804,40.2551 90.4275,39.6543 L90.1352,39.0962 C88.8983,39.7441 87.8542,40.6568 87.0038,41.8297 L87.5139,42.1995 Z M90.4326,39.6515 C91.5761,39.0253 92.8292,38.7111 94.1978,38.7111 L94.1978,38.0811 C92.7283,38.0811 91.3705,38.4197 90.13,39.0989 L90.4326,39.6515 Z M94.2829,57.3568 C95.6734,57.3568 96.9257,57.0008 98.0302,56.2844 L97.6874,55.7558 C96.6918,56.4016 95.5601,56.7268 94.2829,56.7268 L94.2829,57.3568 Z M98.0302,56.2844 C99.1305,55.5707 99.9902,54.5902 100.61,53.3514 L100.046,53.0696 C99.4736,54.2147 98.6872,55.1073 97.6874,55.7558 L98.0302,56.2844 Z M100.611,53.3487 C101.23,52.0801 101.537,50.6554 101.537,49.0812 L100.907,49.0812 C100.907,50.572 100.617,51.9002 100.045,53.0722 L100.611,53.3487 Z M101.537,49.0812 C101.537,47.4795 101.231,46.0405 100.611,44.7711 L100.045,45.0476 C100.617,46.2188 100.907,47.561 100.907,49.0812 L101.537,49.0812 Z M100.611,44.7711 C99.992,43.5039 99.1323,42.5077 98.0302,41.7929 L97.6874,42.3214 C98.6854,42.9688 99.4717,43.8741 100.045,45.0476 L100.611,44.7711 Z M98.0302,41.7929 C96.9257,41.0764 95.6734,40.7205 94.2829,40.7205 L94.2829,41.3505 C95.5601,41.3505 96.6918,41.6756 97.6874,42.3214 L98.0302,41.7929 Z M94.2829,40.7205 C92.8654,40.7205 91.5859,41.0757 90.4537,41.7908 L90.7901,42.3235 C91.8147,41.6763 92.976,41.3505 94.2829,41.3505 L94.2829,40.7205 Z M90.4505,41.7929 C89.3484,42.5077 88.4886,43.5039 87.8698,44.7711 L88.4359,45.0476 C89.009,43.8741 89.7953,42.9688 90.7933,42.3214 L90.4505,41.7929 Z M87.8698,44.7711 C87.2502,46.0397 86.9439,47.4644 86.9439,49.0386 L87.5739,49.0386 C87.5739,47.5478 87.8635,46.2196 88.4359,45.0476 L87.8698,44.7711 Z M86.9439,49.0386 C86.9439,50.6129 87.2502,52.0375 87.8698,53.3061 L88.4359,53.0297 C87.8635,51.8576 87.5739,50.5294 87.5739,49.0386 L86.9439,49.0386 Z M87.8698,53.3061 C88.4886,54.5733 89.3484,55.5695 90.4505,56.2844 L90.7933,55.7558 C89.7953,55.1084 89.009,54.2032 88.4359,53.0297 L87.8698,53.3061 Z M90.4537,56.2864 C91.5859,57.0015 92.8654,57.3568 94.2829,57.3568 L94.2829,56.7268 C92.976,56.7268 91.8147,56.4009 90.7901,55.7538 L90.4537,56.2864 Z M129.357,39.0772 L129.672,39.0772 L129.672,38.7622 L129.357,38.7622 L129.357,39.0772 Z M129.357,59 L129.357,59.315 L129.672,59.315 L129.672,59 L129.357,59 Z M126.462,59 L126.147,59 L126.147,59.315 L126.462,59.315 L126.462,59 Z M126.462,56.0627 L126.777,56.0627 L126.777,55.0915 L126.207,55.8778 L126.462,56.0627 Z M123.44,58.7446 L123.586,59.0237 L123.591,59.0209 L123.44,58.7446 Z M114.415,58.3189 L114.252,58.5885 L114.415,58.3189 Z M110.882,54.5302 L111.16,54.3834 L110.882,54.5302 Z M110.839,43.5471 L110.56,43.4004 L110.559,43.4022 L110.839,43.5471 Z M114.33,39.7584 L114.167,39.4887 L114.165,39.4901 L114.33,39.7584 Z M123.397,39.3752 L123.246,39.6516 L123.254,39.6557 L123.397,39.3752 Z M126.462,42.0571 L126.205,42.239 L126.777,43.048 L126.777,42.0571 L126.462,42.0571 Z M126.462,39.0772 L126.462,38.7622 L126.147,38.7622 L126.147,39.0772 L126.462,39.0772 Z M123.057,56.0201 L122.888,55.7537 L122.885,55.7558 L123.057,56.0201 Z M125.568,53.1679 L125.285,53.0297 L125.568,53.1679 Z M125.568,44.9093 L125.851,44.7711 L125.568,44.9093 Z M123.057,42.0571 L122.885,42.3214 L122.888,42.3235 L123.057,42.0571 Z M115.862,42.0571 L115.691,41.7929 L115.862,42.0571 Z M113.393,44.9093 L113.675,45.0502 L113.676,45.0476 L113.393,44.9093 Z M113.393,53.1679 L113.11,53.3061 L113.393,53.1679 Z M115.862,56.0201 L115.691,56.2844 L115.862,56.0201 Z M129.042,39.0772 L129.042,59 L129.672,59 L129.672,39.0772 L129.042,39.0772 Z M129.357,58.685 L126.462,58.685 L126.462,59.315 L129.357,59.315 L129.357,58.685 Z M126.777,59 L126.777,56.0627 L126.147,56.0627 L126.147,59 L126.777,59 Z M126.207,55.8778 C125.411,56.9764 124.438,57.8387 123.288,58.4683 L123.591,59.0209 C124.825,58.345 125.868,57.4193 126.717,56.2476 L126.207,55.8778 Z M123.294,58.4655 C122.149,59.065 120.894,59.3661 119.523,59.3661 L119.523,59.9961 C120.99,59.9961 122.346,59.6729 123.586,59.0236 L123.294,58.4655 Z M119.523,59.3661 C117.674,59.3661 116.029,58.9253 114.578,58.0492 L114.252,58.5885 C115.809,59.5288 117.569,59.9961 119.523,59.9961 L119.523,59.3661 Z M114.578,58.0492 C113.125,57.1719 111.986,55.9525 111.16,54.3834 L110.603,54.6769 C111.48,56.3432 112.697,57.6495 114.252,58.5885 L114.578,58.0492 Z M111.16,54.3834 C110.336,52.8167 109.919,51.0236 109.919,48.996 L109.289,48.996 C109.289,51.112 109.725,53.0082 110.603,54.6769 L111.16,54.3834 Z M109.919,48.996 C109.919,46.9959 110.322,45.2305 111.119,43.6919 L110.559,43.4022 C109.71,45.0423 109.289,46.9095 109.289,48.996 L109.919,48.996 Z M111.118,43.6938 C111.944,42.1233 113.07,40.9035 114.495,40.0266 L114.165,39.4901 C112.638,40.4295 111.436,41.7356 110.56,43.4004 L111.118,43.6938 Z M114.493,40.028 C115.944,39.1519 117.589,38.7111 119.438,38.7111 L119.438,38.0811 C117.484,38.0811 115.724,38.5484 114.167,39.4887 L114.493,40.028 Z M119.438,38.7111 C120.836,38.7111 122.103,39.0258 123.246,39.6515 L123.548,39.0989 C122.307,38.4192 120.935,38.0811 119.438,38.0811 L119.438,38.7111 Z M123.254,39.6557 C124.427,40.2559 125.41,41.1153 126.205,42.239 L126.719,41.8752 C125.868,40.6718 124.808,39.7433 123.541,39.0948 L123.254,39.6557 Z M126.777,42.0571 L126.777,39.0772 L126.147,39.0772 L126.147,42.0571 L126.777,42.0571 Z M126.462,39.3922 L129.357,39.3922 L129.357,38.7622 L126.462,38.7622 L126.462,39.3922 Z M119.438,57.3568 C120.856,57.3568 122.122,57.0015 123.228,56.2844 L122.885,55.7558 C121.891,56.4009 120.745,56.7268 119.438,56.7268 L119.438,57.3568 Z M123.225,56.2864 C124.356,55.5721 125.231,54.5755 125.851,53.3061 L125.285,53.0297 C124.713,54.201 123.914,55.1059 122.888,55.7538 L123.225,56.2864 Z M125.851,53.3061 C126.471,52.0375 126.777,50.6129 126.777,49.0386 L126.147,49.0386 C126.147,50.5294 125.858,51.8576 125.285,53.0297 L125.851,53.3061 Z M126.777,49.0386 C126.777,47.4644 126.471,46.0397 125.851,44.7711 L125.285,45.0476 C125.858,46.2196 126.147,47.5478 126.147,49.0386 L126.777,49.0386 Z M125.851,44.7711 C125.231,43.5018 124.356,42.5052 123.225,41.7908 L122.888,42.3235 C123.914,42.9713 124.713,43.8762 125.285,45.0476 L125.851,44.7711 Z M123.228,41.7929 C122.122,41.0757 120.856,40.7205 119.438,40.7205 L119.438,41.3505 C120.745,41.3505 121.891,41.6763 122.885,42.3214 L123.228,41.7929 Z M119.438,40.7205 C118.048,40.7205 116.795,41.0764 115.691,41.7929 L116.034,42.3214 C117.029,41.6756 118.161,41.3505 119.438,41.3505 L119.438,40.7205 Z M115.691,41.7929 C114.589,42.5077 113.729,43.5039 113.11,44.7711 L113.676,45.0476 C114.249,43.8741 115.036,42.9688 116.034,42.3214 L115.691,41.7929 Z M113.111,44.7685 C112.491,46.0103 112.184,47.422 112.184,48.996 L112.814,48.996 C112.814,47.5051 113.104,46.1923 113.675,45.0502 L113.111,44.7685 Z M112.184,48.996 C112.184,50.5977 112.49,52.0368 113.11,53.3061 L113.676,53.0297 C113.104,51.8584 112.814,50.5162 112.814,48.996 L112.184,48.996 Z M113.11,53.3061 C113.729,54.5733 114.589,55.5695 115.691,56.2844 L116.034,55.7558 C115.036,55.1084 114.249,54.2032 113.676,53.0297 L113.11,53.3061 Z M115.691,56.2844 C116.795,57.0008 118.048,57.3568 119.438,57.3568 L119.438,56.7268 C118.161,56.7268 117.029,56.4016 116.034,55.7558 L115.691,56.2844 Z M140.847,58.3189 L141.01,58.0492 L140.847,58.3189 Z M137.314,54.5302 L137.593,54.3834 L137.314,54.5302 Z M137.271,43.5471 L136.993,43.4004 L136.991,43.4043 L137.271,43.5471 Z M150.127,39.4604 L149.966,39.7312 L149.974,39.7354 L150.127,39.4604 Z M153.448,42.3977 L153.642,42.6461 L153.89,42.4526 L153.697,42.2043 L153.448,42.3977 Z M151.319,44.0579 L151.06,44.2369 L151.25,44.5117 L151.513,44.3063 L151.319,44.0579 Z M142.295,42.0571 L142.126,41.7908 L142.123,41.7929 L142.295,42.0571 Z M139.826,44.9093 L139.542,44.7711 L139.826,44.9093 Z M139.826,53.1679 L140.109,53.0297 L139.826,53.1679 Z M142.295,56.0201 L142.123,56.2844 L142.126,56.2864 L142.295,56.0201 Z M149.276,56.3607 L149.421,56.6407 L149.428,56.6369 L149.276,56.3607 Z M151.66,54.2747 L151.84,54.0164 L151.596,53.8456 L151.412,54.0808 L151.66,54.2747 Z M153.916,55.8498 L154.162,56.0473 L154.373,55.7846 L154.097,55.5915 L153.916,55.8498 Z M150.425,58.6594 L150.566,58.9412 L150.569,58.94 L150.425,58.6594 Z M145.998,59.3661 C144.12,59.3661 142.46,58.9248 141.01,58.0492 L140.684,58.5885 C142.242,59.5292 144.017,59.9961 145.998,59.9961 L145.998,59.3661 Z M141.01,58.0492 C139.557,57.1719 138.418,55.9525 137.593,54.3834 L137.035,54.6769 C137.912,56.3432 139.129,57.6495 140.684,58.5885 L141.01,58.0492 Z M137.593,54.3834 C136.768,52.8161 136.352,51.037 136.352,49.0386 L135.722,49.0386 C135.722,51.127 136.157,53.0088 137.035,54.6769 L137.593,54.3834 Z M136.352,49.0386 C136.352,47.0386 136.754,45.258 137.552,43.6899 L136.991,43.4043 C136.142,45.0715 135.722,46.9519 135.722,49.0386 L136.352,49.0386 Z M137.55,43.6938 C138.376,42.1248 139.514,40.9053 140.967,40.028 L140.642,39.4887 C139.087,40.4277 137.87,41.7341 136.993,43.4004 L137.55,43.6938 Z M140.967,40.028 C142.418,39.1519 144.064,38.7111 145.913,38.7111 L145.913,38.0811 C143.959,38.0811 142.199,38.5484 140.642,39.4887 L140.967,40.028 Z M145.913,38.7111 C147.484,38.7111 148.831,39.0551 149.966,39.731 L150.289,39.1897 C149.04,38.4467 147.578,38.0811 145.913,38.0811 L145.913,38.7111 Z M149.974,39.7354 C151.152,40.393 152.228,41.3421 153.199,42.5911 L153.697,42.2043 C152.681,40.8991 151.544,39.89 150.281,39.1853 L149.974,39.7354 Z M153.254,42.1493 L151.126,43.8096 L151.513,44.3063 L153.642,42.6461 L153.254,42.1493 Z M151.579,43.879 C150.137,41.7894 148.242,40.7205 145.913,40.7205 L145.913,41.3505 C148.011,41.3505 149.721,42.2965 151.06,44.2369 L151.579,43.879 Z M145.913,40.7205 C144.523,40.7205 143.258,41.0764 142.126,41.7908 L142.463,42.3235 C143.489,41.6756 144.636,41.3505 145.913,41.3505 L145.913,40.7205 Z M142.123,41.7929 C141.021,42.5077 140.161,43.5039 139.542,44.7711 L140.109,45.0476 C140.682,43.8741 141.468,42.9688 142.466,42.3214 L142.123,41.7929 Z M139.542,44.7711 C138.923,46.0397 138.617,47.4644 138.617,49.0386 L139.247,49.0386 C139.247,47.5478 139.536,46.2196 140.109,45.0476 L139.542,44.7711 Z M138.617,49.0386 C138.617,50.6129 138.923,52.0375 139.542,53.3061 L140.109,53.0297 C139.536,51.8576 139.247,50.5294 139.247,49.0386 L138.617,49.0386 Z M139.542,53.3061 C140.161,54.5733 141.021,55.5695 142.123,56.2844 L142.466,55.7558 C141.468,55.1084 140.682,54.2032 140.109,53.0297 L139.542,53.3061 Z M142.126,56.2864 C143.258,57.0008 144.523,57.3568 145.913,57.3568 L145.913,56.7268 C144.636,56.7268 143.489,56.4016 142.463,55.7538 L142.126,56.2864 Z M145.913,57.3568 C147.308,57.3568 148.483,57.1247 149.421,56.6406 L149.132,56.0807 C148.31,56.5048 147.243,56.7268 145.913,56.7268 L145.913,57.3568 Z M149.428,56.6369 C150.35,56.131 151.176,55.4056 151.908,54.4687 L151.412,54.0808 C150.725,54.9602 149.962,55.6254 149.125,56.0845 L149.428,56.6369 Z M151.48,54.533 L153.736,56.1081 L154.097,55.5915 L151.84,54.0164 L151.48,54.533 Z M153.671,55.6523 C152.763,56.7797 151.635,57.6886 150.282,58.3788 L150.569,58.94 C151.997,58.2113 153.196,57.2471 154.162,56.0473 L153.671,55.6523 Z M150.285,58.3777 C148.968,59.036 147.541,59.3661 145.998,59.3661 L145.998,59.9961 C147.634,59.9961 149.158,59.6451 150.566,58.9412 L150.285,58.3777 Z M173.751,39.7158 L173.587,39.985 L173.751,39.7158 Z M177.156,43.3342 L176.879,43.4833 L176.88,43.4854 L177.156,43.3342 Z M178.348,49.6346 L178.348,49.9496 L178.634,49.9496 L178.662,49.6659 L178.348,49.6346 Z M161.959,49.6346 L161.959,49.3196 L161.626,49.3196 L161.644,49.6521 L161.959,49.6346 Z M163.96,54.8707 L163.719,55.0738 L163.96,54.8707 Z M173.155,56.1052 L173.31,56.3796 L173.312,56.3783 L173.155,56.1052 Z M175.879,53.4233 L176.054,53.1612 L175.779,52.978 L175.609,53.2613 L175.879,53.4233 Z M178.178,54.9558 L178.444,55.1246 L178.609,54.8646 L178.353,54.6938 L178.178,54.9558 Z M174.475,58.4466 L174.624,58.7241 L174.628,58.722 L174.475,58.4466 Z M163.875,58.3189 L163.712,58.5885 L163.875,58.3189 Z M160.341,54.5302 L160.62,54.3834 L160.341,54.5302 Z M160.299,43.5471 L160.02,43.4004 L160.018,43.4043 L160.299,43.5471 Z M163.789,39.7584 L163.627,39.4887 L163.624,39.4901 L163.789,39.7584 Z M175.496,47.2507 L175.496,47.5657 L175.857,47.5657 L175.808,47.2079 L175.496,47.2507 Z M173.41,42.6105 L173.193,42.8391 L173.197,42.842 L173.41,42.6105 Z M164.343,42.8234 L164.12,42.6007 L164.343,42.8234 Z M162.129,47.2507 L161.819,47.1965 L161.755,47.5657 L162.129,47.5657 L162.129,47.2507 Z M168.898,38.7111 C170.631,38.7111 172.192,39.1369 173.587,39.985 L173.914,39.4466 C172.415,38.5352 170.74,38.0811 168.898,38.0811 L168.898,38.7111 Z M173.587,39.985 C174.985,40.8348 176.082,41.9988 176.879,43.4833 L177.434,43.1852 C176.585,41.6046 175.411,40.3564 173.914,39.4466 L173.587,39.985 Z M176.88,43.4854 C177.675,44.939 178.076,46.5748 178.076,48.4001 L178.706,48.4001 C178.706,46.4791 178.284,44.7377 177.433,43.183 L176.88,43.4854 Z M178.076,48.4001 C178.076,48.9363 178.062,49.3353 178.035,49.6033 L178.662,49.6659 C178.692,49.3663 178.706,48.9423 178.706,48.4001 L178.076,48.4001 Z M178.348,49.3196 L161.959,49.3196 L161.959,49.9496 L178.348,49.9496 L178.348,49.3196 Z M161.644,49.6521 C161.761,51.7578 162.451,53.5698 163.719,55.0738 L164.201,54.6677 C163.028,53.2768 162.384,51.5981 162.273,49.6171 L161.644,49.6521 Z M163.719,55.0738 C165.006,56.6004 166.759,57.3568 168.94,57.3568 L168.94,56.7268 C166.922,56.7268 165.354,56.0357 164.201,54.6677 L163.719,55.0738 Z M168.94,57.3568 C170.68,57.3568 172.142,57.0381 173.31,56.3796 L173,55.8309 C171.954,56.4211 170.607,56.7268 168.94,56.7268 L168.94,57.3568 Z M173.312,56.3783 C174.494,55.6985 175.441,54.7661 176.149,53.5854 L175.609,53.2613 C174.955,54.351 174.086,55.2065 172.998,55.8322 L173.312,56.3783 Z M175.705,53.6854 L178.003,55.2179 L178.353,54.6938 L176.054,53.1612 L175.705,53.6854 Z M177.912,54.7871 C177.004,56.2183 175.808,57.3453 174.322,58.1712 L174.628,58.722 C176.206,57.8451 177.479,56.6449 178.444,55.1246 L177.912,54.7871 Z M174.326,58.1691 C172.847,58.9629 171.084,59.3661 169.026,59.3661 L169.026,59.9961 C171.167,59.9961 173.037,59.5763 174.624,58.7241 L174.326,58.1691 Z M169.026,59.3661 C167.147,59.3661 165.488,58.9248 164.037,58.0492 L163.712,58.5885 C165.27,59.5292 167.044,59.9961 169.026,59.9961 L169.026,59.3661 Z M164.037,58.0492 C162.584,57.1719 161.446,55.9525 160.62,54.3834 L160.063,54.6769 C160.94,56.3432 162.157,57.6495 163.712,58.5885 L164.037,58.0492 Z M160.62,54.3834 C159.795,52.8161 159.379,51.037 159.379,49.0386 L158.749,49.0386 C158.749,51.127 159.185,53.0088 160.063,54.6769 L160.62,54.3834 Z M159.379,49.0386 C159.379,47.0386 159.782,45.258 160.58,43.6899 L160.018,43.4043 C159.17,45.0715 158.749,46.9519 158.749,49.0386 L159.379,49.0386 Z M160.578,43.6938 C161.404,42.1233 162.53,40.9035 163.955,40.0266 L163.624,39.4901 C162.098,40.4295 160.896,41.7356 160.02,43.4004 L160.578,43.6938 Z M163.952,40.028 C165.403,39.1519 167.049,38.7111 168.898,38.7111 L168.898,38.0811 C166.944,38.0811 165.184,38.5484 163.627,39.4887 L163.952,40.028 Z M175.808,47.2079 C175.518,45.0916 174.802,43.4665 173.624,42.3791 L173.197,42.842 C174.232,43.7979 174.906,45.2663 175.184,47.2934 L175.808,47.2079 Z M173.627,42.382 C172.448,41.2636 170.859,40.7205 168.898,40.7205 L168.898,41.3505 C170.74,41.3505 172.159,41.8574 173.194,42.8391 L173.627,42.382 Z M168.898,40.7205 C166.978,40.7205 165.377,41.3438 164.12,42.6007 L164.566,43.0461 C165.693,41.9191 167.128,41.3505 168.898,41.3505 L168.898,40.7205 Z M164.12,42.6007 C162.906,43.8148 162.141,45.3516 161.819,47.1965 L162.44,47.3049 C162.742,45.5739 163.453,44.1592 164.566,43.0461 L164.12,42.6007 Z M162.129,47.5657 L175.496,47.5657 L175.496,46.9357 L162.129,46.9357 L162.129,47.5657 Z M202.22,59 L201.964,59.1829 L202.058,59.315 L202.22,59.315 L202.22,59 Z M192.259,45.037 L192.515,44.8541 L192.28,44.5245 L192.018,44.8334 L192.259,45.037 Z M189.194,48.6555 L188.953,48.4519 L188.879,48.54 L188.879,48.6555 L189.194,48.6555 Z M189.194,59 L189.194,59.315 L189.508,59.315 L189.508,59 L189.194,59 Z M186.001,59 L185.686,59 L185.686,59.315 L186.001,59.315 L186.001,59 Z M186.001,29.9673 L186.001,29.6523 L185.686,29.6523 L185.686,29.9673 L186.001,29.9673 Z M189.194,29.9673 L189.508,29.9673 L189.508,29.6523 L189.194,29.6523 L189.194,29.9673 Z M189.194,44.6539 L188.879,44.6539 L188.879,45.5228 L189.435,44.8558 L189.194,44.6539 Z M201.454,29.9673 L201.454,29.6523 L201.306,29.6523 L201.212,29.7654 L201.454,29.9673 Z M204.987,29.9673 L205.228,30.1705 L205.665,29.6523 L204.987,29.6523 L204.987,29.9673 Z M194.132,42.8234 L193.891,42.6202 L193.732,42.8085 L193.876,43.0081 L194.132,42.8234 Z M205.838,59 L205.838,59.315 L206.455,59.315 L206.094,58.8153 L205.838,59 Z M202.476,58.8171 L192.515,44.8541 L192.002,45.22 L201.964,59.1829 L202.476,58.8171 Z M192.018,44.8334 L188.953,48.4519 L189.434,48.8591 L192.499,45.2406 L192.018,44.8334 Z M188.879,48.6555 L188.879,59 L189.508,59 L189.508,48.6555 L188.879,48.6555 Z M189.194,58.685 L186.001,58.685 L186.001,59.315 L189.194,59.315 L189.194,58.685 Z M186.316,59 L186.316,29.9673 L185.686,29.9673 L185.686,59 L186.316,59 Z M186.001,30.2823 L189.194,30.2823 L189.194,29.6523 L186.001,29.6523 L186.001,30.2823 Z M188.879,29.9673 L188.879,44.6539 L189.508,44.6539 L189.508,29.9673 L188.879,29.9673 Z M189.435,44.8558 L201.695,30.1691 L201.212,29.7654 L188.952,44.452 L189.435,44.8558 Z M201.454,30.2823 L204.987,30.2823 L204.987,29.6523 L201.454,29.6523 L201.454,30.2823 Z M204.746,29.764 L193.891,42.6202 L194.372,43.0266 L205.228,30.1705 L204.746,29.764 Z M193.876,43.0081 L205.583,59.1847 L206.094,58.8153 L194.387,42.6387 L193.876,43.0081 Z M205.838,58.685 L202.22,58.685 L202.22,59.315 L205.838,59.315 L205.838,58.685 Z M212.747,59 L212.432,59 L212.432,59.315 L212.747,59.315 L212.747,59 Z M212.747,39.0772 L212.747,38.7622 L212.432,38.7622 L212.432,39.0772 L212.747,39.0772 Z M215.642,39.0772 L215.957,39.0772 L215.957,38.7622 L215.642,38.7622 L215.642,39.0772 Z M215.642,59 L215.642,59.315 L215.957,59.315 L215.957,59 L215.642,59 Z M212.534,34.5222 L212.304,34.7378 L212.311,34.745 L212.534,34.5222 Z M212.534,31.2869 L212.757,31.5097 L212.534,31.2869 Z M215.812,31.2869 L215.589,31.5098 L215.597,31.5167 L215.812,31.2869 Z M215.812,34.5222 L215.589,34.2995 L215.812,34.5222 Z M213.062,59 L213.062,39.0772 L212.432,39.0772 L212.432,59 L213.062,59 Z M212.747,39.3922 L215.642,39.3922 L215.642,38.7622 L212.747,38.7622 L212.747,39.3922 Z M215.327,39.0772 L215.327,59 L215.957,59 L215.957,39.0772 L215.327,39.0772 Z M215.642,58.685 L212.747,58.685 L212.747,59.315 L215.642,59.315 L215.642,58.685 Z M214.194,34.8884 C213.624,34.8884 213.151,34.6934 212.757,34.2995 L212.311,34.745 C212.826,35.2592 213.46,35.5184 214.194,35.5184 L214.194,34.8884 Z M212.764,34.3068 C212.396,33.9142 212.211,33.439 212.211,32.862 L211.581,32.862 C211.581,33.5905 211.821,34.2222 212.304,34.7377 L212.764,34.3068 Z M212.211,32.862 C212.211,32.3177 212.393,31.8739 212.757,31.5097 L212.311,31.0642 C211.824,31.5514 211.581,32.1576 211.581,32.862 L212.211,32.862 Z M212.757,31.5097 C213.151,31.1157 213.624,30.9208 214.194,30.9208 L214.194,30.2908 C213.46,30.2908 212.826,30.55 212.311,31.0642 L212.757,31.5097 Z M214.194,30.9208 C214.733,30.9208 215.192,31.1128 215.589,31.5097 L216.035,31.0642 C215.524,30.5529 214.905,30.2908 214.194,30.2908 L214.194,30.9208 Z M215.597,31.5167 C215.984,31.8797 216.178,32.3341 216.178,32.9046 L216.808,32.9046 C216.808,32.1695 216.549,31.5456 216.028,31.0571 L215.597,31.5167 Z M216.178,32.9046 C216.178,33.4428 215.986,33.9026 215.589,34.2995 L216.035,34.745 C216.546,34.2337 216.808,33.6151 216.808,32.9046 L216.178,32.9046 Z M215.589,34.2995 C215.192,34.6964 214.733,34.8884 214.194,34.8884 L214.194,35.5184 C214.905,35.5184 215.524,35.2563 216.035,34.745 L215.589,34.2995 Z M226.282,59 L225.967,59 L225.967,59.315 L226.282,59.315 L226.282,59 Z M226.282,41.7166 L226.597,41.7166 L226.597,41.4016 L226.282,41.4016 L226.282,41.7166 Z M222.876,41.7166 L222.561,41.7166 L222.561,42.0316 L222.876,42.0316 L222.876,41.7166 Z M222.876,39.0772 L222.876,38.7622 L222.561,38.7622 L222.561,39.0772 L222.876,39.0772 Z M226.282,39.0772 L226.282,39.3922 L226.597,39.3922 L226.597,39.0772 L226.282,39.0772 Z M226.282,32.4789 L226.282,32.1639 L225.967,32.1639 L225.967,32.4789 L226.282,32.4789 Z M229.177,32.4789 L229.492,32.4789 L229.492,32.1639 L229.177,32.1639 L229.177,32.4789 Z M229.177,39.0772 L228.862,39.0772 L228.862,39.3922 L229.177,39.3922 L229.177,39.0772 Z M233.774,39.0772 L234.089,39.0772 L234.089,38.7622 L233.774,38.7622 L233.774,39.0772 Z M233.774,41.7166 L233.774,42.0316 L234.089,42.0316 L234.089,41.7166 L233.774,41.7166 Z M229.177,41.7166 L229.177,41.4016 L228.862,41.4016 L228.862,41.7166 L229.177,41.7166 Z M229.177,59 L229.177,59.315 L229.492,59.315 L229.492,59 L229.177,59 Z M226.597,59 L226.597,41.7166 L225.967,41.7166 L225.967,59 L226.597,59 Z M226.282,41.4016 L222.876,41.4016 L222.876,42.0316 L226.282,42.0316 L226.282,41.4016 Z M223.191,41.7166 L223.191,39.0772 L222.561,39.0772 L222.561,41.7166 L223.191,41.7166 Z M222.876,39.3922 L226.282,39.3922 L226.282,38.7622 L222.876,38.7622 L222.876,39.3922 Z M226.597,39.0772 L226.597,32.4789 L225.967,32.4789 L225.967,39.0772 L226.597,39.0772 Z M226.282,32.7939 L229.177,32.7939 L229.177,32.1639 L226.282,32.1639 L226.282,32.7939 Z M228.862,32.4789 L228.862,39.0772 L229.492,39.0772 L229.492,32.4789 L228.862,32.4789 Z M229.177,39.3922 L233.774,39.3922 L233.774,38.7622 L229.177,38.7622 L229.177,39.3922 Z M233.459,39.0772 L233.459,41.7166 L234.089,41.7166 L234.089,39.0772 L233.459,39.0772 Z M233.774,41.4016 L229.177,41.4016 L229.177,42.0316 L233.774,42.0316 L233.774,41.4016 Z M228.862,41.7166 L228.862,59 L229.492,59 L229.492,41.7166 L228.862,41.7166 Z M229.177,58.685 L226.282,58.685 L226.282,59.315 L229.177,59.315 L229.177,58.685 Z" id="Shape" fill-rule="nonzero"></path>
            <rect id="Rectangle" fill-rule="nonzero" x="260" y="0" width="2" height="89"></rect>
        </g>
    </g>
</svg>