<?xml version="1.0" encoding="UTF-8"?>
<svg width="241px" height="193px" viewBox="0 0 241 193" version="1.1" xmlns="http://www.w3.org/2000/svg" xmlns:xlink="http://www.w3.org/1999/xlink">
    <!-- Generator: Sketch 59.1 (86144) - https://sketch.com -->
    <title>uo-coral-logo3 copy</title>
    <desc>Created with Sketch.</desc>
    <g id="Page-1" stroke="none" stroke-width="1" fill="none" fill-rule="evenodd">
        <g id="uo-coral-logo3-copy" transform="translate(1.000000, 1.000000)">
            <g id="uo-full-logo-copy-2" transform="translate(0.000000, 38.000000)" fill="#8A13FE" fill-rule="nonzero">
                <g id="Group" transform="translate(119.700000, 57.500000) scale(-1, 1) rotate(-180.000000) translate(-119.700000, -57.500000) translate(0.700000, 0.000000)">
                    <path d="M42.5002,112.3999 C38.8,109.3999 38.5002,108.2998 37.9001,89 C37.5998,81 36.9001,73.1001 36.4001,71.5 C36.0002,69.7998 35.0002,66 34.4001,63 C32.6999,55.5 31.5998,52.5 28.0002,45.2998 C26.1999,41.7998 24.4001,39.2002 23.8,39.2998 C22.5998,39.7002 19.5998,47.4004 17.6999,55 C16.9001,58 16.0002,68.3999 15.5998,78 C15.0002,94.3999 14.8,95.5 12.6999,97.7002 C9.8,100.6001 8.0998,100.6001 4.8,97.7998 C1.5002,94.7998 0.1999,87.5 0.0998,71.2002 C0.0998,54.8999 0.6999,50.2002 4.0998,37 C6.5998,27.2002 14.8,18.7998 22.8,17.5996 C31.5998,16.4004 42.9001,25.5 49.5002,39.2002 C56.6999,54.2002 59.5998,69.7002 59.1999,90.3999 C58.8,104.7002 58.5998,105.8999 56.3,109.2998 C52.5002,114.8999 47.1999,116.1001 42.5002,112.3999 Z" id="Path"></path>
                    <path d="M160.7004,104.5 C145.3996,86.2002 143.3996,81.3999 148.8996,77.1001 C151.3,75.2002 151.3996,74.7998 150.3,71.5 C147.7004,63.7002 152.0002,58 160.3996,58 C166.5002,58 168.7004,58.8999 177.8996,64.8999 C186.8996,70.8999 189.7004,74.1001 188.7004,77.2002 C187.8996,80 186.5002,81 183.5002,81 C181.2004,81 174.0998,77.8999 168.8,74.5 C166.3,72.8999 166.5002,73.3999 170.0998,77 C177.5998,84.7998 178.7004,89.2002 174.0998,93.2002 C172.5998,94.3999 171.0998,94.8999 169.5002,94.5 C167.5002,94 167.8,94.7998 172.2004,100.6001 C177.5998,107.7998 178.3996,110.7002 175.5002,113.2998 C171.8,116.7002 169.8,115.5 160.7004,104.5 Z" id="Path"></path>
                    <path d="M128.8,101 C127.3,99.3999 127.0002,97.5 127.2004,91.7002 C127.3,87.7998 127.5002,83.6001 127.5998,82.6001 C127.8,80.7002 122.5998,76.7998 121.0998,77.7002 C120.5998,77.8999 120.3,79.7998 120.3,81.7998 C120.3,91.2002 116.3,96.7002 111.4001,94 C107.6999,92.1001 107.0998,88.5 107.8,73 C108.1999,62.2998 108.0998,59 107.3,60.2998 C105.4001,63.2998 100.6999,62.3999 96.0002,58.2002 C89.3,52.1001 80.3,45 79.3,45 C77.9001,45 78.0998,54.7002 79.6999,60.5 C80.4001,63.2998 82.0002,67.5 83.1999,69.7998 L85.4001,74.2002 L88.6999,70.3999 C91.6999,67 92.0998,66.7998 94.3,68 C97.6999,69.7998 98.3,70.8999 98.3,75.3999 C98.3,85.5 87.5002,91.3999 78.8,86 C67.9001,79.2002 60.0002,50 65.9001,37.7002 C69.4001,30.4004 79.9001,27.7002 87.3,32.0996 C91.5998,34.7002 101.4001,45 105.4001,50.8999 C108.0002,55 108.3,55.2002 108.5002,52.8999 C109.0002,45.0996 110.1999,41.2002 112.5998,39 C116.7004,35.0996 121.5002,37.2998 122.5002,43.5 C122.8,45.2002 122.8,50.7002 122.3996,55.7998 L121.8,65.2002 L125.2004,66.6001 C127.0998,67.3999 128.8,67.8999 129.0002,67.7002 C129.0998,67.5 129.3996,65.2998 129.3996,62.8999 C129.5002,60.5 130.3996,56.2002 131.5002,53.3999 C133.5002,47.7998 135.7004,46.4004 139.8996,48 C143.0002,49.2002 143.5998,53.1001 143.0002,68.7002 C142.3996,84.7002 140.0002,97.6001 137.0998,100.7002 C134.3996,103.5 131.2004,103.6001 128.8,101 Z" id="Path"></path>
                    <path d="M221.8996,68.2002 C219.7004,65.5996 218.3996,60.0996 218.8996,54.9004 C219.2004,51.7998 218.8996,50.7998 217.5002,50.2998 C216.5998,50 214.3,48.5996 212.5002,47.2998 C210.7004,45.9004 209.0002,45 208.7004,45.2998 C208.5002,45.5 207.5998,49.2998 206.8,53.5996 C204.7004,64.4004 204.5002,65 201.5998,66.0996 C197.8996,67.5 195.7004,66.4004 193.8,62.2998 C192.0998,58.7998 192.0998,58 193.8,46.7998 C194.7004,40.2998 195.3,33.5996 195.0002,31.7998 C194.7004,29.7002 195.0998,27.4004 196.3,25.5 C197.3,23.9004 198.3996,20.2998 198.8,17.5 C199.5998,11.7002 202.5002,8 206.2004,8 C210.5002,8 211.7004,11.2002 211.5002,21.5 L211.2004,30.5 L215.0002,33.7002 C217.0998,35.5 219.0998,37 219.3996,37 C219.7004,37 220.3,34.9004 220.7004,32.4004 C222.2004,21.0996 231.3996,13.5996 236.3,19.5 C237.2004,20.5996 237.2004,23.9004 236.2004,33.9004 C235.0998,44.7998 235.2004,47.5 236.3,51.0996 C237.5998,55 237.5998,55.4004 235.7004,56.9004 C234.5998,57.7998 233.3,60.2998 233.0002,62.5 C232.2004,67.0996 230.8,68.7002 226.8,69.6001 C224.5002,70 223.3,69.7002 221.8996,68.2002 Z" id="Path"></path>
                    <path d="M160.8,52.2998 C154.8,51.5 152.0002,49.7002 148.3,43.9004 C145.5998,39.7002 144.3,36.2002 143.3,30.7002 C141.2004,18.0996 143.3996,9.5996 150.5002,3.5996 C154.0998,0.4004 155.3,0 160.0002,0 C167.0002,0 171.2004,1.9004 176.8,7.5 C182.0002,12.5996 185.5998,19.7998 187.3996,28.7002 C188.5002,33.9004 188.3996,35.2002 186.8996,39.2002 C184.3,45.9004 179.7004,49.9004 172.5998,51.5996 C166.7004,53 166.2004,53 160.8,52.2998 Z M167.3996,36.7998 C173.3996,37.2002 173.7004,30.5 168.2004,21.7998 C164.8,16.5996 161.0998,13.4004 159.3996,14.4004 C158.0998,15.2998 156.3,21.7002 156.3,25.7002 C156.3,27.4004 157.2004,30.9004 158.3,33.5 C160.0002,37.5996 160.5998,38 162.5002,37.4004 C163.8,37 166.0002,36.7002 167.3996,36.7998 Z" id="Shape"></path>
                </g>
            </g>
            <rect id="Rectangle" stroke="#979797" opacity="0.00823102679" x="0" y="0" width="239" height="191"></rect>
        </g>
    </g>
</svg>