<svg width="664" height="274" viewBox="0 0 664 274" fill="none" xmlns="http://www.w3.org/2000/svg">
<path d="M320.322 156.552V189H310.786V184.2C309.805 185.864 308.418 187.165 306.626 188.104C304.834 189.043 302.808 189.512 300.546 189.512C297.73 189.512 295.234 188.829 293.058 187.464C290.925 186.099 289.24 184.157 288.002 181.64C286.808 179.08 286.21 176.136 286.21 172.808C286.21 169.48 286.808 166.515 288.002 163.912C289.24 161.309 290.946 159.304 293.122 157.896C295.298 156.445 297.773 155.72 300.546 155.72C302.808 155.72 304.834 156.211 306.626 157.192C308.418 158.173 309.805 159.496 310.786 161.16V156.552H320.322ZM303.362 182.152C305.752 182.152 307.586 181.341 308.866 179.72C310.146 178.099 310.786 175.752 310.786 172.68C310.786 169.608 310.146 167.261 308.866 165.64C307.586 163.976 305.752 163.144 303.362 163.144C300.973 163.144 299.117 163.997 297.794 165.704C296.472 167.411 295.81 169.779 295.81 172.808C295.81 175.837 296.45 178.163 297.73 179.784C299.053 181.363 300.93 182.152 303.362 182.152ZM371.835 156.552H381.179L368.059 189H359.931L352.571 170.184L345.531 189H337.339L324.219 156.552H334.075L341.883 177.48L349.627 156.552H356.219L364.027 177.672L371.835 156.552ZM413.618 173.576H392.242C392.412 176.605 393.202 178.824 394.61 180.232C396.018 181.597 398.108 182.28 400.882 182.28C402.546 182.28 404.21 182.003 405.874 181.448C407.538 180.893 409.074 180.083 410.482 179.016L413.042 185.544C411.506 186.781 409.586 187.763 407.282 188.488C405.02 189.171 402.738 189.512 400.434 189.512C394.972 189.512 390.684 188.019 387.57 185.032C384.455 182.003 382.898 177.885 382.898 172.68C382.898 169.395 383.559 166.472 384.882 163.912C386.247 161.309 388.146 159.304 390.578 157.896C393.01 156.445 395.762 155.72 398.834 155.72C403.399 155.72 407.004 157.213 409.65 160.2C412.295 163.144 413.618 167.133 413.618 172.168V173.576ZM399.09 162.504C397.255 162.504 395.762 163.037 394.61 164.104C393.5 165.171 392.775 166.728 392.434 168.776H405.298C404.786 164.595 402.716 162.504 399.09 162.504ZM432.101 189.512C425.957 189.512 421.115 188.189 417.573 185.544L420.133 178.824C421.84 180.061 423.739 181.021 425.829 181.704C427.92 182.344 430.053 182.664 432.229 182.664C433.893 182.664 435.173 182.408 436.069 181.896C436.965 181.384 437.413 180.637 437.413 179.656C437.413 178.845 437.093 178.205 436.453 177.736C435.813 177.267 434.683 176.861 433.061 176.52L427.749 175.304C424.635 174.621 422.331 173.533 420.837 172.04C419.387 170.547 418.661 168.563 418.661 166.088C418.661 164.083 419.237 162.291 420.389 160.712C421.584 159.133 423.227 157.917 425.317 157.064C427.408 156.168 429.819 155.72 432.549 155.72C434.853 155.72 437.115 156.083 439.333 156.808C441.552 157.491 443.536 158.472 445.285 159.752L442.597 166.216C440.933 165.064 439.227 164.189 437.477 163.592C435.771 162.995 434.107 162.696 432.485 162.696C430.907 162.696 429.669 162.973 428.773 163.528C427.877 164.083 427.429 164.851 427.429 165.832C427.429 166.557 427.685 167.155 428.197 167.624C428.752 168.051 429.712 168.413 431.077 168.712L436.517 169.928C439.845 170.696 442.256 171.848 443.749 173.384C445.243 174.92 445.989 176.968 445.989 179.528C445.989 182.6 444.752 185.032 442.277 186.824C439.803 188.616 436.411 189.512 432.101 189.512ZM467.361 189.512C463.905 189.512 460.875 188.829 458.273 187.464C455.713 186.099 453.729 184.136 452.321 181.576C450.955 179.016 450.273 176.029 450.273 172.616C450.273 169.203 450.955 166.216 452.321 163.656C453.729 161.096 455.713 159.133 458.273 157.768C460.875 156.403 463.905 155.72 467.361 155.72C470.774 155.72 473.761 156.403 476.321 157.768C478.881 159.133 480.843 161.096 482.209 163.656C483.617 166.216 484.321 169.203 484.321 172.616C484.321 176.029 483.617 179.016 482.209 181.576C480.843 184.136 478.881 186.099 476.321 187.464C473.761 188.829 470.774 189.512 467.361 189.512ZM467.361 182.152C469.75 182.152 471.563 181.363 472.801 179.784C474.081 178.205 474.721 175.816 474.721 172.616C474.721 169.459 474.081 167.091 472.801 165.512C471.563 163.891 469.75 163.08 467.361 163.08C464.929 163.08 463.073 163.891 461.793 165.512C460.513 167.091 459.873 169.459 459.873 172.616C459.873 178.973 462.369 182.152 467.361 182.152ZM530.178 155.72C533.89 155.72 536.642 156.851 538.434 159.112C540.268 161.331 541.186 164.744 541.186 169.352V189H531.522V169.672C531.522 167.411 531.159 165.789 530.434 164.808C529.708 163.784 528.514 163.272 526.85 163.272C524.887 163.272 523.372 163.955 522.306 165.32C521.239 166.685 520.706 168.605 520.706 171.08V189H511.042V169.672C511.042 167.453 510.658 165.832 509.89 164.808C509.164 163.784 507.991 163.272 506.37 163.272C504.407 163.272 502.871 163.955 501.762 165.32C500.695 166.685 500.162 168.605 500.162 171.08V189H490.498V165.832C490.498 162.376 490.327 159.283 489.986 156.552H499.074L499.65 161.416C500.631 159.581 501.996 158.173 503.746 157.192C505.538 156.211 507.586 155.72 509.89 155.72C514.711 155.72 517.911 157.725 519.49 161.736C520.556 159.901 522.028 158.451 523.906 157.384C525.826 156.275 527.916 155.72 530.178 155.72ZM577.93 173.576H556.554C556.725 176.605 557.514 178.824 558.922 180.232C560.33 181.597 562.421 182.28 565.194 182.28C566.858 182.28 568.522 182.003 570.186 181.448C571.85 180.893 573.386 180.083 574.794 179.016L577.354 185.544C575.818 186.781 573.898 187.763 571.594 188.488C569.333 189.171 567.05 189.512 564.746 189.512C559.285 189.512 554.997 188.019 551.882 185.032C548.768 182.003 547.21 177.885 547.21 172.68C547.21 169.395 547.872 166.472 549.194 163.912C550.56 161.309 552.458 159.304 554.89 157.896C557.322 156.445 560.074 155.72 563.146 155.72C567.712 155.72 571.317 157.213 573.962 160.2C576.608 163.144 577.93 167.133 577.93 172.168V173.576ZM563.402 162.504C561.568 162.504 560.074 163.037 558.922 164.104C557.813 165.171 557.088 166.728 556.746 168.776H569.61C569.098 164.595 567.029 162.504 563.402 162.504Z" fill="#A8A8C4"/>
<path d="M463.166 211.896V259H453.63V254.2C452.649 255.864 451.262 257.165 449.47 258.104C447.678 259.043 445.651 259.512 443.39 259.512C440.617 259.512 438.142 258.808 435.966 257.4C433.79 255.949 432.083 253.944 430.846 251.384C429.651 248.781 429.054 245.816 429.054 242.488C429.054 239.16 429.651 236.237 430.846 233.72C432.083 231.16 433.769 229.197 435.902 227.832C438.078 226.424 440.574 225.72 443.39 225.72C445.566 225.72 447.55 226.189 449.342 227.128C451.134 228.024 452.521 229.283 453.502 230.904V211.896H463.166ZM446.206 252.152C448.595 252.152 450.43 251.341 451.71 249.72C452.99 248.056 453.63 245.688 453.63 242.616C453.63 239.587 452.969 237.261 451.646 235.64C450.366 233.976 448.553 233.144 446.206 233.144C443.817 233.144 441.961 233.955 440.638 235.576C439.315 237.197 438.654 239.501 438.654 242.488C438.654 245.56 439.315 247.949 440.638 249.656C441.961 251.32 443.817 252.152 446.206 252.152ZM500.087 243.576H478.711C478.881 246.605 479.671 248.824 481.079 250.232C482.487 251.597 484.577 252.28 487.351 252.28C489.015 252.28 490.679 252.003 492.343 251.448C494.007 250.893 495.543 250.083 496.951 249.016L499.511 255.544C497.975 256.781 496.055 257.763 493.751 258.488C491.489 259.171 489.207 259.512 486.903 259.512C481.441 259.512 477.153 258.019 474.039 255.032C470.924 252.003 469.367 247.885 469.367 242.68C469.367 239.395 470.028 236.472 471.351 233.912C472.716 231.309 474.615 229.304 477.047 227.896C479.479 226.445 482.231 225.72 485.303 225.72C489.868 225.72 493.473 227.213 496.119 230.2C498.764 233.144 500.087 237.133 500.087 242.168V243.576ZM485.559 232.504C483.724 232.504 482.231 233.037 481.079 234.104C479.969 235.171 479.244 236.728 478.903 238.776H491.767C491.255 234.595 489.185 232.504 485.559 232.504ZM518.57 259.512C512.426 259.512 507.583 258.189 504.042 255.544L506.602 248.824C508.309 250.061 510.207 251.021 512.298 251.704C514.389 252.344 516.522 252.664 518.698 252.664C520.362 252.664 521.642 252.408 522.538 251.896C523.434 251.384 523.882 250.637 523.882 249.656C523.882 248.845 523.562 248.205 522.922 247.736C522.282 247.267 521.151 246.861 519.53 246.52L514.218 245.304C511.103 244.621 508.799 243.533 507.306 242.04C505.855 240.547 505.13 238.563 505.13 236.088C505.13 234.083 505.706 232.291 506.858 230.712C508.053 229.133 509.695 227.917 511.786 227.064C513.877 226.168 516.287 225.72 519.018 225.72C521.322 225.72 523.583 226.083 525.802 226.808C528.021 227.491 530.005 228.472 531.754 229.752L529.066 236.216C527.402 235.064 525.695 234.189 523.946 233.592C522.239 232.995 520.575 232.696 518.954 232.696C517.375 232.696 516.138 232.973 515.242 233.528C514.346 234.083 513.898 234.851 513.898 235.832C513.898 236.557 514.154 237.155 514.666 237.624C515.221 238.051 516.181 238.413 517.546 238.712L522.986 239.928C526.314 240.696 528.725 241.848 530.218 243.384C531.711 244.92 532.458 246.968 532.458 249.528C532.458 252.6 531.221 255.032 528.746 256.824C526.271 258.616 522.879 259.512 518.57 259.512ZM538.342 259V226.552H548.006V259H538.342ZM538.022 211.32H548.326V220.408H538.022V211.32ZM588.736 226.552V257.528C588.736 262.691 587.243 266.616 584.256 269.304C581.269 271.992 576.917 273.336 571.2 273.336C566.037 273.336 561.557 272.333 557.76 270.328L559.232 263.16C563.157 265.123 567.04 266.104 570.88 266.104C573.653 266.104 575.723 265.443 577.088 264.12C578.453 262.84 579.136 260.877 579.136 258.232V252.6C578.112 254.179 576.683 255.501 574.848 256.568C573.013 257.592 570.987 258.104 568.768 258.104C565.952 258.104 563.456 257.443 561.28 256.12C559.104 254.755 557.397 252.856 556.16 250.424C554.923 247.949 554.304 245.112 554.304 241.912C554.304 238.712 554.923 235.896 556.16 233.464C557.397 230.989 559.104 229.091 561.28 227.768C563.456 226.403 565.952 225.72 568.768 225.72C571.029 225.72 573.077 226.211 574.912 227.192C576.747 228.173 578.155 229.496 579.136 231.16V226.552H588.736ZM571.584 250.744C573.931 250.744 575.765 249.976 577.088 248.44C578.453 246.861 579.136 244.685 579.136 241.912C579.136 239.181 578.475 237.048 577.152 235.512C575.829 233.933 573.973 233.144 571.584 233.144C569.195 233.144 567.317 233.933 565.952 235.512C564.587 237.048 563.904 239.181 563.904 241.912C563.904 244.643 564.587 246.797 565.952 248.376C567.317 249.955 569.195 250.744 571.584 250.744ZM616.499 225.72C624.179 225.72 628.019 230.264 628.019 239.352V259H618.355V239.8C618.355 237.539 617.928 235.896 617.075 234.872C616.264 233.805 614.963 233.272 613.171 233.272C611.037 233.272 609.331 233.955 608.051 235.32C606.771 236.685 606.131 238.52 606.131 240.824V259H596.467V235.832C596.467 232.376 596.296 229.283 595.955 226.552H605.043L605.683 231.672C606.835 229.752 608.328 228.28 610.163 227.256C612.04 226.232 614.152 225.72 616.499 225.72ZM648.133 259.512C641.989 259.512 637.146 258.189 633.605 255.544L636.165 248.824C637.871 250.061 639.77 251.021 641.861 251.704C643.951 252.344 646.085 252.664 648.26 252.664C649.925 252.664 651.205 252.408 652.101 251.896C652.997 251.384 653.445 250.637 653.445 249.656C653.445 248.845 653.125 248.205 652.485 247.736C651.845 247.267 650.714 246.861 649.093 246.52L643.781 245.304C640.666 244.621 638.362 243.533 636.869 242.04C635.418 240.547 634.693 238.563 634.693 236.088C634.693 234.083 635.269 232.291 636.421 230.712C637.615 229.133 639.258 227.917 641.349 227.064C643.439 226.168 645.85 225.72 648.581 225.72C650.885 225.72 653.146 226.083 655.365 226.808C657.583 227.491 659.567 228.472 661.317 229.752L658.629 236.216C656.965 235.064 655.258 234.189 653.509 233.592C651.802 232.995 650.138 232.696 648.517 232.696C646.938 232.696 645.701 232.973 644.805 233.528C643.909 234.083 643.461 234.851 643.461 235.832C643.461 236.557 643.717 237.155 644.229 237.624C644.783 238.051 645.743 238.413 647.109 238.712L652.549 239.928C655.877 240.696 658.287 241.848 659.781 243.384C661.274 244.92 662.021 246.968 662.021 249.528C662.021 252.6 660.783 255.032 658.309 256.824C655.834 258.616 652.442 259.512 648.133 259.512Z" fill="#A8A8C4"/>
<path d="M43.584 30.72C47.296 30.72 50.048 31.8507 51.84 34.112C53.6747 36.3307 54.592 39.744 54.592 44.352V64H44.928V44.672C44.928 42.4107 44.5653 40.7893 43.84 39.808C43.1147 38.784 41.92 38.272 40.256 38.272C38.2933 38.272 36.7787 38.9547 35.712 40.32C34.6453 41.6853 34.112 43.6053 34.112 46.08V64H24.448V44.672C24.448 42.4533 24.064 40.832 23.296 39.808C22.5707 38.784 21.3973 38.272 19.776 38.272C17.8133 38.272 16.2773 38.9547 15.168 40.32C14.1013 41.6853 13.568 43.6053 13.568 46.08V64H3.904V40.832C3.904 37.376 3.73333 34.2827 3.392 31.552H12.48L13.056 36.416C14.0373 34.5813 15.4027 33.1733 17.152 32.192C18.944 31.2107 20.992 30.72 23.296 30.72C28.1173 30.72 31.3173 32.7253 32.896 36.736C33.9627 34.9013 35.4347 33.4507 37.312 32.384C39.232 31.2747 41.3227 30.72 43.584 30.72ZM62.2165 64V31.552H71.8805V64H62.2165ZM61.8965 16.32H72.2005V25.408H61.8965V16.32ZM92.195 64.512C86.051 64.512 81.2083 63.1893 77.667 60.544L80.227 53.824C81.9337 55.0613 83.8323 56.0213 85.923 56.704C88.0137 57.344 90.147 57.664 92.323 57.664C93.987 57.664 95.267 57.408 96.163 56.896C97.059 56.384 97.507 55.6373 97.507 54.656C97.507 53.8453 97.187 53.2053 96.547 52.736C95.907 52.2667 94.7763 51.8613 93.155 51.52L87.843 50.304C84.7283 49.6213 82.4243 48.5333 80.931 47.04C79.4803 45.5467 78.755 43.5627 78.755 41.088C78.755 39.0827 79.331 37.2907 80.483 35.712C81.6777 34.1333 83.3203 32.9173 85.411 32.064C87.5017 31.168 89.9123 30.72 92.643 30.72C94.947 30.72 97.2083 31.0827 99.427 31.808C101.646 32.4907 103.63 33.472 105.379 34.752L102.691 41.216C101.027 40.064 99.3203 39.1893 97.571 38.592C95.8643 37.9947 94.2003 37.696 92.579 37.696C91.0003 37.696 89.763 37.9733 88.867 38.528C87.971 39.0827 87.523 39.8507 87.523 40.832C87.523 41.5573 87.779 42.1547 88.291 42.624C88.8457 43.0507 89.8057 43.4133 91.171 43.712L96.611 44.928C99.939 45.696 102.35 46.848 103.843 48.384C105.336 49.92 106.083 51.968 106.083 54.528C106.083 57.6 104.846 60.032 102.371 61.824C99.8963 63.616 96.5043 64.512 92.195 64.512ZM124.383 64.512C118.239 64.512 113.396 63.1893 109.855 60.544L112.415 53.824C114.121 55.0613 116.02 56.0213 118.111 56.704C120.201 57.344 122.335 57.664 124.51 57.664C126.175 57.664 127.455 57.408 128.351 56.896C129.247 56.384 129.695 55.6373 129.695 54.656C129.695 53.8453 129.375 53.2053 128.735 52.736C128.095 52.2667 126.964 51.8613 125.343 51.52L120.031 50.304C116.916 49.6213 114.612 48.5333 113.119 47.04C111.668 45.5467 110.943 43.5627 110.943 41.088C110.943 39.0827 111.519 37.2907 112.671 35.712C113.865 34.1333 115.508 32.9173 117.599 32.064C119.689 31.168 122.1 30.72 124.831 30.72C127.135 30.72 129.396 31.0827 131.615 31.808C133.833 32.4907 135.817 33.472 137.567 34.752L134.879 41.216C133.215 40.064 131.508 39.1893 129.759 38.592C128.052 37.9947 126.388 37.696 124.767 37.696C123.188 37.696 121.951 37.9733 121.055 38.528C120.159 39.0827 119.711 39.8507 119.711 40.832C119.711 41.5573 119.967 42.1547 120.479 42.624C121.033 43.0507 121.993 43.4133 123.359 43.712L128.799 44.928C132.127 45.696 134.537 46.848 136.031 48.384C137.524 49.92 138.271 51.968 138.271 54.528C138.271 57.6 137.033 60.032 134.559 61.824C132.084 63.616 128.692 64.512 124.383 64.512ZM144.154 64V31.552H153.818V64H144.154ZM143.834 16.32H154.138V25.408H143.834V16.32ZM177.205 64.512C173.749 64.512 170.719 63.8293 168.117 62.464C165.557 61.0987 163.573 59.136 162.165 56.576C160.799 54.016 160.117 51.0293 160.117 47.616C160.117 44.2027 160.799 41.216 162.165 38.656C163.573 36.096 165.557 34.1333 168.117 32.768C170.719 31.4027 173.749 30.72 177.205 30.72C180.618 30.72 183.605 31.4027 186.165 32.768C188.725 34.1333 190.687 36.096 192.053 38.656C193.461 41.216 194.165 44.2027 194.165 47.616C194.165 51.0293 193.461 54.016 192.053 56.576C190.687 59.136 188.725 61.0987 186.165 62.464C183.605 63.8293 180.618 64.512 177.205 64.512ZM177.205 57.152C179.594 57.152 181.407 56.3627 182.645 54.784C183.925 53.2053 184.565 50.816 184.565 47.616C184.565 44.4587 183.925 42.0907 182.645 40.512C181.407 38.8907 179.594 38.08 177.205 38.08C174.773 38.08 172.917 38.8907 171.637 40.512C170.357 42.0907 169.717 44.4587 169.717 47.616C169.717 53.9733 172.213 57.152 177.205 57.152ZM220.374 30.72C228.054 30.72 231.894 35.264 231.894 44.352V64H222.23V44.8C222.23 42.5387 221.803 40.896 220.95 39.872C220.139 38.8053 218.838 38.272 217.046 38.272C214.912 38.272 213.206 38.9547 211.926 40.32C210.646 41.6853 210.006 43.52 210.006 45.824V64H200.342V40.832C200.342 37.376 200.171 34.2827 199.83 31.552H208.918L209.558 36.672C210.71 34.752 212.203 33.28 214.038 32.256C215.915 31.232 218.027 30.72 220.374 30.72ZM238.824 32.256H249.256V42.56H238.824V32.256ZM238.824 53.696H249.256V64H238.824V53.696Z" fill="#A8A8C4"/>
<path d="M151.139 125.512C145.848 125.512 141.688 124.019 138.659 121.032C135.672 118.045 134.179 113.971 134.179 108.808C134.179 105.437 134.904 102.472 136.355 99.912C137.806 97.3093 139.832 95.304 142.435 93.896C145.08 92.4453 148.131 91.72 151.587 91.72C153.934 91.72 156.216 92.0827 158.435 92.808C160.654 93.5333 162.424 94.5147 163.747 95.752L161.187 102.472C159.907 101.448 158.499 100.659 156.963 100.104C155.427 99.5067 153.934 99.208 152.483 99.208C149.838 99.208 147.768 100.019 146.275 101.64C144.824 103.219 144.099 105.544 144.099 108.616C144.099 111.731 144.824 114.099 146.275 115.72C147.726 117.299 149.795 118.088 152.483 118.088C153.934 118.088 155.427 117.811 156.963 117.256C158.499 116.659 159.907 115.848 161.187 114.824L163.747 121.544C162.339 122.781 160.504 123.763 158.243 124.488C155.982 125.171 153.614 125.512 151.139 125.512ZM187.222 91.784C188.587 91.784 189.739 91.9973 190.678 92.424L190.614 101.256C189.035 100.531 187.456 100.168 185.878 100.168C183.318 100.168 181.355 100.872 179.99 102.28C178.667 103.645 178.006 105.565 178.006 108.04V125H168.342V101.832C168.342 98.376 168.171 95.2827 167.83 92.552H176.918L177.558 98.12C178.368 96.072 179.627 94.5147 181.333 93.448C183.083 92.3387 185.046 91.784 187.222 91.784ZM223.087 109.576H201.711C201.881 112.605 202.671 114.824 204.079 116.232C205.487 117.597 207.577 118.28 210.351 118.28C212.015 118.28 213.679 118.003 215.343 117.448C217.007 116.893 218.543 116.083 219.951 115.016L222.511 121.544C220.975 122.781 219.055 123.763 216.751 124.488C214.489 125.171 212.207 125.512 209.903 125.512C204.441 125.512 200.153 124.019 197.039 121.032C193.924 118.003 192.367 113.885 192.367 108.68C192.367 105.395 193.028 102.472 194.351 99.912C195.716 97.3093 197.615 95.304 200.047 93.896C202.479 92.4453 205.231 91.72 208.303 91.72C212.868 91.72 216.473 93.2133 219.119 96.2C221.764 99.144 223.087 103.133 223.087 108.168V109.576ZM208.559 98.504C206.724 98.504 205.231 99.0373 204.079 100.104C202.969 101.171 202.244 102.728 201.903 104.776H214.767C214.255 100.595 212.185 98.504 208.559 98.504ZM261.666 92.552V125H252.13V120.2C251.149 121.864 249.762 123.165 247.97 124.104C246.178 125.043 244.151 125.512 241.89 125.512C239.074 125.512 236.578 124.829 234.402 123.464C232.269 122.099 230.583 120.157 229.346 117.64C228.151 115.08 227.554 112.136 227.554 108.808C227.554 105.48 228.151 102.515 229.346 99.912C230.583 97.3093 232.29 95.304 234.466 93.896C236.642 92.4453 239.117 91.72 241.89 91.72C244.151 91.72 246.178 92.2107 247.97 93.192C249.762 94.1733 251.149 95.496 252.13 97.16V92.552H261.666ZM244.706 118.152C247.095 118.152 248.93 117.341 250.21 115.72C251.49 114.099 252.13 111.752 252.13 108.68C252.13 105.608 251.49 103.261 250.21 101.64C248.93 99.976 247.095 99.144 244.706 99.144C242.317 99.144 240.461 99.9973 239.138 101.704C237.815 103.411 237.154 105.779 237.154 108.808C237.154 111.837 237.794 114.163 239.074 115.784C240.397 117.363 242.274 118.152 244.706 118.152ZM281.627 99.784V112.392C281.627 114.184 282.096 115.507 283.035 116.36C283.973 117.171 285.189 117.576 286.683 117.576C287.621 117.576 288.688 117.427 289.883 117.128V124.616C288.347 125.213 286.491 125.512 284.315 125.512C280.304 125.512 277.232 124.381 275.099 122.12C273.008 119.859 271.963 116.68 271.963 112.584V99.784H265.819V92.552H271.963V84.936L281.627 81.8V92.552H289.883V99.784H281.627ZM323.962 109.576H302.586C302.756 112.605 303.546 114.824 304.954 116.232C306.362 117.597 308.452 118.28 311.226 118.28C312.89 118.28 314.554 118.003 316.218 117.448C317.882 116.893 319.418 116.083 320.826 115.016L323.386 121.544C321.85 122.781 319.93 123.763 317.626 124.488C315.364 125.171 313.082 125.512 310.778 125.512C305.316 125.512 301.028 124.019 297.914 121.032C294.799 118.003 293.242 113.885 293.242 108.68C293.242 105.395 293.903 102.472 295.226 99.912C296.591 97.3093 298.49 95.304 300.922 93.896C303.354 92.4453 306.106 91.72 309.178 91.72C313.743 91.72 317.348 93.2133 319.994 96.2C322.639 99.144 323.962 103.133 323.962 108.168V109.576ZM309.434 98.504C307.599 98.504 306.106 99.0373 304.954 100.104C303.844 101.171 303.119 102.728 302.778 104.776H315.642C315.13 100.595 313.06 98.504 309.434 98.504Z" fill="#A8A8C4"/>
</svg>
