<svg width="397" height="1275" viewBox="0 0 397 1275" fill="none" xmlns="http://www.w3.org/2000/svg">
<g clip-path="url(#clip0)">
<path d="M91.5414 44.5226C94.6624 75.6888 86.5711 23.7986 91.6373 55.8745C98.1589 97.1653 106.595 149.734 125.195 174.903C148.897 206.976 174.67 210.685 196.622 220.121C215.794 228.362 240.698 235.538 260.898 277.864C291.371 341.715 282.193 418.912 282.43 475.531C282.541 502.018 283.077 545.677 293.313 567.31" stroke="#BDB2FF" stroke-width="10" stroke-linecap="round" stroke-linejoin="round"/>
<path d="M308.638 608.237L305.724 592.169L321.721 597.447C328.986 599.844 333.761 606.938 333.328 614.688L340.436 622.753L332.425 630.067L325.318 622.002C317.203 622.227 310.114 616.376 308.638 608.237Z" stroke="#BDB2FF" stroke-width="7"/>
<ellipse rx="3.34646" ry="3.48759" transform="matrix(0.735651 -0.671685 0.663514 0.752861 320.659 608.994)" fill="#BDB2FF"/>
<line y1="-2.5" x2="24.9114" y2="-2.5" transform="matrix(0.663514 0.752861 -0.735651 0.671685 305.564 593.668)" stroke="#BDB2FF" stroke-width="5"/>
<path opacity="0.5" fill-rule="evenodd" clip-rule="evenodd" d="M373.956 1243.79C375.047 1242.85 376.098 1241.86 377.108 1240.83C377.829 1240.09 378.524 1239.34 379.194 1238.57L100.972 992.906C100.211 993.596 99.4695 994.309 98.7486 995.045C97.7379 996.077 96.778 997.144 95.8683 998.245L373.956 1243.79ZM365.715 1249.64L90.3209 1006.47C89.1021 1008.72 88.0422 1011.07 87.1385 1013.51L358.556 1253.16C361.052 1252.13 363.441 1250.96 365.715 1249.64ZM347.625 1256.64L84.2809 1024.12C83.7646 1027.01 83.4258 1029.99 83.2609 1033.06L338.304 1258.26C341.516 1257.88 344.627 1257.34 347.625 1256.64ZM324.191 1258.92L83.5852 1046.47C83.941 1050.17 84.5101 1053.96 85.2875 1057.82L312.147 1258.13C316.262 1258.59 320.281 1258.85 324.191 1258.92ZM293.675 1254.95L89.9712 1075.09C91.6399 1080.03 93.6063 1085.05 95.8612 1090.13L277.443 1250.47C282.947 1252.23 288.366 1253.73 293.675 1254.95ZM250.853 1240.12L108.663 1114.57C113.635 1122.81 119.293 1131.11 125.601 1139.37L223.573 1225.87C232.703 1231.25 241.831 1236 250.853 1240.12ZM109.032 986.894L384.923 1230.5C386.189 1228.29 387.296 1225.99 388.248 1223.59L116.048 983.243C113.599 984.319 111.257 985.535 109.032 986.894ZM126.775 979.587L391.31 1213.16C391.88 1210.32 392.275 1207.39 392.497 1204.37L135.929 977.824C132.772 978.254 129.717 978.841 126.775 979.587ZM149.788 976.933L392.427 1191.18C392.143 1187.55 391.649 1183.82 390.95 1180.03L161.606 977.522C157.566 977.136 153.622 976.938 149.788 976.933ZM179.697 980.368L386.648 1163.1C385.101 1158.28 383.267 1153.37 381.153 1148.4L195.534 984.505C190.161 982.864 184.874 981.483 179.697 980.368ZM221.246 994.08L369.229 1124.75C364.715 1116.98 359.585 1109.15 353.87 1101.34L246.947 1006.93C238.331 1002.08 229.734 997.791 221.246 994.08Z" fill="#95F1F7"/>
<path d="M300.578 914.802C300.578 923.818 292.881 931.126 283.386 931.126C273.892 931.126 266.195 923.818 266.195 914.802C266.195 905.787 273.892 898.478 283.386 898.478C292.881 898.478 300.578 905.787 300.578 914.802Z" fill="#705EDF"/>
<path fill-rule="evenodd" clip-rule="evenodd" d="M38.2609 899.647C40.1803 896.459 44.1738 895.389 47.1807 897.256C50.1875 899.123 51.0691 903.221 49.1497 906.408C47.2303 909.595 43.2368 910.665 40.2299 908.798C37.2231 906.931 36.3415 902.834 38.2609 899.647ZM61.3132 886.21C63.2326 883.023 67.2261 881.952 70.233 883.819C73.2398 885.687 74.1214 889.784 72.202 892.971C70.2826 896.158 66.2891 897.228 63.2822 895.361C60.2754 893.494 59.3938 889.397 61.3132 886.21ZM47.5867 871.74C44.5798 869.872 40.5863 870.943 38.6669 874.13C36.7475 877.317 37.629 881.414 40.6359 883.281C43.6427 885.148 47.6363 884.078 49.5557 880.891C51.4751 877.704 50.5935 873.607 47.5867 871.74ZM34.0056 841.502C35.925 838.314 39.9185 837.244 42.9253 839.111C45.9322 840.978 46.8137 845.076 44.8943 848.263C42.9749 851.45 38.9814 852.52 35.9746 850.653C32.9677 848.786 32.0862 844.689 34.0056 841.502ZM69.7056 861.579C69.3878 857.915 66.2498 855.326 62.6967 855.795C59.1436 856.265 56.521 859.615 56.8389 863.279C57.1567 866.943 60.2947 869.533 63.8478 869.063C67.4009 868.594 70.0235 865.243 69.7056 861.579ZM51.236 828.415C53.1554 825.227 57.1489 824.157 60.1557 826.024C63.1626 827.891 64.0441 831.989 62.1247 835.176C60.2053 838.363 56.2118 839.433 53.205 837.566C50.1981 835.699 49.3166 831.602 51.236 828.415ZM110.256 867.045C107.249 865.178 103.255 866.248 101.336 869.435C99.4165 872.622 100.298 876.72 103.305 878.587C106.312 880.454 110.305 879.384 112.225 876.196C114.144 873.009 113.263 868.912 110.256 867.045ZM80.7747 872.525C82.6941 869.338 86.6877 868.268 89.6945 870.135C92.7014 872.002 93.5829 876.099 91.6635 879.286C89.7441 882.474 85.7506 883.544 82.7437 881.677C79.7369 879.81 78.8553 875.712 80.7747 872.525ZM169.49 805.997C172.654 807.576 176.555 806.149 178.202 802.81C179.849 799.471 178.619 795.483 175.454 793.904C172.29 792.325 168.39 793.752 166.743 797.092C165.096 800.431 166.326 804.418 169.49 805.997ZM151.443 809.981C149.796 813.32 145.896 814.747 142.731 813.168C139.567 811.589 138.337 807.602 139.984 804.263C141.631 800.923 145.532 799.496 148.696 801.075C151.86 802.654 153.09 806.641 151.443 809.981ZM157.558 838.233C160.722 839.812 164.622 838.385 166.269 835.045C167.916 831.706 166.686 827.719 163.522 826.14C160.358 824.561 156.458 825.988 154.811 829.327C153.164 832.667 154.394 836.654 157.558 838.233ZM138.033 835.353C136.386 838.692 132.486 840.119 129.321 838.54C126.157 836.961 124.927 832.974 126.574 829.635C128.221 826.295 132.121 824.868 135.286 826.447C138.45 828.026 139.68 832.013 138.033 835.353ZM121.938 804.222C125.102 805.801 129.002 804.374 130.65 801.034C132.297 797.695 131.067 793.708 127.902 792.129C124.738 790.55 120.838 791.977 119.191 795.316C117.544 798.656 118.774 802.643 121.938 804.222ZM144.317 859.076C142.67 862.416 138.769 863.843 135.605 862.264C132.441 860.685 131.211 856.698 132.858 853.358C134.505 850.019 138.405 848.592 141.57 850.171C144.734 851.75 145.964 855.737 144.317 859.076ZM95.1192 854.965C98.2834 856.544 102.184 855.117 103.831 851.777C105.478 848.438 104.248 844.451 101.083 842.872C97.9192 841.293 94.0189 842.72 92.3719 846.059C90.7249 849.399 91.9549 853.386 95.1192 854.965ZM118.225 830.981C116.578 834.321 112.678 835.748 109.513 834.169C106.349 832.59 105.119 828.603 106.766 825.263C108.413 821.924 112.313 820.497 115.478 822.076C118.642 823.655 119.872 827.642 118.225 830.981ZM96.1472 763.315C99.3115 764.894 103.212 763.467 104.859 760.128C106.506 756.789 105.276 752.801 102.112 751.222C98.9473 749.643 95.0469 751.07 93.4 754.41C91.7529 757.749 92.9829 761.736 96.1472 763.315ZM85.7324 773.144C84.0854 776.483 80.1851 777.91 77.0208 776.331C73.8565 774.752 72.6265 770.765 74.2736 767.426C75.9205 764.086 79.8209 762.659 82.9851 764.238C86.1494 765.817 87.3794 769.804 85.7324 773.144ZM102.39 790.101C105.554 791.68 109.455 790.253 111.102 786.914C112.749 783.575 111.519 779.587 108.354 778.008C105.19 776.429 101.29 777.856 99.6427 781.196C97.9957 784.535 99.2257 788.522 102.39 790.101ZM100.415 813.976C98.768 817.315 94.8677 818.742 91.7034 817.163C88.5391 815.584 87.3091 811.597 88.9561 808.258C90.6031 804.918 94.5035 803.491 97.6677 805.07C100.832 806.649 102.062 810.636 100.415 813.976ZM52.7534 773.155C55.9177 774.734 59.818 773.307 61.465 769.968C63.112 766.628 61.882 762.641 58.7177 761.062C55.5535 759.483 51.6531 760.91 50.0061 764.25C48.3591 767.589 49.5891 771.576 52.7534 773.155ZM62.2741 812.097C60.6271 815.437 56.7268 816.864 53.5625 815.285C50.3983 813.706 49.1683 809.719 50.8153 806.379C52.4623 803.04 56.3626 801.613 59.5269 803.192C62.6911 804.771 63.9211 808.758 62.2741 812.097ZM72.9646 845.173C76.1288 846.752 80.0291 845.325 81.6761 841.985C83.3231 838.646 82.0932 834.659 78.9289 833.08C75.7646 831.501 71.8643 832.928 70.2173 836.267C68.5703 839.607 69.8003 843.594 72.9646 845.173ZM45.1344 794.368C43.4874 797.707 39.5871 799.134 36.4228 797.555C33.2585 795.976 32.0285 791.989 33.6755 788.65C35.3225 785.311 39.2229 783.884 42.3871 785.463C45.5514 787.042 46.7814 791.029 45.1344 794.368ZM72.5331 799.312C75.6973 800.891 79.5976 799.464 81.2447 796.125C82.8917 792.785 81.6617 788.798 78.4974 787.219C75.3331 785.64 71.4328 787.067 69.7858 790.407C68.1388 793.746 69.3688 797.733 72.5331 799.312ZM244.029 752.502C242.382 755.842 238.482 757.269 235.318 755.69C232.153 754.111 230.923 750.124 232.57 746.784C234.217 743.445 238.118 742.018 241.282 743.597C244.446 745.176 245.676 749.163 244.029 752.502ZM225.123 785.039C228.288 786.618 232.188 785.191 233.835 781.852C235.482 778.513 234.252 774.526 231.088 772.947C227.923 771.368 224.023 772.795 222.376 776.134C220.729 779.473 221.959 783.46 225.123 785.039ZM259.434 807.66C257.787 810.999 253.887 812.426 250.723 810.847C247.559 809.268 246.329 805.281 247.976 801.942C249.623 798.602 253.523 797.175 256.687 798.754C259.851 800.333 261.081 804.32 259.434 807.66ZM195.843 824.343C199.008 825.922 202.908 824.495 204.555 821.156C206.202 817.817 204.972 813.83 201.808 812.251C198.643 810.672 194.743 812.099 193.096 815.438C191.449 818.777 192.679 822.764 195.843 824.343ZM183.56 778.386C181.913 781.725 178.013 783.152 174.849 781.573C171.684 779.994 170.454 776.007 172.101 772.668C173.748 769.329 177.649 767.902 180.813 769.481C183.977 771.06 185.207 775.047 183.56 778.386ZM191.79 800.022C194.954 801.601 198.854 800.174 200.501 796.834C202.148 793.495 200.918 789.508 197.754 787.929C194.59 786.35 190.69 787.777 189.043 791.116C187.396 794.456 188.626 798.443 191.79 800.022ZM229.084 814.583C227.437 817.922 223.537 819.349 220.373 817.77C217.209 816.191 215.979 812.204 217.626 808.865C219.273 805.525 223.173 804.098 226.337 805.677C229.501 807.256 230.731 811.243 229.084 814.583ZM203.638 646.818C206.803 648.397 210.703 646.97 212.35 643.631C213.997 640.291 212.767 636.304 209.603 634.725C206.438 633.146 202.538 634.573 200.891 637.912C199.244 641.252 200.474 645.239 203.638 646.818ZM192.482 682.832C190.835 686.171 186.935 687.598 183.771 686.019C180.607 684.44 179.377 680.453 181.024 677.114C182.671 673.774 186.571 672.347 189.735 673.926C192.899 675.505 194.129 679.493 192.482 682.832ZM152.839 756.013C156.003 757.592 159.904 756.165 161.551 752.826C163.198 749.487 161.968 745.5 158.803 743.921C155.639 742.342 151.739 743.769 150.092 747.108C148.445 750.447 149.675 754.434 152.839 756.013ZM188.717 720.138C187.07 723.478 183.169 724.905 180.005 723.326C176.841 721.747 175.611 717.76 177.258 714.42C178.905 711.081 182.805 709.654 185.969 711.233C189.134 712.812 190.364 716.799 188.717 720.138ZM184.435 743.917C187.599 745.496 191.499 744.069 193.146 740.729C194.793 737.39 193.563 733.403 190.399 731.824C187.235 730.245 183.334 731.672 181.687 735.011C180.04 738.351 181.27 742.338 184.435 743.917ZM168.909 715.767C167.262 719.107 163.362 720.534 160.198 718.955C157.034 717.376 155.804 713.389 157.451 710.049C159.098 706.71 162.998 705.283 166.162 706.862C169.326 708.441 170.556 712.428 168.909 715.767ZM119.797 739.46C122.961 741.039 126.861 739.612 128.508 736.273C130.155 732.933 128.925 728.946 125.761 727.367C122.597 725.788 118.697 727.215 117.05 730.555C115.403 733.894 116.632 737.881 119.797 739.46ZM150.865 779.888C149.218 783.227 145.318 784.654 142.153 783.075C138.989 781.496 137.759 777.509 139.406 774.17C141.053 770.831 144.953 769.404 148.118 770.983C151.282 772.562 152.512 776.549 150.865 779.888ZM71.4916 745.145C74.6558 746.724 78.5561 745.297 80.2031 741.958C81.8501 738.619 80.6202 734.632 77.4559 733.053C74.2916 731.474 70.3913 732.901 68.7443 736.24C67.0973 739.579 68.3273 743.566 71.4916 745.145ZM135.661 758.554C134.014 761.894 130.114 763.321 126.949 761.742C123.785 760.163 122.555 756.176 124.202 752.836C125.849 749.497 129.749 748.07 132.914 749.649C136.078 751.228 137.308 755.215 135.661 758.554ZM96.9783 671.771C100.143 673.35 104.043 671.923 105.69 668.583C107.337 665.244 106.107 661.257 102.943 659.678C99.7784 658.099 95.8781 659.526 94.2311 662.865C92.584 666.205 93.814 670.192 96.9783 671.771ZM107.865 695.122C106.218 698.462 102.318 699.889 99.1534 698.31C95.9892 696.731 94.7592 692.743 96.4062 689.404C98.0532 686.065 101.954 684.638 105.118 686.217C108.282 687.796 109.512 691.783 107.865 695.122ZM96.7742 731.111C99.9385 732.69 103.839 731.263 105.486 727.923C107.133 724.584 105.903 720.597 102.739 719.018C99.5743 717.439 95.674 718.866 94.027 722.205C92.38 725.545 93.61 729.532 96.7742 731.111ZM62.3053 700.642C60.6583 703.981 56.758 705.408 53.5937 703.829C50.4294 702.25 49.1994 698.263 50.8465 694.924C52.4935 691.584 56.3938 690.157 59.5581 691.736C62.7223 693.315 63.9523 697.302 62.3053 700.642ZM68.5455 716.941C71.7098 718.52 75.6101 717.093 77.2571 713.754C78.9041 710.414 77.6741 706.427 74.5099 704.848C71.3456 703.269 67.4453 704.696 65.7983 708.036C64.1512 711.375 65.3812 715.362 68.5455 716.941ZM43.9746 699.64C42.3275 702.979 38.4272 704.406 35.263 702.827C32.0987 701.248 30.8687 697.261 32.5157 693.922C34.1627 690.583 38.063 689.156 41.2273 690.735C44.3916 692.314 45.6215 696.301 43.9746 699.64ZM95.9084 639.39C99.0727 640.969 102.973 639.542 104.62 636.203C106.267 632.863 105.037 628.876 101.873 627.297C98.7085 625.718 94.8082 627.145 93.1612 630.485C91.5142 633.824 92.7442 637.811 95.9084 639.39ZM81.392 687.194C79.745 690.533 75.8447 691.96 72.6804 690.381C69.5162 688.802 68.2862 684.815 69.9332 681.476C71.5802 678.136 75.4805 676.709 78.6448 678.288C81.809 679.867 83.039 683.854 81.392 687.194ZM116.497 707.677C119.661 709.256 123.561 707.829 125.208 704.49C126.855 701.15 125.625 697.163 122.461 695.584C119.297 694.005 115.396 695.432 113.749 698.772C112.102 702.111 113.332 706.098 116.497 707.677ZM42.8154 732.618C41.1684 735.958 37.2681 737.385 34.1038 735.806C30.9396 734.227 29.7095 730.24 31.3566 726.9C33.0036 723.561 36.9039 722.134 40.0682 723.713C43.2324 725.292 44.4624 729.279 42.8154 732.618ZM37.6655 757.839C40.8298 759.418 44.7301 757.991 46.3771 754.652C48.0241 751.313 46.7941 747.326 43.6299 745.747C40.4656 744.168 36.5653 745.595 34.9183 748.934C33.2713 752.273 34.5013 756.26 37.6655 757.839ZM200.087 760.365C201.551 756.941 205.375 755.288 208.628 756.674C211.881 758.06 213.332 761.959 211.868 765.383C210.404 768.807 206.58 770.46 203.327 769.074C200.074 767.688 198.624 763.789 200.087 760.365ZM210.214 688.281C206.961 686.895 203.137 688.547 201.674 691.971C200.21 695.395 201.661 699.294 204.914 700.68C208.167 702.066 211.991 700.414 213.454 696.99C214.918 693.566 213.467 689.666 210.214 688.281ZM205.466 726.042C206.929 722.618 210.753 720.966 214.006 722.352C217.259 723.737 218.71 727.637 217.246 731.061C215.783 734.485 211.959 736.137 208.706 734.751C205.453 733.365 204.002 729.466 205.466 726.042ZM240.882 721.199C237.629 719.813 233.805 721.465 232.341 724.889C230.877 728.313 232.328 732.213 235.581 733.598C238.834 734.984 242.658 733.332 244.122 729.908C245.585 726.484 244.135 722.585 240.882 721.199ZM219.859 705.246C221.323 701.822 225.147 700.17 228.4 701.556C231.653 702.941 233.103 706.841 231.64 710.265C230.176 713.689 226.352 715.341 223.099 713.955C219.846 712.569 218.395 708.67 219.859 705.246ZM253.191 685.233C249.938 683.847 246.114 685.5 244.65 688.924C243.186 692.348 244.637 696.247 247.89 697.633C251.143 699.018 254.967 697.366 256.431 693.942C257.894 690.518 256.444 686.619 253.191 685.233ZM259.275 680.165C260.738 676.741 264.562 675.089 267.815 676.474C271.068 677.86 272.519 681.759 271.055 685.183C269.592 688.607 265.768 690.26 262.515 688.874C259.262 687.488 257.811 683.589 259.275 680.165ZM241.579 664.147C238.326 662.761 234.502 664.413 233.038 667.837C231.575 671.261 233.025 675.16 236.278 676.546C239.531 677.932 243.355 676.28 244.819 672.856C246.283 669.432 244.832 665.533 241.579 664.147ZM131.677 711.938C133.14 708.514 136.964 706.862 140.217 708.248C143.47 709.634 144.921 713.533 143.457 716.957C141.993 720.381 138.17 722.033 134.917 720.647C131.663 719.261 130.213 715.362 131.677 711.938ZM117.399 640.558C114.146 639.172 110.322 640.825 108.858 644.249C107.394 647.673 108.845 651.572 112.098 652.958C115.351 654.344 119.175 652.691 120.639 649.267C122.102 645.843 120.652 641.944 117.399 640.558ZM146.939 689.7C148.402 686.276 152.226 684.624 155.479 686.01C158.732 687.395 160.183 691.294 158.719 694.718C157.256 698.142 153.432 699.795 150.179 698.409C146.926 697.023 145.475 693.124 146.939 689.7ZM132.717 667.911C129.464 666.525 125.64 668.177 124.176 671.601C122.712 675.025 124.163 678.925 127.416 680.31C130.669 681.696 134.493 680.044 135.957 676.62C137.42 673.196 135.97 669.297 132.717 667.911ZM207.408 663.816C208.872 660.392 212.696 658.74 215.949 660.126C219.202 661.512 220.653 665.411 219.189 668.835C217.725 672.259 213.902 673.911 210.648 672.525C207.395 671.139 205.945 667.24 207.408 663.816ZM155.886 660.492C152.633 659.106 148.809 660.759 147.345 664.183C145.882 667.607 147.332 671.506 150.585 672.892C153.839 674.278 157.662 672.625 159.126 669.201C160.59 665.777 159.139 661.878 155.886 660.492ZM47.8959 667.844C49.3596 664.42 53.1833 662.768 56.4364 664.154C59.6895 665.54 61.1402 669.439 59.6764 672.863C58.2127 676.287 54.389 677.939 51.1358 676.553C47.8827 675.168 46.4321 671.268 47.8959 667.844ZM37.918 661.065C34.6648 659.68 30.8411 661.332 29.3774 664.756C27.9137 668.18 29.3642 672.079 32.6174 673.465C35.8705 674.851 39.6942 673.198 41.158 669.774C42.6217 666.35 41.1711 662.451 37.918 661.065ZM27.5359 636.488C28.9996 633.064 32.8234 631.412 36.0765 632.798C39.3296 634.184 40.7802 638.083 39.3165 641.507C37.8528 644.931 34.029 646.583 30.7759 645.197C27.5228 643.811 26.0722 639.912 27.5359 636.488ZM81.7184 650.12C78.4653 648.734 74.6416 650.386 73.1778 653.81C71.7141 657.234 73.1647 661.133 76.4178 662.519C79.6709 663.905 83.4947 662.253 84.9584 658.829C86.4221 655.405 84.9715 651.505 81.7184 650.12ZM47.2015 631.733C48.6652 628.309 52.489 626.657 55.7421 628.043C58.9952 629.429 60.4458 633.328 58.9821 636.752C57.5184 640.176 53.6946 641.828 50.4415 640.442C47.1884 639.056 45.7378 635.157 47.2015 631.733ZM49.3435 598.3C46.0904 596.914 42.2666 598.567 40.8029 601.991C39.3392 605.415 40.7898 609.314 44.0429 610.7C47.296 612.086 51.1198 610.433 52.5835 607.009C54.0472 603.585 52.5966 599.686 49.3435 598.3ZM92.2072 594.265C93.6709 590.841 97.4947 589.189 100.748 590.575C104.001 591.96 105.452 595.86 103.988 599.284C102.524 602.708 98.7003 604.36 95.4472 602.974C92.1941 601.588 90.7435 597.689 92.2072 594.265ZM81.3571 624.605C78.104 623.219 74.2802 624.871 72.8165 628.295C71.3528 631.719 72.8034 635.618 76.0565 637.004C79.3096 638.39 83.1334 636.738 84.5971 633.314C86.0608 629.89 84.6102 625.991 81.3571 624.605ZM22.2837 598.902C23.7474 595.478 27.5712 593.826 30.8243 595.212C34.0774 596.597 35.528 600.497 34.0643 603.921C32.6006 607.345 28.7768 608.997 25.5237 607.611C22.2706 606.225 20.82 602.326 22.2837 598.902ZM32.1712 567.815C28.9181 566.429 25.0943 568.081 23.6306 571.505C22.1669 574.929 23.6175 578.828 26.8706 580.214C30.1237 581.6 33.9475 579.948 35.4112 576.524C36.8749 573.1 35.4243 569.2 32.1712 567.815ZM42.079 575.031C43.5427 571.607 47.3664 569.955 50.6195 571.34C53.8727 572.726 55.3233 576.625 53.8596 580.049C52.3958 583.473 48.5721 585.126 45.319 583.74C42.0658 582.354 40.6152 578.455 42.079 575.031ZM76.1049 587.018C72.8518 585.632 69.028 587.285 67.5643 590.709C66.1006 594.133 67.5512 598.032 70.8043 599.418C74.0574 600.803 77.8812 599.151 79.3449 595.727C80.8086 592.303 79.358 588.404 76.1049 587.018ZM44.2222 546.628C45.6859 543.204 49.5097 541.552 52.7628 542.938C56.0159 544.324 57.4665 548.223 56.0028 551.647C54.5391 555.071 50.7153 556.723 47.4622 555.337C44.2091 553.952 42.7585 550.052 44.2222 546.628ZM38.1666 529.911C34.9135 528.525 31.0898 530.177 29.6261 533.601C28.1623 537.025 29.6129 540.924 32.8661 542.31C36.1192 543.696 39.9429 542.044 41.4067 538.62C42.8704 535.196 41.4198 531.297 38.1666 529.911ZM82.8243 572.581C84.288 569.157 88.1118 567.505 91.3649 568.891C94.618 570.276 96.0686 574.176 94.6049 577.6C93.1412 581.024 89.3174 582.676 86.0643 581.29C82.8112 579.904 81.3606 576.005 82.8243 572.581ZM74.2628 558.751C71.0096 557.365 67.1859 559.017 65.7222 562.441C64.2584 565.865 65.709 569.765 68.9622 571.15C72.2153 572.536 76.039 570.884 77.5028 567.46C78.9665 564.036 77.5159 560.137 74.2628 558.751ZM186.083 633.996C182.518 634.269 179.524 631.505 179.396 627.821C179.268 624.137 182.054 620.929 185.619 620.656C189.184 620.382 192.177 623.147 192.306 626.83C192.434 630.514 189.647 633.722 186.083 633.996ZM157.954 616.091C158.082 619.774 161.076 622.539 164.641 622.265C168.206 621.992 170.992 618.784 170.864 615.1C170.736 611.416 167.742 608.652 164.177 608.926C160.612 609.199 157.826 612.407 157.954 616.091ZM160.666 652.009C157.101 652.283 154.107 649.518 153.979 645.835C153.851 642.151 156.637 638.943 160.202 638.669C163.767 638.396 166.761 641.16 166.889 644.844C167.017 648.528 164.231 651.736 160.666 652.009ZM174.771 654.782C174.899 658.465 177.893 661.23 181.458 660.956C185.023 660.683 187.809 657.475 187.681 653.791C187.553 650.107 184.559 647.343 180.994 647.616C177.429 647.89 174.643 651.098 174.771 654.782ZM133.85 609.589C130.285 609.863 127.291 607.098 127.163 603.415C127.035 599.731 129.821 596.523 133.386 596.249C136.951 595.976 139.945 598.74 140.073 602.424C140.201 606.108 137.415 609.316 133.85 609.589ZM121.313 625.551C121.441 629.234 124.435 631.999 128 631.725C131.565 631.452 134.351 628.244 134.223 624.56C134.095 620.876 131.101 618.112 127.536 618.385C123.971 618.659 121.185 621.867 121.313 625.551ZM261.097 746.087C257.532 746.361 254.538 743.596 254.41 739.913C254.282 736.229 257.068 733.021 260.633 732.747C264.198 732.474 267.192 735.238 267.32 738.922C267.448 742.606 264.662 745.814 261.097 746.087ZM111.09 583.524C111.219 587.207 114.212 589.972 117.777 589.698C121.342 589.425 124.128 586.217 124 582.533C123.872 578.849 120.878 576.085 117.314 576.358C113.749 576.632 110.962 579.84 111.09 583.524ZM144.825 644.155C141.26 644.429 138.266 641.664 138.138 637.981C138.01 634.297 140.796 631.089 144.361 630.815C147.926 630.542 150.92 633.306 151.048 636.99C151.176 640.674 148.39 643.882 144.825 644.155ZM346.878 735.421C347.006 739.104 350 741.869 353.564 741.595C357.129 741.322 359.916 738.114 359.788 734.43C359.659 730.746 356.666 727.982 353.101 728.255C349.536 728.529 346.75 731.737 346.878 735.421ZM332.123 729.865C328.558 730.139 325.564 727.374 325.436 723.69C325.308 720.007 328.094 716.799 331.659 716.525C335.224 716.252 338.218 719.016 338.346 722.7C338.474 726.384 335.688 729.591 332.123 729.865ZM368.83 745.548C368.958 749.231 371.952 751.996 375.516 751.722C379.081 751.449 381.868 748.241 381.739 744.557C381.611 740.873 378.618 738.109 375.053 738.383C371.488 738.656 368.702 741.864 368.83 745.548ZM316.525 784.469C312.96 784.743 309.966 781.978 309.838 778.295C309.71 774.611 312.496 771.403 316.061 771.13C319.626 770.856 322.62 773.62 322.748 777.304C322.876 780.988 320.09 784.196 316.525 784.469ZM339.957 759.334C340.085 763.018 343.079 765.783 346.644 765.509C350.209 765.235 352.995 762.027 352.867 758.344C352.739 754.66 349.745 751.896 346.18 752.169C342.615 752.443 339.829 755.651 339.957 759.334ZM310.676 713.442C307.111 713.716 304.117 710.951 303.989 707.268C303.861 703.584 306.647 700.376 310.212 700.102C313.777 699.829 316.771 702.593 316.899 706.277C317.027 709.961 314.241 713.169 310.676 713.442ZM304.69 731.971C304.818 735.654 307.812 738.419 311.377 738.145C314.942 737.872 317.728 734.664 317.6 730.98C317.472 727.296 314.478 724.532 310.913 724.805C307.348 725.079 304.562 728.287 304.69 731.971ZM288.146 707.381C284.581 707.654 281.587 704.89 281.459 701.206C281.331 697.523 284.117 694.315 287.682 694.041C291.247 693.768 294.241 696.532 294.369 700.216C294.497 703.899 291.711 707.107 288.146 707.381ZM285.093 726.786C285.221 730.47 288.215 733.234 291.78 732.961C295.345 732.687 298.131 729.479 298.003 725.796C297.875 722.112 294.881 719.348 291.316 719.621C287.751 719.895 284.965 723.103 285.093 726.786ZM274.069 768.019C270.504 768.292 267.51 765.528 267.382 761.844C267.254 758.16 270.04 754.952 273.605 754.679C277.17 754.405 280.164 757.17 280.292 760.853C280.42 764.537 277.634 767.745 274.069 768.019ZM244.214 769.262C244.342 772.946 247.336 775.711 250.901 775.437C254.466 775.163 257.252 771.955 257.124 768.272C256.996 764.588 254.002 761.824 250.437 762.097C246.872 762.371 244.086 765.579 244.214 769.262ZM285.305 792.835C281.74 793.109 278.747 790.344 278.618 786.661C278.49 782.977 281.277 779.769 284.842 779.496C288.406 779.222 291.4 781.986 291.528 785.67C291.656 789.354 288.87 792.562 285.305 792.835ZM176.504 838.223C176.632 841.907 179.626 844.671 183.191 844.398C186.756 844.124 189.542 840.916 189.414 837.233C189.286 833.549 186.292 830.784 182.727 831.058C179.162 831.332 176.376 834.54 176.504 838.223ZM302.683 763.981C299.118 764.254 296.124 761.49 295.996 757.806C295.868 754.123 298.654 750.915 302.219 750.641C305.784 750.367 308.778 753.132 308.906 756.816C309.034 760.499 306.248 763.707 302.683 763.981ZM259.275 713.2C259.403 716.884 262.397 719.648 265.962 719.375C269.527 719.101 272.313 715.893 272.185 712.21C272.057 708.526 269.063 705.761 265.498 706.035C261.933 706.309 259.147 709.517 259.275 713.2Z" fill="#95F1F7" fill-opacity="0.5"/>
<path opacity="0.8" fill-rule="evenodd" clip-rule="evenodd" d="M-1.81529 419.208C-2.78903 417.901 -4.66194 417.598 -5.99855 418.53L-6.35623 418.78C-7.69283 419.712 -7.98699 421.527 -7.01325 422.834C-6.0395 424.141 -4.16659 424.444 -2.82998 423.512L-2.47231 423.263C-1.1357 422.33 -0.841543 420.515 -1.81529 419.208ZM34.563 393.903C33.5893 392.596 31.7163 392.293 30.3797 393.225L5.61812 410.498C4.28151 411.43 3.98735 413.245 4.9611 414.552C5.93484 415.859 7.80776 416.162 9.14436 415.23L33.906 397.957C35.2426 397.025 35.5368 395.21 34.563 393.903ZM56.8997 395.688C55.9259 394.381 54.053 394.078 52.7164 395.01L43.4182 401.496C42.0816 402.428 41.7874 404.244 42.7612 405.55C43.7349 406.857 45.6078 407.161 46.9444 406.228L56.2427 399.742C57.5793 398.81 57.8734 396.995 56.8997 395.688ZM63.374 409.792C62.4003 408.485 62.6945 406.67 64.0311 405.737L74.3837 398.516C75.7203 397.583 77.5932 397.887 78.567 399.194C79.5407 400.5 79.2466 402.316 77.9099 403.248L67.5573 410.47C66.2207 411.402 64.3478 411.098 63.374 409.792ZM100.381 400.884C99.407 399.578 97.5341 399.274 96.1975 400.207L83.8454 408.823C82.5088 409.755 82.2147 411.57 83.1884 412.877C84.1622 414.184 86.0351 414.487 87.3717 413.555L99.7237 404.939C101.06 404.006 101.354 402.191 100.381 400.884ZM68.4413 419.683C67.4676 418.376 67.7618 416.561 69.0984 415.629L70.8028 414.44C72.1394 413.507 74.0123 413.811 74.986 415.118C75.9598 416.424 75.6656 418.24 74.329 419.172L72.6246 420.361C71.288 421.293 69.4151 420.99 68.4413 419.683ZM48.6627 415.512C48.0378 414.673 48.2266 413.508 49.0843 412.91C49.9421 412.312 51.1439 412.506 51.7688 413.345L53.0322 415.04C53.6571 415.879 53.4683 417.044 52.6106 417.642C51.7528 418.24 50.551 418.046 49.9261 417.207L48.6627 415.512ZM33.2872 409.908C32.3135 408.601 30.4406 408.298 29.1039 409.23L27.9144 410.06C26.5778 410.992 26.2837 412.807 27.2574 414.114C28.2311 415.421 30.1041 415.725 31.4407 414.792L32.6302 413.962C33.9668 413.03 34.261 411.215 33.2872 409.908Z" fill="#FFBFC4" fill-opacity="0.4"/>
<g opacity="0.3">
<path fill-rule="evenodd" clip-rule="evenodd" d="M170.494 334.263C171.694 333.466 173.313 333.573 174.365 334.573C175.745 335.886 175.502 338.065 173.926 339.11L87.3885 396.509C86.0237 397.414 84.1485 397.063 83.2003 395.725C82.2521 394.387 82.5898 392.568 83.9547 391.663L170.494 334.263ZM181.485 347.157C182.433 348.495 182.095 350.314 180.73 351.219L108.636 399.038C107.272 399.943 105.396 399.592 104.448 398.254C103.5 396.915 103.838 395.097 105.203 394.191L177.296 346.373C178.661 345.467 180.536 345.818 181.485 347.157ZM65.0532 391.139C66.0014 392.477 67.8766 392.828 69.2414 391.923L152.03 337.011C153.395 336.106 153.732 334.287 152.784 332.949C151.836 331.61 149.961 331.259 148.596 332.165L65.8076 387.077C64.4427 387.982 64.105 389.801 65.0532 391.139ZM131.188 330.65C132.136 331.989 131.798 333.807 130.433 334.713L45.0849 391.323C43.7201 392.228 41.8449 391.877 40.8967 390.539C39.9485 389.2 40.2862 387.382 41.6511 386.476L127 329.866C128.364 328.961 130.24 329.312 131.188 330.65Z" fill="#FFBFC4"/>
</g>
<path d="M71.765 1136.66L39.8023 1256.95C39.5524 1257.89 40.6569 1258.59 41.4065 1257.97L72.0955 1232.56C72.4671 1232.26 73.0052 1232.26 73.3751 1232.57L103.704 1257.95C104.451 1258.58 105.561 1257.87 105.313 1256.93L73.6986 1136.66C73.4376 1135.67 72.0287 1135.66 71.765 1136.66Z" stroke="#95F1F7" stroke-opacity="0.3" stroke-width="9"/>
<path d="M285.698 20.3659L287.982 16.4544C291.456 10.5048 297.297 6.3007 304.111 4.84597C312.536 3.04709 321.401 5.4319 327.883 11.2414L337.18 19.5731C342.857 24.6604 349.193 28.9699 356.012 32.3821C370.034 39.3977 379.517 53.0505 381.057 68.4399L381.213 69.9919C383.817 96.002 362.784 117.895 336.456 116.579L334.872 116.5C332.095 116.361 329.353 115.754 326.764 114.705L317.896 111.111C281.619 96.4071 266.378 53.4525 285.698 20.3659Z" fill="#95F1F7" fill-opacity="0.6"/>
</g>
<defs>
<clipPath id="clip0">
<rect width="397" height="1275" fill="white"/>
</clipPath>
</defs>
</svg>
