<svg width="397" height="1417" viewBox="0 0 397 1417" fill="none" xmlns="http://www.w3.org/2000/svg">
<g clip-path="url(#clip0)">
<path d="M91.5414 44.5226C94.6624 75.6888 86.5711 23.7986 91.6373 55.8745C98.1589 97.1653 106.595 149.734 125.195 174.903C148.897 206.976 174.67 210.685 196.622 220.121C215.794 228.362 240.698 235.538 260.898 277.864C291.371 341.715 282.193 418.912 282.43 475.531C282.541 502.018 283.077 545.677 293.313 567.31" stroke="#BDB2FF" stroke-width="10" stroke-linecap="round" stroke-linejoin="round"/>
<path d="M308.638 608.237L305.724 592.169L321.721 597.447C328.986 599.844 333.761 606.938 333.328 614.688L340.436 622.753L332.425 630.067L325.318 622.002C317.203 622.227 310.114 616.376 308.638 608.237Z" stroke="#BDB2FF" stroke-width="7"/>
<ellipse rx="3.34646" ry="3.48759" transform="matrix(0.735651 -0.671685 0.663514 0.752861 320.659 608.994)" fill="#BDB2FF"/>
<line y1="-2.5" x2="24.9114" y2="-2.5" transform="matrix(0.663514 0.752861 -0.735651 0.671685 305.564 593.668)" stroke="#BDB2FF" stroke-width="5"/>
<path opacity="0.5" fill-rule="evenodd" clip-rule="evenodd" d="M294.232 1272.71C295.141 1271.92 296.017 1271.1 296.86 1270.24C297.461 1269.62 298.041 1269 298.599 1268.35L66.6104 1063.51C65.9755 1064.09 65.3574 1064.68 64.7564 1065.3C63.9136 1066.16 63.1131 1067.05 62.3545 1067.97L294.232 1272.71ZM287.359 1277.58L57.7289 1074.83C56.7127 1076.7 55.8289 1078.66 55.0754 1080.69L281.39 1280.52C283.472 1279.66 285.464 1278.68 287.359 1277.58ZM272.276 1283.42L52.6928 1089.54C52.2623 1091.95 51.9798 1094.44 51.8423 1097L264.503 1284.77C267.182 1284.45 269.775 1284 272.276 1283.42ZM252.735 1285.32L52.1129 1108.18C52.4096 1111.26 52.8841 1114.42 53.5324 1117.64L242.692 1284.67C246.124 1285.05 249.475 1285.27 252.735 1285.32ZM227.29 1282.01L57.4379 1132.04C58.8293 1136.16 60.469 1140.35 62.3492 1144.59L213.756 1278.27C218.345 1279.75 222.863 1280.99 227.29 1282.01ZM191.583 1269.64L73.024 1164.96C77.1701 1171.83 81.8883 1178.75 87.1486 1185.64L168.836 1257.77C176.449 1262.25 184.061 1266.21 191.583 1269.64ZM73.3305 1058.5L303.376 1261.62C304.431 1259.78 305.355 1257.86 306.149 1255.86L79.1808 1055.46C77.1385 1056.35 75.1862 1057.37 73.3305 1058.5ZM88.125 1052.41L308.701 1247.17C309.177 1244.8 309.506 1242.35 309.692 1239.83L95.7576 1050.94C93.1254 1051.3 90.5784 1051.79 88.125 1052.41ZM107.314 1050.19L309.633 1228.84C309.396 1225.81 308.985 1222.71 308.402 1219.54L117.168 1050.69C113.799 1050.36 110.51 1050.2 107.314 1050.19ZM132.252 1053.06L304.814 1205.43C303.525 1201.41 301.995 1197.31 300.233 1193.17L145.457 1056.51C140.977 1055.14 136.569 1053.99 132.252 1053.06ZM166.897 1064.49L290.291 1173.45C286.527 1166.97 282.25 1160.44 277.484 1153.93L188.326 1075.2C181.142 1071.16 173.974 1067.59 166.897 1064.49Z" fill="#95F1F7"/>
<path opacity="0.8" d="M322.382 968.324C322.382 977.34 314.686 984.648 305.191 984.648C295.697 984.648 288 977.34 288 968.324C288 959.309 295.697 952 305.191 952C314.686 952 322.382 959.309 322.382 968.324Z" fill="#705EDF" fill-opacity="0.5"/>
<path opacity="0.6" fill-rule="evenodd" clip-rule="evenodd" d="M51.7145 908.595C53.49 905.647 57.1842 904.657 59.9657 906.384C62.7472 908.111 63.5626 911.902 61.7871 914.85C60.0116 917.798 56.3174 918.788 53.5359 917.061C50.7544 915.334 49.9389 911.544 51.7145 908.595ZM73.0393 896.166C74.8149 893.217 78.5091 892.227 81.2905 893.955C84.072 895.682 84.8875 899.472 83.112 902.42C81.3364 905.369 77.6422 906.358 74.8608 904.631C72.0793 902.904 71.2638 899.114 73.0393 896.166ZM60.3415 882.78C57.56 881.053 53.8658 882.043 52.0903 884.991C50.3147 887.939 51.1302 891.73 53.9117 893.457C56.6932 895.184 60.3874 894.194 62.1629 891.246C63.9384 888.297 63.1229 884.507 60.3415 882.78ZM47.7785 854.809C49.554 851.86 53.2482 850.87 56.0297 852.597C58.8112 854.325 59.6267 858.115 57.8511 861.063C56.0756 864.011 52.3814 865.001 49.5999 863.274C46.8184 861.547 46.003 857.757 47.7785 854.809ZM80.8024 873.381C80.5084 869.992 77.6056 867.596 74.3188 868.031C71.0321 868.465 68.606 871.565 68.9001 874.954C69.1941 878.343 72.0969 880.739 75.3837 880.304C78.6704 879.87 81.0965 876.77 80.8024 873.381ZM63.7166 842.702C65.4921 839.754 69.1863 838.764 71.9678 840.491C74.7493 842.218 75.5648 846.009 73.7892 848.957C72.0137 851.905 68.3195 852.895 65.538 851.168C62.7565 849.441 61.9411 845.651 63.7166 842.702ZM118.313 878.437C115.532 876.71 111.838 877.7 110.062 880.648C108.286 883.597 109.102 887.387 111.883 889.114C114.665 890.841 118.359 889.851 120.135 886.903C121.91 883.955 121.095 880.164 118.313 878.437ZM91.0416 883.507C92.8172 880.558 96.5114 879.568 99.2928 881.296C102.074 883.023 102.89 886.813 101.114 889.761C99.3387 892.71 95.6445 893.699 92.863 891.972C90.0816 890.245 89.2661 886.455 91.0416 883.507ZM173.108 821.965C176.035 823.426 179.643 822.106 181.166 819.017C182.69 815.928 181.552 812.24 178.625 810.779C175.698 809.318 172.09 810.638 170.566 813.727C169.043 816.816 170.181 820.505 173.108 821.965ZM156.413 825.65C154.89 828.739 151.282 830.059 148.355 828.599C145.427 827.138 144.29 823.45 145.813 820.361C147.337 817.272 150.945 815.952 153.872 817.412C156.799 818.873 157.937 822.561 156.413 825.65ZM162.07 851.785C164.997 853.245 168.605 851.925 170.128 848.836C171.652 845.747 170.514 842.059 167.587 840.598C164.66 839.138 161.052 840.458 159.528 843.547C158.005 846.636 159.142 850.324 162.07 851.785ZM144.008 849.12C142.485 852.209 138.877 853.529 135.95 852.069C133.022 850.608 131.885 846.92 133.408 843.831C134.932 840.742 138.54 839.422 141.467 840.882C144.394 842.343 145.532 846.031 144.008 849.12ZM129.12 820.323C132.047 821.783 135.655 820.463 137.179 817.374C138.702 814.285 137.565 810.597 134.637 809.136C131.71 807.676 128.102 808.996 126.579 812.085C125.055 815.174 126.193 818.862 129.12 820.323ZM149.821 871.066C148.298 874.155 144.69 875.475 141.763 874.015C138.836 872.554 137.698 868.866 139.221 865.777C140.745 862.688 144.353 861.368 147.28 862.828C150.207 864.289 151.345 867.977 149.821 871.066ZM104.311 867.262C107.238 868.723 110.846 867.403 112.37 864.314C113.893 861.225 112.755 857.537 109.828 856.076C106.901 854.615 103.293 855.936 101.77 859.025C100.246 862.114 101.384 865.802 104.311 867.262ZM125.685 845.077C124.162 848.166 120.554 849.486 117.627 848.025C114.699 846.565 113.562 842.876 115.085 839.787C116.609 836.698 120.217 835.378 123.144 836.839C126.071 838.299 127.209 841.988 125.685 845.077ZM105.262 782.482C108.189 783.943 111.797 782.623 113.321 779.534C114.844 776.445 113.707 772.757 110.78 771.296C107.852 769.835 104.244 771.155 102.721 774.244C101.197 777.333 102.335 781.022 105.262 782.482ZM95.6275 791.574C94.1039 794.663 90.496 795.983 87.5689 794.523C84.6418 793.062 83.504 789.374 85.0275 786.285C86.5511 783.196 90.1591 781.876 93.0862 783.336C96.0133 784.797 97.1511 788.485 95.6275 791.574ZM111.037 807.261C113.964 808.721 117.572 807.401 119.095 804.312C120.619 801.223 119.481 797.535 116.554 796.074C113.627 794.614 110.019 795.934 108.495 799.023C106.972 802.112 108.109 805.8 111.037 807.261ZM109.21 829.346C107.686 832.435 104.078 833.755 101.151 832.294C98.2239 830.834 97.0861 827.145 98.6096 824.056C100.133 820.967 103.741 819.647 106.668 821.108C109.595 822.568 110.733 826.257 109.21 829.346ZM65.1211 791.585C68.0482 793.045 71.6562 791.725 73.1797 788.636C74.7033 785.547 73.5655 781.859 70.6384 780.398C67.7113 778.938 64.1033 780.258 62.5798 783.347C61.0562 786.436 62.194 790.124 65.1211 791.585ZM73.9277 827.608C72.4042 830.697 68.7962 832.017 65.8691 830.557C62.942 829.096 61.8042 825.408 63.3277 822.319C64.8513 819.23 68.4593 817.91 71.3864 819.37C74.3135 820.831 75.4513 824.519 73.9277 827.608ZM83.8172 858.204C86.7443 859.665 90.3522 858.345 91.8758 855.256C93.3994 852.167 92.2616 848.479 89.3345 847.018C86.4074 845.557 82.7994 846.878 81.2758 849.967C79.7523 853.056 80.8901 856.744 83.8172 858.204ZM58.0727 811.208C56.5492 814.297 52.9412 815.617 50.0141 814.156C47.087 812.695 45.9492 809.007 47.4728 805.918C48.9963 802.829 52.6043 801.509 55.5314 802.97C58.4585 804.43 59.5963 808.119 58.0727 811.208ZM83.4179 815.781C86.345 817.242 89.953 815.922 91.4765 812.833C93.0001 809.744 91.8623 806.055 88.9352 804.595C86.0081 803.134 82.4001 804.454 80.8765 807.543C79.353 810.632 80.4908 814.32 83.4179 815.781ZM242.06 772.48C240.536 775.569 236.928 776.889 234.001 775.428C231.074 773.968 229.936 770.28 231.46 767.191C232.983 764.102 236.591 762.781 239.518 764.242C242.445 765.703 243.583 769.391 242.06 772.48ZM224.571 802.578C227.498 804.039 231.106 802.719 232.629 799.63C234.153 796.541 233.015 792.853 230.088 791.392C227.161 789.931 223.553 791.251 222.029 794.34C220.506 797.429 221.644 801.118 224.571 802.578ZM256.31 823.503C254.787 826.592 251.179 827.912 248.252 826.451C245.324 824.991 244.187 821.303 245.71 818.214C247.234 815.125 250.842 813.804 253.769 815.265C256.696 816.726 257.834 820.414 256.31 823.503ZM197.486 838.936C200.413 840.397 204.021 839.077 205.545 835.988C207.068 832.899 205.93 829.211 203.003 827.75C200.076 826.289 196.468 827.609 194.945 830.698C193.421 833.787 194.559 837.476 197.486 838.936ZM186.123 796.424C184.6 799.513 180.992 800.833 178.065 799.372C175.137 797.911 174 794.223 175.523 791.134C177.047 788.045 180.655 786.725 183.582 788.186C186.509 789.646 187.647 793.335 186.123 796.424ZM193.736 816.438C196.663 817.898 200.271 816.578 201.795 813.489C203.318 810.4 202.181 806.712 199.253 805.251C196.326 803.791 192.718 805.111 191.195 808.2C189.671 811.289 190.809 814.977 193.736 816.438ZM228.235 829.907C226.712 832.996 223.104 834.316 220.177 832.856C217.25 831.395 216.112 827.707 217.635 824.618C219.159 821.529 222.767 820.209 225.694 821.669C228.621 823.13 229.759 826.818 228.235 829.907ZM204.697 674.717C207.624 676.177 211.232 674.857 212.755 671.768C214.279 668.679 213.141 664.991 210.214 663.53C207.287 662.07 203.679 663.39 202.155 666.479C200.632 669.568 201.77 673.256 204.697 674.717ZM194.376 708.032C192.853 711.121 189.245 712.441 186.318 710.98C183.391 709.519 182.253 705.831 183.776 702.742C185.3 699.653 188.908 698.333 191.835 699.794C194.762 701.254 195.9 704.942 194.376 708.032ZM157.704 775.728C160.632 777.189 164.24 775.868 165.763 772.779C167.287 769.69 166.149 766.002 163.222 764.542C160.295 763.081 156.687 764.401 155.163 767.49C153.64 770.579 154.777 774.267 157.704 775.728ZM190.893 742.542C189.369 745.631 185.761 746.951 182.834 745.49C179.907 744.029 178.769 740.341 180.293 737.252C181.817 734.163 185.424 732.843 188.352 734.304C191.279 735.764 192.416 739.453 190.893 742.542ZM186.932 764.538C189.859 765.999 193.467 764.678 194.991 761.589C196.514 758.5 195.376 754.812 192.449 753.352C189.522 751.891 185.914 753.211 184.391 756.3C182.867 759.389 184.005 763.077 186.932 764.538ZM172.571 738.498C171.047 741.587 167.439 742.907 164.512 741.447C161.585 739.986 160.447 736.298 161.971 733.209C163.494 730.12 167.102 728.8 170.03 730.26C172.957 731.721 174.094 735.409 172.571 738.498ZM127.139 760.415C130.066 761.876 133.674 760.556 135.198 757.467C136.721 754.378 135.583 750.689 132.656 749.229C129.729 747.768 126.121 749.088 124.598 752.177C123.074 755.266 124.212 758.954 127.139 760.415ZM155.878 797.813C154.355 800.902 150.747 802.222 147.82 800.761C144.893 799.301 143.755 795.613 145.278 792.523C146.802 789.434 150.41 788.114 153.337 789.575C156.264 791.036 157.402 794.724 155.878 797.813ZM82.454 765.674C85.3811 767.135 88.9891 765.815 90.5126 762.726C92.0362 759.637 90.8984 755.949 87.9713 754.488C85.0442 753.027 81.4362 754.347 79.9126 757.436C78.3891 760.525 79.5269 764.214 82.454 765.674ZM141.814 778.078C140.29 781.167 136.682 782.487 133.755 781.027C130.828 779.566 129.69 775.878 131.214 772.789C132.738 769.7 136.345 768.38 139.273 769.84C142.2 771.301 143.337 774.989 141.814 778.078ZM106.031 697.799C108.958 699.26 112.566 697.94 114.09 694.851C115.613 691.762 114.475 688.074 111.548 686.613C108.621 685.152 105.013 686.472 103.49 689.561C101.966 692.65 103.104 696.339 106.031 697.799ZM116.101 719.401C114.578 722.49 110.97 723.81 108.043 722.349C105.116 720.888 103.978 717.2 105.501 714.111C107.025 711.022 110.633 709.702 113.56 711.163C116.487 712.623 117.625 716.312 116.101 719.401ZM105.842 752.692C108.769 754.152 112.377 752.832 113.901 749.743C115.424 746.654 114.287 742.966 111.359 741.505C108.432 740.045 104.824 741.365 103.301 744.454C101.777 747.543 102.915 751.231 105.842 752.692ZM73.9566 724.506C72.4331 727.595 68.8251 728.915 65.898 727.455C62.9709 725.994 61.8331 722.306 63.3567 719.217C64.8802 716.128 68.4882 714.808 71.4153 716.268C74.3424 717.729 75.4802 721.417 73.9566 724.506ZM79.7294 739.584C82.6565 741.045 86.2645 739.725 87.7881 736.636C89.3116 733.547 88.1738 729.858 85.2467 728.398C82.3196 726.937 78.7116 728.257 77.1881 731.346C75.6645 734.435 76.8024 738.123 79.7294 739.584ZM56.9995 723.58C55.476 726.669 51.868 727.989 48.9409 726.528C46.0138 725.068 44.876 721.379 46.3996 718.29C47.9231 715.201 51.5311 713.881 54.4582 715.342C57.3853 716.803 58.5231 720.491 56.9995 723.58ZM105.041 667.846C107.968 669.306 111.576 667.986 113.099 664.897C114.623 661.808 113.485 658.12 110.558 656.659C107.631 655.199 104.023 656.519 102.5 659.608C100.976 662.697 102.114 666.385 105.041 667.846ZM91.6129 712.066C90.0894 715.155 86.4814 716.475 83.5543 715.015C80.6272 713.554 79.4894 709.866 81.013 706.777C82.5365 703.688 86.1445 702.368 89.0716 703.828C91.9987 705.289 93.1365 708.977 91.6129 712.066ZM124.087 731.014C127.014 732.475 130.622 731.155 132.145 728.066C133.669 724.977 132.531 721.289 129.604 719.828C126.677 718.367 123.069 719.687 121.545 722.776C120.022 725.865 121.159 729.554 124.087 731.014ZM55.9272 754.086C54.4037 757.175 50.7957 758.495 47.8686 757.035C44.9415 755.574 43.8037 751.886 45.3272 748.797C46.8508 745.708 50.4588 744.388 53.3859 745.848C56.313 747.309 57.4508 750.997 55.9272 754.086ZM51.1641 777.417C54.0912 778.878 57.6992 777.558 59.2227 774.469C60.7463 771.38 59.6085 767.691 56.6814 766.231C53.7543 764.77 50.1463 766.09 48.6227 769.179C47.0992 772.268 48.237 775.956 51.1641 777.417ZM201.411 779.753C202.765 776.586 206.302 775.057 209.312 776.339C212.321 777.621 213.663 781.228 212.309 784.395C210.955 787.563 207.418 789.091 204.408 787.809C201.399 786.527 200.057 782.92 201.411 779.753ZM210.78 713.072C207.77 711.79 204.233 713.318 202.879 716.486C201.525 719.653 202.867 723.26 205.876 724.542C208.886 725.824 212.423 724.295 213.777 721.128C215.131 717.961 213.789 714.354 210.78 713.072ZM206.387 748.003C207.741 744.836 211.278 743.307 214.287 744.589C217.297 745.871 218.639 749.478 217.285 752.645C215.931 755.813 212.393 757.341 209.384 756.059C206.375 754.777 205.033 751.17 206.387 748.003ZM239.148 743.523C236.139 742.241 232.602 743.769 231.248 746.937C229.894 750.104 231.236 753.711 234.245 754.993C237.254 756.275 240.791 754.747 242.145 751.579C243.499 748.412 242.157 744.805 239.148 743.523ZM219.702 728.766C221.056 725.598 224.593 724.07 227.602 725.352C230.611 726.634 231.953 730.241 230.599 733.408C229.245 736.575 225.708 738.104 222.699 736.822C219.69 735.54 218.348 731.933 219.702 728.766ZM250.535 710.253C247.526 708.971 243.989 710.499 242.635 713.667C241.281 716.834 242.622 720.441 245.632 721.723C248.641 723.005 252.178 721.476 253.532 718.309C254.886 715.142 253.544 711.535 250.535 710.253ZM256.162 705.564C257.517 702.397 261.054 700.869 264.063 702.151C267.072 703.433 268.414 707.039 267.06 710.207C265.706 713.374 262.169 714.903 259.16 713.621C256.15 712.339 254.808 708.732 256.162 705.564ZM239.793 690.747C236.784 689.465 233.247 690.993 231.893 694.161C230.539 697.328 231.881 700.935 234.89 702.217C237.899 703.499 241.436 701.97 242.79 698.803C244.144 695.636 242.802 692.029 239.793 690.747ZM138.129 734.956C139.483 731.789 143.02 730.261 146.029 731.543C149.038 732.824 150.38 736.431 149.026 739.599C147.672 742.766 144.135 744.294 141.126 743.013C138.116 741.731 136.775 738.124 138.129 734.956ZM124.921 668.926C121.912 667.645 118.375 669.173 117.021 672.34C115.667 675.508 117.008 679.115 120.018 680.396C123.027 681.678 126.564 680.15 127.918 676.983C129.272 673.815 127.93 670.208 124.921 668.926ZM152.246 714.385C153.6 711.217 157.138 709.689 160.147 710.971C163.156 712.253 164.498 715.86 163.144 719.027C161.79 722.195 158.253 723.723 155.244 722.441C152.234 721.159 150.892 717.552 152.246 714.385ZM139.09 694.229C136.081 692.947 132.544 694.475 131.19 697.643C129.836 700.81 131.178 704.417 134.187 705.699C137.196 706.981 140.733 705.453 142.087 702.285C143.441 699.118 142.1 695.511 139.09 694.229ZM208.184 690.441C209.538 687.274 213.075 685.745 216.084 687.027C219.094 688.309 220.435 691.916 219.081 695.084C217.727 698.251 214.19 699.779 211.181 698.497C208.172 697.215 206.83 693.608 208.184 690.441ZM160.524 687.366C157.514 686.084 153.977 687.613 152.623 690.78C151.269 693.948 152.611 697.554 155.62 698.836C158.63 700.118 162.167 698.59 163.521 695.423C164.875 692.255 163.533 688.648 160.524 687.366ZM60.627 694.167C61.981 691 65.5181 689.472 68.5274 690.754C71.5367 692.036 72.8786 695.642 71.5246 698.81C70.1706 701.977 66.6334 703.506 63.6241 702.224C60.6149 700.942 59.273 697.335 60.627 694.167ZM51.3969 687.897C48.3876 686.615 44.8504 688.143 43.4964 691.31C42.1424 694.478 43.4843 698.085 46.4936 699.367C49.5029 700.649 53.04 699.12 54.394 695.953C55.748 692.785 54.4062 689.179 51.3969 687.897ZM41.7936 665.161C43.1476 661.994 46.6847 660.466 49.694 661.748C52.7033 663.03 54.0452 666.637 52.6912 669.804C51.3372 672.971 47.8 674.5 44.7907 673.218C41.7815 671.936 40.4396 668.329 41.7936 665.161ZM91.9147 677.771C88.9054 676.489 85.3682 678.017 84.0142 681.185C82.6602 684.352 84.0021 687.959 87.0114 689.241C90.0207 690.523 93.5578 688.995 94.9118 685.827C96.2658 682.66 94.924 679.053 91.9147 677.771ZM59.9847 660.763C61.3387 657.595 64.8758 656.067 67.8851 657.349C70.8944 658.631 72.2363 662.238 70.8823 665.405C69.5283 668.573 65.9911 670.101 62.9818 668.819C59.9726 667.537 58.6307 663.93 59.9847 660.763ZM61.9663 629.836C58.957 628.554 55.4198 630.082 54.0658 633.25C52.7118 636.417 54.0537 640.024 57.063 641.306C60.0723 642.588 63.6094 641.059 64.9634 637.892C66.3174 634.725 64.9756 631.118 61.9663 629.836ZM101.617 626.103C102.971 622.936 106.508 621.407 109.518 622.689C112.527 623.971 113.869 627.578 112.515 630.745C111.161 633.913 107.624 635.441 104.614 634.159C101.605 632.877 100.263 629.27 101.617 626.103ZM91.5805 654.169C88.5712 652.887 85.034 654.415 83.68 657.582C82.326 660.75 83.6679 664.357 86.6772 665.639C89.6864 666.921 93.2236 665.392 94.5776 662.225C95.9316 659.058 94.5897 655.451 91.5805 654.169ZM36.9344 630.392C38.2884 627.225 41.8255 625.697 44.8348 626.979C47.8441 628.261 49.186 631.867 47.832 635.035C46.478 638.202 42.9408 639.731 39.9315 638.449C36.9223 637.167 35.5804 633.56 36.9344 630.392ZM46.0815 601.635C43.0722 600.353 39.535 601.882 38.181 605.049C36.827 608.216 38.1689 611.823 41.1782 613.105C44.1875 614.387 47.7246 612.859 49.0786 609.691C50.4326 606.524 49.0908 602.917 46.0815 601.635ZM55.2465 608.31C56.6005 605.143 60.1377 603.615 63.147 604.897C66.1562 606.179 67.4981 609.786 66.1441 612.953C64.7901 616.12 61.2529 617.649 58.2437 616.367C55.2344 615.085 53.8925 611.478 55.2465 608.31ZM86.7221 619.399C83.7128 618.117 80.1757 619.646 78.8217 622.813C77.4677 625.981 78.8096 629.587 81.8188 630.869C84.8281 632.151 88.3653 630.623 89.7193 627.456C91.0733 624.288 89.7314 620.681 86.7221 619.399ZM57.2285 582.037C58.5825 578.87 62.1197 577.341 65.129 578.623C68.1382 579.905 69.4801 583.512 68.1261 586.679C66.7721 589.847 63.2349 591.375 60.2257 590.093C57.2164 588.811 55.8745 585.204 57.2285 582.037ZM51.6273 566.572C48.618 565.29 45.0808 566.819 43.7268 569.986C42.3728 573.153 43.7147 576.76 46.7239 578.042C49.7332 579.324 53.2704 577.796 54.6244 574.628C55.9784 571.461 54.6365 567.854 51.6273 566.572ZM92.9377 606.044C94.2917 602.877 97.8288 601.348 100.838 602.63C103.847 603.912 105.189 607.519 103.835 610.687C102.481 613.854 98.9441 615.382 95.9348 614.1C92.9256 612.818 91.5837 609.212 92.9377 606.044ZM85.0175 593.251C82.0082 591.969 78.471 593.497 77.117 596.665C75.763 599.832 77.1049 603.439 80.1142 604.721C83.1235 606.003 86.6606 604.474 88.0146 601.307C89.3686 598.14 88.0268 594.533 85.0175 593.251ZM188.457 662.856C185.159 663.109 182.389 660.551 182.271 657.144C182.152 653.736 184.73 650.769 188.027 650.516C191.325 650.263 194.095 652.82 194.213 656.227C194.332 659.635 191.754 662.603 188.457 662.856ZM162.437 646.293C162.555 649.7 165.324 652.258 168.622 652.005C171.92 651.751 174.497 648.784 174.379 645.376C174.26 641.969 171.491 639.412 168.193 639.665C164.895 639.918 162.318 642.885 162.437 646.293ZM164.945 679.519C161.647 679.772 158.877 677.215 158.759 673.807C158.641 670.4 161.218 667.432 164.516 667.179C167.813 666.926 170.583 669.483 170.701 672.891C170.82 676.298 168.242 679.266 164.945 679.519ZM177.993 682.084C178.111 685.491 180.88 688.049 184.178 687.796C187.476 687.542 190.053 684.575 189.935 681.167C189.816 677.76 187.047 675.203 183.749 675.456C180.451 675.709 177.874 678.676 177.993 682.084ZM140.139 640.279C136.841 640.532 134.072 637.974 133.953 634.567C133.835 631.159 136.412 628.192 139.71 627.939C143.008 627.686 145.777 630.243 145.896 633.65C146.014 637.058 143.437 640.026 140.139 640.279ZM128.541 655.044C128.66 658.451 131.429 661.008 134.727 660.755C138.025 660.502 140.602 657.535 140.484 654.127C140.365 650.72 137.596 648.162 134.298 648.416C131 648.669 128.423 651.636 128.541 655.044ZM257.848 766.546C254.55 766.799 251.781 764.241 251.662 760.834C251.544 757.426 254.121 754.459 257.419 754.206C260.716 753.953 263.486 756.51 263.604 759.918C263.723 763.325 261.145 766.293 257.848 766.546ZM119.085 616.167C119.203 619.574 121.973 622.131 125.271 621.878C128.568 621.625 131.146 618.658 131.027 615.25C130.909 611.843 128.139 609.285 124.842 609.538C121.544 609.791 118.966 612.759 119.085 616.167ZM150.291 672.254C146.993 672.507 144.224 669.95 144.105 666.542C143.987 663.134 146.564 660.167 149.862 659.914C153.16 659.661 155.929 662.218 156.048 665.626C156.166 669.033 153.589 672.001 150.291 672.254ZM337.2 756.679C337.319 760.086 340.088 762.643 343.386 762.39C346.683 762.137 349.261 759.17 349.142 755.762C349.024 752.355 346.254 749.797 342.957 750.05C339.659 750.303 337.082 753.271 337.2 756.679ZM323.55 751.539C320.253 751.792 317.483 749.235 317.365 745.828C317.246 742.42 319.824 739.453 323.121 739.2C326.419 738.946 329.189 741.504 329.307 744.911C329.426 748.319 326.848 751.286 323.55 751.539ZM357.506 766.047C357.624 769.454 360.394 772.011 363.692 771.758C366.989 771.505 369.567 768.538 369.448 765.13C369.33 761.723 366.56 759.165 363.263 759.418C359.965 759.672 357.388 762.639 357.506 766.047ZM309.122 802.051C305.824 802.304 303.055 799.747 302.936 796.339C302.818 792.932 305.395 789.964 308.693 789.711C311.991 789.458 314.76 792.015 314.879 795.423C314.997 798.83 312.42 801.798 309.122 802.051ZM330.798 778.8C330.916 782.208 333.686 784.765 336.984 784.512C340.281 784.259 342.859 781.291 342.74 777.884C342.622 774.476 339.852 771.919 336.555 772.172C333.257 772.425 330.679 775.392 330.798 778.8ZM303.712 736.347C300.414 736.601 297.645 734.043 297.526 730.636C297.408 727.228 299.985 724.261 303.283 724.008C306.58 723.754 309.35 726.312 309.468 729.719C309.587 733.127 307.009 736.094 303.712 736.347ZM298.174 753.487C298.292 756.895 301.062 759.452 304.359 759.199C307.657 758.946 310.234 755.978 310.116 752.571C309.997 749.163 307.228 746.606 303.93 746.859C300.633 747.112 298.055 750.08 298.174 753.487ZM282.87 730.74C279.572 730.994 276.803 728.436 276.684 725.029C276.566 721.621 279.143 718.654 282.441 718.401C285.739 718.147 288.508 720.705 288.627 724.112C288.745 727.52 286.168 730.487 282.87 730.74ZM280.046 748.691C280.164 752.099 282.934 754.656 286.231 754.403C289.529 754.15 292.107 751.183 291.988 747.775C291.87 744.368 289.1 741.81 285.802 742.063C282.505 742.316 279.927 745.284 280.046 748.691ZM269.848 786.833C266.55 787.086 263.781 784.529 263.662 781.122C263.544 777.714 266.121 774.746 269.419 774.493C272.717 774.24 275.486 776.798 275.605 780.205C275.723 783.613 273.146 786.58 269.848 786.833ZM242.231 787.984C242.349 791.391 245.119 793.949 248.417 793.696C251.714 793.443 254.292 790.475 254.173 787.067C254.055 783.66 251.285 781.103 247.988 781.356C244.69 781.609 242.113 784.576 242.231 787.984ZM280.242 809.79C276.944 810.043 274.175 807.486 274.057 804.078C273.938 800.671 276.515 797.703 279.813 797.45C283.111 797.197 285.88 799.754 285.999 803.162C286.117 806.569 283.54 809.537 280.242 809.79ZM179.596 851.776C179.715 855.183 182.484 857.741 185.782 857.488C189.079 857.235 191.657 854.267 191.538 850.859C191.42 847.452 188.65 844.895 185.353 845.148C182.055 845.401 179.478 848.368 179.596 851.776ZM296.318 783.098C293.02 783.351 290.25 780.794 290.132 777.386C290.014 773.979 292.591 771.011 295.889 770.758C299.186 770.505 301.956 773.062 302.074 776.47C302.193 779.878 299.615 782.845 296.318 783.098ZM256.164 736.124C256.282 739.531 259.051 742.088 262.349 741.835C265.647 741.582 268.224 738.615 268.106 735.207C267.987 731.8 265.218 729.242 261.92 729.496C258.622 729.749 256.045 732.716 256.164 736.124Z" fill="#95F1F7" fill-opacity="0.5"/>
<path d="M93.5653 1340.05L37.2949 1380.7C36.5303 1381.25 36.8852 1382.46 37.827 1382.51L64.4711 1383.93C64.8414 1383.95 65.1704 1384.18 65.3257 1384.51L76.4021 1408.52C76.7976 1409.38 78.0509 1409.26 78.2802 1408.34L95.1209 1341.11C95.3475 1340.2 94.3214 1339.51 93.5653 1340.05Z" stroke="#DED9FF" stroke-width="9"/>
<path opacity="0.6" d="M285.698 20.3659L287.982 16.4544C291.456 10.5048 297.297 6.3007 304.111 4.84597C312.536 3.04709 321.401 5.4319 327.883 11.2414L337.18 19.5731C342.857 24.6604 349.193 28.9699 356.012 32.3821C370.034 39.3977 379.517 53.0505 381.057 68.4399L381.213 69.9919C383.817 96.002 362.784 117.895 336.456 116.579L334.872 116.5C332.095 116.361 329.353 115.754 326.764 114.705L317.896 111.111C281.619 96.4071 266.378 53.4525 285.698 20.3659Z" fill="#95F1F7" fill-opacity="0.6"/>
</g>
<defs>
<clipPath id="clip0">
<rect width="397" height="1417" fill="white"/>
</clipPath>
</defs>
</svg>
