<svg width="560" height="3838" viewBox="0 0 560 3838" fill="none" xmlns="http://www.w3.org/2000/svg">
<g clip-path="url(#clip0)">
<path d="M123.575 1825.64C127.687 1868.63 131.58 1911.26 138.481 1955.48C147.363 2012.41 158.864 2084.88 185.323 2119.45C219.041 2163.5 256.084 2168.39 287.559 2181.21C315.048 2192.41 350.798 2202.09 379.352 2260.32C422.427 2348.17 408.28 2454.8 407.933 2532.94C407.771 2569.49 408.01 2629.74 422.478 2659.5" stroke="#BDB2FF" stroke-width="10" stroke-linecap="round" stroke-linejoin="round"/>
<path d="M504 74.5414C504 115.709 468.854 149.083 425.5 149.083C382.146 149.083 347 115.709 347 74.5414C347 33.3733 382.146 0 425.5 0C468.854 0 504 33.3733 504 74.5414Z" fill="#CAC1FF"/>
<path d="M259 1104.54C259 1145.71 223.854 1179.08 180.5 1179.08C137.146 1179.08 102 1145.71 102 1104.54C102 1063.37 137.146 1030 180.5 1030C223.854 1030 259 1063.37 259 1104.54Z" fill="#705EDF"/>
<path d="M454.959 2716.35L450.943 2694.2L472.992 2701.47C483.005 2704.78 489.588 2714.56 488.991 2725.24L498.787 2736.35L487.746 2746.43L477.949 2735.32C466.765 2735.63 456.993 2727.56 454.959 2716.35Z" stroke="#BDB2FF" stroke-width="7"/>
<ellipse rx="4.61249" ry="4.80701" transform="matrix(0.735651 -0.671685 0.663514 0.752861 471.528 2717.39)" fill="#BDB2FF"/>
<line y1="-2.5" x2="34.3358" y2="-2.5" transform="matrix(0.663514 0.752861 -0.735651 0.671685 450.724 2696.26)" stroke="#BDB2FF" stroke-width="5"/>
<path opacity="0.8" fill-rule="evenodd" clip-rule="evenodd" d="M371.496 -11.8574C370.154 -13.5677 367.597 -13.9809 365.784 -12.7804L365.183 -12.3824C363.371 -11.1818 362.989 -8.82207 364.332 -7.11175C365.674 -5.40143 368.231 -4.9882 370.043 -6.18877L370.644 -6.58675C372.457 -7.78732 372.838 -10.1471 371.496 -11.8574ZM421.636 -44.9775C420.294 -46.6878 417.737 -47.101 415.924 -45.9004L381.687 -23.2222C379.874 -22.0216 379.493 -19.6619 380.835 -17.9515C382.177 -16.2412 384.735 -15.828 386.547 -17.0286L420.784 -39.7068C422.597 -40.9074 422.978 -43.2671 421.636 -44.9775ZM452.423 -42.6412C451.081 -44.3515 448.524 -44.7647 446.711 -43.5641L433.788 -35.0036C431.975 -33.8031 431.594 -31.4433 432.936 -29.733C434.278 -28.0227 436.835 -27.6094 438.648 -28.81L451.572 -37.3705C453.384 -38.5711 453.766 -40.9308 452.423 -42.6412ZM461.347 -24.1819C460.005 -25.8922 460.386 -28.252 462.199 -29.4525L476.576 -38.9757C478.388 -40.1763 480.946 -39.7631 482.288 -38.0527C483.63 -36.3424 483.249 -33.9827 481.436 -32.7821L467.059 -23.2589C465.247 -22.0584 462.689 -22.4716 461.347 -24.1819ZM512.354 -35.8397C511.012 -37.55 508.455 -37.9633 506.642 -36.7627L489.509 -25.4141C487.697 -24.2136 487.315 -21.8538 488.657 -20.1435C490 -18.4332 492.557 -18.0199 494.369 -19.2205L511.502 -30.5691C513.315 -31.7697 513.696 -34.1294 512.354 -35.8397ZM468.332 -11.2361C466.989 -12.9464 467.371 -15.3062 469.183 -16.5067L471.64 -18.1343C473.453 -19.3348 476.01 -18.9216 477.352 -17.2113C478.694 -15.501 478.313 -13.1412 476.501 -11.9407L474.043 -10.3131C472.231 -9.11256 469.674 -9.52579 468.332 -11.2361ZM441.096 -16.6629C440.22 -17.7784 440.469 -19.3176 441.651 -20.1007C442.834 -20.8838 444.502 -20.6143 445.377 -19.4987L447.067 -17.3449C447.943 -16.2294 447.694 -14.6902 446.512 -13.9071C445.329 -13.124 443.661 -13.3936 442.786 -14.5091L441.096 -16.6629ZM419.878 -24.0295C418.536 -25.7398 415.978 -26.1531 414.166 -24.9525L412.419 -23.7951C410.606 -22.5945 410.225 -20.2348 411.567 -18.5244C412.909 -16.8141 415.466 -16.4009 417.279 -17.6015L419.026 -18.7589C420.839 -19.9595 421.22 -22.3192 419.878 -24.0295Z" fill="#FFBFC4" fill-opacity="0.4"/>
<path fill-rule="evenodd" clip-rule="evenodd" d="M175.574 343.129L27.3242 191.633C24.6854 194.175 22.2122 196.817 19.9048 199.547L166.718 349.575C169.754 347.59 172.711 345.441 175.574 343.129ZM159.555 353.877L14.8618 206.015C12.6778 209.058 10.6825 212.19 8.87641 215.394L149.266 358.858C152.764 357.382 156.199 355.722 159.555 353.877ZM140.95 361.982L4.98609 223.041C3.32706 226.678 1.89703 230.389 0.696778 234.154L128.964 365.23C133.006 364.369 137.009 363.287 140.95 361.982ZM119.197 366.871L-1.74226 243.283C-2.70809 247.739 -3.3635 252.245 -3.70727 256.77L104.888 367.743C109.666 367.749 114.447 367.459 119.197 366.871ZM92.8879 367.103L-3.91382 268.181C-3.67559 274.188 -2.88908 280.182 -1.55144 286.091L74.2506 363.553C80.3585 365.253 86.5966 366.437 92.8879 367.103ZM56.3611 356.894L4.13195 303.521C8.96733 314.723 15.9695 325.303 25.1605 334.695C34.3514 344.087 44.9504 351.494 56.3611 356.894ZM181.712 337.78L33.3918 186.212C36.2215 183.867 39.1453 181.685 42.1501 179.666L189.228 329.965C186.888 332.663 184.382 335.272 181.712 337.78ZM194.348 323.575C196.566 320.57 198.597 317.475 200.442 314.306L59.4179 170.194C55.9546 171.709 52.5558 173.406 49.2371 175.286L194.348 323.575ZM67.6443 166.979L204.422 306.751C206.122 303.162 207.597 299.497 208.846 295.777L79.4945 163.593C75.4957 164.503 71.5388 165.632 67.6443 166.979ZM89.1414 161.829L211.405 286.771C212.431 282.387 213.154 277.95 213.574 273.49L103.248 160.749C98.5333 160.82 93.8205 161.18 89.1414 161.829ZM115.037 161.174L213.991 262.295C213.877 256.458 213.247 250.625 212.097 244.864L133.206 164.245C127.239 162.734 121.159 161.709 115.037 161.174ZM150.254 170.045L207.255 228.294C202.412 215.857 194.956 204.104 184.857 193.784C174.759 183.465 162.961 175.542 150.254 170.045Z" fill="#95F1F7"/>
<path opacity="0.5" fill-rule="evenodd" clip-rule="evenodd" d="M527.529 3647.95C529.032 3646.65 530.481 3645.29 531.874 3643.87C532.867 3642.85 533.825 3641.81 534.748 3640.75L151.27 3302.15C150.22 3303.1 149.198 3304.09 148.205 3305.1C146.812 3306.52 145.488 3307.99 144.235 3309.51L527.529 3647.95ZM516.17 3656.01L136.589 3320.85C134.909 3323.95 133.448 3327.19 132.202 3330.55L506.302 3660.87C509.743 3659.45 513.036 3657.83 516.17 3656.01ZM491.236 3665.66L128.263 3345.17C127.552 3349.15 127.085 3353.27 126.858 3357.5L478.388 3667.89C482.815 3667.37 487.103 3666.63 491.236 3665.66ZM458.936 3668.81L127.305 3375.99C127.795 3381.08 128.58 3386.3 129.651 3391.63L442.335 3667.72C448.008 3668.35 453.548 3668.71 458.936 3668.81ZM416.874 3663.33L136.107 3415.42C138.407 3422.23 141.117 3429.16 144.225 3436.16L394.502 3657.15C402.088 3659.59 409.557 3661.65 416.874 3663.33ZM357.852 3642.88L161.87 3469.84C168.724 3481.2 176.522 3492.64 185.217 3504.02L320.251 3623.26C332.836 3630.66 345.417 3637.22 357.852 3642.88ZM162.378 3293.87L542.644 3629.63C544.389 3626.59 545.915 3623.41 547.228 3620.11L172.049 3288.83C168.673 3290.32 165.445 3291.99 162.378 3293.87ZM186.834 3283.79L551.447 3605.74C552.234 3601.82 552.778 3597.78 553.084 3593.61L199.451 3281.36C195.1 3281.96 190.89 3282.77 186.834 3283.79ZM218.553 3280.14L552.988 3575.43C552.596 3570.43 551.915 3565.3 550.952 3560.06L234.842 3280.95C229.273 3280.42 223.837 3280.14 218.553 3280.14ZM259.778 3284.87L545.022 3536.73C542.89 3530.09 540.362 3523.32 537.448 3516.47L281.606 3290.57C274.201 3288.31 266.913 3286.41 259.778 3284.87ZM317.045 3303.77L521.014 3483.87C514.792 3473.16 507.722 3462.37 499.843 3451.61L352.469 3321.48C340.593 3314.8 328.744 3308.89 317.045 3303.77Z" fill="#95F1F7"/>
<path d="M426.39 3194.5C426.39 3206.93 415.781 3217 402.695 3217C389.609 3217 379 3206.93 379 3194.5C379 3182.07 389.609 3172 402.695 3172C415.781 3172 426.39 3182.07 426.39 3194.5Z" fill="#705EDF"/>
<path fill-rule="evenodd" clip-rule="evenodd" d="M64.8339 3173.61C67.4795 3169.22 72.9838 3167.74 77.1282 3170.32C81.2726 3172.89 82.4877 3178.54 79.8421 3182.93C77.1966 3187.32 71.6923 3188.8 67.5479 3186.22C63.4034 3183.65 62.1884 3178 64.8339 3173.61ZM96.607 3155.09C99.2525 3150.7 104.757 3149.22 108.901 3151.8C113.046 3154.37 114.261 3160.02 111.615 3164.41C108.97 3168.8 103.465 3170.28 99.3209 3167.7C95.1765 3165.13 93.9615 3159.48 96.607 3155.09ZM77.6881 3135.15C73.5436 3132.57 68.0393 3134.05 65.3937 3138.44C62.7482 3142.83 63.9633 3148.48 68.1077 3151.05C72.2521 3153.63 77.7564 3152.15 80.402 3147.76C83.0475 3143.37 81.8325 3137.72 77.6881 3135.15ZM58.9683 3093.47C61.6138 3089.08 67.1181 3087.6 71.2626 3090.17C75.407 3092.75 76.622 3098.39 73.9765 3102.79C71.3309 3107.18 65.8266 3108.66 61.6822 3106.08C57.5378 3103.51 56.3227 3097.86 58.9683 3093.47ZM108.175 3121.14C107.737 3116.09 103.411 3112.52 98.5142 3113.17C93.6169 3113.82 90.0021 3118.43 90.4402 3123.48C90.8783 3128.53 95.2035 3132.1 100.101 3131.46C104.998 3130.81 108.613 3126.19 108.175 3121.14ZM82.7177 3075.43C85.3632 3071.04 90.8676 3069.56 95.012 3072.14C99.1564 3074.71 100.371 3080.36 97.7259 3084.75C95.0804 3089.14 89.576 3090.62 85.4316 3088.04C81.2872 3085.47 80.0722 3079.82 82.7177 3075.43ZM164.066 3128.68C159.921 3126.1 154.417 3127.58 151.772 3131.97C149.126 3136.36 150.341 3142.01 154.485 3144.58C158.63 3147.16 164.134 3145.68 166.78 3141.29C169.425 3136.9 168.21 3131.25 164.066 3128.68ZM123.431 3136.23C126.077 3131.84 131.581 3130.36 135.726 3132.93C139.87 3135.51 141.085 3141.15 138.44 3145.55C135.794 3149.94 130.29 3151.42 126.145 3148.84C122.001 3146.27 120.786 3140.62 123.431 3136.23ZM245.709 3044.53C250.071 3046.71 255.447 3044.74 257.717 3040.14C259.987 3035.54 258.292 3030.04 253.93 3027.86C249.569 3025.69 244.193 3027.65 241.923 3032.26C239.653 3036.86 241.348 3042.36 245.709 3044.53ZM220.835 3050.02C218.565 3054.62 213.189 3056.59 208.828 3054.42C204.466 3052.24 202.771 3046.74 205.041 3042.14C207.311 3037.54 212.687 3035.57 217.048 3037.75C221.41 3039.92 223.105 3045.42 220.835 3050.02ZM229.263 3088.96C233.624 3091.14 239 3089.17 241.27 3084.57C243.541 3079.97 241.845 3074.47 237.484 3072.29C233.122 3070.12 227.747 3072.09 225.476 3076.69C223.206 3081.29 224.902 3086.79 229.263 3088.96ZM202.351 3084.99C200.081 3089.6 194.705 3091.56 190.344 3089.39C185.983 3087.21 184.287 3081.71 186.557 3077.11C188.827 3072.51 194.203 3070.54 198.565 3072.72C202.926 3074.89 204.621 3080.39 202.351 3084.99ZM180.168 3042.08C184.529 3044.26 189.905 3042.29 192.175 3037.69C194.445 3033.09 192.75 3027.59 188.389 3025.42C184.027 3023.24 178.651 3025.21 176.381 3029.81C174.111 3034.41 175.806 3039.91 180.168 3042.08ZM211.012 3117.69C208.742 3122.29 203.366 3124.26 199.005 3122.09C194.644 3119.91 192.948 3114.41 195.218 3109.81C197.489 3105.21 202.864 3103.24 207.226 3105.42C211.587 3107.59 213.282 3113.09 211.012 3117.69ZM143.202 3112.02C147.563 3114.2 152.939 3112.23 155.209 3107.63C157.48 3103.03 155.784 3097.53 151.423 3095.36C147.061 3093.18 141.686 3095.15 139.416 3099.75C137.145 3104.35 138.841 3109.85 143.202 3112.02ZM175.049 3078.97C172.779 3083.57 167.403 3085.54 163.042 3083.36C158.681 3081.18 156.985 3075.69 159.255 3071.09C161.526 3066.48 166.901 3064.52 171.263 3066.69C175.624 3068.87 177.319 3074.37 175.049 3078.97ZM144.619 2985.7C148.981 2987.88 154.357 2985.91 156.627 2981.31C158.897 2976.71 157.202 2971.21 152.84 2969.03C148.479 2966.86 143.103 2968.83 140.833 2973.43C138.563 2978.03 140.258 2983.53 144.619 2985.7ZM130.265 2999.25C127.995 3003.85 122.619 3005.82 118.257 3003.64C113.896 3001.47 112.201 2995.97 114.471 2991.37C116.741 2986.77 122.117 2984.8 126.478 2986.97C130.839 2989.15 132.535 2994.65 130.265 2999.25ZM153.224 3022.62C157.585 3024.8 162.961 3022.83 165.231 3018.23C167.501 3013.63 165.806 3008.13 161.445 3005.95C157.083 3003.78 151.707 3005.74 149.437 3010.35C147.167 3014.95 148.863 3020.45 153.224 3022.62ZM150.502 3055.53C148.232 3060.13 142.856 3062.1 138.494 3059.92C134.133 3057.75 132.438 3052.25 134.708 3047.65C136.978 3043.04 142.354 3041.08 146.715 3043.25C151.077 3045.43 152.772 3050.93 150.502 3055.53ZM84.8093 2999.26C89.1707 3001.44 94.5466 2999.47 96.8167 2994.87C99.0868 2990.27 97.3915 2984.77 93.0301 2982.6C88.6687 2980.42 83.2928 2982.39 81.0227 2986.99C78.7526 2991.59 80.4479 2997.09 84.8093 2999.26ZM97.9317 3052.94C95.6616 3057.54 90.2857 3059.51 85.9244 3057.33C81.563 3055.16 79.8677 3049.66 82.1378 3045.06C84.4079 3040.46 89.7837 3038.49 94.1451 3040.67C98.5065 3042.84 100.202 3048.34 97.9317 3052.94ZM112.666 3098.53C117.028 3100.7 122.404 3098.74 124.674 3094.14C126.944 3089.53 125.249 3084.04 120.887 3081.86C116.526 3079.68 111.15 3081.65 108.88 3086.25C106.61 3090.86 108.305 3096.35 112.666 3098.53ZM74.3074 3028.5C72.0373 3033.11 66.6614 3035.07 62.3 3032.9C57.9386 3030.72 56.2433 3025.22 58.5134 3020.62C60.7835 3016.02 66.1594 3014.05 70.5208 3016.23C74.8822 3018.4 76.5775 3023.9 74.3074 3028.5ZM112.072 3035.32C116.433 3037.49 121.809 3035.53 124.079 3030.92C126.349 3026.32 124.654 3020.83 120.293 3018.65C115.931 3016.47 110.555 3018.44 108.285 3023.04C106.015 3027.65 107.711 3033.14 112.072 3035.32ZM348.448 2970.8C346.178 2975.4 340.802 2977.37 336.441 2975.19C332.079 2973.02 330.384 2967.52 332.654 2962.92C334.924 2958.31 340.3 2956.35 344.661 2958.52C349.023 2960.7 350.718 2966.2 348.448 2970.8ZM322.391 3015.65C326.752 3017.82 332.128 3015.85 334.398 3011.25C336.668 3006.65 334.973 3001.15 330.611 2998.98C326.25 2996.8 320.874 2998.77 318.604 3003.37C316.334 3007.97 318.029 3013.47 322.391 3015.65ZM369.681 3046.82C367.411 3051.43 362.035 3053.39 357.674 3051.22C353.313 3049.04 351.617 3043.54 353.887 3038.94C356.158 3034.34 361.533 3032.37 365.895 3034.55C370.256 3036.73 371.952 3042.22 369.681 3046.82ZM282.032 3069.82C286.394 3071.99 291.769 3070.03 294.04 3065.43C296.31 3060.82 294.614 3055.33 290.253 3053.15C285.892 3050.97 280.516 3052.94 278.246 3057.54C275.976 3062.15 277.671 3067.64 282.032 3069.82ZM265.102 3006.47C262.832 3011.08 257.456 3013.04 253.095 3010.87C248.733 3008.69 247.038 3003.2 249.308 2998.59C251.578 2993.99 256.954 2992.02 261.315 2994.2C265.677 2996.38 267.372 3001.87 265.102 3006.47ZM276.446 3036.3C280.807 3038.47 286.183 3036.5 288.453 3031.9C290.723 3027.3 289.028 3021.8 284.667 3019.63C280.305 3017.45 274.929 3019.42 272.659 3024.02C270.389 3028.62 272.085 3034.12 276.446 3036.3ZM327.85 3056.37C325.58 3060.97 320.204 3062.94 315.843 3060.76C311.481 3058.58 309.786 3053.09 312.056 3048.48C314.326 3043.88 319.702 3041.91 324.063 3044.09C328.425 3046.27 330.12 3051.76 327.85 3056.37ZM292.777 2825.13C297.139 2827.31 302.514 2825.34 304.785 2820.74C307.055 2816.14 305.359 2810.64 300.998 2808.46C296.637 2806.29 291.261 2808.25 288.991 2812.86C286.721 2817.46 288.416 2822.96 292.777 2825.13ZM277.401 2874.77C275.13 2879.37 269.755 2881.34 265.393 2879.16C261.032 2876.99 259.336 2871.49 261.607 2866.89C263.877 2862.29 269.253 2860.32 273.614 2862.5C277.975 2864.67 279.671 2870.17 277.401 2874.77ZM222.759 2975.64C227.12 2977.81 232.496 2975.85 234.766 2971.24C237.036 2966.64 235.341 2961.15 230.98 2958.97C226.618 2956.79 221.243 2958.76 218.972 2963.36C216.702 2967.97 218.398 2973.46 222.759 2975.64ZM272.21 2926.19C269.94 2930.79 264.564 2932.76 260.202 2930.58C255.841 2928.41 254.146 2922.91 256.416 2918.31C258.686 2913.71 264.062 2911.74 268.423 2913.92C272.784 2916.09 274.48 2921.59 272.21 2926.19ZM266.308 2958.97C270.67 2961.14 276.045 2959.17 278.316 2954.57C280.586 2949.97 278.89 2944.47 274.529 2942.3C270.168 2940.12 264.792 2942.09 262.522 2946.69C260.252 2951.29 261.947 2956.79 266.308 2958.97ZM244.909 2920.17C242.639 2924.77 237.263 2926.74 232.901 2924.56C228.54 2922.38 226.845 2916.89 229.115 2912.28C231.385 2907.68 236.761 2905.72 241.122 2907.89C245.483 2910.07 247.179 2915.56 244.909 2920.17ZM177.216 2952.82C181.578 2955 186.954 2953.03 189.224 2948.43C191.494 2943.83 189.798 2938.33 185.437 2936.15C181.076 2933.98 175.7 2935.95 173.43 2940.55C171.16 2945.15 172.855 2950.65 177.216 2952.82ZM220.038 3008.54C217.768 3013.15 212.392 3015.11 208.03 3012.94C203.669 3010.76 201.974 3005.27 204.244 3000.66C206.514 2996.06 211.89 2994.09 216.251 2996.27C220.613 2998.45 222.308 3003.94 220.038 3008.54ZM110.636 2960.66C114.998 2962.83 120.374 2960.87 122.644 2956.27C124.914 2951.66 123.218 2946.17 118.857 2943.99C114.496 2941.81 109.12 2943.78 106.85 2948.38C104.58 2952.99 106.275 2958.48 110.636 2960.66ZM199.082 2979.14C196.812 2983.74 191.436 2985.71 187.075 2983.53C182.713 2981.36 181.018 2975.86 183.288 2971.26C185.558 2966.66 190.934 2964.69 195.295 2966.87C199.657 2969.04 201.352 2974.54 199.082 2979.14ZM145.765 2859.52C150.126 2861.7 155.502 2859.73 157.772 2855.13C160.042 2850.53 158.347 2845.03 153.985 2842.86C149.624 2840.68 144.248 2842.65 141.978 2847.25C139.708 2851.85 141.403 2857.35 145.765 2859.52ZM160.77 2891.71C158.5 2896.31 153.124 2898.28 148.763 2896.1C144.401 2893.93 142.706 2888.43 144.976 2883.83C147.246 2879.23 152.622 2877.26 156.984 2879.44C161.345 2881.61 163.04 2887.11 160.77 2891.71ZM145.483 2941.31C149.845 2943.49 155.221 2941.52 157.491 2936.92C159.761 2932.32 158.066 2926.82 153.704 2924.65C149.343 2922.47 143.967 2924.44 141.697 2929.04C139.427 2933.64 141.122 2939.14 145.483 2941.31ZM97.9746 2899.32C95.7045 2903.92 90.3287 2905.89 85.9673 2903.71C81.6059 2901.53 79.9106 2896.04 82.1807 2891.44C84.4508 2886.83 89.8267 2884.87 94.188 2887.04C98.5494 2889.22 100.245 2894.72 97.9746 2899.32ZM106.575 2921.78C110.937 2923.96 116.312 2921.99 118.583 2917.39C120.853 2912.79 119.157 2907.29 114.796 2905.12C110.435 2902.94 105.059 2904.91 102.789 2909.51C100.519 2914.11 102.214 2919.61 106.575 2921.78ZM72.7093 2897.94C70.4391 2902.54 65.0633 2904.51 60.7019 2902.33C56.3405 2900.15 54.6452 2894.66 56.9153 2890.06C59.1854 2885.45 64.5613 2883.49 68.9227 2885.66C73.284 2887.84 74.9793 2893.34 72.7093 2897.94ZM144.291 2814.89C148.652 2817.07 154.028 2815.1 156.298 2810.5C158.568 2805.9 156.873 2800.4 152.511 2798.23C148.15 2796.05 142.774 2798.02 140.504 2802.62C138.234 2807.22 139.929 2812.72 144.291 2814.89ZM124.282 2880.78C122.012 2885.39 116.636 2887.35 112.275 2885.18C107.913 2883 106.218 2877.5 108.488 2872.9C110.758 2868.3 116.134 2866.33 120.495 2868.51C124.857 2870.68 126.552 2876.18 124.282 2880.78ZM172.667 2909.02C177.029 2911.19 182.405 2909.22 184.675 2904.62C186.945 2900.02 185.25 2894.52 180.888 2892.35C176.527 2890.17 171.151 2892.14 168.881 2896.74C166.611 2901.34 168.306 2906.84 172.667 2909.02ZM71.1111 2943.39C68.841 2948 63.4651 2949.96 59.1037 2947.79C54.7424 2945.61 53.047 2940.11 55.3171 2935.51C57.5872 2930.91 62.9631 2928.94 67.3245 2931.12C71.6859 2933.29 73.3812 2938.79 71.1111 2943.39ZM64.0132 2978.15C68.3746 2980.33 73.7505 2978.36 76.0206 2973.76C78.2907 2969.16 76.5954 2963.66 72.234 2961.49C67.8726 2959.31 62.4967 2961.28 60.2266 2965.88C57.9565 2970.48 59.6519 2975.98 64.0132 2978.15ZM287.883 2981.64C289.9 2976.92 295.171 2974.64 299.654 2976.55C304.138 2978.46 306.138 2983.83 304.12 2988.55C302.103 2993.27 296.832 2995.55 292.348 2993.64C287.865 2991.73 285.865 2986.35 287.883 2981.64ZM301.841 2882.28C297.357 2880.37 292.086 2882.65 290.069 2887.37C288.051 2892.09 290.051 2897.46 294.535 2899.37C299.019 2901.28 304.289 2899 306.306 2894.28C308.324 2889.57 306.324 2884.19 301.841 2882.28ZM295.295 2934.33C297.313 2929.61 302.583 2927.33 307.067 2929.24C311.551 2931.15 313.55 2936.53 311.533 2941.25C309.515 2945.96 304.245 2948.24 299.761 2946.33C295.277 2944.42 293.278 2939.05 295.295 2934.33ZM344.11 2927.65C339.627 2925.74 334.356 2928.02 332.339 2932.74C330.321 2937.46 332.321 2942.83 336.804 2944.74C341.288 2946.65 346.559 2944.38 348.576 2939.66C350.594 2934.94 348.594 2929.56 344.11 2927.65ZM315.134 2905.66C317.152 2900.95 322.422 2898.67 326.906 2900.58C331.39 2902.49 333.389 2907.86 331.372 2912.58C329.354 2917.3 324.084 2919.58 319.6 2917.67C315.116 2915.76 313.117 2910.38 315.134 2905.66ZM361.076 2878.08C356.592 2876.17 351.322 2878.45 349.305 2883.17C347.287 2887.89 349.287 2893.26 353.77 2895.17C358.254 2897.08 363.525 2894.8 365.542 2890.08C367.56 2885.36 365.56 2879.99 361.076 2878.08ZM369.462 2871.09C371.479 2866.38 376.749 2864.1 381.233 2866.01C385.717 2867.92 387.716 2873.29 385.699 2878.01C383.681 2882.73 378.411 2885.01 373.927 2883.1C369.443 2881.19 367.444 2875.81 369.462 2871.09ZM345.071 2849.02C340.587 2847.11 335.317 2849.38 333.299 2854.1C331.282 2858.82 333.281 2864.2 337.765 2866.11C342.249 2868.02 347.519 2865.74 349.537 2861.02C351.554 2856.3 349.555 2850.93 345.071 2849.02ZM193.59 2914.89C195.607 2910.17 200.878 2907.89 205.362 2909.8C209.845 2911.71 211.845 2917.09 209.827 2921.81C207.81 2926.53 202.539 2928.8 198.056 2926.89C193.572 2924.98 191.572 2919.61 193.59 2914.89ZM173.911 2816.5C169.427 2814.59 164.157 2816.87 162.139 2821.59C160.122 2826.31 162.121 2831.68 166.605 2833.59C171.089 2835.5 176.359 2833.23 178.377 2828.51C180.394 2823.79 178.395 2818.41 173.911 2816.5ZM214.626 2884.24C216.644 2879.52 221.914 2877.24 226.398 2879.15C230.882 2881.06 232.881 2886.43 230.864 2891.15C228.846 2895.87 223.576 2898.15 219.092 2896.24C214.608 2894.33 212.609 2888.96 214.626 2884.24ZM195.024 2854.2C190.54 2852.29 185.27 2854.57 183.252 2859.29C181.235 2864.01 183.234 2869.38 187.718 2871.3C192.202 2873.21 197.472 2870.93 199.49 2866.21C201.507 2861.49 199.508 2856.11 195.024 2854.2ZM297.973 2848.56C299.99 2843.84 305.261 2841.56 309.745 2843.47C314.228 2845.38 316.228 2850.76 314.21 2855.48C312.193 2860.2 306.923 2862.47 302.439 2860.56C297.955 2858.65 295.956 2853.28 297.973 2848.56ZM226.959 2843.98C222.475 2842.07 217.204 2844.35 215.187 2849.07C213.169 2853.79 215.169 2859.16 219.653 2861.07C224.136 2862.98 229.407 2860.7 231.424 2855.98C233.442 2851.26 231.442 2845.89 226.959 2843.98ZM78.1139 2854.11C80.1313 2849.39 85.4017 2847.12 89.8855 2849.03C94.3693 2850.94 96.3687 2856.31 94.3513 2861.03C92.3338 2865.75 87.0634 2868.03 82.5796 2866.12C78.0958 2864.21 76.0964 2858.83 78.1139 2854.11ZM64.3607 2844.77C59.8769 2842.86 54.6066 2845.14 52.5891 2849.86C50.5716 2854.58 52.571 2859.95 57.0548 2861.86C61.5387 2863.77 66.809 2861.49 68.8265 2856.77C70.844 2852.05 68.8446 2846.68 64.3607 2844.77ZM50.0512 2810.89C52.0687 2806.17 57.339 2803.9 61.8229 2805.81C66.3067 2807.72 68.3061 2813.09 66.2886 2817.81C64.2712 2822.53 59.0008 2824.81 54.517 2822.9C50.0331 2820.99 48.0337 2815.61 50.0512 2810.89ZM124.733 2829.68C120.249 2827.77 114.978 2830.05 112.961 2834.77C110.943 2839.49 112.943 2844.86 117.427 2846.77C121.91 2848.68 127.181 2846.41 129.198 2841.69C131.216 2836.97 129.216 2831.59 124.733 2829.68ZM77.1568 2804.34C79.1743 2799.62 84.4446 2797.34 88.9284 2799.25C93.4123 2801.16 95.4117 2806.54 93.3942 2811.26C91.3767 2815.98 86.1064 2818.25 81.6225 2816.34C77.1387 2814.43 75.1393 2809.06 77.1568 2804.34ZM80.1094 2758.26C75.6255 2756.35 70.3552 2758.63 68.3377 2763.35C66.3203 2768.06 68.3196 2773.44 72.8035 2775.35C77.2873 2777.26 82.5577 2774.98 84.5751 2770.26C86.5926 2765.54 84.5932 2760.17 80.1094 2758.26ZM139.189 2752.7C141.206 2747.98 146.477 2745.7 150.96 2747.61C155.444 2749.52 157.444 2754.89 155.426 2759.61C153.409 2764.33 148.138 2766.61 143.655 2764.7C139.171 2762.79 137.171 2757.42 139.189 2752.7ZM124.234 2794.51C119.75 2792.6 114.48 2794.88 112.462 2799.6C110.445 2804.32 112.444 2809.7 116.928 2811.61C121.412 2813.52 126.682 2811.24 128.7 2806.52C130.717 2801.8 128.718 2796.43 124.234 2794.51ZM42.8121 2759.09C44.8295 2754.37 50.0999 2752.09 54.5837 2754C59.0676 2755.91 61.0669 2761.29 59.0495 2766.01C57.032 2770.72 51.7617 2773 47.2778 2771.09C42.794 2769.18 40.7946 2763.81 42.8121 2759.09ZM56.4403 2716.24C51.9565 2714.33 46.6861 2716.61 44.6687 2721.33C42.6512 2726.05 44.6506 2731.42 49.1344 2733.33C53.6183 2735.24 58.8887 2732.96 60.9061 2728.24C62.9236 2723.52 60.9242 2718.15 56.4403 2716.24ZM70.0957 2726.19C72.1132 2721.47 77.3835 2719.19 81.8674 2721.1C86.3512 2723.01 88.3506 2728.38 86.3331 2733.1C84.3157 2737.82 79.0453 2740.1 74.5614 2738.19C70.0776 2736.28 68.0782 2730.91 70.0957 2726.19ZM116.995 2742.71C112.511 2740.8 107.241 2743.08 105.223 2747.8C103.206 2752.51 105.205 2757.89 109.689 2759.8C114.173 2761.71 119.443 2759.43 121.46 2754.71C123.478 2749.99 121.479 2744.62 116.995 2742.71ZM73.0501 2687.04C75.0675 2682.32 80.3378 2680.04 84.8217 2681.95C89.3055 2683.86 91.3049 2689.24 89.2874 2693.96C87.27 2698.68 81.9996 2700.95 77.5158 2699.04C73.0319 2697.13 71.0326 2691.76 73.0501 2687.04ZM64.7041 2664C60.2203 2662.09 54.9499 2664.36 52.9325 2669.08C50.915 2673.8 52.9144 2679.18 57.3982 2681.09C61.8821 2683 67.1524 2680.72 69.1699 2676C71.1873 2671.28 69.188 2665.91 64.7041 2664ZM126.257 2722.81C128.274 2718.09 133.544 2715.81 138.028 2717.72C142.512 2719.63 144.511 2725.01 142.494 2729.73C140.477 2734.45 135.206 2736.72 130.722 2734.81C126.238 2732.9 124.239 2727.53 126.257 2722.81ZM114.456 2703.75C109.972 2701.84 104.702 2704.11 102.684 2708.83C100.667 2713.55 102.666 2718.93 107.15 2720.84C111.634 2722.75 116.904 2720.47 118.922 2715.75C120.939 2711.03 118.94 2705.66 114.456 2703.75ZM268.58 2807.46C263.666 2807.84 259.54 2804.03 259.363 2798.95C259.187 2793.87 263.027 2789.45 267.94 2789.07C272.854 2788.7 276.98 2792.51 277.157 2797.58C277.333 2802.66 273.493 2807.08 268.58 2807.46ZM229.809 2782.78C229.986 2787.86 234.112 2791.67 239.026 2791.29C243.939 2790.91 247.78 2786.49 247.603 2781.41C247.427 2776.34 243.3 2772.53 238.386 2772.9C233.473 2773.28 229.633 2777.7 229.809 2782.78ZM233.547 2832.29C228.634 2832.66 224.507 2828.85 224.331 2823.78C224.154 2818.7 227.994 2814.28 232.908 2813.9C237.822 2813.52 241.948 2817.33 242.125 2822.41C242.301 2827.49 238.461 2831.91 233.547 2832.29ZM252.989 2836.11C253.165 2841.19 257.292 2845 262.205 2844.62C267.119 2844.24 270.959 2839.82 270.783 2834.74C270.606 2829.67 266.48 2825.86 261.566 2826.23C256.652 2826.61 252.812 2831.03 252.989 2836.11ZM196.586 2773.82C191.672 2774.2 187.546 2770.39 187.37 2765.31C187.193 2760.23 191.033 2755.81 195.947 2755.43C200.86 2755.06 204.987 2758.87 205.163 2763.94C205.34 2769.02 201.5 2773.44 196.586 2773.82ZM179.306 2795.82C179.482 2800.9 183.609 2804.71 188.522 2804.33C193.436 2803.95 197.276 2799.53 197.1 2794.45C196.923 2789.38 192.797 2785.57 187.883 2785.94C182.969 2786.32 179.129 2790.74 179.306 2795.82ZM371.973 2961.96C367.059 2962.33 362.933 2958.52 362.756 2953.45C362.58 2948.37 366.42 2943.95 371.334 2943.57C376.247 2943.19 380.374 2947 380.55 2952.08C380.727 2957.16 376.886 2961.58 371.973 2961.96ZM165.216 2737.89C165.393 2742.97 169.519 2746.78 174.433 2746.4C179.347 2746.03 183.187 2741.6 183.01 2736.53C182.834 2731.45 178.707 2727.64 173.794 2728.02C168.88 2728.39 165.04 2732.81 165.216 2737.89ZM211.713 2821.46C206.799 2821.84 202.673 2818.03 202.496 2812.95C202.32 2807.87 206.16 2803.45 211.074 2803.08C215.987 2802.7 220.114 2806.51 220.29 2811.59C220.467 2816.66 216.626 2821.08 211.713 2821.46ZM490.207 2947.25C490.383 2952.33 494.509 2956.14 499.423 2955.77C504.337 2955.39 508.177 2950.97 508 2945.89C507.824 2940.81 503.697 2937 498.784 2937.38C493.87 2937.76 490.03 2942.18 490.207 2947.25ZM469.869 2939.6C464.955 2939.97 460.829 2936.16 460.653 2931.09C460.476 2926.01 464.316 2921.59 469.23 2921.21C474.144 2920.83 478.27 2924.64 478.446 2929.72C478.623 2934.8 474.783 2939.22 469.869 2939.6ZM520.464 2961.21C520.64 2966.29 524.767 2970.1 529.68 2969.72C534.594 2969.35 538.434 2964.92 538.258 2959.85C538.081 2954.77 533.955 2950.96 529.041 2951.34C524.127 2951.71 520.287 2956.14 520.464 2961.21ZM448.37 3014.86C443.456 3015.24 439.33 3011.43 439.153 3006.35C438.977 3001.27 442.817 2996.85 447.731 2996.47C452.644 2996.1 456.771 2999.91 456.947 3004.98C457.124 3010.06 453.284 3014.48 448.37 3014.86ZM480.667 2980.22C480.843 2985.29 484.97 2989.1 489.883 2988.73C494.797 2988.35 498.637 2983.93 498.461 2978.85C498.284 2973.77 494.158 2969.96 489.244 2970.34C484.331 2970.72 480.49 2975.14 480.667 2980.22ZM440.309 2916.96C435.395 2917.34 431.269 2913.53 431.092 2908.45C430.916 2903.37 434.756 2898.95 439.67 2898.57C444.583 2898.2 448.71 2902.01 448.886 2907.09C449.063 2912.16 445.222 2916.58 440.309 2916.96ZM432.058 2942.5C432.234 2947.58 436.36 2951.39 441.274 2951.01C446.188 2950.63 450.028 2946.21 449.851 2941.13C449.675 2936.06 445.548 2932.25 440.635 2932.62C435.721 2933 431.881 2937.42 432.058 2942.5ZM409.255 2908.61C404.342 2908.98 400.215 2905.17 400.039 2900.1C399.862 2895.02 403.702 2890.6 408.616 2890.22C413.53 2889.84 417.656 2893.65 417.833 2898.73C418.009 2903.81 414.169 2908.23 409.255 2908.61ZM405.047 2935.35C405.223 2940.43 409.35 2944.24 414.263 2943.86C419.177 2943.49 423.017 2939.07 422.841 2933.99C422.664 2928.91 418.538 2925.1 413.624 2925.48C408.711 2925.86 404.87 2930.28 405.047 2935.35ZM389.853 2992.19C384.939 2992.56 380.813 2988.75 380.636 2983.67C380.46 2978.6 384.3 2974.18 389.214 2973.8C394.127 2973.42 398.254 2977.23 398.43 2982.31C398.607 2987.39 394.767 2991.81 389.853 2992.19ZM348.703 2993.9C348.88 2998.98 353.006 3002.79 357.92 3002.41C362.834 3002.03 366.674 2997.61 366.497 2992.53C366.321 2987.46 362.194 2983.65 357.281 2984.02C352.367 2984.4 348.527 2988.82 348.703 2993.9ZM405.34 3026.39C400.427 3026.77 396.3 3022.96 396.124 3017.88C395.947 3012.8 399.787 3008.38 404.701 3008C409.615 3007.63 413.741 3011.44 413.918 3016.51C414.094 3021.59 410.254 3026.01 405.34 3026.39ZM255.377 3088.95C255.553 3094.03 259.68 3097.84 264.593 3097.46C269.507 3097.08 273.347 3092.66 273.171 3087.58C272.994 3082.51 268.868 3078.7 263.954 3079.07C259.041 3079.45 255.2 3083.87 255.377 3088.95ZM429.293 2986.62C424.379 2987 420.252 2983.19 420.076 2978.11C419.899 2973.03 423.74 2968.61 428.653 2968.23C433.567 2967.86 437.693 2971.67 437.87 2976.74C438.046 2981.82 434.206 2986.24 429.293 2986.62ZM369.462 2916.63C369.639 2921.71 373.765 2925.52 378.679 2925.14C383.592 2924.76 387.432 2920.34 387.256 2915.26C387.079 2910.19 382.953 2906.37 378.039 2906.75C373.126 2907.13 369.286 2911.55 369.462 2916.63Z" fill="#95F1F7" fill-opacity="0.5"/>
<path d="M419.151 556.256L413.913 534.366L436.331 540.407C446.512 543.151 453.627 552.549 453.623 563.247L464.021 573.803L453.555 584.48L443.158 573.925C432.007 574.854 421.804 567.344 419.151 556.256Z" stroke="#8D7DEB" stroke-width="7"/>
<ellipse rx="4.61249" ry="4.80701" transform="matrix(0.697274 -0.711444 0.704239 0.714911 437.752 557.38)" fill="#8D7DEB"/>
<line y1="-2.5" x2="34.3358" y2="-2.5" transform="matrix(0.704239 0.714911 -0.697274 0.711444 413.809 536.442)" stroke="#8D7DEB" stroke-width="5"/>
<path fill-rule="evenodd" clip-rule="evenodd" d="M404.804 617.03C404.344 617.669 403.873 618.304 403.393 618.934C372.789 659.097 313.286 664.97 270.489 632.051C227.693 599.131 217.81 539.886 248.415 499.722C279.019 459.559 338.522 453.686 381.318 486.606C390.179 493.421 397.628 501.365 403.6 510.035L396.593 519.23C391.007 510.069 383.618 501.703 374.52 494.705C337.183 465.984 285.209 471.186 258.435 506.324C231.66 541.462 240.222 593.229 277.56 621.95C314.897 650.67 366.87 645.468 393.645 610.33C393.948 609.933 394.246 609.534 394.539 609.134L404.804 617.03Z" fill="#8D7DEB"/>
<path d="M204.064 1594.19L206.889 1593.59C226.795 1589.34 247.755 1593.63 264.622 1605.42L281.97 1617.54C293.5 1625.6 306.043 1632.1 319.259 1636.87C351.286 1648.44 373.535 1678.1 375.616 1711.63C378.317 1755.14 344.114 1791.86 300.166 1792.13L260.718 1792.38C256.756 1792.4 252.799 1791.87 248.968 1790.79L228.094 1784.9C153.918 1763.96 123.281 1675.67 169.447 1615.88C177.992 1604.82 190.24 1597.14 204.064 1594.19Z" fill="#95F1F7" fill-opacity="0.6"/>
<path d="M445.034 934.352L438.419 940.887C432.711 946.526 425.15 949.942 417.059 950.539C401.992 951.65 387.591 943.382 380.838 929.744L377.737 923.481C366.56 900.907 345.243 884.863 320.501 880.402L303.548 877.345C272.936 871.826 251.138 843.986 253.355 813.243L254.241 800.956C256.957 763.29 290.545 736.059 328.306 740.908L378.101 747.302C382.031 747.807 385.88 748.867 389.533 750.45L409.51 759.11C480.188 789.75 498.746 881.295 445.034 934.352Z" fill="#95F1F7" fill-opacity="0.6"/>
<path opacity="0.8" fill-rule="evenodd" clip-rule="evenodd" d="M9.59459 2511.41C8.25246 2509.61 5.67099 2509.19 3.82872 2510.48L3.33573 2510.82C1.49346 2512.11 1.08801 2514.61 2.43015 2516.41V2516.41C3.77228 2518.21 6.35375 2518.63 8.19602 2517.34L8.68901 2517C10.5313 2515.72 10.9367 2513.21 9.59459 2511.41V2511.41ZM59.7346 2476.53C58.3925 2474.73 55.811 2474.31 53.9688 2475.6L19.8393 2499.41C17.997 2500.69 17.5916 2503.19 18.9337 2505V2505C20.2759 2506.8 22.8573 2507.21 24.6996 2505.93L58.829 2482.12C60.6713 2480.84 61.0768 2478.34 59.7346 2476.53V2476.53ZM90.5219 2478.99C89.1798 2477.19 86.5983 2476.77 84.7561 2478.06L71.9401 2487C70.0979 2488.28 69.6924 2490.79 71.0345 2492.59V2492.59C72.3767 2494.39 74.9582 2494.81 76.8004 2493.52L89.6164 2484.58C91.4586 2483.3 91.8641 2480.8 90.5219 2478.99V2478.99ZM99.4457 2498.43C98.1035 2496.63 98.509 2494.13 100.351 2492.85L114.621 2482.89C116.463 2481.61 119.044 2482.03 120.386 2483.83V2483.83C121.729 2485.63 121.323 2488.13 119.481 2489.41L105.212 2499.37C103.369 2500.65 100.788 2500.24 99.4457 2498.43V2498.43ZM150.453 2486.16C149.11 2484.36 146.529 2483.94 144.687 2485.22L127.662 2497.1C125.819 2498.38 125.414 2500.89 126.756 2502.69V2502.69C128.098 2504.49 130.68 2504.91 132.522 2503.62L149.547 2491.75C151.389 2490.46 151.795 2487.96 150.453 2486.16V2486.16ZM106.43 2512.07C105.088 2510.27 105.493 2507.76 107.336 2506.48L109.685 2504.84C111.527 2503.56 114.109 2503.97 115.451 2505.77V2505.77C116.793 2507.58 116.388 2510.08 114.545 2511.36L112.196 2513C110.354 2514.29 107.772 2513.87 106.43 2512.07V2512.07ZM79.1689 2506.32C78.3076 2505.16 78.5678 2503.56 79.75 2502.73V2502.73C80.9322 2501.91 82.5888 2502.18 83.4501 2503.33L85.1914 2505.67C86.0527 2506.82 85.7925 2508.43 84.6103 2509.25V2509.25C83.4281 2510.08 81.7715 2509.81 80.9102 2508.65L79.1689 2506.32ZM57.9766 2498.59C56.6344 2496.79 54.053 2496.37 52.2107 2497.66L50.5712 2498.8C48.7289 2500.09 48.3234 2502.59 49.6656 2504.39V2504.39C51.0077 2506.19 53.5892 2506.61 55.4314 2505.33L57.071 2504.18C58.9133 2502.9 59.3187 2500.4 57.9766 2498.59V2498.59Z" fill="#FFBFC4" fill-opacity="0.4"/>
<g opacity="0.3">
<path fill-rule="evenodd" clip-rule="evenodd" d="M247.091 2394.33C248.746 2393.23 250.977 2393.38 252.427 2394.76V2394.76C254.329 2396.57 253.995 2399.57 251.823 2401.01L132.546 2480.13C130.665 2481.37 128.08 2480.89 126.773 2479.05V2479.05C125.466 2477.2 125.932 2474.69 127.813 2473.45L247.091 2394.33ZM262.241 2412.1C263.548 2413.95 263.083 2416.45 261.202 2417.7L161.833 2483.61C159.952 2484.86 157.367 2484.38 156.06 2482.53V2482.53C154.753 2480.69 155.219 2478.18 157.1 2476.93L256.469 2411.02C258.35 2409.77 260.934 2410.26 262.241 2412.1V2412.1ZM101.761 2472.72C103.068 2474.57 105.652 2475.05 107.533 2473.81L221.642 2398.12C223.523 2396.87 223.989 2394.36 222.682 2392.52V2392.52C221.375 2390.67 218.79 2390.19 216.909 2391.44L102.801 2467.13C100.919 2468.37 100.454 2470.88 101.761 2472.72V2472.72ZM192.916 2389.35C194.223 2391.2 193.757 2393.7 191.876 2394.95L74.2386 2472.98C72.3574 2474.23 69.7729 2473.74 68.4659 2471.9V2471.9C67.1589 2470.05 67.6245 2467.55 69.5057 2466.3L187.143 2388.27C189.024 2387.02 191.609 2387.51 192.916 2389.35V2389.35Z" fill="#FFBFC4"/>
</g>
<path opacity="0.8" fill-rule="evenodd" clip-rule="evenodd" d="M450.439 1911.1C452.292 1909.79 453.075 1907.04 452.188 1904.95L451.738 1903.89C450.851 1901.8 448.631 1901.17 446.779 1902.48V1902.48C444.926 1903.79 444.143 1906.54 445.029 1908.63L445.48 1909.69C446.366 1911.77 448.587 1912.41 450.439 1911.1V1911.1ZM475.967 1971.4C477.819 1970.09 478.602 1967.34 477.716 1965.25L460.08 1923.73C459.193 1921.65 456.973 1921.01 455.12 1922.32V1922.32C453.268 1923.63 452.485 1926.38 453.371 1928.47L471.007 1969.99C471.894 1972.07 474.114 1972.71 475.967 1971.4V1971.4ZM469.502 2005.75C471.355 2004.44 472.138 2001.69 471.251 1999.6L464.505 1983.72C463.618 1981.63 461.398 1981 459.545 1982.31V1982.31C457.693 1983.62 456.91 1986.37 457.796 1988.46L464.542 2004.34C465.429 2006.42 467.649 2007.06 469.502 2005.75V2005.75ZM450.263 2013.61C452.116 2012.3 454.336 2012.93 455.223 2015.02L462.712 2032.65C463.598 2034.74 462.815 2037.49 460.962 2038.8V2038.8C459.11 2040.1 456.889 2039.47 456.003 2037.39L448.514 2019.75C447.628 2017.67 448.411 2014.92 450.263 2013.61V2013.61ZM454.716 2072.35C456.568 2071.04 457.352 2068.29 456.465 2066.2L447.568 2045.26C446.682 2043.17 444.461 2042.54 442.609 2043.85V2043.85C440.756 2045.15 439.973 2047.91 440.86 2049.99L449.756 2070.94C450.643 2073.03 452.863 2073.66 454.716 2072.35V2072.35ZM436.672 2019.94C438.525 2018.63 440.745 2019.26 441.632 2021.35L443.03 2024.64C443.917 2026.73 443.134 2029.48 441.281 2030.79V2030.79C439.429 2032.09 437.208 2031.46 436.322 2029.37L434.923 2026.08C434.037 2024 434.82 2021.24 436.672 2019.94V2019.94ZM445.576 1990.01C446.838 1989.12 448.351 1989.55 448.955 1990.97V1990.97C449.559 1992.4 449.025 1994.27 447.763 1995.16L445.625 1996.67C444.363 1997.56 442.85 1997.13 442.246 1995.71V1995.71C441.642 1994.29 442.176 1992.41 443.438 1991.52L445.576 1990.01ZM455.75 1966.95C457.603 1965.64 458.386 1962.89 457.499 1960.8L456.463 1958.36C455.577 1956.28 453.356 1955.64 451.504 1956.95V1956.95C449.651 1958.26 448.868 1961.01 449.755 1963.1L450.791 1965.54C451.677 1967.63 453.898 1968.26 455.75 1966.95V1966.95Z" fill="#FFBFC4" fill-opacity="0.4"/>
<g opacity="0.3">
<path fill-rule="evenodd" clip-rule="evenodd" d="M526.849 2191.62C527.576 2193.44 527.107 2195.78 525.653 2197.24V2197.24C523.703 2199.19 520.986 2198.64 520.012 2196.2L462.622 2052.58C461.787 2050.5 462.641 2047.78 464.529 2046.51V2046.51C466.417 2045.25 468.624 2045.92 469.459 2048.01L526.849 2191.62ZM508.193 2206.38C506.305 2207.64 504.098 2206.97 503.263 2204.88L455.41 2085.13C454.575 2083.04 455.429 2080.33 457.317 2079.06V2079.06C459.205 2077.8 461.412 2078.47 462.247 2080.56L510.1 2200.31C510.935 2202.4 510.081 2205.11 508.193 2206.38V2206.38ZM473.79 2019.09C471.902 2020.35 471.048 2023.07 471.883 2025.16L526.798 2162.58C527.633 2164.67 529.841 2165.34 531.729 2164.08V2164.08C533.617 2162.81 534.47 2160.1 533.636 2158.01L478.72 2020.59C477.885 2018.5 475.678 2017.83 473.79 2019.09V2019.09ZM538.711 2130.95C536.823 2132.22 534.616 2131.55 533.781 2129.46L477.175 1987.81C476.34 1985.72 477.194 1983 479.082 1981.74V1981.74C480.97 1980.47 483.177 1981.14 484.012 1983.23L540.618 2124.88C541.453 2126.97 540.599 2129.69 538.711 2130.95V2130.95Z" fill="#FFBFC4"/>
</g>
<path d="M439.528 1286.66L394.802 1454.98C394.552 1455.92 395.657 1456.63 396.407 1456.01L439.859 1420.03C440.23 1419.72 440.768 1419.72 441.138 1420.03L484.093 1455.99C484.84 1456.61 485.95 1455.91 485.702 1454.96L441.462 1286.66C441.201 1285.67 439.792 1285.66 439.528 1286.66Z" stroke="#95F1F7" stroke-width="9"/>
<path d="M217.252 3737.6L281.287 3811.5C281.904 3812.21 283.075 3811.75 283.042 3810.81L281.71 3772.76C281.697 3772.39 281.89 3772.04 282.212 3771.85L314.952 3753.08C315.771 3752.61 315.543 3751.37 314.611 3751.22L218.164 3735.95C217.243 3735.81 216.641 3736.89 217.252 3737.6Z" stroke="#DED9FF" stroke-width="9"/>
</g>
<defs>
<clipPath id="clip0">
<rect width="560" height="3838" fill="white"/>
</clipPath>
</defs>
</svg>
