<svg width="1810" height="1978" viewBox="0 0 1810 1978" fill="none" xmlns="http://www.w3.org/2000/svg">
<g clip-path="url(#clip0)">
<path d="M790.057 270.058C821.308 300.145 852.163 330.111 886.285 359.17C930.211 396.577 986.275 444.064 1028.5 451.834C1082.31 461.734 1112.86 439.205 1144.52 426.722C1172.16 415.819 1204.91 397.887 1264.21 422.34C1353.68 459.229 1413.23 551.132 1464.26 611.372C1488.14 639.554 1527.41 684.181 1551.69 677.526" stroke="#E1D6FF" stroke-opacity="0.2" stroke-width="10" stroke-linecap="round" stroke-linejoin="round"/>
<path opacity="0.8" fill-rule="evenodd" clip-rule="evenodd" d="M664.595 394.899C663.252 393.098 660.671 392.68 658.829 393.965L658.336 394.309C656.493 395.594 656.088 398.096 657.43 399.897V399.897C658.772 401.698 661.354 402.116 663.196 400.831L663.689 400.488C665.531 399.202 665.937 396.701 664.595 394.899V394.899ZM714.735 360.02C713.393 358.219 710.811 357.801 708.969 359.086L674.839 382.893C672.997 384.179 672.592 386.68 673.934 388.482V388.482C675.276 390.283 677.857 390.701 679.7 389.416L713.829 365.609C715.671 364.323 716.077 361.822 714.735 360.02V360.02ZM745.522 362.481C744.18 360.68 741.598 360.261 739.756 361.546L726.94 370.486C725.098 371.771 724.692 374.273 726.035 376.074V376.074C727.377 377.876 729.958 378.294 731.8 377.009L744.616 368.069C746.459 366.784 746.864 364.282 745.522 362.481V362.481ZM754.446 381.92C753.104 380.119 753.509 377.617 755.351 376.332L769.621 366.378C771.463 365.093 774.044 365.512 775.386 367.313V367.313C776.729 369.114 776.323 371.616 774.481 372.901L760.212 382.855C758.369 384.14 755.788 383.722 754.446 381.92V381.92ZM805.453 369.643C804.11 367.842 801.529 367.424 799.687 368.709L782.662 380.585C780.819 381.87 780.414 384.372 781.756 386.173V386.173C783.098 387.974 785.68 388.393 787.522 387.108L804.547 375.232C806.389 373.946 806.795 371.445 805.453 369.643V369.643ZM761.43 395.554C760.088 393.753 760.493 391.251 762.336 389.966L764.685 388.327C766.527 387.042 769.109 387.46 770.451 389.261V389.261C771.793 391.062 771.388 393.564 769.545 394.849L767.196 396.488C765.354 397.773 762.772 397.355 761.43 395.554V395.554ZM734.169 389.804C733.308 388.648 733.568 387.043 734.75 386.218V386.218C735.932 385.394 737.589 385.662 738.45 386.818L740.191 389.155C741.053 390.311 740.793 391.916 739.61 392.741V392.741C738.428 393.566 736.772 393.297 735.91 392.141L734.169 389.804ZM712.977 382.081C711.634 380.28 709.053 379.861 707.211 381.146L705.571 382.29C703.729 383.575 703.323 386.077 704.666 387.878V387.878C706.008 389.679 708.589 390.098 710.431 388.813L712.071 387.669C713.913 386.384 714.319 383.882 712.977 382.081V382.081Z" fill="#E1D6FF" fill-opacity="0.4"/>
<g opacity="0.3">
<path fill-rule="evenodd" clip-rule="evenodd" d="M901.557 275.331C903.212 274.233 905.443 274.381 906.893 275.759V275.759C908.795 277.568 908.461 280.571 906.289 282.012L787.012 361.126C785.13 362.374 782.546 361.89 781.239 360.045V360.045C779.932 358.201 780.398 355.694 782.279 354.446L901.557 275.331ZM916.707 293.103C918.014 294.947 917.549 297.454 915.667 298.702L816.299 364.612C814.418 365.859 811.833 365.375 810.526 363.531V363.531C809.219 361.686 809.685 359.179 811.566 357.932L910.934 292.022C912.816 290.774 915.4 291.258 916.707 293.103V293.103ZM756.227 353.724C757.533 355.569 760.118 356.053 761.999 354.805L876.108 279.119C877.989 277.871 878.455 275.364 877.148 273.519V273.519C875.841 271.675 873.256 271.191 871.375 272.439L757.266 348.125C755.385 349.373 754.92 351.88 756.227 353.724V353.724ZM847.382 270.352C848.689 272.196 848.223 274.703 846.342 275.951L728.704 353.978C726.823 355.226 724.239 354.742 722.932 352.897V352.897C721.625 351.053 722.09 348.546 723.972 347.298L841.609 269.271C843.49 268.023 846.075 268.507 847.382 270.352V270.352Z" fill="#F5F2FF"/>
</g>
</g>
<defs>
<clipPath id="clip0">
<rect width="1810" height="1978" fill="white"/>
</clipPath>
</defs>
</svg>
