<svg width="1190" height="900" viewBox="0 0 1190 900" fill="none" xmlns="http://www.w3.org/2000/svg">
<g clip-path="url(#clip0)">
<path d="M350.879 824.8L310.031 730.221C300.841 708.945 282.027 693.349 259.416 688.265C232.223 682.151 203.858 691.316 185.383 712.185L135.691 768.321C122.951 782.712 108.389 795.38 92.3717 806.004L49.4531 834.472C20.322 853.794 1.16016 884.948 -2.94557 919.663L-18.3302 1049.74C-26.5673 1119.39 32.1583 1178.58 101.867 1170.89L137.113 1167C147.014 1165.91 156.603 1162.88 165.336 1158.09L252.985 1110C354.297 1054.42 396.698 930.886 350.879 824.8Z" fill="#BDB2FF"/>
</g>
<defs>
<clipPath id="clip0">
<rect width="1190" height="900" fill="white"/>
</clipPath>
</defs>
</svg>
