<svg width="309" height="309" viewBox="0 0 309 309" fill="none" xmlns="http://www.w3.org/2000/svg">
<path fill-rule="evenodd" clip-rule="evenodd" d="M224.574 237.085L76.3242 77.5435C73.6854 80.2204 71.2121 83.0029 68.9048 85.8778L215.718 243.873C218.754 241.783 221.711 239.52 224.574 237.085ZM208.555 248.404L63.8617 92.6896C61.6778 95.8942 59.6825 99.1919 57.8764 102.567L198.266 253.649C201.764 252.095 205.199 250.347 208.555 248.404ZM189.95 256.939L53.9861 110.619C52.3271 114.449 50.897 118.357 49.6968 122.322L177.964 260.359C182.006 259.453 186.009 258.313 189.95 256.939ZM168.197 262.087L47.2577 131.937C46.2919 136.629 45.6365 141.374 45.2927 146.14L153.888 263.006C158.666 263.013 163.447 262.707 168.197 262.087ZM141.888 262.332L45.0862 158.157C45.3244 164.483 46.1109 170.795 47.4486 177.018L123.251 258.594C129.358 260.384 135.597 261.631 141.888 262.332ZM105.361 251.581L53.1319 195.373C57.9673 207.17 64.9695 218.312 74.1605 228.203C83.3514 238.094 93.9504 245.894 105.361 251.581ZM230.712 231.452L82.3917 71.8341C85.2214 69.365 88.1453 67.0675 91.1501 64.9411L238.228 223.222C235.888 226.063 233.382 228.811 230.712 231.452ZM243.348 216.492C245.566 213.327 247.597 210.069 249.442 206.732L108.418 54.9661C104.955 56.5611 101.556 58.3485 98.2371 60.3287L243.348 216.492ZM116.644 51.5802L253.422 198.775C255.122 194.995 256.597 191.136 257.846 187.218L128.494 48.0144C124.496 48.9731 120.539 50.1614 116.644 51.5802ZM138.141 46.1569L260.405 177.734C261.431 173.117 262.154 168.445 262.574 163.748L152.248 45.0192C147.533 45.0939 142.82 45.4727 138.141 46.1569ZM164.037 45.4672L262.991 151.958C262.877 145.811 262.247 139.669 261.097 133.601L182.206 48.7013C176.239 47.1096 170.159 46.0307 164.037 45.4672ZM199.254 54.8086L256.255 116.151C251.412 103.054 243.956 90.6764 233.857 79.8088C223.759 68.9412 211.961 60.5981 199.254 54.8086Z" fill="#9E7BFF"/>
</svg>
