<svg width="1190" height="900" viewBox="0 0 1190 900" fill="none" xmlns="http://www.w3.org/2000/svg">
<g clip-path="url(#clip0)">
<path fill-rule="evenodd" clip-rule="evenodd" d="M184.574 338.085L36.3242 178.543C33.6854 181.22 31.2121 184.003 28.9048 186.878L175.718 344.873C178.754 342.783 181.711 340.52 184.574 338.085ZM168.555 349.404L23.8617 193.69C21.6778 196.894 19.6825 200.192 17.8764 203.567L158.266 354.649C161.764 353.095 165.199 351.347 168.555 349.404ZM149.95 357.939L13.9861 211.619C12.3271 215.449 10.897 219.357 9.69678 223.322L137.964 361.359C142.006 360.453 146.009 359.313 149.95 357.939ZM128.197 363.087L7.25774 232.937C6.29191 237.629 5.6365 242.374 5.29273 247.14L113.888 364.006C118.666 364.013 123.447 363.707 128.197 363.087ZM101.888 363.332L5.08618 259.157C5.32441 265.483 6.11093 271.795 7.44856 278.018L83.2506 359.594C89.3585 361.384 95.5966 362.631 101.888 363.332ZM65.3611 352.581L13.1319 296.373C17.9673 308.17 24.9695 319.312 34.1605 329.203C43.3514 339.094 53.9504 346.894 65.3611 352.581ZM190.712 332.452L42.3917 172.834C45.2214 170.365 48.1453 168.068 51.1501 165.941L198.228 324.222C195.888 327.063 193.382 329.811 190.712 332.452ZM203.348 317.492C205.566 314.327 207.597 311.069 209.442 307.732L68.4178 155.966C64.9546 157.561 61.5558 159.348 58.2371 161.329L203.348 317.492ZM76.6443 152.58L213.422 299.775C215.122 295.995 216.597 292.136 217.846 288.218L88.4945 149.014C84.4957 149.973 80.5387 151.161 76.6443 152.58ZM98.1413 147.157L220.405 278.734C221.431 274.117 222.154 269.445 222.574 264.748L112.248 146.019C107.533 146.094 102.82 146.473 98.1413 147.157ZM124.037 146.467L222.991 252.958C222.877 246.811 222.247 240.669 221.097 234.601L142.206 149.701C136.239 148.11 130.159 147.031 124.037 146.467ZM159.254 155.809L216.255 217.151C211.412 204.054 203.956 191.676 193.857 180.809C183.759 169.941 171.961 161.598 159.254 155.809Z" fill="#BDB2FF"/>
</g>
<defs>
<clipPath id="clip0">
<rect width="1190" height="900" fill="white"/>
</clipPath>
</defs>
</svg>
