<svg width="1190" height="900" viewBox="0 0 1190 900" fill="none" xmlns="http://www.w3.org/2000/svg">
<g clip-path="url(#clip0)">
<path fill-rule="evenodd" clip-rule="evenodd" d="M203.629 137.669C205.132 136.302 206.581 134.87 207.974 133.372C208.967 132.304 209.925 131.209 210.848 130.09L-172.63 -226.492C-173.68 -225.491 -174.702 -224.456 -175.695 -223.387C-177.088 -221.889 -178.411 -220.34 -179.665 -218.742L203.629 137.669ZM192.27 146.162L-187.311 -206.797C-188.991 -203.532 -190.452 -200.124 -191.698 -196.584L182.402 151.278C185.843 149.779 189.136 148.074 192.27 146.162ZM167.336 156.324L-195.636 -181.191C-196.348 -176.995 -196.815 -172.662 -197.042 -168.207L154.488 158.668C158.916 158.118 163.203 157.338 167.336 156.324ZM135.036 159.636L-196.595 -148.735C-196.105 -143.369 -195.32 -137.871 -194.249 -132.262L118.436 158.492C124.108 159.153 129.648 159.536 135.036 159.636ZM92.9746 153.872L-187.793 -107.204C-185.493 -100.034 -182.783 -92.7423 -179.675 -85.363L70.6023 147.36C78.1877 149.924 85.6573 152.098 92.9746 153.872ZM33.9525 132.336L-162.03 -49.9004C-155.177 -37.9317 -147.378 -25.8845 -138.683 -13.8993L-3.64841 111.664C8.93634 119.466 21.5178 126.37 33.9525 132.336ZM-161.522 -235.218L218.745 118.377C220.489 115.175 222.015 111.828 223.328 108.348L-151.851 -240.518C-155.227 -238.956 -158.454 -237.19 -161.522 -235.218ZM-137.066 -245.825L227.548 93.2159C228.334 89.0924 228.878 84.8314 229.185 80.4465L-124.449 -248.384C-128.8 -247.76 -133.01 -246.908 -137.066 -245.825ZM-105.347 -249.677L229.088 61.301C228.696 56.0314 228.015 50.6304 227.052 45.1169L-89.0577 -248.822C-94.6265 -249.382 -100.063 -249.669 -105.347 -249.677ZM-64.122 -244.691L221.122 20.5468C218.99 13.5478 216.462 6.42517 213.548 -0.787517L-42.2941 -238.685C-49.6993 -241.068 -56.9867 -243.073 -64.122 -244.691ZM-6.85514 -224.787L197.114 -35.1241C190.892 -46.402 183.822 -57.7671 175.943 -69.1013L28.5692 -206.139C16.693 -213.174 4.84458 -219.401 -6.85514 -224.787Z" fill="#7F6DEE"/>
</g>
<defs>
<clipPath id="clip0">
<rect width="1190" height="900" fill="white"/>
</clipPath>
</defs>
</svg>
