<svg width="558" height="485" viewBox="0 0 558 485" fill="none" xmlns="http://www.w3.org/2000/svg">
<path fill-rule="evenodd" clip-rule="evenodd" d="M466.629 394.669C468.132 393.302 469.581 391.87 470.974 390.372C471.967 389.304 472.925 388.209 473.848 387.09L90.3698 30.5078C89.3203 31.5092 88.2984 32.5441 87.3048 33.6126C85.9117 35.1108 84.5886 36.6598 83.3347 38.2577L466.629 394.669ZM455.27 403.162L75.6888 50.2035C74.0089 53.4677 72.5481 56.8756 71.3024 60.4163L445.402 408.278C448.843 406.779 452.136 405.074 455.27 403.162ZM430.336 413.324L67.3636 75.8091C66.6521 80.0048 66.1851 84.3375 65.9577 88.7934L417.488 415.668C421.916 415.118 426.203 414.338 430.336 413.324ZM398.036 416.636L66.4048 108.265C66.8952 113.631 67.6797 119.129 68.7511 124.738L381.436 415.492C387.108 416.153 392.648 416.536 398.036 416.636ZM355.975 410.872L75.207 149.796C77.5071 156.966 80.2174 164.258 83.3255 171.637L333.602 404.36C341.188 406.924 348.657 409.098 355.975 410.872ZM296.952 389.336L100.97 207.1C107.823 219.068 115.622 231.115 124.317 243.101L259.352 368.664C271.936 376.466 284.518 383.37 296.952 389.336ZM101.478 21.7817L481.745 375.377C483.489 372.175 485.015 368.828 486.328 365.348L111.149 16.4824C107.773 18.0441 104.546 19.8095 101.478 21.7817ZM125.934 11.1754L490.548 350.216C491.334 346.092 491.878 341.831 492.185 337.447L138.551 8.61588C134.2 9.24008 129.99 10.092 125.934 11.1754ZM157.653 7.32277L492.088 318.301C491.696 313.031 491.015 307.63 490.052 302.117L173.942 8.17787C168.373 7.61755 162.937 7.33073 157.653 7.32277ZM198.878 12.3093L484.122 277.547C481.99 270.548 479.462 263.425 476.548 256.212L220.706 18.3146C213.301 15.9319 206.013 13.927 198.878 12.3093ZM256.145 32.2126L460.114 221.876C453.892 210.598 446.822 199.233 438.943 187.899L291.569 50.8608C279.693 43.8262 267.845 37.5991 256.145 32.2126Z" fill="#7C55EA"/>
</svg>
