<svg width="458" height="437" viewBox="0 0 458 437" fill="none" xmlns="http://www.w3.org/2000/svg">
<path fill-rule="evenodd" clip-rule="evenodd" d="M356.547 212.724C356.631 213.922 356.7 215.125 356.753 216.333C360.139 293.302 299.519 358.486 221.353 361.925C143.187 365.364 77.076 305.756 73.6894 228.787C70.3029 151.818 130.923 86.634 209.089 83.1948C225.272 82.4828 240.938 84.4731 255.638 88.7602L256.413 106.382C241.684 101.143 225.692 98.5992 209.076 99.3303C140.88 102.331 87.9983 159.351 90.9611 226.689C93.9239 294.027 151.609 346.183 219.805 343.182C288.001 340.182 340.882 283.161 337.919 215.823C337.886 215.063 337.846 214.305 337.798 213.549L356.547 212.724Z" fill="#BDB2FF" fill-opacity="0.4"/>
<path d="M323.352 110.842L286.146 95.2669L317.386 67.8736C325.883 60.4223 338.428 59.9093 347.506 66.6417L353.484 71.0753L374.662 67.3692L378.588 89.8061L357.41 93.5121L353.591 100.374C347.648 111.054 334.627 115.562 323.352 110.842Z" stroke="#BDB2FF" stroke-opacity="0.4" stroke-width="7"/>
<circle cx="330.443" cy="87.3459" r="7" transform="rotate(-99.9259 330.443 87.3459)" fill="#BDB2FF" fill-opacity="0.4"/>
<line x1="288.087" y1="94.7581" x2="337.338" y2="86.1394" stroke="#BDB2FF" stroke-opacity="0.4" stroke-width="5"/>
</svg>
