<svg width="1045" height="837" viewBox="0 0 1045 837" fill="none" xmlns="http://www.w3.org/2000/svg">
<path fill-rule="evenodd" clip-rule="evenodd" d="M462.27 76.3541C464.193 83.8931 459.641 91.5642 452.102 93.4879C444.563 95.4116 436.892 90.8594 434.968 83.3203C433.045 75.7813 437.597 68.1102 445.136 66.1865C452.675 64.2628 460.346 68.815 462.27 76.3541ZM447.159 131.098C449.083 138.637 444.531 146.308 436.992 148.231C429.453 150.155 421.782 145.603 419.858 138.064C417.934 130.525 422.486 122.854 430.025 120.93C437.565 119.006 445.236 123.559 447.159 131.098ZM490.724 130.886C498.263 128.963 502.815 121.292 500.891 113.753C498.968 106.214 491.297 101.661 483.757 103.585C476.218 105.509 471.666 113.18 473.59 120.719C475.514 128.258 483.185 132.81 490.724 130.886ZM558.318 153.622C560.241 161.162 555.689 168.833 548.15 170.756C540.611 172.68 532.94 168.128 531.016 160.589C529.093 153.05 533.645 145.379 541.184 143.455C548.723 141.531 556.394 146.083 558.318 153.622ZM472.022 179.475C478.152 184.268 487.005 183.184 491.798 177.055C496.591 170.925 495.507 162.071 489.377 157.279C483.248 152.486 474.394 153.57 469.602 159.699C464.809 165.829 465.893 174.683 472.022 179.475ZM551.704 198.928C553.627 206.468 549.075 214.139 541.536 216.062C533.997 217.986 526.326 213.434 524.402 205.895C522.479 198.356 527.031 190.685 534.57 188.761C542.109 186.837 549.78 191.389 551.704 198.928ZM400.675 233.83C408.214 231.906 412.766 224.235 410.843 216.696C408.919 209.157 401.248 204.605 393.709 206.529C386.17 208.452 381.618 216.123 383.541 223.663C385.465 231.202 393.136 235.754 400.675 233.83ZM438.003 180.687C439.927 188.226 435.375 195.897 427.836 197.821C420.297 199.745 412.626 195.193 410.702 187.653C408.778 180.114 413.331 172.443 420.87 170.52C428.409 168.596 436.08 173.148 438.003 180.687ZM402.646 412.717C395.305 415.297 391.447 423.339 394.027 430.68C396.608 438.02 404.65 441.878 411.99 439.298C419.33 436.718 423.189 428.675 420.609 421.335C418.028 413.995 409.986 410.136 402.646 412.717ZM424.53 379.278C421.949 371.938 425.808 363.896 433.148 361.315C440.488 358.735 448.531 362.593 451.111 369.933C453.692 377.274 449.833 385.316 442.493 387.896C435.153 390.477 427.11 386.618 424.53 379.278ZM371.579 347.946C364.239 350.527 360.38 358.569 362.961 365.909C365.541 373.25 373.584 377.108 380.924 374.528C388.264 371.947 392.123 363.905 389.542 356.565C386.962 349.224 378.919 345.366 371.579 347.946ZM406.314 322.134C403.733 314.793 407.592 306.751 414.932 304.17C422.273 301.59 430.315 305.449 432.895 312.789C435.476 320.129 431.617 328.171 424.277 330.752C416.937 333.332 408.894 329.474 406.314 322.134ZM479.184 342.299C471.844 344.879 467.985 352.922 470.566 360.262C473.146 367.602 481.188 371.461 488.529 368.88C495.869 366.3 499.727 358.257 497.147 350.917C494.566 343.577 486.524 339.718 479.184 342.299ZM360.067 297.585C357.486 290.245 361.345 282.203 368.685 279.622C376.025 277.042 384.068 280.901 386.648 288.241C389.228 295.581 385.37 303.623 378.03 306.204C370.689 308.784 362.647 304.926 360.067 297.585ZM442.752 228.009C435.412 230.59 431.553 238.632 434.134 245.972C436.714 253.313 444.756 257.171 452.097 254.591C459.437 252.01 463.296 243.968 460.715 236.628C458.135 229.288 450.092 225.429 442.752 228.009ZM443.783 298.033C441.202 290.693 445.061 282.651 452.401 280.07C459.741 277.49 467.784 281.349 470.364 288.689C472.945 296.029 469.086 304.071 461.746 306.652C454.406 309.232 446.363 305.374 443.783 298.033ZM582.138 361.672C574.798 364.252 570.94 372.295 573.52 379.635C576.1 386.975 584.143 390.834 591.483 388.253C598.823 385.673 602.682 377.631 600.101 370.29C597.521 362.95 589.479 359.091 582.138 361.672ZM583.184 331.526C580.603 324.186 584.462 316.143 591.802 313.563C599.142 310.983 607.185 314.841 609.765 322.181C612.346 329.522 608.487 337.564 601.147 340.144C593.807 342.725 585.764 338.866 583.184 331.526ZM531.245 332.65C523.905 335.23 520.046 343.273 522.626 350.613C525.207 357.953 533.249 361.812 540.589 359.231C547.93 356.651 551.788 348.608 549.208 341.268C546.627 333.928 538.585 330.069 531.245 332.65ZM497.585 295.21C495.005 287.869 498.863 279.827 506.204 277.247C513.544 274.666 521.586 278.525 524.167 285.865C526.747 293.205 522.888 301.248 515.548 303.828C508.208 306.408 500.166 302.55 497.585 295.21ZM634.355 280.896C627.015 283.477 623.156 291.519 625.736 298.859C628.317 306.2 636.359 310.058 643.699 307.478C651.04 304.897 654.898 296.855 652.318 289.515C649.737 282.174 641.695 278.316 634.355 280.896ZM559.673 239.384C557.092 232.044 560.951 224.001 568.291 221.421C575.631 218.84 583.674 222.699 586.254 230.039C588.835 237.38 584.976 245.422 577.636 248.002C570.295 250.583 562.253 246.724 559.673 239.384ZM492.201 208.123C484.86 210.703 481.002 218.745 483.582 226.086C486.163 233.426 494.205 237.284 501.545 234.704C508.885 232.124 512.744 224.081 510.164 216.741C507.583 209.401 499.541 205.542 492.201 208.123ZM613.55 238.63C610.969 231.29 614.828 223.248 622.168 220.667C629.508 218.087 637.551 221.945 640.131 229.286C642.711 236.626 638.853 244.668 631.513 247.249C624.172 249.829 616.13 245.971 613.55 238.63ZM563.419 273.552C556.078 276.133 552.22 284.175 554.8 291.515C557.381 298.856 565.423 302.714 572.763 300.134C580.103 297.553 583.962 289.511 581.382 282.171C578.801 274.83 570.759 270.972 563.419 273.552ZM369.242 604.207C366.662 596.867 370.52 588.825 377.861 586.244C385.201 583.664 393.243 587.522 395.824 594.863C398.404 602.203 394.546 610.245 387.205 612.826C379.865 615.406 371.823 611.547 369.242 604.207ZM348.536 528.299C341.196 530.88 337.337 538.922 339.918 546.262C342.498 553.603 350.54 557.461 357.881 554.881C365.221 552.3 369.079 544.258 366.499 536.918C363.919 529.577 355.876 525.719 348.536 528.299ZM260.485 548.356C257.905 541.016 261.763 532.973 269.103 530.393C276.444 527.813 284.486 531.671 287.066 539.011C289.647 546.352 285.788 554.394 278.448 556.974C271.108 559.555 263.065 555.696 260.485 548.356ZM333.521 426.719C326.181 429.3 322.322 437.342 324.903 444.682C327.483 452.023 335.526 455.881 342.866 453.301C350.206 450.72 354.065 442.678 351.484 435.338C348.904 427.998 340.862 424.139 333.521 426.719ZM423.281 474.103C420.701 466.763 424.559 458.72 431.9 456.14C439.24 453.56 447.282 457.418 449.863 464.758C452.443 472.099 448.585 480.141 441.244 482.721C433.904 485.302 425.862 481.443 423.281 474.103ZM377.227 455.551C369.886 458.131 366.028 466.174 368.608 473.514C371.189 480.854 379.231 484.713 386.571 482.132C393.911 479.552 397.77 471.51 395.19 464.169C392.609 456.829 384.567 452.971 377.227 455.551ZM296.942 491.8C294.362 484.46 298.22 476.418 305.561 473.837C312.901 471.257 320.943 475.116 323.524 482.456C326.104 489.796 322.245 497.838 314.905 500.419C307.565 502.999 299.523 499.141 296.942 491.8ZM594.505 694.534C587.164 697.114 583.306 705.156 585.886 712.497C588.467 719.837 596.509 723.695 603.849 721.115C611.189 718.535 615.048 710.492 612.468 703.152C609.887 695.812 601.845 691.953 594.505 694.534ZM556.421 625.509C553.84 618.168 557.699 610.126 565.039 607.546C572.379 604.965 580.422 608.824 583.002 616.164C585.582 623.504 581.724 631.547 574.384 634.127C567.043 636.708 559.001 632.849 556.421 625.509ZM505.378 459.2C498.038 461.781 494.179 469.823 496.76 477.163C499.34 484.504 507.382 488.362 514.723 485.782C522.063 483.201 525.921 475.159 523.341 467.819C520.76 460.478 512.718 456.62 505.378 459.2ZM504.878 565.963C502.298 558.623 506.156 550.581 513.497 548C520.837 545.42 528.879 549.278 531.46 556.619C534.04 563.959 530.182 572.001 522.841 574.582C515.501 577.162 507.459 573.303 504.878 565.963ZM474.946 525.123C467.605 527.704 463.747 535.746 466.327 543.086C468.908 550.426 476.95 554.285 484.29 551.705C491.631 549.124 495.489 541.082 492.909 533.742C490.328 526.401 482.286 522.543 474.946 525.123ZM542.347 541.863C539.767 534.523 543.625 526.481 550.966 523.9C558.306 521.32 566.348 525.178 568.929 532.519C571.509 539.859 567.65 547.901 560.31 550.482C552.97 553.062 544.928 549.203 542.347 541.863ZM582.128 432.347C574.788 434.928 570.929 442.97 573.509 450.31C576.09 457.65 584.132 461.509 591.472 458.928C598.813 456.348 602.671 448.306 600.091 440.965C597.51 433.625 589.468 429.767 582.128 432.347ZM471.718 421.76C469.138 414.42 472.996 406.378 480.337 403.797C487.677 401.217 495.719 405.075 498.3 412.416C500.88 419.756 497.021 427.798 489.681 430.379C482.341 432.959 474.299 429.101 471.718 421.76ZM648.358 350.02C641.017 352.601 637.159 360.643 639.739 367.983C642.32 375.324 650.362 379.182 657.702 376.602C665.043 374.021 668.901 365.979 666.321 358.639C663.74 351.298 655.698 347.44 648.358 350.02ZM528.133 429.175C525.552 421.834 529.411 413.792 536.751 411.212C544.091 408.631 552.134 412.49 554.714 419.83C557.295 427.17 553.436 435.213 546.096 437.793C538.756 440.373 530.713 436.515 528.133 429.175ZM721.669 494.883C714.329 497.463 710.471 505.505 713.051 512.846C715.632 520.186 723.674 524.044 731.014 521.464C738.354 518.883 742.213 510.841 739.632 503.501C737.052 496.161 729.01 492.302 721.669 494.883ZM668.851 477.936C666.27 470.596 670.129 462.553 677.469 459.973C684.809 457.393 692.852 461.251 695.432 468.591C698.013 475.932 694.154 483.974 686.814 486.554C679.474 489.135 671.431 485.276 668.851 477.936ZM630.705 409.047C623.365 411.628 619.507 419.67 622.087 427.01C624.668 434.351 632.71 438.209 640.05 435.629C647.39 433.048 651.249 425.006 648.669 417.666C646.088 410.325 638.046 406.467 630.705 409.047ZM731.074 400.062C728.493 392.722 732.352 384.679 739.692 382.099C747.032 379.519 755.075 383.377 757.655 390.717C760.236 398.058 756.377 406.1 749.037 408.68C741.696 411.261 733.654 407.402 731.074 400.062ZM696.316 386.148C688.976 388.728 685.117 396.771 687.697 404.111C690.278 411.451 698.32 415.31 705.66 412.729C713.001 410.149 716.859 402.106 714.279 394.766C711.698 387.426 703.656 383.567 696.316 386.148ZM761.065 373.374C758.485 366.034 762.343 357.992 769.684 355.411C777.024 352.831 785.066 356.689 787.647 364.03C790.227 371.37 786.368 379.412 779.028 381.993C771.688 384.573 763.646 380.714 761.065 373.374ZM773.141 539.907C765.801 542.487 761.942 550.529 764.523 557.87C767.103 565.21 775.146 569.069 782.486 566.488C789.826 563.908 793.685 555.865 791.104 548.525C788.524 541.185 780.482 537.326 773.141 539.907ZM722.137 448.735C719.556 441.394 723.415 433.352 730.755 430.772C738.095 428.191 746.138 432.05 748.718 439.39C751.299 446.73 747.44 454.773 740.1 457.353C732.759 459.934 724.717 456.075 722.137 448.735ZM636.141 473.088C628.801 475.668 624.943 483.711 627.523 491.051C630.103 498.391 638.146 502.25 645.486 499.669C652.826 497.089 656.685 489.046 654.104 481.706C651.524 474.366 643.482 470.507 636.141 473.088ZM712.135 324.067C709.555 316.726 713.413 308.684 720.754 306.104C728.094 303.523 736.136 307.382 738.717 314.722C741.297 322.062 737.438 330.105 730.098 332.685C722.758 335.265 714.716 331.407 712.135 324.067ZM681.332 279.814C673.992 282.394 670.133 290.437 672.713 297.777C675.294 305.117 683.336 308.976 690.676 306.395C698.017 303.815 701.875 295.773 699.295 288.432C696.714 281.092 688.672 277.234 681.332 279.814ZM425.351 525.439C428.346 532.62 424.953 540.87 417.772 543.865C410.591 546.86 402.341 543.467 399.346 536.286C396.351 529.105 399.744 520.855 406.925 517.86C414.106 514.865 422.356 518.258 425.351 525.439ZM520.519 644.868C527.7 641.873 531.093 633.623 528.098 626.442C525.103 619.261 516.853 615.868 509.672 618.863C502.491 621.858 499.098 630.108 502.093 637.289C505.088 644.47 513.338 647.863 520.519 644.868ZM469.801 583.16C472.796 590.34 469.403 598.59 462.222 601.585C455.041 604.58 446.791 601.187 443.796 594.006C440.801 586.825 444.194 578.576 451.375 575.58C458.556 572.585 466.805 575.978 469.801 583.16ZM422.281 644.49C429.462 641.495 432.855 633.245 429.86 626.064C426.865 618.883 418.616 615.49 411.435 618.485C404.254 621.481 400.86 629.73 403.856 636.911C406.851 644.092 415.1 647.485 422.281 644.49ZM479.45 635.22C482.445 642.401 479.052 650.651 471.871 653.646C464.69 656.641 456.44 653.248 453.445 646.067C450.45 638.886 453.843 630.636 461.024 627.641C468.205 624.646 476.454 628.039 479.45 635.22ZM458.502 715.215C465.683 712.22 469.076 703.97 466.081 696.789C463.086 689.608 454.836 686.215 447.655 689.21C440.474 692.205 437.081 700.455 440.076 707.636C443.071 714.817 451.321 718.21 458.502 715.215ZM456.854 731.857C459.85 739.038 456.456 747.288 449.275 750.283C442.094 753.278 433.845 749.885 430.85 742.704C427.855 735.523 431.248 727.273 438.429 724.278C445.61 721.283 453.859 724.676 456.854 731.857ZM508.962 727.784C516.143 724.788 519.536 716.539 516.541 709.358C513.546 702.177 505.296 698.784 498.115 701.779C490.934 704.774 487.541 713.023 490.536 720.204C493.532 727.385 501.781 730.779 508.962 727.784ZM606.026 490.242C609.021 497.423 605.628 505.673 598.447 508.668C591.266 511.663 583.016 508.27 580.021 501.089C577.026 493.908 580.419 485.659 587.6 482.663C594.781 479.668 603.03 483.061 606.026 490.242ZM737.988 571.204C745.169 568.208 748.563 559.959 745.567 552.778C742.572 545.597 734.323 542.204 727.142 545.199C719.961 548.194 716.568 556.444 719.563 563.625C722.558 570.806 730.807 574.199 737.988 571.204ZM616.545 545.716C619.541 552.897 616.147 561.146 608.966 564.142C601.785 567.137 593.536 563.743 590.541 556.563C587.545 549.381 590.939 541.132 598.12 538.137C605.301 535.142 613.55 538.535 616.545 545.716ZM672.136 555.293C679.317 552.298 682.71 544.048 679.715 536.867C676.72 529.686 668.47 526.293 661.289 529.288C654.108 532.283 650.715 540.533 653.71 547.714C656.706 554.895 664.955 558.288 672.136 555.293ZM562.506 675.82C565.501 683.001 562.108 691.251 554.927 694.246C547.746 697.241 539.497 693.848 536.502 686.667C533.506 679.486 536.9 671.236 544.081 668.241C551.262 665.246 559.511 668.639 562.506 675.82ZM647.588 601.54C654.769 598.545 658.162 590.295 655.167 583.114C652.172 575.933 643.922 572.54 636.741 575.535C629.56 578.531 626.167 586.78 629.162 593.961C632.157 601.142 640.407 604.535 647.588 601.54ZM803.89 425.216C806.885 432.397 803.492 440.646 796.311 443.641C789.13 446.637 780.881 443.243 777.885 436.062C774.89 428.881 778.283 420.632 785.464 417.637C792.645 414.641 800.895 418.035 803.89 425.216ZM829.805 419.672C836.986 416.677 840.38 408.428 837.384 401.247C834.389 394.066 826.14 390.672 818.959 393.668C811.778 396.663 808.385 404.912 811.38 412.093C814.375 419.274 822.624 422.667 829.805 419.672ZM883.727 439.159C886.722 446.34 883.329 454.59 876.148 457.585C868.967 460.58 860.717 457.187 857.722 450.006C854.727 442.825 858.12 434.575 865.301 431.58C872.482 428.585 880.731 431.978 883.727 439.159ZM778.659 502.668C785.84 499.673 789.233 491.424 786.238 484.243C783.242 477.062 774.993 473.669 767.812 476.664C760.631 479.659 757.238 487.908 760.233 495.089C763.228 502.27 771.478 505.664 778.659 502.668ZM860.516 476.194C863.511 483.375 860.118 491.625 852.937 494.62C845.756 497.615 837.507 494.222 834.511 487.041C831.516 479.86 834.909 471.611 842.09 468.615C849.271 465.62 857.521 469.013 860.516 476.194ZM908.622 527.665C915.803 524.669 919.196 516.42 916.201 509.239C913.206 502.058 904.956 498.665 897.775 501.66C890.594 504.655 887.201 512.904 890.196 520.085C893.191 527.266 901.441 530.66 908.622 527.665ZM848.3 599.262C851.295 606.443 847.902 614.692 840.721 617.687C833.54 620.683 825.29 617.289 822.295 610.108C819.3 602.927 822.693 594.678 829.874 591.683C837.055 588.688 845.305 592.081 848.3 599.262ZM818.471 538.883C825.652 535.888 829.045 527.639 826.05 520.458C823.054 513.277 814.805 509.883 807.624 512.878C800.443 515.874 797.05 524.123 800.045 531.304C803.04 538.485 811.29 541.878 818.471 538.883ZM949.696 485.27C952.691 492.451 949.297 500.7 942.116 503.696C934.935 506.691 926.686 503.297 923.691 496.116C920.696 488.935 924.089 480.686 931.27 477.691C938.451 474.696 946.7 478.089 949.696 485.27ZM982.17 545.246C989.351 542.251 992.745 534.002 989.75 526.821C986.754 519.64 978.505 516.247 971.324 519.242C964.143 522.237 960.75 530.486 963.745 537.667C966.74 544.848 974.99 548.242 982.17 545.246ZM955.693 550.05C958.688 557.231 955.295 565.481 948.114 568.476C940.933 571.471 932.684 568.078 929.689 560.897C926.693 553.716 930.087 545.466 937.268 542.471C944.449 539.476 952.698 542.869 955.693 550.05ZM884.44 584.994C891.621 581.999 895.014 573.749 892.019 566.568C889.023 559.388 880.774 555.994 873.593 558.989C866.412 561.985 863.019 570.234 866.014 577.415C869.009 584.596 877.259 587.989 884.44 584.994ZM996.056 594.274C999.052 601.455 995.658 609.704 988.477 612.699C981.296 615.695 973.047 612.301 970.052 605.12C967.057 597.939 970.45 589.69 977.631 586.695C984.812 583.7 993.061 587.093 996.056 594.274ZM1031.17 609.075C1038.35 606.08 1041.74 597.831 1038.75 590.65C1035.75 583.469 1027.51 580.076 1020.32 583.071C1013.14 586.066 1009.75 594.315 1012.75 601.496C1015.74 608.677 1023.99 612.071 1031.17 609.075ZM896.218 616.114C899.213 623.295 895.82 631.544 888.639 634.539C881.458 637.535 873.209 634.141 870.213 626.96C867.218 619.779 870.611 611.53 877.792 608.535C884.973 605.54 893.223 608.933 896.218 616.114ZM930.782 622.906C937.963 619.911 941.356 611.662 938.361 604.481C935.365 597.3 927.116 593.906 919.935 596.902C912.754 599.897 909.361 608.146 912.356 615.327C915.351 622.508 923.601 625.902 930.782 622.906ZM641.478 686.071C646.59 680.206 655.489 679.595 661.355 684.708C667.22 689.82 667.83 698.719 662.718 704.585C657.606 710.45 648.706 711.06 642.841 705.948C636.976 700.835 636.366 691.936 641.478 686.071ZM712.68 668.706C706.814 663.594 697.915 664.204 692.803 670.07C687.69 675.935 688.301 684.834 694.166 689.946C700.031 695.059 708.93 694.449 714.043 688.583C719.155 682.718 718.545 673.819 712.68 668.706ZM653.218 621.102C658.331 615.237 667.23 614.626 673.095 619.739C678.96 624.851 679.571 633.75 674.458 639.615C669.346 645.481 660.447 646.091 654.582 640.979C648.716 635.866 648.106 626.967 653.218 621.102ZM627.059 638.755C621.194 633.643 612.295 634.253 607.182 640.118C602.07 645.984 602.68 654.883 608.546 659.995C614.411 665.107 623.31 664.497 628.423 658.632C633.535 652.766 632.925 643.867 627.059 638.755ZM760.093 641.085C765.206 635.219 774.105 634.609 779.97 639.721C785.835 644.834 786.446 653.733 781.333 659.598C776.221 665.463 767.322 666.074 761.457 660.961C755.591 655.849 754.981 646.95 760.093 641.085ZM754.999 598.84C749.134 593.728 740.235 594.338 735.122 600.203C730.01 606.068 730.62 614.968 736.486 620.08C742.351 625.192 751.25 624.582 756.362 618.717C761.475 612.851 760.864 603.952 754.999 598.84ZM352.622 639.645C357.734 633.779 366.633 633.169 372.498 638.281C378.364 643.394 378.974 652.293 373.862 658.158C368.749 664.023 359.85 664.634 353.985 659.521C348.119 654.409 347.509 645.51 352.622 639.645ZM835.514 643.723C829.649 638.611 820.75 639.221 815.637 645.086C810.525 650.951 811.135 659.851 817 664.963C822.866 670.075 831.765 669.465 836.877 663.6C841.99 657.734 841.379 648.835 835.514 643.723ZM689.887 608.111C694.999 602.245 703.898 601.635 709.764 606.747C715.629 611.86 716.239 620.759 711.127 626.624C706.015 632.489 697.115 633.1 691.25 627.987C685.385 622.875 684.775 613.976 689.887 608.111ZM235.887 786.664C230.021 781.552 221.122 782.162 216.01 788.027C210.897 793.893 211.508 802.792 217.373 807.904C223.238 813.017 232.138 812.406 237.25 806.541C242.362 800.676 241.752 791.777 235.887 786.664ZM267.335 772.026C272.447 766.161 281.346 765.55 287.211 770.663C293.077 775.775 293.687 784.674 288.575 790.539C283.462 796.405 274.563 797.015 268.698 791.903C262.833 786.79 262.222 777.891 267.335 772.026ZM186.236 805.759C180.371 800.646 171.472 801.257 166.359 807.122C161.247 812.987 161.857 821.886 167.722 826.999C173.588 832.111 182.487 831.501 187.599 825.636C192.712 819.77 192.101 810.871 186.236 805.759ZM207.548 669.392C212.66 663.527 221.559 662.917 227.425 668.029C233.29 673.141 233.9 682.04 228.788 687.906C223.676 693.771 214.776 694.381 208.911 689.269C203.046 684.157 202.436 675.258 207.548 669.392ZM209.843 741.577C203.977 736.465 195.078 737.075 189.966 742.941C184.854 748.806 185.464 757.705 191.329 762.817C197.194 767.93 206.094 767.32 211.206 761.454C216.318 755.589 215.708 746.69 209.843 741.577ZM325.884 762.783C330.996 756.917 339.895 756.307 345.761 761.419C351.626 766.532 352.236 775.431 347.124 781.296C342.012 787.162 333.112 787.772 327.247 782.659C321.382 777.547 320.771 768.648 325.884 762.783ZM306.676 726.891C300.81 721.778 291.911 722.388 286.799 728.254C281.686 734.119 282.297 743.018 288.162 748.131C294.027 753.243 302.926 752.633 308.039 746.767C313.151 740.902 312.541 732.003 306.676 726.891ZM370.178 736.941C375.29 731.076 384.19 730.465 390.055 735.578C395.92 740.69 396.53 749.589 391.418 755.454C386.306 761.32 377.407 761.93 371.541 756.818C365.676 751.705 365.066 742.806 370.178 736.941ZM345.066 704.287C339.201 699.175 330.302 699.785 325.189 705.651C320.077 711.516 320.687 720.415 326.553 725.527C332.418 730.64 341.317 730.029 346.429 724.164C351.542 718.299 350.932 709.4 345.066 704.287ZM298.749 627.947C303.861 622.082 312.76 621.471 318.626 626.584C324.491 631.696 325.101 640.595 319.989 646.46C314.876 652.326 305.977 652.936 300.112 647.824C294.247 642.711 293.636 633.812 298.749 627.947ZM343.174 580.337C337.308 575.224 328.409 575.834 323.297 581.7C318.184 587.565 318.795 596.464 324.66 601.577C330.525 606.689 339.424 606.079 344.537 600.213C349.649 594.348 349.039 585.449 343.174 580.337ZM243.134 609.424C248.247 603.559 257.146 602.948 263.011 608.061C268.876 613.173 269.487 622.072 264.374 627.937C259.262 633.803 250.363 634.413 244.498 629.301C238.632 624.188 238.022 615.289 243.134 609.424ZM342.187 377.036C336.322 371.924 327.423 372.534 322.31 378.399C317.198 384.265 317.808 393.164 323.674 398.276C329.539 403.388 338.438 402.778 343.55 396.913C348.663 391.048 348.053 382.148 342.187 377.036ZM260.55 677.677C265.662 671.812 274.562 671.202 280.427 676.314C286.292 681.426 286.902 690.326 281.79 696.191C276.678 702.056 267.778 702.667 261.913 697.554C256.048 692.442 255.438 683.543 260.55 677.677ZM406.036 684.247C400.171 679.134 391.272 679.745 386.159 685.61C381.047 691.475 381.657 700.374 387.522 705.487C393.388 710.599 402.287 709.989 407.399 704.124C412.512 698.258 411.901 689.359 406.036 684.247Z" fill="#7C55EA"/>
</svg>
