<svg width="1190" height="1296" viewBox="0 0 1190 1296" fill="none" xmlns="http://www.w3.org/2000/svg">
<g clip-path="url(#clip0)">
<rect width="1190" height="1296" fill="white"/>
<rect x="-4.09863" y="-86.7777" width="1460" height="911.588" fill="#016FAD"/>
<rect x="-4" width="1460" height="1383" fill="#653CDB"/>
<path d="M-106.102 785.548C-76.8793 817.34 -48.0481 848.977 -15.8553 880.072C25.586 920.101 78.4983 970.946 120.459 982.538C173.93 997.311 206.414 978.849 239.251 970.078C267.928 962.418 302.275 948.557 360.188 977.754C447.554 1021.8 500.628 1115.35 547.512 1177.86C569.446 1207.11 605.654 1253.56 630.618 1249.62" stroke="#BDB2FF" stroke-width="10" stroke-linecap="round" stroke-linejoin="round"/>
<path d="M1186.9 6.69598C1186.9 47.864 1151.75 81.2373 1108.4 81.2373C1065.05 81.2373 1029.9 47.864 1029.9 6.69598C1029.9 -34.4721 1065.05 -67.8454 1108.4 -67.8454C1151.75 -67.8454 1186.9 -34.4721 1186.9 6.69598Z" fill="#CAC1FF"/>
<path d="M1268 717.541C1268 758.709 1232.85 792.083 1189.5 792.083C1146.15 792.083 1111 758.709 1111 717.541C1111 676.373 1146.15 643 1189.5 643C1232.85 643 1268 676.373 1268 717.541Z" fill="#705EDF"/>
<path d="M668.837 1266.3L653.35 1249.97L675.784 1243.98C685.972 1241.26 696.834 1245.84 702.183 1255.11L716.466 1259.04L712.747 1273.53L698.463 1269.59C689.274 1275.97 676.682 1274.57 668.837 1266.3Z" stroke="#BDB2FF" stroke-width="7"/>
<ellipse rx="4.61249" ry="4.80701" transform="matrix(0.247819 -0.964847 0.967432 0.266694 683.273 1258.1)" fill="#BDB2FF"/>
<line y1="-2.5" x2="34.3358" y2="-2.5" transform="matrix(0.967432 0.266694 -0.247819 0.964847 654.299 1251.81)" stroke="#BDB2FF" stroke-width="5"/>
<path opacity="0.8" fill-rule="evenodd" clip-rule="evenodd" d="M371.497 -11.8574C370.155 -13.5677 367.597 -13.9809 365.785 -12.7803L365.184 -12.3824C363.372 -11.1818 362.99 -8.82205 364.332 -7.11174C365.675 -5.40142 368.232 -4.98819 370.044 -6.18876L370.645 -6.58673C372.458 -7.7873 372.839 -10.147 371.497 -11.8574ZM421.637 -44.9774C420.295 -46.6878 417.738 -47.101 415.925 -45.9004L381.688 -23.2221C379.875 -22.0216 379.494 -19.6618 380.836 -17.9515C382.178 -16.2412 384.736 -15.828 386.548 -17.0285L420.785 -39.7068C422.598 -40.9074 422.979 -43.2671 421.637 -44.9774ZM452.424 -42.6411C451.082 -44.3515 448.525 -44.7647 446.712 -43.5641L433.789 -35.0036C431.976 -33.803 431.595 -31.4433 432.937 -29.733C434.279 -28.0227 436.836 -27.6094 438.649 -28.81L451.573 -37.3705C453.385 -38.5711 453.767 -40.9308 452.424 -42.6411ZM461.348 -24.1819C460.006 -25.8922 460.387 -28.2519 462.2 -29.4525L476.577 -38.9757C478.389 -40.1763 480.947 -39.763 482.289 -38.0527C483.631 -36.3424 483.25 -33.9827 481.437 -32.7821L467.06 -23.2589C465.248 -22.0583 462.69 -22.4716 461.348 -24.1819ZM512.355 -35.8397C511.013 -37.55 508.455 -37.9633 506.643 -36.7627L489.51 -25.4141C487.698 -24.2135 487.316 -21.8538 488.658 -20.1435C490.001 -18.4332 492.558 -18.0199 494.37 -19.2205L511.503 -30.5691C513.316 -31.7697 513.697 -34.1294 512.355 -35.8397ZM468.332 -11.2361C466.99 -12.9464 467.372 -15.3061 469.184 -16.5067L471.641 -18.1342C473.454 -19.3348 476.011 -18.9216 477.353 -17.2113C478.695 -15.5009 478.314 -13.1412 476.502 -11.9406L474.044 -10.3131C472.232 -9.11254 469.675 -9.52578 468.332 -11.2361ZM441.097 -16.6629C440.221 -17.7784 440.47 -19.3176 441.652 -20.1007C442.835 -20.8838 444.503 -20.6143 445.378 -19.4987L447.068 -17.3449C447.944 -16.2294 447.695 -14.6902 446.513 -13.9071C445.33 -13.124 443.662 -13.3935 442.787 -14.5091L441.097 -16.6629ZM419.879 -24.0295C418.537 -25.7398 415.979 -26.1531 414.167 -24.9525L412.42 -23.7951C410.607 -22.5945 410.226 -20.2347 411.568 -18.5244C412.91 -16.8141 415.467 -16.4009 417.28 -17.6014L419.027 -18.7589C420.84 -19.9595 421.221 -22.3192 419.879 -24.0295Z" fill="#FFBFC4" fill-opacity="0.4"/>
<path fill-rule="evenodd" clip-rule="evenodd" d="M333.575 31.1287L185.325 -120.367C182.686 -117.825 180.213 -115.183 177.906 -112.453L324.719 37.5751C327.755 35.5901 330.712 33.4414 333.575 31.1287ZM317.556 41.877L172.863 -105.985C170.679 -102.942 168.683 -99.8103 166.877 -96.6057L307.267 46.858C310.765 45.3824 314.2 43.7223 317.556 41.877ZM298.951 49.982L162.987 -88.9593C161.328 -85.3223 159.898 -81.6112 158.698 -77.8461L286.965 53.2297C291.007 52.3689 295.01 51.2866 298.951 49.982ZM277.198 54.8706L156.259 -68.7167C155.293 -64.2614 154.637 -59.7552 154.294 -55.2295L262.888 55.7432C267.667 55.7493 272.448 55.4588 277.198 54.8706ZM250.889 55.1027L154.087 -43.8187C154.325 -37.812 155.112 -31.8176 156.45 -25.9088L232.252 51.5531C238.359 53.2529 244.598 54.437 250.889 55.1027ZM214.362 44.8937L162.133 -8.47909C166.968 2.72272 173.971 13.3029 183.161 22.6951C192.352 32.0873 202.951 39.4937 214.362 44.8937ZM339.713 25.7799L191.393 -125.788C194.222 -128.133 197.146 -130.315 200.151 -132.334L347.229 17.9651C344.889 20.6628 342.383 23.2719 339.713 25.7799ZM352.349 11.5746C354.567 8.56952 356.598 5.47512 358.443 2.30633L217.419 -141.806C213.956 -140.291 210.557 -138.594 207.238 -136.714L352.349 11.5746ZM225.645 -145.021L362.423 -5.24871C364.123 -8.8381 365.598 -12.5027 366.847 -16.223L237.496 -148.407C233.497 -147.497 229.54 -146.368 225.645 -145.021ZM247.142 -150.171L369.406 -25.2294C370.432 -29.613 371.155 -34.0498 371.575 -38.5095L261.249 -151.251C256.534 -151.18 251.821 -150.82 247.142 -150.171ZM273.038 -150.826L371.992 -49.7051C371.878 -55.5419 371.248 -61.3747 370.098 -67.1363L291.207 -147.755C285.24 -149.266 279.16 -150.291 273.038 -150.826ZM308.255 -141.955L365.256 -83.7059C360.413 -96.1426 352.957 -107.896 342.858 -118.216C332.76 -128.535 320.962 -136.458 308.255 -141.955Z" fill="#95F1F7"/>
<path opacity="0.5" fill-rule="evenodd" clip-rule="evenodd" d="M82.5305 706.949C84.0331 705.651 85.482 704.291 86.8751 702.869C87.8687 701.854 88.8267 700.815 89.7493 699.752L-293.729 361.152C-294.778 362.103 -295.8 363.085 -296.794 364.1C-298.187 365.523 -299.51 366.993 -300.764 368.511L82.5305 706.949ZM71.1712 715.013L-308.41 379.854C-310.09 382.954 -311.551 386.19 -312.796 389.552L61.3037 719.872C64.7446 718.448 68.0375 716.829 71.1712 715.013ZM46.2373 724.663L-316.735 404.169C-317.447 408.153 -317.914 412.267 -318.141 416.498L33.3893 726.889C37.8169 726.367 42.1043 725.626 46.2373 724.663ZM13.9371 727.808L-317.694 434.987C-317.203 440.083 -316.419 445.304 -315.348 450.63L-2.66305 726.721C3.00897 727.349 8.54906 727.713 13.9371 727.808ZM-28.1241 722.334L-308.892 474.425C-306.592 481.233 -303.881 488.157 -300.773 495.164L-50.4964 716.151C-42.911 718.586 -35.4415 720.65 -28.1241 722.334ZM-87.1465 701.885L-283.128 528.839C-276.275 540.204 -268.476 551.643 -259.781 563.024L-124.748 682.255C-112.163 689.664 -99.5813 696.219 -87.1465 701.885ZM-282.621 352.866L97.6459 688.63C99.3902 685.589 100.917 682.411 102.229 679.106L-272.95 347.834C-276.326 349.317 -279.553 350.993 -282.621 352.866ZM-258.165 342.794L106.449 664.738C107.235 660.822 107.779 656.776 108.086 652.612L-245.548 340.364C-249.899 340.957 -254.109 341.766 -258.165 342.794ZM-226.446 339.136L107.989 634.432C107.597 629.428 106.917 624.3 105.954 619.064L-210.157 339.948C-215.725 339.416 -221.162 339.143 -226.446 339.136ZM-185.221 343.871L100.023 595.733C97.8917 589.087 95.3631 582.323 92.4491 575.474L-163.393 349.573C-170.798 347.311 -178.085 345.407 -185.221 343.871ZM-127.954 362.771L76.0154 542.87C69.7938 532.16 62.7231 521.369 54.8449 510.606L-92.5297 380.478C-104.406 373.798 -116.254 367.885 -127.954 362.771Z" fill="#95F1F7"/>
<path d="M961.378 1032.15L995.256 957.663C1004.73 936.838 1023.56 921.782 1046.18 916.953C1073.52 911.116 1102.22 920.237 1121.46 940.88L1169 991.877C1182.4 1006.25 1197.63 1018.85 1214.29 1029.34L1253.26 1053.89C1284.17 1073.36 1304.76 1105.51 1309.21 1141.29L1323.55 1256.36C1332.09 1324.95 1274.86 1382.66 1205.5 1375.39L1168.33 1371.5C1158.59 1370.48 1149.1 1367.62 1140.38 1363.07L1065.27 1323.95C958.157 1268.14 912.44 1139.74 961.378 1032.15Z" fill="#95F1F7"/>
<path fill-rule="evenodd" clip-rule="evenodd" d="M-119.233 1541.67C-116.274 1536.75 -110.117 1535.1 -105.481 1537.98C-100.846 1540.86 -99.4865 1547.18 -102.446 1552.09C-105.405 1557 -111.562 1558.65 -116.198 1555.78C-120.833 1552.9 -122.193 1546.58 -119.233 1541.67ZM-83.6925 1520.95C-80.7332 1516.04 -74.5763 1514.39 -69.9405 1517.27C-65.3047 1520.14 -63.9455 1526.46 -66.9047 1531.37C-69.864 1536.29 -76.0209 1537.94 -80.6567 1535.06C-85.2925 1532.18 -86.6517 1525.86 -83.6925 1520.95ZM-104.855 1498.64C-109.491 1495.76 -115.648 1497.41 -118.607 1502.33C-121.567 1507.24 -120.207 1513.56 -115.572 1516.44C-110.936 1519.31 -104.779 1517.66 -101.82 1512.75C-98.8605 1507.84 -100.22 1501.52 -104.855 1498.64ZM-125.794 1452.02C-122.835 1447.11 -116.678 1445.46 -112.042 1448.34C-107.407 1451.22 -106.047 1457.53 -109.007 1462.45C-111.966 1467.36 -118.123 1469.01 -122.759 1466.13C-127.394 1463.25 -128.754 1456.94 -125.794 1452.02ZM-70.7531 1482.98C-71.2431 1477.33 -76.0812 1473.33 -81.5591 1474.06C-87.037 1474.78 -91.0804 1479.95 -90.5903 1485.6C-90.1002 1491.25 -85.2622 1495.24 -79.7843 1494.51C-74.3064 1493.79 -70.263 1488.62 -70.7531 1482.98ZM-99.2277 1431.85C-96.2685 1426.93 -90.1115 1425.28 -85.4757 1428.16C-80.8399 1431.04 -79.4808 1437.36 -82.44 1442.27C-85.3993 1447.18 -91.5562 1448.83 -96.192 1445.95C-100.828 1443.08 -102.187 1436.76 -99.2277 1431.85ZM-8.23498 1491.4C-12.8708 1488.52 -19.0278 1490.17 -21.987 1495.09C-24.9462 1500 -23.5871 1506.32 -18.9513 1509.2C-14.3155 1512.08 -8.15851 1510.43 -5.19929 1505.51C-2.24007 1500.6 -3.59918 1494.28 -8.23498 1491.4ZM-53.6876 1499.85C-50.7284 1494.94 -44.5714 1493.29 -39.9356 1496.17C-35.2998 1499.05 -33.9407 1505.36 -36.8999 1510.28C-39.8591 1515.19 -46.0161 1516.84 -50.6519 1513.96C-55.2877 1511.08 -56.6469 1504.77 -53.6876 1499.85ZM83.0892 1397.28C87.9677 1399.72 93.9809 1397.52 96.5202 1392.37C99.0595 1387.22 97.1631 1381.07 92.2846 1378.64C87.4061 1376.2 81.3929 1378.41 78.8536 1383.55C76.3143 1388.7 78.2107 1394.85 83.0892 1397.28ZM55.2641 1403.42C52.7248 1408.57 46.7115 1410.77 41.833 1408.34C36.9546 1405.9 35.0582 1399.76 37.5975 1394.61C40.1368 1389.46 46.15 1387.26 51.0285 1389.7C55.907 1392.13 57.8033 1398.28 55.2641 1403.42ZM64.6923 1446.98C69.5708 1449.42 75.5841 1447.22 78.1233 1442.07C80.6626 1436.92 78.7663 1430.77 73.8878 1428.34C69.0093 1425.9 62.996 1428.1 60.4567 1433.25C57.9175 1438.4 59.8138 1444.55 64.6923 1446.98ZM34.5899 1442.54C32.0506 1447.69 26.0374 1449.89 21.1589 1447.46C16.2804 1445.02 14.3841 1438.87 16.9233 1433.73C19.4626 1428.58 25.4759 1426.38 30.3544 1428.81C35.2329 1431.25 37.1292 1437.39 34.5899 1442.54ZM9.77513 1394.55C14.6536 1396.98 20.6669 1394.78 23.2062 1389.63C25.7454 1384.48 23.8491 1378.34 18.9706 1375.9C14.0921 1373.47 8.07883 1375.67 5.53956 1380.82C3.0003 1385.96 4.89664 1392.11 9.77513 1394.55ZM44.2781 1479.12C41.7389 1484.27 35.7256 1486.47 30.8471 1484.03C25.9686 1481.6 24.0723 1475.45 26.6115 1470.3C29.1508 1465.15 35.1641 1462.95 40.0426 1465.39C44.9211 1467.82 46.8174 1473.97 44.2781 1479.12ZM-31.5719 1472.78C-26.6934 1475.21 -20.6801 1473.01 -18.1409 1467.86C-15.6016 1462.72 -17.498 1456.57 -22.3764 1454.13C-27.255 1451.7 -33.2682 1453.9 -35.8075 1459.05C-38.3467 1464.2 -36.4504 1470.34 -31.5719 1472.78ZM4.0506 1435.8C1.51132 1440.95 -4.50197 1443.15 -9.38045 1440.72C-14.2589 1438.28 -16.1553 1432.14 -13.616 1426.99C-11.0767 1421.84 -5.06348 1419.64 -0.184968 1422.07C4.69352 1424.51 6.58985 1430.65 4.0506 1435.8ZM-29.9869 1331.48C-25.1084 1333.91 -19.0951 1331.71 -16.5558 1326.56C-14.0166 1321.42 -15.9129 1315.27 -20.7914 1312.83C-25.6699 1310.4 -31.6832 1312.6 -34.2224 1317.75C-36.7617 1322.9 -34.8654 1329.04 -29.9869 1331.48ZM-46.0432 1346.63C-48.5825 1351.78 -54.5957 1353.98 -59.4742 1351.55C-64.3527 1349.11 -66.249 1342.96 -63.7098 1337.82C-61.1705 1332.67 -55.1573 1330.47 -50.2787 1332.9C-45.4003 1335.34 -43.5039 1341.48 -46.0432 1346.63ZM-20.3621 1372.78C-15.4836 1375.21 -9.47031 1373.01 -6.93103 1367.86C-4.39178 1362.71 -6.28811 1356.57 -11.1666 1354.13C-16.0451 1351.7 -22.0584 1353.9 -24.5976 1359.05C-27.1369 1364.19 -25.2406 1370.34 -20.3621 1372.78ZM-23.4077 1409.58C-25.947 1414.73 -31.9603 1416.93 -36.8388 1414.5C-41.7173 1412.06 -43.6136 1405.92 -41.0744 1400.77C-38.5351 1395.62 -32.5218 1393.42 -27.6433 1395.85C-22.7648 1398.29 -20.8685 1404.44 -23.4077 1409.58ZM-96.8895 1346.65C-92.011 1349.08 -85.9978 1346.88 -83.4585 1341.73C-80.9192 1336.59 -82.8155 1330.44 -87.694 1328C-92.5726 1325.57 -98.5858 1327.77 -101.125 1332.92C-103.664 1338.07 -101.768 1344.21 -96.8895 1346.65ZM-82.2105 1406.69C-84.7498 1411.84 -90.763 1414.04 -95.6415 1411.6C-100.52 1409.17 -102.416 1403.02 -99.8771 1397.87C-97.3378 1392.72 -91.3246 1390.52 -86.446 1392.96C-81.5676 1395.39 -79.6712 1401.54 -82.2105 1406.69ZM-65.7278 1457.68C-60.8493 1460.12 -54.836 1457.92 -52.2967 1452.77C-49.7575 1447.62 -51.6538 1441.47 -56.5323 1439.04C-61.4108 1436.6 -67.4241 1438.8 -69.9634 1443.95C-72.5026 1449.1 -70.6063 1455.25 -65.7278 1457.68ZM-108.637 1379.35C-111.176 1384.5 -117.189 1386.7 -122.068 1384.27C-126.946 1381.83 -128.843 1375.69 -126.304 1370.54C-123.764 1365.39 -117.751 1363.19 -112.872 1365.62C-107.994 1368.06 -106.098 1374.21 -108.637 1379.35ZM-66.3953 1386.98C-61.5169 1389.41 -55.5036 1387.21 -52.9643 1382.06C-50.425 1376.91 -52.3214 1370.77 -57.1999 1368.33C-62.0784 1365.9 -68.0916 1368.1 -70.6309 1373.25C-73.1702 1378.39 -71.2738 1384.54 -66.3953 1386.98ZM198.009 1314.81C195.469 1319.96 189.456 1322.16 184.577 1319.72C179.699 1317.29 177.803 1311.14 180.342 1305.99C182.881 1300.84 188.894 1298.64 193.773 1301.08C198.651 1303.51 200.548 1309.66 198.009 1314.81ZM168.861 1364.97C173.74 1367.41 179.753 1365.21 182.292 1360.06C184.831 1354.91 182.935 1348.76 178.057 1346.33C173.178 1343.89 167.165 1346.09 164.626 1351.24C162.086 1356.39 163.983 1362.54 168.861 1364.97ZM221.76 1399.85C219.22 1404.99 213.207 1407.19 208.329 1404.76C203.45 1402.33 201.554 1396.18 204.093 1391.03C206.632 1385.88 212.646 1383.68 217.524 1386.12C222.403 1388.55 224.299 1394.7 221.76 1399.85ZM123.719 1425.57C128.597 1428 134.61 1425.8 137.15 1420.65C139.689 1415.51 137.793 1409.36 132.914 1406.92C128.036 1404.49 122.022 1406.69 119.483 1411.84C116.944 1416.99 118.84 1423.13 123.719 1425.57ZM104.781 1354.71C102.242 1359.86 96.2285 1362.06 91.35 1359.63C86.4715 1357.19 84.5751 1351.05 87.1144 1345.9C89.6537 1340.75 95.667 1338.55 100.545 1340.98C105.424 1343.42 107.32 1349.57 104.781 1354.71ZM117.469 1388.07C122.347 1390.5 128.361 1388.3 130.9 1383.16C133.439 1378.01 131.543 1371.86 126.664 1369.43C121.786 1366.99 115.773 1369.19 113.233 1374.34C110.694 1379.49 112.59 1385.64 117.469 1388.07ZM174.968 1410.52C172.428 1415.67 166.415 1417.87 161.537 1415.43C156.658 1413 154.762 1406.85 157.301 1401.7C159.84 1396.56 165.854 1394.36 170.732 1396.79C175.611 1399.22 177.507 1405.37 174.968 1410.52ZM135.738 1151.87C140.616 1154.3 146.629 1152.1 149.169 1146.96C151.708 1141.81 149.812 1135.66 144.933 1133.23C140.055 1130.79 134.041 1132.99 131.502 1138.14C128.963 1143.29 130.859 1149.44 135.738 1151.87ZM118.538 1207.39C115.998 1212.54 109.985 1214.74 105.107 1212.31C100.228 1209.87 98.3319 1203.73 100.871 1198.58C103.41 1193.43 109.424 1191.23 114.302 1193.66C119.181 1196.1 121.077 1202.25 118.538 1207.39ZM57.4178 1320.22C62.2963 1322.66 68.3096 1320.46 70.8488 1315.31C73.3881 1310.16 71.4918 1304.01 66.6133 1301.58C61.7348 1299.14 55.7215 1301.34 53.1822 1306.49C50.643 1311.64 52.5393 1317.79 57.4178 1320.22ZM112.731 1264.91C110.192 1270.06 104.178 1272.26 99.3 1269.83C94.4215 1267.39 92.5252 1261.24 95.0644 1256.1C97.6037 1250.95 103.617 1248.75 108.495 1251.18C113.374 1253.62 115.27 1259.76 112.731 1264.91ZM106.131 1301.57C111.009 1304.01 117.022 1301.81 119.562 1296.66C122.101 1291.51 120.205 1285.36 115.326 1282.93C110.448 1280.49 104.434 1282.69 101.895 1287.84C99.3557 1292.99 101.252 1299.14 106.131 1301.57ZM82.1921 1258.17C79.6528 1263.32 73.6395 1265.52 68.761 1263.09C63.8825 1260.65 61.9862 1254.5 64.5255 1249.36C67.0648 1244.21 73.078 1242.01 77.9565 1244.44C82.835 1246.88 84.7314 1253.02 82.1921 1258.17ZM6.47455 1294.7C11.353 1297.13 17.3663 1294.93 19.9056 1289.79C22.4449 1284.64 20.5485 1278.49 15.67 1276.06C10.7915 1273.62 4.77826 1275.82 2.23898 1280.97C-0.300258 1286.12 1.59606 1292.27 6.47455 1294.7ZM54.3725 1357.03C51.8332 1362.18 45.8199 1364.38 40.9415 1361.94C36.063 1359.51 34.1666 1353.36 36.7059 1348.21C39.2452 1343.07 45.2584 1340.87 50.137 1343.3C55.0154 1345.73 56.9118 1351.88 54.3725 1357.03ZM-68.0001 1303.47C-63.1216 1305.9 -57.1083 1303.7 -54.569 1298.55C-52.0298 1293.4 -53.9261 1287.26 -58.8046 1284.82C-63.6831 1282.39 -69.6964 1284.59 -72.2356 1289.74C-74.7749 1294.88 -72.8786 1301.03 -68.0001 1303.47ZM30.9327 1324.14C28.3934 1329.29 22.3802 1331.49 17.5017 1329.05C12.6232 1326.62 10.7269 1320.47 13.2661 1315.32C15.8054 1310.17 21.8186 1307.97 26.6972 1310.41C31.5756 1312.84 33.472 1318.99 30.9327 1324.14ZM-28.7059 1190.34C-23.8274 1192.77 -17.8141 1190.57 -15.2748 1185.43C-12.7356 1180.28 -14.6319 1174.13 -19.5104 1171.7C-24.3889 1169.26 -30.4022 1171.46 -32.9414 1176.61C-35.4807 1181.76 -33.5844 1187.91 -28.7059 1190.34ZM-11.9212 1226.34C-14.4605 1231.49 -20.4738 1233.69 -25.3523 1231.26C-30.2308 1228.82 -32.1271 1222.68 -29.5878 1217.53C-27.0486 1212.38 -21.0353 1210.18 -16.1568 1212.61C-11.2783 1215.05 -9.38196 1221.19 -11.9212 1226.34ZM-29.0213 1281.83C-24.1428 1284.26 -18.1295 1282.06 -15.5902 1276.91C-13.051 1271.77 -14.9473 1265.62 -19.8258 1263.18C-24.7043 1260.75 -30.7176 1262.95 -33.2569 1268.1C-35.7961 1273.25 -33.8998 1279.39 -29.0213 1281.83ZM-82.1622 1234.85C-84.7015 1240 -90.7148 1242.2 -95.5933 1239.77C-100.472 1237.33 -102.368 1231.18 -99.8289 1226.04C-97.2896 1220.89 -91.2763 1218.69 -86.3978 1221.12C-81.5193 1223.56 -79.623 1229.7 -82.1622 1234.85ZM-72.5417 1259.98C-67.6632 1262.42 -61.6499 1260.22 -59.1106 1255.07C-56.5714 1249.92 -58.4677 1243.77 -63.3462 1241.34C-68.2247 1238.9 -74.238 1241.1 -76.7773 1246.25C-79.3165 1251.4 -77.4202 1257.55 -72.5417 1259.98ZM-110.423 1233.31C-112.963 1238.46 -118.976 1240.66 -123.854 1238.22C-128.733 1235.79 -130.629 1229.64 -128.09 1224.49C-125.551 1219.34 -119.537 1217.14 -114.659 1219.58C-109.78 1222.01 -107.884 1228.16 -110.423 1233.31ZM-30.3561 1140.42C-25.4776 1142.85 -19.4643 1140.65 -16.925 1135.5C-14.3858 1130.36 -16.2821 1124.21 -21.1606 1121.77C-26.0391 1119.34 -32.0524 1121.54 -34.5916 1126.69C-37.1309 1131.84 -35.2346 1137.98 -30.3561 1140.42ZM-52.736 1214.12C-55.2753 1219.27 -61.2886 1221.47 -66.1671 1219.03C-71.0455 1216.6 -72.9419 1210.45 -70.4026 1205.3C-67.8633 1200.15 -61.8501 1197.95 -56.9716 1200.39C-52.0931 1202.82 -50.1967 1208.97 -52.736 1214.12ZM1.38578 1245.7C6.26427 1248.13 12.2776 1245.93 14.8168 1240.78C17.3561 1235.64 15.4598 1229.49 10.5813 1227.05C5.70276 1224.62 -0.310503 1226.82 -2.84978 1231.97C-5.38902 1237.12 -3.49271 1243.26 1.38578 1245.7ZM-112.211 1284.15C-114.75 1289.3 -120.763 1291.5 -125.642 1289.07C-130.52 1286.63 -132.417 1280.48 -129.878 1275.34C-127.338 1270.19 -121.325 1267.99 -116.446 1270.42C-111.568 1272.86 -109.672 1279 -112.211 1284.15ZM-120.151 1323.04C-115.273 1325.47 -109.259 1323.27 -106.72 1318.12C-104.181 1312.97 -106.077 1306.83 -110.956 1304.39C-115.834 1301.96 -121.847 1304.16 -124.387 1309.31C-126.926 1314.46 -125.029 1320.6 -120.151 1323.04ZM130.262 1326.93C132.519 1321.65 138.414 1319.1 143.429 1321.24C148.445 1323.38 150.681 1329.39 148.424 1334.67C146.168 1339.95 140.273 1342.49 135.257 1340.36C130.242 1338.22 128.005 1332.21 130.262 1326.93ZM145.874 1215.79C140.859 1213.66 134.964 1216.21 132.707 1221.48C130.45 1226.76 132.687 1232.77 137.702 1234.91C142.718 1237.05 148.613 1234.5 150.87 1229.22C153.126 1223.94 150.89 1217.93 145.874 1215.79ZM138.554 1274.01C140.811 1268.73 146.706 1266.19 151.721 1268.32C156.737 1270.46 158.973 1276.47 156.717 1281.75C154.46 1287.03 148.565 1289.58 143.549 1287.44C138.534 1285.3 136.297 1279.29 138.554 1274.01ZM193.157 1266.55C188.141 1264.41 182.246 1266.96 179.989 1272.24C177.733 1277.51 179.969 1283.53 184.984 1285.66C190 1287.8 195.895 1285.25 198.152 1279.97C200.409 1274.69 198.172 1268.68 193.157 1266.55ZM160.746 1241.95C163.002 1236.67 168.897 1234.12 173.913 1236.26C178.928 1238.4 181.165 1244.41 178.908 1249.69C176.652 1254.97 170.756 1257.51 165.741 1255.38C160.725 1253.24 158.489 1247.23 160.746 1241.95ZM212.134 1211.1C207.118 1208.96 201.223 1211.51 198.966 1216.79C196.71 1222.06 198.946 1228.08 203.962 1230.21C208.977 1232.35 214.872 1229.8 217.129 1224.52C219.386 1219.24 217.149 1213.23 212.134 1211.1ZM221.514 1203.28C223.771 1198 229.666 1195.46 234.681 1197.59C239.697 1199.73 241.933 1205.74 239.677 1211.02C237.42 1216.3 231.525 1218.85 226.509 1216.71C221.494 1214.57 219.257 1208.56 221.514 1203.28ZM194.23 1178.59C189.215 1176.45 183.32 1179 181.063 1184.28C178.806 1189.55 181.043 1195.57 186.058 1197.7C191.074 1199.84 196.969 1197.29 199.226 1192.01C201.482 1186.73 199.246 1180.72 194.23 1178.59ZM24.7892 1252.27C27.0459 1246.99 32.9412 1244.44 37.9566 1246.58C42.9721 1248.72 45.2085 1254.73 42.9519 1260.01C40.6952 1265.28 34.8 1267.83 29.7845 1265.7C24.769 1263.56 22.5326 1257.55 24.7892 1252.27ZM2.77652 1142.22C-2.23895 1140.08 -8.13419 1142.63 -10.3909 1147.91C-12.6475 1153.19 -10.4111 1159.2 -5.39563 1161.34C-0.380153 1163.47 5.5151 1160.93 7.77177 1155.65C10.0284 1150.37 7.792 1144.36 2.77652 1142.22ZM48.3204 1217.98C50.5771 1212.7 56.4723 1210.16 61.4878 1212.29C66.5032 1214.43 68.7397 1220.44 66.483 1225.72C64.2264 1231 58.3311 1233.55 53.3156 1231.41C48.3002 1229.27 46.0637 1223.26 48.3204 1217.98ZM26.3942 1184.39C21.3787 1182.25 15.4835 1184.8 13.2268 1190.08C10.9701 1195.36 13.2066 1201.37 18.222 1203.51C23.2375 1205.64 29.1327 1203.1 31.3894 1197.82C33.6461 1192.54 31.4096 1186.53 26.3942 1184.39ZM141.549 1178.08C143.806 1172.8 149.701 1170.25 154.716 1172.39C159.732 1174.52 161.968 1180.54 159.712 1185.81C157.455 1191.09 151.56 1193.64 146.544 1191.5C141.529 1189.37 139.292 1183.36 141.549 1178.08ZM62.1145 1172.95C57.099 1170.82 51.2038 1173.36 48.9471 1178.64C46.6904 1183.92 48.9269 1189.93 53.9423 1192.07C58.9578 1194.21 64.8531 1191.66 67.1097 1186.38C69.3664 1181.1 67.13 1175.09 62.1145 1172.95ZM-104.378 1184.29C-102.122 1179.01 -96.2263 1176.46 -91.2108 1178.6C-86.1953 1180.73 -83.9589 1186.75 -86.2155 1192.02C-88.4722 1197.3 -94.3675 1199.85 -99.3829 1197.71C-104.398 1195.58 -106.635 1189.57 -104.378 1184.29ZM-119.762 1173.84C-124.778 1171.7 -130.673 1174.25 -132.93 1179.53C-135.186 1184.8 -132.95 1190.82 -127.934 1192.95C-122.919 1195.09 -117.024 1192.54 -114.767 1187.26C-112.51 1181.98 -114.747 1175.97 -119.762 1173.84ZM-135.769 1135.94C-133.513 1130.67 -127.618 1128.12 -122.602 1130.25C-117.587 1132.39 -115.35 1138.4 -117.607 1143.68C-119.863 1148.96 -125.759 1151.51 -130.774 1149.37C-135.79 1147.23 -138.026 1141.22 -135.769 1135.94ZM-52.2316 1156.96C-57.2471 1154.82 -63.1423 1157.37 -65.399 1162.65C-67.6557 1167.93 -65.4192 1173.94 -60.4038 1176.08C-55.3883 1178.21 -49.493 1175.67 -47.2364 1170.39C-44.9797 1165.11 -47.2161 1159.1 -52.2316 1156.96ZM-105.448 1128.61C-103.192 1123.33 -97.2963 1120.79 -92.2808 1122.92C-87.2653 1125.06 -85.0289 1131.07 -87.2855 1136.35C-89.5422 1141.63 -95.4375 1144.18 -100.453 1142.04C-105.468 1139.9 -107.705 1133.89 -105.448 1128.61ZM-102.147 1077.07C-107.162 1074.93 -113.058 1077.48 -115.314 1082.76C-117.571 1088.04 -115.335 1094.05 -110.319 1096.18C-105.304 1098.32 -99.4084 1095.77 -97.1517 1090.49C-94.895 1085.22 -97.1314 1079.2 -102.147 1077.07ZM-36.0619 1070.85C-33.8052 1065.57 -27.91 1063.02 -22.8945 1065.16C-17.879 1067.29 -15.6426 1073.31 -17.8993 1078.58C-20.1559 1083.86 -26.0512 1086.41 -31.0667 1084.27C-36.0821 1082.14 -38.3186 1076.13 -36.0619 1070.85ZM-52.7909 1117.62C-57.8064 1115.49 -63.7016 1118.03 -65.9583 1123.31C-68.215 1128.59 -65.9785 1134.6 -60.963 1136.74C-55.9476 1138.88 -50.0523 1136.33 -47.7956 1131.05C-45.539 1125.77 -47.7754 1119.76 -52.7909 1117.62ZM-143.865 1078C-141.609 1072.72 -135.714 1070.17 -130.698 1072.31C-125.683 1074.44 -123.446 1080.45 -125.703 1085.73C-127.959 1091.01 -133.855 1093.56 -138.87 1091.42C-143.886 1089.29 -146.122 1083.27 -143.865 1078ZM-128.622 1030.07C-133.638 1027.93 -139.533 1030.48 -141.79 1035.76C-144.046 1041.04 -141.81 1047.05 -136.794 1049.18C-131.779 1051.32 -125.884 1048.77 -123.627 1043.49C-121.37 1038.21 -123.607 1032.2 -128.622 1030.07ZM-113.348 1041.19C-111.091 1035.91 -105.196 1033.37 -100.181 1035.5C-95.1652 1037.64 -92.9288 1043.65 -95.1854 1048.93C-97.4421 1054.21 -103.337 1056.76 -108.353 1054.62C-113.368 1052.48 -115.605 1046.47 -113.348 1041.19ZM-60.8871 1059.67C-65.9026 1057.54 -71.7978 1060.08 -74.0545 1065.36C-76.3112 1070.64 -74.0747 1076.65 -69.0592 1078.79C-64.0438 1080.93 -58.1485 1078.38 -55.8918 1073.1C-53.6352 1067.82 -55.8716 1061.81 -60.8871 1059.67ZM-110.043 997.403C-107.786 992.124 -101.891 989.577 -96.8754 991.714C-91.8599 993.85 -89.6235 999.862 -91.8801 1005.14C-94.1368 1010.42 -100.032 1012.97 -105.048 1010.83C-110.063 1008.69 -112.299 1002.68 -110.043 997.403ZM-119.377 971.629C-124.393 969.492 -130.288 972.039 -132.545 977.318C-134.802 982.597 -132.565 988.609 -127.55 990.745C-122.534 992.882 -116.639 990.335 -114.382 985.056C-112.126 979.777 -114.362 973.765 -119.377 971.629ZM-50.5271 1037.42C-48.2704 1032.14 -42.3752 1029.59 -37.3597 1031.73C-32.3442 1033.86 -30.1078 1039.87 -32.3644 1045.15C-34.6211 1050.43 -40.5164 1052.98 -45.5318 1050.84C-50.5473 1048.71 -52.7838 1042.69 -50.5271 1037.42ZM-63.7271 1016.09C-68.7426 1013.96 -74.6379 1016.5 -76.8945 1021.78C-79.1512 1027.06 -76.9147 1033.07 -71.8993 1035.21C-66.8838 1037.35 -60.9886 1034.8 -58.7319 1029.52C-56.4752 1024.24 -58.7116 1018.23 -63.7271 1016.09ZM108.67 1132.1C103.174 1132.52 98.5583 1128.26 98.3609 1122.58C98.1634 1116.9 102.459 1111.96 107.955 1111.53C113.451 1111.11 118.067 1115.37 118.264 1121.05C118.462 1126.73 114.166 1131.68 108.67 1132.1ZM65.3032 1104.5C65.5007 1110.18 70.1163 1114.44 75.6126 1114.02C81.1088 1113.59 85.4043 1108.65 85.2069 1102.97C85.0094 1097.29 80.3938 1093.03 74.8975 1093.45C69.4013 1093.87 65.1058 1098.82 65.3032 1104.5ZM69.4838 1159.87C63.9876 1160.29 59.3719 1156.03 59.1745 1150.35C58.977 1144.67 63.2725 1139.73 68.7688 1139.31C74.265 1138.88 78.8807 1143.15 79.0781 1148.83C79.2756 1154.51 74.98 1159.45 69.4838 1159.87ZM91.2315 1164.15C91.429 1169.83 96.0446 1174.09 101.541 1173.67C107.037 1173.25 111.333 1168.3 111.135 1162.62C110.938 1156.94 106.322 1152.68 100.826 1153.1C95.3296 1153.52 91.0341 1158.47 91.2315 1164.15ZM28.1406 1094.47C22.6444 1094.89 18.0287 1090.63 17.8313 1084.95C17.6338 1079.27 21.9294 1074.33 27.4256 1073.91C32.9218 1073.48 37.5375 1077.75 37.7349 1083.43C37.9324 1089.1 33.6368 1094.05 28.1406 1094.47ZM8.81126 1119.08C9.00871 1124.76 13.6244 1129.02 19.1206 1128.6C24.6168 1128.18 28.9123 1123.23 28.7149 1117.55C28.5175 1111.87 23.9018 1107.61 18.4056 1108.03C12.9093 1108.46 8.61381 1113.4 8.81126 1119.08ZM224.322 1304.92C218.825 1305.34 214.21 1301.08 214.012 1295.4C213.815 1289.72 218.11 1284.77 223.607 1284.35C229.103 1283.93 233.718 1288.19 233.916 1293.87C234.113 1299.55 229.818 1304.5 224.322 1304.92ZM-6.94812 1054.29C-6.75068 1059.97 -2.13503 1064.23 3.36122 1063.81C8.85743 1063.38 13.1529 1058.44 12.9555 1052.76C12.7581 1047.08 8.14242 1042.82 2.64618 1043.24C-2.85006 1043.66 -7.14557 1048.61 -6.94812 1054.29ZM45.0609 1147.76C39.5646 1148.19 34.949 1143.92 34.7515 1138.24C34.5541 1132.57 38.8496 1127.62 44.3458 1127.2C49.8421 1126.78 54.4577 1131.04 54.6552 1136.72C54.8526 1142.4 50.5571 1147.34 45.0609 1147.76ZM356.575 1288.47C356.773 1294.15 361.388 1298.41 366.885 1297.99C372.381 1297.57 376.676 1292.62 376.479 1286.94C376.281 1281.27 371.666 1277 366.17 1277.43C360.673 1277.85 356.378 1282.79 356.575 1288.47ZM333.826 1279.91C328.33 1280.33 323.714 1276.07 323.517 1270.39C323.32 1264.71 327.615 1259.76 333.111 1259.34C338.608 1258.92 343.223 1263.18 343.421 1268.86C343.618 1274.54 339.323 1279.49 333.826 1279.91ZM390.42 1304.09C390.617 1309.77 395.233 1314.03 400.729 1313.61C406.225 1313.18 410.521 1308.24 410.324 1302.56C410.126 1296.88 405.51 1292.62 400.014 1293.04C394.518 1293.46 390.222 1298.41 390.42 1304.09ZM309.778 1364.09C304.282 1364.51 299.666 1360.25 299.469 1354.57C299.271 1348.89 303.567 1343.95 309.063 1343.53C314.559 1343.1 319.175 1347.37 319.373 1353.05C319.57 1358.73 315.274 1363.67 309.778 1364.09ZM345.904 1325.34C346.102 1331.02 350.717 1335.28 356.214 1334.86C361.71 1334.44 366.005 1329.49 365.808 1323.81C365.611 1318.13 360.995 1313.87 355.499 1314.29C350.002 1314.72 345.707 1319.66 345.904 1325.34ZM300.762 1254.59C295.266 1255.01 290.65 1250.75 290.453 1245.07C290.255 1239.39 294.551 1234.44 300.047 1234.02C305.543 1233.6 310.159 1237.86 310.356 1243.54C310.554 1249.22 306.258 1254.17 300.762 1254.59ZM291.531 1283.15C291.728 1288.83 296.344 1293.09 301.84 1292.67C307.336 1292.25 311.632 1287.31 311.435 1281.63C311.237 1275.95 306.621 1271.68 301.125 1272.11C295.629 1272.53 291.333 1277.47 291.531 1283.15ZM266.025 1245.24C260.529 1245.66 255.914 1241.4 255.716 1235.72C255.519 1230.04 259.814 1225.1 265.31 1224.68C270.807 1224.25 275.422 1228.52 275.62 1234.2C275.817 1239.87 271.522 1244.82 266.025 1245.24ZM261.318 1275.16C261.516 1280.84 266.131 1285.1 271.628 1284.68C277.124 1284.26 281.419 1279.31 281.222 1273.63C281.024 1267.95 276.409 1263.69 270.913 1264.11C265.416 1264.54 261.121 1269.48 261.318 1275.16ZM244.323 1338.73C238.827 1339.15 234.211 1334.89 234.014 1329.21C233.817 1323.53 238.112 1318.59 243.608 1318.16C249.104 1317.74 253.72 1322 253.918 1327.68C254.115 1333.36 249.82 1338.31 244.323 1338.73ZM198.295 1340.65C198.492 1346.33 203.108 1350.59 208.604 1350.17C214.1 1349.75 218.396 1344.8 218.198 1339.12C218.001 1333.44 213.385 1329.18 207.889 1329.6C202.393 1330.02 198.097 1334.97 198.295 1340.65ZM261.647 1376.99C256.15 1377.41 251.535 1373.15 251.337 1367.47C251.14 1361.79 255.435 1356.85 260.931 1356.42C266.428 1356 271.043 1360.26 271.241 1365.94C271.438 1371.62 267.143 1376.57 261.647 1376.99ZM93.9022 1446.97C94.0997 1452.65 98.7153 1456.91 104.212 1456.49C109.708 1456.07 114.003 1451.12 113.806 1445.44C113.608 1439.76 108.993 1435.5 103.497 1435.92C98.0003 1436.34 93.7048 1441.29 93.9022 1446.97ZM288.437 1332.5C282.941 1332.93 278.325 1328.66 278.128 1322.98C277.93 1317.31 282.226 1312.36 287.722 1311.94C293.218 1311.52 297.834 1315.78 298.031 1321.46C298.229 1327.14 293.933 1332.08 288.437 1332.5ZM221.515 1254.21C221.712 1259.89 226.328 1264.16 231.824 1263.73C237.32 1263.31 241.616 1258.37 241.418 1252.69C241.221 1247.01 236.605 1242.75 231.109 1243.17C225.613 1243.59 221.317 1248.54 221.515 1254.21Z" fill="#95F1F7" fill-opacity="0.5"/>
<path fill-rule="evenodd" clip-rule="evenodd" d="M1226.8 438.03C1226.34 438.669 1225.87 439.304 1225.39 439.934C1194.79 480.097 1135.29 485.97 1092.49 453.051C1049.69 420.131 1039.81 360.886 1070.41 320.722C1101.02 280.559 1160.52 274.686 1203.32 307.606C1212.18 314.421 1219.63 322.365 1225.6 331.035L1218.59 340.23C1213.01 331.069 1205.62 322.703 1196.52 315.705C1159.18 286.984 1107.21 292.186 1080.43 327.324C1053.66 362.462 1062.22 414.229 1099.56 442.95C1136.9 471.67 1188.87 466.468 1215.65 431.33C1215.95 430.933 1216.25 430.534 1216.54 430.133L1226.8 438.03Z" fill="#BDB2FF"/>
</g>
<defs>
<clipPath id="clip0">
<rect width="1190" height="1296" fill="white"/>
</clipPath>
</defs>
</svg>
