<svg width="862" height="1024" viewBox="0 0 862 1024" fill="none" xmlns="http://www.w3.org/2000/svg">
<g clip-path="url(#clip0)">
<path opacity="0.5" d="M370.423 590.166C364.005 559.509 377.57 610.244 369.121 578.889C358.244 538.526 344.264 487.153 323.093 464.105C296.114 434.735 270.093 433.788 247.261 426.741C227.322 420.585 201.796 416.099 177.208 376.162C140.116 315.914 141.032 238.179 134.773 181.907C131.846 155.582 126.67 112.228 114.19 91.8056" stroke="#BDB2FF" stroke-width="10" stroke-linecap="round" stroke-linejoin="round"/>
<g opacity="0.5">
<path d="M106.117 56.8136L103.483 72.9304L90.1766 62.6009C84.1336 57.91 82.0082 49.6268 85.0109 42.469L81.0133 32.4904L91.0104 28.2801L95.0079 38.2587C102.729 40.7639 107.451 48.6502 106.117 56.8136Z" stroke="#BDB2FF" stroke-width="7"/>
<ellipse rx="3.34646" ry="3.48759" transform="matrix(-0.918065 0.386651 -0.373189 -0.931547 95.0432 52.0758)" fill="#BDB2FF"/>
<line y1="-2.5" x2="24.9114" y2="-2.5" transform="matrix(-0.373189 -0.931547 0.918065 -0.386651 106.136 72.5706)" stroke="#BDB2FF" stroke-width="5"/>
</g>
<path opacity="0.6" fill-rule="evenodd" clip-rule="evenodd" d="M876.552 -76.9769C874.188 -73.0433 869.264 -71.7182 865.553 -74.0171C861.842 -76.316 860.749 -81.3685 863.113 -85.3021C865.476 -89.2357 870.4 -90.5608 874.111 -88.2619C877.822 -85.963 878.915 -80.9105 876.552 -76.9769ZM848.135 -60.3739C845.772 -56.4403 840.848 -55.1151 837.137 -57.4141C833.425 -59.713 832.333 -64.7655 834.696 -68.6991C837.059 -72.6327 841.983 -73.9578 845.695 -71.6589C849.406 -69.3599 850.498 -64.3075 848.135 -60.3739ZM865.084 -42.5443C868.796 -40.2453 873.72 -41.5705 876.083 -45.5041C878.446 -49.4377 877.354 -54.4901 873.642 -56.7891C869.931 -59.088 865.007 -57.7629 862.644 -53.8293C860.281 -49.8957 861.373 -44.8432 865.084 -42.5443ZM881.875 -5.26674C879.511 -1.33315 874.587 -0.00800481 870.876 -2.30694C867.165 -4.60589 866.072 -9.65834 868.436 -13.5919C870.799 -17.5255 875.723 -18.8507 879.434 -16.5517C883.145 -14.2528 884.238 -9.20033 881.875 -5.26674ZM837.817 -29.9835C838.214 -25.465 842.087 -22.2751 846.469 -22.8588C850.851 -23.4425 854.081 -27.5787 853.684 -32.0973C853.288 -36.6159 849.414 -39.8057 845.032 -39.222C840.65 -38.6383 837.42 -34.5021 837.817 -29.9835ZM860.642 10.8972C858.278 14.8308 853.354 16.156 849.643 13.857C845.932 11.5581 844.839 6.50565 847.203 2.57206C849.566 -1.36153 854.49 -2.68669 858.201 -0.387737C861.912 1.9112 863.005 6.96366 860.642 10.8972ZM787.795 -36.6721C791.506 -34.3732 796.431 -35.6983 798.794 -39.6319C801.157 -43.5655 800.064 -48.618 796.353 -50.9169C792.642 -53.2158 787.718 -51.8907 785.355 -47.9571C782.992 -44.0235 784.084 -38.9711 787.795 -36.6721ZM824.151 -43.4698C821.787 -39.5362 816.863 -38.2111 813.152 -40.51C809.441 -42.8089 808.348 -47.8614 810.712 -51.795C813.075 -55.7286 817.999 -57.0537 821.71 -54.7548C825.421 -52.4559 826.514 -47.4034 824.151 -43.4698ZM714.815 38.7012C710.911 36.7578 706.102 38.5229 704.075 42.6438C702.048 46.7646 703.57 51.6807 707.475 53.6241C711.38 55.5675 716.189 53.8024 718.216 49.6815C720.243 45.5607 718.72 40.6446 714.815 38.7012ZM737.07 33.7645C739.097 29.6436 743.905 27.8785 747.81 29.8219C751.715 31.7653 753.237 36.6813 751.21 40.8022C749.183 44.923 744.375 46.6882 740.47 44.7448C736.565 42.8014 735.043 37.8853 737.07 33.7645ZM729.491 -1.07356C725.586 -3.01697 720.778 -1.25182 718.751 2.86903C716.724 6.98987 718.246 11.9059 722.151 13.8493C726.056 15.7928 730.864 14.0276 732.891 9.90675C734.918 5.78591 733.396 0.869845 729.491 -1.07356ZM753.576 2.45325C755.603 -1.6676 760.412 -3.43275 764.317 -1.48934C768.222 0.454065 769.744 5.37013 767.717 9.49097C765.69 13.6118 760.881 15.377 756.976 13.4336C753.071 11.4902 751.549 6.57409 753.576 2.45325ZM773.468 40.8291C769.563 38.8857 764.754 40.6509 762.727 44.7717C760.7 48.8926 762.222 53.8086 766.127 55.752C770.032 57.6955 774.841 55.9303 776.868 51.8094C778.895 47.6886 777.373 42.7725 773.468 40.8291ZM745.795 -26.7995C747.822 -30.9204 752.631 -32.6855 756.536 -30.7421C760.44 -28.7987 761.963 -23.8826 759.936 -19.7618C757.909 -15.6409 753.1 -13.8758 749.195 -15.8192C745.29 -17.7626 743.768 -22.6787 745.795 -26.7995ZM806.481 -21.7922C802.576 -23.7357 797.767 -21.9705 795.74 -17.8496C793.713 -13.7288 795.235 -8.81275 799.14 -6.86933C803.045 -4.92591 807.854 -6.69107 809.881 -10.8119C811.908 -14.9328 810.386 -19.8488 806.481 -21.7922ZM778.014 7.8189C780.041 3.69805 784.849 1.93289 788.754 3.87631C792.659 5.81972 794.181 10.7358 792.154 14.8566C790.127 18.9775 785.319 20.7426 781.414 18.7992C777.509 16.8558 775.987 11.9397 778.014 7.8189ZM805.332 91.2493C801.428 89.3059 796.619 91.0711 794.592 95.1919C792.565 99.3127 794.087 104.229 797.992 106.172C801.897 108.116 806.705 106.35 808.733 102.23C810.76 98.1088 809.237 93.1927 805.332 91.2493ZM818.166 79.1133C820.193 74.9925 825.002 73.2273 828.907 75.1707C832.812 77.1141 834.334 82.0302 832.307 86.151C830.28 90.2719 825.471 92.037 821.566 90.0936C817.661 88.1502 816.139 83.2341 818.166 79.1133ZM797.598 58.2198C793.693 56.2764 788.884 58.0415 786.857 62.1623C784.83 66.2832 786.353 71.1993 790.257 73.1427C794.162 75.0861 798.971 73.3209 800.998 69.2001C803.025 65.0792 801.503 60.1632 797.598 58.2198ZM800.003 28.7703C802.03 24.6495 806.839 22.8843 810.744 24.8277C814.649 26.7711 816.171 31.6872 814.144 35.8081C812.117 39.9289 807.308 41.6941 803.403 39.7506C799.498 37.8072 797.976 32.8912 800.003 28.7703ZM858.84 79.0563C854.935 77.1129 850.127 78.878 848.1 82.9989C846.073 87.1197 847.595 92.0358 851.5 93.9792C855.405 95.9226 860.213 94.1574 862.24 90.0366C864.267 85.9157 862.745 80.9997 858.84 79.0563ZM847.048 31.0372C849.075 26.9163 853.883 25.1512 857.788 27.0946C861.693 29.038 863.215 33.954 861.188 38.0749C859.161 42.1957 854.352 43.9609 850.448 42.0175C846.543 40.0741 845.02 35.158 847.048 31.0372ZM833.818 -9.74373C829.913 -11.6871 825.105 -9.92198 823.077 -5.80114C821.05 -1.68029 822.573 3.23577 826.478 5.17918C830.382 7.1226 835.191 5.35743 837.218 1.23659C839.245 -2.88426 837.723 -7.80031 833.818 -9.74373ZM868.21 52.8822C870.237 48.7614 875.046 46.9962 878.951 48.9396C882.856 50.8831 884.378 55.7991 882.351 59.92C880.324 64.0408 875.515 65.806 871.61 63.8625C867.706 61.9191 866.183 57.0031 868.21 52.8822ZM834.411 46.8202C830.506 44.8768 825.697 46.6419 823.67 50.7628C821.643 54.8836 823.165 59.7997 827.07 61.7431C830.975 63.6865 835.784 61.9213 837.811 57.8005C839.838 53.6796 838.315 48.7636 834.411 46.8202ZM622.95 104.779C624.977 100.658 629.786 98.8927 633.69 100.836C637.595 102.78 639.118 107.696 637.091 111.816C635.063 115.937 630.255 117.702 626.35 115.759C622.445 113.816 620.923 108.9 622.95 104.779ZM646.226 64.6229C642.321 62.6795 637.512 64.4447 635.485 68.5655C633.458 72.6864 634.98 77.6024 638.885 79.5458C642.79 81.4892 647.599 79.7241 649.626 75.6032C651.653 71.4824 650.13 66.5663 646.226 64.6229ZM603.877 36.7681C605.904 32.6473 610.713 30.8821 614.618 32.8255C618.522 34.769 620.045 39.685 618.018 43.8059C615.991 47.9267 611.182 49.6919 607.277 47.7485C603.372 45.805 601.85 40.889 603.877 36.7681ZM682.287 16.1075C678.382 14.1641 673.573 15.9293 671.546 20.0501C669.519 24.1709 671.041 29.087 674.946 31.0304C678.851 32.9738 683.66 31.2087 685.687 27.0878C687.714 22.967 686.192 18.0509 682.287 16.1075ZM697.498 72.7751C699.525 68.6543 704.334 66.8891 708.239 68.8326C712.144 70.776 713.666 75.692 711.639 79.8129C709.612 83.9337 704.803 85.6989 700.898 83.7555C696.993 81.8121 695.471 76.896 697.498 72.7751ZM687.319 46.1005C683.415 44.1571 678.606 45.9223 676.579 50.0431C674.552 54.164 676.074 59.08 679.979 61.0234C683.884 62.9669 688.692 61.2017 690.719 57.0808C692.747 52.96 691.224 48.0439 687.319 46.1005ZM641.301 28.1895C643.328 24.0687 648.137 22.3035 652.042 24.2469C655.947 26.1903 657.469 31.1064 655.442 35.2272C653.415 39.3481 648.606 41.1133 644.701 39.1698C640.797 37.2264 639.274 32.3104 641.301 28.1895ZM672.905 235.077C669 233.134 664.192 234.899 662.165 239.02C660.138 243.14 661.66 248.057 665.565 250C669.47 251.943 674.278 250.178 676.305 246.057C678.332 241.937 676.81 237.02 672.905 235.077ZM686.618 190.643C688.645 186.522 693.454 184.757 697.358 186.7C701.263 188.644 702.786 193.56 700.759 197.681C698.731 201.801 693.923 203.567 690.018 201.623C686.113 199.68 684.591 194.764 686.618 190.643ZM735.418 100.329C731.513 98.3859 726.705 100.151 724.678 104.272C722.651 108.393 724.173 113.309 728.078 115.252C731.983 117.196 736.791 115.43 738.818 111.31C740.845 107.189 739.323 102.273 735.418 100.329ZM691.214 144.624C693.241 140.503 698.05 138.738 701.955 140.682C705.86 142.625 707.382 147.541 705.355 151.662C703.328 155.783 698.519 157.548 694.614 155.605C690.709 153.661 689.187 148.745 691.214 144.624ZM696.464 115.29C692.559 113.347 687.75 115.112 685.723 119.233C683.696 123.354 685.218 128.27 689.123 130.213C693.028 132.157 697.837 130.392 699.864 126.271C701.891 122.15 700.369 117.234 696.464 115.29ZM715.649 149.99C717.676 145.869 722.485 144.104 726.39 146.047C730.295 147.99 731.817 152.906 729.79 157.027C727.763 161.148 722.954 162.913 719.049 160.97C715.144 159.027 713.622 154.11 715.649 149.99ZM776.194 120.703C772.29 118.76 767.481 120.525 765.454 124.646C763.427 128.767 764.949 133.683 768.854 135.626C772.759 137.569 777.567 135.804 779.595 131.683C781.622 127.563 780.099 122.647 776.194 120.703ZM737.822 70.8799C739.849 66.759 744.658 64.9939 748.563 66.9373C752.468 68.8807 753.99 73.7968 751.963 77.9176C749.936 82.0385 745.127 83.8036 741.222 81.8602C737.317 79.9168 735.795 75.0007 737.822 70.8799ZM835.766 113.628C831.861 111.684 827.052 113.45 825.025 117.57C822.998 121.691 824.521 126.607 828.425 128.551C832.33 130.494 837.139 128.729 839.166 124.608C841.193 120.487 839.671 115.571 835.766 113.628ZM756.602 97.173C758.629 93.0521 763.438 91.287 767.343 93.2304C771.248 95.1738 772.77 100.09 770.743 104.211C768.716 108.332 763.907 110.097 760.002 108.153C756.097 106.21 754.575 101.294 756.602 97.173ZM804.426 204.161C800.521 202.218 795.713 203.983 793.686 208.104C791.658 212.224 793.181 217.141 797.086 219.084C800.99 221.027 805.799 219.262 807.826 215.141C809.853 211.021 808.331 206.104 804.426 204.161ZM790.969 175.373C792.996 171.253 797.805 169.487 801.71 171.431C805.615 173.374 807.137 178.29 805.11 182.411C803.083 186.532 798.274 188.297 794.369 186.354C790.465 184.41 788.942 179.494 790.969 175.373ZM804.601 130.971C800.696 129.027 795.887 130.793 793.86 134.913C791.833 139.034 793.355 143.95 797.26 145.894C801.165 147.837 805.974 146.072 808.001 141.951C810.028 137.83 808.506 132.914 804.601 130.971ZM847.154 168.506C849.181 164.386 853.99 162.62 857.895 164.564C861.8 166.507 863.322 171.423 861.295 175.544C859.268 179.665 854.459 181.43 850.554 179.487C846.65 177.543 845.127 172.627 847.154 168.506ZM839.437 148.411C835.532 146.468 830.723 148.233 828.696 152.354C826.669 156.474 828.191 161.391 832.096 163.334C836.001 165.277 840.81 163.512 842.837 159.391C844.864 155.271 843.342 150.354 839.437 148.411ZM869.765 169.718C871.792 165.597 876.601 163.832 880.506 165.775C884.411 167.719 885.933 172.635 883.906 176.756C881.879 180.876 877.07 182.642 873.165 180.698C869.26 178.755 867.738 173.839 869.765 169.718ZM805.79 244.098C801.885 242.155 797.076 243.92 795.049 248.041C793.022 252.161 794.544 257.077 798.449 259.021C802.354 260.964 807.163 259.199 809.19 255.078C811.217 250.957 809.694 246.041 805.79 244.098ZM823.631 185.118C825.658 180.997 830.467 179.232 834.372 181.175C838.276 183.119 839.799 188.035 837.772 192.156C835.745 196.277 830.936 198.042 827.031 196.098C823.126 194.155 821.604 189.239 823.631 185.118ZM780.305 159.9C776.4 157.956 771.591 159.722 769.564 163.842C767.537 167.963 769.06 172.879 772.965 174.823C776.869 176.766 781.678 175.001 783.705 170.88C785.732 166.759 784.21 161.843 780.305 159.9ZM871.152 129.041C873.179 124.92 877.988 123.155 881.892 125.098C885.797 127.042 887.32 131.958 885.292 136.079C883.265 140.2 878.457 141.965 874.552 140.021C870.647 138.078 869.125 133.162 871.152 129.041ZM877.471 97.9267C873.566 95.9833 868.757 97.7485 866.73 101.869C864.703 105.99 866.225 110.906 870.13 112.85C874.035 114.793 878.844 113.028 880.871 108.907C882.898 104.786 881.375 99.8701 877.471 97.9267ZM677.138 95.0241C675.337 99.2492 670.623 101.292 666.608 99.587C662.594 97.8819 660.8 93.0747 662.601 88.8496C664.402 84.6245 669.116 82.5817 673.13 84.2867C677.144 85.9918 678.938 90.799 677.138 95.0241ZM664.74 183.946C668.754 185.651 673.468 183.608 675.269 179.383C677.07 175.158 675.276 170.35 671.261 168.645C667.247 166.94 662.533 168.983 660.732 173.208C658.931 177.433 660.726 182.241 664.74 183.946ZM670.548 137.365C668.747 141.59 664.033 143.632 660.019 141.927C656.004 140.222 654.21 135.415 656.011 131.19C657.812 126.965 662.526 124.922 666.54 126.627C670.554 128.332 672.349 133.139 670.548 137.365ZM626.873 143.384C630.887 145.089 635.601 143.046 637.402 138.821C639.203 134.596 637.409 129.789 633.394 128.084C629.38 126.379 624.666 128.422 622.865 132.647C621.064 136.872 622.859 141.679 626.873 143.384ZM652.821 163.033C651.02 167.258 646.306 169.301 642.292 167.596C638.278 165.891 636.484 161.084 638.284 156.858C640.085 152.633 644.799 150.591 648.814 152.296C652.828 154.001 654.622 158.808 652.821 163.033ZM611.737 187.76C615.752 189.465 620.466 187.423 622.266 183.197C624.067 178.972 622.273 174.165 618.259 172.46C614.245 170.755 609.531 172.798 607.73 177.023C605.929 181.248 607.723 186.055 611.737 187.76ZM604.24 194.019C602.44 198.245 597.725 200.287 593.711 198.582C589.697 196.877 587.903 192.07 589.704 187.845C591.505 183.62 596.219 181.577 600.233 183.282C604.247 184.987 606.041 189.794 604.24 194.019ZM626.086 213.753C630.1 215.458 634.815 213.415 636.615 209.19C638.416 204.965 636.622 200.158 632.608 198.453C628.594 196.748 623.88 198.791 622.079 203.016C620.278 207.241 622.072 212.048 626.086 213.753ZM761.578 154.664C759.777 158.889 755.063 160.932 751.049 159.227C747.034 157.522 745.24 152.714 747.041 148.489C748.842 144.264 753.556 142.221 757.57 143.926C761.584 145.631 763.379 150.439 761.578 154.664ZM779.28 242.685C783.295 244.39 788.009 242.347 789.809 238.122C791.61 233.897 789.816 229.09 785.802 227.385C781.788 225.68 777.074 227.722 775.273 231.947C773.472 236.173 775.266 240.98 779.28 242.685ZM742.782 182.112C740.981 186.337 736.267 188.38 732.253 186.675C728.239 184.97 726.445 180.163 728.245 175.938C730.046 171.713 734.76 169.67 738.775 171.375C742.789 173.08 744.583 177.887 742.782 182.112ZM760.352 208.968C764.366 210.673 769.08 208.63 770.881 204.405C772.682 200.18 770.888 195.373 766.874 193.668C762.859 191.963 758.145 194.006 756.344 198.231C754.544 202.456 756.338 207.263 760.352 208.968ZM668.233 214.116C666.432 218.341 661.718 220.384 657.703 218.679C653.689 216.974 651.895 212.167 653.696 207.942C655.497 203.717 660.211 201.674 664.225 203.379C668.239 205.084 670.033 209.891 668.233 214.116ZM731.784 218.149C735.798 219.854 740.512 217.811 742.313 213.586C744.114 209.361 742.32 204.553 738.306 202.848C734.292 201.143 729.578 203.186 727.777 207.411C725.976 211.636 727.77 216.443 731.784 218.149ZM864.97 208.94C863.169 213.165 858.455 215.208 854.441 213.502C850.426 211.797 848.632 206.99 850.433 202.765C852.234 198.54 856.948 196.497 860.962 198.202C864.976 199.907 866.771 204.715 864.97 208.94ZM877.286 217.288C881.3 218.993 886.014 216.95 887.815 212.725C889.616 208.5 887.821 203.692 883.807 201.987C879.793 200.282 875.079 202.325 873.278 206.55C871.477 210.775 873.271 215.583 877.286 217.288ZM890.122 247.588C888.321 251.813 883.607 253.856 879.593 252.151C875.579 250.445 873.784 245.638 875.585 241.413C877.386 237.188 882.1 235.145 886.114 236.85C890.129 238.555 891.923 243.363 890.122 247.588ZM823.276 230.846C827.291 232.551 832.005 230.508 833.806 226.283C835.606 222.058 833.812 217.25 829.798 215.545C825.784 213.84 821.07 215.883 819.269 220.108C817.468 224.333 819.262 229.141 823.276 230.846ZM865.873 253.478C864.072 257.703 859.358 259.746 855.344 258.041C851.33 256.336 849.536 251.529 851.337 247.304C853.138 243.079 857.852 241.036 861.866 242.741C865.88 244.446 867.674 249.253 865.873 253.478ZM863.275 294.717C867.289 296.422 872.003 294.379 873.804 290.154C875.605 285.929 873.811 281.122 869.797 279.417C865.783 277.712 861.069 279.754 859.268 283.98C857.467 288.205 859.261 293.012 863.275 294.717ZM810.412 299.75C808.611 303.975 803.897 306.018 799.883 304.313C795.869 302.608 794.075 297.801 795.876 293.576C797.677 289.35 802.391 287.308 806.405 289.013C810.419 290.718 812.213 295.525 810.412 299.75ZM823.756 262.315C827.77 264.02 832.484 261.977 834.285 257.752C836.086 253.527 834.291 248.72 830.277 247.015C826.263 245.31 821.549 247.352 819.748 251.578C817.947 255.803 819.741 260.61 823.756 262.315ZM896.651 293.94C894.85 298.165 890.136 300.207 886.122 298.502C882.107 296.797 880.313 291.99 882.114 287.765C883.915 283.54 888.629 281.497 892.643 283.202C896.657 284.907 898.452 289.714 896.651 293.94ZM884.495 332.295C888.509 334.001 893.223 331.958 895.024 327.733C896.825 323.508 895.031 318.7 891.017 316.995C887.003 315.29 882.289 317.333 880.488 321.558C878.687 325.783 880.481 330.59 884.495 332.295ZM872.265 323.408C870.464 327.633 865.75 329.676 861.736 327.971C857.722 326.266 855.928 321.458 857.729 317.233C859.529 313.008 864.243 310.965 868.258 312.671C872.272 314.376 874.066 319.183 872.265 323.408ZM830.282 308.667C834.296 310.372 839.01 308.329 840.811 304.104C842.612 299.879 840.817 295.072 836.803 293.367C832.789 291.662 828.075 293.705 826.274 297.93C824.473 302.155 826.268 306.962 830.282 308.667ZM869.66 358.442C867.859 362.667 863.145 364.71 859.131 363.005C855.116 361.3 853.322 356.493 855.123 352.268C856.924 348.043 861.638 346 865.652 347.705C869.666 349.41 871.461 354.217 869.66 358.442ZM877.15 379.054C881.164 380.759 885.878 378.716 887.679 374.491C889.48 370.266 887.686 365.459 883.672 363.754C879.658 362.048 874.944 364.091 873.143 368.316C871.342 372.541 873.136 377.349 877.15 379.054ZM822.014 326.483C820.213 330.708 815.499 332.751 811.485 331.046C807.471 329.341 805.676 324.533 807.477 320.308C809.278 316.083 813.992 314.04 818.006 315.745C822.021 317.45 823.815 322.258 822.014 326.483ZM832.592 343.529C836.606 345.235 841.32 343.192 843.121 338.967C844.922 334.742 843.127 329.934 839.113 328.229C835.099 326.524 830.385 328.567 828.584 332.792C826.783 337.017 828.577 341.824 832.592 343.529ZM694.575 250.869C698.972 250.527 702.668 253.933 702.831 258.476C702.994 263.019 699.562 266.98 695.165 267.322C690.768 267.664 687.072 264.258 686.909 259.715C686.747 255.171 690.179 251.211 694.575 250.869ZM729.292 272.916C729.129 268.373 725.433 264.967 721.036 265.309C716.64 265.651 713.208 269.612 713.37 274.155C713.533 278.698 717.229 282.104 721.626 281.762C726.023 281.42 729.455 277.459 729.292 272.916ZM725.901 228.618C730.298 228.276 733.994 231.682 734.157 236.225C734.319 240.768 730.887 244.729 726.49 245.071C722.094 245.413 718.398 242.007 718.235 237.464C718.072 232.92 721.504 228.96 725.901 228.618ZM708.5 225.217C708.338 220.673 704.641 217.268 700.245 217.61C695.848 217.952 692.416 221.912 692.579 226.455C692.741 230.999 696.438 234.404 700.834 234.062C705.231 233.72 708.663 229.76 708.5 225.217ZM759.03 280.904C763.427 280.562 767.123 283.967 767.285 288.511C767.448 293.054 764.016 297.014 759.619 297.356C755.223 297.698 751.527 294.292 751.364 289.749C751.201 285.206 754.633 281.246 759.03 280.904ZM774.473 261.2C774.31 256.657 770.614 253.251 766.217 253.593C761.821 253.936 758.389 257.896 758.551 262.439C758.714 266.982 762.41 270.388 766.807 270.046C771.204 269.704 774.636 265.744 774.473 261.2ZM601.907 112.714C606.304 112.371 610 115.777 610.163 120.32C610.326 124.864 606.894 128.824 602.497 129.166C598.1 129.508 594.404 126.102 594.241 121.559C594.079 117.016 597.511 113.056 601.907 112.714ZM787.136 313.023C786.973 308.48 783.277 305.074 778.88 305.416C774.484 305.758 771.051 309.719 771.214 314.262C771.377 318.805 775.073 322.211 779.47 321.869C783.866 321.527 787.299 317.566 787.136 313.023ZM745.449 238.284C749.846 237.942 753.542 241.348 753.705 245.891C753.868 250.435 750.435 254.395 746.039 254.737C741.642 255.079 737.946 251.673 737.783 247.13C737.62 242.587 741.053 238.626 745.449 238.284ZM496.117 125.982C495.955 121.438 492.258 118.033 487.862 118.375C483.465 118.717 480.033 122.677 480.196 127.22C480.359 131.764 484.055 135.169 488.451 134.827C492.848 134.485 496.28 130.525 496.117 125.982ZM514.324 132.815C518.721 132.472 522.417 135.878 522.58 140.421C522.742 144.965 519.31 148.925 514.914 149.267C510.517 149.609 506.821 146.203 506.658 141.66C506.495 137.117 509.927 133.157 514.324 132.815ZM469.03 113.519C468.867 108.976 465.171 105.57 460.775 105.912C456.378 106.255 452.946 110.215 453.109 114.758C453.271 119.301 456.967 122.707 461.364 122.365C465.761 122.023 469.193 118.063 469.03 113.519ZM533.492 65.4454C537.889 65.1034 541.585 68.5091 541.748 73.0524C541.91 77.5956 538.478 81.556 534.082 81.898C529.685 82.2401 525.989 78.8344 525.826 74.2911C525.663 69.7478 529.095 65.7875 533.492 65.4454ZM504.623 96.4773C504.46 91.934 500.764 88.5283 496.367 88.8703C491.97 89.2124 488.538 93.1727 488.701 97.716C488.864 102.259 492.56 105.665 496.956 105.323C501.353 104.981 504.785 101.021 504.623 96.4773ZM540.798 153.042C545.195 152.7 548.891 156.106 549.054 160.649C549.216 165.193 545.784 169.153 541.388 169.495C536.991 169.837 533.295 166.431 533.132 161.888C532.969 157.345 536.401 153.385 540.798 153.042ZM548.158 130.182C547.995 125.639 544.299 122.233 539.902 122.575C535.506 122.917 532.073 126.877 532.236 131.421C532.399 135.964 536.095 139.37 540.492 139.027C544.888 138.685 548.321 134.725 548.158 130.182ZM568.595 160.489C572.992 160.147 576.688 163.553 576.85 168.096C577.013 172.639 573.581 176.6 569.184 176.942C564.788 177.284 561.092 173.878 560.929 169.335C560.766 164.791 564.198 160.831 568.595 160.489ZM572.335 136.55C572.172 132.007 568.476 128.601 564.079 128.943C559.683 129.286 556.25 133.246 556.413 137.789C556.576 142.332 560.272 145.738 564.669 145.396C569.065 145.054 572.498 141.094 572.335 136.55ZM585.878 85.6802C590.274 85.3382 593.97 88.7439 594.133 93.2872C594.296 97.8305 590.864 101.791 586.467 102.133C582.07 102.475 578.374 99.0692 578.211 94.5259C578.049 89.9826 581.481 86.0223 585.878 85.6802ZM622.699 84.1073C622.537 79.564 618.841 76.1582 614.444 76.5003C610.047 76.8424 606.615 80.8027 606.778 85.346C606.941 89.8892 610.637 93.295 615.033 92.9529C619.43 92.6109 622.862 88.6505 622.699 84.1073ZM571.987 55.0861C576.384 54.7441 580.08 58.1498 580.242 62.6931C580.405 67.2364 576.973 71.1967 572.576 71.5388C568.18 71.8808 564.484 68.4751 564.321 63.9318C564.158 59.3885 567.59 55.4282 571.987 55.0861ZM706.123 -1.03716C705.96 -5.58042 702.264 -8.98618 697.867 -8.64411C693.471 -8.30206 690.038 -4.34172 690.201 0.201537C690.364 4.7448 694.06 8.15056 698.457 7.8085C702.853 7.46644 706.285 3.5061 706.123 -1.03716ZM550.591 90.6979C554.988 90.3558 558.684 93.7616 558.847 98.3048C559.009 102.848 555.577 106.808 551.18 107.15C546.784 107.493 543.088 104.087 542.925 99.5435C542.762 95.0003 546.194 91.0399 550.591 90.6979ZM604.196 153.274C604.033 148.731 600.337 145.325 595.94 145.667C591.543 146.009 588.111 149.969 588.274 154.512C588.437 159.056 592.133 162.462 596.529 162.119C600.926 161.777 604.358 157.817 604.196 153.274Z" fill="#95F1F7" fill-opacity="0.5"/>
<path d="M242.058 1038.61L240.009 1039.05C225.57 1042.15 210.36 1039.05 198.113 1030.51L185.518 1021.73C177.146 1015.89 168.041 1011.18 158.449 1007.73C135.204 999.361 119.039 977.86 117.503 953.536C115.511 921.971 140.297 895.307 172.182 895.073L200.803 894.863C203.677 894.842 206.548 895.228 209.328 896.009L224.478 900.268C278.31 915.399 300.605 979.433 267.157 1022.85C260.966 1030.88 252.086 1036.46 242.058 1038.61Z" fill="#95F1F7" fill-opacity="0.6"/>
<path d="M81.2394 703.799L46.1073 742.23C45.4507 742.949 46.1029 744.086 47.0546 743.883L62.4137 740.598C62.8854 740.497 63.3618 740.747 63.5466 741.193L69.509 755.573C69.8823 756.473 71.1915 756.362 71.4078 755.412L82.9526 704.695C83.1804 703.694 81.9322 703.041 81.2394 703.799Z" stroke="#95F1F7" stroke-width="9"/>
<path opacity="0.6" d="M361.338 314.858L359.058 318.772C355.59 324.725 349.754 328.936 342.942 330.398C334.518 332.205 325.651 329.83 319.163 324.027L309.857 315.705C304.175 310.624 297.834 306.321 291.011 302.916C276.982 295.916 267.484 282.273 265.928 266.885L265.771 265.333C263.139 239.326 284.149 217.411 310.478 218.699L312.063 218.776C314.839 218.912 317.582 219.516 320.172 220.563L329.044 224.147C365.336 238.813 380.623 281.751 361.338 314.858Z" fill="#95F1F7" fill-opacity="0.6"/>
<path opacity="0.8" d="M263.382 24.3242C263.382 33.3398 255.686 40.6484 246.191 40.6484C236.697 40.6484 229 33.3398 229 24.3242C229 15.3086 236.697 8 246.191 8C255.686 8 263.382 15.3086 263.382 24.3242Z" fill="#705EDF" fill-opacity="0.5"/>
<g opacity="0.6">
<g opacity="0.5">
<path d="M738.14 413.296L723.161 419.803L724.647 403.023C725.321 395.403 731.137 389.133 738.781 387.784L745.009 379.023L753.959 385.151L747.731 393.913C749.803 401.762 745.726 410 738.14 413.296Z" stroke="#8D7DEB" stroke-width="7"/>
<ellipse rx="3.34646" ry="3.48759" transform="matrix(-0.821957 -0.562788 0.58141 -0.817932 736.593 399.865)" fill="#8D7DEB" fill-opacity="0.5"/>
<line y1="-2.5" x2="24.9114" y2="-2.5" transform="matrix(0.58141 -0.817932 0.821957 0.562788 724.658 419.615)" stroke="#8D7DEB" stroke-width="5"/>
</g>
<path fill-rule="evenodd" clip-rule="evenodd" d="M783.37 415.871C783.885 416.119 784.398 416.374 784.909 416.638C817.468 433.431 829.179 475.201 811.064 509.934C792.95 544.667 751.871 559.21 719.311 542.417C686.751 525.624 675.041 483.854 693.155 449.121C696.906 441.93 701.64 435.605 707.08 430.243L714.535 434.088C708.695 439.236 703.651 445.572 699.8 452.956C683.996 483.258 694.277 519.733 722.762 534.425C751.248 549.117 787.151 536.461 802.955 506.159C818.759 475.856 808.478 439.381 779.993 424.689C779.671 424.523 779.349 424.361 779.025 424.202L783.37 415.871Z" fill="#8D7DEB" fill-opacity="0.5"/>
</g>
<path opacity="0.5" fill-rule="evenodd" clip-rule="evenodd" d="M133.865 251.094C133.163 250.213 132.429 249.354 131.664 248.52C131.118 247.925 130.56 247.347 129.989 246.785L-40.1844 419.931C-39.6706 420.551 -39.1407 421.158 -38.5946 421.753C-37.8292 422.587 -37.0398 423.389 -36.2274 424.158L133.865 251.094ZM138.264 257.625L-30.1798 429.012C-28.5347 430.125 -26.822 431.134 -25.0472 432.042L140.964 263.131C140.164 261.232 139.264 259.395 138.264 257.625ZM143.717 271.334L-17.3555 435.221C-15.2652 435.899 -13.1112 436.46 -10.9001 436.905L145.094 278.186C144.747 275.844 144.289 273.557 143.717 271.334ZM145.9 288.364L-1.26769 438.103C1.38224 438.242 4.09213 438.238 6.85237 438.093L145.613 296.909C145.845 294.009 145.941 291.158 145.9 288.364ZM143.752 309.808L19.1589 436.578C22.6714 435.909 26.2378 435.036 29.8408 433.962L140.903 320.96C142.045 317.205 142.997 313.482 143.752 309.808ZM134.075 338.913L47.1143 427.393C52.9285 424.709 58.7655 421.539 64.5568 417.899L124.465 356.944C128.119 350.974 131.328 344.94 134.075 338.913ZM-44.6922 413.518L124.057 241.821C122.442 240.679 120.758 239.639 119.012 238.701L-47.4798 408.102C-46.6494 409.971 -45.7207 411.778 -44.6922 413.518ZM-50.3574 400.026L111.446 235.395C109.391 234.684 107.271 234.088 105.094 233.606L-51.8377 393.279C-51.4552 395.587 -50.9624 397.838 -50.3574 400.026ZM-52.7999 383.251L95.6096 232.249C93.006 232.066 90.3421 232.023 87.6273 232.118L-52.6502 374.846C-52.8341 377.7 -52.8848 380.505 -52.7999 383.251ZM-51.0243 362.194L75.5627 233.395C72.1319 233.989 68.6467 234.78 65.1232 235.764L-48.4175 351.289C-49.473 354.963 -50.3432 358.603 -51.0243 362.194ZM-42.1276 333.881L48.3864 241.786C42.9048 244.192 37.3942 247.032 31.9125 250.295L-33.4863 316.836C-36.7711 322.493 -39.6563 328.194 -42.1276 333.881Z" fill="#95F1F7"/>
</g>
<defs>
<clipPath id="clip0">
<rect width="862" height="1024" fill="white"/>
</clipPath>
</defs>
</svg>
