<svg width="450" height="385" viewBox="0 0 450 385" fill="none" xmlns="http://www.w3.org/2000/svg">
<path d="M404.1 300.625H48.1C45.3 300.625 43.1 298.325 43.1 295.625V173.225C43.1 172.025 43.5 170.825 44.3 169.925L114.1 89.925C115.1 88.825 116.4 88.225 117.9 88.225H346C347.5 88.225 348.9 88.825 349.8 90.025L412.1 163.125C414.9 166.425 412.6 171.425 408.3 171.425H178.1C176.7 171.425 175.3 170.825 174.3 169.725L102.2 87.725C100.2 85.425 96.6 85.425 94.6 87.725L40.2 149.825C37.3 153.125 39.7 158.225 44 158.225H384C386.8 158.225 389 160.525 389 163.225V266.325C389 269.125 386.7 271.325 384 271.325H364.6H331.1C328.3 271.325 326.1 269.025 326.1 266.325V206.125C326.1 203.325 328.4 201.125 331.1 201.125H353.5C356.3 201.125 358.5 203.425 358.5 206.125V237.225C358.5 240.025 356.2 242.225 353.5 242.225H260.6C257.8 242.225 255.6 239.925 255.6 237.225V206.125C255.6 203.325 257.9 201.125 260.6 201.125H281.7C284.5 201.125 286.7 203.425 286.7 206.125L287.4 266.225C287.4 269.025 285.1 271.225 282.4 271.225H191C188.2 271.225 186 268.925 186 266.225L185.3 206.125C185.3 203.325 187.6 201.125 190.3 201.125H207.6C210.4 201.125 212.6 203.425 212.6 206.125V251.625C212.6 254.425 210.3 256.625 207.6 256.625H157.7C154.9 256.625 152.7 254.325 152.7 251.625V196.725C152.7 193.925 150.4 191.725 147.7 191.725H92C89.2 191.725 87 194.025 87 196.725V240.925C87 243.725 89.3 245.925 92 245.925H134.5C137.3 245.925 139.5 243.625 139.5 240.925V206.125C139.5 203.325 137.2 201.125 134.5 201.125H75.3C72.5 201.125 70.3 203.425 70.3 206.125V266.225C70.3 269.025 72.6 271.225 75.3 271.225H164.2C167 271.225 169.2 268.925 169.2 266.225V253.825V189.625C169.2 186.825 171.5 184.625 174.2 184.625H223.3C226.1 184.625 228.3 186.925 228.3 189.625V273.625C228.3 276.425 230.6 278.625 233.3 278.625H235.8C238.6 278.625 240.8 276.325 240.8 273.625V189.625C240.8 186.825 243.1 184.625 245.8 184.625H294.9C297.7 184.625 299.9 186.925 299.9 189.625V273.625C299.9 276.425 302.2 278.625 304.9 278.625H307.4C310.2 278.625 312.4 276.325 312.4 273.625V189.625C312.4 186.825 314.7 184.625 317.4 184.625H367C369.8 184.625 372 186.925 372 189.625V280.825C372 283.625 369.7 285.825 367 285.825H28" stroke="#F2F2F2" stroke-width="1.25" stroke-miterlimit="10"/>
</svg>
