<svg width="368" height="362" viewBox="0 0 368 362" fill="none" xmlns="http://www.w3.org/2000/svg">
<rect width="368" height="362" rx="8" fill="white"/>
<rect width="368" height="289.379" rx="8" fill="white"/>
<rect width="368" height="289.379" rx="8" fill="url(#paint0_linear)"/>
<rect x="28" y="292.5" width="312" height="39" rx="4" fill="white"/>
<path d="M104.363 311.88H100.622V308.138C100.622 307.797 100.343 307.518 100.001 307.518C99.6602 307.518 99.3811 307.797 99.3811 308.138V311.88H95.6398C95.2987 311.88 95.0195 312.159 95.0195 312.5C95.0195 312.671 95.0893 312.826 95.2017 312.938C95.3142 313.051 95.4693 313.12 95.6398 313.12H99.3811V316.862C99.3811 317.032 99.4509 317.187 99.5633 317.3C99.6757 317.412 99.8308 317.482 100.001 317.482C100.343 317.482 100.622 317.203 100.622 316.862V313.12H104.363C104.704 313.12 104.983 312.841 104.983 312.5C104.983 312.159 104.704 311.88 104.363 311.88Z" fill="#282424"/>
<path d="M117.824 306.7H115.836L112.322 316.5H114.268L114.926 314.442H118.734L119.392 316.5H121.338L117.824 306.7ZM116.83 308.464L118.23 312.888H115.416L116.83 308.464ZM125.157 316.668C126.207 316.668 126.949 316.192 127.313 315.632V316.5H129.133V306.28H127.229V310.004C126.823 309.458 126.109 309.052 125.143 309.052C123.183 309.052 122.091 310.508 122.091 312.258V313.462C122.091 315.184 123.197 316.668 125.157 316.668ZM125.619 315.128C124.513 315.128 123.995 314.344 123.995 313.378V312.342C123.995 311.32 124.555 310.592 125.633 310.592C126.501 310.592 127.229 311.208 127.229 312.314V313.378C127.229 314.4 126.585 315.128 125.619 315.128ZM133.756 316.668C134.806 316.668 135.548 316.192 135.912 315.632V316.5H137.732V306.28H135.828V310.004C135.422 309.458 134.708 309.052 133.742 309.052C131.782 309.052 130.69 310.508 130.69 312.258V313.462C130.69 315.184 131.796 316.668 133.756 316.668ZM134.218 315.128C133.112 315.128 132.594 314.344 132.594 313.378V312.342C132.594 311.32 133.154 310.592 134.232 310.592C135.1 310.592 135.828 311.208 135.828 312.314V313.378C135.828 314.4 135.184 315.128 134.218 315.128ZM145.516 316.668C147.322 316.668 148.666 315.646 148.666 314.232C148.666 313.21 148.12 312.636 147.042 312.37L144.83 311.824C144.452 311.74 144.27 311.572 144.27 311.208C144.27 310.69 144.69 310.41 145.46 310.41C146.3 310.41 146.65 310.802 146.65 311.362V311.488H148.316V311.376C148.316 309.934 147.182 309.052 145.432 309.052C143.71 309.052 142.492 309.878 142.492 311.376C142.492 312.482 143.066 313.042 144.158 313.294L146.314 313.784C146.734 313.882 146.916 314.092 146.916 314.442C146.916 315.002 146.328 315.324 145.53 315.324C144.634 315.324 144.06 314.946 144.06 314.316V314.218H142.38V314.344C142.38 315.898 143.668 316.668 145.516 316.668ZM153.192 316.668C154.802 316.668 156.104 315.702 156.356 314.372H154.69C154.508 314.876 154.004 315.296 153.192 315.296C152.086 315.296 151.652 314.554 151.652 313.7V313.518H156.412V312.244C156.412 310.494 155.32 309.052 153.164 309.052C150.98 309.052 149.804 310.452 149.804 312.426V313.42C149.804 315.464 151.134 316.668 153.192 316.668ZM151.652 312.104C151.652 311.124 152.072 310.396 153.164 310.396C154.186 310.396 154.662 311.082 154.662 311.992V312.174H151.652V312.104ZM157.959 316.5H159.863V313.14C159.863 311.67 160.535 311.054 161.781 311.054H162.173V309.164H161.949C160.857 309.164 160.003 309.542 159.765 310.634V309.22H157.959V316.5ZM169.903 309.22H167.999L166.431 314.554L164.863 309.22H162.959L165.437 316.5H167.425L169.903 309.22ZM171.031 316.5H172.935V309.22H171.031V316.5ZM170.877 307.316C170.877 307.946 171.339 308.422 171.983 308.422C172.627 308.422 173.089 307.946 173.089 307.316C173.089 306.686 172.627 306.21 171.983 306.21C171.339 306.21 170.877 306.686 170.877 307.316ZM177.98 316.668C179.926 316.668 181.242 315.45 181.298 313.784H179.562C179.478 314.498 179.03 315.128 178.022 315.128C176.944 315.128 176.44 314.428 176.44 313.448V312.272C176.44 311.292 176.944 310.592 178.022 310.592C179.03 310.592 179.478 311.222 179.562 311.936H181.298C181.242 310.27 179.926 309.052 177.98 309.052C175.782 309.052 174.536 310.438 174.536 312.342V313.378C174.536 315.282 175.782 316.668 177.98 316.668ZM185.922 316.668C187.532 316.668 188.834 315.702 189.086 314.372H187.42C187.238 314.876 186.734 315.296 185.922 315.296C184.816 315.296 184.382 314.554 184.382 313.7V313.518H189.142V312.244C189.142 310.494 188.05 309.052 185.894 309.052C183.71 309.052 182.534 310.452 182.534 312.426V313.42C182.534 315.464 183.864 316.668 185.922 316.668ZM184.382 312.104C184.382 311.124 184.802 310.396 185.894 310.396C186.916 310.396 187.392 311.082 187.392 311.992V312.174H184.382V312.104ZM196.51 316.668C197.56 316.668 198.302 316.192 198.666 315.632V316.5H200.486V306.28H198.582V310.004C198.176 309.458 197.462 309.052 196.496 309.052C194.536 309.052 193.444 310.508 193.444 312.258V313.462C193.444 315.184 194.55 316.668 196.51 316.668ZM196.972 315.128C195.866 315.128 195.348 314.344 195.348 313.378V312.342C195.348 311.32 195.908 310.592 196.986 310.592C197.854 310.592 198.582 311.208 198.582 312.314V313.378C198.582 314.4 197.938 315.128 196.972 315.128ZM205.432 316.668C207.042 316.668 208.344 315.702 208.596 314.372H206.93C206.748 314.876 206.244 315.296 205.432 315.296C204.326 315.296 203.892 314.554 203.892 313.7V313.518H208.652V312.244C208.652 310.494 207.56 309.052 205.404 309.052C203.22 309.052 202.044 310.452 202.044 312.426V313.42C202.044 315.464 203.374 316.668 205.432 316.668ZM203.892 312.104C203.892 311.124 204.312 310.396 205.404 310.396C206.426 310.396 206.902 311.082 206.902 311.992V312.174H203.892V312.104ZM214.176 309.052C213.126 309.052 212.384 309.528 212.02 310.088V309.22H210.2V318.936H212.104V315.716C212.482 316.276 213.224 316.668 214.19 316.668C216.15 316.668 217.242 315.212 217.242 313.462V312.258C217.242 310.536 216.178 309.052 214.176 309.052ZM213.714 310.592C214.82 310.592 215.338 311.376 215.338 312.342V313.378C215.338 314.4 214.778 315.128 213.7 315.128C212.832 315.128 212.104 314.512 212.104 313.406V312.342C212.104 311.32 212.748 310.592 213.714 310.592ZM221.865 316.668C223.475 316.668 224.777 315.702 225.029 314.372H223.363C223.181 314.876 222.677 315.296 221.865 315.296C220.759 315.296 220.325 314.554 220.325 313.7V313.518H225.085V312.244C225.085 310.494 223.993 309.052 221.837 309.052C219.653 309.052 218.477 310.452 218.477 312.426V313.42C218.477 315.464 219.807 316.668 221.865 316.668ZM220.325 312.104C220.325 311.124 220.745 310.396 221.837 310.396C222.859 310.396 223.335 311.082 223.335 311.992V312.174H220.325V312.104ZM226.633 316.5H228.537V312.188C228.537 311.208 229.083 310.704 229.937 310.704C230.861 310.704 231.267 311.306 231.267 312.146V316.5H233.171V311.838C233.171 310.088 232.177 309.052 230.595 309.052C229.559 309.052 228.817 309.416 228.453 310.088V309.22H226.633V316.5ZM237.717 316.668C238.767 316.668 239.509 316.192 239.873 315.632V316.5H241.693V306.28H239.789V310.004C239.383 309.458 238.669 309.052 237.703 309.052C235.743 309.052 234.651 310.508 234.651 312.258V313.462C234.651 315.184 235.757 316.668 237.717 316.668ZM238.179 315.128C237.073 315.128 236.555 314.344 236.555 313.378V312.342C236.555 311.32 237.115 310.592 238.193 310.592C239.061 310.592 239.789 311.208 239.789 312.314V313.378C239.789 314.4 239.145 315.128 238.179 315.128ZM246.639 316.668C248.249 316.668 249.551 315.702 249.803 314.372H248.137C247.955 314.876 247.451 315.296 246.639 315.296C245.533 315.296 245.099 314.554 245.099 313.7V313.518H249.859V312.244C249.859 310.494 248.767 309.052 246.611 309.052C244.427 309.052 243.251 310.452 243.251 312.426V313.42C243.251 315.464 244.581 316.668 246.639 316.668ZM245.099 312.104C245.099 311.124 245.519 310.396 246.611 310.396C247.633 310.396 248.109 311.082 248.109 311.992V312.174H245.099V312.104ZM251.407 316.5H253.311V312.188C253.311 311.208 253.857 310.704 254.711 310.704C255.635 310.704 256.041 311.306 256.041 312.146V316.5H257.945V311.838C257.945 310.088 256.951 309.052 255.369 309.052C254.333 309.052 253.591 309.416 253.227 310.088V309.22H251.407V316.5ZM262.869 316.668C264.815 316.668 266.131 315.45 266.187 313.784H264.451C264.367 314.498 263.919 315.128 262.911 315.128C261.833 315.128 261.329 314.428 261.329 313.448V312.272C261.329 311.292 261.833 310.592 262.911 310.592C263.919 310.592 264.367 311.222 264.451 311.936H266.187C266.131 310.27 264.815 309.052 262.869 309.052C260.671 309.052 259.425 310.438 259.425 312.342V313.378C259.425 315.282 260.671 316.668 262.869 316.668ZM270.56 318.936L273.738 309.22H271.848L270.364 314.442L268.796 309.22H266.892L269.412 316.472L268.684 318.936H270.56Z" fill="#282424"/>
<rect x="28.5" y="286.5" width="311" height="51" rx="1.5" stroke="#767676" stroke-dasharray="4 3"/>
<rect y="263" width="368" height="1" fill="#DFDFDF"/>
<path d="M30.808 51H32.68V35.76H37.816V34.2H25.672V35.76H30.808V51ZM43.0883 51.288C45.6563 51.288 47.6963 49.728 48.1043 47.52H46.4723C46.0643 48.912 44.9363 49.896 43.0883 49.896C40.5203 49.896 39.4163 48.168 39.4163 46.032V45.6H48.2243V43.776C48.2243 40.752 46.5203 38.424 43.0163 38.424C39.5603 38.424 37.6643 40.632 37.6643 43.968V45.936C37.6643 49.248 39.8963 51.288 43.0883 51.288ZM39.4163 43.824C39.4163 41.568 40.3763 39.816 43.0163 39.816C45.4163 39.816 46.5203 41.448 46.5203 43.632V44.208H39.4163V43.824ZM56.4014 51.288C59.4974 51.288 61.5134 49.272 61.6574 46.68H60.0254C59.7854 48.336 58.7534 49.848 56.4254 49.848C53.9054 49.848 52.7294 48.216 52.7294 45.912V43.8C52.7294 41.496 53.9054 39.864 56.4254 39.864C58.7534 39.864 59.7854 41.376 60.0254 43.032H61.6574C61.5134 40.44 59.4974 38.424 56.4014 38.424C52.9934 38.424 50.9534 40.728 50.9534 43.824V45.888C50.9534 48.984 52.9934 51.288 56.4014 51.288ZM64.9831 51H66.8071V43.776C66.8071 41.232 68.3431 40.008 70.3591 40.008C72.5671 40.008 73.5031 41.424 73.5031 43.512V51H75.3271V43.248C75.3271 40.296 73.5751 38.424 70.8151 38.424C68.7751 38.424 67.5031 39.336 66.8071 40.608V33.48H64.9831V51ZM79.0925 51H80.9165V43.776C80.9165 41.232 82.4525 40.008 84.4685 40.008C86.6765 40.008 87.6125 41.424 87.6125 43.512V51H89.4365V43.248C89.4365 40.296 87.6845 38.424 84.9245 38.424C82.7885 38.424 81.3965 39.408 80.8205 40.8V38.712H79.0925V51ZM93.3218 51H95.1458V38.712H93.3218V51ZM93.0818 35.472C93.0818 36.12 93.5378 36.576 94.2338 36.576C94.9298 36.576 95.3858 36.12 95.3858 35.472C95.3858 34.824 94.9298 34.368 94.2338 34.368C93.5378 34.368 93.0818 34.824 93.0818 35.472ZM104.003 51.288C107.099 51.288 109.115 49.272 109.259 46.68H107.627C107.387 48.336 106.355 49.848 104.027 49.848C101.507 49.848 100.331 48.216 100.331 45.912V43.8C100.331 41.496 101.507 39.864 104.027 39.864C106.355 39.864 107.387 41.376 107.627 43.032H109.259C109.115 40.44 107.099 38.424 104.003 38.424C100.595 38.424 98.555 40.728 98.555 43.824V45.888C98.555 48.984 100.595 51.288 104.003 51.288ZM122.665 51V42.84C122.665 40.416 120.841 38.424 117.793 38.424C115.369 38.424 113.641 39.672 113.017 41.712H114.697C115.201 40.584 116.209 39.864 117.769 39.864C119.737 39.864 120.841 41.16 120.841 42.84V45.12C120.145 44.4 118.849 43.584 116.905 43.584C113.977 43.584 112.033 45.048 112.033 47.424C112.033 49.656 113.785 51.288 116.689 51.288C118.729 51.288 120.385 50.328 120.913 49.464V51H122.665ZM117.073 50.112C115.177 50.112 113.761 49.152 113.761 47.448C113.761 45.744 115.129 44.784 117.169 44.784C119.017 44.784 120.841 45.864 120.841 47.4C120.841 48.984 118.993 50.112 117.073 50.112ZM126.533 51H128.357V33.48H126.533V51ZM143.615 51.336C147.191 51.336 149.855 49.44 149.855 46.368C149.855 44.208 148.391 42.84 146.327 42.288L141.455 40.992C140.015 40.608 139.367 39.816 139.367 38.424C139.367 36.432 141.023 35.352 143.375 35.352C145.967 35.352 147.503 36.72 147.503 38.712V39.072H149.255V38.664C149.255 35.808 146.831 33.864 143.375 33.864C139.919 33.864 137.567 35.592 137.567 38.568C137.567 40.488 138.479 41.904 140.903 42.528L145.655 43.776C147.215 44.184 148.055 45.144 148.055 46.512C148.055 48.648 146.375 49.848 143.615 49.848C140.831 49.848 139.127 48.408 139.127 46.296V45.912H137.351V46.344C137.351 49.416 140.039 51.336 143.615 51.336ZM158.096 51.288C160.664 51.288 162.704 49.728 163.112 47.52H161.48C161.072 48.912 159.944 49.896 158.096 49.896C155.528 49.896 154.424 48.168 154.424 46.032V45.6H163.232V43.776C163.232 40.752 161.528 38.424 158.024 38.424C154.568 38.424 152.672 40.632 152.672 43.968V45.936C152.672 49.248 154.904 51.288 158.096 51.288ZM154.424 43.824C154.424 41.568 155.384 39.816 158.024 39.816C160.424 39.816 161.528 41.448 161.528 43.632V44.208H154.424V43.824ZM166.561 51H168.385V44.976C168.385 41.88 169.873 40.344 172.201 40.344H172.561V38.64H172.273C170.041 38.64 168.721 39.648 168.265 41.544V38.712H166.561V51ZM185.185 38.712H183.385L179.713 49.176L176.041 38.712H174.241L178.753 51H180.673L185.185 38.712ZM187.869 51H189.693V38.712H187.869V51ZM187.629 35.472C187.629 36.12 188.085 36.576 188.781 36.576C189.477 36.576 189.933 36.12 189.933 35.472C189.933 34.824 189.477 34.368 188.781 34.368C188.085 34.368 187.629 34.824 187.629 35.472ZM198.55 51.288C201.646 51.288 203.662 49.272 203.806 46.68H202.174C201.934 48.336 200.902 49.848 198.574 49.848C196.054 49.848 194.878 48.216 194.878 45.912V43.8C194.878 41.496 196.054 39.864 198.574 39.864C200.902 39.864 201.934 41.376 202.174 43.032H203.806C203.662 40.44 201.646 38.424 198.55 38.424C195.142 38.424 193.102 40.728 193.102 43.824V45.888C193.102 48.984 195.142 51.288 198.55 51.288ZM211.956 51.288C214.524 51.288 216.564 49.728 216.972 47.52H215.34C214.932 48.912 213.804 49.896 211.956 49.896C209.388 49.896 208.284 48.168 208.284 46.032V45.6H217.092V43.776C217.092 40.752 215.388 38.424 211.884 38.424C208.428 38.424 206.532 40.632 206.532 43.968V45.936C206.532 49.248 208.764 51.288 211.956 51.288ZM208.284 43.824C208.284 41.568 209.244 39.816 211.884 39.816C214.284 39.816 215.388 41.448 215.388 43.632V44.208H208.284V43.824ZM27.184 63.2V80H33.496C37.768 80 40.12 77.288 40.12 73.544V69.656C40.12 65.912 37.768 63.2 33.496 63.2H27.184ZM33.232 78.464H29.032V64.736H33.232C36.544 64.736 38.272 66.728 38.272 69.656V73.544C38.272 76.472 36.544 78.464 33.232 78.464ZM48.5493 80.288C51.1173 80.288 53.1573 78.728 53.5653 76.52H51.9333C51.5253 77.912 50.3973 78.896 48.5493 78.896C45.9813 78.896 44.8773 77.168 44.8773 75.032V74.6H53.6853V72.776C53.6853 69.752 51.9813 67.424 48.4773 67.424C45.0213 67.424 43.1253 69.632 43.1253 72.968V74.936C43.1253 78.248 45.3573 80.288 48.5493 80.288ZM44.8773 72.824C44.8773 70.568 45.8373 68.816 48.4773 68.816C50.8773 68.816 51.9813 70.448 51.9813 72.632V73.208H44.8773V72.824ZM58.8383 84.176V78.176C59.5823 79.424 61.0223 80.288 62.9423 80.288C66.0383 80.288 68.0303 77.984 68.0303 74.792V72.92C68.0303 69.8 66.1823 67.424 62.8943 67.424C60.8543 67.424 59.2703 68.504 58.7423 69.632V67.712H57.0143V84.176H58.8383ZM66.2063 74.72C66.2063 76.976 64.9343 78.8 62.6063 78.8C60.5663 78.8 58.8383 77.24 58.8383 74.72V73.136C58.8383 70.76 60.1583 68.912 62.5823 68.912C65.1263 68.912 66.2063 70.736 66.2063 72.992V74.72ZM76.1352 80.288C78.7032 80.288 80.7432 78.728 81.1512 76.52H79.5192C79.1112 77.912 77.9832 78.896 76.1352 78.896C73.5672 78.896 72.4632 77.168 72.4632 75.032V74.6H81.2712V72.776C81.2712 69.752 79.5672 67.424 76.0632 67.424C72.6072 67.424 70.7112 69.632 70.7112 72.968V74.936C70.7112 78.248 72.9432 80.288 76.1352 80.288ZM72.4632 72.824C72.4632 70.568 73.4232 68.816 76.0632 68.816C78.4632 68.816 79.5672 70.448 79.5672 72.632V73.208H72.4632V72.824ZM84.6003 80H86.4243V72.776C86.4243 70.232 87.9603 69.008 89.9763 69.008C92.1843 69.008 93.1203 70.424 93.1203 72.512V80H94.9443V72.248C94.9443 69.296 93.1923 67.424 90.4323 67.424C88.2963 67.424 86.9043 68.408 86.3283 69.8V67.712H84.6003V80ZM107.302 62.48V69.536C106.558 68.288 105.118 67.424 103.198 67.424C100.102 67.424 98.1096 69.728 98.1096 72.92V74.792C98.1096 77.864 100.006 80.288 103.246 80.288C105.286 80.288 106.87 79.208 107.398 78.08V80H109.126V62.48H107.302ZM99.9336 72.992C99.9336 70.736 101.206 68.912 103.534 68.912C105.574 68.912 107.302 70.472 107.302 72.992V74.576C107.302 76.952 105.982 78.8 103.558 78.8C101.014 78.8 99.9336 76.976 99.9336 74.72V72.992ZM117.831 80.288C120.399 80.288 122.439 78.728 122.847 76.52H121.215C120.807 77.912 119.679 78.896 117.831 78.896C115.263 78.896 114.159 77.168 114.159 75.032V74.6H122.967V72.776C122.967 69.752 121.263 67.424 117.759 67.424C114.303 67.424 112.407 69.632 112.407 72.968V74.936C112.407 78.248 114.639 80.288 117.831 80.288ZM114.159 72.824C114.159 70.568 115.119 68.816 117.759 68.816C120.159 68.816 121.263 70.448 121.263 72.632V73.208H114.159V72.824ZM126.296 80H128.12V72.776C128.12 70.232 129.656 69.008 131.672 69.008C133.88 69.008 134.816 70.424 134.816 72.512V80H136.64V72.248C136.64 69.296 134.888 67.424 132.128 67.424C129.992 67.424 128.6 68.408 128.024 69.8V67.712H126.296V80ZM145.253 80.288C148.349 80.288 150.365 78.272 150.509 75.68H148.877C148.637 77.336 147.605 78.848 145.277 78.848C142.757 78.848 141.581 77.216 141.581 74.912V72.8C141.581 70.496 142.757 68.864 145.277 68.864C147.605 68.864 148.637 70.376 148.877 72.032H150.509C150.365 69.44 148.349 67.424 145.253 67.424C141.845 67.424 139.805 69.728 139.805 72.824V74.888C139.805 77.984 141.845 80.288 145.253 80.288ZM153.955 80H155.779V67.712H153.955V80ZM153.715 64.472C153.715 65.12 154.171 65.576 154.867 65.576C155.563 65.576 156.019 65.12 156.019 64.472C156.019 63.824 155.563 63.368 154.867 63.368C154.171 63.368 153.715 63.824 153.715 64.472ZM164.612 80.288C167.18 80.288 169.22 78.728 169.628 76.52H167.996C167.588 77.912 166.46 78.896 164.612 78.896C162.044 78.896 160.94 77.168 160.94 75.032V74.6H169.748V72.776C169.748 69.752 168.044 67.424 164.54 67.424C161.084 67.424 159.188 69.632 159.188 72.968V74.936C159.188 78.248 161.42 80.288 164.612 80.288ZM160.94 72.824C160.94 70.568 161.9 68.816 164.54 68.816C166.94 68.816 168.044 70.448 168.044 72.632V73.208H160.94V72.824ZM177.589 80.288C180.469 80.288 182.581 78.704 182.581 76.52C182.581 74.744 181.453 73.808 179.557 73.352L175.789 72.464C174.901 72.248 174.493 71.72 174.493 70.88C174.493 69.512 175.741 68.792 177.445 68.792C179.269 68.792 180.373 69.8 180.373 71.312V71.384H182.029V71.264C182.029 68.984 180.037 67.424 177.469 67.424C174.757 67.424 172.813 68.624 172.813 70.928C172.813 72.536 173.869 73.64 175.693 74.048L179.341 74.888C180.325 75.104 180.877 75.728 180.877 76.592C180.877 78.176 179.509 78.92 177.613 78.92C175.597 78.92 174.157 77.912 174.157 76.376V76.304H172.501V76.424C172.501 78.8 174.613 80.288 177.589 80.288Z" fill="#010101"/>
<path d="M30.76 126.224C29.8107 126.224 28.9893 126.048 28.296 125.696C27.6027 125.333 27.0693 124.832 26.696 124.192C26.3333 123.552 26.152 122.81 26.152 121.968V114.8H28.376V122.064C28.376 122.789 28.5893 123.354 29.016 123.76C29.4533 124.165 30.0347 124.368 30.76 124.368C31.4853 124.368 32.0613 124.165 32.488 123.76C32.9147 123.354 33.128 122.789 33.128 122.064V114.8H35.368V121.968C35.368 122.81 35.1813 123.552 34.808 124.192C34.4453 124.832 33.9173 125.333 33.224 125.696C32.5307 126.048 31.7093 126.224 30.76 126.224ZM40.8196 126.192C39.7316 126.192 38.8623 125.968 38.2116 125.52C37.561 125.061 37.2356 124.4 37.2356 123.536V123.392H39.1556V123.504C39.1556 123.866 39.305 124.149 39.6036 124.352C39.913 124.554 40.3236 124.656 40.8356 124.656C41.305 124.656 41.6836 124.565 41.9716 124.384C42.2703 124.202 42.4196 123.957 42.4196 123.648C42.4196 123.445 42.361 123.285 42.2436 123.168C42.137 123.04 41.9663 122.949 41.7316 122.896L39.2676 122.336C38.6276 122.186 38.1476 121.941 37.8276 121.6C37.5183 121.248 37.3636 120.762 37.3636 120.144C37.3636 119.301 37.6676 118.65 38.2756 118.192C38.8943 117.722 39.7103 117.488 40.7236 117.488C41.7263 117.488 42.5263 117.728 43.1236 118.208C43.721 118.677 44.0196 119.322 44.0196 120.144V120.272H42.1156V120.128C42.1156 119.786 42.0036 119.52 41.7796 119.328C41.5556 119.136 41.2143 119.04 40.7556 119.04C40.3183 119.04 39.9823 119.12 39.7476 119.28C39.513 119.429 39.3956 119.653 39.3956 119.952C39.3956 120.154 39.4436 120.309 39.5396 120.416C39.6463 120.522 39.8116 120.602 40.0356 120.656L42.5636 121.28C43.193 121.429 43.657 121.68 43.9556 122.032C44.265 122.373 44.4196 122.832 44.4196 123.408C44.4196 123.941 44.2596 124.421 43.9396 124.848C43.6303 125.264 43.2036 125.594 42.6596 125.84C42.1156 126.074 41.5023 126.192 40.8196 126.192ZM49.5916 126.192C48.4076 126.192 47.4636 125.866 46.7596 125.216C46.0663 124.554 45.7196 123.642 45.7196 122.48V121.344C45.7196 120.181 46.0556 119.248 46.7276 118.544C47.3996 117.84 48.3436 117.488 49.5596 117.488C50.349 117.488 51.021 117.653 51.5756 117.984C52.141 118.304 52.5623 118.741 52.8396 119.296C53.1276 119.84 53.2716 120.453 53.2716 121.136V122.592H47.8316V122.8C47.8316 123.333 47.9756 123.77 48.2636 124.112C48.5516 124.453 48.9943 124.624 49.5916 124.624C50.029 124.624 50.397 124.528 50.6956 124.336C50.9943 124.133 51.197 123.877 51.3036 123.568H53.2076C53.1116 124.069 52.893 124.522 52.5516 124.928C52.2103 125.322 51.7836 125.632 51.2716 125.856C50.7596 126.08 50.1996 126.192 49.5916 126.192ZM51.2716 120.848C51.2716 120.304 51.1276 119.866 50.8396 119.536C50.5516 119.194 50.125 119.024 49.5596 119.024C48.9623 119.024 48.525 119.2 48.2476 119.552C47.9703 119.904 47.8316 120.378 47.8316 120.976V121.056H51.2716V120.848ZM58.2728 126.192C57.1848 126.192 56.3154 125.968 55.6648 125.52C55.0141 125.061 54.6888 124.4 54.6888 123.536V123.392H56.6088V123.504C56.6088 123.866 56.7581 124.149 57.0568 124.352C57.3661 124.554 57.7768 124.656 58.2888 124.656C58.7581 124.656 59.1368 124.565 59.4248 124.384C59.7234 124.202 59.8728 123.957 59.8728 123.648C59.8728 123.445 59.8141 123.285 59.6968 123.168C59.5901 123.04 59.4194 122.949 59.1848 122.896L56.7208 122.336C56.0808 122.186 55.6008 121.941 55.2808 121.6C54.9714 121.248 54.8168 120.762 54.8168 120.144C54.8168 119.301 55.1208 118.65 55.7288 118.192C56.3474 117.722 57.1634 117.488 58.1768 117.488C59.1794 117.488 59.9794 117.728 60.5768 118.208C61.1741 118.677 61.4728 119.322 61.4728 120.144V120.272H59.5688V120.128C59.5688 119.786 59.4568 119.52 59.2328 119.328C59.0088 119.136 58.6674 119.04 58.2088 119.04C57.7714 119.04 57.4354 119.12 57.2008 119.28C56.9661 119.429 56.8488 119.653 56.8488 119.952C56.8488 120.154 56.8968 120.309 56.9928 120.416C57.0994 120.522 57.2648 120.602 57.4888 120.656L60.0168 121.28C60.6461 121.429 61.1101 121.68 61.4088 122.032C61.7181 122.373 61.8728 122.832 61.8728 123.408C61.8728 123.941 61.7128 124.421 61.3928 124.848C61.0834 125.264 60.6568 125.594 60.1128 125.84C59.5688 126.074 58.9554 126.192 58.2728 126.192ZM71.3764 119.84C71.7177 119.498 71.9737 119.178 72.1444 118.88C72.3257 118.581 72.4164 118.25 72.4164 117.888C72.4164 117.429 72.2617 117.066 71.9524 116.8C71.6537 116.522 71.2644 116.384 70.7844 116.384C70.2511 116.384 69.8404 116.533 69.5524 116.832C69.2644 117.13 69.1204 117.552 69.1204 118.096V118.32H67.0244V118C67.0244 116.901 67.3551 116.058 68.0164 115.472C68.6884 114.874 69.6057 114.576 70.7684 114.576C71.5257 114.576 72.1924 114.714 72.7684 114.992C73.3551 115.258 73.8084 115.642 74.1284 116.144C74.4591 116.634 74.6244 117.21 74.6244 117.872C74.6244 118.384 74.5231 118.853 74.3204 119.28C74.1177 119.696 73.8671 120.069 73.5684 120.4C73.2804 120.72 72.9017 121.093 72.4324 121.52L69.5204 124.192H74.5604V126H66.8164V124.32L71.3764 119.84ZM83.429 126.192C82.341 126.192 81.4717 125.968 80.821 125.52C80.1703 125.061 79.845 124.4 79.845 123.536V123.392H81.765V123.504C81.765 123.866 81.9143 124.149 82.213 124.352C82.5223 124.554 82.933 124.656 83.445 124.656C83.9143 124.656 84.293 124.565 84.581 124.384C84.8797 124.202 85.029 123.957 85.029 123.648C85.029 123.445 84.9703 123.285 84.853 123.168C84.7463 123.04 84.5757 122.949 84.341 122.896L81.877 122.336C81.237 122.186 80.757 121.941 80.437 121.6C80.1277 121.248 79.973 120.762 79.973 120.144C79.973 119.301 80.277 118.65 80.885 118.192C81.5037 117.722 82.3197 117.488 83.333 117.488C84.3357 117.488 85.1357 117.728 85.733 118.208C86.3303 118.677 86.629 119.322 86.629 120.144V120.272H84.725V120.128C84.725 119.786 84.613 119.52 84.389 119.328C84.165 119.136 83.8237 119.04 83.365 119.04C82.9277 119.04 82.5917 119.12 82.357 119.28C82.1223 119.429 82.005 119.653 82.005 119.952C82.005 120.154 82.053 120.309 82.149 120.416C82.2557 120.522 82.421 120.602 82.645 120.656L85.173 121.28C85.8023 121.429 86.2663 121.68 86.565 122.032C86.8743 122.373 87.029 122.832 87.029 123.408C87.029 123.941 86.869 124.421 86.549 124.848C86.2397 125.264 85.813 125.594 85.269 125.84C84.725 126.074 84.1117 126.192 83.429 126.192ZM92.201 126.192C91.017 126.192 90.073 125.866 89.369 125.216C88.6757 124.554 88.329 123.642 88.329 122.48V121.344C88.329 120.181 88.665 119.248 89.337 118.544C90.009 117.84 90.953 117.488 92.169 117.488C92.9583 117.488 93.6303 117.653 94.185 117.984C94.7504 118.304 95.1717 118.741 95.449 119.296C95.737 119.84 95.881 120.453 95.881 121.136V122.592H90.441V122.8C90.441 123.333 90.585 123.77 90.873 124.112C91.161 124.453 91.6037 124.624 92.201 124.624C92.6383 124.624 93.0063 124.528 93.305 124.336C93.6037 124.133 93.8063 123.877 93.913 123.568H95.817C95.721 124.069 95.5024 124.522 95.161 124.928C94.8197 125.322 94.393 125.632 93.881 125.856C93.369 126.08 92.809 126.192 92.201 126.192ZM93.881 120.848C93.881 120.304 93.737 119.866 93.449 119.536C93.161 119.194 92.7343 119.024 92.169 119.024C91.5717 119.024 91.1343 119.2 90.857 119.552C90.5797 119.904 90.441 120.378 90.441 120.976V121.056H93.881V120.848ZM99.7141 119.296C99.9595 118.176 100.791 117.616 102.21 117.616H102.466V119.776H102.018C101.293 119.776 100.743 119.968 100.37 120.352C100.007 120.736 99.8261 121.338 99.8261 122.16V126H97.6501V117.68H99.7141V119.296ZM105.54 117.68L107.332 123.776L109.124 117.68H111.3L108.468 126H106.196L103.364 117.68H105.54ZM112.413 115.504C112.413 115.141 112.53 114.842 112.765 114.608C113.01 114.362 113.314 114.24 113.677 114.24C114.039 114.24 114.338 114.362 114.573 114.608C114.818 114.842 114.941 115.141 114.941 115.504C114.941 115.866 114.818 116.17 114.573 116.416C114.338 116.65 114.039 116.768 113.677 116.768C113.314 116.768 113.01 116.65 112.765 116.416C112.53 116.17 112.413 115.866 112.413 115.504ZM112.589 126V117.68H114.765V126H112.589ZM120.531 126.192C119.709 126.192 119 126.032 118.403 125.712C117.816 125.392 117.368 124.949 117.059 124.384C116.749 123.808 116.595 123.157 116.595 122.432V121.248C116.595 120.522 116.749 119.877 117.059 119.312C117.368 118.736 117.816 118.288 118.403 117.968C119 117.648 119.709 117.488 120.531 117.488C121.256 117.488 121.901 117.632 122.467 117.92C123.043 118.197 123.491 118.586 123.811 119.088C124.131 119.589 124.301 120.154 124.323 120.784H122.339C122.285 120.336 122.115 119.968 121.827 119.68C121.539 119.392 121.123 119.248 120.579 119.248C119.981 119.248 119.528 119.424 119.219 119.776C118.92 120.117 118.771 120.581 118.771 121.168V122.512C118.771 123.098 118.92 123.568 119.219 123.92C119.528 124.261 119.981 124.432 120.579 124.432C121.123 124.432 121.539 124.288 121.827 124C122.115 123.712 122.285 123.344 122.339 122.896H124.323C124.301 123.525 124.131 124.09 123.811 124.592C123.491 125.093 123.043 125.488 122.467 125.776C121.901 126.053 121.256 126.192 120.531 126.192ZM129.607 126.192C128.423 126.192 127.479 125.866 126.775 125.216C126.082 124.554 125.735 123.642 125.735 122.48V121.344C125.735 120.181 126.071 119.248 126.743 118.544C127.415 117.84 128.359 117.488 129.575 117.488C130.365 117.488 131.037 117.653 131.591 117.984C132.157 118.304 132.578 118.741 132.855 119.296C133.143 119.84 133.287 120.453 133.287 121.136V122.592H127.847V122.8C127.847 123.333 127.991 123.77 128.279 124.112C128.567 124.453 129.01 124.624 129.607 124.624C130.045 124.624 130.413 124.528 130.711 124.336C131.01 124.133 131.213 123.877 131.319 123.568H133.223C133.127 124.069 132.909 124.522 132.567 124.928C132.226 125.322 131.799 125.632 131.287 125.856C130.775 126.08 130.215 126.192 129.607 126.192ZM131.287 120.848C131.287 120.304 131.143 119.866 130.855 119.536C130.567 119.194 130.141 119.024 129.575 119.024C128.978 119.024 128.541 119.2 128.263 119.552C127.986 119.904 127.847 120.378 127.847 120.976V121.056H131.287V120.848ZM138.288 126.192C137.2 126.192 136.331 125.968 135.68 125.52C135.03 125.061 134.704 124.4 134.704 123.536V123.392H136.624V123.504C136.624 123.866 136.774 124.149 137.072 124.352C137.382 124.554 137.792 124.656 138.304 124.656C138.774 124.656 139.152 124.565 139.44 124.384C139.739 124.202 139.888 123.957 139.888 123.648C139.888 123.445 139.83 123.285 139.712 123.168C139.606 123.04 139.435 122.949 139.2 122.896L136.736 122.336C136.096 122.186 135.616 121.941 135.296 121.6C134.987 121.248 134.832 120.762 134.832 120.144C134.832 119.301 135.136 118.65 135.744 118.192C136.363 117.722 137.179 117.488 138.192 117.488C139.195 117.488 139.995 117.728 140.592 118.208C141.19 118.677 141.488 119.322 141.488 120.144V120.272H139.584V120.128C139.584 119.786 139.472 119.52 139.248 119.328C139.024 119.136 138.683 119.04 138.224 119.04C137.787 119.04 137.451 119.12 137.216 119.28C136.982 119.429 136.864 119.653 136.864 119.952C136.864 120.154 136.912 120.309 137.008 120.416C137.115 120.522 137.28 120.602 137.504 120.656L140.032 121.28C140.662 121.429 141.126 121.68 141.424 122.032C141.734 122.373 141.888 122.832 141.888 123.408C141.888 123.941 141.728 124.421 141.408 124.848C141.099 125.264 140.672 125.594 140.128 125.84C139.584 126.074 138.971 126.192 138.288 126.192Z" fill="#010101"/>
<path d="M53.5173 149.705C53.9073 149.295 54.1973 148.915 54.3873 148.565C54.5873 148.205 54.6873 147.83 54.6873 147.44C54.6873 146.86 54.4823 146.395 54.0723 146.045C53.6723 145.685 53.1623 145.505 52.5423 145.505C51.8623 145.505 51.3223 145.69 50.9223 146.06C50.5323 146.43 50.3373 146.95 50.3373 147.62V147.86H49.2423V147.575C49.2423 146.635 49.5423 145.9 50.1423 145.37C50.7523 144.83 51.5523 144.56 52.5423 144.56C53.1723 144.56 53.7373 144.68 54.2373 144.92C54.7373 145.15 55.1273 145.485 55.4073 145.925C55.6973 146.365 55.8423 146.87 55.8423 147.44C55.8423 148.01 55.6873 148.535 55.3773 149.015C55.0773 149.485 54.6573 149.995 54.1173 150.545L50.4123 154.325H55.8573V155.27H49.0773V154.37L53.5173 149.705ZM64.5484 155.45C63.8384 155.45 63.2234 155.3 62.7034 155C62.1834 154.7 61.7884 154.295 61.5184 153.785C61.2484 153.275 61.1134 152.7 61.1134 152.06V150.8C61.1134 150.16 61.2484 149.585 61.5184 149.075C61.7984 148.565 62.1934 148.16 62.7034 147.86C63.2234 147.56 63.8384 147.41 64.5484 147.41C65.2584 147.41 65.8684 147.56 66.3784 147.86C66.8984 148.16 67.2934 148.565 67.5634 149.075C67.8334 149.585 67.9684 150.16 67.9684 150.8V152.06C67.9684 152.7 67.8334 153.275 67.5634 153.785C67.2934 154.295 66.8984 154.7 66.3784 155C65.8684 155.3 65.2584 155.45 64.5484 155.45ZM66.8734 150.815C66.8734 150.065 66.6684 149.465 66.2584 149.015C65.8584 148.555 65.2884 148.325 64.5484 148.325C63.8084 148.325 63.2334 148.555 62.8234 149.015C62.4234 149.465 62.2234 150.065 62.2234 150.815V152.045C62.2234 152.795 62.4234 153.4 62.8234 153.86C63.2334 154.31 63.8084 154.535 64.5484 154.535C65.2884 154.535 65.8584 154.31 66.2584 153.86C66.6684 153.4 66.8734 152.795 66.8734 152.045V150.815ZM70.0285 147.59H71.1085V148.79C71.2885 148.41 71.6135 148.085 72.0835 147.815C72.5535 147.545 73.0935 147.41 73.7035 147.41C74.3735 147.41 74.9485 147.56 75.4285 147.86C75.9185 148.15 76.2885 148.555 76.5385 149.075C76.7885 149.595 76.9135 150.185 76.9135 150.845V152.015C76.9135 152.675 76.7835 153.265 76.5235 153.785C76.2635 154.305 75.8885 154.715 75.3985 155.015C74.9185 155.305 74.3635 155.45 73.7335 155.45C73.1535 155.45 72.6385 155.33 72.1885 155.09C71.7485 154.85 71.4085 154.53 71.1685 154.13V157.88H70.0285V147.59ZM75.7735 150.89C75.7735 150.14 75.5835 149.53 75.2035 149.06C74.8335 148.58 74.2685 148.34 73.5085 148.34C72.7785 148.34 72.2035 148.59 71.7835 149.09C71.3735 149.58 71.1685 150.21 71.1685 150.98V151.97C71.1685 152.48 71.2735 152.93 71.4835 153.32C71.6935 153.7 71.9785 153.995 72.3385 154.205C72.6985 154.415 73.0935 154.52 73.5235 154.52C74.2235 154.52 74.7735 154.28 75.1735 153.8C75.5735 153.31 75.7735 152.7 75.7735 151.97V150.89ZM81.979 155.45C81.319 155.45 80.729 155.315 80.209 155.045C79.699 154.775 79.299 154.39 79.009 153.89C78.729 153.38 78.589 152.785 78.589 152.105V150.875C78.589 149.815 78.879 148.975 79.459 148.355C80.049 147.725 80.874 147.41 81.934 147.41C82.984 147.41 83.789 147.72 84.349 148.34C84.909 148.96 85.189 149.765 85.189 150.755V151.895H79.684V152.165C79.684 152.875 79.874 153.455 80.254 153.905C80.644 154.355 81.219 154.58 81.979 154.58C82.539 154.58 82.999 154.445 83.359 154.175C83.719 153.905 83.964 153.545 84.094 153.095H85.114C84.984 153.785 84.629 154.35 84.049 154.79C83.469 155.23 82.779 155.45 81.979 155.45ZM84.124 151.025V150.665C84.124 149.945 83.939 149.37 83.569 148.94C83.199 148.5 82.654 148.28 81.934 148.28C81.154 148.28 80.584 148.51 80.224 148.97C79.864 149.42 79.684 150.025 79.684 150.785V151.025H84.124ZM88.3347 147.59V149.36C88.6247 148.15 89.4597 147.545 90.8397 147.545H91.0197V148.61H90.7947C90.0547 148.61 89.4697 148.855 89.0397 149.345C88.6197 149.835 88.4097 150.555 88.4097 151.505V155.27H87.2697V147.59H88.3347ZM97.3087 154.31C97.1287 154.61 96.7937 154.875 96.3037 155.105C95.8137 155.335 95.2687 155.45 94.6687 155.45C93.7787 155.45 93.0687 155.225 92.5387 154.775C92.0187 154.325 91.7587 153.745 91.7587 153.035C91.7587 152.295 92.0337 151.71 92.5837 151.28C93.1437 150.85 93.8837 150.635 94.8037 150.635C95.3537 150.635 95.8337 150.73 96.2437 150.92C96.6637 151.1 97.0037 151.325 97.2637 151.595V150.17C97.2637 149.63 97.0937 149.185 96.7537 148.835C96.4137 148.485 95.9437 148.31 95.3437 148.31C94.8737 148.31 94.4737 148.415 94.1437 148.625C93.8237 148.825 93.5837 149.105 93.4237 149.465H92.3737C92.5737 148.825 92.9337 148.325 93.4537 147.965C93.9737 147.595 94.6087 147.41 95.3587 147.41C95.9787 147.41 96.5187 147.535 96.9787 147.785C97.4387 148.025 97.7887 148.355 98.0287 148.775C98.2787 149.195 98.4037 149.66 98.4037 150.17V155.27H97.3087V154.31ZM94.9087 154.715C95.3087 154.715 95.6887 154.645 96.0487 154.505C96.4187 154.355 96.7137 154.15 96.9337 153.89C97.1537 153.63 97.2637 153.34 97.2637 153.02C97.2637 152.71 97.1537 152.43 96.9337 152.18C96.7137 151.93 96.4287 151.735 96.0787 151.595C95.7287 151.455 95.3587 151.385 94.9687 151.385C94.3187 151.385 93.7987 151.535 93.4087 151.835C93.0287 152.125 92.8387 152.53 92.8387 153.05C92.8387 153.57 93.0287 153.98 93.4087 154.28C93.7987 154.57 94.2987 154.715 94.9087 154.715ZM103.359 155.27C102.639 155.27 102.109 155.1 101.769 154.76C101.439 154.41 101.274 153.9 101.274 153.23V148.52H99.9687V147.59H101.274V145.385H102.414V147.59H104.379V148.52H102.414V153.23C102.414 153.63 102.499 153.915 102.669 154.085C102.839 154.255 103.134 154.34 103.554 154.34H104.319V155.27H103.359ZM106.164 145.565C106.164 145.365 106.229 145.2 106.359 145.07C106.489 144.94 106.664 144.875 106.884 144.875C107.104 144.875 107.279 144.94 107.409 145.07C107.539 145.2 107.604 145.365 107.604 145.565C107.604 145.765 107.539 145.93 107.409 146.06C107.279 146.19 107.104 146.255 106.884 146.255C106.664 146.255 106.489 146.19 106.359 146.06C106.229 145.93 106.164 145.765 106.164 145.565ZM107.454 147.59V155.27H106.314V147.59H107.454ZM113.02 155.45C112.31 155.45 111.695 155.3 111.175 155C110.655 154.7 110.26 154.295 109.99 153.785C109.72 153.275 109.585 152.7 109.585 152.06V150.8C109.585 150.16 109.72 149.585 109.99 149.075C110.27 148.565 110.665 148.16 111.175 147.86C111.695 147.56 112.31 147.41 113.02 147.41C113.73 147.41 114.34 147.56 114.85 147.86C115.37 148.16 115.765 148.565 116.035 149.075C116.305 149.585 116.44 150.16 116.44 150.8V152.06C116.44 152.7 116.305 153.275 116.035 153.785C115.765 154.295 115.37 154.7 114.85 155C114.34 155.3 113.73 155.45 113.02 155.45ZM115.345 150.815C115.345 150.065 115.14 149.465 114.73 149.015C114.33 148.555 113.76 148.325 113.02 148.325C112.28 148.325 111.705 148.555 111.295 149.015C110.895 149.465 110.695 150.065 110.695 150.815V152.045C110.695 152.795 110.895 153.4 111.295 153.86C111.705 154.31 112.28 154.535 113.02 154.535C113.76 154.535 114.33 154.31 114.73 153.86C115.14 153.4 115.345 152.795 115.345 152.045V150.815ZM119.58 147.59V148.895C119.77 148.445 120.085 148.085 120.525 147.815C120.965 147.545 121.505 147.41 122.145 147.41C123.005 147.41 123.69 147.685 124.2 148.235C124.71 148.775 124.965 149.505 124.965 150.425V155.27H123.825V150.59C123.825 149.91 123.665 149.375 123.345 148.985C123.025 148.595 122.53 148.4 121.86 148.4C121.2 148.4 120.665 148.6 120.255 149C119.845 149.4 119.64 149.985 119.64 150.755V155.27H118.5V147.59H119.58ZM132.524 154.31C132.344 154.61 132.009 154.875 131.519 155.105C131.029 155.335 130.484 155.45 129.884 155.45C128.994 155.45 128.284 155.225 127.754 154.775C127.234 154.325 126.974 153.745 126.974 153.035C126.974 152.295 127.249 151.71 127.799 151.28C128.359 150.85 129.099 150.635 130.019 150.635C130.569 150.635 131.049 150.73 131.459 150.92C131.879 151.1 132.219 151.325 132.479 151.595V150.17C132.479 149.63 132.309 149.185 131.969 148.835C131.629 148.485 131.159 148.31 130.559 148.31C130.089 148.31 129.689 148.415 129.359 148.625C129.039 148.825 128.799 149.105 128.639 149.465H127.589C127.789 148.825 128.149 148.325 128.669 147.965C129.189 147.595 129.824 147.41 130.574 147.41C131.194 147.41 131.734 147.535 132.194 147.785C132.654 148.025 133.004 148.355 133.244 148.775C133.494 149.195 133.619 149.66 133.619 150.17V155.27H132.524V154.31ZM130.124 154.715C130.524 154.715 130.904 154.645 131.264 154.505C131.634 154.355 131.929 154.15 132.149 153.89C132.369 153.63 132.479 153.34 132.479 153.02C132.479 152.71 132.369 152.43 132.149 152.18C131.929 151.93 131.644 151.735 131.294 151.595C130.944 151.455 130.574 151.385 130.184 151.385C129.534 151.385 129.014 151.535 128.624 151.835C128.244 152.125 128.054 152.53 128.054 153.05C128.054 153.57 128.244 153.98 128.624 154.28C129.014 154.57 129.514 154.715 130.124 154.715ZM137.176 144.32V155.27H136.036V144.32H137.176ZM145.798 155.45C144.858 155.45 144.093 155.23 143.503 154.79C142.913 154.35 142.618 153.765 142.618 153.035V152.96H143.653V153.005C143.653 153.485 143.853 153.87 144.253 154.16C144.653 154.45 145.173 154.595 145.813 154.595C146.433 154.595 146.928 154.475 147.298 154.235C147.668 153.985 147.853 153.62 147.853 153.14C147.853 152.87 147.768 152.645 147.598 152.465C147.438 152.275 147.203 152.145 146.893 152.075L144.613 151.55C144.043 151.42 143.598 151.19 143.278 150.86C142.968 150.52 142.813 150.1 142.813 149.6C142.813 148.9 143.078 148.36 143.608 147.98C144.148 147.6 144.853 147.41 145.723 147.41C146.253 147.41 146.733 147.515 147.163 147.725C147.603 147.925 147.948 148.205 148.198 148.565C148.448 148.925 148.573 149.34 148.573 149.81V149.885H147.538V149.84C147.538 149.36 147.373 148.98 147.043 148.7C146.723 148.41 146.278 148.265 145.708 148.265C145.158 148.265 144.713 148.38 144.373 148.61C144.033 148.83 143.863 149.15 143.863 149.57C143.863 150.1 144.133 150.43 144.673 150.56L147.028 151.115C147.648 151.265 148.118 151.5 148.438 151.82C148.758 152.13 148.918 152.555 148.918 153.095C148.918 153.545 148.783 153.95 148.513 154.31C148.243 154.67 147.868 154.95 147.388 155.15C146.918 155.35 146.388 155.45 145.798 155.45ZM153.888 155.45C153.228 155.45 152.638 155.315 152.118 155.045C151.608 154.775 151.208 154.39 150.918 153.89C150.638 153.38 150.498 152.785 150.498 152.105V150.875C150.498 149.815 150.788 148.975 151.368 148.355C151.958 147.725 152.783 147.41 153.843 147.41C154.893 147.41 155.698 147.72 156.258 148.34C156.818 148.96 157.098 149.765 157.098 150.755V151.895H151.593V152.165C151.593 152.875 151.783 153.455 152.163 153.905C152.553 154.355 153.128 154.58 153.888 154.58C154.448 154.58 154.908 154.445 155.268 154.175C155.628 153.905 155.873 153.545 156.003 153.095H157.023C156.893 153.785 156.538 154.35 155.958 154.79C155.378 155.23 154.688 155.45 153.888 155.45ZM156.033 151.025V150.665C156.033 149.945 155.848 149.37 155.478 148.94C155.108 148.5 154.563 148.28 153.843 148.28C153.063 148.28 152.493 148.51 152.133 148.97C151.773 149.42 151.593 150.025 151.593 150.785V151.025H156.033ZM160.244 147.59V149.36C160.534 148.15 161.369 147.545 162.749 147.545H162.929V148.61H162.704C161.964 148.61 161.379 148.855 160.949 149.345C160.529 149.835 160.319 150.555 160.319 151.505V155.27H159.179V147.59H160.244ZM166.799 155.27L163.979 147.59H165.104L167.399 154.13L169.694 147.59H170.819L167.999 155.27H166.799ZM172.346 145.565C172.346 145.365 172.411 145.2 172.541 145.07C172.671 144.94 172.846 144.875 173.066 144.875C173.286 144.875 173.461 144.94 173.591 145.07C173.721 145.2 173.786 145.365 173.786 145.565C173.786 145.765 173.721 145.93 173.591 146.06C173.461 146.19 173.286 146.255 173.066 146.255C172.846 146.255 172.671 146.19 172.541 146.06C172.411 145.93 172.346 145.765 172.346 145.565ZM173.636 147.59V155.27H172.496V147.59H173.636ZM179.172 155.45C178.482 155.45 177.877 155.305 177.357 155.015C176.847 154.725 176.452 154.325 176.172 153.815C175.902 153.305 175.767 152.725 175.767 152.075V150.785C175.767 150.135 175.902 149.555 176.172 149.045C176.452 148.535 176.847 148.135 177.357 147.845C177.877 147.555 178.482 147.41 179.172 147.41C179.802 147.41 180.357 147.535 180.837 147.785C181.327 148.035 181.712 148.38 181.992 148.82C182.272 149.26 182.427 149.75 182.457 150.29H181.437C181.357 149.72 181.132 149.25 180.762 148.88C180.392 148.5 179.867 148.31 179.187 148.31C178.427 148.31 177.852 148.535 177.462 148.985C177.072 149.425 176.877 150.02 176.877 150.77V152.09C176.877 152.84 177.072 153.44 177.462 153.89C177.852 154.33 178.427 154.55 179.187 154.55C179.867 154.55 180.392 154.365 180.762 153.995C181.132 153.615 181.357 153.14 181.437 152.57H182.457C182.427 153.11 182.272 153.6 181.992 154.04C181.712 154.48 181.327 154.825 180.837 155.075C180.357 155.325 179.802 155.45 179.172 155.45ZM187.55 155.45C186.89 155.45 186.3 155.315 185.78 155.045C185.27 154.775 184.87 154.39 184.58 153.89C184.3 153.38 184.16 152.785 184.16 152.105V150.875C184.16 149.815 184.45 148.975 185.03 148.355C185.62 147.725 186.445 147.41 187.505 147.41C188.555 147.41 189.36 147.72 189.92 148.34C190.48 148.96 190.76 149.765 190.76 150.755V151.895H185.255V152.165C185.255 152.875 185.445 153.455 185.825 153.905C186.215 154.355 186.79 154.58 187.55 154.58C188.11 154.58 188.57 154.445 188.93 154.175C189.29 153.905 189.535 153.545 189.665 153.095H190.685C190.555 153.785 190.2 154.35 189.62 154.79C189.04 155.23 188.35 155.45 187.55 155.45ZM189.695 151.025V150.665C189.695 149.945 189.51 149.37 189.14 148.94C188.77 148.5 188.225 148.28 187.505 148.28C186.725 148.28 186.155 148.51 185.795 148.97C185.435 149.42 185.255 150.025 185.255 150.785V151.025H189.695ZM195.661 155.45C194.721 155.45 193.956 155.23 193.366 154.79C192.776 154.35 192.481 153.765 192.481 153.035V152.96H193.516V153.005C193.516 153.485 193.716 153.87 194.116 154.16C194.516 154.45 195.036 154.595 195.676 154.595C196.296 154.595 196.791 154.475 197.161 154.235C197.531 153.985 197.716 153.62 197.716 153.14C197.716 152.87 197.631 152.645 197.461 152.465C197.301 152.275 197.066 152.145 196.756 152.075L194.476 151.55C193.906 151.42 193.461 151.19 193.141 150.86C192.831 150.52 192.676 150.1 192.676 149.6C192.676 148.9 192.941 148.36 193.471 147.98C194.011 147.6 194.716 147.41 195.586 147.41C196.116 147.41 196.596 147.515 197.026 147.725C197.466 147.925 197.811 148.205 198.061 148.565C198.311 148.925 198.436 149.34 198.436 149.81V149.885H197.401V149.84C197.401 149.36 197.236 148.98 196.906 148.7C196.586 148.41 196.141 148.265 195.571 148.265C195.021 148.265 194.576 148.38 194.236 148.61C193.896 148.83 193.726 149.15 193.726 149.57C193.726 150.1 193.996 150.43 194.536 150.56L196.891 151.115C197.511 151.265 197.981 151.5 198.301 151.82C198.621 152.13 198.781 152.555 198.781 153.095C198.781 153.545 198.646 153.95 198.376 154.31C198.106 154.67 197.731 154.95 197.251 155.15C196.781 155.35 196.251 155.45 195.661 155.45Z" fill="#4A4A4A"/>
<path fill-rule="evenodd" clip-rule="evenodd" d="M25.0273 150.631C25.0273 147.107 27.9099 144.252 31.4673 144.252C35.0248 144.252 37.9073 147.107 37.9073 150.631C37.9073 154.155 35.0248 157.011 31.4673 157.011C27.9099 157.011 25.0273 154.155 25.0273 150.631ZM30.5013 152.907L34.5823 148.817C34.6311 148.768 34.6311 148.692 34.5762 148.64L34.042 148.089C34.0207 148.065 33.9901 148.052 33.9566 148.052C33.926 148.052 33.8955 148.065 33.8711 148.089L30.1473 151.832L28.792 150.48C28.7676 150.455 28.7371 150.443 28.7066 150.443C28.676 150.443 28.6455 150.455 28.6211 150.48L28.0778 151.022C28.0289 151.07 28.0289 151.147 28.0778 151.195L29.7871 152.901C29.897 153.01 30.0282 153.074 30.1442 153.074C30.306 153.074 30.4464 152.959 30.4983 152.907L30.5013 152.907Z" fill="#1A1A1A"/>
<mask id="mask0" mask-type="alpha" maskUnits="userSpaceOnUse" x="25" y="144" width="13" height="14">
<path fill-rule="evenodd" clip-rule="evenodd" d="M25.0273 150.631C25.0273 147.107 27.9099 144.252 31.4673 144.252C35.0248 144.252 37.9073 147.107 37.9073 150.631C37.9073 154.155 35.0248 157.011 31.4673 157.011C27.9099 157.011 25.0273 154.155 25.0273 150.631ZM30.5013 152.907L34.5823 148.817C34.6311 148.768 34.6311 148.692 34.5762 148.64L34.042 148.089C34.0207 148.065 33.9901 148.052 33.9566 148.052C33.926 148.052 33.8955 148.065 33.8711 148.089L30.1473 151.832L28.792 150.48C28.7676 150.455 28.7371 150.443 28.7066 150.443C28.676 150.443 28.6455 150.455 28.6211 150.48L28.0778 151.022C28.0289 151.07 28.0289 151.147 28.0778 151.195L29.7871 152.901C29.897 153.01 30.0282 153.074 30.1442 153.074C30.306 153.074 30.4464 152.959 30.4983 152.907L30.5013 152.907Z" fill="white"/>
</mask>
<g mask="url(#mask0)">
<rect x="24.4648" y="143.697" width="14" height="13.8681" fill="#28A745"/>
</g>
<path d="M26.312 206V194.8H28.552V206H26.312ZM34.1634 206.192C33.0754 206.192 32.206 205.968 31.5554 205.52C30.9047 205.061 30.5794 204.4 30.5794 203.536V203.392H32.4994V203.504C32.4994 203.867 32.6487 204.149 32.9474 204.352C33.2567 204.555 33.6674 204.656 34.1794 204.656C34.6487 204.656 35.0274 204.565 35.3154 204.384C35.614 204.203 35.7634 203.957 35.7634 203.648C35.7634 203.445 35.7047 203.285 35.5874 203.168C35.4807 203.04 35.31 202.949 35.0754 202.896L32.6114 202.336C31.9714 202.187 31.4914 201.941 31.1714 201.6C30.862 201.248 30.7074 200.763 30.7074 200.144C30.7074 199.301 31.0114 198.651 31.6194 198.192C32.238 197.723 33.054 197.488 34.0674 197.488C35.07 197.488 35.87 197.728 36.4674 198.208C37.0647 198.677 37.3634 199.323 37.3634 200.144V200.272H35.4594V200.128C35.4594 199.787 35.3474 199.52 35.1234 199.328C34.8994 199.136 34.558 199.04 34.0994 199.04C33.662 199.04 33.326 199.12 33.0914 199.28C32.8567 199.429 32.7394 199.653 32.7394 199.952C32.7394 200.155 32.7874 200.309 32.8834 200.416C32.99 200.523 33.1554 200.603 33.3794 200.656L35.9074 201.28C36.5367 201.429 37.0007 201.68 37.2994 202.032C37.6087 202.373 37.7634 202.832 37.7634 203.408C37.7634 203.941 37.6034 204.421 37.2834 204.848C36.974 205.264 36.5474 205.595 36.0034 205.84C35.4594 206.075 34.846 206.192 34.1634 206.192ZM48.195 205.008C48.003 205.36 47.683 205.648 47.235 205.872C46.7977 206.085 46.3123 206.192 45.779 206.192C44.8617 206.192 44.147 205.904 43.635 205.328C43.123 204.741 42.867 203.968 42.867 203.008V197.68H45.043V202.704C45.043 203.237 45.1657 203.648 45.411 203.936C45.667 204.224 46.035 204.368 46.515 204.368C47.0163 204.368 47.4057 204.219 47.683 203.92C47.9603 203.621 48.099 203.211 48.099 202.688V197.68H50.275V206H48.195V205.008ZM55.6478 206.192C54.5598 206.192 53.6904 205.968 53.0398 205.52C52.3891 205.061 52.0638 204.4 52.0638 203.536V203.392H53.9838V203.504C53.9838 203.867 54.1331 204.149 54.4318 204.352C54.7411 204.555 55.1518 204.656 55.6638 204.656C56.1331 204.656 56.5118 204.565 56.7998 204.384C57.0984 204.203 57.2478 203.957 57.2478 203.648C57.2478 203.445 57.1891 203.285 57.0718 203.168C56.9651 203.04 56.7944 202.949 56.5598 202.896L54.0958 202.336C53.4558 202.187 52.9758 201.941 52.6558 201.6C52.3464 201.248 52.1918 200.763 52.1918 200.144C52.1918 199.301 52.4958 198.651 53.1038 198.192C53.7224 197.723 54.5384 197.488 55.5518 197.488C56.5544 197.488 57.3544 197.728 57.9518 198.208C58.5491 198.677 58.8478 199.323 58.8478 200.144V200.272H56.9438V200.128C56.9438 199.787 56.8318 199.52 56.6078 199.328C56.3838 199.136 56.0424 199.04 55.5838 199.04C55.1464 199.04 54.8104 199.12 54.5758 199.28C54.3411 199.429 54.2238 199.653 54.2238 199.952C54.2238 200.155 54.2718 200.309 54.3678 200.416C54.4744 200.523 54.6398 200.603 54.8638 200.656L57.3918 201.28C58.0211 201.429 58.4851 201.68 58.7838 202.032C59.0931 202.373 59.2478 202.832 59.2478 203.408C59.2478 203.941 59.0878 204.421 58.7678 204.848C58.4584 205.264 58.0318 205.595 57.4878 205.84C56.9438 206.075 56.3304 206.192 55.6478 206.192ZM64.4198 206.192C63.2358 206.192 62.2918 205.867 61.5878 205.216C60.8944 204.555 60.5478 203.643 60.5478 202.48V201.344C60.5478 200.181 60.8838 199.248 61.5558 198.544C62.2278 197.84 63.1718 197.488 64.3878 197.488C65.1771 197.488 65.8491 197.653 66.4038 197.984C66.9691 198.304 67.3904 198.741 67.6678 199.296C67.9558 199.84 68.0998 200.453 68.0998 201.136V202.592H62.6598V202.8C62.6598 203.333 62.8038 203.771 63.0918 204.112C63.3798 204.453 63.8224 204.624 64.4198 204.624C64.8571 204.624 65.2251 204.528 65.5238 204.336C65.8224 204.133 66.0251 203.877 66.1318 203.568H68.0358C67.9398 204.069 67.7211 204.523 67.3798 204.928C67.0384 205.323 66.6118 205.632 66.0998 205.856C65.5878 206.08 65.0278 206.192 64.4198 206.192ZM66.0998 200.848C66.0998 200.304 65.9558 199.867 65.6678 199.536C65.3798 199.195 64.9531 199.024 64.3878 199.024C63.7904 199.024 63.3531 199.2 63.0758 199.552C62.7984 199.904 62.6598 200.379 62.6598 200.976V201.056H66.0998V200.848ZM73.0049 206.192C72.2796 206.192 71.6502 206.027 71.1169 205.696C70.5942 205.365 70.1942 204.923 69.9169 204.368C69.6396 203.803 69.5009 203.189 69.5009 202.528V201.152C69.5009 200.48 69.6342 199.867 69.9009 199.312C70.1782 198.747 70.5782 198.304 71.1009 197.984C71.6342 197.653 72.2636 197.488 72.9889 197.488C73.5222 197.488 73.9916 197.589 74.3969 197.792C74.8022 197.984 75.1276 198.245 75.3729 198.576V194.32H77.5489V206H75.4689V205.008C75.2449 205.349 74.9196 205.632 74.4929 205.856C74.0662 206.08 73.5702 206.192 73.0049 206.192ZM73.5329 204.432C74.0769 204.432 74.5196 204.245 74.8609 203.872C75.2022 203.499 75.3729 203.019 75.3729 202.432V201.216C75.3729 200.608 75.1969 200.128 74.8449 199.776C74.5036 199.424 74.0716 199.248 73.5489 199.248C72.9516 199.248 72.4876 199.435 72.1569 199.808C71.8369 200.171 71.6769 200.651 71.6769 201.248V202.432C71.6769 203.019 71.8316 203.499 72.1409 203.872C72.4609 204.245 72.9249 204.432 73.5329 204.432ZM87.7566 206.192C87.1806 206.192 86.674 206.085 86.2366 205.872C85.81 205.648 85.4953 205.36 85.2926 205.008V206H83.2126V194.32H85.3886V198.608C85.6233 198.277 85.9486 198.011 86.3646 197.808C86.7806 197.595 87.25 197.488 87.7726 197.488C88.498 197.488 89.122 197.653 89.6446 197.984C90.178 198.304 90.578 198.747 90.8446 199.312C91.122 199.867 91.2606 200.48 91.2606 201.152V202.528C91.2606 203.189 91.122 203.803 90.8446 204.368C90.5673 204.923 90.162 205.365 89.6286 205.696C89.106 206.027 88.482 206.192 87.7566 206.192ZM87.2286 204.432C87.8366 204.432 88.2953 204.245 88.6046 203.872C88.9246 203.499 89.0846 203.019 89.0846 202.432V201.248C89.0846 200.651 88.9193 200.171 88.5886 199.808C88.2686 199.435 87.81 199.248 87.2126 199.248C86.69 199.248 86.2526 199.424 85.9006 199.776C85.5593 200.128 85.3886 200.608 85.3886 201.216V202.432C85.3886 203.019 85.5593 203.499 85.9006 203.872C86.242 204.245 86.6846 204.432 87.2286 204.432ZM94.1801 197.68L95.9721 203.648L97.6681 197.68H99.8281L96.1961 208.784H94.0521L94.8841 205.968L92.0041 197.68H94.1801ZM109.1 199.44C110.06 199.483 110.849 199.787 111.468 200.352C112.097 200.907 112.412 201.685 112.412 202.688C112.412 203.36 112.225 203.968 111.852 204.512C111.478 205.045 110.977 205.467 110.348 205.776C109.718 206.075 109.025 206.224 108.268 206.224C107.532 206.224 106.86 206.091 106.252 205.824C105.654 205.557 105.169 205.163 104.796 204.64C104.433 204.107 104.246 203.467 104.236 202.72H106.284C106.326 203.253 106.524 203.675 106.876 203.984C107.238 204.293 107.708 204.448 108.284 204.448C108.87 204.448 109.34 204.283 109.692 203.952C110.054 203.621 110.236 203.216 110.236 202.736C110.236 202.235 110.065 201.84 109.724 201.552C109.393 201.264 108.918 201.12 108.3 201.12H106.652V199.344L109.276 196.56H104.924V194.8H111.964V196.576L109.1 199.44ZM121.117 206.192C120.029 206.192 119.159 205.968 118.509 205.52C117.858 205.061 117.533 204.4 117.533 203.536V203.392H119.453V203.504C119.453 203.867 119.602 204.149 119.901 204.352C120.21 204.555 120.621 204.656 121.133 204.656C121.602 204.656 121.981 204.565 122.269 204.384C122.567 204.203 122.717 203.957 122.717 203.648C122.717 203.445 122.658 203.285 122.541 203.168C122.434 203.04 122.263 202.949 122.029 202.896L119.565 202.336C118.925 202.187 118.445 201.941 118.125 201.6C117.815 201.248 117.661 200.763 117.661 200.144C117.661 199.301 117.965 198.651 118.573 198.192C119.191 197.723 120.007 197.488 121.021 197.488C122.023 197.488 122.823 197.728 123.421 198.208C124.018 198.677 124.317 199.323 124.317 200.144V200.272H122.413V200.128C122.413 199.787 122.301 199.52 122.077 199.328C121.853 199.136 121.511 199.04 121.053 199.04C120.615 199.04 120.279 199.12 120.045 199.28C119.81 199.429 119.693 199.653 119.693 199.952C119.693 200.155 119.741 200.309 119.837 200.416C119.943 200.523 120.109 200.603 120.333 200.656L122.861 201.28C123.49 201.429 123.954 201.68 124.253 202.032C124.562 202.373 124.717 202.832 124.717 203.408C124.717 203.941 124.557 204.421 124.237 204.848C123.927 205.264 123.501 205.595 122.957 205.84C122.413 206.075 121.799 206.192 121.117 206.192ZM129.889 206.192C128.705 206.192 127.761 205.867 127.057 205.216C126.363 204.555 126.017 203.643 126.017 202.48V201.344C126.017 200.181 126.353 199.248 127.025 198.544C127.697 197.84 128.641 197.488 129.857 197.488C130.646 197.488 131.318 197.653 131.873 197.984C132.438 198.304 132.859 198.741 133.137 199.296C133.425 199.84 133.569 200.453 133.569 201.136V202.592H128.129V202.8C128.129 203.333 128.273 203.771 128.561 204.112C128.849 204.453 129.291 204.624 129.889 204.624C130.326 204.624 130.694 204.528 130.993 204.336C131.291 204.133 131.494 203.877 131.601 203.568H133.505C133.409 204.069 133.19 204.523 132.849 204.928C132.507 205.323 132.081 205.632 131.569 205.856C131.057 206.08 130.497 206.192 129.889 206.192ZM131.569 200.848C131.569 200.304 131.425 199.867 131.137 199.536C130.849 199.195 130.422 199.024 129.857 199.024C129.259 199.024 128.822 199.2 128.545 199.552C128.267 199.904 128.129 200.379 128.129 200.976V201.056H131.569V200.848ZM137.402 199.296C137.647 198.176 138.479 197.616 139.898 197.616H140.154V199.776H139.706C138.98 199.776 138.431 199.968 138.058 200.352C137.695 200.736 137.514 201.339 137.514 202.16V206H135.338V197.68H137.402V199.296ZM143.227 197.68L145.019 203.776L146.811 197.68H148.987L146.155 206H143.883L141.051 197.68H143.227ZM150.1 195.504C150.1 195.141 150.218 194.843 150.452 194.608C150.698 194.363 151.002 194.24 151.364 194.24C151.727 194.24 152.026 194.363 152.26 194.608C152.506 194.843 152.628 195.141 152.628 195.504C152.628 195.867 152.506 196.171 152.26 196.416C152.026 196.651 151.727 196.768 151.364 196.768C151.002 196.768 150.698 196.651 150.452 196.416C150.218 196.171 150.1 195.867 150.1 195.504ZM150.276 206V197.68H152.452V206H150.276ZM158.218 206.192C157.397 206.192 156.687 206.032 156.09 205.712C155.503 205.392 155.055 204.949 154.746 204.384C154.437 203.808 154.282 203.157 154.282 202.432V201.248C154.282 200.523 154.437 199.877 154.746 199.312C155.055 198.736 155.503 198.288 156.09 197.968C156.687 197.648 157.397 197.488 158.218 197.488C158.943 197.488 159.589 197.632 160.154 197.92C160.73 198.197 161.178 198.587 161.498 199.088C161.818 199.589 161.989 200.155 162.01 200.784H160.026C159.973 200.336 159.802 199.968 159.514 199.68C159.226 199.392 158.81 199.248 158.266 199.248C157.669 199.248 157.215 199.424 156.906 199.776C156.607 200.117 156.458 200.581 156.458 201.168V202.512C156.458 203.099 156.607 203.568 156.906 203.92C157.215 204.261 157.669 204.432 158.266 204.432C158.81 204.432 159.226 204.288 159.514 204C159.802 203.712 159.973 203.344 160.026 202.896H162.01C161.989 203.525 161.818 204.091 161.498 204.592C161.178 205.093 160.73 205.488 160.154 205.776C159.589 206.053 158.943 206.192 158.218 206.192ZM167.295 206.192C166.111 206.192 165.167 205.867 164.463 205.216C163.769 204.555 163.423 203.643 163.423 202.48V201.344C163.423 200.181 163.759 199.248 164.431 198.544C165.103 197.84 166.047 197.488 167.263 197.488C168.052 197.488 168.724 197.653 169.279 197.984C169.844 198.304 170.265 198.741 170.543 199.296C170.831 199.84 170.975 200.453 170.975 201.136V202.592H165.535V202.8C165.535 203.333 165.679 203.771 165.967 204.112C166.255 204.453 166.697 204.624 167.295 204.624C167.732 204.624 168.1 204.528 168.399 204.336C168.697 204.133 168.9 203.877 169.007 203.568H170.911C170.815 204.069 170.596 204.523 170.255 204.928C169.913 205.323 169.487 205.632 168.975 205.856C168.463 206.08 167.903 206.192 167.295 206.192ZM168.975 200.848C168.975 200.304 168.831 199.867 168.543 199.536C168.255 199.195 167.828 199.024 167.263 199.024C166.665 199.024 166.228 199.2 165.951 199.552C165.673 199.904 165.535 200.379 165.535 200.976V201.056H168.975V200.848ZM175.976 206.192C174.888 206.192 174.019 205.968 173.368 205.52C172.717 205.061 172.392 204.4 172.392 203.536V203.392H174.312V203.504C174.312 203.867 174.461 204.149 174.76 204.352C175.069 204.555 175.48 204.656 175.992 204.656C176.461 204.656 176.84 204.565 177.128 204.384C177.427 204.203 177.576 203.957 177.576 203.648C177.576 203.445 177.517 203.285 177.4 203.168C177.293 203.04 177.123 202.949 176.888 202.896L174.424 202.336C173.784 202.187 173.304 201.941 172.984 201.6C172.675 201.248 172.52 200.763 172.52 200.144C172.52 199.301 172.824 198.651 173.432 198.192C174.051 197.723 174.867 197.488 175.88 197.488C176.883 197.488 177.683 197.728 178.28 198.208C178.877 198.677 179.176 199.323 179.176 200.144V200.272H177.272V200.128C177.272 199.787 177.16 199.52 176.936 199.328C176.712 199.136 176.371 199.04 175.912 199.04C175.475 199.04 175.139 199.12 174.904 199.28C174.669 199.429 174.552 199.653 174.552 199.952C174.552 200.155 174.6 200.309 174.696 200.416C174.803 200.523 174.968 200.603 175.192 200.656L177.72 201.28C178.349 201.429 178.813 201.68 179.112 202.032C179.421 202.373 179.576 202.832 179.576 203.408C179.576 203.941 179.416 204.421 179.096 204.848C178.787 205.264 178.36 205.595 177.816 205.84C177.272 206.075 176.659 206.192 175.976 206.192Z" fill="#010101"/>
<path d="M55.7973 224.771V225.716L52.4373 229.391H52.8423C53.4823 229.391 54.0523 229.516 54.5523 229.766C55.0523 230.006 55.4423 230.351 55.7223 230.801C56.0023 231.241 56.1423 231.756 56.1423 232.346C56.1423 232.946 55.9773 233.486 55.6473 233.966C55.3273 234.436 54.8873 234.806 54.3273 235.076C53.7673 235.346 53.1573 235.481 52.4973 235.481C51.8873 235.481 51.3173 235.361 50.7873 235.121C50.2573 234.881 49.8223 234.531 49.4823 234.071C49.1523 233.601 48.9773 233.046 48.9573 232.406H50.0223C50.0723 233.066 50.3223 233.591 50.7723 233.981C51.2323 234.361 51.8123 234.551 52.5123 234.551C53.2623 234.551 53.8673 234.346 54.3273 233.936C54.7873 233.526 55.0173 233.006 55.0173 232.376C55.0173 231.736 54.7973 231.221 54.3573 230.831C53.9173 230.441 53.3273 230.246 52.5873 230.246H51.1623V229.346L54.4023 225.701H49.6773V224.771H55.7973ZM64.7242 235.451C64.0142 235.451 63.3992 235.301 62.8792 235.001C62.3592 234.701 61.9642 234.296 61.6942 233.786C61.4242 233.276 61.2892 232.701 61.2892 232.061V230.801C61.2892 230.161 61.4242 229.586 61.6942 229.076C61.9742 228.566 62.3692 228.161 62.8792 227.861C63.3992 227.561 64.0142 227.411 64.7242 227.411C65.4342 227.411 66.0442 227.561 66.5542 227.861C67.0742 228.161 67.4692 228.566 67.7392 229.076C68.0092 229.586 68.1442 230.161 68.1442 230.801V232.061C68.1442 232.701 68.0092 233.276 67.7392 233.786C67.4692 234.296 67.0742 234.701 66.5542 235.001C66.0442 235.301 65.4342 235.451 64.7242 235.451ZM67.0492 230.816C67.0492 230.066 66.8442 229.466 66.4342 229.016C66.0342 228.556 65.4642 228.326 64.7242 228.326C63.9842 228.326 63.4092 228.556 62.9992 229.016C62.5992 229.466 62.3992 230.066 62.3992 230.816V232.046C62.3992 232.796 62.5992 233.401 62.9992 233.861C63.4092 234.311 63.9842 234.536 64.7242 234.536C65.4642 234.536 66.0342 234.311 66.4342 233.861C66.8442 233.401 67.0492 232.796 67.0492 232.046V230.816ZM70.2043 227.591H71.2843V228.791C71.4643 228.411 71.7893 228.086 72.2593 227.816C72.7293 227.546 73.2693 227.411 73.8793 227.411C74.5493 227.411 75.1243 227.561 75.6043 227.861C76.0943 228.151 76.4643 228.556 76.7143 229.076C76.9643 229.596 77.0893 230.186 77.0893 230.846V232.016C77.0893 232.676 76.9593 233.266 76.6993 233.786C76.4393 234.306 76.0643 234.716 75.5743 235.016C75.0943 235.306 74.5393 235.451 73.9093 235.451C73.3293 235.451 72.8143 235.331 72.3643 235.091C71.9243 234.851 71.5843 234.531 71.3443 234.131V237.881H70.2043V227.591ZM75.9493 230.891C75.9493 230.141 75.7593 229.531 75.3793 229.061C75.0093 228.581 74.4443 228.341 73.6843 228.341C72.9543 228.341 72.3793 228.591 71.9593 229.091C71.5493 229.581 71.3443 230.211 71.3443 230.981V231.971C71.3443 232.481 71.4493 232.931 71.6593 233.321C71.8693 233.701 72.1543 233.996 72.5143 234.206C72.8743 234.416 73.2693 234.521 73.6993 234.521C74.3993 234.521 74.9493 234.281 75.3493 233.801C75.7493 233.311 75.9493 232.701 75.9493 231.971V230.891ZM82.1548 235.451C81.4948 235.451 80.9048 235.316 80.3848 235.046C79.8748 234.776 79.4748 234.391 79.1848 233.891C78.9048 233.381 78.7648 232.786 78.7648 232.106V230.876C78.7648 229.816 79.0548 228.976 79.6348 228.356C80.2248 227.726 81.0498 227.411 82.1098 227.411C83.1598 227.411 83.9648 227.721 84.5248 228.341C85.0848 228.961 85.3648 229.766 85.3648 230.756V231.896H79.8598V232.166C79.8598 232.876 80.0498 233.456 80.4298 233.906C80.8198 234.356 81.3948 234.581 82.1548 234.581C82.7148 234.581 83.1748 234.446 83.5348 234.176C83.8948 233.906 84.1398 233.546 84.2698 233.096H85.2898C85.1598 233.786 84.8048 234.351 84.2248 234.791C83.6448 235.231 82.9548 235.451 82.1548 235.451ZM84.2998 231.026V230.666C84.2998 229.946 84.1148 229.371 83.7448 228.941C83.3748 228.501 82.8298 228.281 82.1098 228.281C81.3298 228.281 80.7598 228.511 80.3998 228.971C80.0398 229.421 79.8598 230.026 79.8598 230.786V231.026H84.2998ZM88.5105 227.591V229.361C88.8005 228.151 89.6355 227.546 91.0155 227.546H91.1955V228.611H90.9705C90.2305 228.611 89.6455 228.856 89.2155 229.346C88.7955 229.836 88.5855 230.556 88.5855 231.506V235.271H87.4455V227.591H88.5105ZM97.4845 234.311C97.3045 234.611 96.9695 234.876 96.4795 235.106C95.9895 235.336 95.4445 235.451 94.8445 235.451C93.9545 235.451 93.2445 235.226 92.7145 234.776C92.1945 234.326 91.9345 233.746 91.9345 233.036C91.9345 232.296 92.2095 231.711 92.7595 231.281C93.3195 230.851 94.0595 230.636 94.9795 230.636C95.5295 230.636 96.0095 230.731 96.4195 230.921C96.8395 231.101 97.1795 231.326 97.4395 231.596V230.171C97.4395 229.631 97.2695 229.186 96.9295 228.836C96.5895 228.486 96.1195 228.311 95.5195 228.311C95.0495 228.311 94.6495 228.416 94.3195 228.626C93.9995 228.826 93.7595 229.106 93.5995 229.466H92.5495C92.7495 228.826 93.1095 228.326 93.6295 227.966C94.1495 227.596 94.7845 227.411 95.5345 227.411C96.1545 227.411 96.6945 227.536 97.1545 227.786C97.6145 228.026 97.9645 228.356 98.2045 228.776C98.4545 229.196 98.5795 229.661 98.5795 230.171V235.271H97.4845V234.311ZM95.0845 234.716C95.4845 234.716 95.8645 234.646 96.2245 234.506C96.5945 234.356 96.8895 234.151 97.1095 233.891C97.3295 233.631 97.4395 233.341 97.4395 233.021C97.4395 232.711 97.3295 232.431 97.1095 232.181C96.8895 231.931 96.6045 231.736 96.2545 231.596C95.9045 231.456 95.5345 231.386 95.1445 231.386C94.4945 231.386 93.9745 231.536 93.5845 231.836C93.2045 232.126 93.0145 232.531 93.0145 233.051C93.0145 233.571 93.2045 233.981 93.5845 234.281C93.9745 234.571 94.4745 234.716 95.0845 234.716ZM103.535 235.271C102.815 235.271 102.285 235.101 101.945 234.761C101.615 234.411 101.45 233.901 101.45 233.231V228.521H100.145V227.591H101.45V225.386H102.59V227.591H104.555V228.521H102.59V233.231C102.59 233.631 102.675 233.916 102.845 234.086C103.015 234.256 103.31 234.341 103.73 234.341H104.495V235.271H103.535ZM106.34 225.566C106.34 225.366 106.405 225.201 106.535 225.071C106.665 224.941 106.84 224.876 107.06 224.876C107.28 224.876 107.455 224.941 107.585 225.071C107.715 225.201 107.78 225.366 107.78 225.566C107.78 225.766 107.715 225.931 107.585 226.061C107.455 226.191 107.28 226.256 107.06 226.256C106.84 226.256 106.665 226.191 106.535 226.061C106.405 225.931 106.34 225.766 106.34 225.566ZM107.63 227.591V235.271H106.49V227.591H107.63ZM113.196 235.451C112.486 235.451 111.871 235.301 111.351 235.001C110.831 234.701 110.436 234.296 110.166 233.786C109.896 233.276 109.761 232.701 109.761 232.061V230.801C109.761 230.161 109.896 229.586 110.166 229.076C110.446 228.566 110.841 228.161 111.351 227.861C111.871 227.561 112.486 227.411 113.196 227.411C113.906 227.411 114.516 227.561 115.026 227.861C115.546 228.161 115.941 228.566 116.211 229.076C116.481 229.586 116.616 230.161 116.616 230.801V232.061C116.616 232.701 116.481 233.276 116.211 233.786C115.941 234.296 115.546 234.701 115.026 235.001C114.516 235.301 113.906 235.451 113.196 235.451ZM115.521 230.816C115.521 230.066 115.316 229.466 114.906 229.016C114.506 228.556 113.936 228.326 113.196 228.326C112.456 228.326 111.881 228.556 111.471 229.016C111.071 229.466 110.871 230.066 110.871 230.816V232.046C110.871 232.796 111.071 233.401 111.471 233.861C111.881 234.311 112.456 234.536 113.196 234.536C113.936 234.536 114.506 234.311 114.906 233.861C115.316 233.401 115.521 232.796 115.521 232.046V230.816ZM119.756 227.591V228.896C119.946 228.446 120.261 228.086 120.701 227.816C121.141 227.546 121.681 227.411 122.321 227.411C123.181 227.411 123.866 227.686 124.376 228.236C124.886 228.776 125.141 229.506 125.141 230.426V235.271H124.001V230.591C124.001 229.911 123.841 229.376 123.521 228.986C123.201 228.596 122.706 228.401 122.036 228.401C121.376 228.401 120.841 228.601 120.431 229.001C120.021 229.401 119.816 229.986 119.816 230.756V235.271H118.676V227.591H119.756ZM132.699 234.311C132.519 234.611 132.184 234.876 131.694 235.106C131.204 235.336 130.659 235.451 130.059 235.451C129.169 235.451 128.459 235.226 127.929 234.776C127.409 234.326 127.149 233.746 127.149 233.036C127.149 232.296 127.424 231.711 127.974 231.281C128.534 230.851 129.274 230.636 130.194 230.636C130.744 230.636 131.224 230.731 131.634 230.921C132.054 231.101 132.394 231.326 132.654 231.596V230.171C132.654 229.631 132.484 229.186 132.144 228.836C131.804 228.486 131.334 228.311 130.734 228.311C130.264 228.311 129.864 228.416 129.534 228.626C129.214 228.826 128.974 229.106 128.814 229.466H127.764C127.964 228.826 128.324 228.326 128.844 227.966C129.364 227.596 129.999 227.411 130.749 227.411C131.369 227.411 131.909 227.536 132.369 227.786C132.829 228.026 133.179 228.356 133.419 228.776C133.669 229.196 133.794 229.661 133.794 230.171V235.271H132.699V234.311ZM130.299 234.716C130.699 234.716 131.079 234.646 131.439 234.506C131.809 234.356 132.104 234.151 132.324 233.891C132.544 233.631 132.654 233.341 132.654 233.021C132.654 232.711 132.544 232.431 132.324 232.181C132.104 231.931 131.819 231.736 131.469 231.596C131.119 231.456 130.749 231.386 130.359 231.386C129.709 231.386 129.189 231.536 128.799 231.836C128.419 232.126 128.229 232.531 128.229 233.051C128.229 233.571 128.419 233.981 128.799 234.281C129.189 234.571 129.689 234.716 130.299 234.716ZM137.352 224.321V235.271H136.212V224.321H137.352ZM145.974 235.451C145.033 235.451 144.268 235.231 143.678 234.791C143.088 234.351 142.793 233.766 142.793 233.036V232.961H143.828V233.006C143.828 233.486 144.028 233.871 144.428 234.161C144.828 234.451 145.348 234.596 145.989 234.596C146.609 234.596 147.104 234.476 147.474 234.236C147.844 233.986 148.029 233.621 148.029 233.141C148.029 232.871 147.944 232.646 147.774 232.466C147.614 232.276 147.379 232.146 147.069 232.076L144.788 231.551C144.218 231.421 143.773 231.191 143.453 230.861C143.143 230.521 142.988 230.101 142.988 229.601C142.988 228.901 143.253 228.361 143.783 227.981C144.323 227.601 145.028 227.411 145.898 227.411C146.429 227.411 146.909 227.516 147.339 227.726C147.779 227.926 148.124 228.206 148.374 228.566C148.624 228.926 148.749 229.341 148.749 229.811V229.886H147.714V229.841C147.714 229.361 147.549 228.981 147.219 228.701C146.899 228.411 146.454 228.266 145.884 228.266C145.333 228.266 144.888 228.381 144.548 228.611C144.208 228.831 144.038 229.151 144.038 229.571C144.038 230.101 144.308 230.431 144.848 230.561L147.204 231.116C147.824 231.266 148.294 231.501 148.614 231.821C148.934 232.131 149.094 232.556 149.094 233.096C149.094 233.546 148.959 233.951 148.689 234.311C148.419 234.671 148.044 234.951 147.564 235.151C147.094 235.351 146.564 235.451 145.974 235.451ZM154.064 235.451C153.404 235.451 152.814 235.316 152.294 235.046C151.784 234.776 151.384 234.391 151.094 233.891C150.814 233.381 150.674 232.786 150.674 232.106V230.876C150.674 229.816 150.964 228.976 151.544 228.356C152.134 227.726 152.959 227.411 154.019 227.411C155.069 227.411 155.874 227.721 156.434 228.341C156.994 228.961 157.274 229.766 157.274 230.756V231.896H151.769V232.166C151.769 232.876 151.959 233.456 152.339 233.906C152.729 234.356 153.304 234.581 154.064 234.581C154.624 234.581 155.084 234.446 155.444 234.176C155.804 233.906 156.049 233.546 156.179 233.096H157.199C157.069 233.786 156.714 234.351 156.134 234.791C155.554 235.231 154.864 235.451 154.064 235.451ZM156.209 231.026V230.666C156.209 229.946 156.024 229.371 155.654 228.941C155.284 228.501 154.739 228.281 154.019 228.281C153.239 228.281 152.669 228.511 152.309 228.971C151.949 229.421 151.769 230.026 151.769 230.786V231.026H156.209ZM160.42 227.591V229.361C160.71 228.151 161.545 227.546 162.925 227.546H163.105V228.611H162.88C162.14 228.611 161.555 228.856 161.125 229.346C160.705 229.836 160.495 230.556 160.495 231.506V235.271H159.355V227.591H160.42ZM166.975 235.271L164.155 227.591H165.28L167.575 234.131L169.87 227.591H170.995L168.175 235.271H166.975ZM172.522 225.566C172.522 225.366 172.587 225.201 172.717 225.071C172.847 224.941 173.022 224.876 173.242 224.876C173.462 224.876 173.637 224.941 173.767 225.071C173.897 225.201 173.962 225.366 173.962 225.566C173.962 225.766 173.897 225.931 173.767 226.061C173.637 226.191 173.462 226.256 173.242 226.256C173.022 226.256 172.847 226.191 172.717 226.061C172.587 225.931 172.522 225.766 172.522 225.566ZM173.812 227.591V235.271H172.672V227.591H173.812ZM179.348 235.451C178.658 235.451 178.053 235.306 177.533 235.016C177.023 234.726 176.628 234.326 176.348 233.816C176.078 233.306 175.943 232.726 175.943 232.076V230.786C175.943 230.136 176.078 229.556 176.348 229.046C176.628 228.536 177.023 228.136 177.533 227.846C178.053 227.556 178.658 227.411 179.348 227.411C179.978 227.411 180.533 227.536 181.013 227.786C181.503 228.036 181.888 228.381 182.168 228.821C182.448 229.261 182.603 229.751 182.633 230.291H181.613C181.533 229.721 181.308 229.251 180.938 228.881C180.568 228.501 180.043 228.311 179.363 228.311C178.603 228.311 178.028 228.536 177.638 228.986C177.248 229.426 177.053 230.021 177.053 230.771V232.091C177.053 232.841 177.248 233.441 177.638 233.891C178.028 234.331 178.603 234.551 179.363 234.551C180.043 234.551 180.568 234.366 180.938 233.996C181.308 233.616 181.533 233.141 181.613 232.571H182.633C182.603 233.111 182.448 233.601 182.168 234.041C181.888 234.481 181.503 234.826 181.013 235.076C180.533 235.326 179.978 235.451 179.348 235.451ZM187.726 235.451C187.066 235.451 186.476 235.316 185.956 235.046C185.446 234.776 185.046 234.391 184.756 233.891C184.476 233.381 184.336 232.786 184.336 232.106V230.876C184.336 229.816 184.626 228.976 185.206 228.356C185.796 227.726 186.621 227.411 187.681 227.411C188.731 227.411 189.536 227.721 190.096 228.341C190.656 228.961 190.936 229.766 190.936 230.756V231.896H185.431V232.166C185.431 232.876 185.621 233.456 186.001 233.906C186.391 234.356 186.966 234.581 187.726 234.581C188.286 234.581 188.746 234.446 189.106 234.176C189.466 233.906 189.711 233.546 189.841 233.096H190.861C190.731 233.786 190.376 234.351 189.796 234.791C189.216 235.231 188.526 235.451 187.726 235.451ZM189.871 231.026V230.666C189.871 229.946 189.686 229.371 189.316 228.941C188.946 228.501 188.401 228.281 187.681 228.281C186.901 228.281 186.331 228.511 185.971 228.971C185.611 229.421 185.431 230.026 185.431 230.786V231.026H189.871ZM195.837 235.451C194.897 235.451 194.132 235.231 193.542 234.791C192.952 234.351 192.657 233.766 192.657 233.036V232.961H193.692V233.006C193.692 233.486 193.892 233.871 194.292 234.161C194.692 234.451 195.212 234.596 195.852 234.596C196.472 234.596 196.967 234.476 197.337 234.236C197.707 233.986 197.892 233.621 197.892 233.141C197.892 232.871 197.807 232.646 197.637 232.466C197.477 232.276 197.242 232.146 196.932 232.076L194.652 231.551C194.082 231.421 193.637 231.191 193.317 230.861C193.007 230.521 192.852 230.101 192.852 229.601C192.852 228.901 193.117 228.361 193.647 227.981C194.187 227.601 194.892 227.411 195.762 227.411C196.292 227.411 196.772 227.516 197.202 227.726C197.642 227.926 197.987 228.206 198.237 228.566C198.487 228.926 198.612 229.341 198.612 229.811V229.886H197.577V229.841C197.577 229.361 197.412 228.981 197.082 228.701C196.762 228.411 196.317 228.266 195.747 228.266C195.197 228.266 194.752 228.381 194.412 228.611C194.072 228.831 193.902 229.151 193.902 229.571C193.902 230.101 194.172 230.431 194.712 230.561L197.067 231.116C197.687 231.266 198.157 231.501 198.477 231.821C198.797 232.131 198.957 232.556 198.957 233.096C198.957 233.546 198.822 233.951 198.552 234.311C198.282 234.671 197.907 234.951 197.427 235.151C196.957 235.351 196.427 235.451 195.837 235.451Z" fill="#4A4A4A"/>
<path fill-rule="evenodd" clip-rule="evenodd" d="M25.0273 230.632C25.0273 227.108 27.9099 224.252 31.4673 224.252C35.0248 224.252 37.9073 227.108 37.9073 230.632C37.9073 234.155 35.0248 237.011 31.4673 237.011C27.9099 237.011 25.0273 234.155 25.0273 230.632ZM30.5013 232.907L34.5823 228.817C34.6311 228.768 34.6311 228.692 34.5762 228.64L34.042 228.089C34.0207 228.065 33.9901 228.053 33.9566 228.053C33.926 228.053 33.8955 228.065 33.8711 228.089L30.1473 231.832L28.792 230.48C28.7676 230.455 28.7371 230.443 28.7066 230.443C28.676 230.443 28.6455 230.455 28.6211 230.48L28.0778 231.022C28.0289 231.071 28.0289 231.147 28.0778 231.196L29.7871 232.901C29.897 233.011 30.0282 233.075 30.1442 233.075C30.306 233.075 30.4464 232.959 30.4983 232.907L30.5013 232.907Z" fill="#1A1A1A"/>
<mask id="mask1" mask-type="alpha" maskUnits="userSpaceOnUse" x="25" y="224" width="13" height="14">
<path fill-rule="evenodd" clip-rule="evenodd" d="M25.0273 230.632C25.0273 227.108 27.9099 224.252 31.4673 224.252C35.0248 224.252 37.9073 227.108 37.9073 230.632C37.9073 234.155 35.0248 237.011 31.4673 237.011C27.9099 237.011 25.0273 234.155 25.0273 230.632ZM30.5013 232.907L34.5823 228.817C34.6311 228.768 34.6311 228.692 34.5762 228.64L34.042 228.089C34.0207 228.065 33.9901 228.053 33.9566 228.053C33.926 228.053 33.8955 228.065 33.8711 228.089L30.1473 231.832L28.792 230.48C28.7676 230.455 28.7371 230.443 28.7066 230.443C28.676 230.443 28.6455 230.455 28.6211 230.48L28.0778 231.022C28.0289 231.071 28.0289 231.147 28.0778 231.196L29.7871 232.901C29.897 233.011 30.0282 233.075 30.1442 233.075C30.306 233.075 30.4464 232.959 30.4983 232.907L30.5013 232.907Z" fill="white"/>
</mask>
<g mask="url(#mask1)">
<rect x="24.4648" y="223.697" width="14" height="13.8681" fill="#28A745"/>
</g>
<rect x="0.5" y="0.5" width="367" height="361" rx="7.5" stroke="#C9D7C3" stroke-opacity="0.5"/>
<defs>
<linearGradient id="paint0_linear" x1="184" y1="0" x2="184" y2="289.379" gradientUnits="userSpaceOnUse">
<stop stop-color="#38FF58" stop-opacity="0.05"/>
<stop offset="1" stop-color="white" stop-opacity="0"/>
</linearGradient>
</defs>
</svg>
