<svg width="300" height="345" viewBox="0 0 300 345" fill="none" xmlns="http://www.w3.org/2000/svg">
<rect width="300" height="345" fill="white"/>
<path d="M34.4828 41V28.4H36.7868V33.638H42.4388V28.4H44.7428V41H42.4388V35.51H36.7868V41H34.4828ZM51.4218 41.216C50.5578 41.216 49.7778 41.018 49.0818 40.622C48.3978 40.226 47.8518 39.68 47.4438 38.984C47.0478 38.276 46.8498 37.46 46.8498 36.536C46.8498 35.612 47.0538 34.802 47.4618 34.106C47.8698 33.398 48.4158 32.846 49.0998 32.45C49.7958 32.054 50.5758 31.856 51.4398 31.856C52.2918 31.856 53.0598 32.054 53.7438 32.45C54.4398 32.846 54.9858 33.398 55.3818 34.106C55.7898 34.802 55.9938 35.612 55.9938 36.536C55.9938 37.46 55.7898 38.276 55.3818 38.984C54.9858 39.68 54.4398 40.226 53.7438 40.622C53.0478 41.018 52.2738 41.216 51.4218 41.216ZM51.4218 39.218C52.0218 39.218 52.5438 38.996 52.9878 38.552C53.4318 38.096 53.6538 37.424 53.6538 36.536C53.6538 35.648 53.4318 34.982 52.9878 34.538C52.5438 34.082 52.0278 33.854 51.4398 33.854C50.8278 33.854 50.2998 34.082 49.8558 34.538C49.4238 34.982 49.2078 35.648 49.2078 36.536C49.2078 37.424 49.4238 38.096 49.8558 38.552C50.2998 38.996 50.8218 39.218 51.4218 39.218ZM59.4834 41L56.8734 32.072H59.1594L60.7074 38.498L62.5074 32.072H65.0634L66.8634 38.498L68.4294 32.072H70.7154L68.0874 41H65.6934L63.7854 34.322L61.8774 41H59.4834ZM80.5621 41.216C79.7221 41.216 78.9721 41.012 78.3121 40.604C77.6521 40.196 77.1301 39.638 76.7461 38.93C76.3621 38.222 76.1701 37.418 76.1701 36.518C76.1701 35.618 76.3621 34.82 76.7461 34.124C77.1301 33.416 77.6521 32.864 78.3121 32.468C78.9721 32.06 79.7221 31.856 80.5621 31.856C81.2341 31.856 81.8221 31.982 82.3261 32.234C82.8301 32.486 83.2381 32.84 83.5501 33.296V28.04H85.8541V41H83.8021L83.5501 39.722C83.2621 40.118 82.8781 40.466 82.3981 40.766C81.9301 41.066 81.3181 41.216 80.5621 41.216ZM81.0481 39.2C81.7921 39.2 82.3981 38.954 82.8661 38.462C83.3461 37.958 83.5861 37.316 83.5861 36.536C83.5861 35.756 83.3461 35.12 82.8661 34.628C82.3981 34.124 81.7921 33.872 81.0481 33.872C80.3161 33.872 79.7101 34.118 79.2301 34.61C78.7501 35.102 78.5101 35.738 78.5101 36.518C78.5101 37.298 78.7501 37.94 79.2301 38.444C79.7101 38.948 80.3161 39.2 81.0481 39.2ZM92.4843 41.216C91.6203 41.216 90.8403 41.018 90.1443 40.622C89.4603 40.226 88.9143 39.68 88.5063 38.984C88.1103 38.276 87.9123 37.46 87.9123 36.536C87.9123 35.612 88.1163 34.802 88.5243 34.106C88.9323 33.398 89.4783 32.846 90.1623 32.45C90.8583 32.054 91.6383 31.856 92.5023 31.856C93.3543 31.856 94.1223 32.054 94.8063 32.45C95.5023 32.846 96.0483 33.398 96.4443 34.106C96.8523 34.802 97.0563 35.612 97.0563 36.536C97.0563 37.46 96.8523 38.276 96.4443 38.984C96.0483 39.68 95.5023 40.226 94.8063 40.622C94.1103 41.018 93.3363 41.216 92.4843 41.216ZM92.4843 39.218C93.0843 39.218 93.6063 38.996 94.0503 38.552C94.4943 38.096 94.7163 37.424 94.7163 36.536C94.7163 35.648 94.4943 34.982 94.0503 34.538C93.6063 34.082 93.0903 33.854 92.5023 33.854C91.8903 33.854 91.3623 34.082 90.9183 34.538C90.4863 34.982 90.2703 35.648 90.2703 36.536C90.2703 37.424 90.4863 38.096 90.9183 38.552C91.3623 38.996 91.8843 39.218 92.4843 39.218ZM104.521 44.96L106.591 40.406H106.051L102.577 32.072H105.079L107.581 38.354L110.191 32.072H112.639L106.969 44.96H104.521ZM117.656 41.216C116.792 41.216 116.012 41.018 115.316 40.622C114.632 40.226 114.086 39.68 113.678 38.984C113.282 38.276 113.084 37.46 113.084 36.536C113.084 35.612 113.288 34.802 113.696 34.106C114.104 33.398 114.65 32.846 115.334 32.45C116.03 32.054 116.81 31.856 117.674 31.856C118.526 31.856 119.294 32.054 119.978 32.45C120.674 32.846 121.22 33.398 121.616 34.106C122.024 34.802 122.228 35.612 122.228 36.536C122.228 37.46 122.024 38.276 121.616 38.984C121.22 39.68 120.674 40.226 119.978 40.622C119.282 41.018 118.508 41.216 117.656 41.216ZM117.656 39.218C118.256 39.218 118.778 38.996 119.222 38.552C119.666 38.096 119.888 37.424 119.888 36.536C119.888 35.648 119.666 34.982 119.222 34.538C118.778 34.082 118.262 33.854 117.674 33.854C117.062 33.854 116.534 34.082 116.09 34.538C115.658 34.982 115.442 35.648 115.442 36.536C115.442 37.424 115.658 38.096 116.09 38.552C116.534 38.996 117.056 39.218 117.656 39.218ZM127.636 41.216C126.52 41.216 125.656 40.868 125.044 40.172C124.444 39.476 124.144 38.456 124.144 37.112V32.072H126.43V36.896C126.43 37.664 126.586 38.252 126.898 38.66C127.21 39.068 127.702 39.272 128.374 39.272C129.01 39.272 129.532 39.044 129.94 38.588C130.36 38.132 130.57 37.496 130.57 36.68V32.072H132.874V41H130.84L130.66 39.488C130.384 40.016 129.982 40.436 129.454 40.748C128.938 41.06 128.332 41.216 127.636 41.216ZM139.528 41V32.072H141.562L141.76 33.278C142.048 32.846 142.426 32.504 142.894 32.252C143.374 31.988 143.926 31.856 144.55 31.856C145.93 31.856 146.908 32.39 147.484 33.458C147.808 32.966 148.24 32.576 148.78 32.288C149.332 32 149.932 31.856 150.58 31.856C151.744 31.856 152.638 32.204 153.262 32.9C153.886 33.596 154.198 34.616 154.198 35.96V41H151.894V36.176C151.894 35.408 151.744 34.82 151.444 34.412C151.156 34.004 150.706 33.8 150.094 33.8C149.47 33.8 148.966 34.028 148.582 34.484C148.21 34.94 148.024 35.576 148.024 36.392V41H145.72V36.176C145.72 35.408 145.57 34.82 145.27 34.412C144.97 34.004 144.508 33.8 143.884 33.8C143.272 33.8 142.774 34.028 142.39 34.484C142.018 34.94 141.832 35.576 141.832 36.392V41H139.528ZM159.464 41.216C158.696 41.216 158.066 41.096 157.574 40.856C157.082 40.604 156.716 40.274 156.476 39.866C156.236 39.458 156.116 39.008 156.116 38.516C156.116 37.688 156.44 37.016 157.088 36.5C157.736 35.984 158.708 35.726 160.004 35.726H162.272V35.51C162.272 34.898 162.098 34.448 161.75 34.16C161.402 33.872 160.97 33.728 160.454 33.728C159.986 33.728 159.578 33.842 159.23 34.07C158.882 34.286 158.666 34.61 158.582 35.042H156.332C156.392 34.394 156.608 33.83 156.98 33.35C157.364 32.87 157.856 32.504 158.456 32.252C159.056 31.988 159.728 31.856 160.472 31.856C161.744 31.856 162.746 32.174 163.478 32.81C164.21 33.446 164.576 34.346 164.576 35.51V41H162.614L162.398 39.56C162.134 40.04 161.762 40.436 161.282 40.748C160.814 41.06 160.208 41.216 159.464 41.216ZM159.986 39.416C160.646 39.416 161.156 39.2 161.516 38.768C161.888 38.336 162.122 37.802 162.218 37.166H160.256C159.644 37.166 159.206 37.28 158.942 37.508C158.678 37.724 158.546 37.994 158.546 38.318C158.546 38.666 158.678 38.936 158.942 39.128C159.206 39.32 159.554 39.416 159.986 39.416ZM166.774 41V32.072H168.808L168.988 33.584C169.264 33.056 169.66 32.636 170.176 32.324C170.704 32.012 171.322 31.856 172.03 31.856C173.134 31.856 173.992 32.204 174.604 32.9C175.216 33.596 175.522 34.616 175.522 35.96V41H173.218V36.176C173.218 35.408 173.062 34.82 172.75 34.412C172.438 34.004 171.952 33.8 171.292 33.8C170.644 33.8 170.11 34.028 169.69 34.484C169.282 34.94 169.078 35.576 169.078 36.392V41H166.774ZM180.804 41.216C180.036 41.216 179.406 41.096 178.914 40.856C178.422 40.604 178.056 40.274 177.816 39.866C177.576 39.458 177.456 39.008 177.456 38.516C177.456 37.688 177.78 37.016 178.428 36.5C179.076 35.984 180.048 35.726 181.344 35.726H183.612V35.51C183.612 34.898 183.438 34.448 183.09 34.16C182.742 33.872 182.31 33.728 181.794 33.728C181.326 33.728 180.918 33.842 180.57 34.07C180.222 34.286 180.006 34.61 179.922 35.042H177.672C177.732 34.394 177.948 33.83 178.32 33.35C178.704 32.87 179.196 32.504 179.796 32.252C180.396 31.988 181.068 31.856 181.812 31.856C183.084 31.856 184.086 32.174 184.818 32.81C185.55 33.446 185.916 34.346 185.916 35.51V41H183.954L183.738 39.56C183.474 40.04 183.102 40.436 182.622 40.748C182.154 41.06 181.548 41.216 180.804 41.216ZM181.326 39.416C181.986 39.416 182.496 39.2 182.856 38.768C183.228 38.336 183.462 37.802 183.558 37.166H181.596C180.984 37.166 180.546 37.28 180.282 37.508C180.018 37.724 179.886 37.994 179.886 38.318C179.886 38.666 180.018 38.936 180.282 39.128C180.546 39.32 180.894 39.416 181.326 39.416ZM191.894 38.336C191.462 38.336 191.06 38.288 190.688 38.192L190.022 38.858C190.226 38.966 190.502 39.056 190.85 39.128C191.198 39.2 191.762 39.272 192.542 39.344C193.73 39.452 194.594 39.734 195.134 40.19C195.674 40.646 195.944 41.276 195.944 42.08C195.944 42.608 195.8 43.106 195.512 43.574C195.224 44.054 194.78 44.438 194.18 44.726C193.58 45.026 192.812 45.176 191.876 45.176C190.604 45.176 189.578 44.936 188.798 44.456C188.018 43.988 187.628 43.28 187.628 42.332C187.628 41.528 188.018 40.832 188.798 40.244C188.558 40.136 188.348 40.022 188.168 39.902C188 39.782 187.85 39.656 187.718 39.524V39.11L189.284 37.454C188.588 36.842 188.24 36.056 188.24 35.096C188.24 34.496 188.384 33.95 188.672 33.458C188.972 32.966 189.392 32.576 189.932 32.288C190.472 32 191.126 31.856 191.894 31.856C192.398 31.856 192.866 31.928 193.298 32.072H196.682V33.476L195.152 33.584C195.392 34.04 195.512 34.544 195.512 35.096C195.512 35.696 195.368 36.242 195.08 36.734C194.792 37.226 194.372 37.616 193.82 37.904C193.28 38.192 192.638 38.336 191.894 38.336ZM191.894 36.572C192.362 36.572 192.746 36.446 193.046 36.194C193.358 35.942 193.514 35.582 193.514 35.114C193.514 34.646 193.358 34.286 193.046 34.034C192.746 33.782 192.362 33.656 191.894 33.656C191.402 33.656 191.006 33.782 190.706 34.034C190.406 34.286 190.256 34.646 190.256 35.114C190.256 35.582 190.406 35.942 190.706 36.194C191.006 36.446 191.402 36.572 191.894 36.572ZM189.734 42.098C189.734 42.542 189.938 42.872 190.346 43.088C190.766 43.316 191.276 43.43 191.876 43.43C192.452 43.43 192.92 43.31 193.28 43.07C193.64 42.842 193.82 42.53 193.82 42.134C193.82 41.81 193.7 41.54 193.46 41.324C193.232 41.108 192.77 40.976 192.074 40.928C191.582 40.892 191.126 40.838 190.706 40.766C190.358 40.958 190.106 41.168 189.95 41.396C189.806 41.624 189.734 41.858 189.734 42.098ZM202.349 41.216C201.449 41.216 200.651 41.024 199.955 40.64C199.259 40.256 198.713 39.716 198.317 39.02C197.921 38.324 197.723 37.52 197.723 36.608C197.723 35.684 197.915 34.862 198.299 34.142C198.695 33.422 199.235 32.864 199.919 32.468C200.615 32.06 201.431 31.856 202.367 31.856C203.243 31.856 204.017 32.048 204.689 32.432C205.361 32.816 205.883 33.344 206.255 34.016C206.639 34.676 206.831 35.414 206.831 36.23C206.831 36.362 206.825 36.5 206.813 36.644C206.813 36.788 206.807 36.938 206.795 37.094H200.009C200.057 37.79 200.297 38.336 200.729 38.732C201.173 39.128 201.707 39.326 202.331 39.326C202.799 39.326 203.189 39.224 203.501 39.02C203.825 38.804 204.065 38.528 204.221 38.192H206.561C206.393 38.756 206.111 39.272 205.715 39.74C205.331 40.196 204.851 40.556 204.275 40.82C203.711 41.084 203.069 41.216 202.349 41.216ZM202.367 33.728C201.803 33.728 201.305 33.89 200.873 34.214C200.441 34.526 200.165 35.006 200.045 35.654H204.491C204.455 35.066 204.239 34.598 203.843 34.25C203.447 33.902 202.955 33.728 202.367 33.728ZM217.432 41.216C216.52 41.216 215.716 41.018 215.02 40.622C214.324 40.226 213.772 39.674 213.364 38.966C212.968 38.258 212.77 37.448 212.77 36.536C212.77 35.624 212.968 34.814 213.364 34.106C213.772 33.398 214.324 32.846 215.02 32.45C215.716 32.054 216.52 31.856 217.432 31.856C218.572 31.856 219.532 32.156 220.312 32.756C221.092 33.344 221.59 34.16 221.806 35.204H219.376C219.256 34.772 219.016 34.436 218.656 34.196C218.308 33.944 217.894 33.818 217.414 33.818C216.778 33.818 216.238 34.058 215.794 34.538C215.35 35.018 215.128 35.684 215.128 36.536C215.128 37.388 215.35 38.054 215.794 38.534C216.238 39.014 216.778 39.254 217.414 39.254C217.894 39.254 218.308 39.134 218.656 38.894C219.016 38.654 219.256 38.312 219.376 37.868H221.806C221.59 38.876 221.092 39.686 220.312 40.298C219.532 40.91 218.572 41.216 217.432 41.216ZM223.851 41V28.04H226.155V33.44C226.455 32.948 226.857 32.564 227.361 32.288C227.877 32 228.465 31.856 229.125 31.856C230.229 31.856 231.081 32.204 231.681 32.9C232.293 33.596 232.599 34.616 232.599 35.96V41H230.313V36.176C230.313 35.408 230.157 34.82 229.845 34.412C229.545 34.004 229.065 33.8 228.405 33.8C227.757 33.8 227.217 34.028 226.785 34.484C226.365 34.94 226.155 35.576 226.155 36.392V41H223.851ZM239.086 41.216C238.222 41.216 237.442 41.018 236.746 40.622C236.062 40.226 235.516 39.68 235.108 38.984C234.712 38.276 234.514 37.46 234.514 36.536C234.514 35.612 234.718 34.802 235.126 34.106C235.534 33.398 236.08 32.846 236.764 32.45C237.46 32.054 238.24 31.856 239.104 31.856C239.956 31.856 240.724 32.054 241.408 32.45C242.104 32.846 242.65 33.398 243.046 34.106C243.454 34.802 243.658 35.612 243.658 36.536C243.658 37.46 243.454 38.276 243.046 38.984C242.65 39.68 242.104 40.226 241.408 40.622C240.712 41.018 239.938 41.216 239.086 41.216ZM239.086 39.218C239.686 39.218 240.208 38.996 240.652 38.552C241.096 38.096 241.318 37.424 241.318 36.536C241.318 35.648 241.096 34.982 240.652 34.538C240.208 34.082 239.692 33.854 239.104 33.854C238.492 33.854 237.964 34.082 237.52 34.538C237.088 34.982 236.872 35.648 236.872 36.536C236.872 37.424 237.088 38.096 237.52 38.552C237.964 38.996 238.486 39.218 239.086 39.218ZM245.718 41V32.072H247.77L247.986 33.746C248.31 33.17 248.748 32.714 249.3 32.378C249.864 32.03 250.524 31.856 251.28 31.856V34.286H250.632C250.128 34.286 249.678 34.364 249.282 34.52C248.886 34.676 248.574 34.946 248.346 35.33C248.13 35.714 248.022 36.248 248.022 36.932V41H245.718ZM257.034 41.216C256.134 41.216 255.336 41.024 254.64 40.64C253.944 40.256 253.398 39.716 253.002 39.02C252.606 38.324 252.408 37.52 252.408 36.608C252.408 35.684 252.6 34.862 252.984 34.142C253.38 33.422 253.92 32.864 254.604 32.468C255.3 32.06 256.116 31.856 257.052 31.856C257.928 31.856 258.702 32.048 259.374 32.432C260.046 32.816 260.568 33.344 260.94 34.016C261.324 34.676 261.516 35.414 261.516 36.23C261.516 36.362 261.51 36.5 261.498 36.644C261.498 36.788 261.492 36.938 261.48 37.094H254.694C254.742 37.79 254.982 38.336 255.414 38.732C255.858 39.128 256.392 39.326 257.016 39.326C257.484 39.326 257.874 39.224 258.186 39.02C258.51 38.804 258.75 38.528 258.906 38.192H261.246C261.078 38.756 260.796 39.272 260.4 39.74C260.016 40.196 259.536 40.556 258.96 40.82C258.396 41.084 257.754 41.216 257.034 41.216ZM257.052 33.728C256.488 33.728 255.99 33.89 255.558 34.214C255.126 34.526 254.85 35.006 254.73 35.654H259.176C259.14 35.066 258.924 34.598 258.528 34.25C258.132 33.902 257.64 33.728 257.052 33.728ZM267.144 41.216C266.352 41.216 265.656 41.09 265.056 40.838C264.456 40.574 263.976 40.214 263.616 39.758C263.256 39.302 263.04 38.774 262.968 38.174H265.29C265.362 38.522 265.554 38.822 265.866 39.074C266.19 39.314 266.604 39.434 267.108 39.434C267.612 39.434 267.978 39.332 268.206 39.128C268.446 38.924 268.566 38.69 268.566 38.426C268.566 38.042 268.398 37.784 268.062 37.652C267.726 37.508 267.258 37.37 266.658 37.238C266.274 37.154 265.884 37.052 265.488 36.932C265.092 36.812 264.726 36.662 264.39 36.482C264.066 36.29 263.802 36.05 263.598 35.762C263.394 35.462 263.292 35.096 263.292 34.664C263.292 33.872 263.604 33.206 264.228 32.666C264.864 32.126 265.752 31.856 266.892 31.856C267.948 31.856 268.788 32.102 269.412 32.594C270.048 33.086 270.426 33.764 270.546 34.628H268.368C268.236 33.968 267.738 33.638 266.874 33.638C266.442 33.638 266.106 33.722 265.866 33.89C265.638 34.058 265.524 34.268 265.524 34.52C265.524 34.784 265.698 34.994 266.046 35.15C266.394 35.306 266.856 35.45 267.432 35.582C268.056 35.726 268.626 35.888 269.142 36.068C269.67 36.236 270.09 36.494 270.402 36.842C270.714 37.178 270.87 37.664 270.87 38.3C270.882 38.852 270.738 39.35 270.438 39.794C270.138 40.238 269.706 40.586 269.142 40.838C268.578 41.09 267.912 41.216 267.144 41.216ZM93.9511 52.686C93.5311 52.686 93.1831 52.56 92.9071 52.308C92.6431 52.056 92.5111 51.738 92.5111 51.354C92.5111 50.97 92.6431 50.658 92.9071 50.418C93.1831 50.166 93.5311 50.04 93.9511 50.04C94.3711 50.04 94.7131 50.166 94.9771 50.418C95.2531 50.658 95.3911 50.97 95.3911 51.354C95.3911 51.738 95.2531 52.056 94.9771 52.308C94.7131 52.56 94.3711 52.686 93.9511 52.686ZM92.7991 63V54.072H95.1031V63H92.7991ZM97.5079 63V54.072H99.5419L99.7219 55.584C99.9979 55.056 100.394 54.636 100.91 54.324C101.438 54.012 102.056 53.856 102.764 53.856C103.868 53.856 104.726 54.204 105.338 54.9C105.95 55.596 106.256 56.616 106.256 57.96V63H103.952V58.176C103.952 57.408 103.796 56.82 103.484 56.412C103.172 56.004 102.686 55.8 102.026 55.8C101.378 55.8 100.844 56.028 100.424 56.484C100.016 56.94 99.8119 57.576 99.8119 58.392V63H97.5079ZM113.864 66.96L115.934 62.406H115.394L111.92 54.072H114.422L116.924 60.354L119.534 54.072H121.982L116.312 66.96H113.864ZM126.999 63.216C126.135 63.216 125.355 63.018 124.659 62.622C123.975 62.226 123.429 61.68 123.021 60.984C122.625 60.276 122.427 59.46 122.427 58.536C122.427 57.612 122.631 56.802 123.039 56.106C123.447 55.398 123.993 54.846 124.677 54.45C125.373 54.054 126.153 53.856 127.017 53.856C127.869 53.856 128.637 54.054 129.321 54.45C130.017 54.846 130.563 55.398 130.959 56.106C131.367 56.802 131.571 57.612 131.571 58.536C131.571 59.46 131.367 60.276 130.959 60.984C130.563 61.68 130.017 62.226 129.321 62.622C128.625 63.018 127.851 63.216 126.999 63.216ZM126.999 61.218C127.599 61.218 128.121 60.996 128.565 60.552C129.009 60.096 129.231 59.424 129.231 58.536C129.231 57.648 129.009 56.982 128.565 56.538C128.121 56.082 127.605 55.854 127.017 55.854C126.405 55.854 125.877 56.082 125.433 56.538C125.001 56.982 124.785 57.648 124.785 58.536C124.785 59.424 125.001 60.096 125.433 60.552C125.877 60.996 126.399 61.218 126.999 61.218ZM136.979 63.216C135.863 63.216 134.999 62.868 134.387 62.172C133.787 61.476 133.487 60.456 133.487 59.112V54.072H135.773V58.896C135.773 59.664 135.929 60.252 136.241 60.66C136.553 61.068 137.045 61.272 137.717 61.272C138.353 61.272 138.875 61.044 139.283 60.588C139.703 60.132 139.913 59.496 139.913 58.68V54.072H142.217V63H140.183L140.003 61.488C139.727 62.016 139.325 62.436 138.797 62.748C138.281 63.06 137.675 63.216 136.979 63.216ZM144.582 63V54.072H146.634L146.85 55.746C147.174 55.17 147.612 54.714 148.164 54.378C148.728 54.03 149.388 53.856 150.144 53.856V56.286H149.496C148.992 56.286 148.542 56.364 148.146 56.52C147.75 56.676 147.438 56.946 147.21 57.33C146.994 57.714 146.886 58.248 146.886 58.932V63H144.582ZM156.008 63V50.04H158.312V55.44C158.612 54.948 159.014 54.564 159.518 54.288C160.034 54 160.622 53.856 161.282 53.856C162.386 53.856 163.238 54.204 163.838 54.9C164.45 55.596 164.756 56.616 164.756 57.96V63H162.47V58.176C162.47 57.408 162.314 56.82 162.002 56.412C161.702 56.004 161.222 55.8 160.562 55.8C159.914 55.8 159.374 56.028 158.942 56.484C158.522 56.94 158.312 57.576 158.312 58.392V63H156.008ZM171.243 63.216C170.379 63.216 169.599 63.018 168.903 62.622C168.219 62.226 167.673 61.68 167.265 60.984C166.869 60.276 166.671 59.46 166.671 58.536C166.671 57.612 166.875 56.802 167.283 56.106C167.691 55.398 168.237 54.846 168.921 54.45C169.617 54.054 170.397 53.856 171.261 53.856C172.113 53.856 172.881 54.054 173.565 54.45C174.261 54.846 174.807 55.398 175.203 56.106C175.611 56.802 175.815 57.612 175.815 58.536C175.815 59.46 175.611 60.276 175.203 60.984C174.807 61.68 174.261 62.226 173.565 62.622C172.869 63.018 172.095 63.216 171.243 63.216ZM171.243 61.218C171.843 61.218 172.365 60.996 172.809 60.552C173.253 60.096 173.475 59.424 173.475 58.536C173.475 57.648 173.253 56.982 172.809 56.538C172.365 56.082 171.849 55.854 171.261 55.854C170.649 55.854 170.121 56.082 169.677 56.538C169.245 56.982 169.029 57.648 169.029 58.536C169.029 59.424 169.245 60.096 169.677 60.552C170.121 60.996 170.643 61.218 171.243 61.218ZM177.875 63V54.072H179.909L180.107 55.278C180.395 54.846 180.773 54.504 181.241 54.252C181.721 53.988 182.273 53.856 182.897 53.856C184.277 53.856 185.255 54.39 185.831 55.458C186.155 54.966 186.587 54.576 187.127 54.288C187.679 54 188.279 53.856 188.927 53.856C190.091 53.856 190.985 54.204 191.609 54.9C192.233 55.596 192.545 56.616 192.545 57.96V63H190.241V58.176C190.241 57.408 190.091 56.82 189.791 56.412C189.503 56.004 189.053 55.8 188.441 55.8C187.817 55.8 187.313 56.028 186.929 56.484C186.557 56.94 186.371 57.576 186.371 58.392V63H184.067V58.176C184.067 57.408 183.917 56.82 183.617 56.412C183.317 56.004 182.855 55.8 182.231 55.8C181.619 55.8 181.121 56.028 180.737 56.484C180.365 56.94 180.179 57.576 180.179 58.392V63H177.875ZM199.071 63.216C198.171 63.216 197.373 63.024 196.677 62.64C195.981 62.256 195.435 61.716 195.039 61.02C194.643 60.324 194.445 59.52 194.445 58.608C194.445 57.684 194.637 56.862 195.021 56.142C195.417 55.422 195.957 54.864 196.641 54.468C197.337 54.06 198.153 53.856 199.089 53.856C199.965 53.856 200.739 54.048 201.411 54.432C202.083 54.816 202.605 55.344 202.977 56.016C203.361 56.676 203.553 57.414 203.553 58.23C203.553 58.362 203.547 58.5 203.535 58.644C203.535 58.788 203.529 58.938 203.517 59.094H196.731C196.779 59.79 197.019 60.336 197.451 60.732C197.895 61.128 198.429 61.326 199.053 61.326C199.521 61.326 199.911 61.224 200.223 61.02C200.547 60.804 200.787 60.528 200.943 60.192H203.283C203.115 60.756 202.833 61.272 202.437 61.74C202.053 62.196 201.573 62.556 200.997 62.82C200.433 63.084 199.791 63.216 199.071 63.216ZM199.089 55.728C198.525 55.728 198.027 55.89 197.595 56.214C197.163 56.526 196.887 57.006 196.767 57.654H201.213C201.177 57.066 200.961 56.598 200.565 56.25C200.169 55.902 199.677 55.728 199.089 55.728ZM206.435 59.076L206.363 56.106H207.191C207.803 56.106 208.361 56.052 208.865 55.944C209.369 55.836 209.771 55.626 210.071 55.314C210.371 55.002 210.521 54.546 210.521 53.946C210.521 53.37 210.347 52.92 209.999 52.596C209.651 52.26 209.189 52.092 208.613 52.092C208.013 52.092 207.545 52.26 207.209 52.596C206.873 52.92 206.705 53.364 206.705 53.928H204.527C204.515 53.208 204.671 52.566 204.995 52.002C205.319 51.438 205.787 50.994 206.399 50.67C207.023 50.346 207.767 50.184 208.631 50.184C209.435 50.184 210.143 50.334 210.755 50.634C211.379 50.934 211.865 51.366 212.213 51.93C212.573 52.482 212.753 53.16 212.753 53.964C212.753 54.792 212.567 55.476 212.195 56.016C211.835 56.556 211.337 56.958 210.701 57.222C210.077 57.486 209.351 57.624 208.523 57.636L208.469 59.076H206.435ZM207.461 63.126C207.041 63.126 206.693 62.994 206.417 62.73C206.153 62.466 206.021 62.148 206.021 61.776C206.021 61.392 206.153 61.068 206.417 60.804C206.693 60.54 207.041 60.408 207.461 60.408C207.881 60.408 208.223 60.54 208.487 60.804C208.751 61.068 208.883 61.392 208.883 61.776C208.883 62.148 208.751 62.466 208.487 62.73C208.223 62.994 207.881 63.126 207.461 63.126Z" fill="#323232"/>
<rect x="28" y="156" width="247" height="23" rx="6" fill="black"/>
<path d="M40.4621 171.286V162.186H43.8291C44.5571 162.186 45.1595 162.307 45.6361 162.55C46.1128 162.792 46.4681 163.126 46.7021 163.551C46.9361 163.975 47.0531 164.452 47.0531 164.981C47.0531 165.483 46.9405 165.947 46.7151 166.372C46.4898 166.788 46.1388 167.126 45.6621 167.386C45.1855 167.637 44.5745 167.763 43.8291 167.763H42.1261V171.286H40.4621ZM42.1261 166.411H43.7251C44.3058 166.411 44.7218 166.285 44.9731 166.034C45.2331 165.774 45.3631 165.423 45.3631 164.981C45.3631 164.53 45.2331 164.179 44.9731 163.928C44.7218 163.668 44.3058 163.538 43.7251 163.538H42.1261V166.411ZM48.3196 171.286V161.926H49.9836V165.826C50.2003 165.47 50.4906 165.193 50.8546 164.994C51.2273 164.786 51.6519 164.682 52.1286 164.682C52.9259 164.682 53.5413 164.933 53.9746 165.436C54.4166 165.938 54.6376 166.675 54.6376 167.646V171.286H52.9866V167.802C52.9866 167.247 52.8739 166.822 52.6486 166.528C52.4319 166.233 52.0853 166.086 51.6086 166.086C51.1406 166.086 50.7506 166.25 50.4386 166.58C50.1353 166.909 49.9836 167.368 49.9836 167.958V171.286H48.3196ZM56.819 174.146L58.314 170.857H57.924L55.415 164.838H57.222L59.029 169.375L60.914 164.838H62.682L58.587 174.146H56.819ZM66.1174 171.442C65.5454 171.442 65.0428 171.351 64.6094 171.169C64.1761 170.978 63.8294 170.718 63.5694 170.389C63.3094 170.059 63.1534 169.678 63.1014 169.245H64.7784C64.8304 169.496 64.9691 169.713 65.1944 169.895C65.4284 170.068 65.7274 170.155 66.0914 170.155C66.4554 170.155 66.7198 170.081 66.8844 169.934C67.0578 169.786 67.1444 169.617 67.1444 169.427C67.1444 169.149 67.0231 168.963 66.7804 168.868C66.5378 168.764 66.1998 168.664 65.7664 168.569C65.4891 168.508 65.2074 168.434 64.9214 168.348C64.6354 168.261 64.3711 168.153 64.1284 168.023C63.8944 167.884 63.7038 167.711 63.5564 167.503C63.4091 167.286 63.3354 167.022 63.3354 166.71C63.3354 166.138 63.5608 165.657 64.0114 165.267C64.4708 164.877 65.1121 164.682 65.9354 164.682C66.6981 164.682 67.3048 164.859 67.7554 165.215C68.2148 165.57 68.4878 166.06 68.5744 166.684H67.0014C66.9061 166.207 66.5464 165.969 65.9224 165.969C65.6104 165.969 65.3678 166.029 65.1944 166.151C65.0298 166.272 64.9474 166.424 64.9474 166.606C64.9474 166.796 65.0731 166.948 65.3244 167.061C65.5758 167.173 65.9094 167.277 66.3254 167.373C66.7761 167.477 67.1878 167.594 67.5604 167.724C67.9418 167.845 68.2451 168.031 68.4704 168.283C68.6958 168.525 68.8084 168.876 68.8084 169.336C68.8171 169.734 68.7131 170.094 68.4964 170.415C68.2798 170.735 67.9678 170.987 67.5604 171.169C67.1531 171.351 66.6721 171.442 66.1174 171.442ZM71.1795 163.837C70.8762 163.837 70.6248 163.746 70.4255 163.564C70.2348 163.382 70.1395 163.152 70.1395 162.875C70.1395 162.597 70.2348 162.372 70.4255 162.199C70.6248 162.017 70.8762 161.926 71.1795 161.926C71.4828 161.926 71.7298 162.017 71.9205 162.199C72.1198 162.372 72.2195 162.597 72.2195 162.875C72.2195 163.152 72.1198 163.382 71.9205 163.564C71.7298 163.746 71.4828 163.837 71.1795 163.837ZM70.3475 171.286V164.838H72.0115V171.286H70.3475ZM76.9073 171.442C76.2487 171.442 75.668 171.299 75.1653 171.013C74.6627 170.727 74.264 170.328 73.9693 169.817C73.6833 169.305 73.5403 168.72 73.5403 168.062C73.5403 167.403 73.6833 166.818 73.9693 166.307C74.264 165.795 74.6627 165.397 75.1653 165.111C75.668 164.825 76.2487 164.682 76.9073 164.682C77.7307 164.682 78.424 164.898 78.9873 165.332C79.5507 165.756 79.9103 166.346 80.0663 167.1H78.3113C78.2247 166.788 78.0513 166.545 77.7913 166.372C77.54 166.19 77.241 166.099 76.8943 166.099C76.435 166.099 76.045 166.272 75.7243 166.619C75.4037 166.965 75.2433 167.446 75.2433 168.062C75.2433 168.677 75.4037 169.158 75.7243 169.505C76.045 169.851 76.435 170.025 76.8943 170.025C77.241 170.025 77.54 169.938 77.7913 169.765C78.0513 169.591 78.2247 169.344 78.3113 169.024H80.0663C79.9103 169.752 79.5507 170.337 78.9873 170.779C78.424 171.221 77.7307 171.442 76.9073 171.442ZM83.7662 171.442C83.2116 171.442 82.7566 171.355 82.4012 171.182C82.0459 171 81.7816 170.761 81.6082 170.467C81.4349 170.172 81.3482 169.847 81.3482 169.492C81.3482 168.894 81.5822 168.408 82.0502 168.036C82.5182 167.663 83.2202 167.477 84.1562 167.477H85.7942V167.321C85.7942 166.879 85.6686 166.554 85.4172 166.346C85.1659 166.138 84.8539 166.034 84.4812 166.034C84.1432 166.034 83.8486 166.116 83.5972 166.281C83.3459 166.437 83.1899 166.671 83.1292 166.983H81.5042C81.5476 166.515 81.7036 166.107 81.9722 165.761C82.2496 165.414 82.6049 165.15 83.0382 164.968C83.4716 164.777 83.9569 164.682 84.4942 164.682C85.4129 164.682 86.1366 164.911 86.6652 165.371C87.1939 165.83 87.4582 166.48 87.4582 167.321V171.286H86.0412L85.8852 170.246C85.6946 170.592 85.4259 170.878 85.0792 171.104C84.7412 171.329 84.3036 171.442 83.7662 171.442ZM84.1432 170.142C84.6199 170.142 84.9882 169.986 85.2482 169.674C85.5169 169.362 85.6859 168.976 85.7552 168.517H84.3382C83.8962 168.517 83.5799 168.599 83.3892 168.764C83.1986 168.92 83.1032 169.115 83.1032 169.349C83.1032 169.6 83.1986 169.795 83.3892 169.934C83.5799 170.072 83.8312 170.142 84.1432 170.142ZM89.0462 171.286V161.926H90.7102V171.286H89.0462ZM98.6671 171.442C98.0084 171.442 97.4278 171.299 96.9251 171.013C96.4224 170.727 96.0238 170.328 95.7291 169.817C95.4431 169.305 95.3001 168.72 95.3001 168.062C95.3001 167.403 95.4431 166.818 95.7291 166.307C96.0238 165.795 96.4224 165.397 96.9251 165.111C97.4278 164.825 98.0084 164.682 98.6671 164.682C99.4904 164.682 100.184 164.898 100.747 165.332C101.31 165.756 101.67 166.346 101.826 167.1H100.071C99.9844 166.788 99.8111 166.545 99.5511 166.372C99.2998 166.19 99.0008 166.099 98.6541 166.099C98.1948 166.099 97.8048 166.272 97.4841 166.619C97.1634 166.965 97.0031 167.446 97.0031 168.062C97.0031 168.677 97.1634 169.158 97.4841 169.505C97.8048 169.851 98.1948 170.025 98.6541 170.025C99.0008 170.025 99.2998 169.938 99.5511 169.765C99.8111 169.591 99.9844 169.344 100.071 169.024H101.826C101.67 169.752 101.31 170.337 100.747 170.779C100.184 171.221 99.4904 171.442 98.6671 171.442ZM103.303 171.286V161.926H104.967V165.826C105.184 165.47 105.474 165.193 105.838 164.994C106.211 164.786 106.635 164.682 107.112 164.682C107.909 164.682 108.525 164.933 108.958 165.436C109.4 165.938 109.621 166.675 109.621 167.646V171.286H107.97V167.802C107.97 167.247 107.857 166.822 107.632 166.528C107.415 166.233 107.069 166.086 106.592 166.086C106.124 166.086 105.734 166.25 105.422 166.58C105.119 166.909 104.967 167.368 104.967 167.958V171.286H103.303ZM114.306 171.442C113.682 171.442 113.119 171.299 112.616 171.013C112.122 170.727 111.728 170.332 111.433 169.83C111.147 169.318 111.004 168.729 111.004 168.062C111.004 167.394 111.152 166.809 111.446 166.307C111.741 165.795 112.135 165.397 112.629 165.111C113.132 164.825 113.695 164.682 114.319 164.682C114.935 164.682 115.489 164.825 115.983 165.111C116.486 165.397 116.88 165.795 117.166 166.307C117.461 166.809 117.608 167.394 117.608 168.062C117.608 168.729 117.461 169.318 117.166 169.83C116.88 170.332 116.486 170.727 115.983 171.013C115.481 171.299 114.922 171.442 114.306 171.442ZM114.306 169.999C114.74 169.999 115.117 169.838 115.437 169.518C115.758 169.188 115.918 168.703 115.918 168.062C115.918 167.42 115.758 166.939 115.437 166.619C115.117 166.289 114.744 166.125 114.319 166.125C113.877 166.125 113.496 166.289 113.175 166.619C112.863 166.939 112.707 167.42 112.707 168.062C112.707 168.703 112.863 169.188 113.175 169.518C113.496 169.838 113.873 169.999 114.306 169.999ZM119.096 171.286V164.838H120.578L120.734 166.047C120.968 165.631 121.284 165.301 121.683 165.059C122.09 164.807 122.567 164.682 123.113 164.682V166.437H122.645C122.281 166.437 121.956 166.493 121.67 166.606C121.384 166.718 121.159 166.913 120.994 167.191C120.838 167.468 120.76 167.854 120.76 168.348V171.286H119.096ZM127.269 171.442C126.619 171.442 126.043 171.303 125.54 171.026C125.037 170.748 124.643 170.358 124.357 169.856C124.071 169.353 123.928 168.772 123.928 168.114C123.928 167.446 124.067 166.853 124.344 166.333C124.63 165.813 125.02 165.41 125.514 165.124C126.017 164.829 126.606 164.682 127.282 164.682C127.915 164.682 128.474 164.82 128.959 165.098C129.444 165.375 129.821 165.756 130.09 166.242C130.367 166.718 130.506 167.251 130.506 167.841C130.506 167.936 130.502 168.036 130.493 168.14C130.493 168.244 130.489 168.352 130.48 168.465H125.579C125.614 168.967 125.787 169.362 126.099 169.648C126.42 169.934 126.805 170.077 127.256 170.077C127.594 170.077 127.876 170.003 128.101 169.856C128.335 169.7 128.508 169.5 128.621 169.258H130.311C130.19 169.665 129.986 170.038 129.7 170.376C129.423 170.705 129.076 170.965 128.66 171.156C128.253 171.346 127.789 171.442 127.269 171.442ZM127.282 166.034C126.875 166.034 126.515 166.151 126.203 166.385C125.891 166.61 125.692 166.957 125.605 167.425H128.816C128.79 167 128.634 166.662 128.348 166.411C128.062 166.159 127.707 166.034 127.282 166.034ZM137.668 171.442C137.096 171.442 136.594 171.351 136.16 171.169C135.727 170.978 135.38 170.718 135.12 170.389C134.86 170.059 134.704 169.678 134.652 169.245H136.329C136.381 169.496 136.52 169.713 136.745 169.895C136.979 170.068 137.278 170.155 137.642 170.155C138.006 170.155 138.271 170.081 138.435 169.934C138.609 169.786 138.695 169.617 138.695 169.427C138.695 169.149 138.574 168.963 138.331 168.868C138.089 168.764 137.751 168.664 137.317 168.569C137.04 168.508 136.758 168.434 136.472 168.348C136.186 168.261 135.922 168.153 135.679 168.023C135.445 167.884 135.255 167.711 135.107 167.503C134.96 167.286 134.886 167.022 134.886 166.71C134.886 166.138 135.112 165.657 135.562 165.267C136.022 164.877 136.663 164.682 137.486 164.682C138.249 164.682 138.856 164.859 139.306 165.215C139.766 165.57 140.039 166.06 140.125 166.684H138.552C138.457 166.207 138.097 165.969 137.473 165.969C137.161 165.969 136.919 166.029 136.745 166.151C136.581 166.272 136.498 166.424 136.498 166.606C136.498 166.796 136.624 166.948 136.875 167.061C137.127 167.173 137.46 167.277 137.876 167.373C138.327 167.477 138.739 167.594 139.111 167.724C139.493 167.845 139.796 168.031 140.021 168.283C140.247 168.525 140.359 168.876 140.359 169.336C140.368 169.734 140.264 170.094 140.047 170.415C139.831 170.735 139.519 170.987 139.111 171.169C138.704 171.351 138.223 171.442 137.668 171.442ZM141.833 171.286V161.926H143.497V165.826C143.714 165.47 144.004 165.193 144.368 164.994C144.741 164.786 145.166 164.682 145.642 164.682C146.44 164.682 147.055 164.933 147.488 165.436C147.93 165.938 148.151 166.675 148.151 167.646V171.286H146.5V167.802C146.5 167.247 146.388 166.822 146.162 166.528C145.946 166.233 145.599 166.086 145.122 166.086C144.654 166.086 144.264 166.25 143.952 166.58C143.649 166.909 143.497 167.368 143.497 167.958V171.286H141.833ZM152.875 171.442C152.225 171.442 151.649 171.303 151.146 171.026C150.644 170.748 150.249 170.358 149.963 169.856C149.677 169.353 149.534 168.772 149.534 168.114C149.534 167.446 149.673 166.853 149.95 166.333C150.236 165.813 150.626 165.41 151.12 165.124C151.623 164.829 152.212 164.682 152.888 164.682C153.521 164.682 154.08 164.82 154.565 165.098C155.051 165.375 155.428 165.756 155.696 166.242C155.974 166.718 156.112 167.251 156.112 167.841C156.112 167.936 156.108 168.036 156.099 168.14C156.099 168.244 156.095 168.352 156.086 168.465H151.185C151.22 168.967 151.393 169.362 151.705 169.648C152.026 169.934 152.412 170.077 152.862 170.077C153.2 170.077 153.482 170.003 153.707 169.856C153.941 169.7 154.115 169.5 154.227 169.258H155.917C155.796 169.665 155.592 170.038 155.306 170.376C155.029 170.705 154.682 170.965 154.266 171.156C153.859 171.346 153.395 171.442 152.875 171.442ZM152.888 166.034C152.481 166.034 152.121 166.151 151.809 166.385C151.497 166.61 151.298 166.957 151.211 167.425H154.422C154.396 167 154.24 166.662 153.954 166.411C153.668 166.159 153.313 166.034 152.888 166.034ZM160.645 171.442C159.995 171.442 159.419 171.303 158.916 171.026C158.413 170.748 158.019 170.358 157.733 169.856C157.447 169.353 157.304 168.772 157.304 168.114C157.304 167.446 157.443 166.853 157.72 166.333C158.006 165.813 158.396 165.41 158.89 165.124C159.393 164.829 159.982 164.682 160.658 164.682C161.291 164.682 161.85 164.82 162.335 165.098C162.82 165.375 163.197 165.756 163.466 166.242C163.743 166.718 163.882 167.251 163.882 167.841C163.882 167.936 163.878 168.036 163.869 168.14C163.869 168.244 163.865 168.352 163.856 168.465H158.955C158.99 168.967 159.163 169.362 159.475 169.648C159.796 169.934 160.181 170.077 160.632 170.077C160.97 170.077 161.252 170.003 161.477 169.856C161.711 169.7 161.884 169.5 161.997 169.258H163.687C163.566 169.665 163.362 170.038 163.076 170.376C162.799 170.705 162.452 170.965 162.036 171.156C161.629 171.346 161.165 171.442 160.645 171.442ZM160.658 166.034C160.251 166.034 159.891 166.151 159.579 166.385C159.267 166.61 159.068 166.957 158.981 167.425H162.192C162.166 167 162.01 166.662 161.724 166.411C161.438 166.159 161.083 166.034 160.658 166.034ZM168.04 171.286C167.364 171.286 166.823 171.121 166.415 170.792C166.008 170.462 165.804 169.877 165.804 169.037V166.229H164.699V164.838H165.804L165.999 163.109H167.468V164.838H169.21V166.229H167.468V169.05C167.468 169.362 167.533 169.578 167.663 169.7C167.802 169.812 168.036 169.869 168.365 169.869H169.171V171.286H168.04Z" fill="white"/>
<path d="M240.09 172.442C239.492 172.442 238.95 172.338 238.465 172.13C237.979 171.913 237.589 171.584 237.295 171.142C237 170.7 236.844 170.145 236.827 169.478H238.465C238.473 169.92 238.616 170.292 238.894 170.596C239.18 170.89 239.578 171.038 240.09 171.038C240.575 171.038 240.948 170.903 241.208 170.635C241.468 170.366 241.598 170.028 241.598 169.621C241.598 169.144 241.424 168.784 241.078 168.542C240.74 168.29 240.302 168.165 239.765 168.165H239.089V166.8H239.778C240.22 166.8 240.588 166.696 240.883 166.488C241.177 166.28 241.325 165.972 241.325 165.565C241.325 165.227 241.212 164.958 240.987 164.759C240.77 164.551 240.467 164.447 240.077 164.447C239.652 164.447 239.318 164.572 239.076 164.824C238.842 165.075 238.712 165.383 238.686 165.747H237.061C237.095 164.906 237.386 164.243 237.932 163.758C238.486 163.272 239.201 163.03 240.077 163.03C240.701 163.03 241.225 163.142 241.65 163.368C242.083 163.584 242.408 163.875 242.625 164.239C242.85 164.603 242.963 165.006 242.963 165.448C242.963 165.959 242.82 166.392 242.534 166.748C242.256 167.094 241.91 167.328 241.494 167.45C242.005 167.554 242.421 167.805 242.742 168.204C243.062 168.594 243.223 169.088 243.223 169.686C243.223 170.188 243.101 170.648 242.859 171.064C242.616 171.48 242.261 171.813 241.793 172.065C241.333 172.316 240.766 172.442 240.09 172.442ZM249.017 172.286V170.596H244.532V169.27L248.796 163.186H250.681V169.153H251.877V170.596H250.681V172.286H249.017ZM246.313 169.153H249.121V165.019L246.313 169.153ZM254.841 167.658C254.425 167.658 254.048 167.567 253.71 167.385C253.372 167.194 253.103 166.925 252.904 166.579C252.705 166.232 252.605 165.82 252.605 165.344C252.605 164.867 252.705 164.455 252.904 164.109C253.103 163.762 253.372 163.498 253.71 163.316C254.048 163.125 254.429 163.03 254.854 163.03C255.27 163.03 255.643 163.125 255.972 163.316C256.31 163.498 256.579 163.762 256.778 164.109C256.977 164.455 257.077 164.867 257.077 165.344C257.077 165.82 256.977 166.232 256.778 166.579C256.579 166.925 256.31 167.194 255.972 167.385C255.634 167.567 255.257 167.658 254.841 167.658ZM254.347 172.286L259.482 163.186H261.107L255.972 172.286H254.347ZM254.841 166.501C255.092 166.501 255.309 166.405 255.491 166.215C255.673 166.015 255.764 165.725 255.764 165.344C255.764 164.962 255.673 164.672 255.491 164.473C255.318 164.273 255.101 164.174 254.841 164.174C254.581 164.174 254.36 164.273 254.178 164.473C254.005 164.672 253.918 164.962 253.918 165.344C253.918 165.725 254.005 166.015 254.178 166.215C254.36 166.405 254.581 166.501 254.841 166.501ZM260.665 172.442C260.249 172.442 259.872 172.351 259.534 172.169C259.196 171.978 258.927 171.709 258.728 171.363C258.529 171.016 258.429 170.604 258.429 170.128C258.429 169.651 258.529 169.244 258.728 168.906C258.927 168.559 259.196 168.295 259.534 168.113C259.872 167.922 260.253 167.827 260.678 167.827C261.094 167.827 261.467 167.922 261.796 168.113C262.134 168.295 262.403 168.559 262.602 168.906C262.801 169.244 262.901 169.651 262.901 170.128C262.901 170.604 262.801 171.016 262.602 171.363C262.403 171.709 262.134 171.978 261.796 172.169C261.467 172.351 261.09 172.442 260.665 172.442ZM260.665 171.285C260.925 171.285 261.142 171.189 261.315 170.999C261.497 170.799 261.588 170.509 261.588 170.128C261.588 169.746 261.497 169.456 261.315 169.257C261.142 169.057 260.925 168.958 260.665 168.958C260.405 168.958 260.184 169.057 260.002 169.257C259.829 169.456 259.742 169.746 259.742 170.128C259.742 170.509 259.829 170.799 260.002 170.999C260.184 171.189 260.405 171.285 260.665 171.285Z" fill="white"/>
<rect x="27" y="196" width="247" height="23" rx="6" fill="black"/>
<path d="M40.4621 211.286V202.186H43.5691C44.6351 202.186 45.5105 202.376 46.1951 202.758C46.8885 203.13 47.3998 203.659 47.7291 204.344C48.0671 205.02 48.2361 205.817 48.2361 206.736C48.2361 207.654 48.0671 208.456 47.7291 209.141C47.3998 209.817 46.8885 210.345 46.1951 210.727C45.5105 211.099 44.6351 211.286 43.5691 211.286H40.4621ZM42.1261 209.856H43.4911C44.2538 209.856 44.8561 209.734 45.2981 209.492C45.7401 209.24 46.0565 208.885 46.2471 208.426C46.4378 207.958 46.5331 207.394 46.5331 206.736C46.5331 206.086 46.4378 205.527 46.2471 205.059C46.0565 204.591 45.7401 204.231 45.2981 203.98C44.8561 203.728 44.2538 203.603 43.4911 203.603H42.1261V209.856ZM52.7593 211.442C52.1353 211.442 51.572 211.299 51.0693 211.013C50.5753 210.727 50.181 210.332 49.8863 209.83C49.6003 209.318 49.4573 208.729 49.4573 208.062C49.4573 207.394 49.6046 206.809 49.8993 206.307C50.194 205.795 50.5883 205.397 51.0823 205.111C51.585 204.825 52.1483 204.682 52.7723 204.682C53.3876 204.682 53.9423 204.825 54.4363 205.111C54.939 205.397 55.3333 205.795 55.6193 206.307C55.914 206.809 56.0613 207.394 56.0613 208.062C56.0613 208.729 55.914 209.318 55.6193 209.83C55.3333 210.332 54.939 210.727 54.4363 211.013C53.9336 211.299 53.3746 211.442 52.7593 211.442ZM52.7593 209.999C53.1926 209.999 53.5696 209.838 53.8903 209.518C54.211 209.188 54.3713 208.703 54.3713 208.062C54.3713 207.42 54.211 206.939 53.8903 206.619C53.5696 206.289 53.197 206.125 52.7723 206.125C52.3303 206.125 51.949 206.289 51.6283 206.619C51.3163 206.939 51.1603 207.42 51.1603 208.062C51.1603 208.703 51.3163 209.188 51.6283 209.518C51.949 209.838 52.326 209.999 52.7593 209.999ZM57.5491 211.286V204.838H59.0181L59.1481 205.93C59.3474 205.548 59.6334 205.245 60.0061 205.02C60.3874 204.794 60.8338 204.682 61.3451 204.682C62.1424 204.682 62.7621 204.933 63.2041 205.436C63.6461 205.938 63.8671 206.675 63.8671 207.646V211.286H62.2031V207.802C62.2031 207.247 62.0904 206.822 61.8651 206.528C61.6398 206.233 61.2888 206.086 60.8121 206.086C60.3441 206.086 59.9584 206.25 59.6551 206.58C59.3604 206.909 59.2131 207.368 59.2131 207.958V211.286H57.5491ZM65.1463 205.384L65.8613 202.186H67.6163L66.2903 205.384H65.1463ZM71.759 211.286C71.083 211.286 70.5413 211.121 70.134 210.792C69.7267 210.462 69.523 209.877 69.523 209.037V206.229H68.418V204.838H69.523L69.718 203.109H71.187V204.838H72.929V206.229H71.187V209.05C71.187 209.362 71.252 209.578 71.382 209.7C71.5207 209.812 71.7547 209.869 72.084 209.869H72.89V211.286H71.759ZM77.4554 211.286V201.926H79.1194V207.451L81.4074 204.838H83.3834L80.7444 207.776L83.8124 211.286H81.7324L79.1194 208.049V211.286H77.4554ZM87.4438 211.442C86.7938 211.442 86.2175 211.303 85.7148 211.026C85.2122 210.748 84.8178 210.358 84.5318 209.856C84.2458 209.353 84.1028 208.772 84.1028 208.114C84.1028 207.446 84.2415 206.853 84.5188 206.333C84.8048 205.813 85.1948 205.41 85.6888 205.124C86.1915 204.829 86.7808 204.682 87.4568 204.682C88.0895 204.682 88.6485 204.82 89.1338 205.098C89.6192 205.375 89.9962 205.756 90.2648 206.242C90.5422 206.718 90.6808 207.251 90.6808 207.841C90.6808 207.936 90.6765 208.036 90.6678 208.14C90.6678 208.244 90.6635 208.352 90.6548 208.465H85.7538C85.7885 208.967 85.9618 209.362 86.2738 209.648C86.5945 209.934 86.9802 210.077 87.4308 210.077C87.7688 210.077 88.0505 210.003 88.2758 209.856C88.5098 209.7 88.6832 209.5 88.7958 209.258H90.4858C90.3645 209.665 90.1608 210.038 89.8748 210.376C89.5975 210.705 89.2508 210.965 88.8348 211.156C88.4275 211.346 87.9638 211.442 87.4438 211.442ZM87.4568 206.034C87.0495 206.034 86.6898 206.151 86.3778 206.385C86.0658 206.61 85.8665 206.957 85.7798 207.425H88.9908C88.9648 207 88.8088 206.662 88.5228 206.411C88.2368 206.159 87.8815 206.034 87.4568 206.034ZM95.2134 211.442C94.5634 211.442 93.987 211.303 93.4844 211.026C92.9817 210.748 92.5874 210.358 92.3014 209.856C92.0154 209.353 91.8724 208.772 91.8724 208.114C91.8724 207.446 92.011 206.853 92.2884 206.333C92.5744 205.813 92.9644 205.41 93.4584 205.124C93.961 204.829 94.5504 204.682 95.2264 204.682C95.859 204.682 96.418 204.82 96.9034 205.098C97.3887 205.375 97.7657 205.756 98.0344 206.242C98.3117 206.718 98.4504 207.251 98.4504 207.841C98.4504 207.936 98.446 208.036 98.4374 208.14C98.4374 208.244 98.433 208.352 98.4244 208.465H93.5234C93.558 208.967 93.7314 209.362 94.0434 209.648C94.364 209.934 94.7497 210.077 95.2004 210.077C95.5384 210.077 95.82 210.003 96.0454 209.856C96.2794 209.7 96.4527 209.5 96.5654 209.258H98.2554C98.134 209.665 97.9304 210.038 97.6444 210.376C97.367 210.705 97.0204 210.965 96.6044 211.156C96.197 211.346 95.7334 211.442 95.2134 211.442ZM95.2264 206.034C94.819 206.034 94.4594 206.151 94.1474 206.385C93.8354 206.61 93.636 206.957 93.5494 207.425H96.7604C96.7344 207 96.5784 206.662 96.2924 206.411C96.0064 206.159 95.651 206.034 95.2264 206.034ZM99.8499 214.146V204.838H101.332L101.514 205.761C101.722 205.475 101.995 205.223 102.333 205.007C102.68 204.79 103.126 204.682 103.672 204.682C104.279 204.682 104.82 204.829 105.297 205.124C105.774 205.418 106.151 205.821 106.428 206.333C106.705 206.844 106.844 207.425 106.844 208.075C106.844 208.725 106.705 209.305 106.428 209.817C106.151 210.319 105.774 210.718 105.297 211.013C104.82 211.299 104.279 211.442 103.672 211.442C103.187 211.442 102.762 211.351 102.398 211.169C102.034 210.987 101.739 210.731 101.514 210.402V214.146H99.8499ZM103.321 209.986C103.85 209.986 104.287 209.808 104.634 209.453C104.981 209.097 105.154 208.638 105.154 208.075C105.154 207.511 104.981 207.048 104.634 206.684C104.287 206.32 103.85 206.138 103.321 206.138C102.784 206.138 102.342 206.32 101.995 206.684C101.657 207.039 101.488 207.498 101.488 208.062C101.488 208.625 101.657 209.089 101.995 209.453C102.342 209.808 102.784 209.986 103.321 209.986ZM114.301 211.286C113.625 211.286 113.083 211.121 112.676 210.792C112.269 210.462 112.065 209.877 112.065 209.037V206.229H110.96V204.838H112.065L112.26 203.109H113.729V204.838H115.471V206.229H113.729V209.05C113.729 209.362 113.794 209.578 113.924 209.7C114.063 209.812 114.297 209.869 114.626 209.869H115.432V211.286H114.301ZM116.9 211.286V204.838H118.382L118.538 206.047C118.772 205.631 119.088 205.301 119.487 205.059C119.894 204.807 120.371 204.682 120.917 204.682V206.437H120.449C120.085 206.437 119.76 206.493 119.474 206.606C119.188 206.718 118.962 206.913 118.798 207.191C118.642 207.468 118.564 207.854 118.564 208.348V211.286H116.9ZM124.277 211.442C123.722 211.442 123.267 211.355 122.912 211.182C122.557 211 122.292 210.761 122.119 210.467C121.946 210.172 121.859 209.847 121.859 209.492C121.859 208.894 122.093 208.408 122.561 208.036C123.029 207.663 123.731 207.477 124.667 207.477H126.305V207.321C126.305 206.879 126.179 206.554 125.928 206.346C125.677 206.138 125.365 206.034 124.992 206.034C124.654 206.034 124.359 206.116 124.108 206.281C123.857 206.437 123.701 206.671 123.64 206.983H122.015C122.058 206.515 122.214 206.107 122.483 205.761C122.76 205.414 123.116 205.15 123.549 204.968C123.982 204.777 124.468 204.682 125.005 204.682C125.924 204.682 126.647 204.911 127.176 205.371C127.705 205.83 127.969 206.48 127.969 207.321V211.286H126.552L126.396 210.246C126.205 210.592 125.937 210.878 125.59 211.104C125.252 211.329 124.814 211.442 124.277 211.442ZM124.654 210.142C125.131 210.142 125.499 209.986 125.759 209.674C126.028 209.362 126.197 208.976 126.266 208.517H124.849C124.407 208.517 124.091 208.599 123.9 208.764C123.709 208.92 123.614 209.115 123.614 209.349C123.614 209.6 123.709 209.795 123.9 209.934C124.091 210.072 124.342 210.142 124.654 210.142ZM132.716 211.442C132.057 211.442 131.477 211.299 130.974 211.013C130.471 210.727 130.073 210.328 129.778 209.817C129.492 209.305 129.349 208.72 129.349 208.062C129.349 207.403 129.492 206.818 129.778 206.307C130.073 205.795 130.471 205.397 130.974 205.111C131.477 204.825 132.057 204.682 132.716 204.682C133.539 204.682 134.233 204.898 134.796 205.332C135.359 205.756 135.719 206.346 135.875 207.1H134.12C134.033 206.788 133.86 206.545 133.6 206.372C133.349 206.19 133.05 206.099 132.703 206.099C132.244 206.099 131.854 206.272 131.533 206.619C131.212 206.965 131.052 207.446 131.052 208.062C131.052 208.677 131.212 209.158 131.533 209.505C131.854 209.851 132.244 210.025 132.703 210.025C133.05 210.025 133.349 209.938 133.6 209.765C133.86 209.591 134.033 209.344 134.12 209.024H135.875C135.719 209.752 135.359 210.337 134.796 210.779C134.233 211.221 133.539 211.442 132.716 211.442ZM137.352 211.286V201.926H139.016V207.451L141.304 204.838H143.28L140.641 207.776L143.709 211.286H141.629L139.016 208.049V211.286H137.352Z" fill="white"/>
<path d="M240.562 212.286V210.596H236.077V209.27L240.341 203.186H242.226V209.153H243.422V210.596H242.226V212.286H240.562ZM237.858 209.153H240.666V205.019L237.858 209.153ZM247.837 212.442C247.204 212.442 246.671 212.32 246.238 212.078C245.804 211.826 245.466 211.501 245.224 211.103C244.981 210.704 244.838 210.275 244.795 209.816H246.342C246.411 210.214 246.576 210.522 246.836 210.739C247.104 210.955 247.442 211.064 247.85 211.064C248.43 211.064 248.898 210.799 249.254 210.271C249.609 209.733 249.8 208.919 249.826 207.827C249.618 208.182 249.301 208.477 248.877 208.711C248.461 208.945 248.001 209.062 247.499 209.062C246.996 209.062 246.524 208.94 246.082 208.698C245.64 208.455 245.28 208.113 245.003 207.671C244.725 207.229 244.587 206.709 244.587 206.111C244.587 205.565 244.721 205.058 244.99 204.59C245.258 204.122 245.631 203.745 246.108 203.459C246.584 203.173 247.143 203.03 247.785 203.03C248.469 203.03 249.046 203.155 249.514 203.407C249.982 203.658 250.354 203.996 250.632 204.421C250.918 204.845 251.121 205.318 251.243 205.838C251.373 206.358 251.438 206.891 251.438 207.437C251.438 208.451 251.295 209.335 251.009 210.089C250.731 210.834 250.32 211.415 249.774 211.831C249.236 212.238 248.591 212.442 247.837 212.442ZM247.889 207.658C248.209 207.658 248.5 207.588 248.76 207.45C249.02 207.302 249.223 207.112 249.371 206.878C249.518 206.635 249.592 206.366 249.592 206.072C249.592 205.604 249.427 205.218 249.098 204.915C248.777 204.611 248.37 204.46 247.876 204.46C247.39 204.46 246.987 204.611 246.667 204.915C246.346 205.209 246.186 205.586 246.186 206.046C246.186 206.531 246.346 206.921 246.667 207.216C246.987 207.51 247.395 207.658 247.889 207.658ZM254.841 207.658C254.425 207.658 254.048 207.567 253.71 207.385C253.372 207.194 253.103 206.925 252.904 206.579C252.705 206.232 252.605 205.82 252.605 205.344C252.605 204.867 252.705 204.455 252.904 204.109C253.103 203.762 253.372 203.498 253.71 203.316C254.048 203.125 254.429 203.03 254.854 203.03C255.27 203.03 255.643 203.125 255.972 203.316C256.31 203.498 256.579 203.762 256.778 204.109C256.977 204.455 257.077 204.867 257.077 205.344C257.077 205.82 256.977 206.232 256.778 206.579C256.579 206.925 256.31 207.194 255.972 207.385C255.634 207.567 255.257 207.658 254.841 207.658ZM254.347 212.286L259.482 203.186H261.107L255.972 212.286H254.347ZM254.841 206.501C255.092 206.501 255.309 206.405 255.491 206.215C255.673 206.015 255.764 205.725 255.764 205.344C255.764 204.962 255.673 204.672 255.491 204.473C255.318 204.273 255.101 204.174 254.841 204.174C254.581 204.174 254.36 204.273 254.178 204.473C254.005 204.672 253.918 204.962 253.918 205.344C253.918 205.725 254.005 206.015 254.178 206.215C254.36 206.405 254.581 206.501 254.841 206.501ZM260.665 212.442C260.249 212.442 259.872 212.351 259.534 212.169C259.196 211.978 258.927 211.709 258.728 211.363C258.529 211.016 258.429 210.604 258.429 210.128C258.429 209.651 258.529 209.244 258.728 208.906C258.927 208.559 259.196 208.295 259.534 208.113C259.872 207.922 260.253 207.827 260.678 207.827C261.094 207.827 261.467 207.922 261.796 208.113C262.134 208.295 262.403 208.559 262.602 208.906C262.801 209.244 262.901 209.651 262.901 210.128C262.901 210.604 262.801 211.016 262.602 211.363C262.403 211.709 262.134 211.978 261.796 212.169C261.467 212.351 261.09 212.442 260.665 212.442ZM260.665 211.285C260.925 211.285 261.142 211.189 261.315 210.999C261.497 210.799 261.588 210.509 261.588 210.128C261.588 209.746 261.497 209.456 261.315 209.257C261.142 209.057 260.925 208.958 260.665 208.958C260.405 208.958 260.184 209.057 260.002 209.257C259.829 209.456 259.742 209.746 259.742 210.128C259.742 210.509 259.829 210.799 260.002 210.999C260.184 211.189 260.405 211.285 260.665 211.285Z" fill="white"/>
<path d="M40.094 102V93.797H37.377V92.9H43.903V93.797H41.186V102H40.094ZM46.9024 102.156C46.2871 102.156 45.7411 102.017 45.2644 101.74C44.7878 101.454 44.4108 101.06 44.1334 100.557C43.8648 100.054 43.7304 99.4607 43.7304 98.776C43.7304 98.1 43.8648 97.5107 44.1334 97.008C44.4021 96.4967 44.7748 96.1023 45.2514 95.825C45.7368 95.539 46.2958 95.396 46.9284 95.396C47.5524 95.396 48.0898 95.539 48.5404 95.825C48.9998 96.1023 49.3508 96.4707 49.5934 96.93C49.8361 97.3893 49.9574 97.8833 49.9574 98.412C49.9574 98.5073 49.9531 98.6027 49.9444 98.698C49.9444 98.7933 49.9444 98.9017 49.9444 99.023H44.8094C44.8354 99.517 44.9481 99.9287 45.1474 100.258C45.3554 100.579 45.6111 100.821 45.9144 100.986C46.2264 101.151 46.5558 101.233 46.9024 101.233C47.3531 101.233 47.7301 101.129 48.0334 100.921C48.3368 100.713 48.5578 100.431 48.6964 100.076H49.7754C49.6021 100.674 49.2684 101.172 48.7744 101.571C48.2891 101.961 47.6651 102.156 46.9024 102.156ZM46.9024 96.319C46.3824 96.319 45.9188 96.4793 45.5114 96.8C45.1128 97.112 44.8831 97.5713 44.8224 98.178H48.8784C48.8524 97.5973 48.6531 97.1423 48.2804 96.813C47.9078 96.4837 47.4484 96.319 46.9024 96.319ZM50.4501 102L52.6861 98.776L50.4501 95.552H51.6331L53.4401 98.217L55.2601 95.552H56.4301L54.1941 98.776L56.4301 102H55.2601L53.4401 99.335L51.6331 102H50.4501ZM60.1227 102C59.5334 102 59.0697 101.857 58.7317 101.571C58.3937 101.285 58.2247 100.769 58.2247 100.024V96.475H57.1067V95.552H58.2247L58.3677 94.005H59.3167V95.552H61.2147V96.475H59.3167V100.024C59.3167 100.431 59.3991 100.709 59.5637 100.856C59.7284 100.995 60.0187 101.064 60.4347 101.064H61.1107V102H60.1227Z" fill="#282828"/>
<path d="M236.11 101V100.233C236.725 99.7477 237.306 99.258 237.852 98.764C238.407 98.2613 238.896 97.7673 239.321 97.282C239.754 96.7967 240.092 96.32 240.335 95.852C240.586 95.384 240.712 94.9333 240.712 94.5C240.712 94.1793 240.656 93.8803 240.543 93.603C240.439 93.3257 240.266 93.1047 240.023 92.94C239.78 92.7667 239.451 92.68 239.035 92.68C238.636 92.68 238.303 92.771 238.034 92.953C237.765 93.1263 237.562 93.3603 237.423 93.655C237.293 93.9497 237.228 94.266 237.228 94.604H236.175C236.175 94.006 236.301 93.4947 236.552 93.07C236.803 92.6367 237.146 92.3073 237.579 92.082C238.012 91.8567 238.502 91.744 239.048 91.744C239.854 91.744 240.513 91.9737 241.024 92.433C241.544 92.8837 241.804 93.5597 241.804 94.461C241.804 94.9983 241.67 95.5313 241.401 96.06C241.132 96.58 240.79 97.087 240.374 97.581C239.958 98.0663 239.512 98.5213 239.035 98.946C238.567 99.3707 238.129 99.752 237.722 100.09H242.116V101H236.11ZM247.598 101V99.05H242.983V98.205L247.403 91.9H248.677V98.088H250.029V99.05H248.677V101H247.598ZM244.192 98.088H247.65V93.109L244.192 98.088ZM252.935 96.125C252.545 96.125 252.19 96.0383 251.869 95.865C251.557 95.683 251.31 95.4317 251.128 95.111C250.946 94.7817 250.855 94.3917 250.855 93.941C250.855 93.4903 250.946 93.1047 251.128 92.784C251.319 92.4547 251.57 92.2033 251.882 92.03C252.203 91.848 252.558 91.757 252.948 91.757C253.338 91.757 253.689 91.848 254.001 92.03C254.313 92.2033 254.56 92.4547 254.742 92.784C254.924 93.1047 255.015 93.4903 255.015 93.941C255.015 94.3917 254.92 94.7817 254.729 95.111C254.547 95.4317 254.3 95.683 253.988 95.865C253.676 96.0383 253.325 96.125 252.935 96.125ZM252.129 101L257.42 91.9H258.512L253.221 101H252.129ZM252.935 95.28C253.238 95.28 253.503 95.1673 253.728 94.942C253.962 94.7167 254.079 94.383 254.079 93.941C254.079 93.4903 253.966 93.1523 253.741 92.927C253.516 92.693 253.251 92.576 252.948 92.576C252.645 92.576 252.372 92.693 252.129 92.927C251.895 93.1523 251.778 93.4903 251.778 93.941C251.778 94.383 251.895 94.7167 252.129 94.942C252.363 95.1673 252.632 95.28 252.935 95.28ZM257.797 101.156C257.407 101.156 257.052 101.069 256.731 100.896C256.419 100.714 256.172 100.463 255.99 100.142C255.808 99.8127 255.717 99.4227 255.717 98.972C255.717 98.5213 255.808 98.1357 255.99 97.815C256.181 97.4857 256.432 97.2343 256.744 97.061C257.056 96.879 257.407 96.788 257.797 96.788C258.187 96.788 258.538 96.879 258.85 97.061C259.162 97.2343 259.409 97.4857 259.591 97.815C259.773 98.1357 259.864 98.5213 259.864 98.972C259.864 99.4227 259.773 99.8127 259.591 100.142C259.409 100.463 259.162 100.714 258.85 100.896C258.538 101.069 258.187 101.156 257.797 101.156ZM257.784 100.311C258.096 100.311 258.365 100.198 258.59 99.973C258.824 99.7477 258.941 99.414 258.941 98.972C258.941 98.5213 258.828 98.1833 258.603 97.958C258.378 97.7327 258.109 97.62 257.797 97.62C257.494 97.62 257.225 97.7327 256.991 97.958C256.757 98.1833 256.64 98.5213 256.64 98.972C256.64 99.414 256.753 99.7477 256.978 99.973C257.212 100.198 257.481 100.311 257.784 100.311Z" fill="black"/>
<path d="M42.096 250.156C41.2033 250.156 40.419 249.961 39.743 249.571C39.0757 249.172 38.5513 248.618 38.17 247.907C37.7973 247.196 37.611 246.377 37.611 245.45C37.611 244.523 37.7973 243.708 38.17 243.006C38.5513 242.295 39.0757 241.741 39.743 241.342C40.419 240.943 41.2033 240.744 42.096 240.744C42.9973 240.744 43.7817 240.943 44.449 241.342C45.125 241.741 45.6493 242.295 46.022 243.006C46.3947 243.708 46.581 244.523 46.581 245.45C46.581 246.377 46.3947 247.196 46.022 247.907C45.6493 248.618 45.125 249.172 44.449 249.571C43.7817 249.961 42.9973 250.156 42.096 250.156ZM42.096 249.194C42.7633 249.194 43.3483 249.047 43.851 248.752C44.3623 248.449 44.7567 248.02 45.034 247.465C45.32 246.902 45.463 246.23 45.463 245.45C45.463 244.67 45.32 244.003 45.034 243.448C44.7567 242.893 44.3623 242.469 43.851 242.174C43.3483 241.871 42.7633 241.719 42.096 241.719C41.4287 241.719 40.8393 241.871 40.328 242.174C39.8253 242.469 39.431 242.893 39.145 243.448C38.8677 244.003 38.729 244.67 38.729 245.45C38.729 246.23 38.8677 246.902 39.145 247.465C39.431 248.02 39.8253 248.449 40.328 248.752C40.8393 249.047 41.4287 249.194 42.096 249.194ZM50.6393 250C50.05 250 49.5863 249.857 49.2483 249.571C48.9103 249.285 48.7413 248.769 48.7413 248.024V244.475H47.6233V243.552H48.7413L48.8843 242.005H49.8333V243.552H51.7313V244.475H49.8333V248.024C49.8333 248.431 49.9157 248.709 50.0803 248.856C50.245 248.995 50.5353 249.064 50.9513 249.064H51.6273V250H50.6393ZM53.1187 250V240.64H54.2107V244.657C54.4273 244.258 54.735 243.951 55.1337 243.734C55.5323 243.509 55.9657 243.396 56.4337 243.396C57.179 243.396 57.777 243.63 58.2277 244.098C58.6783 244.557 58.9037 245.268 58.9037 246.23V250H57.8247V246.347C57.8247 245.004 57.283 244.332 56.1997 244.332C55.6363 244.332 55.164 244.536 54.7827 244.943C54.4013 245.342 54.2107 245.914 54.2107 246.659V250H53.1187ZM63.4571 250.156C62.8418 250.156 62.2958 250.017 61.8191 249.74C61.3425 249.454 60.9655 249.06 60.6881 248.557C60.4195 248.054 60.2851 247.461 60.2851 246.776C60.2851 246.1 60.4195 245.511 60.6881 245.008C60.9568 244.497 61.3295 244.102 61.8061 243.825C62.2915 243.539 62.8505 243.396 63.4831 243.396C64.1071 243.396 64.6445 243.539 65.0951 243.825C65.5545 244.102 65.9055 244.471 66.1481 244.93C66.3908 245.389 66.5121 245.883 66.5121 246.412C66.5121 246.507 66.5078 246.603 66.4991 246.698C66.4991 246.793 66.4991 246.902 66.4991 247.023H61.3641C61.3901 247.517 61.5028 247.929 61.7021 248.258C61.9101 248.579 62.1658 248.821 62.4691 248.986C62.7811 249.151 63.1105 249.233 63.4571 249.233C63.9078 249.233 64.2848 249.129 64.5881 248.921C64.8915 248.713 65.1125 248.431 65.2511 248.076H66.3301C66.1568 248.674 65.8231 249.172 65.3291 249.571C64.8438 249.961 64.2198 250.156 63.4571 250.156ZM63.4571 244.319C62.9371 244.319 62.4735 244.479 62.0661 244.8C61.6675 245.112 61.4378 245.571 61.3771 246.178H65.4331C65.4071 245.597 65.2078 245.142 64.8351 244.813C64.4625 244.484 64.0031 244.319 63.4571 244.319ZM67.9595 250V243.552H68.9475L69.0385 244.787C69.2378 244.362 69.5412 244.024 69.9485 243.773C70.3558 243.522 70.8585 243.396 71.4565 243.396V244.54H71.1575C70.7762 244.54 70.4252 244.609 70.1045 244.748C69.7838 244.878 69.5282 245.103 69.3375 245.424C69.1468 245.745 69.0515 246.187 69.0515 246.75V250H67.9595Z" fill="#282828"/>
<path d="M239.207 250V249.233C239.822 248.748 240.403 248.258 240.949 247.764C241.503 247.261 241.993 246.767 242.418 246.282C242.851 245.797 243.189 245.32 243.432 244.852C243.683 244.384 243.809 243.933 243.809 243.5C243.809 243.179 243.752 242.88 243.64 242.603C243.536 242.326 243.362 242.105 243.12 241.94C242.877 241.767 242.548 241.68 242.132 241.68C241.733 241.68 241.399 241.771 241.131 241.953C240.862 242.126 240.658 242.36 240.52 242.655C240.39 242.95 240.325 243.266 240.325 243.604H239.272C239.272 243.006 239.397 242.495 239.649 242.07C239.9 241.637 240.242 241.307 240.676 241.082C241.109 240.857 241.599 240.744 242.145 240.744C242.951 240.744 243.609 240.974 244.121 241.433C244.641 241.884 244.901 242.56 244.901 243.461C244.901 243.998 244.766 244.531 244.498 245.06C244.229 245.58 243.887 246.087 243.471 246.581C243.055 247.066 242.608 247.521 242.132 247.946C241.664 248.371 241.226 248.752 240.819 249.09H245.213V250H239.207ZM247.686 250V242.122L246.217 242.447V241.693L248.05 240.9H248.791V250H247.686ZM252.35 245.125C251.96 245.125 251.605 245.038 251.284 244.865C250.972 244.683 250.725 244.432 250.543 244.111C250.361 243.782 250.27 243.392 250.27 242.941C250.27 242.49 250.361 242.105 250.543 241.784C250.734 241.455 250.985 241.203 251.297 241.03C251.618 240.848 251.973 240.757 252.363 240.757C252.753 240.757 253.104 240.848 253.416 241.03C253.728 241.203 253.975 241.455 254.157 241.784C254.339 242.105 254.43 242.49 254.43 242.941C254.43 243.392 254.335 243.782 254.144 244.111C253.962 244.432 253.715 244.683 253.403 244.865C253.091 245.038 252.74 245.125 252.35 245.125ZM251.544 250L256.835 240.9H257.927L252.636 250H251.544ZM252.35 244.28C252.653 244.28 252.918 244.167 253.143 243.942C253.377 243.717 253.494 243.383 253.494 242.941C253.494 242.49 253.381 242.152 253.156 241.927C252.931 241.693 252.666 241.576 252.363 241.576C252.06 241.576 251.787 241.693 251.544 241.927C251.31 242.152 251.193 242.49 251.193 242.941C251.193 243.383 251.31 243.717 251.544 243.942C251.778 244.167 252.047 244.28 252.35 244.28ZM257.212 250.156C256.822 250.156 256.467 250.069 256.146 249.896C255.834 249.714 255.587 249.463 255.405 249.142C255.223 248.813 255.132 248.423 255.132 247.972C255.132 247.521 255.223 247.136 255.405 246.815C255.596 246.486 255.847 246.234 256.159 246.061C256.471 245.879 256.822 245.788 257.212 245.788C257.602 245.788 257.953 245.879 258.265 246.061C258.577 246.234 258.824 246.486 259.006 246.815C259.188 247.136 259.279 247.521 259.279 247.972C259.279 248.423 259.188 248.813 259.006 249.142C258.824 249.463 258.577 249.714 258.265 249.896C257.953 250.069 257.602 250.156 257.212 250.156ZM257.199 249.311C257.511 249.311 257.78 249.198 258.005 248.973C258.239 248.748 258.356 248.414 258.356 247.972C258.356 247.521 258.243 247.183 258.018 246.958C257.793 246.733 257.524 246.62 257.212 246.62C256.909 246.62 256.64 246.733 256.406 246.958C256.172 247.183 256.055 247.521 256.055 247.972C256.055 248.414 256.168 248.748 256.393 248.973C256.627 249.198 256.896 249.311 257.199 249.311Z" fill="black"/>
<path d="M41.953 136.156C41.0603 136.156 40.289 135.961 39.639 135.571C38.9977 135.172 38.4993 134.622 38.144 133.92C37.7887 133.209 37.611 132.386 37.611 131.45C37.611 130.523 37.7887 129.708 38.144 129.006C38.4993 128.295 38.9977 127.741 39.639 127.342C40.289 126.943 41.0603 126.744 41.953 126.744C42.993 126.744 43.838 126.995 44.488 127.498C45.1467 127.992 45.567 128.685 45.749 129.578H44.54C44.4013 129.015 44.1153 128.564 43.682 128.226C43.2573 127.879 42.681 127.706 41.953 127.706C41.303 127.706 40.7353 127.858 40.25 128.161C39.7647 128.456 39.3877 128.885 39.119 129.448C38.859 130.003 38.729 130.67 38.729 131.45C38.729 132.23 38.859 132.902 39.119 133.465C39.3877 134.02 39.7647 134.449 40.25 134.752C40.7353 135.047 41.303 135.194 41.953 135.194C42.681 135.194 43.2573 135.029 43.682 134.7C44.1153 134.362 44.4013 133.916 44.54 133.361H45.749C45.567 134.236 45.1467 134.921 44.488 135.415C43.838 135.909 42.993 136.156 41.953 136.156ZM50.1914 136.156C49.5848 136.156 49.0388 136.017 48.5534 135.74C48.0681 135.463 47.6824 135.073 47.3964 134.57C47.1191 134.059 46.9804 133.461 46.9804 132.776C46.9804 132.091 47.1234 131.498 47.4094 130.995C47.6954 130.484 48.0811 130.089 48.5664 129.812C49.0604 129.535 49.6108 129.396 50.2174 129.396C50.8241 129.396 51.3701 129.535 51.8554 129.812C52.3408 130.089 52.7221 130.484 52.9994 130.995C53.2854 131.498 53.4284 132.091 53.4284 132.776C53.4284 133.461 53.2854 134.059 52.9994 134.57C52.7134 135.073 52.3234 135.463 51.8294 135.74C51.3441 136.017 50.7981 136.156 50.1914 136.156ZM50.1914 135.22C50.5641 135.22 50.9108 135.129 51.2314 134.947C51.5521 134.765 51.8121 134.492 52.0114 134.128C52.2108 133.764 52.3104 133.313 52.3104 132.776C52.3104 132.239 52.2108 131.788 52.0114 131.424C51.8208 131.06 51.5651 130.787 51.2444 130.605C50.9238 130.423 50.5814 130.332 50.2174 130.332C49.8448 130.332 49.4981 130.423 49.1774 130.605C48.8568 130.787 48.5968 131.06 48.3974 131.424C48.1981 131.788 48.0984 132.239 48.0984 132.776C48.0984 133.313 48.1981 133.764 48.3974 134.128C48.5968 134.492 48.8524 134.765 49.1644 134.947C49.4851 135.129 49.8274 135.22 50.1914 135.22ZM54.9468 136V129.552H55.9348L56.0128 130.488C56.2208 130.141 56.4981 129.873 56.8448 129.682C57.1915 129.491 57.5815 129.396 58.0148 129.396C58.5261 129.396 58.9638 129.5 59.3278 129.708C59.7005 129.916 59.9865 130.232 60.1858 130.657C60.4111 130.267 60.7188 129.959 61.1088 129.734C61.5075 129.509 61.9365 129.396 62.3958 129.396C63.1671 129.396 63.7825 129.63 64.2418 130.098C64.7011 130.557 64.9308 131.268 64.9308 132.23V136H63.8518V132.347C63.8518 131.68 63.7175 131.177 63.4488 130.839C63.1801 130.501 62.7945 130.332 62.2918 130.332C61.7718 130.332 61.3385 130.536 60.9918 130.943C60.6538 131.342 60.4848 131.914 60.4848 132.659V136H59.3928V132.347C59.3928 131.68 59.2585 131.177 58.9898 130.839C58.7211 130.501 58.3355 130.332 57.8328 130.332C57.3215 130.332 56.8925 130.536 56.5458 130.943C56.2078 131.342 56.0388 131.914 56.0388 132.659V136H54.9468ZM66.5757 136V129.552H67.5637L67.6417 130.488C67.8497 130.141 68.127 129.873 68.4737 129.682C68.8204 129.491 69.2104 129.396 69.6437 129.396C70.155 129.396 70.5927 129.5 70.9567 129.708C71.3294 129.916 71.6154 130.232 71.8147 130.657C72.04 130.267 72.3477 129.959 72.7377 129.734C73.1364 129.509 73.5654 129.396 74.0247 129.396C74.796 129.396 75.4114 129.63 75.8707 130.098C76.33 130.557 76.5597 131.268 76.5597 132.23V136H75.4807V132.347C75.4807 131.68 75.3464 131.177 75.0777 130.839C74.809 130.501 74.4234 130.332 73.9207 130.332C73.4007 130.332 72.9674 130.536 72.6207 130.943C72.2827 131.342 72.1137 131.914 72.1137 132.659V136H71.0217V132.347C71.0217 131.68 70.8874 131.177 70.6187 130.839C70.35 130.501 69.9644 130.332 69.4617 130.332C68.9504 130.332 68.5214 130.536 68.1747 130.943C67.8367 131.342 67.6677 131.914 67.6677 132.659V136H66.5757ZM80.5576 136.156C79.795 136.156 79.1883 135.926 78.7376 135.467C78.287 134.999 78.0616 134.284 78.0616 133.322V129.552H79.1536V133.205C79.1536 134.548 79.704 135.22 80.8046 135.22C81.368 135.22 81.8316 135.021 82.1956 134.622C82.5683 134.215 82.7546 133.638 82.7546 132.893V129.552H83.8466V136H82.8586L82.7806 134.843C82.5813 135.25 82.2823 135.571 81.8836 135.805C81.4936 136.039 81.0516 136.156 80.5576 136.156ZM85.6441 136V129.552H86.6321L86.6971 130.709C86.9051 130.302 87.2041 129.981 87.5941 129.747C87.9841 129.513 88.4261 129.396 88.9201 129.396C89.6827 129.396 90.2894 129.63 90.7401 130.098C91.1994 130.557 91.4291 131.268 91.4291 132.23V136H90.3371V132.347C90.3371 131.004 89.7824 130.332 88.6731 130.332C88.1184 130.332 87.6547 130.536 87.2821 130.943C86.9181 131.342 86.7361 131.914 86.7361 132.659V136H85.6441ZM93.7465 128.122C93.5299 128.122 93.3479 128.053 93.2005 127.914C93.0619 127.767 92.9925 127.585 92.9925 127.368C92.9925 127.16 93.0619 126.987 93.2005 126.848C93.3479 126.709 93.5299 126.64 93.7465 126.64C93.9545 126.64 94.1322 126.709 94.2795 126.848C94.4269 126.987 94.5005 127.16 94.5005 127.368C94.5005 127.585 94.4269 127.767 94.2795 127.914C94.1322 128.053 93.9545 128.122 93.7465 128.122ZM93.2005 136V129.552H94.2925V136H93.2005ZM99.1579 136.156C98.5425 136.156 97.9879 136.017 97.4939 135.74C97.0085 135.454 96.6229 135.06 96.3369 134.557C96.0595 134.046 95.9209 133.452 95.9209 132.776C95.9209 132.1 96.0595 131.511 96.3369 131.008C96.6229 130.497 97.0085 130.102 97.4939 129.825C97.9879 129.539 98.5425 129.396 99.1579 129.396C99.9205 129.396 100.562 129.595 101.082 129.994C101.611 130.393 101.944 130.926 102.083 131.593H100.965C100.878 131.194 100.666 130.887 100.328 130.67C99.9899 130.445 99.5955 130.332 99.1449 130.332C98.7809 130.332 98.4385 130.423 98.1179 130.605C97.7972 130.787 97.5372 131.06 97.3379 131.424C97.1385 131.788 97.0389 132.239 97.0389 132.776C97.0389 133.313 97.1385 133.764 97.3379 134.128C97.5372 134.492 97.7972 134.769 98.1179 134.96C98.4385 135.142 98.7809 135.233 99.1449 135.233C99.5955 135.233 99.9899 135.125 100.328 134.908C100.666 134.683 100.878 134.366 100.965 133.959H102.083C101.953 134.609 101.624 135.138 101.095 135.545C100.566 135.952 99.9205 136.156 99.1579 136.156ZM105.753 136.156C105.216 136.156 104.769 136.065 104.414 135.883C104.059 135.701 103.794 135.458 103.621 135.155C103.448 134.852 103.361 134.522 103.361 134.167C103.361 133.508 103.612 133.001 104.115 132.646C104.618 132.291 105.302 132.113 106.169 132.113H107.911V132.035C107.911 131.472 107.764 131.047 107.469 130.761C107.174 130.466 106.78 130.319 106.286 130.319C105.861 130.319 105.493 130.427 105.181 130.644C104.878 130.852 104.687 131.16 104.609 131.567H103.491C103.534 131.099 103.69 130.705 103.959 130.384C104.236 130.063 104.579 129.821 104.986 129.656C105.393 129.483 105.827 129.396 106.286 129.396C107.187 129.396 107.863 129.639 108.314 130.124C108.773 130.601 109.003 131.238 109.003 132.035V136H108.028L107.963 134.843C107.781 135.207 107.512 135.519 107.157 135.779C106.81 136.03 106.342 136.156 105.753 136.156ZM105.922 135.233C106.338 135.233 106.693 135.125 106.988 134.908C107.291 134.691 107.521 134.41 107.677 134.063C107.833 133.716 107.911 133.352 107.911 132.971V132.958H106.26C105.619 132.958 105.164 133.071 104.895 133.296C104.635 133.513 104.505 133.786 104.505 134.115C104.505 134.453 104.626 134.726 104.869 134.934C105.12 135.133 105.471 135.233 105.922 135.233ZM113.011 136C112.422 136 111.958 135.857 111.62 135.571C111.282 135.285 111.113 134.769 111.113 134.024V130.475H109.995V129.552H111.113L111.256 128.005H112.205V129.552H114.103V130.475H112.205V134.024C112.205 134.431 112.288 134.709 112.452 134.856C112.617 134.995 112.907 135.064 113.323 135.064H113.999V136H113.011ZM118.212 136.156C117.597 136.156 117.051 136.017 116.574 135.74C116.097 135.454 115.72 135.06 115.443 134.557C115.174 134.054 115.04 133.461 115.04 132.776C115.04 132.1 115.174 131.511 115.443 131.008C115.712 130.497 116.084 130.102 116.561 129.825C117.046 129.539 117.605 129.396 118.238 129.396C118.862 129.396 119.399 129.539 119.85 129.825C120.309 130.102 120.66 130.471 120.903 130.93C121.146 131.389 121.267 131.883 121.267 132.412C121.267 132.507 121.263 132.603 121.254 132.698C121.254 132.793 121.254 132.902 121.254 133.023H116.119C116.145 133.517 116.258 133.929 116.457 134.258C116.665 134.579 116.921 134.821 117.224 134.986C117.536 135.151 117.865 135.233 118.212 135.233C118.663 135.233 119.04 135.129 119.343 134.921C119.646 134.713 119.867 134.431 120.006 134.076H121.085C120.912 134.674 120.578 135.172 120.084 135.571C119.599 135.961 118.975 136.156 118.212 136.156ZM118.212 130.319C117.692 130.319 117.228 130.479 116.821 130.8C116.422 131.112 116.193 131.571 116.132 132.178H120.188C120.162 131.597 119.963 131.142 119.59 130.813C119.217 130.484 118.758 130.319 118.212 130.319ZM126.818 128.122C126.601 128.122 126.419 128.053 126.272 127.914C126.133 127.767 126.064 127.585 126.064 127.368C126.064 127.16 126.133 126.987 126.272 126.848C126.419 126.709 126.601 126.64 126.818 126.64C127.026 126.64 127.203 126.709 127.351 126.848C127.498 126.987 127.572 127.16 127.572 127.368C127.572 127.585 127.498 127.767 127.351 127.914C127.203 128.053 127.026 128.122 126.818 128.122ZM126.272 136V129.552H127.364V136H126.272ZM129.265 136V129.552H130.253L130.318 130.709C130.526 130.302 130.825 129.981 131.215 129.747C131.605 129.513 132.047 129.396 132.541 129.396C133.304 129.396 133.91 129.63 134.361 130.098C134.82 130.557 135.05 131.268 135.05 132.23V136H133.958V132.347C133.958 131.004 133.403 130.332 132.294 130.332C131.739 130.332 131.276 130.536 130.903 130.943C130.539 131.342 130.357 131.914 130.357 132.659V136H129.265ZM140.145 138.86V129.552H141.133L141.237 130.618C141.445 130.306 141.74 130.024 142.121 129.773C142.511 129.522 143.005 129.396 143.603 129.396C144.244 129.396 144.803 129.543 145.28 129.838C145.757 130.133 146.125 130.536 146.385 131.047C146.654 131.558 146.788 132.139 146.788 132.789C146.788 133.439 146.654 134.02 146.385 134.531C146.125 135.034 145.752 135.432 145.267 135.727C144.79 136.013 144.231 136.156 143.59 136.156C143.061 136.156 142.589 136.048 142.173 135.831C141.766 135.614 141.454 135.311 141.237 134.921V138.86H140.145ZM143.473 135.207C143.906 135.207 144.288 135.107 144.617 134.908C144.946 134.7 145.206 134.414 145.397 134.05C145.588 133.686 145.683 133.261 145.683 132.776C145.683 132.291 145.588 131.866 145.397 131.502C145.206 131.138 144.946 130.856 144.617 130.657C144.288 130.449 143.906 130.345 143.473 130.345C143.04 130.345 142.658 130.449 142.329 130.657C142 130.856 141.74 131.138 141.549 131.502C141.358 131.866 141.263 132.291 141.263 132.776C141.263 133.261 141.358 133.686 141.549 134.05C141.74 134.414 142 134.7 142.329 134.908C142.658 135.107 143.04 135.207 143.473 135.207ZM151.207 136.156C150.592 136.156 150.046 136.017 149.569 135.74C149.092 135.454 148.715 135.06 148.438 134.557C148.169 134.054 148.035 133.461 148.035 132.776C148.035 132.1 148.169 131.511 148.438 131.008C148.707 130.497 149.079 130.102 149.556 129.825C150.041 129.539 150.6 129.396 151.233 129.396C151.857 129.396 152.394 129.539 152.845 129.825C153.304 130.102 153.655 130.471 153.898 130.93C154.141 131.389 154.262 131.883 154.262 132.412C154.262 132.507 154.258 132.603 154.249 132.698C154.249 132.793 154.249 132.902 154.249 133.023H149.114C149.14 133.517 149.253 133.929 149.452 134.258C149.66 134.579 149.916 134.821 150.219 134.986C150.531 135.151 150.86 135.233 151.207 135.233C151.658 135.233 152.035 135.129 152.338 134.921C152.641 134.713 152.862 134.431 153.001 134.076H154.08C153.907 134.674 153.573 135.172 153.079 135.571C152.594 135.961 151.97 136.156 151.207 136.156ZM151.207 130.319C150.687 130.319 150.223 130.479 149.816 130.8C149.417 131.112 149.188 131.571 149.127 132.178H153.183C153.157 131.597 152.958 131.142 152.585 130.813C152.212 130.484 151.753 130.319 151.207 130.319ZM155.71 136V129.552H156.698L156.789 130.787C156.988 130.362 157.291 130.024 157.699 129.773C158.106 129.522 158.609 129.396 159.207 129.396V130.54H158.908C158.526 130.54 158.175 130.609 157.855 130.748C157.534 130.878 157.278 131.103 157.088 131.424C156.897 131.745 156.802 132.187 156.802 132.75V136H155.71ZM162.902 136.156C162.131 136.156 161.489 135.961 160.978 135.571C160.467 135.181 160.168 134.652 160.081 133.985H161.199C161.268 134.323 161.446 134.618 161.732 134.869C162.027 135.112 162.421 135.233 162.915 135.233C163.374 135.233 163.712 135.138 163.929 134.947C164.146 134.748 164.254 134.514 164.254 134.245C164.254 133.855 164.111 133.595 163.825 133.465C163.548 133.335 163.153 133.218 162.642 133.114C162.295 133.045 161.949 132.945 161.602 132.815C161.255 132.685 160.965 132.503 160.731 132.269C160.497 132.026 160.38 131.71 160.38 131.32C160.38 130.757 160.588 130.297 161.004 129.942C161.429 129.578 162.001 129.396 162.72 129.396C163.405 129.396 163.964 129.569 164.397 129.916C164.839 130.254 165.095 130.739 165.164 131.372H164.085C164.042 131.043 163.899 130.787 163.656 130.605C163.422 130.414 163.106 130.319 162.707 130.319C162.317 130.319 162.014 130.401 161.797 130.566C161.589 130.731 161.485 130.947 161.485 131.216C161.485 131.476 161.619 131.68 161.888 131.827C162.165 131.974 162.538 132.1 163.006 132.204C163.405 132.291 163.782 132.399 164.137 132.529C164.501 132.65 164.796 132.837 165.021 133.088C165.255 133.331 165.372 133.686 165.372 134.154C165.381 134.735 165.16 135.216 164.709 135.597C164.267 135.97 163.665 136.156 162.902 136.156ZM169.87 136.156C169.263 136.156 168.717 136.017 168.232 135.74C167.747 135.463 167.361 135.073 167.075 134.57C166.798 134.059 166.659 133.461 166.659 132.776C166.659 132.091 166.802 131.498 167.088 130.995C167.374 130.484 167.76 130.089 168.245 129.812C168.739 129.535 169.289 129.396 169.896 129.396C170.503 129.396 171.049 129.535 171.534 129.812C172.019 130.089 172.401 130.484 172.678 130.995C172.964 131.498 173.107 132.091 173.107 132.776C173.107 133.461 172.964 134.059 172.678 134.57C172.392 135.073 172.002 135.463 171.508 135.74C171.023 136.017 170.477 136.156 169.87 136.156ZM169.87 135.22C170.243 135.22 170.589 135.129 170.91 134.947C171.231 134.765 171.491 134.492 171.69 134.128C171.889 133.764 171.989 133.313 171.989 132.776C171.989 132.239 171.889 131.788 171.69 131.424C171.499 131.06 171.244 130.787 170.923 130.605C170.602 130.423 170.26 130.332 169.896 130.332C169.523 130.332 169.177 130.423 168.856 130.605C168.535 130.787 168.275 131.06 168.076 131.424C167.877 131.788 167.777 132.239 167.777 132.776C167.777 133.313 167.877 133.764 168.076 134.128C168.275 134.492 168.531 134.765 168.843 134.947C169.164 135.129 169.506 135.22 169.87 135.22ZM174.626 136V129.552H175.614L175.679 130.709C175.887 130.302 176.186 129.981 176.576 129.747C176.966 129.513 177.408 129.396 177.902 129.396C178.664 129.396 179.271 129.63 179.722 130.098C180.181 130.557 180.411 131.268 180.411 132.23V136H179.319V132.347C179.319 131.004 178.764 130.332 177.655 130.332C177.1 130.332 176.636 130.536 176.264 130.943C175.9 131.342 175.718 131.914 175.718 132.659V136H174.626Z" fill="#282828"/>
<path d="M243.763 135V127.122L242.294 127.447V126.693L244.127 125.9H244.868V135H243.763ZM247.686 135V127.122L246.217 127.447V126.693L248.05 125.9H248.791V135H247.686ZM252.35 130.125C251.96 130.125 251.605 130.038 251.284 129.865C250.972 129.683 250.725 129.432 250.543 129.111C250.361 128.782 250.27 128.392 250.27 127.941C250.27 127.49 250.361 127.105 250.543 126.784C250.734 126.455 250.985 126.203 251.297 126.03C251.618 125.848 251.973 125.757 252.363 125.757C252.753 125.757 253.104 125.848 253.416 126.03C253.728 126.203 253.975 126.455 254.157 126.784C254.339 127.105 254.43 127.49 254.43 127.941C254.43 128.392 254.335 128.782 254.144 129.111C253.962 129.432 253.715 129.683 253.403 129.865C253.091 130.038 252.74 130.125 252.35 130.125ZM251.544 135L256.835 125.9H257.927L252.636 135H251.544ZM252.35 129.28C252.653 129.28 252.918 129.167 253.143 128.942C253.377 128.717 253.494 128.383 253.494 127.941C253.494 127.49 253.381 127.152 253.156 126.927C252.931 126.693 252.666 126.576 252.363 126.576C252.06 126.576 251.787 126.693 251.544 126.927C251.31 127.152 251.193 127.49 251.193 127.941C251.193 128.383 251.31 128.717 251.544 128.942C251.778 129.167 252.047 129.28 252.35 129.28ZM257.212 135.156C256.822 135.156 256.467 135.069 256.146 134.896C255.834 134.714 255.587 134.463 255.405 134.142C255.223 133.813 255.132 133.423 255.132 132.972C255.132 132.521 255.223 132.136 255.405 131.815C255.596 131.486 255.847 131.234 256.159 131.061C256.471 130.879 256.822 130.788 257.212 130.788C257.602 130.788 257.953 130.879 258.265 131.061C258.577 131.234 258.824 131.486 259.006 131.815C259.188 132.136 259.279 132.521 259.279 132.972C259.279 133.423 259.188 133.813 259.006 134.142C258.824 134.463 258.577 134.714 258.265 134.896C257.953 135.069 257.602 135.156 257.212 135.156ZM257.199 134.311C257.511 134.311 257.78 134.198 258.005 133.973C258.239 133.748 258.356 133.414 258.356 132.972C258.356 132.521 258.243 132.183 258.018 131.958C257.793 131.733 257.524 131.62 257.212 131.62C256.909 131.62 256.64 131.733 256.406 131.958C256.172 132.183 256.055 132.521 256.055 132.972C256.055 133.414 256.168 133.748 256.393 133.973C256.627 134.198 256.896 134.311 257.199 134.311Z" fill="black"/>
</svg>
