<svg width="300" height="345" viewBox="0 0 300 345" fill="none" xmlns="http://www.w3.org/2000/svg">
<rect width="300" height="345" fill="white"/>
<path d="M57.5749 41L54.2449 28.4H56.7109L58.9789 38.426L61.6429 28.4H64.1809L66.7729 38.426L69.0409 28.4H71.5249L68.1049 41H65.3689L62.8669 31.658L60.2929 41H57.5749ZM73.1407 41V28.04H75.4447V33.44C75.7447 32.948 76.1467 32.564 76.6507 32.288C77.1667 32 77.7547 31.856 78.4147 31.856C79.5187 31.856 80.3707 32.204 80.9707 32.9C81.5827 33.596 81.8887 34.616 81.8887 35.96V41H79.6027V36.176C79.6027 35.408 79.4467 34.82 79.1347 34.412C78.8347 34.004 78.3547 33.8 77.6947 33.8C77.0467 33.8 76.5067 34.028 76.0747 34.484C75.6547 34.94 75.4447 35.576 75.4447 36.392V41H73.1407ZM87.1699 41.216C86.4019 41.216 85.7719 41.096 85.2799 40.856C84.7879 40.604 84.4219 40.274 84.1819 39.866C83.9419 39.458 83.8219 39.008 83.8219 38.516C83.8219 37.688 84.1459 37.016 84.7939 36.5C85.4419 35.984 86.4139 35.726 87.7099 35.726H89.9779V35.51C89.9779 34.898 89.8039 34.448 89.4559 34.16C89.1079 33.872 88.6759 33.728 88.1599 33.728C87.6919 33.728 87.2839 33.842 86.9359 34.07C86.5879 34.286 86.3719 34.61 86.2879 35.042H84.0379C84.0979 34.394 84.3139 33.83 84.6859 33.35C85.0699 32.87 85.5619 32.504 86.1619 32.252C86.7619 31.988 87.4339 31.856 88.1779 31.856C89.4499 31.856 90.4519 32.174 91.1839 32.81C91.9159 33.446 92.2819 34.346 92.2819 35.51V41H90.3199L90.1039 39.56C89.8399 40.04 89.4679 40.436 88.9879 40.748C88.5199 41.06 87.9139 41.216 87.1699 41.216ZM87.6919 39.416C88.3519 39.416 88.8619 39.2 89.2219 38.768C89.5939 38.336 89.8279 37.802 89.9239 37.166H87.9619C87.3499 37.166 86.9119 37.28 86.6479 37.508C86.3839 37.724 86.2519 37.994 86.2519 38.318C86.2519 38.666 86.3839 38.936 86.6479 39.128C86.9119 39.32 87.2599 39.416 87.6919 39.416ZM98.3355 41C97.3995 41 96.6495 40.772 96.0855 40.316C95.5215 39.86 95.2395 39.05 95.2395 37.886V33.998H93.7095V32.072H95.2395L95.5095 29.678H97.5435V32.072H99.9555V33.998H97.5435V37.904C97.5435 38.336 97.6335 38.636 97.8135 38.804C98.0055 38.96 98.3295 39.038 98.7855 39.038H99.9015V41H98.3355ZM101.502 32.828L102.492 28.4H104.922L103.086 32.828H101.502ZM109.456 41.216C108.664 41.216 107.968 41.09 107.368 40.838C106.768 40.574 106.288 40.214 105.928 39.758C105.568 39.302 105.352 38.774 105.28 38.174H107.602C107.674 38.522 107.866 38.822 108.178 39.074C108.502 39.314 108.916 39.434 109.42 39.434C109.924 39.434 110.29 39.332 110.518 39.128C110.758 38.924 110.878 38.69 110.878 38.426C110.878 38.042 110.71 37.784 110.374 37.652C110.038 37.508 109.57 37.37 108.97 37.238C108.586 37.154 108.196 37.052 107.8 36.932C107.404 36.812 107.038 36.662 106.702 36.482C106.378 36.29 106.114 36.05 105.91 35.762C105.706 35.462 105.604 35.096 105.604 34.664C105.604 33.872 105.916 33.206 106.54 32.666C107.176 32.126 108.064 31.856 109.204 31.856C110.26 31.856 111.1 32.102 111.724 32.594C112.36 33.086 112.738 33.764 112.858 34.628H110.68C110.548 33.968 110.05 33.638 109.186 33.638C108.754 33.638 108.418 33.722 108.178 33.89C107.95 34.058 107.836 34.268 107.836 34.52C107.836 34.784 108.01 34.994 108.358 35.15C108.706 35.306 109.168 35.45 109.744 35.582C110.368 35.726 110.938 35.888 111.454 36.068C111.982 36.236 112.402 36.494 112.714 36.842C113.026 37.178 113.182 37.664 113.182 38.3C113.194 38.852 113.05 39.35 112.75 39.794C112.45 40.238 112.018 40.586 111.454 40.838C110.89 41.09 110.224 41.216 109.456 41.216ZM120.628 44.96L122.698 40.406H122.158L118.684 32.072H121.186L123.688 38.354L126.298 32.072H128.746L123.076 44.96H120.628ZM133.763 41.216C132.899 41.216 132.119 41.018 131.423 40.622C130.739 40.226 130.193 39.68 129.785 38.984C129.389 38.276 129.191 37.46 129.191 36.536C129.191 35.612 129.395 34.802 129.803 34.106C130.211 33.398 130.757 32.846 131.441 32.45C132.137 32.054 132.917 31.856 133.781 31.856C134.633 31.856 135.401 32.054 136.085 32.45C136.781 32.846 137.327 33.398 137.723 34.106C138.131 34.802 138.335 35.612 138.335 36.536C138.335 37.46 138.131 38.276 137.723 38.984C137.327 39.68 136.781 40.226 136.085 40.622C135.389 41.018 134.615 41.216 133.763 41.216ZM133.763 39.218C134.363 39.218 134.885 38.996 135.329 38.552C135.773 38.096 135.995 37.424 135.995 36.536C135.995 35.648 135.773 34.982 135.329 34.538C134.885 34.082 134.369 33.854 133.781 33.854C133.169 33.854 132.641 34.082 132.197 34.538C131.765 34.982 131.549 35.648 131.549 36.536C131.549 37.424 131.765 38.096 132.197 38.552C132.641 38.996 133.163 39.218 133.763 39.218ZM143.743 41.216C142.627 41.216 141.763 40.868 141.151 40.172C140.551 39.476 140.251 38.456 140.251 37.112V32.072H142.537V36.896C142.537 37.664 142.693 38.252 143.005 38.66C143.317 39.068 143.809 39.272 144.481 39.272C145.117 39.272 145.639 39.044 146.047 38.588C146.467 38.132 146.677 37.496 146.677 36.68V32.072H148.981V41H146.947L146.767 39.488C146.491 40.016 146.089 40.436 145.561 40.748C145.045 41.06 144.439 41.216 143.743 41.216ZM151.346 41V32.072H153.398L153.614 33.746C153.938 33.17 154.376 32.714 154.928 32.378C155.492 32.03 156.152 31.856 156.908 31.856V34.286H156.26C155.756 34.286 155.306 34.364 154.91 34.52C154.514 34.676 154.202 34.946 153.974 35.33C153.758 35.714 153.65 36.248 153.65 36.932V41H151.346ZM165.85 41.216C165.082 41.216 164.452 41.096 163.96 40.856C163.468 40.604 163.102 40.274 162.862 39.866C162.622 39.458 162.502 39.008 162.502 38.516C162.502 37.688 162.826 37.016 163.474 36.5C164.122 35.984 165.094 35.726 166.39 35.726H168.658V35.51C168.658 34.898 168.484 34.448 168.136 34.16C167.788 33.872 167.356 33.728 166.84 33.728C166.372 33.728 165.964 33.842 165.616 34.07C165.268 34.286 165.052 34.61 164.968 35.042H162.718C162.778 34.394 162.994 33.83 163.366 33.35C163.75 32.87 164.242 32.504 164.842 32.252C165.442 31.988 166.114 31.856 166.858 31.856C168.13 31.856 169.132 32.174 169.864 32.81C170.596 33.446 170.962 34.346 170.962 35.51V41H169L168.784 39.56C168.52 40.04 168.148 40.436 167.668 40.748C167.2 41.06 166.594 41.216 165.85 41.216ZM166.372 39.416C167.032 39.416 167.542 39.2 167.902 38.768C168.274 38.336 168.508 37.802 168.604 37.166H166.642C166.03 37.166 165.592 37.28 165.328 37.508C165.064 37.724 164.932 37.994 164.932 38.318C164.932 38.666 165.064 38.936 165.328 39.128C165.592 39.32 165.94 39.416 166.372 39.416ZM176.94 38.336C176.508 38.336 176.106 38.288 175.734 38.192L175.068 38.858C175.272 38.966 175.548 39.056 175.896 39.128C176.244 39.2 176.808 39.272 177.588 39.344C178.776 39.452 179.64 39.734 180.18 40.19C180.72 40.646 180.99 41.276 180.99 42.08C180.99 42.608 180.846 43.106 180.558 43.574C180.27 44.054 179.826 44.438 179.226 44.726C178.626 45.026 177.858 45.176 176.922 45.176C175.65 45.176 174.624 44.936 173.844 44.456C173.064 43.988 172.674 43.28 172.674 42.332C172.674 41.528 173.064 40.832 173.844 40.244C173.604 40.136 173.394 40.022 173.214 39.902C173.046 39.782 172.896 39.656 172.764 39.524V39.11L174.33 37.454C173.634 36.842 173.286 36.056 173.286 35.096C173.286 34.496 173.43 33.95 173.718 33.458C174.018 32.966 174.438 32.576 174.978 32.288C175.518 32 176.172 31.856 176.94 31.856C177.444 31.856 177.912 31.928 178.344 32.072H181.728V33.476L180.198 33.584C180.438 34.04 180.558 34.544 180.558 35.096C180.558 35.696 180.414 36.242 180.126 36.734C179.838 37.226 179.418 37.616 178.866 37.904C178.326 38.192 177.684 38.336 176.94 38.336ZM176.94 36.572C177.408 36.572 177.792 36.446 178.092 36.194C178.404 35.942 178.56 35.582 178.56 35.114C178.56 34.646 178.404 34.286 178.092 34.034C177.792 33.782 177.408 33.656 176.94 33.656C176.448 33.656 176.052 33.782 175.752 34.034C175.452 34.286 175.302 34.646 175.302 35.114C175.302 35.582 175.452 35.942 175.752 36.194C176.052 36.446 176.448 36.572 176.94 36.572ZM174.78 42.098C174.78 42.542 174.984 42.872 175.392 43.088C175.812 43.316 176.322 43.43 176.922 43.43C177.498 43.43 177.966 43.31 178.326 43.07C178.686 42.842 178.866 42.53 178.866 42.134C178.866 41.81 178.746 41.54 178.506 41.324C178.278 41.108 177.816 40.976 177.12 40.928C176.628 40.892 176.172 40.838 175.752 40.766C175.404 40.958 175.152 41.168 174.996 41.396C174.852 41.624 174.78 41.858 174.78 42.098ZM187.395 41.216C186.495 41.216 185.697 41.024 185.001 40.64C184.305 40.256 183.759 39.716 183.363 39.02C182.967 38.324 182.769 37.52 182.769 36.608C182.769 35.684 182.961 34.862 183.345 34.142C183.741 33.422 184.281 32.864 184.965 32.468C185.661 32.06 186.477 31.856 187.413 31.856C188.289 31.856 189.063 32.048 189.735 32.432C190.407 32.816 190.929 33.344 191.301 34.016C191.685 34.676 191.877 35.414 191.877 36.23C191.877 36.362 191.871 36.5 191.859 36.644C191.859 36.788 191.853 36.938 191.841 37.094H185.055C185.103 37.79 185.343 38.336 185.775 38.732C186.219 39.128 186.753 39.326 187.377 39.326C187.845 39.326 188.235 39.224 188.547 39.02C188.871 38.804 189.111 38.528 189.267 38.192H191.607C191.439 38.756 191.157 39.272 190.761 39.74C190.377 40.196 189.897 40.556 189.321 40.82C188.757 41.084 188.115 41.216 187.395 41.216ZM187.413 33.728C186.849 33.728 186.351 33.89 185.919 34.214C185.487 34.526 185.211 35.006 185.091 35.654H189.537C189.501 35.066 189.285 34.598 188.889 34.25C188.493 33.902 188.001 33.728 187.413 33.728ZM198.104 41V32.072H200.156L200.372 33.746C200.696 33.17 201.134 32.714 201.686 32.378C202.25 32.03 202.91 31.856 203.666 31.856V34.286H203.018C202.514 34.286 202.064 34.364 201.668 34.52C201.272 34.676 200.96 34.946 200.732 35.33C200.516 35.714 200.408 36.248 200.408 36.932V41H198.104ZM208.318 41.216C207.55 41.216 206.92 41.096 206.428 40.856C205.936 40.604 205.57 40.274 205.33 39.866C205.09 39.458 204.97 39.008 204.97 38.516C204.97 37.688 205.294 37.016 205.942 36.5C206.59 35.984 207.562 35.726 208.858 35.726H211.126V35.51C211.126 34.898 210.952 34.448 210.604 34.16C210.256 33.872 209.824 33.728 209.308 33.728C208.84 33.728 208.432 33.842 208.084 34.07C207.736 34.286 207.52 34.61 207.436 35.042H205.186C205.246 34.394 205.462 33.83 205.834 33.35C206.218 32.87 206.71 32.504 207.31 32.252C207.91 31.988 208.582 31.856 209.326 31.856C210.598 31.856 211.6 32.174 212.332 32.81C213.064 33.446 213.43 34.346 213.43 35.51V41H211.468L211.252 39.56C210.988 40.04 210.616 40.436 210.136 40.748C209.668 41.06 209.062 41.216 208.318 41.216ZM208.84 39.416C209.5 39.416 210.01 39.2 210.37 38.768C210.742 38.336 210.976 37.802 211.072 37.166H209.11C208.498 37.166 208.06 37.28 207.796 37.508C207.532 37.724 207.4 37.994 207.4 38.318C207.4 38.666 207.532 38.936 207.796 39.128C208.06 39.32 208.408 39.416 208.84 39.416ZM215.629 41V32.072H217.663L217.843 33.584C218.119 33.056 218.515 32.636 219.031 32.324C219.559 32.012 220.177 31.856 220.885 31.856C221.989 31.856 222.847 32.204 223.459 32.9C224.071 33.596 224.377 34.616 224.377 35.96V41H222.073V36.176C222.073 35.408 221.917 34.82 221.605 34.412C221.293 34.004 220.807 33.8 220.147 33.8C219.499 33.8 218.965 34.028 218.545 34.484C218.137 34.94 217.933 35.576 217.933 36.392V41H215.629ZM230.36 38.336C229.928 38.336 229.526 38.288 229.154 38.192L228.488 38.858C228.692 38.966 228.968 39.056 229.316 39.128C229.664 39.2 230.228 39.272 231.008 39.344C232.196 39.452 233.06 39.734 233.6 40.19C234.14 40.646 234.41 41.276 234.41 42.08C234.41 42.608 234.266 43.106 233.978 43.574C233.69 44.054 233.246 44.438 232.646 44.726C232.046 45.026 231.278 45.176 230.342 45.176C229.07 45.176 228.044 44.936 227.264 44.456C226.484 43.988 226.094 43.28 226.094 42.332C226.094 41.528 226.484 40.832 227.264 40.244C227.024 40.136 226.814 40.022 226.634 39.902C226.466 39.782 226.316 39.656 226.184 39.524V39.11L227.75 37.454C227.054 36.842 226.706 36.056 226.706 35.096C226.706 34.496 226.85 33.95 227.138 33.458C227.438 32.966 227.858 32.576 228.398 32.288C228.938 32 229.592 31.856 230.36 31.856C230.864 31.856 231.332 31.928 231.764 32.072H235.148V33.476L233.618 33.584C233.858 34.04 233.978 34.544 233.978 35.096C233.978 35.696 233.834 36.242 233.546 36.734C233.258 37.226 232.838 37.616 232.286 37.904C231.746 38.192 231.104 38.336 230.36 38.336ZM230.36 36.572C230.828 36.572 231.212 36.446 231.512 36.194C231.824 35.942 231.98 35.582 231.98 35.114C231.98 34.646 231.824 34.286 231.512 34.034C231.212 33.782 230.828 33.656 230.36 33.656C229.868 33.656 229.472 33.782 229.172 34.034C228.872 34.286 228.722 34.646 228.722 35.114C228.722 35.582 228.872 35.942 229.172 36.194C229.472 36.446 229.868 36.572 230.36 36.572ZM228.2 42.098C228.2 42.542 228.404 42.872 228.812 43.088C229.232 43.316 229.742 43.43 230.342 43.43C230.918 43.43 231.386 43.31 231.746 43.07C232.106 42.842 232.286 42.53 232.286 42.134C232.286 41.81 232.166 41.54 231.926 41.324C231.698 41.108 231.236 40.976 230.54 40.928C230.048 40.892 229.592 40.838 229.172 40.766C228.824 40.958 228.572 41.168 228.416 41.396C228.272 41.624 228.2 41.858 228.2 42.098ZM240.815 41.216C239.915 41.216 239.117 41.024 238.421 40.64C237.725 40.256 237.179 39.716 236.783 39.02C236.387 38.324 236.189 37.52 236.189 36.608C236.189 35.684 236.381 34.862 236.765 34.142C237.161 33.422 237.701 32.864 238.385 32.468C239.081 32.06 239.897 31.856 240.833 31.856C241.709 31.856 242.483 32.048 243.155 32.432C243.827 32.816 244.349 33.344 244.721 34.016C245.105 34.676 245.297 35.414 245.297 36.23C245.297 36.362 245.291 36.5 245.279 36.644C245.279 36.788 245.273 36.938 245.261 37.094H238.475C238.523 37.79 238.763 38.336 239.195 38.732C239.639 39.128 240.173 39.326 240.797 39.326C241.265 39.326 241.655 39.224 241.967 39.02C242.291 38.804 242.531 38.528 242.687 38.192H245.027C244.859 38.756 244.577 39.272 244.181 39.74C243.797 40.196 243.317 40.556 242.741 40.82C242.177 41.084 241.535 41.216 240.815 41.216ZM240.833 33.728C240.269 33.728 239.771 33.89 239.339 34.214C238.907 34.526 238.631 35.006 238.511 35.654H242.957C242.921 35.066 242.705 34.598 242.309 34.25C241.913 33.902 241.421 33.728 240.833 33.728ZM248.179 37.076L248.107 34.106H248.935C249.547 34.106 250.105 34.052 250.609 33.944C251.113 33.836 251.515 33.626 251.815 33.314C252.115 33.002 252.265 32.546 252.265 31.946C252.265 31.37 252.091 30.92 251.743 30.596C251.395 30.26 250.933 30.092 250.357 30.092C249.757 30.092 249.289 30.26 248.953 30.596C248.617 30.92 248.449 31.364 248.449 31.928H246.271C246.259 31.208 246.415 30.566 246.739 30.002C247.063 29.438 247.531 28.994 248.143 28.67C248.767 28.346 249.511 28.184 250.375 28.184C251.179 28.184 251.887 28.334 252.499 28.634C253.123 28.934 253.609 29.366 253.957 29.93C254.317 30.482 254.497 31.16 254.497 31.964C254.497 32.792 254.311 33.476 253.939 34.016C253.579 34.556 253.081 34.958 252.445 35.222C251.821 35.486 251.095 35.624 250.267 35.636L250.213 37.076H248.179ZM249.205 41.126C248.785 41.126 248.437 40.994 248.161 40.73C247.897 40.466 247.765 40.148 247.765 39.776C247.765 39.392 247.897 39.068 248.161 38.804C248.437 38.54 248.785 38.408 249.205 38.408C249.625 38.408 249.967 38.54 250.231 38.804C250.495 39.068 250.627 39.392 250.627 39.776C250.627 40.148 250.495 40.466 250.231 40.73C249.967 40.994 249.625 41.126 249.205 41.126Z" fill="#323232"/>
<rect x="28" y="137" width="247" height="23" rx="6" fill="black"/>
<path d="M40.2411 152.286V151.077C40.7958 150.617 41.3331 150.162 41.8531 149.712C42.3818 149.261 42.8498 148.815 43.2571 148.373C43.6731 147.931 44.0025 147.502 44.2451 147.086C44.4965 146.661 44.6221 146.249 44.6221 145.851C44.6221 145.478 44.5181 145.149 44.3101 144.863C44.1108 144.577 43.7771 144.434 43.3091 144.434C42.8325 144.434 42.4728 144.59 42.2301 144.902C41.9875 145.214 41.8661 145.591 41.8661 146.033H40.2541C40.2715 145.365 40.4188 144.811 40.6961 144.369C40.9735 143.918 41.3418 143.584 41.8011 143.368C42.2605 143.142 42.7761 143.03 43.3481 143.03C44.2755 143.03 44.9948 143.285 45.5061 143.797C46.0261 144.299 46.2861 144.954 46.2861 145.76C46.2861 146.262 46.1691 146.752 45.9351 147.229C45.7098 147.705 45.4108 148.165 45.0381 148.607C44.6655 149.049 44.2625 149.465 43.8291 149.855C43.3958 150.236 42.9755 150.591 42.5681 150.921H46.5071V152.286H40.2411ZM51.1519 152.442C50.4845 152.442 49.9082 152.325 49.4229 152.091C48.9462 151.857 48.5692 151.536 48.2919 151.129C48.0232 150.713 47.8672 150.245 47.8239 149.725H49.4489C49.5269 150.097 49.7175 150.409 50.0209 150.661C50.3242 150.903 50.7012 151.025 51.1519 151.025C51.6372 151.025 52.0315 150.847 52.3349 150.492C52.6469 150.136 52.8029 149.694 52.8029 149.166C52.8029 148.62 52.6469 148.186 52.3349 147.866C52.0315 147.545 51.6459 147.385 51.1779 147.385C50.7879 147.385 50.4499 147.48 50.1639 147.671C49.8779 147.861 49.6742 148.1 49.5529 148.386H47.9539L48.7339 143.186H53.7779V144.642H49.9819L49.5659 146.748C49.7565 146.54 50.0165 146.371 50.3459 146.241C50.6752 146.102 51.0435 146.033 51.4509 146.033C52.1009 146.033 52.6425 146.18 53.0759 146.475C53.5092 146.761 53.8385 147.142 54.0639 147.619C54.2892 148.087 54.4019 148.598 54.4019 149.153C54.4019 149.785 54.2632 150.349 53.9859 150.843C53.7172 151.337 53.3359 151.727 52.8419 152.013C52.3565 152.299 51.7932 152.442 51.1519 152.442ZM58.8661 149.218V147.827H64.3131V149.218H58.8661ZM71.9782 152.442C71.3802 152.442 70.8385 152.338 70.3532 152.13C69.8679 151.913 69.4779 151.584 69.1832 151.142C68.8885 150.7 68.7325 150.145 68.7152 149.478H70.3532C70.3619 149.92 70.5049 150.292 70.7822 150.596C71.0682 150.89 71.4669 151.038 71.9782 151.038C72.4635 151.038 72.8362 150.903 73.0962 150.635C73.3562 150.366 73.4862 150.028 73.4862 149.621C73.4862 149.144 73.3129 148.784 72.9662 148.542C72.6282 148.29 72.1905 148.165 71.6532 148.165H70.9772V146.8H71.6662C72.1082 146.8 72.4765 146.696 72.7712 146.488C73.0659 146.28 73.2132 145.972 73.2132 145.565C73.2132 145.227 73.1005 144.958 72.8752 144.759C72.6585 144.551 72.3552 144.447 71.9652 144.447C71.5405 144.447 71.2069 144.572 70.9642 144.824C70.7302 145.075 70.6002 145.383 70.5742 145.747H68.9492C68.9839 144.906 69.2742 144.243 69.8202 143.758C70.3749 143.272 71.0899 143.03 71.9652 143.03C72.5892 143.03 73.1135 143.142 73.5382 143.368C73.9715 143.584 74.2965 143.875 74.5132 144.239C74.7385 144.603 74.8512 145.006 74.8512 145.448C74.8512 145.959 74.7082 146.392 74.4222 146.748C74.1449 147.094 73.7982 147.328 73.3822 147.45C73.8935 147.554 74.3095 147.805 74.6302 148.204C74.9509 148.594 75.1112 149.088 75.1112 149.686C75.1112 150.188 74.9899 150.648 74.7472 151.064C74.5045 151.48 74.1492 151.813 73.6812 152.065C73.2219 152.316 72.6542 152.442 71.9782 152.442ZM80.9053 152.286V150.596H76.4203V149.27L80.6843 143.186H82.5693V149.153H83.7653V150.596H82.5693V152.286H80.9053ZM78.2013 149.153H81.0093V145.019L78.2013 149.153Z" fill="white"/>
<path d="M240.887 153.442C240.202 153.442 239.626 153.316 239.158 153.065C238.69 152.813 238.313 152.475 238.027 152.051C237.741 151.626 237.533 151.154 237.403 150.634C237.282 150.114 237.221 149.581 237.221 149.035C237.221 148.021 237.364 147.141 237.65 146.396C237.936 145.642 238.348 145.061 238.885 144.654C239.422 144.238 240.072 144.03 240.835 144.03C241.459 144.03 241.988 144.155 242.421 144.407C242.863 144.649 243.205 144.97 243.448 145.369C243.691 145.767 243.834 146.196 243.877 146.656H242.33C242.252 146.257 242.083 145.949 241.823 145.733C241.563 145.516 241.229 145.408 240.822 145.408C240.241 145.408 239.773 145.676 239.418 146.214C239.063 146.742 238.872 147.553 238.846 148.645C239.054 148.289 239.366 147.995 239.782 147.761C240.198 147.527 240.662 147.41 241.173 147.41C241.676 147.41 242.148 147.531 242.59 147.774C243.032 148.016 243.387 148.359 243.656 148.801C243.933 149.243 244.072 149.763 244.072 150.361C244.072 150.907 243.938 151.414 243.669 151.882C243.409 152.35 243.036 152.727 242.551 153.013C242.074 153.299 241.52 153.442 240.887 153.442ZM240.796 152.012C241.281 152.012 241.68 151.864 241.992 151.57C242.313 151.266 242.473 150.885 242.473 150.426C242.473 149.94 242.313 149.55 241.992 149.256C241.671 148.961 241.264 148.814 240.77 148.814C240.449 148.814 240.159 148.887 239.899 149.035C239.648 149.173 239.448 149.364 239.301 149.607C239.154 149.841 239.08 150.105 239.08 150.4C239.08 150.868 239.24 151.253 239.561 151.557C239.89 151.86 240.302 152.012 240.796 152.012ZM245.321 153.286V152.077C245.876 151.617 246.413 151.162 246.933 150.712C247.462 150.261 247.93 149.815 248.337 149.373C248.753 148.931 249.083 148.502 249.325 148.086C249.577 147.661 249.702 147.249 249.702 146.851C249.702 146.478 249.598 146.149 249.39 145.863C249.191 145.577 248.857 145.434 248.389 145.434C247.913 145.434 247.553 145.59 247.31 145.902C247.068 146.214 246.946 146.591 246.946 147.033H245.334C245.352 146.365 245.499 145.811 245.776 145.369C246.054 144.918 246.422 144.584 246.881 144.368C247.341 144.142 247.856 144.03 248.428 144.03C249.356 144.03 250.075 144.285 250.586 144.797C251.106 145.299 251.366 145.954 251.366 146.76C251.366 147.262 251.249 147.752 251.015 148.229C250.79 148.705 250.491 149.165 250.118 149.607C249.746 150.049 249.343 150.465 248.909 150.855C248.476 151.236 248.056 151.591 247.648 151.921H251.587V153.286H245.321ZM254.841 148.658C254.425 148.658 254.048 148.567 253.71 148.385C253.372 148.194 253.103 147.925 252.904 147.579C252.705 147.232 252.605 146.82 252.605 146.344C252.605 145.867 252.705 145.455 252.904 145.109C253.103 144.762 253.372 144.498 253.71 144.316C254.048 144.125 254.429 144.03 254.854 144.03C255.27 144.03 255.643 144.125 255.972 144.316C256.31 144.498 256.579 144.762 256.778 145.109C256.977 145.455 257.077 145.867 257.077 146.344C257.077 146.82 256.977 147.232 256.778 147.579C256.579 147.925 256.31 148.194 255.972 148.385C255.634 148.567 255.257 148.658 254.841 148.658ZM254.347 153.286L259.482 144.186H261.107L255.972 153.286H254.347ZM254.841 147.501C255.092 147.501 255.309 147.405 255.491 147.215C255.673 147.015 255.764 146.725 255.764 146.344C255.764 145.962 255.673 145.672 255.491 145.473C255.318 145.273 255.101 145.174 254.841 145.174C254.581 145.174 254.36 145.273 254.178 145.473C254.005 145.672 253.918 145.962 253.918 146.344C253.918 146.725 254.005 147.015 254.178 147.215C254.36 147.405 254.581 147.501 254.841 147.501ZM260.665 153.442C260.249 153.442 259.872 153.351 259.534 153.169C259.196 152.978 258.927 152.709 258.728 152.363C258.529 152.016 258.429 151.604 258.429 151.128C258.429 150.651 258.529 150.244 258.728 149.906C258.927 149.559 259.196 149.295 259.534 149.113C259.872 148.922 260.253 148.827 260.678 148.827C261.094 148.827 261.467 148.922 261.796 149.113C262.134 149.295 262.403 149.559 262.602 149.906C262.801 150.244 262.901 150.651 262.901 151.128C262.901 151.604 262.801 152.016 262.602 152.363C262.403 152.709 262.134 152.978 261.796 153.169C261.467 153.351 261.09 153.442 260.665 153.442ZM260.665 152.285C260.925 152.285 261.142 152.189 261.315 151.999C261.497 151.799 261.588 151.509 261.588 151.128C261.588 150.746 261.497 150.456 261.315 150.257C261.142 150.057 260.925 149.958 260.665 149.958C260.405 149.958 260.184 150.057 260.002 150.257C259.829 150.456 259.742 150.746 259.742 151.128C259.742 151.509 259.829 151.799 260.002 151.999C260.184 152.189 260.405 152.285 260.665 152.285Z" fill="white"/>
<path d="M43.25 79.156C42.4873 79.156 41.8807 78.9263 41.43 78.467C40.9793 77.999 40.754 77.284 40.754 76.322V72.552H41.846V76.205C41.846 77.5483 42.3963 78.22 43.497 78.22C44.0603 78.22 44.524 78.0207 44.888 77.622C45.2607 77.2147 45.447 76.6383 45.447 75.893V72.552H46.539V79H45.551L45.473 77.843C45.2737 78.2503 44.9747 78.571 44.576 78.805C44.186 79.039 43.744 79.156 43.25 79.156ZM48.3365 79V72.552H49.3245L49.3895 73.709C49.5975 73.3017 49.8965 72.981 50.2865 72.747C50.6765 72.513 51.1185 72.396 51.6125 72.396C52.3751 72.396 52.9818 72.63 53.4325 73.098C53.8918 73.5573 54.1215 74.268 54.1215 75.23V79H53.0295V75.347C53.0295 74.0037 52.4748 73.332 51.3655 73.332C50.8108 73.332 50.3471 73.5357 49.9745 73.943C49.6105 74.3417 49.4285 74.9137 49.4285 75.659V79H48.3365ZM58.7009 79.156C58.0596 79.156 57.4962 79.0087 57.0109 78.714C56.5342 78.4193 56.1616 78.0163 55.8929 77.505C55.6329 76.9937 55.5029 76.413 55.5029 75.763C55.5029 75.113 55.6372 74.5367 55.9059 74.034C56.1746 73.5227 56.5472 73.124 57.0239 72.838C57.5006 72.5433 58.0639 72.396 58.7139 72.396C59.2426 72.396 59.7106 72.5043 60.1179 72.721C60.5252 72.9377 60.8416 73.241 61.0669 73.631V69.64H62.1589V79H61.1709L61.0669 77.934C60.8589 78.246 60.5599 78.5277 60.1699 78.779C59.7799 79.0303 59.2902 79.156 58.7009 79.156ZM58.8179 78.207C59.2512 78.207 59.6326 78.1073 59.9619 77.908C60.2999 77.7 60.5599 77.414 60.7419 77.05C60.9326 76.686 61.0279 76.2613 61.0279 75.776C61.0279 75.2907 60.9326 74.866 60.7419 74.502C60.5599 74.138 60.2999 73.8563 59.9619 73.657C59.6326 73.449 59.2512 73.345 58.8179 73.345C58.3932 73.345 58.0119 73.449 57.6739 73.657C57.3446 73.8563 57.0846 74.138 56.8939 74.502C56.7119 74.866 56.6209 75.2907 56.6209 75.776C56.6209 76.2613 56.7119 76.686 56.8939 77.05C57.0846 77.414 57.3446 77.7 57.6739 77.908C58.0119 78.1073 58.3932 78.207 58.8179 78.207ZM66.838 79.156C66.2227 79.156 65.6767 79.0173 65.2 78.74C64.7233 78.454 64.3463 78.0597 64.069 77.557C63.8003 77.0543 63.666 76.4607 63.666 75.776C63.666 75.1 63.8003 74.5107 64.069 74.008C64.3377 73.4967 64.7103 73.1023 65.187 72.825C65.6723 72.539 66.2313 72.396 66.864 72.396C67.488 72.396 68.0253 72.539 68.476 72.825C68.9353 73.1023 69.2863 73.4707 69.529 73.93C69.7717 74.3893 69.893 74.8833 69.893 75.412C69.893 75.5073 69.8887 75.6027 69.88 75.698C69.88 75.7933 69.88 75.9017 69.88 76.023H64.745C64.771 76.517 64.8837 76.9287 65.083 77.258C65.291 77.5787 65.5467 77.8213 65.85 77.986C66.162 78.1507 66.4913 78.233 66.838 78.233C67.2887 78.233 67.6657 78.129 67.969 77.921C68.2723 77.713 68.4933 77.4313 68.632 77.076H69.711C69.5377 77.674 69.204 78.1723 68.71 78.571C68.2247 78.961 67.6007 79.156 66.838 79.156ZM66.838 73.319C66.318 73.319 65.8543 73.4793 65.447 73.8C65.0483 74.112 64.8187 74.5713 64.758 75.178H68.814C68.788 74.5973 68.5887 74.1423 68.216 73.813C67.8433 73.4837 67.384 73.319 66.838 73.319ZM71.3404 79V72.552H72.3284L72.4194 73.787C72.6187 73.3623 72.922 73.0243 73.3294 72.773C73.7367 72.5217 74.2394 72.396 74.8374 72.396V73.54H74.5384C74.157 73.54 73.806 73.6093 73.4854 73.748C73.1647 73.878 72.909 74.1033 72.7184 74.424C72.5277 74.7447 72.4324 75.1867 72.4324 75.75V79H71.3404ZM80.4654 79V71.122L78.9964 71.447V70.693L80.8294 69.9H81.5704V79H80.4654ZM86.4943 79.156C85.8963 79.156 85.359 79.0477 84.8823 78.831C84.4056 78.6057 84.0286 78.298 83.7513 77.908C83.4826 77.5093 83.3483 77.05 83.3483 76.53C83.3483 75.9753 83.5086 75.477 83.8293 75.035C84.1586 74.593 84.592 74.2983 85.1293 74.151C84.6353 73.9863 84.254 73.722 83.9853 73.358C83.7166 72.994 83.5823 72.5953 83.5823 72.162C83.5823 71.72 83.6993 71.317 83.9333 70.953C84.1673 70.5803 84.501 70.2857 84.9343 70.069C85.3676 69.8523 85.8876 69.744 86.4943 69.744C87.101 69.744 87.621 69.8523 88.0543 70.069C88.4876 70.2857 88.8213 70.5803 89.0553 70.953C89.2893 71.317 89.4063 71.72 89.4063 72.162C89.4063 72.5867 89.272 72.9853 89.0033 73.358C88.7346 73.722 88.3533 73.9863 87.8593 74.151C88.3966 74.2983 88.8256 74.593 89.1463 75.035C89.4756 75.477 89.6403 75.9753 89.6403 76.53C89.6403 77.05 89.5016 77.5093 89.2243 77.908C88.9556 78.298 88.583 78.6057 88.1063 78.831C87.6296 79.0477 87.0923 79.156 86.4943 79.156ZM86.4943 73.761C87.049 73.761 87.4866 73.6223 87.8073 73.345C88.1366 73.059 88.3013 72.6863 88.3013 72.227C88.3013 71.7157 88.141 71.33 87.8203 71.07C87.4996 70.81 87.0576 70.68 86.4943 70.68C85.931 70.68 85.489 70.81 85.1683 71.07C84.8563 71.33 84.7003 71.7157 84.7003 72.227C84.7003 72.6863 84.8606 73.059 85.1813 73.345C85.502 73.6223 85.9396 73.761 86.4943 73.761ZM86.4943 78.194C87.179 78.194 87.6903 78.038 88.0283 77.726C88.375 77.4053 88.5483 76.985 88.5483 76.465C88.5483 75.8757 88.362 75.4293 87.9893 75.126C87.6166 74.8227 87.1183 74.671 86.4943 74.671C85.8703 74.671 85.372 74.8227 84.9993 75.126C84.6266 75.4293 84.4403 75.8757 84.4403 76.465C84.4403 76.985 84.6093 77.4053 84.9473 77.726C85.294 78.038 85.8096 78.194 86.4943 78.194Z" fill="#282828"/>
<path d="M247.871 79.156C247.065 79.156 246.368 78.961 245.778 78.571C245.198 78.1723 244.751 77.622 244.439 76.92C244.127 76.2093 243.971 75.386 243.971 74.45C243.971 73.514 244.127 72.695 244.439 71.993C244.751 71.2823 245.198 70.732 245.778 70.342C246.368 69.9433 247.065 69.744 247.871 69.744C248.677 69.744 249.371 69.9433 249.951 70.342C250.532 70.732 250.978 71.2823 251.29 71.993C251.602 72.695 251.758 73.514 251.758 74.45C251.758 75.386 251.602 76.2093 251.29 76.92C250.978 77.622 250.532 78.1723 249.951 78.571C249.371 78.961 248.677 79.156 247.871 79.156ZM247.871 78.194C248.4 78.194 248.872 78.0467 249.288 77.752C249.713 77.4487 250.042 77.0197 250.276 76.465C250.519 75.9017 250.64 75.23 250.64 74.45C250.64 73.67 250.519 73.0027 250.276 72.448C250.042 71.8933 249.713 71.4687 249.288 71.174C248.872 70.8707 248.4 70.719 247.871 70.719C247.334 70.719 246.857 70.8707 246.441 71.174C246.025 71.4687 245.696 71.8933 245.453 72.448C245.211 73.0027 245.089 73.67 245.089 74.45C245.089 75.23 245.211 75.9017 245.453 76.465C245.696 77.0197 246.025 77.4487 246.441 77.752C246.857 78.0467 247.334 78.194 247.871 78.194ZM254.974 74.125C254.584 74.125 254.229 74.0383 253.908 73.865C253.596 73.683 253.349 73.4317 253.167 73.111C252.985 72.7817 252.894 72.3917 252.894 71.941C252.894 71.4903 252.985 71.1047 253.167 70.784C253.358 70.4547 253.609 70.2033 253.921 70.03C254.242 69.848 254.597 69.757 254.987 69.757C255.377 69.757 255.728 69.848 256.04 70.03C256.352 70.2033 256.599 70.4547 256.781 70.784C256.963 71.1047 257.054 71.4903 257.054 71.941C257.054 72.3917 256.959 72.7817 256.768 73.111C256.586 73.4317 256.339 73.683 256.027 73.865C255.715 74.0383 255.364 74.125 254.974 74.125ZM254.168 79L259.459 69.9H260.551L255.26 79H254.168ZM254.974 73.28C255.277 73.28 255.542 73.1673 255.767 72.942C256.001 72.7167 256.118 72.383 256.118 71.941C256.118 71.4903 256.005 71.1523 255.78 70.927C255.555 70.693 255.29 70.576 254.987 70.576C254.684 70.576 254.411 70.693 254.168 70.927C253.934 71.1523 253.817 71.4903 253.817 71.941C253.817 72.383 253.934 72.7167 254.168 72.942C254.402 73.1673 254.671 73.28 254.974 73.28ZM259.836 79.156C259.446 79.156 259.091 79.0693 258.77 78.896C258.458 78.714 258.211 78.4627 258.029 78.142C257.847 77.8127 257.756 77.4227 257.756 76.972C257.756 76.5213 257.847 76.1357 258.029 75.815C258.22 75.4857 258.471 75.2343 258.783 75.061C259.095 74.879 259.446 74.788 259.836 74.788C260.226 74.788 260.577 74.879 260.889 75.061C261.201 75.2343 261.448 75.4857 261.63 75.815C261.812 76.1357 261.903 76.5213 261.903 76.972C261.903 77.4227 261.812 77.8127 261.63 78.142C261.448 78.4627 261.201 78.714 260.889 78.896C260.577 79.0693 260.226 79.156 259.836 79.156ZM259.823 78.311C260.135 78.311 260.404 78.1983 260.629 77.973C260.863 77.7477 260.98 77.414 260.98 76.972C260.98 76.5213 260.867 76.1833 260.642 75.958C260.417 75.7327 260.148 75.62 259.836 75.62C259.533 75.62 259.264 75.7327 259.03 75.958C258.796 76.1833 258.679 76.5213 258.679 76.972C258.679 77.414 258.792 77.7477 259.017 77.973C259.251 78.1983 259.52 78.311 259.823 78.311Z" fill="black"/>
<path d="M41.859 114V106.122L40.39 106.447V105.693L42.223 104.9H42.964V114H41.859ZM47.8879 114.156C47.2899 114.156 46.7525 114.048 46.2759 113.831C45.7992 113.606 45.4222 113.298 45.1449 112.908C44.8762 112.509 44.7419 112.05 44.7419 111.53C44.7419 110.975 44.9022 110.477 45.2229 110.035C45.5522 109.593 45.9855 109.298 46.5229 109.151C46.0289 108.986 45.6475 108.722 45.3789 108.358C45.1102 107.994 44.9759 107.595 44.9759 107.162C44.9759 106.72 45.0929 106.317 45.3269 105.953C45.5609 105.58 45.8945 105.286 46.3279 105.069C46.7612 104.852 47.2812 104.744 47.8879 104.744C48.4945 104.744 49.0145 104.852 49.4479 105.069C49.8812 105.286 50.2149 105.58 50.4489 105.953C50.6829 106.317 50.7999 106.72 50.7999 107.162C50.7999 107.587 50.6655 107.985 50.3969 108.358C50.1282 108.722 49.7469 108.986 49.2529 109.151C49.7902 109.298 50.2192 109.593 50.5399 110.035C50.8692 110.477 51.0339 110.975 51.0339 111.53C51.0339 112.05 50.8952 112.509 50.6179 112.908C50.3492 113.298 49.9765 113.606 49.4999 113.831C49.0232 114.048 48.4859 114.156 47.8879 114.156ZM47.8879 108.761C48.4425 108.761 48.8802 108.622 49.2009 108.345C49.5302 108.059 49.6949 107.686 49.6949 107.227C49.6949 106.716 49.5345 106.33 49.2139 106.07C48.8932 105.81 48.4512 105.68 47.8879 105.68C47.3245 105.68 46.8825 105.81 46.5619 106.07C46.2499 106.33 46.0939 106.716 46.0939 107.227C46.0939 107.686 46.2542 108.059 46.5749 108.345C46.8955 108.622 47.3332 108.761 47.8879 108.761ZM47.8879 113.194C48.5725 113.194 49.0839 113.038 49.4219 112.726C49.7685 112.405 49.9419 111.985 49.9419 111.465C49.9419 110.876 49.7555 110.429 49.3829 110.126C49.0102 109.823 48.5119 109.671 47.8879 109.671C47.2639 109.671 46.7655 109.823 46.3929 110.126C46.0202 110.429 45.8339 110.876 45.8339 111.465C45.8339 111.985 46.0029 112.405 46.3409 112.726C46.6875 113.038 47.2032 113.194 47.8879 113.194ZM52.6244 110.685V109.762H57.7724V110.685H52.6244ZM59.3415 114V113.233C59.9568 112.748 60.5375 112.258 61.0835 111.764C61.6381 111.261 62.1278 110.767 62.5525 110.282C62.9858 109.797 63.3238 109.32 63.5665 108.852C63.8178 108.384 63.9435 107.933 63.9435 107.5C63.9435 107.179 63.8871 106.88 63.7745 106.603C63.6705 106.326 63.4971 106.105 63.2545 105.94C63.0118 105.767 62.6825 105.68 62.2665 105.68C61.8678 105.68 61.5341 105.771 61.2655 105.953C60.9968 106.126 60.7931 106.36 60.6545 106.655C60.5245 106.95 60.4595 107.266 60.4595 107.604H59.4065C59.4065 107.006 59.5321 106.495 59.7835 106.07C60.0348 105.637 60.3771 105.307 60.8105 105.082C61.2438 104.857 61.7335 104.744 62.2795 104.744C63.0855 104.744 63.7441 104.974 64.2555 105.433C64.7755 105.884 65.0355 106.56 65.0355 107.461C65.0355 107.998 64.9011 108.531 64.6325 109.06C64.3638 109.58 64.0215 110.087 63.6055 110.581C63.1895 111.066 62.7431 111.521 62.2665 111.946C61.7985 112.371 61.3608 112.752 60.9535 113.09H65.3475V114H59.3415ZM70.8291 114V112.05H66.2141V111.205L70.6341 104.9H71.9081V111.088H73.2601V112.05H71.9081V114H70.8291ZM67.4231 111.088H70.8811V106.109L67.4231 111.088Z" fill="#282828"/>
<path d="M244.781 113.156C244.201 113.156 243.676 113.052 243.208 112.844C242.74 112.627 242.363 112.307 242.077 111.882C241.8 111.457 241.653 110.929 241.635 110.296H242.74C242.749 110.816 242.931 111.267 243.286 111.648C243.642 112.021 244.14 112.207 244.781 112.207C245.423 112.207 245.904 112.029 246.224 111.674C246.554 111.319 246.718 110.89 246.718 110.387C246.718 109.962 246.614 109.616 246.406 109.347C246.207 109.078 245.934 108.879 245.587 108.749C245.249 108.619 244.877 108.554 244.469 108.554H243.793V107.631H244.469C245.059 107.631 245.518 107.497 245.847 107.228C246.185 106.959 246.354 106.582 246.354 106.097C246.354 105.69 246.22 105.356 245.951 105.096C245.691 104.827 245.301 104.693 244.781 104.693C244.279 104.693 243.876 104.845 243.572 105.148C243.269 105.443 243.1 105.815 243.065 106.266H241.96C241.986 105.772 242.116 105.334 242.35 104.953C242.593 104.572 242.922 104.277 243.338 104.069C243.754 103.852 244.235 103.744 244.781 103.744C245.371 103.744 245.86 103.848 246.25 104.056C246.649 104.264 246.948 104.541 247.147 104.888C247.355 105.235 247.459 105.616 247.459 106.032C247.459 106.491 247.334 106.912 247.082 107.293C246.831 107.666 246.454 107.917 245.951 108.047C246.489 108.16 246.935 108.415 247.29 108.814C247.646 109.213 247.823 109.737 247.823 110.387C247.823 110.89 247.706 111.353 247.472 111.778C247.247 112.194 246.909 112.528 246.458 112.779C246.008 113.03 245.449 113.156 244.781 113.156ZM250.271 113V105.122L248.802 105.447V104.693L250.635 103.9H251.376V113H250.271ZM254.935 108.125C254.545 108.125 254.19 108.038 253.869 107.865C253.557 107.683 253.31 107.432 253.128 107.111C252.946 106.782 252.855 106.392 252.855 105.941C252.855 105.49 252.946 105.105 253.128 104.784C253.319 104.455 253.57 104.203 253.882 104.03C254.203 103.848 254.558 103.757 254.948 103.757C255.338 103.757 255.689 103.848 256.001 104.03C256.313 104.203 256.56 104.455 256.742 104.784C256.924 105.105 257.015 105.49 257.015 105.941C257.015 106.392 256.92 106.782 256.729 107.111C256.547 107.432 256.3 107.683 255.988 107.865C255.676 108.038 255.325 108.125 254.935 108.125ZM254.129 113L259.42 103.9H260.512L255.221 113H254.129ZM254.935 107.28C255.238 107.28 255.503 107.167 255.728 106.942C255.962 106.717 256.079 106.383 256.079 105.941C256.079 105.49 255.966 105.152 255.741 104.927C255.516 104.693 255.251 104.576 254.948 104.576C254.645 104.576 254.372 104.693 254.129 104.927C253.895 105.152 253.778 105.49 253.778 105.941C253.778 106.383 253.895 106.717 254.129 106.942C254.363 107.167 254.632 107.28 254.935 107.28ZM259.797 113.156C259.407 113.156 259.052 113.069 258.731 112.896C258.419 112.714 258.172 112.463 257.99 112.142C257.808 111.813 257.717 111.423 257.717 110.972C257.717 110.521 257.808 110.136 257.99 109.815C258.181 109.486 258.432 109.234 258.744 109.061C259.056 108.879 259.407 108.788 259.797 108.788C260.187 108.788 260.538 108.879 260.85 109.061C261.162 109.234 261.409 109.486 261.591 109.815C261.773 110.136 261.864 110.521 261.864 110.972C261.864 111.423 261.773 111.813 261.591 112.142C261.409 112.463 261.162 112.714 260.85 112.896C260.538 113.069 260.187 113.156 259.797 113.156ZM259.784 112.311C260.096 112.311 260.365 112.198 260.59 111.973C260.824 111.748 260.941 111.414 260.941 110.972C260.941 110.521 260.828 110.183 260.603 109.958C260.378 109.733 260.109 109.62 259.797 109.62C259.494 109.62 259.225 109.733 258.991 109.958C258.757 110.183 258.64 110.521 258.64 110.972C258.64 111.414 258.753 111.748 258.978 111.973C259.212 112.198 259.481 112.311 259.784 112.311Z" fill="black"/>
<path d="M44.056 259.156C43.432 259.156 42.8903 259.043 42.431 258.818C41.9717 258.593 41.6033 258.285 41.326 257.895C41.0573 257.496 40.8927 257.046 40.832 256.543H41.898C42.002 257.046 42.2447 257.453 42.626 257.765C43.0073 258.068 43.4883 258.22 44.069 258.22C44.5023 258.22 44.875 258.12 45.187 257.921C45.499 257.713 45.7373 257.436 45.902 257.089C46.0753 256.742 46.162 256.357 46.162 255.932C46.162 255.256 45.9713 254.71 45.59 254.294C45.2087 253.878 44.7147 253.67 44.108 253.67C43.6053 253.67 43.1763 253.783 42.821 254.008C42.4657 254.233 42.2057 254.528 42.041 254.892H41.001L41.781 249.9H46.552V250.849H42.626L42.093 253.618C42.301 253.367 42.587 253.159 42.951 252.994C43.3237 252.829 43.7483 252.747 44.225 252.747C44.823 252.747 45.343 252.886 45.785 253.163C46.2357 253.44 46.5867 253.817 46.838 254.294C47.0893 254.771 47.215 255.312 47.215 255.919C47.215 256.5 47.0893 257.037 46.838 257.531C46.5953 258.025 46.2357 258.419 45.759 258.714C45.291 259.009 44.7233 259.156 44.056 259.156ZM52.016 259.156C51.392 259.156 50.8503 259.043 50.391 258.818C49.9316 258.593 49.5633 258.285 49.286 257.895C49.0173 257.496 48.8526 257.046 48.792 256.543H49.858C49.962 257.046 50.2046 257.453 50.586 257.765C50.9673 258.068 51.4483 258.22 52.029 258.22C52.4623 258.22 52.835 258.12 53.147 257.921C53.459 257.713 53.6973 257.436 53.862 257.089C54.0353 256.742 54.122 256.357 54.122 255.932C54.122 255.256 53.9313 254.71 53.55 254.294C53.1686 253.878 52.6746 253.67 52.068 253.67C51.5653 253.67 51.1363 253.783 50.781 254.008C50.4256 254.233 50.1656 254.528 50.001 254.892H48.961L49.741 249.9H54.512V250.849H50.586L50.053 253.618C50.261 253.367 50.547 253.159 50.911 252.994C51.2836 252.829 51.7083 252.747 52.185 252.747C52.783 252.747 53.303 252.886 53.745 253.163C54.1956 253.44 54.5466 253.817 54.798 254.294C55.0493 254.771 55.175 255.312 55.175 255.919C55.175 256.5 55.0493 257.037 54.798 257.531C54.5553 258.025 54.1956 258.419 53.719 258.714C53.251 259.009 52.6833 259.156 52.016 259.156ZM62.4024 259.156C61.865 259.156 61.4187 259.065 61.0634 258.883C60.708 258.701 60.4437 258.458 60.2704 258.155C60.097 257.852 60.0104 257.522 60.0104 257.167C60.0104 256.508 60.2617 256.001 60.7644 255.646C61.267 255.291 61.9517 255.113 62.8184 255.113H64.5604V255.035C64.5604 254.472 64.413 254.047 64.1184 253.761C63.8237 253.466 63.4294 253.319 62.9354 253.319C62.5107 253.319 62.1424 253.427 61.8304 253.644C61.527 253.852 61.3364 254.16 61.2584 254.567H60.1404C60.1837 254.099 60.3397 253.705 60.6084 253.384C60.8857 253.063 61.228 252.821 61.6354 252.656C62.0427 252.483 62.476 252.396 62.9354 252.396C63.8367 252.396 64.5127 252.639 64.9634 253.124C65.4227 253.601 65.6524 254.238 65.6524 255.035V259H64.6774L64.6124 257.843C64.4304 258.207 64.1617 258.519 63.8064 258.779C63.4597 259.03 62.9917 259.156 62.4024 259.156ZM62.5714 258.233C62.9874 258.233 63.3427 258.125 63.6374 257.908C63.9407 257.691 64.1704 257.41 64.3264 257.063C64.4824 256.716 64.5604 256.352 64.5604 255.971V255.958H62.9094C62.268 255.958 61.813 256.071 61.5444 256.296C61.2844 256.513 61.1544 256.786 61.1544 257.115C61.1544 257.453 61.2757 257.726 61.5184 257.934C61.7697 258.133 62.1207 258.233 62.5714 258.233ZM67.2906 259V252.552H68.2786L68.3436 253.709C68.5516 253.302 68.8506 252.981 69.2406 252.747C69.6306 252.513 70.0726 252.396 70.5666 252.396C71.3292 252.396 71.9359 252.63 72.3866 253.098C72.8459 253.557 73.0756 254.268 73.0756 255.23V259H71.9836V255.347C71.9836 254.004 71.4289 253.332 70.3196 253.332C69.7649 253.332 69.3012 253.536 68.9286 253.943C68.5646 254.342 68.3826 254.914 68.3826 255.659V259H67.2906ZM77.655 259.156C77.0137 259.156 76.4503 259.009 75.965 258.714C75.4883 258.419 75.1157 258.016 74.847 257.505C74.587 256.994 74.457 256.413 74.457 255.763C74.457 255.113 74.5913 254.537 74.86 254.034C75.1287 253.523 75.5013 253.124 75.978 252.838C76.4547 252.543 77.018 252.396 77.668 252.396C78.1967 252.396 78.6647 252.504 79.072 252.721C79.4793 252.938 79.7957 253.241 80.021 253.631V249.64H81.113V259H80.125L80.021 257.934C79.813 258.246 79.514 258.528 79.124 258.779C78.734 259.03 78.2443 259.156 77.655 259.156ZM77.772 258.207C78.2053 258.207 78.5867 258.107 78.916 257.908C79.254 257.7 79.514 257.414 79.696 257.05C79.8867 256.686 79.982 256.261 79.982 255.776C79.982 255.291 79.8867 254.866 79.696 254.502C79.514 254.138 79.254 253.856 78.916 253.657C78.5867 253.449 78.2053 253.345 77.772 253.345C77.3473 253.345 76.966 253.449 76.628 253.657C76.2987 253.856 76.0387 254.138 75.848 254.502C75.666 254.866 75.575 255.291 75.575 255.776C75.575 256.261 75.666 256.686 75.848 257.05C76.0387 257.414 76.2987 257.7 76.628 257.908C76.966 258.107 77.3473 258.207 77.772 258.207ZM89.2715 259.156C88.6649 259.156 88.1189 259.017 87.6335 258.74C87.1482 258.463 86.7625 258.073 86.4765 257.57C86.1992 257.059 86.0605 256.461 86.0605 255.776C86.0605 255.091 86.2035 254.498 86.4895 253.995C86.7755 253.484 87.1612 253.089 87.6465 252.812C88.1405 252.535 88.6909 252.396 89.2975 252.396C89.9042 252.396 90.4502 252.535 90.9355 252.812C91.4209 253.089 91.8022 253.484 92.0795 253.995C92.3655 254.498 92.5085 255.091 92.5085 255.776C92.5085 256.461 92.3655 257.059 92.0795 257.57C91.7935 258.073 91.4035 258.463 90.9095 258.74C90.4242 259.017 89.8782 259.156 89.2715 259.156ZM89.2715 258.22C89.6442 258.22 89.9909 258.129 90.3115 257.947C90.6322 257.765 90.8922 257.492 91.0915 257.128C91.2909 256.764 91.3905 256.313 91.3905 255.776C91.3905 255.239 91.2909 254.788 91.0915 254.424C90.9009 254.06 90.6452 253.787 90.3245 253.605C90.0039 253.423 89.6615 253.332 89.2975 253.332C88.9249 253.332 88.5782 253.423 88.2575 253.605C87.9369 253.787 87.6769 254.06 87.4775 254.424C87.2782 254.788 87.1785 255.239 87.1785 255.776C87.1785 256.313 87.2782 256.764 87.4775 257.128C87.6769 257.492 87.9325 257.765 88.2445 257.947C88.5652 258.129 88.9075 258.22 89.2715 258.22ZM95.5558 259L93.1118 252.552H94.2558L96.1928 257.947L98.1428 252.552H99.2608L96.8168 259H95.5558ZM103.045 259.156C102.43 259.156 101.884 259.017 101.407 258.74C100.93 258.454 100.553 258.06 100.276 257.557C100.007 257.054 99.873 256.461 99.873 255.776C99.873 255.1 100.007 254.511 100.276 254.008C100.545 253.497 100.917 253.102 101.394 252.825C101.879 252.539 102.438 252.396 103.071 252.396C103.695 252.396 104.232 252.539 104.683 252.825C105.142 253.102 105.493 253.471 105.736 253.93C105.979 254.389 106.1 254.883 106.1 255.412C106.1 255.507 106.096 255.603 106.087 255.698C106.087 255.793 106.087 255.902 106.087 256.023H100.952C100.978 256.517 101.091 256.929 101.29 257.258C101.498 257.579 101.754 257.821 102.057 257.986C102.369 258.151 102.698 258.233 103.045 258.233C103.496 258.233 103.873 258.129 104.176 257.921C104.479 257.713 104.7 257.431 104.839 257.076H105.918C105.745 257.674 105.411 258.172 104.917 258.571C104.432 258.961 103.808 259.156 103.045 259.156ZM103.045 253.319C102.525 253.319 102.061 253.479 101.654 253.8C101.255 254.112 101.026 254.571 100.965 255.178H105.021C104.995 254.597 104.796 254.142 104.423 253.813C104.05 253.484 103.591 253.319 103.045 253.319ZM107.547 259V252.552H108.535L108.626 253.787C108.826 253.362 109.129 253.024 109.536 252.773C109.944 252.522 110.446 252.396 111.044 252.396V253.54H110.745C110.364 253.54 110.013 253.609 109.692 253.748C109.372 253.878 109.116 254.103 108.925 254.424C108.735 254.745 108.639 255.187 108.639 255.75V259H107.547Z" fill="#282828"/>
<path d="M248.247 259.156C247.441 259.156 246.744 258.961 246.154 258.571C245.574 258.172 245.127 257.622 244.815 256.92C244.503 256.209 244.347 255.386 244.347 254.45C244.347 253.514 244.503 252.695 244.815 251.993C245.127 251.282 245.574 250.732 246.154 250.342C246.744 249.943 247.441 249.744 248.247 249.744C249.053 249.744 249.747 249.943 250.327 250.342C250.908 250.732 251.354 251.282 251.666 251.993C251.978 252.695 252.134 253.514 252.134 254.45C252.134 255.386 251.978 256.209 251.666 256.92C251.354 257.622 250.908 258.172 250.327 258.571C249.747 258.961 249.053 259.156 248.247 259.156ZM248.247 258.194C248.776 258.194 249.248 258.047 249.664 257.752C250.089 257.449 250.418 257.02 250.652 256.465C250.895 255.902 251.016 255.23 251.016 254.45C251.016 253.67 250.895 253.003 250.652 252.448C250.418 251.893 250.089 251.469 249.664 251.174C249.248 250.871 248.776 250.719 248.247 250.719C247.71 250.719 247.233 250.871 246.817 251.174C246.401 251.469 246.072 251.893 245.829 252.448C245.587 253.003 245.465 253.67 245.465 254.45C245.465 255.23 245.587 255.902 245.829 256.465C246.072 257.02 246.401 257.449 246.817 257.752C247.233 258.047 247.71 258.194 248.247 258.194ZM255.35 254.125C254.96 254.125 254.605 254.038 254.284 253.865C253.972 253.683 253.725 253.432 253.543 253.111C253.361 252.782 253.27 252.392 253.27 251.941C253.27 251.49 253.361 251.105 253.543 250.784C253.734 250.455 253.985 250.203 254.297 250.03C254.618 249.848 254.973 249.757 255.363 249.757C255.753 249.757 256.104 249.848 256.416 250.03C256.728 250.203 256.975 250.455 257.157 250.784C257.339 251.105 257.43 251.49 257.43 251.941C257.43 252.392 257.335 252.782 257.144 253.111C256.962 253.432 256.715 253.683 256.403 253.865C256.091 254.038 255.74 254.125 255.35 254.125ZM254.544 259L259.835 249.9H260.927L255.636 259H254.544ZM255.35 253.28C255.653 253.28 255.918 253.167 256.143 252.942C256.377 252.717 256.494 252.383 256.494 251.941C256.494 251.49 256.381 251.152 256.156 250.927C255.931 250.693 255.666 250.576 255.363 250.576C255.06 250.576 254.787 250.693 254.544 250.927C254.31 251.152 254.193 251.49 254.193 251.941C254.193 252.383 254.31 252.717 254.544 252.942C254.778 253.167 255.047 253.28 255.35 253.28ZM260.212 259.156C259.822 259.156 259.467 259.069 259.146 258.896C258.834 258.714 258.587 258.463 258.405 258.142C258.223 257.813 258.132 257.423 258.132 256.972C258.132 256.521 258.223 256.136 258.405 255.815C258.596 255.486 258.847 255.234 259.159 255.061C259.471 254.879 259.822 254.788 260.212 254.788C260.602 254.788 260.953 254.879 261.265 255.061C261.577 255.234 261.824 255.486 262.006 255.815C262.188 256.136 262.279 256.521 262.279 256.972C262.279 257.423 262.188 257.813 262.006 258.142C261.824 258.463 261.577 258.714 261.265 258.896C260.953 259.069 260.602 259.156 260.212 259.156ZM260.199 258.311C260.511 258.311 260.78 258.198 261.005 257.973C261.239 257.748 261.356 257.414 261.356 256.972C261.356 256.521 261.243 256.183 261.018 255.958C260.793 255.733 260.524 255.62 260.212 255.62C259.909 255.62 259.64 255.733 259.406 255.958C259.172 256.183 259.055 256.521 259.055 256.972C259.055 257.414 259.168 257.748 259.393 257.973C259.627 258.198 259.896 258.311 260.199 258.311Z" fill="black"/>
<path d="M43.796 192.156C43.2153 192.156 42.691 192.052 42.223 191.844C41.755 191.627 41.378 191.307 41.092 190.882C40.8147 190.457 40.6673 189.929 40.65 189.296H41.755C41.7637 189.816 41.9457 190.267 42.301 190.648C42.6563 191.021 43.1547 191.207 43.796 191.207C44.4373 191.207 44.9183 191.029 45.239 190.674C45.5683 190.319 45.733 189.89 45.733 189.387C45.733 188.962 45.629 188.616 45.421 188.347C45.2217 188.078 44.9487 187.879 44.602 187.749C44.264 187.619 43.8913 187.554 43.484 187.554H42.808V186.631H43.484C44.0733 186.631 44.5327 186.497 44.862 186.228C45.2 185.959 45.369 185.582 45.369 185.097C45.369 184.69 45.2347 184.356 44.966 184.096C44.706 183.827 44.316 183.693 43.796 183.693C43.2933 183.693 42.8903 183.845 42.587 184.148C42.2837 184.443 42.1147 184.815 42.08 185.266H40.975C41.001 184.772 41.131 184.334 41.365 183.953C41.6077 183.572 41.937 183.277 42.353 183.069C42.769 182.852 43.25 182.744 43.796 182.744C44.3853 182.744 44.875 182.848 45.265 183.056C45.6637 183.264 45.9627 183.541 46.162 183.888C46.37 184.235 46.474 184.616 46.474 185.032C46.474 185.491 46.3483 185.912 46.097 186.293C45.8457 186.666 45.4687 186.917 44.966 187.047C45.5033 187.16 45.9497 187.415 46.305 187.814C46.6603 188.213 46.838 188.737 46.838 189.387C46.838 189.89 46.721 190.353 46.487 190.778C46.2617 191.194 45.9237 191.528 45.473 191.779C45.0223 192.03 44.4633 192.156 43.796 192.156ZM52.7256 192V190.05H48.1106V189.205L52.5306 182.9H53.8046V189.088H55.1566V190.05H53.8046V192H52.7256ZM49.3196 189.088H52.7776V184.109L49.3196 189.088ZM56.2807 188.685V187.762H61.4287V188.685H56.2807ZM67.2617 192V190.05H62.6467V189.205L67.0667 182.9H68.3407V189.088H69.6927V190.05H68.3407V192H67.2617ZM63.8557 189.088H67.3137V184.109L63.8557 189.088ZM75.1328 192V190.05H70.5178V189.205L74.9378 182.9H76.2118V189.088H77.5638V190.05H76.2118V192H75.1328ZM71.7268 189.088H75.1848V184.109L71.7268 189.088Z" fill="#282828"/>
<path d="M248.78 191.156C248.182 191.156 247.645 191.048 247.168 190.831C246.692 190.606 246.315 190.298 246.037 189.908C245.769 189.509 245.634 189.05 245.634 188.53C245.634 187.975 245.795 187.477 246.115 187.035C246.445 186.593 246.878 186.298 247.415 186.151C246.921 185.986 246.54 185.722 246.271 185.358C246.003 184.994 245.868 184.595 245.868 184.162C245.868 183.72 245.985 183.317 246.219 182.953C246.453 182.58 246.787 182.286 247.22 182.069C247.654 181.852 248.174 181.744 248.78 181.744C249.387 181.744 249.907 181.852 250.34 182.069C250.774 182.286 251.107 182.58 251.341 182.953C251.575 183.317 251.692 183.72 251.692 184.162C251.692 184.587 251.558 184.985 251.289 185.358C251.021 185.722 250.639 185.986 250.145 186.151C250.683 186.298 251.112 186.593 251.432 187.035C251.762 187.477 251.926 187.975 251.926 188.53C251.926 189.05 251.788 189.509 251.51 189.908C251.242 190.298 250.869 190.606 250.392 190.831C249.916 191.048 249.378 191.156 248.78 191.156ZM248.78 185.761C249.335 185.761 249.773 185.622 250.093 185.345C250.423 185.059 250.587 184.686 250.587 184.227C250.587 183.716 250.427 183.33 250.106 183.07C249.786 182.81 249.344 182.68 248.78 182.68C248.217 182.68 247.775 182.81 247.454 183.07C247.142 183.33 246.986 183.716 246.986 184.227C246.986 184.686 247.147 185.059 247.467 185.345C247.788 185.622 248.226 185.761 248.78 185.761ZM248.78 190.194C249.465 190.194 249.976 190.038 250.314 189.726C250.661 189.405 250.834 188.985 250.834 188.465C250.834 187.876 250.648 187.429 250.275 187.126C249.903 186.823 249.404 186.671 248.78 186.671C248.156 186.671 247.658 186.823 247.285 187.126C246.913 187.429 246.726 187.876 246.726 188.465C246.726 188.985 246.895 189.405 247.233 189.726C247.58 190.038 248.096 190.194 248.78 190.194ZM255.35 186.125C254.96 186.125 254.605 186.038 254.284 185.865C253.972 185.683 253.725 185.432 253.543 185.111C253.361 184.782 253.27 184.392 253.27 183.941C253.27 183.49 253.361 183.105 253.543 182.784C253.734 182.455 253.985 182.203 254.297 182.03C254.618 181.848 254.973 181.757 255.363 181.757C255.753 181.757 256.104 181.848 256.416 182.03C256.728 182.203 256.975 182.455 257.157 182.784C257.339 183.105 257.43 183.49 257.43 183.941C257.43 184.392 257.335 184.782 257.144 185.111C256.962 185.432 256.715 185.683 256.403 185.865C256.091 186.038 255.74 186.125 255.35 186.125ZM254.544 191L259.835 181.9H260.927L255.636 191H254.544ZM255.35 185.28C255.653 185.28 255.918 185.167 256.143 184.942C256.377 184.717 256.494 184.383 256.494 183.941C256.494 183.49 256.381 183.152 256.156 182.927C255.931 182.693 255.666 182.576 255.363 182.576C255.06 182.576 254.787 182.693 254.544 182.927C254.31 183.152 254.193 183.49 254.193 183.941C254.193 184.383 254.31 184.717 254.544 184.942C254.778 185.167 255.047 185.28 255.35 185.28ZM260.212 191.156C259.822 191.156 259.467 191.069 259.146 190.896C258.834 190.714 258.587 190.463 258.405 190.142C258.223 189.813 258.132 189.423 258.132 188.972C258.132 188.521 258.223 188.136 258.405 187.815C258.596 187.486 258.847 187.234 259.159 187.061C259.471 186.879 259.822 186.788 260.212 186.788C260.602 186.788 260.953 186.879 261.265 187.061C261.577 187.234 261.824 187.486 262.006 187.815C262.188 188.136 262.279 188.521 262.279 188.972C262.279 189.423 262.188 189.813 262.006 190.142C261.824 190.463 261.577 190.714 261.265 190.896C260.953 191.069 260.602 191.156 260.212 191.156ZM260.199 190.311C260.511 190.311 260.78 190.198 261.005 189.973C261.239 189.748 261.356 189.414 261.356 188.972C261.356 188.521 261.243 188.183 261.018 187.958C260.793 187.733 260.524 187.62 260.212 187.62C259.909 187.62 259.64 187.733 259.406 187.958C259.172 188.183 259.055 188.521 259.055 188.972C259.055 189.414 259.168 189.748 259.393 189.973C259.627 190.198 259.896 190.311 260.199 190.311Z" fill="black"/>
<path d="M45.083 225V223.05H40.468V222.205L44.888 215.9H46.162V222.088H47.514V223.05H46.162V225H45.083ZM41.677 222.088H45.135V217.109L41.677 222.088ZM51.9271 225.156C51.3031 225.156 50.7614 225.043 50.3021 224.818C49.8428 224.593 49.4744 224.285 49.1971 223.895C48.9284 223.496 48.7638 223.046 48.7031 222.543H49.7691C49.8731 223.046 50.1158 223.453 50.4971 223.765C50.8784 224.068 51.3594 224.22 51.9401 224.22C52.3734 224.22 52.7461 224.12 53.0581 223.921C53.3701 223.713 53.6084 223.436 53.7731 223.089C53.9464 222.742 54.0331 222.357 54.0331 221.932C54.0331 221.256 53.8424 220.71 53.4611 220.294C53.0798 219.878 52.5858 219.67 51.9791 219.67C51.4764 219.67 51.0474 219.783 50.6921 220.008C50.3368 220.233 50.0768 220.528 49.9121 220.892H48.8721L49.6521 215.9H54.4231V216.849H50.4971L49.9641 219.618C50.1721 219.367 50.4581 219.159 50.8221 218.994C51.1948 218.829 51.6194 218.747 52.0961 218.747C52.6941 218.747 53.2141 218.886 53.6561 219.163C54.1068 219.44 54.4578 219.817 54.7091 220.294C54.9604 220.771 55.0861 221.312 55.0861 221.919C55.0861 222.5 54.9604 223.037 54.7091 223.531C54.4664 224.025 54.1068 224.419 53.6301 224.714C53.1621 225.009 52.5944 225.156 51.9271 225.156ZM56.5981 221.685V220.762H61.7461V221.685H56.5981ZM66.5521 225.156C65.9281 225.156 65.3864 225.043 64.9271 224.818C64.4678 224.593 64.0994 224.285 63.8221 223.895C63.5534 223.496 63.3888 223.046 63.3281 222.543H64.3941C64.4981 223.046 64.7408 223.453 65.1221 223.765C65.5034 224.068 65.9844 224.22 66.5651 224.22C66.9984 224.22 67.3711 224.12 67.6831 223.921C67.9951 223.713 68.2334 223.436 68.3981 223.089C68.5714 222.742 68.6581 222.357 68.6581 221.932C68.6581 221.256 68.4674 220.71 68.0861 220.294C67.7048 219.878 67.2108 219.67 66.6041 219.67C66.1014 219.67 65.6724 219.783 65.3171 220.008C64.9618 220.233 64.7018 220.528 64.5371 220.892H63.4971L64.2771 215.9H69.0481V216.849H65.1221L64.5891 219.618C64.7971 219.367 65.0831 219.159 65.4471 218.994C65.8198 218.829 66.2444 218.747 66.7211 218.747C67.3191 218.747 67.8391 218.886 68.2811 219.163C68.7318 219.44 69.0828 219.817 69.3341 220.294C69.5854 220.771 69.7111 221.312 69.7111 221.919C69.7111 222.5 69.5854 223.037 69.3341 223.531C69.0914 224.025 68.7318 224.419 68.2551 224.714C67.7871 225.009 67.2194 225.156 66.5521 225.156ZM75.5391 225V223.05H70.9241V222.205L75.3441 215.9H76.6181V222.088H77.9701V223.05H76.6181V225H75.5391ZM72.1331 222.088H75.5911V217.109L72.1331 222.088Z" fill="#282828"/>
<path d="M249.247 225.156C248.441 225.156 247.744 224.961 247.154 224.571C246.574 224.172 246.127 223.622 245.815 222.92C245.503 222.209 245.347 221.386 245.347 220.45C245.347 219.514 245.503 218.695 245.815 217.993C246.127 217.282 246.574 216.732 247.154 216.342C247.744 215.943 248.441 215.744 249.247 215.744C250.053 215.744 250.747 215.943 251.327 216.342C251.908 216.732 252.354 217.282 252.666 217.993C252.978 218.695 253.134 219.514 253.134 220.45C253.134 221.386 252.978 222.209 252.666 222.92C252.354 223.622 251.908 224.172 251.327 224.571C250.747 224.961 250.053 225.156 249.247 225.156ZM249.247 224.194C249.776 224.194 250.248 224.047 250.664 223.752C251.089 223.449 251.418 223.02 251.652 222.465C251.895 221.902 252.016 221.23 252.016 220.45C252.016 219.67 251.895 219.003 251.652 218.448C251.418 217.893 251.089 217.469 250.664 217.174C250.248 216.871 249.776 216.719 249.247 216.719C248.71 216.719 248.233 216.871 247.817 217.174C247.401 217.469 247.072 217.893 246.829 218.448C246.587 219.003 246.465 219.67 246.465 220.45C246.465 221.23 246.587 221.902 246.829 222.465C247.072 223.02 247.401 223.449 247.817 223.752C248.233 224.047 248.71 224.194 249.247 224.194ZM256.35 220.125C255.96 220.125 255.605 220.038 255.284 219.865C254.972 219.683 254.725 219.432 254.543 219.111C254.361 218.782 254.27 218.392 254.27 217.941C254.27 217.49 254.361 217.105 254.543 216.784C254.734 216.455 254.985 216.203 255.297 216.03C255.618 215.848 255.973 215.757 256.363 215.757C256.753 215.757 257.104 215.848 257.416 216.03C257.728 216.203 257.975 216.455 258.157 216.784C258.339 217.105 258.43 217.49 258.43 217.941C258.43 218.392 258.335 218.782 258.144 219.111C257.962 219.432 257.715 219.683 257.403 219.865C257.091 220.038 256.74 220.125 256.35 220.125ZM255.544 225L260.835 215.9H261.927L256.636 225H255.544ZM256.35 219.28C256.653 219.28 256.918 219.167 257.143 218.942C257.377 218.717 257.494 218.383 257.494 217.941C257.494 217.49 257.381 217.152 257.156 216.927C256.931 216.693 256.666 216.576 256.363 216.576C256.06 216.576 255.787 216.693 255.544 216.927C255.31 217.152 255.193 217.49 255.193 217.941C255.193 218.383 255.31 218.717 255.544 218.942C255.778 219.167 256.047 219.28 256.35 219.28ZM261.212 225.156C260.822 225.156 260.467 225.069 260.146 224.896C259.834 224.714 259.587 224.463 259.405 224.142C259.223 223.813 259.132 223.423 259.132 222.972C259.132 222.521 259.223 222.136 259.405 221.815C259.596 221.486 259.847 221.234 260.159 221.061C260.471 220.879 260.822 220.788 261.212 220.788C261.602 220.788 261.953 220.879 262.265 221.061C262.577 221.234 262.824 221.486 263.006 221.815C263.188 222.136 263.279 222.521 263.279 222.972C263.279 223.423 263.188 223.813 263.006 224.142C262.824 224.463 262.577 224.714 262.265 224.896C261.953 225.069 261.602 225.156 261.212 225.156ZM261.199 224.311C261.511 224.311 261.78 224.198 262.005 223.973C262.239 223.748 262.356 223.414 262.356 222.972C262.356 222.521 262.243 222.183 262.018 221.958C261.793 221.733 261.524 221.62 261.212 221.62C260.909 221.62 260.64 221.733 260.406 221.958C260.172 222.183 260.055 222.521 260.055 222.972C260.055 223.414 260.168 223.748 260.393 223.973C260.627 224.198 260.896 224.311 261.199 224.311Z" fill="black"/>
</svg>
