<svg width="100" height="48" viewBox="0 0 100 48" fill="none" xmlns="http://www.w3.org/2000/svg">
<path d="M18.3396 1.26143C16.8043 2.50624 16.6799 2.96272 16.4309 10.9709C16.3063 14.2904 16.0159 17.5684 15.8085 18.2323C15.6425 18.9378 15.2276 20.5145 14.9786 21.7593C14.2731 24.8714 13.8166 26.1162 12.323 29.1038C11.576 30.5561 10.8292 31.6348 10.5802 31.5934C10.0822 31.4273 8.83738 28.2322 8.04904 25.0788C7.71717 23.834 7.34377 19.5187 7.17763 15.5353C6.92883 8.73031 6.84576 8.27384 5.97435 7.36089C4.77107 6.15761 4.0656 6.15762 2.69638 7.31956C1.32717 8.56438 0.787629 11.5933 0.746094 18.3567C0.746094 25.1204 0.995098 27.0704 2.40584 32.5477C3.44319 36.614 6.84576 40.0997 10.1653 40.5977C13.8166 41.0953 18.5056 37.3195 21.2442 31.6348C24.2316 25.4107 25.4349 18.9792 25.269 10.3901C25.103 4.45633 25.02 3.95853 24.0657 2.54778C22.489 0.224087 20.2897 -0.273926 18.3396 1.26143Z" fill="black"/>
<path d="M67.385 4.53937C61.0361 12.1327 60.2062 14.1245 62.4884 15.9086C63.4844 16.697 63.5257 16.8631 63.0695 18.2323C61.9908 21.4688 63.7749 23.834 67.2602 23.834C69.7915 23.834 70.7045 23.4606 74.5215 20.971C78.256 18.4813 79.4181 17.1534 79.0032 15.8671C78.6709 14.7053 78.0903 14.2904 76.8454 14.2904C75.8912 14.2904 72.9449 15.5768 70.7458 16.9875C69.7085 17.6515 69.7915 17.444 71.2851 15.9502C74.3971 12.7137 74.8538 10.8878 72.9449 9.22808C72.3225 8.73028 71.7001 8.52281 71.0363 8.68875C70.2065 8.89622 70.3309 8.56435 72.1567 6.15759C74.3972 3.17016 74.729 1.96667 73.526 0.887999C71.9906 -0.522957 71.1607 -0.0249481 67.385 4.53937Z" fill="black"/>
<path d="M54.1498 5.99142C53.5274 6.65536 53.403 7.4437 53.4861 9.85026C53.5274 11.4687 53.6105 13.2113 53.6518 13.6262C53.7349 14.4146 51.5771 16.033 50.9547 15.6594C50.7472 15.5765 50.6228 14.7882 50.6228 13.9583C50.6228 10.0577 48.9631 7.77557 46.9299 8.89598C45.3946 9.68432 45.1456 11.1781 45.4361 17.6097C45.602 22.0496 45.5605 23.4188 45.2286 22.8795C44.4403 21.6347 42.49 22.0081 40.5399 23.7507C37.7598 26.2818 34.0253 29.2279 33.6104 29.2279C33.0295 29.2279 33.1124 25.203 33.7763 22.7964C34.0668 21.6347 34.7308 19.8918 35.2286 18.9376L36.1415 17.1117L37.5107 18.6886C38.7556 20.0993 38.9215 20.1824 39.8344 19.6844C41.2452 18.9376 41.4942 18.4811 41.4942 16.6139C41.4942 12.423 37.013 9.97486 33.4029 12.2155C28.8801 15.037 25.6022 27.1532 28.0502 32.2569C29.5025 35.2859 33.8594 36.4063 36.9299 34.5808C38.714 33.5017 42.7805 29.2279 44.4403 26.7798C45.5192 25.0786 45.6436 24.9955 45.7267 25.95C45.9341 29.1866 46.4319 30.8046 47.4277 31.7176C49.1292 33.336 51.1208 32.423 51.5358 29.8503C51.6602 29.1449 51.6602 26.8627 51.494 24.7467L51.2452 20.8461L52.6562 20.2652C53.4443 19.9334 54.1498 19.7259 54.2329 19.8088C54.2742 19.8918 54.3986 20.8048 54.3986 21.8006C54.4404 22.7964 54.8135 24.5806 55.2702 25.7425C56.1001 28.0662 57.0131 28.6469 58.7555 27.9831C60.042 27.4851 60.2908 25.8669 60.042 19.3938C59.7928 12.7548 58.7972 7.40216 57.5937 6.11582C56.4733 4.95407 55.1458 4.91254 54.1498 5.99142Z" fill="black"/>
<path d="M92.7785 19.6017C91.866 20.6807 91.3263 22.9629 91.5337 25.1203C91.6585 26.4068 91.5337 26.8218 90.9531 27.0292C90.5795 27.1536 89.6252 27.7347 88.8784 28.274C88.1316 28.8547 87.4261 29.2283 87.3017 29.1039C87.2186 29.0208 86.845 27.4442 86.5131 25.66C85.6419 21.1783 85.5589 20.9295 84.3554 20.4733C82.82 19.8922 81.9075 20.3485 81.119 22.05C80.4135 23.5022 80.4135 23.8341 81.119 28.4815C81.4926 31.1786 81.7414 33.9588 81.617 34.7056C81.4926 35.5768 81.6583 36.5311 82.1563 37.3196C82.5712 37.9834 83.0275 39.4774 83.1936 40.6391C83.5255 43.0457 84.729 44.5811 86.2643 44.5811C88.0485 44.5811 88.5465 43.2532 88.4634 38.9794L88.339 35.2449L89.9157 33.917C90.7869 33.1702 91.6168 32.5478 91.7412 32.5478C91.866 32.5478 92.1148 33.419 92.2809 34.4564C92.9034 39.1455 96.7205 42.2576 98.7538 39.8093C99.1274 39.353 99.1274 37.9834 98.7125 33.834C98.2558 29.3114 98.2976 28.191 98.7538 26.6974C99.2932 25.0789 99.2931 24.9128 98.505 24.2904C98.0483 23.9172 97.509 22.8798 97.3846 21.9669C97.0527 20.0583 96.4717 19.3942 94.8119 19.0208C93.8576 18.8548 93.3596 18.9792 92.7785 19.6017Z" fill="black"/>
<path d="M67.4286 26.1992C64.9389 26.5311 63.7772 27.2779 62.2418 29.6844C61.1214 31.4273 60.5821 32.8795 60.1671 35.1617C59.2959 40.3902 60.2085 43.9172 63.1548 46.4068C64.6484 47.7342 65.1464 47.9004 67.0967 47.9004C70.0013 47.9004 71.7441 47.1118 74.0676 44.7884C76.2254 42.6723 77.719 39.6847 78.4658 35.9916C78.9225 33.8338 78.8807 33.2945 78.2583 31.6347C77.1796 28.8546 75.2711 27.1948 72.3248 26.4898C69.8769 25.9087 69.6694 25.9087 67.4286 26.1992ZM70.167 32.6308C72.6566 32.4646 72.7814 35.2448 70.4993 38.8548C69.0883 41.0126 67.553 42.3401 66.8475 41.9251C66.3082 41.5519 65.5614 38.8962 65.5614 37.2364C65.5614 36.5309 65.935 35.0786 66.3912 34C67.0967 32.2989 67.3455 32.1327 68.1341 32.3815C68.6734 32.5477 69.5863 32.6721 70.167 32.6308Z" fill="black"/>
</svg>
