<svg width="244" height="134" viewBox="0 0 244 134" fill="none" xmlns="http://www.w3.org/2000/svg">
<path d="M64 133.12C99.2 133.12 127.872 106.496 127.872 66.56C127.872 26.624 99.2 0 64 0C28.8 0 0 26.624 0 66.56C0 106.496 28.8 133.12 64 133.12ZM64 2.56001C93.568 2.56001 117.632 28.16 117.632 66.56C117.632 104.96 93.568 130.56 64 130.56C34.432 130.56 10.24 104.96 10.24 66.56C10.24 28.16 34.432 2.56001 64 2.56001ZM43.264 64.64V68.736L58.24 67.584C60.928 67.328 61.44 68.48 59.392 70.144L48 80L50.944 82.944L60.8 71.552C61.568 70.784 62.08 70.272 62.592 70.272C63.232 70.272 63.488 71.168 63.36 72.704L62.208 87.68H66.304L65.152 72.704C65.024 71.168 65.28 70.272 65.92 70.272C66.304 70.272 66.944 70.656 67.712 71.552L77.568 82.944L80.512 80L69.12 70.144C67.072 68.48 67.584 67.328 70.272 67.584L85.248 68.736V64.64L70.272 65.792C67.584 66.048 67.072 65.024 69.12 63.232L80.512 53.376L77.568 50.432L67.712 61.824C66.944 62.72 66.304 63.104 65.92 63.104C65.28 63.104 65.024 62.208 65.152 60.672L66.304 45.696H62.208L63.36 60.672C63.488 62.208 63.232 63.104 62.592 63.104C62.08 63.104 61.568 62.592 60.8 61.824L50.944 50.432L48 53.376L59.392 63.232C61.44 65.024 60.928 66.048 58.24 65.792L43.264 64.64Z" fill="#1A1A1A"/>
<path d="M154.705 130.56V94.592C154.705 68.864 186.449 54.784 209.361 54.784C222.545 54.784 232.785 59.392 232.785 68.864V130.56H243.025V2.56001H232.785V58.496C223.953 53.504 212.817 50.944 201.297 50.944C183.889 50.944 165.841 56.96 154.705 69.888V2.56001H144.465V130.56H154.705Z" fill="#1A1A1A"/>
</svg>
