<svg width="309" height="252" viewBox="0 0 309 252" fill="none" xmlns="http://www.w3.org/2000/svg">
<path d="M1.184 39V27.8H2.528V39H1.184ZM12.1931 36.504C11.7451 36.504 11.3345 36.4453 10.9611 36.328L10.1611 37.08C10.2785 37.1653 10.4225 37.24 10.5931 37.304C10.7745 37.3573 11.0305 37.4107 11.3611 37.464C11.6918 37.5067 12.1558 37.5547 12.7531 37.608C13.8198 37.6827 14.5825 37.928 15.0411 38.344C15.4998 38.76 15.7291 39.304 15.7291 39.976C15.7291 40.4347 15.6011 40.872 15.3451 41.288C15.0998 41.704 14.7158 42.0453 14.1931 42.312C13.6811 42.5787 13.0198 42.712 12.2091 42.712C11.4945 42.712 10.8598 42.616 10.3051 42.424C9.75046 42.2427 9.31846 41.96 9.00912 41.576C8.69979 41.2027 8.54513 40.728 8.54513 40.152C8.54513 39.8533 8.62513 39.528 8.78513 39.176C8.94513 38.8347 9.24379 38.5093 9.68113 38.2C9.44646 38.104 9.24379 38.0027 9.07313 37.896C8.91313 37.7787 8.76379 37.6507 8.62513 37.512V37.144L9.98513 35.8C9.35579 35.2667 9.04113 34.5627 9.04113 33.688C9.04113 33.1653 9.16379 32.6907 9.40913 32.264C9.65446 31.8373 10.0118 31.5013 10.4811 31.256C10.9505 31 11.5211 30.872 12.1931 30.872C12.6518 30.872 13.0678 30.936 13.4411 31.064H16.3691V32.072L14.8811 32.136C15.1905 32.584 15.3451 33.1013 15.3451 33.688C15.3451 34.2107 15.2171 34.6853 14.9611 35.112C14.7158 35.5387 14.3585 35.88 13.8891 36.136C13.4305 36.3813 12.8651 36.504 12.1931 36.504ZM12.1931 35.4C12.7585 35.4 13.2065 35.256 13.5371 34.968C13.8785 34.6693 14.0491 34.2427 14.0491 33.688C14.0491 33.144 13.8785 32.728 13.5371 32.44C13.2065 32.1413 12.7585 31.992 12.1931 31.992C11.6171 31.992 11.1585 32.1413 10.8171 32.44C10.4865 32.728 10.3211 33.144 10.3211 33.688C10.3211 34.2427 10.4865 34.6693 10.8171 34.968C11.1585 35.256 11.6171 35.4 12.1931 35.4ZM9.85713 40.024C9.85713 40.5573 10.0811 40.952 10.5291 41.208C10.9771 41.4747 11.5371 41.608 12.2091 41.608C12.8705 41.608 13.3985 41.464 13.7931 41.176C14.1985 40.888 14.4011 40.504 14.4011 40.024C14.4011 39.6827 14.2625 39.384 13.9851 39.128C13.7078 38.8827 13.1958 38.7387 12.4491 38.696C11.8625 38.6533 11.3558 38.6 10.9291 38.536C10.4918 38.7707 10.2038 39.0213 10.0651 39.288C9.92646 39.5653 9.85713 39.8107 9.85713 40.024ZM21.1408 39.192C20.3834 39.192 19.7114 39.0213 19.1248 38.68C18.5381 38.328 18.0741 37.8427 17.7328 37.224C17.4021 36.6053 17.2368 35.8747 17.2368 35.032C17.2368 34.2 17.4021 33.4747 17.7328 32.856C18.0634 32.2267 18.5221 31.7413 19.1088 31.4C19.7061 31.048 20.3941 30.872 21.1727 30.872C21.9408 30.872 22.6021 31.048 23.1568 31.4C23.7221 31.7413 24.1541 32.1947 24.4528 32.76C24.7514 33.3253 24.9008 33.9333 24.9008 34.584C24.9008 34.7013 24.8954 34.8187 24.8848 34.936C24.8848 35.0533 24.8848 35.1867 24.8848 35.336H18.5648C18.5968 35.944 18.7354 36.4507 18.9808 36.856C19.2368 37.2507 19.5514 37.5493 19.9248 37.752C20.3088 37.9547 20.7141 38.056 21.1408 38.056C21.6954 38.056 22.1594 37.928 22.5328 37.672C22.9061 37.416 23.1781 37.0693 23.3488 36.632H24.6768C24.4634 37.368 24.0528 37.9813 23.4448 38.472C22.8474 38.952 22.0794 39.192 21.1408 39.192ZM21.1408 32.008C20.5008 32.008 19.9301 32.2053 19.4288 32.6C18.9381 32.984 18.6554 33.5493 18.5807 34.296H23.5728C23.5408 33.5813 23.2954 33.0213 22.8368 32.616C22.3781 32.2107 21.8128 32.008 21.1408 32.008ZM29.5525 39C28.8272 39 28.2565 38.824 27.8405 38.472C27.4245 38.12 27.2165 37.4853 27.2165 36.568V32.2H25.8405V31.064H27.2165L27.3925 29.16H28.5605V31.064H30.8965V32.2H28.5605V36.568C28.5605 37.0693 28.6618 37.4107 28.8645 37.592C29.0672 37.7627 29.4245 37.848 29.9365 37.848H30.7685V39H29.5525ZM36.8384 42.52V31.064H38.0544L38.1824 32.376C38.4384 31.992 38.801 31.6453 39.2704 31.336C39.7504 31.0267 40.3584 30.872 41.0944 30.872C41.8837 30.872 42.5717 31.0533 43.1584 31.416C43.745 31.7787 44.1984 32.2747 44.5184 32.904C44.849 33.5333 45.0144 34.248 45.0144 35.048C45.0144 35.848 44.849 36.5627 44.5184 37.192C44.1984 37.8107 43.7397 38.3013 43.1424 38.664C42.5557 39.016 41.8677 39.192 41.0784 39.192C40.4277 39.192 39.8464 39.0587 39.3344 38.792C38.833 38.5253 38.449 38.152 38.1824 37.672V42.52H36.8384ZM40.9344 38.024C41.4677 38.024 41.937 37.9013 42.3424 37.656C42.7477 37.4 43.0677 37.048 43.3024 36.6C43.537 36.152 43.6544 35.6293 43.6544 35.032C43.6544 34.4347 43.537 33.912 43.3024 33.464C43.0677 33.016 42.7477 32.6693 42.3424 32.424C41.937 32.168 41.4677 32.04 40.9344 32.04C40.401 32.04 39.9317 32.168 39.5264 32.424C39.121 32.6693 38.801 33.016 38.5664 33.464C38.3317 33.912 38.2144 34.4347 38.2144 35.032C38.2144 35.6293 38.3317 36.152 38.5664 36.6C38.801 37.048 39.121 37.4 39.5264 37.656C39.9317 37.9013 40.401 38.024 40.9344 38.024ZM49.5253 39.192C48.8639 39.192 48.3146 39.08 47.8773 38.856C47.4399 38.632 47.1146 38.3333 46.9013 37.96C46.6879 37.5867 46.5813 37.1813 46.5813 36.744C46.5813 35.9333 46.8906 35.3093 47.5093 34.872C48.1279 34.4347 48.9706 34.216 50.0373 34.216H52.1813V34.12C52.1813 33.4267 51.9999 32.904 51.6373 32.552C51.2746 32.1893 50.7893 32.008 50.1813 32.008C49.6586 32.008 49.2053 32.1413 48.8213 32.408C48.4479 32.664 48.2133 33.0427 48.1173 33.544H46.7413C46.7946 32.968 46.9866 32.4827 47.3173 32.088C47.6586 31.6933 48.0799 31.3947 48.5813 31.192C49.0826 30.9787 49.6159 30.872 50.1813 30.872C51.2906 30.872 52.1226 31.1707 52.6773 31.768C53.2426 32.3547 53.5253 33.1387 53.5253 34.12V39H52.3253L52.2453 37.576C52.0213 38.024 51.6906 38.408 51.2533 38.728C50.8266 39.0373 50.2506 39.192 49.5253 39.192ZM49.7333 38.056C50.2453 38.056 50.6826 37.9227 51.0453 37.656C51.4186 37.3893 51.7013 37.0427 51.8933 36.616C52.0853 36.1893 52.1813 35.7413 52.1813 35.272V35.256H50.1493C49.3599 35.256 48.7999 35.3947 48.4693 35.672C48.1493 35.9387 47.9893 36.2747 47.9893 36.68C47.9893 37.096 48.1386 37.432 48.4373 37.688C48.7466 37.9333 49.1786 38.056 49.7333 38.056ZM58.6775 36.504C58.2295 36.504 57.8188 36.4453 57.4455 36.328L56.6455 37.08C56.7628 37.1653 56.9068 37.24 57.0775 37.304C57.2588 37.3573 57.5148 37.4107 57.8455 37.464C58.1762 37.5067 58.6402 37.5547 59.2375 37.608C60.3042 37.6827 61.0668 37.928 61.5255 38.344C61.9842 38.76 62.2135 39.304 62.2135 39.976C62.2135 40.4347 62.0855 40.872 61.8295 41.288C61.5842 41.704 61.2002 42.0453 60.6775 42.312C60.1655 42.5787 59.5042 42.712 58.6935 42.712C57.9788 42.712 57.3442 42.616 56.7895 42.424C56.2348 42.2427 55.8028 41.96 55.4935 41.576C55.1842 41.2027 55.0295 40.728 55.0295 40.152C55.0295 39.8533 55.1095 39.528 55.2695 39.176C55.4295 38.8347 55.7282 38.5093 56.1655 38.2C55.9308 38.104 55.7282 38.0027 55.5575 37.896C55.3975 37.7787 55.2482 37.6507 55.1095 37.512V37.144L56.4695 35.8C55.8402 35.2667 55.5255 34.5627 55.5255 33.688C55.5255 33.1653 55.6482 32.6907 55.8935 32.264C56.1388 31.8373 56.4962 31.5013 56.9655 31.256C57.4348 31 58.0055 30.872 58.6775 30.872C59.1362 30.872 59.5522 30.936 59.9255 31.064H62.8535V32.072L61.3655 32.136C61.6748 32.584 61.8295 33.1013 61.8295 33.688C61.8295 34.2107 61.7015 34.6853 61.4455 35.112C61.2002 35.5387 60.8428 35.88 60.3735 36.136C59.9148 36.3813 59.3495 36.504 58.6775 36.504ZM58.6775 35.4C59.2428 35.4 59.6908 35.256 60.0215 34.968C60.3628 34.6693 60.5335 34.2427 60.5335 33.688C60.5335 33.144 60.3628 32.728 60.0215 32.44C59.6908 32.1413 59.2428 31.992 58.6775 31.992C58.1015 31.992 57.6428 32.1413 57.3015 32.44C56.9708 32.728 56.8055 33.144 56.8055 33.688C56.8055 34.2427 56.9708 34.6693 57.3015 34.968C57.6428 35.256 58.1015 35.4 58.6775 35.4ZM56.3415 40.024C56.3415 40.5573 56.5655 40.952 57.0135 41.208C57.4615 41.4747 58.0215 41.608 58.6935 41.608C59.3548 41.608 59.8828 41.464 60.2775 41.176C60.6828 40.888 60.8855 40.504 60.8855 40.024C60.8855 39.6827 60.7468 39.384 60.4695 39.128C60.1922 38.8827 59.6802 38.7387 58.9335 38.696C58.3468 38.6533 57.8402 38.6 57.4135 38.536C56.9762 38.7707 56.6882 39.0213 56.5495 39.288C56.4108 39.5653 56.3415 39.8107 56.3415 40.024ZM67.6251 39.192C66.8678 39.192 66.1958 39.0213 65.6091 38.68C65.0225 38.328 64.5585 37.8427 64.2171 37.224C63.8865 36.6053 63.7211 35.8747 63.7211 35.032C63.7211 34.2 63.8865 33.4747 64.2171 32.856C64.5478 32.2267 65.0065 31.7413 65.5931 31.4C66.1905 31.048 66.8785 30.872 67.6571 30.872C68.4251 30.872 69.0865 31.048 69.6411 31.4C70.2065 31.7413 70.6385 32.1947 70.9371 32.76C71.2358 33.3253 71.3851 33.9333 71.3851 34.584C71.3851 34.7013 71.3798 34.8187 71.3691 34.936C71.3691 35.0533 71.3691 35.1867 71.3691 35.336H65.0491C65.0811 35.944 65.2198 36.4507 65.4651 36.856C65.7211 37.2507 66.0358 37.5493 66.4091 37.752C66.7931 37.9547 67.1985 38.056 67.6251 38.056C68.1798 38.056 68.6438 37.928 69.0171 37.672C69.3905 37.416 69.6625 37.0693 69.8331 36.632H71.1611C70.9478 37.368 70.5371 37.9813 69.9291 38.472C69.3318 38.952 68.5638 39.192 67.6251 39.192ZM67.6251 32.008C66.9851 32.008 66.4145 32.2053 65.9131 32.6C65.4225 32.984 65.1398 33.5493 65.0651 34.296H70.0571C70.0251 33.5813 69.7798 33.0213 69.3211 32.616C68.8625 32.2107 68.2971 32.008 67.6251 32.008ZM76.7665 39.192C75.9772 39.192 75.2838 39.0107 74.6865 38.648C74.0998 38.2853 73.6412 37.7893 73.3105 37.16C72.9905 36.5307 72.8305 35.816 72.8305 35.016C72.8305 34.216 72.9958 33.5067 73.3265 32.888C73.6572 32.2587 74.1158 31.768 74.7025 31.416C75.2892 31.0533 75.9825 30.872 76.7825 30.872C77.4332 30.872 78.0092 31.0053 78.5105 31.272C79.0118 31.5387 79.4012 31.912 79.6785 32.392V27.48H81.0225V39H79.8065L79.6785 37.688C79.4225 38.072 79.0545 38.4187 78.5745 38.728C78.0945 39.0373 77.4918 39.192 76.7665 39.192ZM76.9105 38.024C77.4438 38.024 77.9132 37.9013 78.3185 37.656C78.7345 37.4 79.0545 37.048 79.2785 36.6C79.5132 36.152 79.6305 35.6293 79.6305 35.032C79.6305 34.4347 79.5132 33.912 79.2785 33.464C79.0545 33.016 78.7345 32.6693 78.3185 32.424C77.9132 32.168 77.4438 32.04 76.9105 32.04C76.3878 32.04 75.9185 32.168 75.5025 32.424C75.0972 32.6693 74.7772 33.016 74.5425 33.464C74.3185 33.912 74.2065 34.4347 74.2065 35.032C74.2065 35.6293 74.3185 36.152 74.5425 36.6C74.7772 37.048 75.0972 37.4 75.5025 37.656C75.9185 37.9013 76.3878 38.024 76.9105 38.024ZM87.8798 39V32.2H86.6798V31.064H87.8798V29.688C87.8798 28.92 88.0718 28.36 88.4557 28.008C88.8398 27.656 89.3998 27.48 90.1358 27.48H90.9358V28.632H90.3438C89.9384 28.632 89.6504 28.7173 89.4798 28.888C89.3091 29.048 89.2238 29.3253 89.2238 29.72V31.064H91.1758V32.2H89.2238V39H87.8798ZM96.0794 39.192C95.3327 39.192 94.6607 39.0213 94.0634 38.68C93.466 38.3387 92.9914 37.8587 92.6394 37.24C92.298 36.6107 92.1274 35.8747 92.1274 35.032C92.1274 34.1893 92.3034 33.4587 92.6554 32.84C93.0074 32.2107 93.482 31.7253 94.0794 31.384C94.6874 31.0427 95.3647 30.872 96.1114 30.872C96.858 30.872 97.53 31.0427 98.1274 31.384C98.7247 31.7253 99.194 32.2107 99.5354 32.84C99.8874 33.4587 100.063 34.1893 100.063 35.032C100.063 35.8747 99.8874 36.6107 99.5354 37.24C99.1834 37.8587 98.7034 38.3387 98.0954 38.68C97.498 39.0213 96.826 39.192 96.0794 39.192ZM96.0794 38.04C96.538 38.04 96.9647 37.928 97.3594 37.704C97.754 37.48 98.074 37.144 98.3194 36.696C98.5647 36.248 98.6874 35.6933 98.6874 35.032C98.6874 34.3707 98.5647 33.816 98.3194 33.368C98.0847 32.92 97.77 32.584 97.3754 32.36C96.9807 32.136 96.5594 32.024 96.1114 32.024C95.6527 32.024 95.226 32.136 94.8314 32.36C94.4367 32.584 94.1167 32.92 93.8714 33.368C93.626 33.816 93.5034 34.3707 93.5034 35.032C93.5034 35.6933 93.626 36.248 93.8714 36.696C94.1167 37.144 94.4314 37.48 94.8154 37.704C95.21 37.928 95.6314 38.04 96.0794 38.04ZM101.932 39V31.064H103.148L103.26 32.584C103.505 32.0613 103.879 31.6453 104.38 31.336C104.881 31.0267 105.5 30.872 106.236 30.872V32.28H105.868C105.399 32.28 104.967 32.3653 104.572 32.536C104.177 32.696 103.863 32.9733 103.628 33.368C103.393 33.7627 103.276 34.3067 103.276 35V39H101.932ZM114.619 39.192C113.958 39.192 113.408 39.08 112.971 38.856C112.534 38.632 112.208 38.3333 111.995 37.96C111.782 37.5867 111.675 37.1813 111.675 36.744C111.675 35.9333 111.984 35.3093 112.603 34.872C113.222 34.4347 114.064 34.216 115.131 34.216H117.275V34.12C117.275 33.4267 117.094 32.904 116.731 32.552C116.368 32.1893 115.883 32.008 115.275 32.008C114.752 32.008 114.299 32.1413 113.915 32.408C113.542 32.664 113.307 33.0427 113.211 33.544H111.835C111.888 32.968 112.08 32.4827 112.411 32.088C112.752 31.6933 113.174 31.3947 113.675 31.192C114.176 30.9787 114.71 30.872 115.275 30.872C116.384 30.872 117.216 31.1707 117.771 31.768C118.336 32.3547 118.619 33.1387 118.619 34.12V39H117.419L117.339 37.576C117.115 38.024 116.784 38.408 116.347 38.728C115.92 39.0373 115.344 39.192 114.619 39.192ZM114.827 38.056C115.339 38.056 115.776 37.9227 116.139 37.656C116.512 37.3893 116.795 37.0427 116.987 36.616C117.179 36.1893 117.275 35.7413 117.275 35.272V35.256H115.243C114.454 35.256 113.894 35.3947 113.563 35.672C113.243 35.9387 113.083 36.2747 113.083 36.68C113.083 37.096 113.232 37.432 113.531 37.688C113.84 37.9333 114.272 38.056 114.827 38.056ZM120.635 39V31.064H121.851L121.931 32.488C122.187 31.9867 122.555 31.592 123.035 31.304C123.515 31.016 124.059 30.872 124.667 30.872C125.606 30.872 126.353 31.16 126.907 31.736C127.473 32.3013 127.755 33.176 127.755 34.36V39H126.411V34.504C126.411 32.8507 125.729 32.024 124.363 32.024C123.681 32.024 123.11 32.2747 122.651 32.776C122.203 33.2667 121.979 33.9707 121.979 34.888V39H120.635ZM134.842 29.304C134.575 29.304 134.351 29.2187 134.17 29.048C133.999 28.8667 133.914 28.6427 133.914 28.376C133.914 28.12 133.999 27.9067 134.17 27.736C134.351 27.5653 134.575 27.48 134.842 27.48C135.098 27.48 135.317 27.5653 135.498 27.736C135.679 27.9067 135.77 28.12 135.77 28.376C135.77 28.6427 135.679 28.8667 135.498 29.048C135.317 29.2187 135.098 29.304 134.842 29.304ZM134.17 39V31.064H135.514V39H134.17ZM137.854 39V31.064H139.07L139.15 32.488C139.406 31.9867 139.774 31.592 140.254 31.304C140.734 31.016 141.278 30.872 141.886 30.872C142.825 30.872 143.571 31.16 144.126 31.736C144.691 32.3013 144.974 33.176 144.974 34.36V39H143.63V34.504C143.63 32.8507 142.947 32.024 141.582 32.024C140.899 32.024 140.329 32.2747 139.87 32.776C139.422 33.2667 139.198 33.9707 139.198 34.888V39H137.854ZM150.658 39.192C149.901 39.192 149.218 39.0213 148.61 38.68C148.013 38.328 147.538 37.8427 147.186 37.224C146.845 36.5947 146.674 35.864 146.674 35.032C146.674 34.2 146.845 33.4747 147.186 32.856C147.538 32.2267 148.013 31.7413 148.61 31.4C149.218 31.048 149.901 30.872 150.658 30.872C151.597 30.872 152.386 31.1173 153.026 31.608C153.677 32.0987 154.088 32.7547 154.258 33.576H152.882C152.776 33.0853 152.514 32.7067 152.098 32.44C151.682 32.1627 151.197 32.024 150.642 32.024C150.194 32.024 149.773 32.136 149.378 32.36C148.984 32.584 148.664 32.92 148.418 33.368C148.173 33.816 148.05 34.3707 148.05 35.032C148.05 35.6933 148.173 36.248 148.418 36.696C148.664 37.144 148.984 37.4853 149.378 37.72C149.773 37.944 150.194 38.056 150.642 38.056C151.197 38.056 151.682 37.9227 152.098 37.656C152.514 37.3787 152.776 36.9893 152.882 36.488H154.258C154.098 37.288 153.693 37.9387 153.042 38.44C152.392 38.9413 151.597 39.192 150.658 39.192ZM156.951 29.304C156.685 29.304 156.461 29.2187 156.279 29.048C156.109 28.8667 156.023 28.6427 156.023 28.376C156.023 28.12 156.109 27.9067 156.279 27.736C156.461 27.5653 156.685 27.48 156.951 27.48C157.207 27.48 157.426 27.5653 157.607 27.736C157.789 27.9067 157.879 28.12 157.879 28.376C157.879 28.6427 157.789 28.8667 157.607 29.048C157.426 29.2187 157.207 29.304 156.951 29.304ZM156.279 39V31.064H157.623V39H156.279ZM163.563 39.192C162.774 39.192 162.081 39.0107 161.483 38.648C160.897 38.2853 160.438 37.7893 160.107 37.16C159.787 36.5307 159.627 35.816 159.627 35.016C159.627 34.216 159.793 33.5067 160.123 32.888C160.454 32.2587 160.913 31.768 161.499 31.416C162.086 31.0533 162.779 30.872 163.579 30.872C164.23 30.872 164.806 31.0053 165.307 31.272C165.809 31.5387 166.198 31.912 166.475 32.392V27.48H167.819V39H166.603L166.475 37.688C166.219 38.072 165.851 38.4187 165.371 38.728C164.891 39.0373 164.289 39.192 163.563 39.192ZM163.707 38.024C164.241 38.024 164.71 37.9013 165.115 37.656C165.531 37.4 165.851 37.048 166.075 36.6C166.31 36.152 166.427 35.6293 166.427 35.032C166.427 34.4347 166.31 33.912 166.075 33.464C165.851 33.016 165.531 32.6693 165.115 32.424C164.71 32.168 164.241 32.04 163.707 32.04C163.185 32.04 162.715 32.168 162.299 32.424C161.894 32.6693 161.574 33.016 161.339 33.464C161.115 33.912 161.003 34.4347 161.003 35.032C161.003 35.6293 161.115 36.152 161.339 36.6C161.574 37.048 161.894 37.4 162.299 37.656C162.715 37.9013 163.185 38.024 163.707 38.024ZM173.578 39.192C172.821 39.192 172.149 39.0213 171.562 38.68C170.976 38.328 170.512 37.8427 170.17 37.224C169.84 36.6053 169.674 35.8747 169.674 35.032C169.674 34.2 169.84 33.4747 170.17 32.856C170.501 32.2267 170.96 31.7413 171.546 31.4C172.144 31.048 172.832 30.872 173.61 30.872C174.378 30.872 175.04 31.048 175.594 31.4C176.16 31.7413 176.592 32.1947 176.89 32.76C177.189 33.3253 177.338 33.9333 177.338 34.584C177.338 34.7013 177.333 34.8187 177.322 34.936C177.322 35.0533 177.322 35.1867 177.322 35.336H171.002C171.034 35.944 171.173 36.4507 171.418 36.856C171.674 37.2507 171.989 37.5493 172.362 37.752C172.746 37.9547 173.152 38.056 173.578 38.056C174.133 38.056 174.597 37.928 174.97 37.672C175.344 37.416 175.616 37.0693 175.786 36.632H177.114C176.901 37.368 176.49 37.9813 175.882 38.472C175.285 38.952 174.517 39.192 173.578 39.192ZM173.578 32.008C172.938 32.008 172.368 32.2053 171.866 32.6C171.376 32.984 171.093 33.5493 171.018 34.296H176.01C175.978 33.5813 175.733 33.0213 175.274 32.616C174.816 32.2107 174.25 32.008 173.578 32.008ZM179.12 39V31.064H180.336L180.416 32.488C180.672 31.9867 181.04 31.592 181.52 31.304C182 31.016 182.544 30.872 183.152 30.872C184.09 30.872 184.837 31.16 185.392 31.736C185.957 32.3013 186.24 33.176 186.24 34.36V39H184.896V34.504C184.896 32.8507 184.213 32.024 182.848 32.024C182.165 32.024 181.594 32.2747 181.136 32.776C180.688 33.2667 180.464 33.9707 180.464 34.888V39H179.12ZM191.412 39C190.687 39 190.116 38.824 189.7 38.472C189.284 38.12 189.076 37.4853 189.076 36.568V32.2H187.7V31.064H189.076L189.252 29.16H190.42V31.064H192.756V32.2H190.42V36.568C190.42 37.0693 190.521 37.4107 190.724 37.592C190.927 37.7627 191.284 37.848 191.796 37.848H192.628V39H191.412ZM198.778 39V27.8H200.122V39H198.778ZM202.113 30.072L201.905 26.92H203.233L203.041 30.072H202.113ZM207.22 39L204.212 31.064H205.62L208.004 37.704L210.404 31.064H211.78L208.772 39H207.22ZM216.438 39.192C215.68 39.192 215.008 39.0213 214.422 38.68C213.835 38.328 213.371 37.8427 213.03 37.224C212.699 36.6053 212.534 35.8747 212.534 35.032C212.534 34.2 212.699 33.4747 213.03 32.856C213.36 32.2267 213.819 31.7413 214.406 31.4C215.003 31.048 215.691 30.872 216.47 30.872C217.238 30.872 217.899 31.048 218.454 31.4C219.019 31.7413 219.451 32.1947 219.75 32.76C220.048 33.3253 220.198 33.9333 220.198 34.584C220.198 34.7013 220.192 34.8187 220.182 34.936C220.182 35.0533 220.182 35.1867 220.182 35.336H213.862C213.894 35.944 214.032 36.4507 214.278 36.856C214.534 37.2507 214.848 37.5493 215.222 37.752C215.606 37.9547 216.011 38.056 216.438 38.056C216.992 38.056 217.456 37.928 217.83 37.672C218.203 37.416 218.475 37.0693 218.646 36.632H219.974C219.76 37.368 219.35 37.9813 218.742 38.472C218.144 38.952 217.376 39.192 216.438 39.192ZM216.438 32.008C215.798 32.008 215.227 32.2053 214.726 32.6C214.235 32.984 213.952 33.5493 213.878 34.296H218.87C218.838 33.5813 218.592 33.0213 218.134 32.616C217.675 32.2107 217.11 32.008 216.438 32.008ZM226.213 39V31.064H227.429L227.509 32.488C227.765 31.9867 228.133 31.592 228.613 31.304C229.093 31.016 229.637 30.872 230.245 30.872C231.184 30.872 231.931 31.16 232.485 31.736C233.051 32.3013 233.333 33.176 233.333 34.36V39H231.989V34.504C231.989 32.8507 231.307 32.024 229.941 32.024C229.259 32.024 228.688 32.2747 228.229 32.776C227.781 33.2667 227.557 33.9707 227.557 34.888V39H226.213ZM238.938 39.192C238.18 39.192 237.508 39.0213 236.922 38.68C236.335 38.328 235.871 37.8427 235.53 37.224C235.199 36.6053 235.034 35.8747 235.034 35.032C235.034 34.2 235.199 33.4747 235.53 32.856C235.86 32.2267 236.319 31.7413 236.906 31.4C237.503 31.048 238.191 30.872 238.97 30.872C239.738 30.872 240.399 31.048 240.954 31.4C241.519 31.7413 241.951 32.1947 242.25 32.76C242.548 33.3253 242.698 33.9333 242.698 34.584C242.698 34.7013 242.692 34.8187 242.682 34.936C242.682 35.0533 242.682 35.1867 242.682 35.336H236.362C236.394 35.944 236.532 36.4507 236.778 36.856C237.034 37.2507 237.348 37.5493 237.722 37.752C238.106 37.9547 238.511 38.056 238.938 38.056C239.492 38.056 239.956 37.928 240.33 37.672C240.703 37.416 240.975 37.0693 241.146 36.632H242.474C242.26 37.368 241.85 37.9813 241.242 38.472C240.644 38.952 239.876 39.192 238.938 39.192ZM238.938 32.008C238.298 32.008 237.727 32.2053 237.226 32.6C236.735 32.984 236.452 33.5493 236.378 34.296H241.37C241.338 33.5813 241.092 33.0213 240.634 32.616C240.175 32.2107 239.61 32.008 238.938 32.008ZM246.455 39L243.447 31.064H244.855L247.239 37.704L249.639 31.064H251.015L248.007 39H246.455ZM255.672 39.192C254.915 39.192 254.243 39.0213 253.656 38.68C253.069 38.328 252.605 37.8427 252.264 37.224C251.933 36.6053 251.768 35.8747 251.768 35.032C251.768 34.2 251.933 33.4747 252.264 32.856C252.595 32.2267 253.053 31.7413 253.64 31.4C254.237 31.048 254.925 30.872 255.704 30.872C256.472 30.872 257.133 31.048 257.688 31.4C258.253 31.7413 258.685 32.1947 258.984 32.76C259.283 33.3253 259.432 33.9333 259.432 34.584C259.432 34.7013 259.427 34.8187 259.416 34.936C259.416 35.0533 259.416 35.1867 259.416 35.336H253.096C253.128 35.944 253.267 36.4507 253.512 36.856C253.768 37.2507 254.083 37.5493 254.456 37.752C254.84 37.9547 255.245 38.056 255.672 38.056C256.227 38.056 256.691 37.928 257.064 37.672C257.437 37.416 257.709 37.0693 257.88 36.632H259.208C258.995 37.368 258.584 37.9813 257.976 38.472C257.379 38.952 256.611 39.192 255.672 39.192ZM255.672 32.008C255.032 32.008 254.461 32.2053 253.96 32.6C253.469 32.984 253.187 33.5493 253.112 34.296H258.104C258.072 33.5813 257.827 33.0213 257.368 32.616C256.909 32.2107 256.344 32.008 255.672 32.008ZM261.213 39V31.064H262.429L262.541 32.584C262.787 32.0613 263.16 31.6453 263.661 31.336C264.163 31.0267 264.781 30.872 265.517 30.872V32.28H265.149C264.68 32.28 264.248 32.3653 263.853 32.536C263.459 32.696 263.144 32.9733 262.909 33.368C262.675 33.7627 262.557 34.3067 262.557 35V39H261.213ZM274.3 39.192C273.351 39.192 272.562 38.952 271.932 38.472C271.303 37.992 270.935 37.3413 270.828 36.52H272.204C272.29 36.936 272.508 37.2987 272.86 37.608C273.223 37.9067 273.708 38.056 274.316 38.056C274.882 38.056 275.298 37.9387 275.564 37.704C275.831 37.4587 275.964 37.1707 275.964 36.84C275.964 36.36 275.788 36.04 275.436 35.88C275.095 35.72 274.61 35.576 273.98 35.448C273.554 35.3627 273.127 35.24 272.7 35.08C272.274 34.92 271.916 34.696 271.628 34.408C271.34 34.1093 271.196 33.72 271.196 33.24C271.196 32.5467 271.452 31.9813 271.964 31.544C272.487 31.096 273.191 30.872 274.076 30.872C274.919 30.872 275.607 31.0853 276.14 31.512C276.684 31.928 276.999 32.5253 277.084 33.304H275.756C275.703 32.8987 275.527 32.584 275.228 32.36C274.94 32.1253 274.551 32.008 274.06 32.008C273.58 32.008 273.207 32.1093 272.94 32.312C272.684 32.5147 272.556 32.7813 272.556 33.112C272.556 33.432 272.722 33.6827 273.052 33.864C273.394 34.0453 273.852 34.2 274.428 34.328C274.919 34.4347 275.383 34.568 275.82 34.728C276.268 34.8773 276.631 35.1067 276.908 35.416C277.196 35.7147 277.34 36.152 277.34 36.728C277.351 37.4427 277.079 38.0347 276.524 38.504C275.98 38.9627 275.239 39.192 274.3 39.192ZM282.828 39.192C282.071 39.192 281.399 39.0213 280.812 38.68C280.226 38.328 279.762 37.8427 279.42 37.224C279.09 36.6053 278.924 35.8747 278.924 35.032C278.924 34.2 279.09 33.4747 279.42 32.856C279.751 32.2267 280.21 31.7413 280.796 31.4C281.394 31.048 282.082 30.872 282.86 30.872C283.628 30.872 284.29 31.048 284.844 31.4C285.41 31.7413 285.842 32.1947 286.14 32.76C286.439 33.3253 286.588 33.9333 286.588 34.584C286.588 34.7013 286.583 34.8187 286.572 34.936C286.572 35.0533 286.572 35.1867 286.572 35.336H280.252C280.284 35.944 280.423 36.4507 280.668 36.856C280.924 37.2507 281.239 37.5493 281.612 37.752C281.996 37.9547 282.402 38.056 282.828 38.056C283.383 38.056 283.847 37.928 284.22 37.672C284.594 37.416 284.866 37.0693 285.036 36.632H286.364C286.151 37.368 285.74 37.9813 285.132 38.472C284.535 38.952 283.767 39.192 282.828 39.192ZM282.828 32.008C282.188 32.008 281.618 32.2053 281.116 32.6C280.626 32.984 280.343 33.5493 280.268 34.296H285.26C285.228 33.5813 284.983 33.0213 284.524 32.616C284.066 32.2107 283.5 32.008 282.828 32.008ZM291.938 39.192C291.18 39.192 290.508 39.0213 289.922 38.68C289.335 38.328 288.871 37.8427 288.53 37.224C288.199 36.6053 288.034 35.8747 288.034 35.032C288.034 34.2 288.199 33.4747 288.53 32.856C288.86 32.2267 289.319 31.7413 289.906 31.4C290.503 31.048 291.191 30.872 291.97 30.872C292.738 30.872 293.399 31.048 293.954 31.4C294.519 31.7413 294.951 32.1947 295.25 32.76C295.548 33.3253 295.698 33.9333 295.698 34.584C295.698 34.7013 295.692 34.8187 295.682 34.936C295.682 35.0533 295.682 35.1867 295.682 35.336H289.362C289.394 35.944 289.532 36.4507 289.778 36.856C290.034 37.2507 290.348 37.5493 290.722 37.752C291.106 37.9547 291.511 38.056 291.938 38.056C292.492 38.056 292.956 37.928 293.33 37.672C293.703 37.416 293.975 37.0693 294.146 36.632H295.474C295.26 37.368 294.85 37.9813 294.242 38.472C293.644 38.952 292.876 39.192 291.938 39.192ZM291.938 32.008C291.298 32.008 290.727 32.2053 290.226 32.6C289.735 32.984 289.452 33.5493 289.378 34.296H294.37C294.338 33.5813 294.092 33.0213 293.634 32.616C293.175 32.2107 292.61 32.008 291.938 32.008ZM297.479 39V31.064H298.695L298.775 32.488C299.031 31.9867 299.399 31.592 299.879 31.304C300.359 31.016 300.903 30.872 301.511 30.872C302.45 30.872 303.196 31.16 303.751 31.736C304.316 32.3013 304.599 33.176 304.599 34.36V39H303.255V34.504C303.255 32.8507 302.572 32.024 301.207 32.024C300.524 32.024 299.954 32.2747 299.495 32.776C299.047 33.2667 298.823 33.9707 298.823 34.888V39H297.479Z" fill="black"/>
<path d="M4.36 16L1.4 4.8H3.592L5.608 13.712L7.976 4.8H10.232L12.536 13.712L14.552 4.8H16.76L13.72 16H11.288L9.064 7.696L6.776 16H4.36ZM18.1963 16V4.48H20.2443V9.28C20.5109 8.84267 20.8683 8.50133 21.3163 8.256C21.7749 8 22.2976 7.872 22.8843 7.872C23.8656 7.872 24.6229 8.18133 25.1562 8.8C25.7002 9.41867 25.9722 10.3253 25.9722 11.52V16H23.9403V11.712C23.9403 11.0293 23.8016 10.5067 23.5243 10.144C23.2576 9.78133 22.8309 9.6 22.2443 9.6C21.6683 9.6 21.1883 9.80267 20.8043 10.208C20.4309 10.6133 20.2443 11.1787 20.2443 11.904V16H18.1963ZM31.7866 16.192C30.9866 16.192 30.2773 16.0213 29.6586 15.68C29.04 15.3387 28.5546 14.8587 28.2026 14.24C27.8506 13.6213 27.6746 12.9067 27.6746 12.096C27.6746 11.2747 27.8453 10.544 28.1866 9.904C28.5386 9.264 29.0186 8.768 29.6266 8.416C30.2453 8.05333 30.9706 7.872 31.8026 7.872C32.5813 7.872 33.2693 8.04267 33.8666 8.384C34.464 8.72533 34.928 9.19467 35.2586 9.792C35.6 10.3787 35.7706 11.0347 35.7706 11.76C35.7706 11.8773 35.7653 12 35.7546 12.128C35.7546 12.256 35.7493 12.3893 35.7386 12.528H29.7066C29.7493 13.1467 29.9626 13.632 30.3466 13.984C30.7413 14.336 31.216 14.512 31.7706 14.512C32.1866 14.512 32.5333 14.4213 32.8106 14.24C33.0986 14.048 33.312 13.8027 33.4506 13.504H35.5306C35.3813 14.0053 35.1306 14.464 34.7786 14.88C34.4373 15.2853 34.0106 15.6053 33.4986 15.84C32.9973 16.0747 32.4266 16.192 31.7866 16.192ZM31.8026 9.536C31.3013 9.536 30.8586 9.68 30.4746 9.968C30.0906 10.2453 29.8453 10.672 29.7386 11.248H33.6906C33.6586 10.7253 33.4666 10.3093 33.1146 10C32.7626 9.69067 32.3253 9.536 31.8026 9.536ZM37.4931 16V8.064H39.3011L39.4611 9.408C39.7065 8.93867 40.0585 8.56533 40.5171 8.288C40.9865 8.01067 41.5358 7.872 42.1651 7.872C43.1465 7.872 43.9091 8.18133 44.4531 8.8C44.9971 9.41867 45.2691 10.3253 45.2691 11.52V16H43.2211V11.712C43.2211 11.0293 43.0825 10.5067 42.8051 10.144C42.5278 9.78133 42.0958 9.6 41.5091 9.6C40.9331 9.6 40.4585 9.80267 40.0851 10.208C39.7225 10.6133 39.5411 11.1787 39.5411 11.904V16H37.4931Z" fill="#8A13FE"/>
<rect y="45" width="306" height="3" fill="#8A13FE"/>
<path d="M5.344 101.192C4.69333 101.192 4.112 101.059 3.6 100.792C3.09867 100.525 2.71467 100.152 2.448 99.672L2.32 101H1.104V89.48H2.448V94.376C2.704 93.992 3.06667 93.6453 3.536 93.336C4.016 93.0267 4.624 92.872 5.36 92.872C6.14933 92.872 6.83733 93.0533 7.424 93.416C8.01067 93.7787 8.464 94.2747 8.784 94.904C9.11467 95.5333 9.28 96.248 9.28 97.048C9.28 97.848 9.11467 98.5627 8.784 99.192C8.464 99.8107 8.00533 100.301 7.408 100.664C6.82133 101.016 6.13333 101.192 5.344 101.192ZM5.2 100.024C5.73333 100.024 6.20267 99.9013 6.608 99.656C7.01333 99.4 7.33333 99.048 7.568 98.6C7.80267 98.152 7.92 97.6293 7.92 97.032C7.92 96.4347 7.80267 95.912 7.568 95.464C7.33333 95.016 7.01333 94.6693 6.608 94.424C6.20267 94.168 5.73333 94.04 5.2 94.04C4.66667 94.04 4.19733 94.168 3.792 94.424C3.38667 94.6693 3.06667 95.016 2.832 95.464C2.59733 95.912 2.48 96.4347 2.48 97.032C2.48 97.6293 2.59733 98.152 2.832 98.6C3.06667 99.048 3.38667 99.4 3.792 99.656C4.19733 99.9013 4.66667 100.024 5.2 100.024ZM14.7189 101.192C13.9615 101.192 13.2895 101.021 12.7029 100.68C12.1162 100.328 11.6522 99.8427 11.3109 99.224C10.9802 98.6053 10.8149 97.8747 10.8149 97.032C10.8149 96.2 10.9802 95.4747 11.3109 94.856C11.6415 94.2267 12.1002 93.7413 12.6869 93.4C13.2842 93.048 13.9722 92.872 14.7509 92.872C15.5189 92.872 16.1802 93.048 16.7349 93.4C17.3002 93.7413 17.7322 94.1947 18.0309 94.76C18.3295 95.3253 18.4789 95.9333 18.4789 96.584C18.4789 96.7013 18.4735 96.8187 18.4629 96.936C18.4629 97.0533 18.4629 97.1867 18.4629 97.336H12.1429C12.1749 97.944 12.3135 98.4507 12.5589 98.856C12.8149 99.2507 13.1295 99.5493 13.5029 99.752C13.8869 99.9547 14.2922 100.056 14.7189 100.056C15.2735 100.056 15.7375 99.928 16.1109 99.672C16.4842 99.416 16.7562 99.0693 16.9269 98.632H18.2549C18.0415 99.368 17.6309 99.9813 17.0229 100.472C16.4255 100.952 15.6575 101.192 14.7189 101.192ZM14.7189 94.008C14.0789 94.008 13.5082 94.2053 13.0069 94.6C12.5162 94.984 12.2335 95.5493 12.1589 96.296H17.1509C17.1189 95.5813 16.8735 95.0213 16.4149 94.616C15.9562 94.2107 15.3909 94.008 14.7189 94.008ZM20.6923 101V94.2H19.4923V93.064H20.6923V91.688C20.6923 90.92 20.8843 90.36 21.2682 90.008C21.6523 89.656 22.2123 89.48 22.9483 89.48H23.7483V90.632H23.1562C22.7509 90.632 22.4629 90.7173 22.2923 90.888C22.1216 91.048 22.0363 91.3253 22.0363 91.72V93.064H23.9883V94.2H22.0363V101H20.6923ZM28.8919 101.192C28.1452 101.192 27.4732 101.021 26.8759 100.68C26.2785 100.339 25.8039 99.8587 25.4519 99.24C25.1105 98.6107 24.9399 97.8747 24.9399 97.032C24.9399 96.1893 25.1159 95.4587 25.4679 94.84C25.8199 94.2107 26.2945 93.7253 26.8919 93.384C27.4999 93.0427 28.1772 92.872 28.9239 92.872C29.6705 92.872 30.3425 93.0427 30.9399 93.384C31.5372 93.7253 32.0065 94.2107 32.3479 94.84C32.6999 95.4587 32.8759 96.1893 32.8759 97.032C32.8759 97.8747 32.6999 98.6107 32.3479 99.24C31.9959 99.8587 31.5159 100.339 30.9079 100.68C30.3105 101.021 29.6385 101.192 28.8919 101.192ZM28.8919 100.04C29.3505 100.04 29.7772 99.928 30.1719 99.704C30.5665 99.48 30.8865 99.144 31.1319 98.696C31.3772 98.248 31.4999 97.6933 31.4999 97.032C31.4999 96.3707 31.3772 95.816 31.1319 95.368C30.8972 94.92 30.5825 94.584 30.1879 94.36C29.7932 94.136 29.3719 94.024 28.9239 94.024C28.4652 94.024 28.0385 94.136 27.6439 94.36C27.2492 94.584 26.9292 94.92 26.6839 95.368C26.4385 95.816 26.3159 96.3707 26.3159 97.032C26.3159 97.6933 26.4385 98.248 26.6839 98.696C26.9292 99.144 27.2439 99.48 27.6279 99.704C28.0225 99.928 28.4439 100.04 28.8919 100.04ZM34.7446 101V93.064H35.9606L36.0726 94.584C36.318 94.0613 36.6913 93.6453 37.1926 93.336C37.694 93.0267 38.3126 92.872 39.0486 92.872V94.28H38.6806C38.2113 94.28 37.7793 94.3653 37.3846 94.536C36.99 94.696 36.6753 94.9733 36.4406 95.368C36.206 95.7627 36.0886 96.3067 36.0886 97V101H34.7446ZM43.8283 101.192C43.0709 101.192 42.3989 101.021 41.8123 100.68C41.2256 100.328 40.7616 99.8427 40.4203 99.224C40.0896 98.6053 39.9243 97.8747 39.9243 97.032C39.9243 96.2 40.0896 95.4747 40.4203 94.856C40.7509 94.2267 41.2096 93.7413 41.7963 93.4C42.3936 93.048 43.0816 92.872 43.8602 92.872C44.6283 92.872 45.2896 93.048 45.8443 93.4C46.4096 93.7413 46.8416 94.1947 47.1403 94.76C47.4389 95.3253 47.5883 95.9333 47.5883 96.584C47.5883 96.7013 47.5829 96.8187 47.5723 96.936C47.5723 97.0533 47.5723 97.1867 47.5723 97.336H41.2523C41.2843 97.944 41.4229 98.4507 41.6683 98.856C41.9243 99.2507 42.2389 99.5493 42.6123 99.752C42.9963 99.9547 43.4016 100.056 43.8283 100.056C44.3829 100.056 44.8469 99.928 45.2203 99.672C45.5936 99.416 45.8656 99.0693 46.0363 98.632H47.3643C47.1509 99.368 46.7403 99.9813 46.1323 100.472C45.5349 100.952 44.7669 101.192 43.8283 101.192ZM43.8283 94.008C43.1883 94.008 42.6176 94.2053 42.1163 94.6C41.6256 94.984 41.3429 95.5493 41.2682 96.296H46.2603C46.2283 95.5813 45.9829 95.0213 45.5243 94.616C45.0656 94.2107 44.5003 94.008 43.8283 94.008Z" fill="black"/>
<rect y="107" width="50" height="3" fill="#8A13FE"/>
<path d="M67.368 101.16C69.256 101.16 70.552 100.184 70.552 98.664C70.552 97.688 70.024 96.984 68.536 96.68L66.536 96.264C65.656 96.088 65.4 95.656 65.4 95.192C65.4 94.488 66.072 93.96 67.224 93.96C68.088 93.96 69 94.376 69.368 95.32L70.44 94.616C69.912 93.496 68.792 92.84 67.224 92.84C65.336 92.84 64.136 93.944 64.136 95.24C64.136 96.344 64.76 97.112 66.312 97.432L68.232 97.832C69.048 98.008 69.272 98.408 69.272 98.856C69.272 99.56 68.584 100.04 67.464 100.04C66.184 100.04 65.256 99.464 64.792 98.472L63.704 99.256C64.408 100.472 65.816 101.16 67.368 101.16ZM79.7255 96.472C79.7255 94.424 78.4295 92.84 76.1895 92.84C73.9655 92.84 72.3655 94.408 72.3655 97C72.3655 99.592 73.9815 101.16 76.2695 101.16C77.8215 101.16 78.9575 100.472 79.5655 99.384L78.5575 98.792C78.1095 99.56 77.4055 100.04 76.2375 100.04C74.7335 100.04 73.7575 99.048 73.6295 97.368H79.6615C79.6935 97.144 79.7255 96.84 79.7255 96.472ZM76.1575 93.96C77.4855 93.96 78.3975 94.776 78.4455 96.232H73.6775C73.9015 94.792 74.8135 93.96 76.1575 93.96ZM88.9599 96.472C88.9599 94.424 87.6639 92.84 85.4239 92.84C83.1999 92.84 81.5999 94.408 81.5999 97C81.5999 99.592 83.2159 101.16 85.5039 101.16C87.0559 101.16 88.1919 100.472 88.7999 99.384L87.7919 98.792C87.3439 99.56 86.6399 100.04 85.4719 100.04C83.9679 100.04 82.9919 99.048 82.8639 97.368H88.8959C88.9279 97.144 88.9599 96.84 88.9599 96.472ZM85.3919 93.96C86.7199 93.96 87.6319 94.776 87.6799 96.232H82.9119C83.1359 94.792 84.0479 93.96 85.3919 93.96ZM101.031 99.368C100.663 99.736 100.247 99.96 99.6229 99.96C98.9189 99.96 98.4229 99.576 98.4229 98.792V94.104H101.335V93H98.4229V90.728L97.1429 91.08V93H95.5429V94.104H97.1429V99.016C97.1589 100.568 98.2149 101.16 99.4469 101.16C100.327 101.16 100.983 100.888 101.479 100.44L101.031 99.368ZM103.238 101H104.518V96.76C104.518 94.712 105.83 93.96 106.998 93.96C108.102 93.96 108.966 94.552 108.966 96.328V101H110.246V95.88C110.246 93.816 108.838 92.84 107.126 92.84C106.038 92.84 105.078 93.24 104.518 94.2V89.32H103.238V101ZM119.944 96.472C119.944 94.424 118.648 92.84 116.408 92.84C114.184 92.84 112.584 94.408 112.584 97C112.584 99.592 114.2 101.16 116.488 101.16C118.04 101.16 119.176 100.472 119.784 99.384L118.776 98.792C118.328 99.56 117.624 100.04 116.456 100.04C114.952 100.04 113.976 99.048 113.848 97.368H119.88C119.912 97.144 119.944 96.84 119.944 96.472ZM116.376 93.96C117.704 93.96 118.616 94.776 118.664 96.232H113.896C114.12 94.792 115.032 93.96 116.376 93.96ZM130.712 101.16C132.6 101.16 133.896 100.184 133.896 98.664C133.896 97.688 133.368 96.984 131.88 96.68L129.88 96.264C129 96.088 128.744 95.656 128.744 95.192C128.744 94.488 129.416 93.96 130.568 93.96C131.432 93.96 132.344 94.376 132.712 95.32L133.784 94.616C133.256 93.496 132.136 92.84 130.568 92.84C128.68 92.84 127.48 93.944 127.48 95.24C127.48 96.344 128.104 97.112 129.656 97.432L131.576 97.832C132.392 98.008 132.616 98.408 132.616 98.856C132.616 99.56 131.928 100.04 130.808 100.04C129.528 100.04 128.6 99.464 128.136 98.472L127.048 99.256C127.752 100.472 129.16 101.16 130.712 101.16ZM140.765 99.368C140.397 99.736 139.981 99.96 139.357 99.96C138.653 99.96 138.157 99.576 138.157 98.792V94.104H141.069V93H138.157V90.728L136.877 91.08V93H135.277V94.104H136.877V99.016C136.893 100.568 137.949 101.16 139.181 101.16C140.061 101.16 140.717 100.888 141.213 100.44L140.765 99.368ZM149.532 100.024C149.132 100.024 148.924 99.832 148.924 99.448V95.576C148.924 93.704 147.564 92.84 145.836 92.84C144.124 92.84 142.94 93.64 142.508 94.84L143.548 95.48C143.9 94.424 144.7 93.96 145.804 93.96C146.972 93.96 147.644 94.648 147.644 95.832V96.136L144.732 96.712C143.308 97 142.46 97.784 142.46 98.984C142.46 100.44 143.676 101.16 145.1 101.16C146.028 101.16 147.1 100.776 147.66 99.944C147.804 100.728 148.444 101.112 149.228 101.112C149.58 101.112 149.868 101.048 150.06 100.952L150.124 99.944C149.948 99.992 149.708 100.024 149.532 100.024ZM145.276 100.04C144.316 100.04 143.772 99.576 143.772 98.92C143.772 98.232 144.268 97.896 145.324 97.672L147.644 97.192V98.04C147.644 99.416 146.508 100.04 145.276 100.04ZM156.218 99.368C155.85 99.736 155.434 99.96 154.81 99.96C154.106 99.96 153.61 99.576 153.61 98.792V94.104H156.522V93H153.61V90.728L152.33 91.08V93H150.73V94.104H152.33V99.016C152.346 100.568 153.402 101.16 154.634 101.16C155.514 101.16 156.17 100.888 156.666 100.44L156.218 99.368ZM161.322 101.16C162.602 101.16 163.562 100.744 164.122 99.784L164.202 101H165.322V93H164.042V97.352C164.042 99.24 162.842 100.04 161.641 100.04C160.362 100.04 159.626 99.544 159.626 97.912V93H158.346V98.248C158.346 100.344 159.77 101.16 161.322 101.16ZM171.181 101.16C173.069 101.16 174.365 100.184 174.365 98.664C174.365 97.688 173.837 96.984 172.349 96.68L170.349 96.264C169.469 96.088 169.213 95.656 169.213 95.192C169.213 94.488 169.885 93.96 171.036 93.96C171.901 93.96 172.813 94.376 173.181 95.32L174.253 94.616C173.725 93.496 172.605 92.84 171.036 92.84C169.149 92.84 167.949 93.944 167.949 95.24C167.949 96.344 168.573 97.112 170.125 97.432L172.045 97.832C172.861 98.008 173.085 98.408 173.085 98.856C173.085 99.56 172.397 100.04 171.277 100.04C169.997 100.04 169.069 99.464 168.605 98.472L167.517 99.256C168.221 100.472 169.629 101.16 171.181 101.16ZM185.503 92.84C183.247 92.84 181.631 94.408 181.631 97C181.631 99.592 183.247 101.16 185.503 101.16C187.759 101.16 189.375 99.592 189.375 97C189.375 94.408 187.759 92.84 185.503 92.84ZM185.503 93.944C187.119 93.944 188.095 95.096 188.095 97C188.095 98.904 187.119 100.056 185.503 100.056C183.887 100.056 182.911 98.904 182.911 97C182.911 95.096 183.887 93.944 185.503 93.944ZM193.548 91.784C193.548 90.824 194.076 90.408 195.004 90.408C195.372 90.408 195.66 90.488 195.916 90.648L196.252 89.608C195.964 89.368 195.452 89.24 194.892 89.24C193.132 89.24 192.268 90.232 192.268 91.656V93H190.668V94.104H192.268V101H193.548V94.104H196.22V93H193.548V91.784ZM202.738 101H204.018V96.728C204.018 94.744 205.33 93.96 206.386 93.96C207.442 93.96 208.274 94.552 208.274 96.008V101H209.554V96.616C209.554 94.904 210.674 93.96 211.922 93.96C212.978 93.96 213.81 94.552 213.81 96.008V101H215.09V95.88C215.09 93.768 213.57 92.84 212.034 92.84C211.026 92.84 209.746 93.32 209.25 94.408C208.722 93.336 207.618 92.84 206.498 92.84C205.506 92.84 204.514 93.272 203.938 94.248L203.858 93H202.738V101ZM224.345 93H222.969L221.097 98.056L220.521 99.64L220.025 98.216L218.025 93H216.569L219.913 100.984L219.497 102.024C219.097 103.08 218.601 103.32 218.041 103.32C217.577 103.32 217.065 103.144 216.649 102.76L216.297 103.88C216.761 104.232 217.369 104.44 218.105 104.44C219.241 104.44 219.961 103.912 220.585 102.344L224.345 93ZM233.962 101.16C235.242 101.16 236.202 100.744 236.762 99.784L236.842 101H237.962V93H236.682V97.352C236.682 99.24 235.482 100.04 234.282 100.04C233.002 100.04 232.266 99.544 232.266 97.912V93H230.986V98.248C230.986 100.344 232.41 101.16 233.962 101.16ZM244.909 92.84C243.661 92.84 242.621 93.48 242.141 94.408L242.061 93H240.941V104.36H242.221V99.752C242.717 100.584 243.677 101.16 244.861 101.16C246.829 101.16 248.525 99.608 248.525 97C248.525 94.392 246.861 92.84 244.909 92.84ZM244.733 100.04C243.213 100.04 242.221 98.84 242.221 97C242.221 95.16 243.245 93.96 244.781 93.96C246.333 93.96 247.245 95.16 247.245 97C247.245 98.84 246.301 100.04 244.733 100.04ZM253.852 101.16C255.74 101.16 257.036 100.184 257.036 98.664C257.036 97.688 256.508 96.984 255.02 96.68L253.02 96.264C252.14 96.088 251.884 95.656 251.884 95.192C251.884 94.488 252.556 93.96 253.708 93.96C254.572 93.96 255.484 94.376 255.852 95.32L256.924 94.616C256.396 93.496 255.276 92.84 253.708 92.84C251.82 92.84 250.62 93.944 250.62 95.24C250.62 96.344 251.244 97.112 252.796 97.432L254.716 97.832C255.532 98.008 255.756 98.408 255.756 98.856C255.756 99.56 255.068 100.04 253.948 100.04C252.668 100.04 251.74 99.464 251.276 98.472L250.188 99.256C250.892 100.472 252.3 101.16 253.852 101.16ZM263.906 99.368C263.538 99.736 263.122 99.96 262.498 99.96C261.794 99.96 261.298 99.576 261.298 98.792V94.104H264.21V93H261.298V90.728L260.018 91.08V93H258.418V94.104H260.018V99.016C260.034 100.568 261.09 101.16 262.322 101.16C263.202 101.16 263.858 100.888 264.354 100.44L263.906 99.368ZM266.113 101H267.393V96.68C267.393 94.888 268.561 94.04 269.569 94.04C270.081 94.04 270.305 94.088 270.545 94.168L270.769 93C270.529 92.872 270.161 92.84 269.889 92.84C268.641 92.84 267.777 93.336 267.329 94.312L267.153 93H266.113V101ZM279.194 96.472C279.194 94.424 277.898 92.84 275.658 92.84C273.434 92.84 271.834 94.408 271.834 97C271.834 99.592 273.45 101.16 275.738 101.16C277.29 101.16 278.426 100.472 279.034 99.384L278.026 98.792C277.578 99.56 276.874 100.04 275.706 100.04C274.202 100.04 273.226 99.048 273.098 97.368H279.13C279.162 97.144 279.194 96.84 279.194 96.472ZM275.626 93.96C276.954 93.96 277.866 94.776 277.914 96.232H273.146C273.37 94.792 274.282 93.96 275.626 93.96ZM288.189 100.024C287.789 100.024 287.581 99.832 287.581 99.448V95.576C287.581 93.704 286.221 92.84 284.493 92.84C282.781 92.84 281.597 93.64 281.165 94.84L282.205 95.48C282.557 94.424 283.357 93.96 284.461 93.96C285.629 93.96 286.301 94.648 286.301 95.832V96.136L283.389 96.712C281.965 97 281.117 97.784 281.117 98.984C281.117 100.44 282.333 101.16 283.757 101.16C284.685 101.16 285.757 100.776 286.317 99.944C286.461 100.728 287.101 101.112 287.885 101.112C288.237 101.112 288.525 101.048 288.717 100.952L288.781 99.944C288.605 99.992 288.365 100.024 288.189 100.024ZM283.933 100.04C282.973 100.04 282.429 99.576 282.429 98.92C282.429 98.232 282.925 97.896 283.981 97.672L286.301 97.192V98.04C286.301 99.416 285.165 100.04 283.933 100.04ZM290.691 101H291.971V96.728C291.971 94.744 293.283 93.96 294.339 93.96C295.395 93.96 296.227 94.552 296.227 96.008V101H297.507V96.616C297.507 94.904 298.627 93.96 299.875 93.96C300.931 93.96 301.763 94.552 301.763 96.008V101H303.043V95.88C303.043 93.768 301.523 92.84 299.987 92.84C298.979 92.84 297.699 93.32 297.203 94.408C296.675 93.336 295.571 92.84 294.451 92.84C293.459 92.84 292.467 93.272 291.891 94.248L291.811 93H290.691V101Z" fill="black"/>
<path d="M64.088 78V66.8H66.136V78H64.088ZM73.6233 78L71.3033 70.064H73.3353L74.7113 75.776L76.3113 70.064H78.5833L80.1833 75.776L81.5753 70.064H83.6073L81.2713 78H79.1433L77.4473 72.064L75.7513 78H73.6233ZM87.2291 78.192C86.5465 78.192 85.9865 78.0853 85.5491 77.872C85.1118 77.648 84.7865 77.3547 84.5731 76.992C84.3598 76.6293 84.2531 76.2293 84.2531 75.792C84.2531 75.056 84.5411 74.4587 85.1171 74C85.6931 73.5413 86.5571 73.312 87.7091 73.312H89.7251V73.12C89.7251 72.576 89.5705 72.176 89.2611 71.92C88.9518 71.664 88.5678 71.536 88.1091 71.536C87.6931 71.536 87.3305 71.6373 87.0211 71.84C86.7118 72.032 86.5198 72.32 86.4451 72.704H84.4451C84.4985 72.128 84.6905 71.6267 85.0211 71.2C85.3625 70.7733 85.7998 70.448 86.3331 70.224C86.8665 69.9893 87.4638 69.872 88.1251 69.872C89.2558 69.872 90.1465 70.1547 90.7971 70.72C91.4478 71.2853 91.7731 72.0853 91.7731 73.12V78H90.0291L89.8371 76.72C89.6025 77.1467 89.2718 77.4987 88.8451 77.776C88.4291 78.0533 87.8905 78.192 87.2291 78.192ZM87.6931 76.592C88.2798 76.592 88.7331 76.4 89.0531 76.016C89.3838 75.632 89.5918 75.1573 89.6771 74.592H87.9331C87.3891 74.592 86.9998 74.6933 86.7651 74.896C86.5305 75.088 86.4131 75.328 86.4131 75.616C86.4131 75.9253 86.5305 76.1653 86.7651 76.336C86.9998 76.5067 87.3091 76.592 87.6931 76.592ZM93.7275 78V70.064H95.5355L95.6955 71.408C95.9408 70.9387 96.2928 70.5653 96.7515 70.288C97.2208 70.0107 97.7702 69.872 98.3995 69.872C99.3808 69.872 100.144 70.1813 100.688 70.8C101.231 71.4187 101.503 72.3253 101.503 73.52V78H99.4555V73.712C99.4555 73.0293 99.3168 72.5067 99.0395 72.144C98.7622 71.7813 98.3302 71.6 97.7435 71.6C97.1675 71.6 96.6928 71.8027 96.3195 72.208C95.9568 72.6133 95.7755 73.1787 95.7755 73.904V78H93.7275ZM106.998 78C106.166 78 105.499 77.7973 104.998 77.392C104.497 76.9867 104.246 76.2667 104.246 75.232V71.776H102.886V70.064H104.246L104.486 67.936H106.294V70.064H108.438V71.776H106.294V75.248C106.294 75.632 106.374 75.8987 106.534 76.048C106.705 76.1867 106.993 76.256 107.398 76.256H108.39V78H106.998ZM117.545 78C116.713 78 116.046 77.7973 115.545 77.392C115.043 76.9867 114.793 76.2667 114.793 75.232V71.776H113.433V70.064H114.793L115.033 67.936H116.841V70.064H118.985V71.776H116.841V75.248C116.841 75.632 116.921 75.8987 117.081 76.048C117.251 76.1867 117.539 76.256 117.945 76.256H118.937V78H117.545ZM124.348 78.192C123.58 78.192 122.887 78.016 122.268 77.664C121.66 77.312 121.175 76.8267 120.812 76.208C120.46 75.5787 120.284 74.8533 120.284 74.032C120.284 73.2107 120.465 72.4907 120.828 71.872C121.191 71.2427 121.676 70.752 122.284 70.4C122.903 70.048 123.596 69.872 124.364 69.872C125.121 69.872 125.804 70.048 126.412 70.4C127.031 70.752 127.516 71.2427 127.868 71.872C128.231 72.4907 128.412 73.2107 128.412 74.032C128.412 74.8533 128.231 75.5787 127.868 76.208C127.516 76.8267 127.031 77.312 126.412 77.664C125.793 78.016 125.105 78.192 124.348 78.192ZM124.348 76.416C124.881 76.416 125.345 76.2187 125.74 75.824C126.135 75.4187 126.332 74.8213 126.332 74.032C126.332 73.2427 126.135 72.6507 125.74 72.256C125.345 71.8507 124.887 71.648 124.364 71.648C123.82 71.648 123.351 71.8507 122.956 72.256C122.572 72.6507 122.38 73.2427 122.38 74.032C122.38 74.8213 122.572 75.4187 122.956 75.824C123.351 76.2187 123.815 76.416 124.348 76.416Z" fill="#13A9FE"/>
<rect x="62" y="107" width="243" height="3" fill="#13A9FE"/>
<path d="M7.264 160.32V165.296C6.832 164.416 5.888 163.84 4.736 163.84C2.736 163.84 0.96 165.344 0.96 168C0.96 170.608 2.624 172.16 4.608 172.16C5.792 172.16 6.912 171.568 7.344 170.496L7.424 172H8.544V160.32H7.264ZM4.736 171.04C3.152 171.04 2.24 169.84 2.24 168C2.24 166.16 3.184 164.96 4.8 164.96C6.256 164.96 7.264 166.064 7.264 167.888C7.264 169.824 6.256 171.04 4.736 171.04ZM18.3193 167.472C18.3193 165.424 17.0233 163.84 14.7833 163.84C12.5593 163.84 10.9593 165.408 10.9593 168C10.9593 170.592 12.5753 172.16 14.8633 172.16C16.4153 172.16 17.5513 171.472 18.1593 170.384L17.1513 169.792C16.7033 170.56 15.9993 171.04 14.8313 171.04C13.3273 171.04 12.3513 170.048 12.2233 168.368H18.2552C18.2873 168.144 18.3193 167.84 18.3193 167.472ZM14.7513 164.96C16.0793 164.96 16.9913 165.776 17.0393 167.232H12.2713C12.4953 165.792 13.4073 164.96 14.7513 164.96ZM24.7216 163.84C23.4736 163.84 22.4336 164.48 21.9536 165.408L21.8736 164H20.7536V175.36H22.0336V170.752C22.5296 171.584 23.4896 172.16 24.6736 172.16C26.6416 172.16 28.3376 170.608 28.3376 168C28.3376 165.392 26.6736 163.84 24.7216 163.84ZM24.5456 171.04C23.0256 171.04 22.0336 169.84 22.0336 168C22.0336 166.16 23.0576 164.96 24.5936 164.96C26.1456 164.96 27.0576 166.16 27.0576 168C27.0576 169.84 26.1136 171.04 24.5456 171.04ZM37.5849 167.472C37.5849 165.424 36.2889 163.84 34.0489 163.84C31.8249 163.84 30.2249 165.408 30.2249 168C30.2249 170.592 31.8409 172.16 34.1289 172.16C35.6809 172.16 36.8169 171.472 37.4249 170.384L36.4169 169.792C35.9689 170.56 35.2649 171.04 34.0969 171.04C32.5929 171.04 31.6169 170.048 31.4889 168.368H37.5209C37.5529 168.144 37.5849 167.84 37.5849 167.472ZM34.0169 164.96C35.3449 164.96 36.2569 165.776 36.3049 167.232H31.5369C31.7609 165.792 32.6729 164.96 34.0169 164.96ZM43.9073 163.84C42.8033 163.84 41.7793 164.24 41.2193 165.248L41.1393 164H40.0193V172H41.2993V167.744C41.2993 165.696 42.6113 164.96 43.7793 164.96C44.8833 164.96 45.7473 165.552 45.7473 167.328V172H47.0273V166.88C47.0273 164.816 45.6193 163.84 43.9073 163.84ZM55.7015 160.32V165.296C55.2695 164.416 54.3255 163.84 53.1735 163.84C51.1735 163.84 49.3975 165.344 49.3975 168C49.3975 170.608 51.0615 172.16 53.0455 172.16C54.2295 172.16 55.3495 171.568 55.7815 170.496L55.8615 172H56.9815V160.32H55.7015ZM53.1735 171.04C51.5895 171.04 50.6775 169.84 50.6775 168C50.6775 166.16 51.6215 164.96 53.2375 164.96C54.6935 164.96 55.7015 166.064 55.7015 167.888C55.7015 169.824 54.6935 171.04 53.1735 171.04ZM66.7568 167.472C66.7568 165.424 65.4608 163.84 63.2208 163.84C60.9968 163.84 59.3968 165.408 59.3968 168C59.3968 170.592 61.0128 172.16 63.3008 172.16C64.8528 172.16 65.9888 171.472 66.5968 170.384L65.5888 169.792C65.1408 170.56 64.4368 171.04 63.2688 171.04C61.7648 171.04 60.7888 170.048 60.6608 168.368H66.6927C66.7248 168.144 66.7568 167.84 66.7568 167.472ZM63.1888 164.96C64.5168 164.96 65.4288 165.776 65.4768 167.232H60.7088C60.9328 165.792 61.8448 164.96 63.1888 164.96ZM73.0791 163.84C71.9751 163.84 70.9511 164.24 70.3911 165.248L70.3111 164H69.1911V172H70.4711V167.744C70.4711 165.696 71.7831 164.96 72.9511 164.96C74.0551 164.96 74.9191 165.552 74.9191 167.328V172H76.1991V166.88C76.1991 164.816 74.7911 163.84 73.0791 163.84ZM82.4094 163.84C80.1534 163.84 78.5374 165.408 78.5374 168C78.5374 170.592 80.1534 172.16 82.4094 172.16C84.1054 172.16 85.2574 171.28 85.8014 169.808L84.6174 169.392C84.3774 170.448 83.6254 171.04 82.3774 171.04C80.7774 171.04 79.8174 169.904 79.8174 168C79.8174 166.096 80.7774 164.96 82.3774 164.96C83.4814 164.96 84.1694 165.52 84.5054 166.544L85.7214 165.968C85.1294 164.656 84.0574 163.84 82.4094 163.84ZM88.6905 162.464C89.2665 162.464 89.6505 162.08 89.6505 161.504C89.6505 160.928 89.2665 160.544 88.6905 160.544C88.1145 160.544 87.7305 160.928 87.7305 161.504C87.7305 162.08 88.1145 162.464 88.6905 162.464ZM89.3305 164H88.0505V172H89.3305V164ZM99.1005 167.472C99.1005 165.424 97.8045 163.84 95.5645 163.84C93.3405 163.84 91.7405 165.408 91.7405 168C91.7405 170.592 93.3565 172.16 95.6445 172.16C97.1965 172.16 98.3325 171.472 98.9405 170.384L97.9325 169.792C97.4845 170.56 96.7805 171.04 95.6125 171.04C94.1085 171.04 93.1325 170.048 93.0045 168.368H99.0365C99.0685 168.144 99.1005 167.84 99.1005 167.472ZM95.5325 164.96C96.8605 164.96 97.7725 165.776 97.8205 167.232H93.0525C93.2765 165.792 94.1885 164.96 95.5325 164.96ZM104.415 172.16C106.303 172.16 107.599 171.184 107.599 169.664C107.599 168.688 107.071 167.984 105.583 167.68L103.583 167.264C102.703 167.088 102.447 166.656 102.447 166.192C102.447 165.488 103.119 164.96 104.271 164.96C105.135 164.96 106.047 165.376 106.415 166.32L107.487 165.616C106.959 164.496 105.839 163.84 104.271 163.84C102.383 163.84 101.183 164.944 101.183 166.24C101.183 167.344 101.807 168.112 103.359 168.432L105.279 168.832C106.095 169.008 106.319 169.408 106.319 169.856C106.319 170.56 105.631 171.04 104.511 171.04C103.231 171.04 102.303 170.464 101.839 169.472L100.751 170.256C101.455 171.472 102.863 172.16 104.415 172.16Z" fill="black"/>
<rect y="178" width="108" height="3" fill="#13A9FE"/>
<path d="M130.264 161.32V166.296C129.832 165.416 128.888 164.84 127.736 164.84C125.736 164.84 123.96 166.344 123.96 169C123.96 171.608 125.624 173.16 127.608 173.16C128.792 173.16 129.912 172.568 130.344 171.496L130.424 173H131.544V161.32H130.264ZM127.736 172.04C126.152 172.04 125.24 170.84 125.24 169C125.24 167.16 126.184 165.96 127.8 165.96C129.256 165.96 130.264 167.064 130.264 168.888C130.264 170.824 129.256 172.04 127.736 172.04ZM141.319 168.472C141.319 166.424 140.023 164.84 137.783 164.84C135.559 164.84 133.959 166.408 133.959 169C133.959 171.592 135.575 173.16 137.863 173.16C139.415 173.16 140.551 172.472 141.159 171.384L140.151 170.792C139.703 171.56 138.999 172.04 137.831 172.04C136.327 172.04 135.351 171.048 135.223 169.368H141.255C141.287 169.144 141.319 168.84 141.319 168.472ZM137.751 165.96C139.079 165.96 139.991 166.776 140.039 168.232H135.271C135.495 166.792 136.407 165.96 137.751 165.96ZM148.015 171.368C147.647 171.736 147.231 171.96 146.607 171.96C145.903 171.96 145.407 171.576 145.407 170.792V166.104H148.319V165H145.407V162.728L144.127 163.08V165H142.527V166.104H144.127V171.016C144.143 172.568 145.199 173.16 146.431 173.16C147.311 173.16 147.967 172.888 148.463 172.44L148.015 171.368ZM157.022 168.472C157.022 166.424 155.726 164.84 153.486 164.84C151.262 164.84 149.662 166.408 149.662 169C149.662 171.592 151.278 173.16 153.566 173.16C155.118 173.16 156.254 172.472 156.862 171.384L155.854 170.792C155.406 171.56 154.702 172.04 153.534 172.04C152.03 172.04 151.054 171.048 150.926 169.368H156.958C156.99 169.144 157.022 168.84 157.022 168.472ZM153.454 165.96C154.782 165.96 155.694 166.776 155.742 168.232H150.974C151.198 166.792 152.11 165.96 153.454 165.96ZM159.457 173H160.737V168.68C160.737 166.888 161.905 166.04 162.913 166.04C163.425 166.04 163.649 166.088 163.889 166.168L164.113 165C163.873 164.872 163.505 164.84 163.233 164.84C161.985 164.84 161.121 165.336 160.673 166.312L160.497 165H159.457V173ZM165.988 173H167.268V168.728C167.268 166.744 168.58 165.96 169.636 165.96C170.692 165.96 171.524 166.552 171.524 168.008V173H172.804V168.616C172.804 166.904 173.924 165.96 175.172 165.96C176.228 165.96 177.06 166.552 177.06 168.008V173H178.34V167.88C178.34 165.768 176.82 164.84 175.284 164.84C174.276 164.84 172.996 165.32 172.5 166.408C171.972 165.336 170.868 164.84 169.748 164.84C168.756 164.84 167.764 165.272 167.188 166.248L167.108 165H165.988V173ZM181.878 163.464C182.454 163.464 182.838 163.08 182.838 162.504C182.838 161.928 182.454 161.544 181.878 161.544C181.302 161.544 180.918 161.928 180.918 162.504C180.918 163.08 181.302 163.464 181.878 163.464ZM182.518 165H181.238V173H182.518V165ZM189.376 164.84C188.272 164.84 187.248 165.24 186.688 166.248L186.608 165H185.488V173H186.768V168.744C186.768 166.696 188.08 165.96 189.248 165.96C190.352 165.96 191.216 166.552 191.216 168.328V173H192.496V167.88C192.496 165.816 191.088 164.84 189.376 164.84ZM202.194 168.472C202.194 166.424 200.898 164.84 198.658 164.84C196.434 164.84 194.834 166.408 194.834 169C194.834 171.592 196.45 173.16 198.738 173.16C200.29 173.16 201.426 172.472 202.034 171.384L201.026 170.792C200.578 171.56 199.874 172.04 198.706 172.04C197.202 172.04 196.226 171.048 196.098 169.368H202.13C202.162 169.144 202.194 168.84 202.194 168.472ZM198.626 165.96C199.954 165.96 200.866 166.776 200.914 168.232H196.146C196.37 166.792 197.282 165.96 198.626 165.96ZM210.722 163.464C211.298 163.464 211.682 163.08 211.682 162.504C211.682 161.928 211.298 161.544 210.722 161.544C210.146 161.544 209.762 161.928 209.762 162.504C209.762 163.08 210.146 163.464 210.722 163.464ZM211.362 165H210.082V173H211.362V165ZM216.236 163.784C216.236 162.824 216.764 162.408 217.692 162.408C218.06 162.408 218.348 162.488 218.604 162.648L218.94 161.608C218.652 161.368 218.14 161.24 217.58 161.24C215.82 161.24 214.956 162.232 214.956 163.656V165H213.356V166.104H214.956V173H216.236V166.104H218.908V165H216.236V163.784ZM229.609 171.368C229.241 171.736 228.825 171.96 228.201 171.96C227.497 171.96 227.001 171.576 227.001 170.792V166.104H229.913V165H227.001V162.728L225.721 163.08V165H224.121V166.104H225.721V171.016C225.737 172.568 226.793 173.16 228.025 173.16C228.905 173.16 229.561 172.888 230.057 172.44L229.609 171.368ZM231.816 173H233.096V168.76C233.096 166.712 234.408 165.96 235.576 165.96C236.68 165.96 237.544 166.552 237.544 168.328V173H238.824V167.88C238.824 165.816 237.416 164.84 235.704 164.84C234.616 164.84 233.656 165.24 233.096 166.2V161.32H231.816V173ZM248.522 168.472C248.522 166.424 247.226 164.84 244.986 164.84C242.762 164.84 241.162 166.408 241.162 169C241.162 171.592 242.778 173.16 245.066 173.16C246.618 173.16 247.754 172.472 248.362 171.384L247.354 170.792C246.906 171.56 246.202 172.04 245.034 172.04C243.53 172.04 242.554 171.048 242.426 169.368H248.458C248.49 169.144 248.522 168.84 248.522 168.472ZM244.954 165.96C246.282 165.96 247.194 166.776 247.242 168.232H242.474C242.698 166.792 243.61 165.96 244.954 165.96ZM256.41 173H257.69V168.68C257.69 166.888 258.858 166.04 259.866 166.04C260.378 166.04 260.602 166.088 260.842 166.168L261.066 165C260.826 164.872 260.458 164.84 260.186 164.84C258.938 164.84 258.074 165.336 257.626 166.312L257.45 165H256.41V173ZM266.003 164.84C263.747 164.84 262.131 166.408 262.131 169C262.131 171.592 263.747 173.16 266.003 173.16C268.259 173.16 269.875 171.592 269.875 169C269.875 166.408 268.259 164.84 266.003 164.84ZM266.003 165.944C267.619 165.944 268.595 167.096 268.595 169C268.595 170.904 267.619 172.056 266.003 172.056C264.387 172.056 263.411 170.904 263.411 169C263.411 167.096 264.387 165.944 266.003 165.944ZM275.597 164.84C273.341 164.84 271.725 166.408 271.725 169C271.725 171.592 273.341 173.16 275.597 173.16C277.853 173.16 279.469 171.592 279.469 169C279.469 166.408 277.853 164.84 275.597 164.84ZM275.597 165.944C277.213 165.944 278.189 167.096 278.189 169C278.189 170.904 277.213 172.056 275.597 172.056C273.981 172.056 273.005 170.904 273.005 169C273.005 167.096 273.981 165.944 275.597 165.944ZM286.234 171.368C285.866 171.736 285.45 171.96 284.826 171.96C284.122 171.96 283.626 171.576 283.626 170.792V166.104H286.538V165H283.626V162.728L282.346 163.08V165H280.746V166.104H282.346V171.016C282.362 172.568 283.418 173.16 284.65 173.16C285.53 173.16 286.186 172.888 286.682 172.44L286.234 171.368Z" fill="black"/>
<path d="M127.32 150.192C126.616 150.192 125.997 150.08 125.464 149.856C124.931 149.621 124.504 149.301 124.184 148.896C123.864 148.491 123.672 148.021 123.608 147.488H125.672C125.736 147.797 125.907 148.064 126.184 148.288C126.472 148.501 126.84 148.608 127.288 148.608C127.736 148.608 128.061 148.517 128.264 148.336C128.477 148.155 128.584 147.947 128.584 147.712C128.584 147.371 128.435 147.141 128.136 147.024C127.837 146.896 127.421 146.773 126.888 146.656C126.547 146.581 126.2 146.491 125.848 146.384C125.496 146.277 125.171 146.144 124.872 145.984C124.584 145.813 124.349 145.6 124.168 145.344C123.987 145.077 123.896 144.752 123.896 144.368C123.896 143.664 124.173 143.072 124.728 142.592C125.293 142.112 126.083 141.872 127.096 141.872C128.035 141.872 128.781 142.091 129.336 142.528C129.901 142.965 130.237 143.568 130.344 144.336H128.408C128.291 143.749 127.848 143.456 127.08 143.456C126.696 143.456 126.397 143.531 126.184 143.68C125.981 143.829 125.88 144.016 125.88 144.24C125.88 144.475 126.035 144.661 126.344 144.8C126.653 144.939 127.064 145.067 127.576 145.184C128.131 145.312 128.637 145.456 129.096 145.616C129.565 145.765 129.939 145.995 130.216 146.304C130.493 146.603 130.632 147.035 130.632 147.6C130.643 148.091 130.515 148.533 130.248 148.928C129.981 149.323 129.597 149.632 129.096 149.856C128.595 150.08 128.003 150.192 127.32 150.192ZM136.254 150.192C135.486 150.192 134.793 150.016 134.174 149.664C133.566 149.312 133.081 148.827 132.718 148.208C132.366 147.579 132.19 146.853 132.19 146.032C132.19 145.211 132.372 144.491 132.734 143.872C133.097 143.243 133.582 142.752 134.19 142.4C134.809 142.048 135.502 141.872 136.27 141.872C137.028 141.872 137.71 142.048 138.318 142.4C138.937 142.752 139.422 143.243 139.774 143.872C140.137 144.491 140.318 145.211 140.318 146.032C140.318 146.853 140.137 147.579 139.774 148.208C139.422 148.827 138.937 149.312 138.318 149.664C137.7 150.016 137.012 150.192 136.254 150.192ZM136.254 148.416C136.788 148.416 137.252 148.219 137.646 147.824C138.041 147.419 138.238 146.821 138.238 146.032C138.238 145.243 138.041 144.651 137.646 144.256C137.252 143.851 136.793 143.648 136.27 143.648C135.726 143.648 135.257 143.851 134.862 144.256C134.478 144.651 134.286 145.243 134.286 146.032C134.286 146.821 134.478 147.419 134.862 147.824C135.257 148.219 135.721 148.416 136.254 148.416ZM146.01 150V138.8H148.058V150H146.01ZM157.881 150.192C157.07 150.192 156.356 150.016 155.737 149.664C155.118 149.312 154.628 148.821 154.265 148.192C153.913 147.563 153.737 146.843 153.737 146.032C153.737 145.221 153.913 144.501 154.265 143.872C154.628 143.243 155.118 142.752 155.737 142.4C156.356 142.048 157.07 141.872 157.881 141.872C158.894 141.872 159.748 142.139 160.441 142.672C161.134 143.195 161.577 143.92 161.769 144.848H159.609C159.502 144.464 159.289 144.165 158.969 143.952C158.66 143.728 158.292 143.616 157.865 143.616C157.3 143.616 156.82 143.829 156.425 144.256C156.03 144.683 155.833 145.275 155.833 146.032C155.833 146.789 156.03 147.381 156.425 147.808C156.82 148.235 157.3 148.448 157.865 148.448C158.292 148.448 158.66 148.341 158.969 148.128C159.289 147.915 159.502 147.611 159.609 147.216H161.769C161.577 148.112 161.134 148.832 160.441 149.376C159.748 149.92 158.894 150.192 157.881 150.192ZM166.323 150.192C165.64 150.192 165.08 150.085 164.643 149.872C164.206 149.648 163.88 149.355 163.667 148.992C163.454 148.629 163.347 148.229 163.347 147.792C163.347 147.056 163.635 146.459 164.211 146C164.787 145.541 165.651 145.312 166.803 145.312H168.819V145.12C168.819 144.576 168.664 144.176 168.355 143.92C168.046 143.664 167.662 143.536 167.203 143.536C166.787 143.536 166.424 143.637 166.115 143.84C165.806 144.032 165.614 144.32 165.539 144.704H163.539C163.592 144.128 163.784 143.627 164.115 143.2C164.456 142.773 164.894 142.448 165.427 142.224C165.96 141.989 166.558 141.872 167.219 141.872C168.35 141.872 169.24 142.155 169.891 142.72C170.542 143.285 170.867 144.085 170.867 145.12V150H169.123L168.931 148.72C168.696 149.147 168.366 149.499 167.939 149.776C167.523 150.053 166.984 150.192 166.323 150.192ZM166.787 148.592C167.374 148.592 167.827 148.4 168.147 148.016C168.478 147.632 168.686 147.157 168.771 146.592H167.027C166.483 146.592 166.094 146.693 165.859 146.896C165.624 147.088 165.507 147.328 165.507 147.616C165.507 147.925 165.624 148.165 165.859 148.336C166.094 148.507 166.403 148.592 166.787 148.592ZM172.821 150V142.064H174.629L174.789 143.408C175.035 142.939 175.387 142.565 175.845 142.288C176.315 142.011 176.864 141.872 177.493 141.872C178.475 141.872 179.237 142.181 179.781 142.8C180.325 143.419 180.597 144.325 180.597 145.52V150H178.549V145.712C178.549 145.029 178.411 144.507 178.133 144.144C177.856 143.781 177.424 143.6 176.837 143.6C176.261 143.6 175.787 143.803 175.413 144.208C175.051 144.613 174.869 145.179 174.869 145.904V150H172.821Z" fill="#03AB83"/>
<rect x="123" y="179" width="164" height="3" fill="#03AB83"/>
<path d="M4.368 244.16C6.256 244.16 7.552 243.184 7.552 241.664C7.552 240.688 7.024 239.984 5.536 239.68L3.536 239.264C2.656 239.088 2.4 238.656 2.4 238.192C2.4 237.488 3.072 236.96 4.224 236.96C5.088 236.96 6 237.376 6.368 238.32L7.44 237.616C6.912 236.496 5.792 235.84 4.224 235.84C2.336 235.84 1.136 236.944 1.136 238.24C1.136 239.344 1.76 240.112 3.312 240.432L5.232 240.832C6.048 241.008 6.272 241.408 6.272 241.856C6.272 242.56 5.584 243.04 4.464 243.04C3.184 243.04 2.256 242.464 1.792 241.472L0.704 242.256C1.408 243.472 2.816 244.16 4.368 244.16ZM14.4215 242.368C14.0535 242.736 13.6375 242.96 13.0135 242.96C12.3095 242.96 11.8135 242.576 11.8135 241.792V237.104H14.7255V236H11.8135V233.728L10.5335 234.08V236H8.9335V237.104H10.5335V242.016C10.5495 243.568 11.6055 244.16 12.8375 244.16C13.7175 244.16 14.3735 243.888 14.8695 243.44L14.4215 242.368ZM23.4286 239.472C23.4286 237.424 22.1326 235.84 19.8926 235.84C17.6686 235.84 16.0686 237.408 16.0686 240C16.0686 242.592 17.6846 244.16 19.9726 244.16C21.5246 244.16 22.6606 243.472 23.2686 242.384L22.2606 241.792C21.8126 242.56 21.1086 243.04 19.9406 243.04C18.4366 243.04 17.4606 242.048 17.3326 240.368H23.3646C23.3966 240.144 23.4286 239.84 23.4286 239.472ZM19.8606 236.96C21.1886 236.96 22.1006 237.776 22.1486 239.232H17.3806C17.6046 237.792 18.5166 236.96 19.8606 236.96ZM25.863 244H27.143V239.728C27.143 237.744 28.455 236.96 29.511 236.96C30.567 236.96 31.399 237.552 31.399 239.008V244H32.679V239.616C32.679 237.904 33.799 236.96 35.047 236.96C36.103 236.96 36.935 237.552 36.935 239.008V244H38.215V238.88C38.215 236.768 36.695 235.84 35.159 235.84C34.151 235.84 32.871 236.32 32.375 237.408C31.847 236.336 30.743 235.84 29.623 235.84C28.631 235.84 27.639 236.272 27.063 237.248L26.983 236H25.863V244ZM43.993 244.16C45.881 244.16 47.177 243.184 47.177 241.664C47.177 240.688 46.649 239.984 45.161 239.68L43.161 239.264C42.281 239.088 42.025 238.656 42.025 238.192C42.025 237.488 42.697 236.96 43.849 236.96C44.713 236.96 45.625 237.376 45.993 238.32L47.065 237.616C46.537 236.496 45.417 235.84 43.849 235.84C41.961 235.84 40.761 236.944 40.761 238.24C40.761 239.344 41.385 240.112 42.937 240.432L44.857 240.832C45.673 241.008 45.897 241.408 45.897 241.856C45.897 242.56 45.209 243.04 44.089 243.04C42.809 243.04 41.881 242.464 41.417 241.472L40.329 242.256C41.033 243.472 42.441 244.16 43.993 244.16ZM56.6108 234.784C56.6108 233.824 57.1388 233.408 58.0668 233.408C58.4348 233.408 58.7228 233.488 58.9788 233.648L59.3148 232.608C59.0268 232.368 58.5148 232.24 57.9548 232.24C56.1948 232.24 55.3307 233.232 55.3307 234.656V236H53.7308V237.104H55.3307V244H56.6108V237.104H59.2828V236H56.6108V234.784ZM60.988 244H62.268V239.68C62.268 237.888 63.436 237.04 64.444 237.04C64.956 237.04 65.18 237.088 65.42 237.168L65.644 236C65.404 235.872 65.036 235.84 64.764 235.84C63.516 235.84 62.652 236.336 62.204 237.312L62.028 236H60.988V244ZM70.5813 235.84C68.3253 235.84 66.7093 237.408 66.7093 240C66.7093 242.592 68.3253 244.16 70.5813 244.16C72.8373 244.16 74.4533 242.592 74.4533 240C74.4533 237.408 72.8373 235.84 70.5813 235.84ZM70.5813 236.944C72.1973 236.944 73.1733 238.096 73.1733 240C73.1733 241.904 72.1973 243.056 70.5813 243.056C68.9653 243.056 67.9893 241.904 67.9893 240C67.9893 238.096 68.9653 236.944 70.5813 236.944ZM76.863 244H78.143V239.728C78.143 237.744 79.455 236.96 80.511 236.96C81.567 236.96 82.399 237.552 82.399 239.008V244H83.679V239.616C83.679 237.904 84.799 236.96 86.047 236.96C87.103 236.96 87.935 237.552 87.935 239.008V244H89.215V238.88C89.215 236.768 87.695 235.84 86.159 235.84C85.151 235.84 83.871 236.32 83.375 237.408C82.847 236.336 81.743 235.84 80.623 235.84C79.631 235.84 78.639 236.272 78.063 237.248L77.983 236H76.863V244ZM104.126 243.024C103.726 243.024 103.518 242.832 103.518 242.448V238.576C103.518 236.704 102.158 235.84 100.43 235.84C98.7181 235.84 97.5341 236.64 97.1021 237.84L98.1421 238.48C98.4941 237.424 99.2941 236.96 100.398 236.96C101.566 236.96 102.238 237.648 102.238 238.832V239.136L99.3261 239.712C97.9021 240 97.0541 240.784 97.0541 241.984C97.0541 243.44 98.2701 244.16 99.6941 244.16C100.622 244.16 101.694 243.776 102.254 242.944C102.398 243.728 103.038 244.112 103.822 244.112C104.174 244.112 104.462 244.048 104.654 243.952L104.718 242.944C104.542 242.992 104.302 243.024 104.126 243.024ZM99.8701 243.04C98.9101 243.04 98.3661 242.576 98.3661 241.92C98.3661 241.232 98.8621 240.896 99.9181 240.672L102.238 240.192V241.04C102.238 242.416 101.102 243.04 99.8701 243.04ZM117.483 232.32V237.296C117.051 236.416 116.107 235.84 114.955 235.84C112.955 235.84 111.179 237.344 111.179 240C111.179 242.608 112.843 244.16 114.827 244.16C116.011 244.16 117.131 243.568 117.563 242.496L117.643 244H118.763V232.32H117.483ZM114.955 243.04C113.371 243.04 112.459 241.84 112.459 240C112.459 238.16 113.403 236.96 115.019 236.96C116.475 236.96 117.483 238.064 117.483 239.888C117.483 241.824 116.475 243.04 114.955 243.04ZM128.538 239.472C128.538 237.424 127.242 235.84 125.002 235.84C122.778 235.84 121.178 237.408 121.178 240C121.178 242.592 122.794 244.16 125.082 244.16C126.634 244.16 127.77 243.472 128.378 242.384L127.37 241.792C126.922 242.56 126.218 243.04 125.05 243.04C123.546 243.04 122.57 242.048 122.442 240.368H128.474C128.506 240.144 128.538 239.84 128.538 239.472ZM124.97 236.96C126.298 236.96 127.21 237.776 127.258 239.232H122.49C122.714 237.792 123.626 236.96 124.97 236.96ZM134.94 235.84C133.692 235.84 132.652 236.48 132.172 237.408L132.092 236H130.972V247.36H132.252V242.752C132.748 243.584 133.708 244.16 134.892 244.16C136.86 244.16 138.556 242.608 138.556 240C138.556 237.392 136.892 235.84 134.94 235.84ZM134.764 243.04C133.244 243.04 132.252 241.84 132.252 240C132.252 238.16 133.276 236.96 134.812 236.96C136.364 236.96 137.276 238.16 137.276 240C137.276 241.84 136.332 243.04 134.764 243.04ZM147.804 239.472C147.804 237.424 146.508 235.84 144.268 235.84C142.044 235.84 140.444 237.408 140.444 240C140.444 242.592 142.06 244.16 144.348 244.16C145.9 244.16 147.036 243.472 147.644 242.384L146.636 241.792C146.188 242.56 145.484 243.04 144.316 243.04C142.812 243.04 141.836 242.048 141.708 240.368H147.74C147.772 240.144 147.804 239.84 147.804 239.472ZM144.236 236.96C145.564 236.96 146.476 237.776 146.524 239.232H141.756C141.98 237.792 142.892 236.96 144.236 236.96ZM154.126 235.84C153.022 235.84 151.998 236.24 151.438 237.248L151.358 236H150.238V244H151.518V239.744C151.518 237.696 152.83 236.96 153.998 236.96C155.102 236.96 155.966 237.552 155.966 239.328V244H157.246V238.88C157.246 236.816 155.838 235.84 154.126 235.84ZM165.92 232.32V237.296C165.488 236.416 164.544 235.84 163.392 235.84C161.392 235.84 159.616 237.344 159.616 240C159.616 242.608 161.28 244.16 163.264 244.16C164.448 244.16 165.568 243.568 166 242.496L166.08 244H167.2V232.32H165.92ZM163.392 243.04C161.808 243.04 160.896 241.84 160.896 240C160.896 238.16 161.84 236.96 163.456 236.96C164.912 236.96 165.92 238.064 165.92 239.888C165.92 241.824 164.912 243.04 163.392 243.04ZM176.976 239.472C176.976 237.424 175.68 235.84 173.44 235.84C171.216 235.84 169.616 237.408 169.616 240C169.616 242.592 171.232 244.16 173.52 244.16C175.072 244.16 176.208 243.472 176.816 242.384L175.808 241.792C175.36 242.56 174.656 243.04 173.488 243.04C171.984 243.04 171.008 242.048 170.88 240.368H176.911C176.944 240.144 176.976 239.84 176.976 239.472ZM173.408 236.96C174.736 236.96 175.648 237.776 175.696 239.232H170.928C171.152 237.792 172.064 236.96 173.408 236.96ZM183.298 235.84C182.194 235.84 181.17 236.24 180.61 237.248L180.53 236H179.41V244H180.69V239.744C180.69 237.696 182.002 236.96 183.17 236.96C184.274 236.96 185.138 237.552 185.138 239.328V244H186.418V238.88C186.418 236.816 185.01 235.84 183.298 235.84ZM192.628 235.84C190.372 235.84 188.756 237.408 188.756 240C188.756 242.592 190.372 244.16 192.628 244.16C194.324 244.16 195.476 243.28 196.02 241.808L194.836 241.392C194.596 242.448 193.844 243.04 192.596 243.04C190.996 243.04 190.036 241.904 190.036 240C190.036 238.096 190.996 236.96 192.596 236.96C193.7 236.96 194.388 237.52 194.724 238.544L195.94 237.968C195.348 236.656 194.276 235.84 192.628 235.84ZM204.548 236H203.172L201.3 241.056L200.724 242.64L200.228 241.216L198.228 236H196.772L200.116 243.984L199.7 245.024C199.3 246.08 198.804 246.32 198.244 246.32C197.78 246.32 197.268 246.144 196.852 245.76L196.5 246.88C196.964 247.232 197.572 247.44 198.308 247.44C199.444 247.44 200.164 246.912 200.788 245.344L204.548 236Z" fill="black"/>
<rect y="249" width="206" height="3" fill="#03AB83"/>
</svg>
