<svg width="300" height="337" viewBox="0 0 300 337" fill="none" xmlns="http://www.w3.org/2000/svg">
<rect x="0.5" y="0.5" width="299" height="336" stroke="#DEDEDE"/>
<path d="M44.9242 41.252V28.652H47.2282V33.89H52.8802V28.652H55.1842V41.252H52.8802V35.762H47.2282V41.252H44.9242ZM61.8632 41.468C60.9992 41.468 60.2192 41.27 59.5232 40.874C58.8392 40.478 58.2932 39.932 57.8852 39.236C57.4892 38.528 57.2912 37.712 57.2912 36.788C57.2912 35.864 57.4952 35.054 57.9032 34.358C58.3112 33.65 58.8572 33.098 59.5412 32.702C60.2372 32.306 61.0172 32.108 61.8812 32.108C62.7332 32.108 63.5012 32.306 64.1852 32.702C64.8812 33.098 65.4272 33.65 65.8232 34.358C66.2312 35.054 66.4352 35.864 66.4352 36.788C66.4352 37.712 66.2312 38.528 65.8232 39.236C65.4272 39.932 64.8812 40.478 64.1852 40.874C63.4892 41.27 62.7152 41.468 61.8632 41.468ZM61.8632 39.47C62.4632 39.47 62.9852 39.248 63.4292 38.804C63.8732 38.348 64.0952 37.676 64.0952 36.788C64.0952 35.9 63.8732 35.234 63.4292 34.79C62.9852 34.334 62.4692 34.106 61.8812 34.106C61.2692 34.106 60.7412 34.334 60.2972 34.79C59.8652 35.234 59.6492 35.9 59.6492 36.788C59.6492 37.676 59.8652 38.348 60.2972 38.804C60.7412 39.248 61.2632 39.47 61.8632 39.47ZM69.9248 41.252L67.3148 32.324H69.6008L71.1488 38.75L72.9488 32.324H75.5048L77.3048 38.75L78.8708 32.324H81.1568L78.5288 41.252H76.1348L74.2268 34.574L72.3188 41.252H69.9248ZM91.0035 41.468C90.1635 41.468 89.4135 41.264 88.7535 40.856C88.0935 40.448 87.5715 39.89 87.1875 39.182C86.8035 38.474 86.6115 37.67 86.6115 36.77C86.6115 35.87 86.8035 35.072 87.1875 34.376C87.5715 33.668 88.0935 33.116 88.7535 32.72C89.4135 32.312 90.1635 32.108 91.0035 32.108C91.6755 32.108 92.2635 32.234 92.7675 32.486C93.2715 32.738 93.6795 33.092 93.9915 33.548V28.292H96.2955V41.252H94.2435L93.9915 39.974C93.7035 40.37 93.3195 40.718 92.8395 41.018C92.3715 41.318 91.7595 41.468 91.0035 41.468ZM91.4895 39.452C92.2335 39.452 92.8395 39.206 93.3075 38.714C93.7875 38.21 94.0275 37.568 94.0275 36.788C94.0275 36.008 93.7875 35.372 93.3075 34.88C92.8395 34.376 92.2335 34.124 91.4895 34.124C90.7575 34.124 90.1515 34.37 89.6715 34.862C89.1915 35.354 88.9515 35.99 88.9515 36.77C88.9515 37.55 89.1915 38.192 89.6715 38.696C90.1515 39.2 90.7575 39.452 91.4895 39.452ZM102.926 41.468C102.062 41.468 101.282 41.27 100.586 40.874C99.9017 40.478 99.3557 39.932 98.9477 39.236C98.5517 38.528 98.3537 37.712 98.3537 36.788C98.3537 35.864 98.5577 35.054 98.9657 34.358C99.3737 33.65 99.9197 33.098 100.604 32.702C101.3 32.306 102.08 32.108 102.944 32.108C103.796 32.108 104.564 32.306 105.248 32.702C105.944 33.098 106.49 33.65 106.886 34.358C107.294 35.054 107.498 35.864 107.498 36.788C107.498 37.712 107.294 38.528 106.886 39.236C106.49 39.932 105.944 40.478 105.248 40.874C104.552 41.27 103.778 41.468 102.926 41.468ZM102.926 39.47C103.526 39.47 104.048 39.248 104.492 38.804C104.936 38.348 105.158 37.676 105.158 36.788C105.158 35.9 104.936 35.234 104.492 34.79C104.048 34.334 103.532 34.106 102.944 34.106C102.332 34.106 101.804 34.334 101.36 34.79C100.928 35.234 100.712 35.9 100.712 36.788C100.712 37.676 100.928 38.348 101.36 38.804C101.804 39.248 102.326 39.47 102.926 39.47ZM114.963 45.212L117.033 40.658H116.493L113.019 32.324H115.521L118.023 38.606L120.633 32.324H123.081L117.411 45.212H114.963ZM128.098 41.468C127.234 41.468 126.454 41.27 125.758 40.874C125.074 40.478 124.528 39.932 124.12 39.236C123.724 38.528 123.526 37.712 123.526 36.788C123.526 35.864 123.73 35.054 124.138 34.358C124.546 33.65 125.092 33.098 125.776 32.702C126.472 32.306 127.252 32.108 128.116 32.108C128.968 32.108 129.736 32.306 130.42 32.702C131.116 33.098 131.662 33.65 132.058 34.358C132.466 35.054 132.67 35.864 132.67 36.788C132.67 37.712 132.466 38.528 132.058 39.236C131.662 39.932 131.116 40.478 130.42 40.874C129.724 41.27 128.95 41.468 128.098 41.468ZM128.098 39.47C128.698 39.47 129.22 39.248 129.664 38.804C130.108 38.348 130.33 37.676 130.33 36.788C130.33 35.9 130.108 35.234 129.664 34.79C129.22 34.334 128.704 34.106 128.116 34.106C127.504 34.106 126.976 34.334 126.532 34.79C126.1 35.234 125.884 35.9 125.884 36.788C125.884 37.676 126.1 38.348 126.532 38.804C126.976 39.248 127.498 39.47 128.098 39.47ZM138.078 41.468C136.962 41.468 136.098 41.12 135.486 40.424C134.886 39.728 134.586 38.708 134.586 37.364V32.324H136.872V37.148C136.872 37.916 137.028 38.504 137.34 38.912C137.652 39.32 138.144 39.524 138.816 39.524C139.452 39.524 139.974 39.296 140.382 38.84C140.802 38.384 141.012 37.748 141.012 36.932V32.324H143.316V41.252H141.282L141.102 39.74C140.826 40.268 140.424 40.688 139.896 41C139.38 41.312 138.774 41.468 138.078 41.468ZM149.97 41.252V32.324H152.004L152.202 33.53C152.49 33.098 152.868 32.756 153.336 32.504C153.816 32.24 154.368 32.108 154.992 32.108C156.372 32.108 157.35 32.642 157.926 33.71C158.25 33.218 158.682 32.828 159.222 32.54C159.774 32.252 160.374 32.108 161.022 32.108C162.186 32.108 163.08 32.456 163.704 33.152C164.328 33.848 164.64 34.868 164.64 36.212V41.252H162.336V36.428C162.336 35.66 162.186 35.072 161.886 34.664C161.598 34.256 161.148 34.052 160.536 34.052C159.912 34.052 159.408 34.28 159.024 34.736C158.652 35.192 158.466 35.828 158.466 36.644V41.252H156.162V36.428C156.162 35.66 156.012 35.072 155.712 34.664C155.412 34.256 154.95 34.052 154.326 34.052C153.714 34.052 153.216 34.28 152.832 34.736C152.46 35.192 152.274 35.828 152.274 36.644V41.252H149.97ZM169.905 41.468C169.137 41.468 168.507 41.348 168.015 41.108C167.523 40.856 167.157 40.526 166.917 40.118C166.677 39.71 166.557 39.26 166.557 38.768C166.557 37.94 166.881 37.268 167.529 36.752C168.177 36.236 169.149 35.978 170.445 35.978H172.713V35.762C172.713 35.15 172.539 34.7 172.191 34.412C171.843 34.124 171.411 33.98 170.895 33.98C170.427 33.98 170.019 34.094 169.671 34.322C169.323 34.538 169.107 34.862 169.023 35.294H166.773C166.833 34.646 167.049 34.082 167.421 33.602C167.805 33.122 168.297 32.756 168.897 32.504C169.497 32.24 170.169 32.108 170.913 32.108C172.185 32.108 173.187 32.426 173.919 33.062C174.651 33.698 175.017 34.598 175.017 35.762V41.252H173.055L172.839 39.812C172.575 40.292 172.203 40.688 171.723 41C171.255 41.312 170.649 41.468 169.905 41.468ZM170.427 39.668C171.087 39.668 171.597 39.452 171.957 39.02C172.329 38.588 172.563 38.054 172.659 37.418H170.697C170.085 37.418 169.647 37.532 169.383 37.76C169.119 37.976 168.987 38.246 168.987 38.57C168.987 38.918 169.119 39.188 169.383 39.38C169.647 39.572 169.995 39.668 170.427 39.668ZM177.216 41.252V32.324H179.25L179.43 33.836C179.706 33.308 180.102 32.888 180.618 32.576C181.146 32.264 181.764 32.108 182.472 32.108C183.576 32.108 184.434 32.456 185.046 33.152C185.658 33.848 185.964 34.868 185.964 36.212V41.252H183.66V36.428C183.66 35.66 183.504 35.072 183.192 34.664C182.88 34.256 182.394 34.052 181.734 34.052C181.086 34.052 180.552 34.28 180.132 34.736C179.724 35.192 179.52 35.828 179.52 36.644V41.252H177.216ZM191.245 41.468C190.477 41.468 189.847 41.348 189.355 41.108C188.863 40.856 188.497 40.526 188.257 40.118C188.017 39.71 187.897 39.26 187.897 38.768C187.897 37.94 188.221 37.268 188.869 36.752C189.517 36.236 190.489 35.978 191.785 35.978H194.053V35.762C194.053 35.15 193.879 34.7 193.531 34.412C193.183 34.124 192.751 33.98 192.235 33.98C191.767 33.98 191.359 34.094 191.011 34.322C190.663 34.538 190.447 34.862 190.363 35.294H188.113C188.173 34.646 188.389 34.082 188.761 33.602C189.145 33.122 189.637 32.756 190.237 32.504C190.837 32.24 191.509 32.108 192.253 32.108C193.525 32.108 194.527 32.426 195.259 33.062C195.991 33.698 196.357 34.598 196.357 35.762V41.252H194.395L194.179 39.812C193.915 40.292 193.543 40.688 193.063 41C192.595 41.312 191.989 41.468 191.245 41.468ZM191.767 39.668C192.427 39.668 192.937 39.452 193.297 39.02C193.669 38.588 193.903 38.054 193.999 37.418H192.037C191.425 37.418 190.987 37.532 190.723 37.76C190.459 37.976 190.327 38.246 190.327 38.57C190.327 38.918 190.459 39.188 190.723 39.38C190.987 39.572 191.335 39.668 191.767 39.668ZM202.336 38.588C201.904 38.588 201.502 38.54 201.13 38.444L200.464 39.11C200.668 39.218 200.944 39.308 201.292 39.38C201.64 39.452 202.204 39.524 202.984 39.596C204.172 39.704 205.036 39.986 205.576 40.442C206.116 40.898 206.386 41.528 206.386 42.332C206.386 42.86 206.242 43.358 205.954 43.826C205.666 44.306 205.222 44.69 204.622 44.978C204.022 45.278 203.254 45.428 202.318 45.428C201.046 45.428 200.02 45.188 199.24 44.708C198.46 44.24 198.07 43.532 198.07 42.584C198.07 41.78 198.46 41.084 199.24 40.496C199 40.388 198.79 40.274 198.61 40.154C198.442 40.034 198.292 39.908 198.16 39.776V39.362L199.726 37.706C199.03 37.094 198.682 36.308 198.682 35.348C198.682 34.748 198.826 34.202 199.114 33.71C199.414 33.218 199.834 32.828 200.374 32.54C200.914 32.252 201.568 32.108 202.336 32.108C202.84 32.108 203.308 32.18 203.74 32.324H207.124V33.728L205.594 33.836C205.834 34.292 205.954 34.796 205.954 35.348C205.954 35.948 205.81 36.494 205.522 36.986C205.234 37.478 204.814 37.868 204.262 38.156C203.722 38.444 203.08 38.588 202.336 38.588ZM202.336 36.824C202.804 36.824 203.188 36.698 203.488 36.446C203.8 36.194 203.956 35.834 203.956 35.366C203.956 34.898 203.8 34.538 203.488 34.286C203.188 34.034 202.804 33.908 202.336 33.908C201.844 33.908 201.448 34.034 201.148 34.286C200.848 34.538 200.698 34.898 200.698 35.366C200.698 35.834 200.848 36.194 201.148 36.446C201.448 36.698 201.844 36.824 202.336 36.824ZM200.176 42.35C200.176 42.794 200.38 43.124 200.788 43.34C201.208 43.568 201.718 43.682 202.318 43.682C202.894 43.682 203.362 43.562 203.722 43.322C204.082 43.094 204.262 42.782 204.262 42.386C204.262 42.062 204.142 41.792 203.902 41.576C203.674 41.36 203.212 41.228 202.516 41.18C202.024 41.144 201.568 41.09 201.148 41.018C200.8 41.21 200.548 41.42 200.392 41.648C200.248 41.876 200.176 42.11 200.176 42.35ZM212.79 41.468C211.89 41.468 211.092 41.276 210.396 40.892C209.7 40.508 209.154 39.968 208.758 39.272C208.362 38.576 208.164 37.772 208.164 36.86C208.164 35.936 208.356 35.114 208.74 34.394C209.136 33.674 209.676 33.116 210.36 32.72C211.056 32.312 211.872 32.108 212.808 32.108C213.684 32.108 214.458 32.3 215.13 32.684C215.802 33.068 216.324 33.596 216.696 34.268C217.08 34.928 217.272 35.666 217.272 36.482C217.272 36.614 217.266 36.752 217.254 36.896C217.254 37.04 217.248 37.19 217.236 37.346H210.45C210.498 38.042 210.738 38.588 211.17 38.984C211.614 39.38 212.148 39.578 212.772 39.578C213.24 39.578 213.63 39.476 213.942 39.272C214.266 39.056 214.506 38.78 214.662 38.444H217.002C216.834 39.008 216.552 39.524 216.156 39.992C215.772 40.448 215.292 40.808 214.716 41.072C214.152 41.336 213.51 41.468 212.79 41.468ZM212.808 33.98C212.244 33.98 211.746 34.142 211.314 34.466C210.882 34.778 210.606 35.258 210.486 35.906H214.932C214.896 35.318 214.68 34.85 214.284 34.502C213.888 34.154 213.396 33.98 212.808 33.98ZM224.615 45.212L226.685 40.658H226.145L222.671 32.324H225.173L227.675 38.606L230.285 32.324H232.733L227.063 45.212H224.615ZM237.75 41.468C236.886 41.468 236.106 41.27 235.41 40.874C234.726 40.478 234.18 39.932 233.772 39.236C233.376 38.528 233.178 37.712 233.178 36.788C233.178 35.864 233.382 35.054 233.79 34.358C234.198 33.65 234.744 33.098 235.428 32.702C236.124 32.306 236.904 32.108 237.768 32.108C238.62 32.108 239.388 32.306 240.072 32.702C240.768 33.098 241.314 33.65 241.71 34.358C242.118 35.054 242.322 35.864 242.322 36.788C242.322 37.712 242.118 38.528 241.71 39.236C241.314 39.932 240.768 40.478 240.072 40.874C239.376 41.27 238.602 41.468 237.75 41.468ZM237.75 39.47C238.35 39.47 238.872 39.248 239.316 38.804C239.76 38.348 239.982 37.676 239.982 36.788C239.982 35.9 239.76 35.234 239.316 34.79C238.872 34.334 238.356 34.106 237.768 34.106C237.156 34.106 236.628 34.334 236.184 34.79C235.752 35.234 235.536 35.9 235.536 36.788C235.536 37.676 235.752 38.348 236.184 38.804C236.628 39.248 237.15 39.47 237.75 39.47ZM247.73 41.468C246.614 41.468 245.75 41.12 245.138 40.424C244.538 39.728 244.238 38.708 244.238 37.364V32.324H246.524V37.148C246.524 37.916 246.68 38.504 246.992 38.912C247.304 39.32 247.796 39.524 248.468 39.524C249.104 39.524 249.626 39.296 250.034 38.84C250.454 38.384 250.664 37.748 250.664 36.932V32.324H252.968V41.252H250.934L250.754 39.74C250.478 40.268 250.076 40.688 249.548 41C249.032 41.312 248.426 41.468 247.73 41.468ZM255.333 41.252V32.324H257.385L257.601 33.998C257.925 33.422 258.363 32.966 258.915 32.63C259.479 32.282 260.139 32.108 260.895 32.108V34.538H260.247C259.743 34.538 259.293 34.616 258.897 34.772C258.501 34.928 258.189 35.198 257.961 35.582C257.745 35.966 257.637 36.5 257.637 37.184V41.252H255.333ZM106.872 63.468C106.008 63.468 105.228 63.27 104.532 62.874C103.848 62.478 103.302 61.932 102.894 61.236C102.498 60.528 102.3 59.712 102.3 58.788C102.3 57.864 102.504 57.054 102.912 56.358C103.32 55.65 103.866 55.098 104.55 54.702C105.246 54.306 106.026 54.108 106.89 54.108C107.742 54.108 108.51 54.306 109.194 54.702C109.89 55.098 110.436 55.65 110.832 56.358C111.24 57.054 111.444 57.864 111.444 58.788C111.444 59.712 111.24 60.528 110.832 61.236C110.436 61.932 109.89 62.478 109.194 62.874C108.498 63.27 107.724 63.468 106.872 63.468ZM106.872 61.47C107.472 61.47 107.994 61.248 108.438 60.804C108.882 60.348 109.104 59.676 109.104 58.788C109.104 57.9 108.882 57.234 108.438 56.79C107.994 56.334 107.478 56.106 106.89 56.106C106.278 56.106 105.75 56.334 105.306 56.79C104.874 57.234 104.658 57.9 104.658 58.788C104.658 59.676 104.874 60.348 105.306 60.804C105.75 61.248 106.272 61.47 106.872 61.47ZM113.504 63.252V54.324H115.538L115.718 55.836C115.994 55.308 116.39 54.888 116.906 54.576C117.434 54.264 118.052 54.108 118.76 54.108C119.864 54.108 120.722 54.456 121.334 55.152C121.946 55.848 122.252 56.868 122.252 58.212V63.252H119.948V58.428C119.948 57.66 119.792 57.072 119.48 56.664C119.168 56.256 118.682 56.052 118.022 56.052C117.374 56.052 116.84 56.28 116.42 56.736C116.012 57.192 115.808 57.828 115.808 58.644V63.252H113.504ZM124.455 63.252V50.292H126.759V63.252H124.455ZM130.355 52.938C129.935 52.938 129.587 52.812 129.311 52.56C129.047 52.308 128.915 51.99 128.915 51.606C128.915 51.222 129.047 50.91 129.311 50.67C129.587 50.418 129.935 50.292 130.355 50.292C130.775 50.292 131.117 50.418 131.381 50.67C131.657 50.91 131.795 51.222 131.795 51.606C131.795 51.99 131.657 52.308 131.381 52.56C131.117 52.812 130.775 52.938 130.355 52.938ZM129.203 63.252V54.324H131.507V63.252H129.203ZM133.912 63.252V54.324H135.946L136.126 55.836C136.402 55.308 136.798 54.888 137.314 54.576C137.842 54.264 138.46 54.108 139.168 54.108C140.272 54.108 141.13 54.456 141.742 55.152C142.354 55.848 142.66 56.868 142.66 58.212V63.252H140.356V58.428C140.356 57.66 140.2 57.072 139.888 56.664C139.576 56.256 139.09 56.052 138.43 56.052C137.782 56.052 137.248 56.28 136.828 56.736C136.42 57.192 136.216 57.828 136.216 58.644V63.252H133.912ZM149.201 63.468C148.301 63.468 147.503 63.276 146.807 62.892C146.111 62.508 145.565 61.968 145.169 61.272C144.773 60.576 144.575 59.772 144.575 58.86C144.575 57.936 144.767 57.114 145.151 56.394C145.547 55.674 146.087 55.116 146.771 54.72C147.467 54.312 148.283 54.108 149.219 54.108C150.095 54.108 150.869 54.3 151.541 54.684C152.213 55.068 152.735 55.596 153.107 56.268C153.491 56.928 153.683 57.666 153.683 58.482C153.683 58.614 153.677 58.752 153.665 58.896C153.665 59.04 153.659 59.19 153.647 59.346H146.861C146.909 60.042 147.149 60.588 147.581 60.984C148.025 61.38 148.559 61.578 149.183 61.578C149.651 61.578 150.041 61.476 150.353 61.272C150.677 61.056 150.917 60.78 151.073 60.444H153.413C153.245 61.008 152.963 61.524 152.567 61.992C152.183 62.448 151.703 62.808 151.127 63.072C150.563 63.336 149.921 63.468 149.201 63.468ZM149.219 55.98C148.655 55.98 148.157 56.142 147.725 56.466C147.293 56.778 147.017 57.258 146.897 57.906H151.343C151.307 57.318 151.091 56.85 150.695 56.502C150.299 56.154 149.807 55.98 149.219 55.98ZM160.324 63.252V56.25H159.1V54.324H160.324V53.28C160.324 52.2 160.594 51.432 161.134 50.976C161.686 50.52 162.43 50.292 163.366 50.292H164.356V52.254H163.726C163.33 52.254 163.048 52.332 162.88 52.488C162.712 52.644 162.628 52.908 162.628 53.28V54.324H168.388V63.252H166.084V56.25H162.628V63.252H160.324ZM167.254 53.046C166.834 53.046 166.486 52.92 166.21 52.668C165.946 52.416 165.814 52.098 165.814 51.714C165.814 51.33 165.946 51.018 166.21 50.778C166.486 50.526 166.834 50.4 167.254 50.4C167.674 50.4 168.016 50.526 168.28 50.778C168.556 51.018 168.694 51.33 168.694 51.714C168.694 52.098 168.556 52.416 168.28 52.668C168.016 52.92 167.674 53.046 167.254 53.046ZM170.826 63.252V50.292H173.13V63.252H170.826ZM179.822 63.468C178.922 63.468 178.124 63.276 177.428 62.892C176.732 62.508 176.186 61.968 175.79 61.272C175.394 60.576 175.196 59.772 175.196 58.86C175.196 57.936 175.388 57.114 175.772 56.394C176.168 55.674 176.708 55.116 177.392 54.72C178.088 54.312 178.904 54.108 179.84 54.108C180.716 54.108 181.49 54.3 182.162 54.684C182.834 55.068 183.356 55.596 183.728 56.268C184.112 56.928 184.304 57.666 184.304 58.482C184.304 58.614 184.298 58.752 184.286 58.896C184.286 59.04 184.28 59.19 184.268 59.346H177.482C177.53 60.042 177.77 60.588 178.202 60.984C178.646 61.38 179.18 61.578 179.804 61.578C180.272 61.578 180.662 61.476 180.974 61.272C181.298 61.056 181.538 60.78 181.694 60.444H184.034C183.866 61.008 183.584 61.524 183.188 61.992C182.804 62.448 182.324 62.808 181.748 63.072C181.184 63.336 180.542 63.468 179.822 63.468ZM179.84 55.98C179.276 55.98 178.778 56.142 178.346 56.466C177.914 56.778 177.638 57.258 177.518 57.906H181.964C181.928 57.318 181.712 56.85 181.316 56.502C180.92 56.154 180.428 55.98 179.84 55.98ZM189.932 63.468C189.14 63.468 188.444 63.342 187.844 63.09C187.244 62.826 186.764 62.466 186.404 62.01C186.044 61.554 185.828 61.026 185.756 60.426H188.078C188.15 60.774 188.342 61.074 188.654 61.326C188.978 61.566 189.392 61.686 189.896 61.686C190.4 61.686 190.766 61.584 190.994 61.38C191.234 61.176 191.354 60.942 191.354 60.678C191.354 60.294 191.186 60.036 190.85 59.904C190.514 59.76 190.046 59.622 189.446 59.49C189.062 59.406 188.672 59.304 188.276 59.184C187.88 59.064 187.514 58.914 187.178 58.734C186.854 58.542 186.59 58.302 186.386 58.014C186.182 57.714 186.08 57.348 186.08 56.916C186.08 56.124 186.392 55.458 187.016 54.918C187.652 54.378 188.54 54.108 189.68 54.108C190.736 54.108 191.576 54.354 192.2 54.846C192.836 55.338 193.214 56.016 193.334 56.88H191.156C191.024 56.22 190.526 55.89 189.662 55.89C189.23 55.89 188.894 55.974 188.654 56.142C188.426 56.31 188.312 56.52 188.312 56.772C188.312 57.036 188.486 57.246 188.834 57.402C189.182 57.558 189.644 57.702 190.22 57.834C190.844 57.978 191.414 58.14 191.93 58.32C192.458 58.488 192.878 58.746 193.19 59.094C193.502 59.43 193.658 59.916 193.658 60.552C193.67 61.104 193.526 61.602 193.226 62.046C192.926 62.49 192.494 62.838 191.93 63.09C191.366 63.342 190.7 63.468 189.932 63.468ZM196.556 59.328L196.484 56.358H197.312C197.924 56.358 198.482 56.304 198.986 56.196C199.49 56.088 199.892 55.878 200.192 55.566C200.492 55.254 200.642 54.798 200.642 54.198C200.642 53.622 200.468 53.172 200.12 52.848C199.772 52.512 199.31 52.344 198.734 52.344C198.134 52.344 197.666 52.512 197.33 52.848C196.994 53.172 196.826 53.616 196.826 54.18H194.648C194.636 53.46 194.792 52.818 195.116 52.254C195.44 51.69 195.908 51.246 196.52 50.922C197.144 50.598 197.888 50.436 198.752 50.436C199.556 50.436 200.264 50.586 200.876 50.886C201.5 51.186 201.986 51.618 202.334 52.182C202.694 52.734 202.874 53.412 202.874 54.216C202.874 55.044 202.688 55.728 202.316 56.268C201.956 56.808 201.458 57.21 200.822 57.474C200.198 57.738 199.472 57.876 198.644 57.888L198.59 59.328H196.556ZM197.582 63.378C197.162 63.378 196.814 63.246 196.538 62.982C196.274 62.718 196.142 62.4 196.142 62.028C196.142 61.644 196.274 61.32 196.538 61.056C196.814 60.792 197.162 60.66 197.582 60.66C198.002 60.66 198.344 60.792 198.608 61.056C198.872 61.32 199.004 61.644 199.004 62.028C199.004 62.4 198.872 62.718 198.608 62.982C198.344 63.246 198.002 63.378 197.582 63.378Z" fill="#323232"/>
<rect x="28" y="156" width="247" height="23" rx="6" fill="black"/>
<path d="M40.5011 171.286V162.186H43.6861C44.3968 162.186 44.9861 162.307 45.4541 162.55C45.9221 162.784 46.2688 163.109 46.4941 163.525C46.7281 163.932 46.8451 164.396 46.8451 164.916C46.8451 165.41 46.7325 165.865 46.5071 166.281C46.2905 166.688 45.9481 167.013 45.4801 167.256C45.0121 167.498 44.4141 167.62 43.6861 167.62H41.8791V171.286H40.5011ZM41.8791 166.489H43.6211C44.2711 166.489 44.7348 166.35 45.0121 166.073C45.2981 165.787 45.4411 165.401 45.4411 164.916C45.4411 164.413 45.2981 164.023 45.0121 163.746C44.7348 163.46 44.2711 163.317 43.6211 163.317H41.8791V166.489ZM48.1552 171.286V161.926H49.5332V165.878C49.7498 165.505 50.0488 165.215 50.4302 165.007C50.8202 164.79 51.2492 164.682 51.7172 164.682C52.4885 164.682 53.0952 164.924 53.5372 165.41C53.9792 165.895 54.2002 166.619 54.2002 167.581V171.286H52.8352V167.724C52.8352 166.476 52.3368 165.852 51.3402 165.852C50.8202 165.852 50.3868 166.034 50.0402 166.398C49.7022 166.762 49.5332 167.282 49.5332 167.958V171.286H48.1552ZM58.8391 171.442C58.2238 171.442 57.6691 171.303 57.1751 171.026C56.6898 170.74 56.3041 170.345 56.0181 169.843C55.7321 169.331 55.5891 168.738 55.5891 168.062C55.5891 167.386 55.7321 166.796 56.0181 166.294C56.3128 165.782 56.7071 165.388 57.2011 165.111C57.6951 164.825 58.2455 164.682 58.8521 164.682C59.4675 164.682 60.0178 164.825 60.5031 165.111C60.9971 165.388 61.3871 165.782 61.6731 166.294C61.9678 166.796 62.1151 167.386 62.1151 168.062C62.1151 168.738 61.9678 169.331 61.6731 169.843C61.3871 170.345 60.9971 170.74 60.5031 171.026C60.0091 171.303 59.4545 171.442 58.8391 171.442ZM58.8391 170.259C59.1685 170.259 59.4718 170.176 59.7491 170.012C60.0351 169.847 60.2648 169.604 60.4381 169.284C60.6115 168.954 60.6981 168.547 60.6981 168.062C60.6981 167.576 60.6115 167.173 60.4381 166.853C60.2735 166.523 60.0481 166.276 59.7621 166.112C59.4848 165.947 59.1815 165.865 58.8521 165.865C58.5228 165.865 58.2151 165.947 57.9291 166.112C57.6518 166.276 57.4265 166.523 57.2531 166.853C57.0798 167.173 56.9931 167.576 56.9931 168.062C56.9931 168.547 57.0798 168.954 57.2531 169.284C57.4265 169.604 57.6518 169.847 57.9291 170.012C58.2065 170.176 58.5098 170.259 58.8391 170.259ZM66.0555 171.286C65.4228 171.286 64.9201 171.134 64.5475 170.831C64.1748 170.519 63.9885 169.968 63.9885 169.18V165.995H62.8835V164.838H63.9885L64.1575 163.2H65.3665V164.838H67.1865V165.995H65.3665V169.18C65.3665 169.535 65.4401 169.782 65.5875 169.921C65.7435 170.051 66.0078 170.116 66.3805 170.116H67.1215V171.286H66.0555ZM71.4583 171.442C70.843 171.442 70.2883 171.303 69.7943 171.026C69.309 170.74 68.9233 170.345 68.6373 169.843C68.3513 169.331 68.2083 168.738 68.2083 168.062C68.2083 167.386 68.3513 166.796 68.6373 166.294C68.932 165.782 69.3263 165.388 69.8203 165.111C70.3143 164.825 70.8646 164.682 71.4713 164.682C72.0866 164.682 72.637 164.825 73.1223 165.111C73.6163 165.388 74.0063 165.782 74.2923 166.294C74.587 166.796 74.7343 167.386 74.7343 168.062C74.7343 168.738 74.587 169.331 74.2923 169.843C74.0063 170.345 73.6163 170.74 73.1223 171.026C72.6283 171.303 72.0736 171.442 71.4583 171.442ZM71.4583 170.259C71.7876 170.259 72.091 170.176 72.3683 170.012C72.6543 169.847 72.884 169.604 73.0573 169.284C73.2306 168.954 73.3173 168.547 73.3173 168.062C73.3173 167.576 73.2306 167.173 73.0573 166.853C72.8926 166.523 72.6673 166.276 72.3813 166.112C72.104 165.947 71.8006 165.865 71.4713 165.865C71.142 165.865 70.8343 165.947 70.5483 166.112C70.271 166.276 70.0456 166.523 69.8723 166.853C69.699 167.173 69.6123 167.576 69.6123 168.062C69.6123 168.547 69.699 168.954 69.8723 169.284C70.0456 169.604 70.271 169.847 70.5483 170.012C70.8256 170.176 71.129 170.259 71.4583 170.259ZM78.7985 171.442C77.9838 171.442 77.3122 171.242 76.7835 170.844C76.2548 170.445 75.9515 169.916 75.8735 169.258H77.2645C77.3338 169.552 77.4985 169.808 77.7585 170.025C78.0185 170.233 78.3608 170.337 78.7855 170.337C79.2015 170.337 79.5048 170.25 79.6955 170.077C79.8862 169.903 79.9815 169.704 79.9815 169.479C79.9815 169.149 79.8472 168.928 79.5785 168.816C79.3185 168.694 78.9545 168.586 78.4865 168.491C78.1225 168.413 77.7585 168.309 77.3945 168.179C77.0392 168.049 76.7402 167.867 76.4975 167.633C76.2635 167.39 76.1465 167.065 76.1465 166.658C76.1465 166.094 76.3632 165.626 76.7965 165.254C77.2298 164.872 77.8365 164.682 78.6165 164.682C79.3358 164.682 79.9165 164.855 80.3585 165.202C80.8092 165.548 81.0735 166.038 81.1515 166.671H79.8255C79.7822 166.393 79.6522 166.177 79.4355 166.021C79.2275 165.865 78.9458 165.787 78.5905 165.787C78.2438 165.787 77.9752 165.86 77.7845 166.008C77.5938 166.146 77.4985 166.328 77.4985 166.554C77.4985 166.779 77.6285 166.957 77.8885 167.087C78.1572 167.217 78.5082 167.334 78.9415 167.438C79.3748 167.533 79.7735 167.646 80.1375 167.776C80.5102 167.897 80.8092 168.079 81.0345 168.322C81.2598 168.564 81.3725 168.92 81.3725 169.388C81.3812 169.977 81.1515 170.467 80.6835 170.857C80.2242 171.247 79.5958 171.442 78.7985 171.442Z" fill="white"/>
<path d="M239.892 172.442C239.268 172.442 238.705 172.333 238.202 172.117C237.699 171.891 237.296 171.575 236.993 171.168C236.698 170.76 236.551 170.288 236.551 169.751C236.551 169.196 236.694 168.711 236.98 168.295C237.275 167.879 237.66 167.58 238.137 167.398C237.721 167.216 237.392 166.956 237.149 166.618C236.906 166.271 236.785 165.885 236.785 165.461C236.785 165.027 236.902 164.629 237.136 164.265C237.37 163.892 237.717 163.593 238.176 163.368C238.644 163.142 239.216 163.03 239.892 163.03C240.568 163.03 241.136 163.142 241.595 163.368C242.054 163.593 242.401 163.892 242.635 164.265C242.869 164.629 242.986 165.027 242.986 165.461C242.986 165.877 242.86 166.262 242.609 166.618C242.366 166.964 242.041 167.224 241.634 167.398C242.119 167.58 242.505 167.879 242.791 168.295C243.077 168.711 243.22 169.196 243.22 169.751C243.22 170.288 243.073 170.76 242.778 171.168C242.483 171.575 242.08 171.891 241.569 172.117C241.066 172.333 240.507 172.442 239.892 172.442ZM239.892 166.904C240.343 166.904 240.698 166.787 240.958 166.553C241.218 166.319 241.348 166.02 241.348 165.656C241.348 165.257 241.218 164.945 240.958 164.72C240.707 164.494 240.351 164.382 239.892 164.382C239.424 164.382 239.064 164.494 238.813 164.72C238.562 164.945 238.436 165.257 238.436 165.656C238.436 166.028 238.562 166.332 238.813 166.566C239.073 166.791 239.433 166.904 239.892 166.904ZM239.892 171.051C240.447 171.051 240.867 170.916 241.153 170.648C241.439 170.37 241.582 170.024 241.582 169.608C241.582 169.148 241.43 168.789 241.127 168.529C240.832 168.269 240.421 168.139 239.892 168.139C239.363 168.139 238.943 168.269 238.631 168.529C238.328 168.789 238.176 169.148 238.176 169.608C238.176 170.024 238.319 170.37 238.605 170.648C238.9 170.916 239.329 171.051 239.892 171.051ZM249.017 172.286V170.596H244.532V169.27L248.796 163.186H250.681V169.153H251.877V170.596H250.681V172.286H249.017ZM246.313 169.153H249.121V165.019L246.313 169.153ZM254.841 167.658C254.425 167.658 254.048 167.567 253.71 167.385C253.372 167.194 253.103 166.925 252.904 166.579C252.705 166.232 252.605 165.82 252.605 165.344C252.605 164.867 252.705 164.455 252.904 164.109C253.103 163.762 253.372 163.498 253.71 163.316C254.048 163.125 254.429 163.03 254.854 163.03C255.27 163.03 255.643 163.125 255.972 163.316C256.31 163.498 256.579 163.762 256.778 164.109C256.977 164.455 257.077 164.867 257.077 165.344C257.077 165.82 256.977 166.232 256.778 166.579C256.579 166.925 256.31 167.194 255.972 167.385C255.634 167.567 255.257 167.658 254.841 167.658ZM254.347 172.286L259.482 163.186H261.107L255.972 172.286H254.347ZM254.841 166.501C255.092 166.501 255.309 166.405 255.491 166.215C255.673 166.015 255.764 165.725 255.764 165.344C255.764 164.962 255.673 164.672 255.491 164.473C255.318 164.273 255.101 164.174 254.841 164.174C254.581 164.174 254.36 164.273 254.178 164.473C254.005 164.672 253.918 164.962 253.918 165.344C253.918 165.725 254.005 166.015 254.178 166.215C254.36 166.405 254.581 166.501 254.841 166.501ZM260.665 172.442C260.249 172.442 259.872 172.351 259.534 172.169C259.196 171.978 258.927 171.709 258.728 171.363C258.529 171.016 258.429 170.604 258.429 170.128C258.429 169.651 258.529 169.244 258.728 168.906C258.927 168.559 259.196 168.295 259.534 168.113C259.872 167.922 260.253 167.827 260.678 167.827C261.094 167.827 261.467 167.922 261.796 168.113C262.134 168.295 262.403 168.559 262.602 168.906C262.801 169.244 262.901 169.651 262.901 170.128C262.901 170.604 262.801 171.016 262.602 171.363C262.403 171.709 262.134 171.978 261.796 172.169C261.467 172.351 261.09 172.442 260.665 172.442ZM260.665 171.285C260.925 171.285 261.142 171.189 261.315 170.999C261.497 170.799 261.588 170.509 261.588 170.128C261.588 169.746 261.497 169.456 261.315 169.257C261.142 169.057 260.925 168.958 260.665 168.958C260.405 168.958 260.184 169.057 260.002 169.257C259.829 169.456 259.742 169.746 259.742 170.128C259.742 170.509 259.829 170.799 260.002 170.999C260.184 171.189 260.405 171.285 260.665 171.285Z" fill="white"/>
<rect x="27" y="196" width="247" height="23" rx="6" fill="black"/>
<path d="M40.5011 211.286V202.186H43.4521C44.5181 202.186 45.3935 202.372 46.0781 202.745C46.7715 203.117 47.2828 203.646 47.6121 204.331C47.9501 205.007 48.1191 205.813 48.1191 206.749C48.1191 207.676 47.9501 208.482 47.6121 209.167C47.2828 209.843 46.7715 210.367 46.0781 210.74C45.3935 211.104 44.5181 211.286 43.4521 211.286H40.5011ZM41.8791 210.116H43.4001C44.2235 210.116 44.8735 209.981 45.3501 209.713C45.8355 209.444 46.1821 209.058 46.3901 208.556C46.6068 208.053 46.7151 207.451 46.7151 206.749C46.7151 206.047 46.6068 205.44 46.3901 204.929C46.1821 204.417 45.8355 204.027 45.3501 203.759C44.8735 203.481 44.2235 203.343 43.4001 203.343H41.8791V210.116ZM52.6058 211.442C51.9904 211.442 51.4358 211.303 50.9418 211.026C50.4564 210.74 50.0708 210.345 49.7848 209.843C49.4988 209.331 49.3558 208.738 49.3558 208.062C49.3558 207.386 49.4988 206.796 49.7848 206.294C50.0794 205.782 50.4738 205.388 50.9678 205.111C51.4618 204.825 52.0121 204.682 52.6188 204.682C53.2341 204.682 53.7844 204.825 54.2698 205.111C54.7638 205.388 55.1538 205.782 55.4398 206.294C55.7344 206.796 55.8817 207.386 55.8817 208.062C55.8817 208.738 55.7344 209.331 55.4398 209.843C55.1538 210.345 54.7638 210.74 54.2698 211.026C53.7758 211.303 53.2211 211.442 52.6058 211.442ZM52.6058 210.259C52.9351 210.259 53.2384 210.176 53.5158 210.012C53.8018 209.847 54.0314 209.604 54.2048 209.284C54.3781 208.954 54.4648 208.547 54.4648 208.062C54.4648 207.576 54.3781 207.173 54.2048 206.853C54.0401 206.523 53.8148 206.276 53.5288 206.112C53.2514 205.947 52.9481 205.865 52.6188 205.865C52.2894 205.865 51.9818 205.947 51.6958 206.112C51.4184 206.276 51.1931 206.523 51.0198 206.853C50.8464 207.173 50.7598 207.576 50.7598 208.062C50.7598 208.547 50.8464 208.954 51.0198 209.284C51.1931 209.604 51.4184 209.847 51.6958 210.012C51.9731 210.176 52.2764 210.259 52.6058 210.259ZM60.427 211.442C59.7943 211.442 59.2266 211.299 58.724 211.013C58.23 210.727 57.84 210.332 57.554 209.83C57.2766 209.318 57.138 208.729 57.138 208.062C57.138 207.394 57.2766 206.809 57.554 206.307C57.84 205.795 58.23 205.397 58.724 205.111C59.2266 204.825 59.7943 204.682 60.427 204.682C61.2243 204.682 61.8916 204.89 62.429 205.306C62.975 205.722 63.326 206.285 63.482 206.996H62.039C61.9523 206.64 61.7616 206.363 61.467 206.164C61.1723 205.964 60.8256 205.865 60.427 205.865C60.089 205.865 59.777 205.951 59.491 206.125C59.205 206.289 58.9753 206.536 58.802 206.866C58.6286 207.186 58.542 207.585 58.542 208.062C58.542 208.538 58.6286 208.941 58.802 209.271C58.9753 209.591 59.205 209.838 59.491 210.012C59.777 210.185 60.089 210.272 60.427 210.272C60.8256 210.272 61.1723 210.172 61.467 209.973C61.7616 209.773 61.9523 209.492 62.039 209.128H63.482C63.3346 209.821 62.988 210.38 62.442 210.805C61.896 211.229 61.2243 211.442 60.427 211.442ZM67.3555 211.442C66.5755 211.442 65.9601 211.199 65.5095 210.714C65.0675 210.228 64.8465 209.505 64.8465 208.543V204.838H66.2245V208.4C66.2245 209.648 66.7358 210.272 67.7585 210.272C68.2698 210.272 68.6901 210.09 69.0195 209.726C69.3488 209.362 69.5135 208.842 69.5135 208.166V204.838H70.8915V211.286H69.6695L69.5655 210.155C69.3661 210.553 69.0715 210.87 68.6815 211.104C68.3001 211.329 67.8581 211.442 67.3555 211.442ZM72.6444 211.286V204.838H73.8664L73.9834 205.748C74.1914 205.418 74.4644 205.158 74.8024 204.968C75.1491 204.777 75.5478 204.682 75.9984 204.682C77.0211 204.682 77.7318 205.085 78.1304 205.891C78.3644 205.518 78.6764 205.223 79.0664 205.007C79.4651 204.79 79.8941 204.682 80.3534 204.682C81.1594 204.682 81.7921 204.924 82.2514 205.41C82.7108 205.895 82.9404 206.619 82.9404 207.581V211.286H81.5624V207.724C81.5624 206.476 81.0858 205.852 80.1324 205.852C79.6471 205.852 79.2484 206.034 78.9364 206.398C78.6331 206.762 78.4814 207.282 78.4814 207.958V211.286H77.1034V207.724C77.1034 206.476 76.6224 205.852 75.6604 205.852C75.1838 205.852 74.7894 206.034 74.4774 206.398C74.1741 206.762 74.0224 207.282 74.0224 207.958V211.286H72.6444ZM87.5686 211.442C86.936 211.442 86.3726 211.303 85.8786 211.026C85.3933 210.74 85.012 210.345 84.7346 209.843C84.4573 209.34 84.3186 208.755 84.3186 208.088C84.3186 207.412 84.453 206.818 84.7216 206.307C84.999 205.795 85.3803 205.397 85.8656 205.111C86.3596 204.825 86.9316 204.682 87.5816 204.682C88.2143 204.682 88.7646 204.825 89.2326 205.111C89.7006 205.388 90.0646 205.761 90.3246 206.229C90.5846 206.697 90.7146 207.212 90.7146 207.776C90.7146 207.862 90.7103 207.958 90.7016 208.062C90.7016 208.157 90.6973 208.265 90.6886 208.387H85.6706C85.714 209.011 85.9176 209.487 86.2816 209.817C86.6543 210.137 87.0833 210.298 87.5686 210.298C87.9586 210.298 88.2836 210.211 88.5436 210.038C88.8123 209.856 89.0116 209.613 89.1416 209.31H90.5196C90.3463 209.916 89.9996 210.423 89.4796 210.831C88.9683 211.238 88.3313 211.442 87.5686 211.442ZM87.5686 205.813C87.1093 205.813 86.702 205.951 86.3466 206.229C85.9913 206.497 85.7746 206.905 85.6966 207.451H89.3366C89.3106 206.948 89.133 206.549 88.8036 206.255C88.4743 205.96 88.0626 205.813 87.5686 205.813ZM92.1444 211.286V204.838H93.3664L93.4704 205.969C93.6698 205.57 93.9601 205.258 94.3414 205.033C94.7314 204.799 95.1778 204.682 95.6804 204.682C96.4604 204.682 97.0714 204.924 97.5134 205.41C97.9641 205.895 98.1894 206.619 98.1894 207.581V211.286H96.8244V207.724C96.8244 206.476 96.3131 205.852 95.2904 205.852C94.7791 205.852 94.3544 206.034 94.0164 206.398C93.6871 206.762 93.5224 207.282 93.5224 207.958V211.286H92.1444ZM102.516 211.286C101.884 211.286 101.381 211.134 101.008 210.831C100.636 210.519 100.449 209.968 100.449 209.18V205.995H99.3444V204.838H100.449L100.618 203.2H101.827V204.838H103.647V205.995H101.827V209.18C101.827 209.535 101.901 209.782 102.048 209.921C102.204 210.051 102.469 210.116 102.841 210.116H103.582V211.286H102.516ZM107.642 211.442C106.828 211.442 106.156 211.242 105.627 210.844C105.099 210.445 104.795 209.916 104.717 209.258H106.108C106.178 209.552 106.342 209.808 106.602 210.025C106.862 210.233 107.205 210.337 107.629 210.337C108.045 210.337 108.349 210.25 108.539 210.077C108.73 209.903 108.825 209.704 108.825 209.479C108.825 209.149 108.691 208.928 108.422 208.816C108.162 208.694 107.798 208.586 107.33 208.491C106.966 208.413 106.602 208.309 106.238 208.179C105.883 208.049 105.584 207.867 105.341 207.633C105.107 207.39 104.99 207.065 104.99 206.658C104.99 206.094 105.207 205.626 105.64 205.254C106.074 204.872 106.68 204.682 107.46 204.682C108.18 204.682 108.76 204.855 109.202 205.202C109.653 205.548 109.917 206.038 109.995 206.671H108.669C108.626 206.393 108.496 206.177 108.279 206.021C108.071 205.865 107.79 205.787 107.434 205.787C107.088 205.787 106.819 205.86 106.628 206.008C106.438 206.146 106.342 206.328 106.342 206.554C106.342 206.779 106.472 206.957 106.732 207.087C107.001 207.217 107.352 207.334 107.785 207.438C108.219 207.533 108.617 207.646 108.981 207.776C109.354 207.897 109.653 208.079 109.878 208.322C110.104 208.564 110.216 208.92 110.216 209.388C110.225 209.977 109.995 210.467 109.527 210.857C109.068 211.247 108.44 211.442 107.642 211.442Z" fill="white"/>
<path d="M239.775 212.442C239.143 212.442 238.61 212.32 238.176 212.078C237.743 211.826 237.405 211.501 237.162 211.103C236.92 210.704 236.777 210.275 236.733 209.816H238.28C238.35 210.214 238.514 210.522 238.774 210.739C239.043 210.955 239.381 211.064 239.788 211.064C240.369 211.064 240.837 210.799 241.192 210.271C241.548 209.733 241.738 208.919 241.764 207.827C241.556 208.182 241.24 208.477 240.815 208.711C240.399 208.945 239.94 209.062 239.437 209.062C238.935 209.062 238.462 208.94 238.02 208.698C237.578 208.455 237.219 208.113 236.941 207.671C236.664 207.229 236.525 206.709 236.525 206.111C236.525 205.565 236.66 205.058 236.928 204.59C237.197 204.122 237.57 203.745 238.046 203.459C238.523 203.173 239.082 203.03 239.723 203.03C240.408 203.03 240.984 203.155 241.452 203.407C241.92 203.658 242.293 203.996 242.57 204.421C242.856 204.845 243.06 205.318 243.181 205.838C243.311 206.358 243.376 206.891 243.376 207.437C243.376 208.451 243.233 209.335 242.947 210.089C242.67 210.834 242.258 211.415 241.712 211.831C241.175 212.238 240.529 212.442 239.775 212.442ZM239.827 207.658C240.148 207.658 240.438 207.588 240.698 207.45C240.958 207.302 241.162 207.112 241.309 206.878C241.457 206.635 241.53 206.366 241.53 206.072C241.53 205.604 241.366 205.218 241.036 204.915C240.716 204.611 240.308 204.46 239.814 204.46C239.329 204.46 238.926 204.611 238.605 204.915C238.285 205.209 238.124 205.586 238.124 206.046C238.124 206.531 238.285 206.921 238.605 207.216C238.926 207.51 239.333 207.658 239.827 207.658ZM248.004 212.442C247.38 212.442 246.817 212.333 246.314 212.117C245.812 211.891 245.409 211.575 245.105 211.168C244.811 210.76 244.663 210.288 244.663 209.751C244.663 209.196 244.806 208.711 245.092 208.295C245.387 207.879 245.773 207.58 246.249 207.398C245.833 207.216 245.504 206.956 245.261 206.618C245.019 206.271 244.897 205.885 244.897 205.461C244.897 205.027 245.014 204.629 245.248 204.265C245.482 203.892 245.829 203.593 246.288 203.368C246.756 203.142 247.328 203.03 248.004 203.03C248.68 203.03 249.248 203.142 249.707 203.368C250.167 203.593 250.513 203.892 250.747 204.265C250.981 204.629 251.098 205.027 251.098 205.461C251.098 205.877 250.973 206.262 250.721 206.618C250.479 206.964 250.154 207.224 249.746 207.398C250.232 207.58 250.617 207.879 250.903 208.295C251.189 208.711 251.332 209.196 251.332 209.751C251.332 210.288 251.185 210.76 250.89 211.168C250.596 211.575 250.193 211.891 249.681 212.117C249.179 212.333 248.62 212.442 248.004 212.442ZM248.004 206.904C248.455 206.904 248.81 206.787 249.07 206.553C249.33 206.319 249.46 206.02 249.46 205.656C249.46 205.257 249.33 204.945 249.07 204.72C248.819 204.494 248.464 204.382 248.004 204.382C247.536 204.382 247.177 204.494 246.925 204.72C246.674 204.945 246.548 205.257 246.548 205.656C246.548 206.028 246.674 206.332 246.925 206.566C247.185 206.791 247.545 206.904 248.004 206.904ZM248.004 211.051C248.559 211.051 248.979 210.916 249.265 210.648C249.551 210.37 249.694 210.024 249.694 209.608C249.694 209.148 249.543 208.789 249.239 208.529C248.945 208.269 248.533 208.139 248.004 208.139C247.476 208.139 247.055 208.269 246.743 208.529C246.44 208.789 246.288 209.148 246.288 209.608C246.288 210.024 246.431 210.37 246.717 210.648C247.012 210.916 247.441 211.051 248.004 211.051ZM254.841 207.658C254.425 207.658 254.048 207.567 253.71 207.385C253.372 207.194 253.103 206.925 252.904 206.579C252.705 206.232 252.605 205.82 252.605 205.344C252.605 204.867 252.705 204.455 252.904 204.109C253.103 203.762 253.372 203.498 253.71 203.316C254.048 203.125 254.429 203.03 254.854 203.03C255.27 203.03 255.643 203.125 255.972 203.316C256.31 203.498 256.579 203.762 256.778 204.109C256.977 204.455 257.077 204.867 257.077 205.344C257.077 205.82 256.977 206.232 256.778 206.579C256.579 206.925 256.31 207.194 255.972 207.385C255.634 207.567 255.257 207.658 254.841 207.658ZM254.347 212.286L259.482 203.186H261.107L255.972 212.286H254.347ZM254.841 206.501C255.092 206.501 255.309 206.405 255.491 206.215C255.673 206.015 255.764 205.725 255.764 205.344C255.764 204.962 255.673 204.672 255.491 204.473C255.318 204.273 255.101 204.174 254.841 204.174C254.581 204.174 254.36 204.273 254.178 204.473C254.005 204.672 253.918 204.962 253.918 205.344C253.918 205.725 254.005 206.015 254.178 206.215C254.36 206.405 254.581 206.501 254.841 206.501ZM260.665 212.442C260.249 212.442 259.872 212.351 259.534 212.169C259.196 211.978 258.927 211.709 258.728 211.363C258.529 211.016 258.429 210.604 258.429 210.128C258.429 209.651 258.529 209.244 258.728 208.906C258.927 208.559 259.196 208.295 259.534 208.113C259.872 207.922 260.253 207.827 260.678 207.827C261.094 207.827 261.467 207.922 261.796 208.113C262.134 208.295 262.403 208.559 262.602 208.906C262.801 209.244 262.901 209.651 262.901 210.128C262.901 210.604 262.801 211.016 262.602 211.363C262.403 211.709 262.134 211.978 261.796 212.169C261.467 212.351 261.09 212.442 260.665 212.442ZM260.665 211.285C260.925 211.285 261.142 211.189 261.315 210.999C261.497 210.799 261.588 210.509 261.588 210.128C261.588 209.746 261.497 209.456 261.315 209.257C261.142 209.057 260.925 208.958 260.665 208.958C260.405 208.958 260.184 209.057 260.002 209.257C259.829 209.456 259.742 209.746 259.742 210.128C259.742 210.509 259.829 210.799 260.002 210.999C260.184 211.189 260.405 211.285 260.665 211.285Z" fill="white"/>
<path d="M37.962 102V92.9H39.236L42.512 99.244L45.762 92.9H47.049V102H45.957V94.85L42.915 100.7H42.096L39.054 94.863V102H37.962ZM51.2568 102.156C50.4942 102.156 49.8875 101.926 49.4368 101.467C48.9862 100.999 48.7608 100.284 48.7608 99.322V95.552H49.8528V99.205C49.8528 100.548 50.4032 101.22 51.5038 101.22C52.0672 101.22 52.5308 101.021 52.8948 100.622C53.2675 100.215 53.4538 99.6383 53.4538 98.893V95.552H54.5458V102H53.5578L53.4798 100.843C53.2805 101.25 52.9815 101.571 52.5828 101.805C52.1928 102.039 51.7508 102.156 51.2568 102.156ZM58.8133 102.156C58.042 102.156 57.4006 101.961 56.8893 101.571C56.378 101.181 56.079 100.652 55.9923 99.985H57.1103C57.1796 100.323 57.3573 100.618 57.6433 100.869C57.938 101.112 58.3323 101.233 58.8263 101.233C59.2856 101.233 59.6236 101.138 59.8403 100.947C60.057 100.748 60.1653 100.514 60.1653 100.245C60.1653 99.855 60.0223 99.595 59.7363 99.465C59.459 99.335 59.0646 99.218 58.5533 99.114C58.2066 99.0447 57.86 98.945 57.5133 98.815C57.1666 98.685 56.8763 98.503 56.6423 98.269C56.4083 98.0263 56.2913 97.71 56.2913 97.32C56.2913 96.7567 56.4993 96.2973 56.9153 95.942C57.34 95.578 57.912 95.396 58.6313 95.396C59.316 95.396 59.875 95.5693 60.3083 95.916C60.7503 96.254 61.006 96.7393 61.0753 97.372H59.9963C59.953 97.0427 59.81 96.787 59.5673 96.605C59.3333 96.4143 59.017 96.319 58.6183 96.319C58.2283 96.319 57.925 96.4013 57.7083 96.566C57.5003 96.7307 57.3963 96.9473 57.3963 97.216C57.3963 97.476 57.5306 97.6797 57.7993 97.827C58.0766 97.9743 58.4493 98.1 58.9173 98.204C59.316 98.2907 59.693 98.399 60.0483 98.529C60.4123 98.6503 60.707 98.8367 60.9323 99.088C61.1663 99.3307 61.2833 99.686 61.2833 100.154C61.292 100.735 61.071 101.216 60.6203 101.597C60.1783 101.97 59.576 102.156 58.8133 102.156ZM63.5063 94.122C63.2896 94.122 63.1076 94.0527 62.9603 93.914C62.8216 93.7667 62.7523 93.5847 62.7523 93.368C62.7523 93.16 62.8216 92.9867 62.9603 92.848C63.1076 92.7093 63.2896 92.64 63.5063 92.64C63.7143 92.64 63.892 92.7093 64.0393 92.848C64.1866 92.9867 64.2603 93.16 64.2603 93.368C64.2603 93.5847 64.1866 93.7667 64.0393 93.914C63.892 94.0527 63.7143 94.122 63.5063 94.122ZM62.9603 102V95.552H64.0523V102H62.9603ZM68.9176 102.156C68.3023 102.156 67.7476 102.017 67.2536 101.74C66.7683 101.454 66.3826 101.06 66.0966 100.557C65.8193 100.046 65.6806 99.452 65.6806 98.776C65.6806 98.1 65.8193 97.5107 66.0966 97.008C66.3826 96.4967 66.7683 96.1023 67.2536 95.825C67.7476 95.539 68.3023 95.396 68.9176 95.396C69.6803 95.396 70.3216 95.5953 70.8416 95.994C71.3703 96.3927 71.704 96.9257 71.8426 97.593H70.7246C70.638 97.1943 70.4256 96.8867 70.0876 96.67C69.7496 96.4447 69.3553 96.332 68.9046 96.332C68.5406 96.332 68.1983 96.423 67.8776 96.605C67.557 96.787 67.297 97.06 67.0976 97.424C66.8983 97.788 66.7986 98.2387 66.7986 98.776C66.7986 99.3133 66.8983 99.764 67.0976 100.128C67.297 100.492 67.557 100.769 67.8776 100.96C68.1983 101.142 68.5406 101.233 68.9046 101.233C69.3553 101.233 69.7496 101.125 70.0876 100.908C70.4256 100.683 70.638 100.366 70.7246 99.959H71.8426C71.7126 100.609 71.3833 101.138 70.8546 101.545C70.326 101.952 69.6803 102.156 68.9176 102.156ZM77.1591 102V96.475H76.1841V95.552H77.1591V94.434C77.1591 93.81 77.3151 93.355 77.6271 93.069C77.9391 92.783 78.3941 92.64 78.9921 92.64H79.6421V93.576H79.1611C78.8318 93.576 78.5978 93.6453 78.4591 93.784C78.3205 93.914 78.2511 94.1393 78.2511 94.46V95.552H82.2551V102H81.1631V96.475H78.2511V102H77.1591ZM81.7221 94.317C81.5141 94.317 81.3365 94.2477 81.1891 94.109C81.0418 93.9617 80.9681 93.7797 80.9681 93.563C80.9681 93.355 81.0418 93.1817 81.1891 93.043C81.3365 92.9043 81.5141 92.835 81.7221 92.835C81.9388 92.835 82.1165 92.9043 82.2551 93.043C82.4025 93.1817 82.4761 93.355 82.4761 93.563C82.4761 93.7797 82.4025 93.9617 82.2551 94.109C82.1165 94.2477 81.9388 94.317 81.7221 94.317ZM84.1841 102V92.64H85.2761V102H84.1841ZM89.9649 102.156C89.3496 102.156 88.8036 102.017 88.3269 101.74C87.8503 101.454 87.4733 101.06 87.1959 100.557C86.9273 100.054 86.7929 99.4607 86.7929 98.776C86.7929 98.1 86.9273 97.5107 87.1959 97.008C87.4646 96.4967 87.8373 96.1023 88.3139 95.825C88.7993 95.539 89.3583 95.396 89.9909 95.396C90.6149 95.396 91.1523 95.539 91.6029 95.825C92.0623 96.1023 92.4133 96.4707 92.6559 96.93C92.8986 97.3893 93.0199 97.8833 93.0199 98.412C93.0199 98.5073 93.0156 98.6027 93.0069 98.698C93.0069 98.7933 93.0069 98.9017 93.0069 99.023H87.8719C87.8979 99.517 88.0106 99.9287 88.2099 100.258C88.4179 100.579 88.6736 100.821 88.9769 100.986C89.2889 101.151 89.6183 101.233 89.9649 101.233C90.4156 101.233 90.7926 101.129 91.0959 100.921C91.3993 100.713 91.6203 100.431 91.7589 100.076H92.8379C92.6646 100.674 92.3309 101.172 91.8369 101.571C91.3516 101.961 90.7276 102.156 89.9649 102.156ZM89.9649 96.319C89.4449 96.319 88.9813 96.4793 88.5739 96.8C88.1753 97.112 87.9456 97.5713 87.8849 98.178H91.9409C91.9149 97.5973 91.7156 97.1423 91.3429 96.813C90.9703 96.4837 90.5109 96.319 89.9649 96.319ZM96.9373 102.156C96.166 102.156 95.5246 101.961 95.0133 101.571C94.502 101.181 94.203 100.652 94.1163 99.985H95.2343C95.3036 100.323 95.4813 100.618 95.7673 100.869C96.062 101.112 96.4563 101.233 96.9503 101.233C97.4096 101.233 97.7476 101.138 97.9643 100.947C98.181 100.748 98.2893 100.514 98.2893 100.245C98.2893 99.855 98.1463 99.595 97.8603 99.465C97.583 99.335 97.1886 99.218 96.6773 99.114C96.3306 99.0447 95.984 98.945 95.6373 98.815C95.2906 98.685 95.0003 98.503 94.7663 98.269C94.5323 98.0263 94.4153 97.71 94.4153 97.32C94.4153 96.7567 94.6233 96.2973 95.0393 95.942C95.464 95.578 96.036 95.396 96.7553 95.396C97.44 95.396 97.999 95.5693 98.4323 95.916C98.8743 96.254 99.13 96.7393 99.1993 97.372H98.1203C98.077 97.0427 97.934 96.787 97.6913 96.605C97.4573 96.4143 97.141 96.319 96.7423 96.319C96.3523 96.319 96.049 96.4013 95.8323 96.566C95.6243 96.7307 95.5203 96.9473 95.5203 97.216C95.5203 97.476 95.6546 97.6797 95.9233 97.827C96.2006 97.9743 96.5733 98.1 97.0413 98.204C97.44 98.2907 97.817 98.399 98.1723 98.529C98.5363 98.6503 98.831 98.8367 99.0563 99.088C99.2903 99.3307 99.4073 99.686 99.4073 100.154C99.416 100.735 99.195 101.216 98.7443 101.597C98.3023 101.97 97.7 102.156 96.9373 102.156Z" fill="#282828"/>
<path d="M240.298 101V93.122L238.829 93.447V92.693L240.662 91.9H241.403V101H240.298ZM246.6 101.156C245.942 101.156 245.387 101.035 244.936 100.792C244.486 100.541 244.122 100.207 243.844 99.791C243.576 99.375 243.376 98.9113 243.246 98.4C243.125 97.88 243.064 97.3513 243.064 96.814C243.064 95.8087 243.203 94.929 243.48 94.175C243.758 93.4123 244.156 92.8187 244.676 92.394C245.205 91.9607 245.842 91.744 246.587 91.744C247.159 91.744 247.649 91.8567 248.056 92.082C248.464 92.3073 248.784 92.6107 249.018 92.992C249.261 93.3647 249.413 93.7807 249.473 94.24H248.459C248.364 93.746 248.152 93.3647 247.822 93.096C247.493 92.8273 247.077 92.693 246.574 92.693C245.89 92.693 245.313 93.018 244.845 93.668C244.386 94.3093 244.139 95.3147 244.104 96.684C244.312 96.2767 244.642 95.9257 245.092 95.631C245.552 95.3277 246.102 95.176 246.743 95.176C247.263 95.176 247.749 95.2973 248.199 95.54C248.659 95.7827 249.031 96.125 249.317 96.567C249.603 97.0003 249.746 97.5117 249.746 98.101C249.746 98.6123 249.621 99.102 249.369 99.57C249.118 100.038 248.754 100.419 248.277 100.714C247.809 101.009 247.25 101.156 246.6 101.156ZM246.522 100.194C246.93 100.194 247.294 100.107 247.614 99.934C247.935 99.7607 248.186 99.5223 248.368 99.219C248.55 98.907 248.641 98.5517 248.641 98.153C248.641 97.5377 248.438 97.048 248.03 96.684C247.632 96.3113 247.129 96.125 246.522 96.125C246.115 96.125 245.751 96.2203 245.43 96.411C245.11 96.593 244.854 96.84 244.663 97.152C244.481 97.464 244.39 97.802 244.39 98.166C244.39 98.556 244.481 98.907 244.663 99.219C244.854 99.5223 245.11 99.7607 245.43 99.934C245.751 100.107 246.115 100.194 246.522 100.194ZM252.935 96.125C252.545 96.125 252.19 96.0383 251.869 95.865C251.557 95.683 251.31 95.4317 251.128 95.111C250.946 94.7817 250.855 94.3917 250.855 93.941C250.855 93.4903 250.946 93.1047 251.128 92.784C251.319 92.4547 251.57 92.2033 251.882 92.03C252.203 91.848 252.558 91.757 252.948 91.757C253.338 91.757 253.689 91.848 254.001 92.03C254.313 92.2033 254.56 92.4547 254.742 92.784C254.924 93.1047 255.015 93.4903 255.015 93.941C255.015 94.3917 254.92 94.7817 254.729 95.111C254.547 95.4317 254.3 95.683 253.988 95.865C253.676 96.0383 253.325 96.125 252.935 96.125ZM252.129 101L257.42 91.9H258.512L253.221 101H252.129ZM252.935 95.28C253.238 95.28 253.503 95.1673 253.728 94.942C253.962 94.7167 254.079 94.383 254.079 93.941C254.079 93.4903 253.966 93.1523 253.741 92.927C253.516 92.693 253.251 92.576 252.948 92.576C252.645 92.576 252.372 92.693 252.129 92.927C251.895 93.1523 251.778 93.4903 251.778 93.941C251.778 94.383 251.895 94.7167 252.129 94.942C252.363 95.1673 252.632 95.28 252.935 95.28ZM257.797 101.156C257.407 101.156 257.052 101.069 256.731 100.896C256.419 100.714 256.172 100.463 255.99 100.142C255.808 99.8127 255.717 99.4227 255.717 98.972C255.717 98.5213 255.808 98.1357 255.99 97.815C256.181 97.4857 256.432 97.2343 256.744 97.061C257.056 96.879 257.407 96.788 257.797 96.788C258.187 96.788 258.538 96.879 258.85 97.061C259.162 97.2343 259.409 97.4857 259.591 97.815C259.773 98.1357 259.864 98.5213 259.864 98.972C259.864 99.4227 259.773 99.8127 259.591 100.142C259.409 100.463 259.162 100.714 258.85 100.896C258.538 101.069 258.187 101.156 257.797 101.156ZM257.784 100.311C258.096 100.311 258.365 100.198 258.59 99.973C258.824 99.7477 258.941 99.414 258.941 98.972C258.941 98.5213 258.828 98.1833 258.603 97.958C258.378 97.7327 258.109 97.62 257.797 97.62C257.494 97.62 257.225 97.7327 256.991 97.958C256.757 98.1833 256.64 98.5213 256.64 98.972C256.64 99.414 256.753 99.7477 256.978 99.973C257.212 100.198 257.481 100.311 257.784 100.311Z" fill="black"/>
<path d="M37.962 250V240.9H41.16C41.8013 240.9 42.33 241.004 42.746 241.212C43.1707 241.411 43.487 241.689 43.695 242.044C43.903 242.391 44.007 242.781 44.007 243.214C44.007 243.803 43.8467 244.267 43.526 244.605C43.214 244.943 42.837 245.177 42.395 245.307C42.733 245.368 43.0407 245.502 43.318 245.71C43.5953 245.918 43.812 246.178 43.968 246.49C44.1327 246.802 44.215 247.144 44.215 247.517C44.215 247.976 44.1023 248.397 43.877 248.778C43.6517 249.151 43.318 249.45 42.876 249.675C42.434 249.892 41.8967 250 41.264 250H37.962ZM39.054 244.878H41.082C41.6627 244.878 42.109 244.744 42.421 244.475C42.733 244.198 42.889 243.816 42.889 243.331C42.889 242.872 42.733 242.503 42.421 242.226C42.1177 241.949 41.6583 241.81 41.043 241.81H39.054V244.878ZM39.054 249.09H41.147C41.771 249.09 42.252 248.947 42.59 248.661C42.928 248.366 43.097 247.959 43.097 247.439C43.097 246.928 42.9193 246.52 42.564 246.217C42.2087 245.905 41.7277 245.749 41.121 245.749H39.054V249.09ZM46.3803 242.122C46.1636 242.122 45.9816 242.053 45.8343 241.914C45.6956 241.767 45.6263 241.585 45.6263 241.368C45.6263 241.16 45.6956 240.987 45.8343 240.848C45.9816 240.709 46.1636 240.64 46.3803 240.64C46.5883 240.64 46.766 240.709 46.9133 240.848C47.0606 240.987 47.1343 241.16 47.1343 241.368C47.1343 241.585 47.0606 241.767 46.9133 241.914C46.766 242.053 46.5883 242.122 46.3803 242.122ZM45.8343 250V243.552H46.9263V250H45.8343ZM48.8277 250V240.64H49.9197V250H48.8277ZM51.7095 250V240.64H52.8015V250H51.7095ZM57.0613 250.156C56.29 250.156 55.6487 249.961 55.1373 249.571C54.626 249.181 54.327 248.652 54.2403 247.985H55.3583C55.4277 248.323 55.6053 248.618 55.8913 248.869C56.186 249.112 56.5803 249.233 57.0743 249.233C57.5337 249.233 57.8717 249.138 58.0883 248.947C58.305 248.748 58.4133 248.514 58.4133 248.245C58.4133 247.855 58.2703 247.595 57.9843 247.465C57.707 247.335 57.3127 247.218 56.8013 247.114C56.4547 247.045 56.108 246.945 55.7613 246.815C55.4147 246.685 55.1243 246.503 54.8903 246.269C54.6563 246.026 54.5393 245.71 54.5393 245.32C54.5393 244.757 54.7473 244.297 55.1633 243.942C55.588 243.578 56.16 243.396 56.8793 243.396C57.564 243.396 58.123 243.569 58.5563 243.916C58.9983 244.254 59.254 244.739 59.3233 245.372H58.2443C58.201 245.043 58.058 244.787 57.8153 244.605C57.5813 244.414 57.265 244.319 56.8663 244.319C56.4763 244.319 56.173 244.401 55.9563 244.566C55.7483 244.731 55.6443 244.947 55.6443 245.216C55.6443 245.476 55.7787 245.68 56.0473 245.827C56.3247 245.974 56.6973 246.1 57.1653 246.204C57.564 246.291 57.941 246.399 58.2963 246.529C58.6603 246.65 58.955 246.837 59.1803 247.088C59.4143 247.331 59.5313 247.686 59.5313 248.154C59.54 248.735 59.319 249.216 58.8683 249.597C58.4263 249.97 57.824 250.156 57.0613 250.156Z" fill="#282828"/>
<path d="M246.015 250.156C245.357 250.156 244.802 250.035 244.351 249.792C243.901 249.541 243.537 249.207 243.259 248.791C242.991 248.375 242.791 247.911 242.661 247.4C242.54 246.88 242.479 246.351 242.479 245.814C242.479 244.809 242.618 243.929 242.895 243.175C243.173 242.412 243.571 241.819 244.091 241.394C244.62 240.961 245.257 240.744 246.002 240.744C246.574 240.744 247.064 240.857 247.471 241.082C247.879 241.307 248.199 241.611 248.433 241.992C248.676 242.365 248.828 242.781 248.888 243.24H247.874C247.779 242.746 247.567 242.365 247.237 242.096C246.908 241.827 246.492 241.693 245.989 241.693C245.305 241.693 244.728 242.018 244.26 242.668C243.801 243.309 243.554 244.315 243.519 245.684C243.727 245.277 244.057 244.926 244.507 244.631C244.967 244.328 245.517 244.176 246.158 244.176C246.678 244.176 247.164 244.297 247.614 244.54C248.074 244.783 248.446 245.125 248.732 245.567C249.018 246 249.161 246.512 249.161 247.101C249.161 247.612 249.036 248.102 248.784 248.57C248.533 249.038 248.169 249.419 247.692 249.714C247.224 250.009 246.665 250.156 246.015 250.156ZM245.937 249.194C246.345 249.194 246.709 249.107 247.029 248.934C247.35 248.761 247.601 248.522 247.783 248.219C247.965 247.907 248.056 247.552 248.056 247.153C248.056 246.538 247.853 246.048 247.445 245.684C247.047 245.311 246.544 245.125 245.937 245.125C245.53 245.125 245.166 245.22 244.845 245.411C244.525 245.593 244.269 245.84 244.078 246.152C243.896 246.464 243.805 246.802 243.805 247.166C243.805 247.556 243.896 247.907 244.078 248.219C244.269 248.522 244.525 248.761 244.845 248.934C245.166 249.107 245.53 249.194 245.937 249.194ZM252.35 245.125C251.96 245.125 251.605 245.038 251.284 244.865C250.972 244.683 250.725 244.432 250.543 244.111C250.361 243.782 250.27 243.392 250.27 242.941C250.27 242.49 250.361 242.105 250.543 241.784C250.734 241.455 250.985 241.203 251.297 241.03C251.618 240.848 251.973 240.757 252.363 240.757C252.753 240.757 253.104 240.848 253.416 241.03C253.728 241.203 253.975 241.455 254.157 241.784C254.339 242.105 254.43 242.49 254.43 242.941C254.43 243.392 254.335 243.782 254.144 244.111C253.962 244.432 253.715 244.683 253.403 244.865C253.091 245.038 252.74 245.125 252.35 245.125ZM251.544 250L256.835 240.9H257.927L252.636 250H251.544ZM252.35 244.28C252.653 244.28 252.918 244.167 253.143 243.942C253.377 243.717 253.494 243.383 253.494 242.941C253.494 242.49 253.381 242.152 253.156 241.927C252.931 241.693 252.666 241.576 252.363 241.576C252.06 241.576 251.787 241.693 251.544 241.927C251.31 242.152 251.193 242.49 251.193 242.941C251.193 243.383 251.31 243.717 251.544 243.942C251.778 244.167 252.047 244.28 252.35 244.28ZM257.212 250.156C256.822 250.156 256.467 250.069 256.146 249.896C255.834 249.714 255.587 249.463 255.405 249.142C255.223 248.813 255.132 248.423 255.132 247.972C255.132 247.521 255.223 247.136 255.405 246.815C255.596 246.486 255.847 246.234 256.159 246.061C256.471 245.879 256.822 245.788 257.212 245.788C257.602 245.788 257.953 245.879 258.265 246.061C258.577 246.234 258.824 246.486 259.006 246.815C259.188 247.136 259.279 247.521 259.279 247.972C259.279 248.423 259.188 248.813 259.006 249.142C258.824 249.463 258.577 249.714 258.265 249.896C257.953 250.069 257.602 250.156 257.212 250.156ZM257.199 249.311C257.511 249.311 257.78 249.198 258.005 248.973C258.239 248.748 258.356 248.414 258.356 247.972C258.356 247.521 258.243 247.183 258.018 246.958C257.793 246.733 257.524 246.62 257.212 246.62C256.909 246.62 256.64 246.733 256.406 246.958C256.172 247.183 256.055 247.521 256.055 247.972C256.055 248.414 256.168 248.748 256.393 248.973C256.627 249.198 256.896 249.311 257.199 249.311Z" fill="black"/>
<path d="M37.962 284V274.9H41.16C41.8013 274.9 42.33 275.004 42.746 275.212C43.1707 275.411 43.487 275.689 43.695 276.044C43.903 276.391 44.007 276.781 44.007 277.214C44.007 277.803 43.8467 278.267 43.526 278.605C43.214 278.943 42.837 279.177 42.395 279.307C42.733 279.368 43.0407 279.502 43.318 279.71C43.5953 279.918 43.812 280.178 43.968 280.49C44.1327 280.802 44.215 281.144 44.215 281.517C44.215 281.976 44.1023 282.397 43.877 282.778C43.6517 283.151 43.318 283.45 42.876 283.675C42.434 283.892 41.8967 284 41.264 284H37.962ZM39.054 278.878H41.082C41.6627 278.878 42.109 278.744 42.421 278.475C42.733 278.198 42.889 277.816 42.889 277.331C42.889 276.872 42.733 276.503 42.421 276.226C42.1177 275.949 41.6583 275.81 41.043 275.81H39.054V278.878ZM39.054 283.09H41.147C41.771 283.09 42.252 282.947 42.59 282.661C42.928 282.366 43.097 281.959 43.097 281.439C43.097 280.928 42.9193 280.52 42.564 280.217C42.2087 279.905 41.7277 279.749 41.121 279.749H39.054V283.09ZM47.8623 284.156C47.325 284.156 46.8786 284.065 46.5233 283.883C46.168 283.701 45.9036 283.458 45.7303 283.155C45.557 282.852 45.4703 282.522 45.4703 282.167C45.4703 281.508 45.7216 281.001 46.2243 280.646C46.727 280.291 47.4116 280.113 48.2783 280.113H50.0203V280.035C50.0203 279.472 49.873 279.047 49.5783 278.761C49.2836 278.466 48.8893 278.319 48.3953 278.319C47.9706 278.319 47.6023 278.427 47.2903 278.644C46.987 278.852 46.7963 279.16 46.7183 279.567H45.6003C45.6436 279.099 45.7996 278.705 46.0683 278.384C46.3456 278.063 46.688 277.821 47.0953 277.656C47.5026 277.483 47.936 277.396 48.3953 277.396C49.2966 277.396 49.9726 277.639 50.4233 278.124C50.8826 278.601 51.1123 279.238 51.1123 280.035V284H50.1373L50.0723 282.843C49.8903 283.207 49.6216 283.519 49.2663 283.779C48.9196 284.03 48.4516 284.156 47.8623 284.156ZM48.0313 283.233C48.4473 283.233 48.8026 283.125 49.0973 282.908C49.4006 282.691 49.6303 282.41 49.7863 282.063C49.9423 281.716 50.0203 281.352 50.0203 280.971V280.958H48.3693C47.728 280.958 47.273 281.071 47.0043 281.296C46.7443 281.513 46.6143 281.786 46.6143 282.115C46.6143 282.453 46.7356 282.726 46.9783 282.934C47.2296 283.133 47.5806 283.233 48.0313 283.233ZM52.7505 284V277.552H53.7385L53.8035 278.709C54.0115 278.302 54.3105 277.981 54.7005 277.747C55.0905 277.513 55.5325 277.396 56.0265 277.396C56.7892 277.396 57.3958 277.63 57.8465 278.098C58.3058 278.557 58.5355 279.268 58.5355 280.23V284H57.4435V280.347C57.4435 279.004 56.8888 278.332 55.7795 278.332C55.2248 278.332 54.7612 278.536 54.3885 278.943C54.0245 279.342 53.8425 279.914 53.8425 280.659V284H52.7505ZM60.19 284V274.64H61.282V280.269L63.921 277.552H65.26L62.4 280.464L65.624 284H64.233L61.282 280.659V284H60.19ZM72.6512 284.156C71.8798 284.156 71.2385 283.961 70.7272 283.571C70.2158 283.181 69.9168 282.652 69.8302 281.985H70.9482C71.0175 282.323 71.1952 282.618 71.4812 282.869C71.7758 283.112 72.1702 283.233 72.6642 283.233C73.1235 283.233 73.4615 283.138 73.6782 282.947C73.8948 282.748 74.0032 282.514 74.0032 282.245C74.0032 281.855 73.8602 281.595 73.5742 281.465C73.2968 281.335 72.9025 281.218 72.3912 281.114C72.0445 281.045 71.6978 280.945 71.3512 280.815C71.0045 280.685 70.7142 280.503 70.4802 280.269C70.2462 280.026 70.1292 279.71 70.1292 279.32C70.1292 278.757 70.3372 278.297 70.7532 277.942C71.1778 277.578 71.7498 277.396 72.4692 277.396C73.1538 277.396 73.7128 277.569 74.1462 277.916C74.5882 278.254 74.8438 278.739 74.9132 279.372H73.8342C73.7908 279.043 73.6478 278.787 73.4052 278.605C73.1712 278.414 72.8548 278.319 72.4562 278.319C72.0662 278.319 71.7628 278.401 71.5462 278.566C71.3382 278.731 71.2342 278.947 71.2342 279.216C71.2342 279.476 71.3685 279.68 71.6372 279.827C71.9145 279.974 72.2872 280.1 72.7552 280.204C73.1538 280.291 73.5308 280.399 73.8862 280.529C74.2502 280.65 74.5448 280.837 74.7702 281.088C75.0042 281.331 75.1212 281.686 75.1212 282.154C75.1298 282.735 74.9088 283.216 74.4582 283.597C74.0162 283.97 73.4138 284.156 72.6512 284.156ZM78.9372 284C78.3479 284 77.8842 283.857 77.5462 283.571C77.2082 283.285 77.0392 282.769 77.0392 282.024V278.475H75.9212V277.552H77.0392L77.1822 276.005H78.1312V277.552H80.0292V278.475H78.1312V282.024C78.1312 282.431 78.2135 282.709 78.3782 282.856C78.5429 282.995 78.8332 283.064 79.2492 283.064H79.9252V284H78.9372ZM83.5615 284.156C83.0242 284.156 82.5779 284.065 82.2225 283.883C81.8672 283.701 81.6029 283.458 81.4295 283.155C81.2562 282.852 81.1695 282.522 81.1695 282.167C81.1695 281.508 81.4209 281.001 81.9235 280.646C82.4262 280.291 83.1109 280.113 83.9775 280.113H85.7195V280.035C85.7195 279.472 85.5722 279.047 85.2775 278.761C84.9829 278.466 84.5885 278.319 84.0945 278.319C83.6699 278.319 83.3015 278.427 82.9895 278.644C82.6862 278.852 82.4955 279.16 82.4175 279.567H81.2995C81.3429 279.099 81.4989 278.705 81.7675 278.384C82.0449 278.063 82.3872 277.821 82.7945 277.656C83.2019 277.483 83.6352 277.396 84.0945 277.396C84.9959 277.396 85.6719 277.639 86.1225 278.124C86.5819 278.601 86.8115 279.238 86.8115 280.035V284H85.8365L85.7715 282.843C85.5895 283.207 85.3209 283.519 84.9655 283.779C84.6189 284.03 84.1509 284.156 83.5615 284.156ZM83.7305 283.233C84.1465 283.233 84.5019 283.125 84.7965 282.908C85.0999 282.691 85.3295 282.41 85.4855 282.063C85.6415 281.716 85.7195 281.352 85.7195 280.971V280.958H84.0685C83.4272 280.958 82.9722 281.071 82.7035 281.296C82.4435 281.513 82.3135 281.786 82.3135 282.115C82.3135 282.453 82.4349 282.726 82.6775 282.934C82.9289 283.133 83.2799 283.233 83.7305 283.233ZM90.82 284C90.2307 284 89.767 283.857 89.429 283.571C89.091 283.285 88.922 282.769 88.922 282.024V278.475H87.804V277.552H88.922L89.065 276.005H90.014V277.552H91.912V278.475H90.014V282.024C90.014 282.431 90.0963 282.709 90.261 282.856C90.4257 282.995 90.716 283.064 91.132 283.064H91.808V284H90.82ZM96.0206 284.156C95.4053 284.156 94.8593 284.017 94.3826 283.74C93.9059 283.454 93.5289 283.06 93.2516 282.557C92.9829 282.054 92.8486 281.461 92.8486 280.776C92.8486 280.1 92.9829 279.511 93.2516 279.008C93.5203 278.497 93.8929 278.102 94.3696 277.825C94.8549 277.539 95.4139 277.396 96.0466 277.396C96.6706 277.396 97.2079 277.539 97.6586 277.825C98.1179 278.102 98.4689 278.471 98.7116 278.93C98.9543 279.389 99.0756 279.883 99.0756 280.412C99.0756 280.507 99.0713 280.603 99.0626 280.698C99.0626 280.793 99.0626 280.902 99.0626 281.023H93.9276C93.9536 281.517 94.0663 281.929 94.2656 282.258C94.4736 282.579 94.7293 282.821 95.0326 282.986C95.3446 283.151 95.6739 283.233 96.0206 283.233C96.4713 283.233 96.8483 283.129 97.1516 282.921C97.4549 282.713 97.6759 282.431 97.8146 282.076H98.8936C98.7203 282.674 98.3866 283.172 97.8926 283.571C97.4073 283.961 96.7833 284.156 96.0206 284.156ZM96.0206 278.319C95.5006 278.319 95.0369 278.479 94.6296 278.8C94.2309 279.112 94.0013 279.571 93.9406 280.178H97.9966C97.9706 279.597 97.7713 279.142 97.3986 278.813C97.0259 278.484 96.5666 278.319 96.0206 278.319ZM100.523 284V277.552H101.511L101.589 278.488C101.797 278.141 102.074 277.873 102.421 277.682C102.768 277.491 103.158 277.396 103.591 277.396C104.102 277.396 104.54 277.5 104.904 277.708C105.277 277.916 105.563 278.232 105.762 278.657C105.987 278.267 106.295 277.959 106.685 277.734C107.084 277.509 107.513 277.396 107.972 277.396C108.743 277.396 109.359 277.63 109.818 278.098C110.277 278.557 110.507 279.268 110.507 280.23V284H109.428V280.347C109.428 279.68 109.294 279.177 109.025 278.839C108.756 278.501 108.371 278.332 107.868 278.332C107.348 278.332 106.915 278.536 106.568 278.943C106.23 279.342 106.061 279.914 106.061 280.659V284H104.969V280.347C104.969 279.68 104.835 279.177 104.566 278.839C104.297 278.501 103.912 278.332 103.409 278.332C102.898 278.332 102.469 278.536 102.122 278.943C101.784 279.342 101.615 279.914 101.615 280.659V284H100.523ZM115.051 284.156C114.436 284.156 113.89 284.017 113.413 283.74C112.936 283.454 112.559 283.06 112.282 282.557C112.013 282.054 111.879 281.461 111.879 280.776C111.879 280.1 112.013 279.511 112.282 279.008C112.551 278.497 112.923 278.102 113.4 277.825C113.885 277.539 114.444 277.396 115.077 277.396C115.701 277.396 116.238 277.539 116.689 277.825C117.148 278.102 117.499 278.471 117.742 278.93C117.985 279.389 118.106 279.883 118.106 280.412C118.106 280.507 118.102 280.603 118.093 280.698C118.093 280.793 118.093 280.902 118.093 281.023H112.958C112.984 281.517 113.097 281.929 113.296 282.258C113.504 282.579 113.76 282.821 114.063 282.986C114.375 283.151 114.704 283.233 115.051 283.233C115.502 283.233 115.879 283.129 116.182 282.921C116.485 282.713 116.706 282.431 116.845 282.076H117.924C117.751 282.674 117.417 283.172 116.923 283.571C116.438 283.961 115.814 284.156 115.051 284.156ZM115.051 278.319C114.531 278.319 114.067 278.479 113.66 278.8C113.261 279.112 113.032 279.571 112.971 280.178H117.027C117.001 279.597 116.802 279.142 116.429 278.813C116.056 278.484 115.597 278.319 115.051 278.319ZM119.553 284V277.552H120.541L120.606 278.709C120.814 278.302 121.113 277.981 121.503 277.747C121.893 277.513 122.335 277.396 122.829 277.396C123.592 277.396 124.199 277.63 124.649 278.098C125.109 278.557 125.338 279.268 125.338 280.23V284H124.246V280.347C124.246 279.004 123.692 278.332 122.582 278.332C122.028 278.332 121.564 278.536 121.191 278.943C120.827 279.342 120.645 279.914 120.645 280.659V284H119.553ZM129.541 284C128.951 284 128.488 283.857 128.15 283.571C127.812 283.285 127.643 282.769 127.643 282.024V278.475H126.525V277.552H127.643L127.786 276.005H128.735V277.552H130.633V278.475H128.735V282.024C128.735 282.431 128.817 282.709 128.982 282.856C129.146 282.995 129.437 283.064 129.853 283.064H130.529V284H129.541ZM134.49 284.156C133.719 284.156 133.077 283.961 132.566 283.571C132.055 283.181 131.756 282.652 131.669 281.985H132.787C132.856 282.323 133.034 282.618 133.32 282.869C133.615 283.112 134.009 283.233 134.503 283.233C134.962 283.233 135.3 283.138 135.517 282.947C135.734 282.748 135.842 282.514 135.842 282.245C135.842 281.855 135.699 281.595 135.413 281.465C135.136 281.335 134.741 281.218 134.23 281.114C133.883 281.045 133.537 280.945 133.19 280.815C132.843 280.685 132.553 280.503 132.319 280.269C132.085 280.026 131.968 279.71 131.968 279.32C131.968 278.757 132.176 278.297 132.592 277.942C133.017 277.578 133.589 277.396 134.308 277.396C134.993 277.396 135.552 277.569 135.985 277.916C136.427 278.254 136.683 278.739 136.752 279.372H135.673C135.63 279.043 135.487 278.787 135.244 278.605C135.01 278.414 134.694 278.319 134.295 278.319C133.905 278.319 133.602 278.401 133.385 278.566C133.177 278.731 133.073 278.947 133.073 279.216C133.073 279.476 133.207 279.68 133.476 279.827C133.753 279.974 134.126 280.1 134.594 280.204C134.993 280.291 135.37 280.399 135.725 280.529C136.089 280.65 136.384 280.837 136.609 281.088C136.843 281.331 136.96 281.686 136.96 282.154C136.969 282.735 136.748 283.216 136.297 283.597C135.855 283.97 135.253 284.156 134.49 284.156Z" fill="#282828"/>
<path d="M247.013 284V282.05H242.398V281.205L246.818 274.9H248.092V281.088H249.444V282.05H248.092V284H247.013ZM243.607 281.088H247.065V276.109L243.607 281.088ZM252.35 279.125C251.96 279.125 251.605 279.038 251.284 278.865C250.972 278.683 250.725 278.432 250.543 278.111C250.361 277.782 250.27 277.392 250.27 276.941C250.27 276.49 250.361 276.105 250.543 275.784C250.734 275.455 250.985 275.203 251.297 275.03C251.618 274.848 251.973 274.757 252.363 274.757C252.753 274.757 253.104 274.848 253.416 275.03C253.728 275.203 253.975 275.455 254.157 275.784C254.339 276.105 254.43 276.49 254.43 276.941C254.43 277.392 254.335 277.782 254.144 278.111C253.962 278.432 253.715 278.683 253.403 278.865C253.091 279.038 252.74 279.125 252.35 279.125ZM251.544 284L256.835 274.9H257.927L252.636 284H251.544ZM252.35 278.28C252.653 278.28 252.918 278.167 253.143 277.942C253.377 277.717 253.494 277.383 253.494 276.941C253.494 276.49 253.381 276.152 253.156 275.927C252.931 275.693 252.666 275.576 252.363 275.576C252.06 275.576 251.787 275.693 251.544 275.927C251.31 276.152 251.193 276.49 251.193 276.941C251.193 277.383 251.31 277.717 251.544 277.942C251.778 278.167 252.047 278.28 252.35 278.28ZM257.212 284.156C256.822 284.156 256.467 284.069 256.146 283.896C255.834 283.714 255.587 283.463 255.405 283.142C255.223 282.813 255.132 282.423 255.132 281.972C255.132 281.521 255.223 281.136 255.405 280.815C255.596 280.486 255.847 280.234 256.159 280.061C256.471 279.879 256.822 279.788 257.212 279.788C257.602 279.788 257.953 279.879 258.265 280.061C258.577 280.234 258.824 280.486 259.006 280.815C259.188 281.136 259.279 281.521 259.279 281.972C259.279 282.423 259.188 282.813 259.006 283.142C258.824 283.463 258.577 283.714 258.265 283.896C257.953 284.069 257.602 284.156 257.212 284.156ZM257.199 283.311C257.511 283.311 257.78 283.198 258.005 282.973C258.239 282.748 258.356 282.414 258.356 281.972C258.356 281.521 258.243 281.183 258.018 280.958C257.793 280.733 257.524 280.62 257.212 280.62C256.909 280.62 256.64 280.733 256.406 280.958C256.172 281.183 256.055 281.521 256.055 281.972C256.055 282.414 256.168 282.748 256.393 282.973C256.627 283.198 256.896 283.311 257.199 283.311Z" fill="black"/>
<path d="M40.705 136L37.286 126.9H38.469L41.342 134.843L44.241 126.9H45.398L41.979 136H40.705ZM47.2436 128.122C47.0269 128.122 46.8449 128.053 46.6976 127.914C46.5589 127.767 46.4896 127.585 46.4896 127.368C46.4896 127.16 46.5589 126.987 46.6976 126.848C46.8449 126.709 47.0269 126.64 47.2436 126.64C47.4516 126.64 47.6293 126.709 47.7766 126.848C47.9239 126.987 47.9976 127.16 47.9976 127.368C47.9976 127.585 47.9239 127.767 47.7766 127.914C47.6293 128.053 47.4516 128.122 47.2436 128.122ZM46.6976 136V129.552H47.7896V136H46.6976ZM52.6159 136.156C51.9746 136.156 51.4113 136.009 50.9259 135.714C50.4493 135.419 50.0766 135.016 49.8079 134.505C49.5479 133.994 49.4179 133.413 49.4179 132.763C49.4179 132.113 49.5523 131.537 49.8209 131.034C50.0896 130.523 50.4623 130.124 50.9389 129.838C51.4156 129.543 51.9789 129.396 52.6289 129.396C53.1576 129.396 53.6256 129.504 54.0329 129.721C54.4403 129.938 54.7566 130.241 54.9819 130.631V126.64H56.0739V136H55.0859L54.9819 134.934C54.7739 135.246 54.4749 135.528 54.0849 135.779C53.6949 136.03 53.2053 136.156 52.6159 136.156ZM52.7329 135.207C53.1663 135.207 53.5476 135.107 53.8769 134.908C54.2149 134.7 54.4749 134.414 54.6569 134.05C54.8476 133.686 54.9429 133.261 54.9429 132.776C54.9429 132.291 54.8476 131.866 54.6569 131.502C54.4749 131.138 54.2149 130.856 53.8769 130.657C53.5476 130.449 53.1663 130.345 52.7329 130.345C52.3083 130.345 51.9269 130.449 51.5889 130.657C51.2596 130.856 50.9996 131.138 50.8089 131.502C50.6269 131.866 50.5359 132.291 50.5359 132.776C50.5359 133.261 50.6269 133.686 50.8089 134.05C50.9996 134.414 51.2596 134.7 51.5889 134.908C51.9269 135.107 52.3083 135.207 52.7329 135.207ZM60.753 136.156C60.1377 136.156 59.5917 136.017 59.115 135.74C58.6384 135.454 58.2614 135.06 57.984 134.557C57.7154 134.054 57.581 133.461 57.581 132.776C57.581 132.1 57.7154 131.511 57.984 131.008C58.2527 130.497 58.6254 130.102 59.102 129.825C59.5874 129.539 60.1464 129.396 60.779 129.396C61.403 129.396 61.9404 129.539 62.391 129.825C62.8504 130.102 63.2014 130.471 63.444 130.93C63.6867 131.389 63.808 131.883 63.808 132.412C63.808 132.507 63.8037 132.603 63.795 132.698C63.795 132.793 63.795 132.902 63.795 133.023H58.66C58.686 133.517 58.7987 133.929 58.998 134.258C59.206 134.579 59.4617 134.821 59.765 134.986C60.077 135.151 60.4064 135.233 60.753 135.233C61.2037 135.233 61.5807 135.129 61.884 134.921C62.1874 134.713 62.4084 134.431 62.547 134.076H63.626C63.4527 134.674 63.119 135.172 62.625 135.571C62.1397 135.961 61.5157 136.156 60.753 136.156ZM60.753 130.319C60.233 130.319 59.7694 130.479 59.362 130.8C58.9634 131.112 58.7337 131.571 58.673 132.178H62.729C62.703 131.597 62.5037 131.142 62.131 130.813C61.7584 130.484 61.299 130.319 60.753 130.319ZM68.1934 136.156C67.5867 136.156 67.0407 136.017 66.5554 135.74C66.0701 135.463 65.6844 135.073 65.3984 134.57C65.1211 134.059 64.9824 133.461 64.9824 132.776C64.9824 132.091 65.1254 131.498 65.4114 130.995C65.6974 130.484 66.0831 130.089 66.5684 129.812C67.0624 129.535 67.6127 129.396 68.2194 129.396C68.8261 129.396 69.3721 129.535 69.8574 129.812C70.3427 130.089 70.7241 130.484 71.0014 130.995C71.2874 131.498 71.4304 132.091 71.4304 132.776C71.4304 133.461 71.2874 134.059 71.0014 134.57C70.7154 135.073 70.3254 135.463 69.8314 135.74C69.3461 136.017 68.8001 136.156 68.1934 136.156ZM68.1934 135.22C68.5661 135.22 68.9127 135.129 69.2334 134.947C69.5541 134.765 69.8141 134.492 70.0134 134.128C70.2127 133.764 70.3124 133.313 70.3124 132.776C70.3124 132.239 70.2127 131.788 70.0134 131.424C69.8227 131.06 69.5671 130.787 69.2464 130.605C68.9257 130.423 68.5834 130.332 68.2194 130.332C67.8467 130.332 67.5001 130.423 67.1794 130.605C66.8587 130.787 66.5987 131.06 66.3994 131.424C66.2001 131.788 66.1004 132.239 66.1004 132.776C66.1004 133.313 66.2001 133.764 66.3994 134.128C66.5987 134.492 66.8544 134.765 67.1664 134.947C67.4871 135.129 67.8294 135.22 68.1934 135.22ZM75.4188 136.156C74.6474 136.156 74.0061 135.961 73.4948 135.571C72.9834 135.181 72.6844 134.652 72.5978 133.985H73.7158C73.7851 134.323 73.9628 134.618 74.2488 134.869C74.5434 135.112 74.9378 135.233 75.4318 135.233C75.8911 135.233 76.2291 135.138 76.4458 134.947C76.6624 134.748 76.7708 134.514 76.7708 134.245C76.7708 133.855 76.6278 133.595 76.3418 133.465C76.0644 133.335 75.6701 133.218 75.1588 133.114C74.8121 133.045 74.4654 132.945 74.1188 132.815C73.7721 132.685 73.4818 132.503 73.2478 132.269C73.0138 132.026 72.8968 131.71 72.8968 131.32C72.8968 130.757 73.1048 130.297 73.5208 129.942C73.9454 129.578 74.5174 129.396 75.2368 129.396C75.9214 129.396 76.4804 129.569 76.9138 129.916C77.3558 130.254 77.6114 130.739 77.6808 131.372H76.6018C76.5584 131.043 76.4154 130.787 76.1728 130.605C75.9388 130.414 75.6224 130.319 75.2238 130.319C74.8338 130.319 74.5304 130.401 74.3138 130.566C74.1058 130.731 74.0018 130.947 74.0018 131.216C74.0018 131.476 74.1361 131.68 74.4048 131.827C74.6821 131.974 75.0548 132.1 75.5228 132.204C75.9214 132.291 76.2984 132.399 76.6538 132.529C77.0178 132.65 77.3124 132.837 77.5378 133.088C77.7718 133.331 77.8888 133.686 77.8888 134.154C77.8974 134.735 77.6764 135.216 77.2258 135.597C76.7838 135.97 76.1814 136.156 75.4188 136.156Z" fill="#282828"/>
<path d="M239.027 135V133.05H234.412V132.205L238.832 125.9H240.106V132.088H241.458V133.05H240.106V135H239.027ZM235.621 132.088H239.079V127.109L235.621 132.088ZM245.78 135.156C245.182 135.156 244.645 135.048 244.168 134.831C243.692 134.606 243.315 134.298 243.037 133.908C242.769 133.509 242.634 133.05 242.634 132.53C242.634 131.975 242.795 131.477 243.115 131.035C243.445 130.593 243.878 130.298 244.415 130.151C243.921 129.986 243.54 129.722 243.271 129.358C243.003 128.994 242.868 128.595 242.868 128.162C242.868 127.72 242.985 127.317 243.219 126.953C243.453 126.58 243.787 126.286 244.22 126.069C244.654 125.852 245.174 125.744 245.78 125.744C246.387 125.744 246.907 125.852 247.34 126.069C247.774 126.286 248.107 126.58 248.341 126.953C248.575 127.317 248.692 127.72 248.692 128.162C248.692 128.587 248.558 128.985 248.289 129.358C248.021 129.722 247.639 129.986 247.145 130.151C247.683 130.298 248.112 130.593 248.432 131.035C248.762 131.477 248.926 131.975 248.926 132.53C248.926 133.05 248.788 133.509 248.51 133.908C248.242 134.298 247.869 134.606 247.392 134.831C246.916 135.048 246.378 135.156 245.78 135.156ZM245.78 129.761C246.335 129.761 246.773 129.622 247.093 129.345C247.423 129.059 247.587 128.686 247.587 128.227C247.587 127.716 247.427 127.33 247.106 127.07C246.786 126.81 246.344 126.68 245.78 126.68C245.217 126.68 244.775 126.81 244.454 127.07C244.142 127.33 243.986 127.716 243.986 128.227C243.986 128.686 244.147 129.059 244.467 129.345C244.788 129.622 245.226 129.761 245.78 129.761ZM245.78 134.194C246.465 134.194 246.976 134.038 247.314 133.726C247.661 133.405 247.834 132.985 247.834 132.465C247.834 131.876 247.648 131.429 247.275 131.126C246.903 130.823 246.404 130.671 245.78 130.671C245.156 130.671 244.658 130.823 244.285 131.126C243.913 131.429 243.726 131.876 243.726 132.465C243.726 132.985 243.895 133.405 244.233 133.726C244.58 134.038 245.096 134.194 245.78 134.194ZM252.35 130.125C251.96 130.125 251.605 130.038 251.284 129.865C250.972 129.683 250.725 129.432 250.543 129.111C250.361 128.782 250.27 128.392 250.27 127.941C250.27 127.49 250.361 127.105 250.543 126.784C250.734 126.455 250.985 126.203 251.297 126.03C251.618 125.848 251.973 125.757 252.363 125.757C252.753 125.757 253.104 125.848 253.416 126.03C253.728 126.203 253.975 126.455 254.157 126.784C254.339 127.105 254.43 127.49 254.43 127.941C254.43 128.392 254.335 128.782 254.144 129.111C253.962 129.432 253.715 129.683 253.403 129.865C253.091 130.038 252.74 130.125 252.35 130.125ZM251.544 135L256.835 125.9H257.927L252.636 135H251.544ZM252.35 129.28C252.653 129.28 252.918 129.167 253.143 128.942C253.377 128.717 253.494 128.383 253.494 127.941C253.494 127.49 253.381 127.152 253.156 126.927C252.931 126.693 252.666 126.576 252.363 126.576C252.06 126.576 251.787 126.693 251.544 126.927C251.31 127.152 251.193 127.49 251.193 127.941C251.193 128.383 251.31 128.717 251.544 128.942C251.778 129.167 252.047 129.28 252.35 129.28ZM257.212 135.156C256.822 135.156 256.467 135.069 256.146 134.896C255.834 134.714 255.587 134.463 255.405 134.142C255.223 133.813 255.132 133.423 255.132 132.972C255.132 132.521 255.223 132.136 255.405 131.815C255.596 131.486 255.847 131.234 256.159 131.061C256.471 130.879 256.822 130.788 257.212 130.788C257.602 130.788 257.953 130.879 258.265 131.061C258.577 131.234 258.824 131.486 259.006 131.815C259.188 132.136 259.279 132.521 259.279 132.972C259.279 133.423 259.188 133.813 259.006 134.142C258.824 134.463 258.577 134.714 258.265 134.896C257.953 135.069 257.602 135.156 257.212 135.156ZM257.199 134.311C257.511 134.311 257.78 134.198 258.005 133.973C258.239 133.748 258.356 133.414 258.356 132.972C258.356 132.521 258.243 132.183 258.018 131.958C257.793 131.733 257.524 131.62 257.212 131.62C256.909 131.62 256.64 131.733 256.406 131.958C256.172 132.183 256.055 132.521 256.055 132.972C256.055 133.414 256.168 133.748 256.393 133.973C256.627 134.198 256.896 134.311 257.199 134.311Z" fill="black"/>
</svg>
