<svg width="209" height="55" viewBox="0 0 209 55" fill="none" xmlns="http://www.w3.org/2000/svg">
<path d="M8.37838 45.192C7.42904 45.192 6.63971 44.952 6.01038 44.472C5.38104 43.992 5.01304 43.3413 4.90638 42.52H6.28238C6.36771 42.936 6.58638 43.2987 6.93838 43.608C7.30104 43.9067 7.78638 44.056 8.39438 44.056C8.95971 44.056 9.37571 43.9387 9.64238 43.704C9.90904 43.4587 10.0424 43.1707 10.0424 42.84C10.0424 42.36 9.86638 42.04 9.51438 41.88C9.17304 41.72 8.68771 41.576 8.05838 41.448C7.63171 41.3627 7.20504 41.24 6.77838 41.08C6.35171 40.92 5.99438 40.696 5.70638 40.408C5.41838 40.1093 5.27438 39.72 5.27438 39.24C5.27438 38.5467 5.53038 37.9813 6.04238 37.544C6.56504 37.096 7.26904 36.872 8.15438 36.872C8.99704 36.872 9.68504 37.0853 10.2184 37.512C10.7624 37.928 11.077 38.5253 11.1624 39.304H9.83438C9.78104 38.8987 9.60504 38.584 9.30638 38.36C9.01838 38.1253 8.62904 38.008 8.13838 38.008C7.65838 38.008 7.28504 38.1093 7.01838 38.312C6.76238 38.5147 6.63438 38.7813 6.63438 39.112C6.63438 39.432 6.79971 39.6827 7.13038 39.864C7.47171 40.0453 7.93038 40.2 8.50638 40.328C8.99704 40.4347 9.46104 40.568 9.89838 40.728C10.3464 40.8773 10.709 41.1067 10.9864 41.416C11.2744 41.7147 11.4184 42.152 11.4184 42.728C11.429 43.4427 11.157 44.0347 10.6024 44.504C10.0584 44.9627 9.31704 45.192 8.37838 45.192ZM15.9784 45.192C15.317 45.192 14.7677 45.08 14.3304 44.856C13.893 44.632 13.5677 44.3333 13.3544 43.96C13.141 43.5867 13.0344 43.1813 13.0344 42.744C13.0344 41.9333 13.3437 41.3093 13.9624 40.872C14.581 40.4347 15.4237 40.216 16.4904 40.216H18.6344V40.12C18.6344 39.4267 18.453 38.904 18.0904 38.552C17.7277 38.1893 17.2424 38.008 16.6344 38.008C16.1117 38.008 15.6584 38.1413 15.2744 38.408C14.901 38.664 14.6664 39.0427 14.5704 39.544H13.1944C13.2477 38.968 13.4397 38.4827 13.7704 38.088C14.1117 37.6933 14.533 37.3947 15.0344 37.192C15.5357 36.9787 16.069 36.872 16.6344 36.872C17.7437 36.872 18.5757 37.1707 19.1304 37.768C19.6957 38.3547 19.9784 39.1387 19.9784 40.12V45H18.7784L18.6984 43.576C18.4744 44.024 18.1437 44.408 17.7064 44.728C17.2797 45.0373 16.7037 45.192 15.9784 45.192ZM16.1864 44.056C16.6984 44.056 17.1357 43.9227 17.4984 43.656C17.8717 43.3893 18.1544 43.0427 18.3464 42.616C18.5384 42.1893 18.6344 41.7413 18.6344 41.272V41.256H16.6024C15.813 41.256 15.253 41.3947 14.9224 41.672C14.6024 41.9387 14.4424 42.2747 14.4424 42.68C14.4424 43.096 14.5917 43.432 14.8904 43.688C15.1997 43.9333 15.6317 44.056 16.1864 44.056ZM23.9858 45L20.9778 37.064H22.3858L24.7698 43.704L27.1698 37.064H28.5458L25.5378 45H23.9858ZM33.2033 45.192C32.4459 45.192 31.7739 45.0213 31.1873 44.68C30.6006 44.328 30.1366 43.8427 29.7953 43.224C29.4646 42.6053 29.2993 41.8747 29.2993 41.032C29.2993 40.2 29.4646 39.4747 29.7953 38.856C30.1259 38.2267 30.5846 37.7413 31.1713 37.4C31.7686 37.048 32.4566 36.872 33.2352 36.872C34.0033 36.872 34.6646 37.048 35.2193 37.4C35.7846 37.7413 36.2166 38.1947 36.5153 38.76C36.8139 39.3253 36.9633 39.9333 36.9633 40.584C36.9633 40.7013 36.9579 40.8187 36.9473 40.936C36.9473 41.0533 36.9473 41.1867 36.9473 41.336H30.6273C30.6593 41.944 30.7979 42.4507 31.0433 42.856C31.2993 43.2507 31.6139 43.5493 31.9873 43.752C32.3713 43.9547 32.7766 44.056 33.2033 44.056C33.7579 44.056 34.2219 43.928 34.5953 43.672C34.9686 43.416 35.2406 43.0693 35.4113 42.632H36.7393C36.5259 43.368 36.1153 43.9813 35.5073 44.472C34.9099 44.952 34.1419 45.192 33.2033 45.192ZM33.2033 38.008C32.5633 38.008 31.9926 38.2053 31.4913 38.6C31.0006 38.984 30.7179 39.5493 30.6432 40.296H35.6353C35.6033 39.5813 35.3579 39.0213 34.8993 38.616C34.4406 38.2107 33.8753 38.008 33.2033 38.008ZM43.795 35.304C43.5283 35.304 43.3043 35.2187 43.123 35.048C42.9523 34.8667 42.867 34.6427 42.867 34.376C42.867 34.12 42.9523 33.9067 43.123 33.736C43.3043 33.5653 43.5283 33.48 43.795 33.48C44.051 33.48 44.2697 33.5653 44.451 33.736C44.6323 33.9067 44.723 34.12 44.723 34.376C44.723 34.6427 44.6323 34.8667 44.451 35.048C44.2697 35.2187 44.051 35.304 43.795 35.304ZM43.123 45V37.064H44.467V45H43.123ZM49.9431 45C49.2178 45 48.6471 44.824 48.2311 44.472C47.8151 44.12 47.6071 43.4853 47.6071 42.568V38.2H46.2311V37.064H47.6071L47.7831 35.16H48.9511V37.064H51.2871V38.2H48.9511V42.568C48.9511 43.0693 49.0525 43.4107 49.2551 43.592C49.4578 43.7627 49.8151 43.848 50.3271 43.848H51.1591V45H49.9431ZM60.365 45C59.6397 45 59.069 44.824 58.653 44.472C58.237 44.12 58.029 43.4853 58.029 42.568V38.2H56.653V37.064H58.029L58.205 35.16H59.373V37.064H61.709V38.2H59.373V42.568C59.373 43.0693 59.4743 43.4107 59.677 43.592C59.8797 43.7627 60.237 43.848 60.749 43.848H61.581V45H60.365ZM66.8138 45.192C66.0671 45.192 65.3951 45.0213 64.7978 44.68C64.2004 44.3387 63.7258 43.8587 63.3738 43.24C63.0324 42.6107 62.8618 41.8747 62.8618 41.032C62.8618 40.1893 63.0378 39.4587 63.3898 38.84C63.7418 38.2107 64.2164 37.7253 64.8138 37.384C65.4218 37.0427 66.0991 36.872 66.8458 36.872C67.5924 36.872 68.2644 37.0427 68.8618 37.384C69.4591 37.7253 69.9284 38.2107 70.2698 38.84C70.6218 39.4587 70.7978 40.1893 70.7978 41.032C70.7978 41.8747 70.6218 42.6107 70.2698 43.24C69.9178 43.8587 69.4378 44.3387 68.8298 44.68C68.2324 45.0213 67.5604 45.192 66.8138 45.192ZM66.8138 44.04C67.2724 44.04 67.6991 43.928 68.0938 43.704C68.4884 43.48 68.8084 43.144 69.0538 42.696C69.2991 42.248 69.4218 41.6933 69.4218 41.032C69.4218 40.3707 69.2991 39.816 69.0538 39.368C68.8191 38.92 68.5044 38.584 68.1098 38.36C67.7151 38.136 67.2938 38.024 66.8458 38.024C66.3871 38.024 65.9604 38.136 65.5658 38.36C65.1711 38.584 64.8511 38.92 64.6058 39.368C64.3604 39.816 64.2378 40.3707 64.2378 41.032C64.2378 41.6933 64.3604 42.248 64.6058 42.696C64.8511 43.144 65.1658 43.48 65.5498 43.704C65.9444 43.928 66.3658 44.04 66.8138 44.04ZM79.5409 45.192C78.8795 45.192 78.3302 45.08 77.8929 44.856C77.4555 44.632 77.1302 44.3333 76.9169 43.96C76.7035 43.5867 76.5969 43.1813 76.5969 42.744C76.5969 41.9333 76.9062 41.3093 77.5249 40.872C78.1435 40.4347 78.9862 40.216 80.0529 40.216H82.1969V40.12C82.1969 39.4267 82.0155 38.904 81.6529 38.552C81.2902 38.1893 80.8049 38.008 80.1969 38.008C79.6742 38.008 79.2209 38.1413 78.8369 38.408C78.4635 38.664 78.2289 39.0427 78.1329 39.544H76.7569C76.8102 38.968 77.0022 38.4827 77.3329 38.088C77.6742 37.6933 78.0955 37.3947 78.5969 37.192C79.0982 36.9787 79.6315 36.872 80.1969 36.872C81.3062 36.872 82.1382 37.1707 82.6929 37.768C83.2582 38.3547 83.5409 39.1387 83.5409 40.12V45H82.3409L82.2609 43.576C82.0369 44.024 81.7062 44.408 81.2689 44.728C80.8422 45.0373 80.2662 45.192 79.5409 45.192ZM79.7489 44.056C80.2609 44.056 80.6982 43.9227 81.0609 43.656C81.4342 43.3893 81.7169 43.0427 81.9089 42.616C82.1009 42.1893 82.1969 41.7413 82.1969 41.272V41.256H80.1649C79.3755 41.256 78.8155 41.3947 78.4849 41.672C78.1649 41.9387 78.0049 42.2747 78.0049 42.68C78.0049 43.096 78.1542 43.432 78.4529 43.688C78.7622 43.9333 79.1942 44.056 79.7489 44.056ZM93.3915 45.192C92.6022 45.192 91.9088 45.0107 91.3115 44.648C90.7248 44.2853 90.2662 43.7893 89.9355 43.16C89.6155 42.5307 89.4555 41.816 89.4555 41.016C89.4555 40.216 89.6208 39.5067 89.9515 38.888C90.2822 38.2587 90.7408 37.768 91.3275 37.416C91.9142 37.0533 92.6075 36.872 93.4075 36.872C94.0582 36.872 94.6342 37.0053 95.1355 37.272C95.6368 37.5387 96.0262 37.912 96.3035 38.392V33.48H97.6475V45H96.4315L96.3035 43.688C96.0475 44.072 95.6795 44.4187 95.1995 44.728C94.7195 45.0373 94.1168 45.192 93.3915 45.192ZM93.5355 44.024C94.0688 44.024 94.5382 43.9013 94.9435 43.656C95.3595 43.4 95.6795 43.048 95.9035 42.6C96.1382 42.152 96.2555 41.6293 96.2555 41.032C96.2555 40.4347 96.1382 39.912 95.9035 39.464C95.6795 39.016 95.3595 38.6693 94.9435 38.424C94.5382 38.168 94.0688 38.04 93.5355 38.04C93.0128 38.04 92.5435 38.168 92.1275 38.424C91.7222 38.6693 91.4022 39.016 91.1675 39.464C90.9435 39.912 90.8315 40.4347 90.8315 41.032C90.8315 41.6293 90.9435 42.152 91.1675 42.6C91.4022 43.048 91.7222 43.4 92.1275 43.656C92.5435 43.9013 93.0128 44.024 93.5355 44.024ZM103.406 45.192C102.649 45.192 101.977 45.0213 101.39 44.68C100.804 44.328 100.34 43.8427 99.9984 43.224C99.6677 42.6053 99.5024 41.8747 99.5024 41.032C99.5024 40.2 99.6677 39.4747 99.9984 38.856C100.329 38.2267 100.788 37.7413 101.374 37.4C101.972 37.048 102.66 36.872 103.438 36.872C104.206 36.872 104.868 37.048 105.422 37.4C105.988 37.7413 106.42 38.1947 106.718 38.76C107.017 39.3253 107.166 39.9333 107.166 40.584C107.166 40.7013 107.161 40.8187 107.15 40.936C107.15 41.0533 107.15 41.1867 107.15 41.336H100.83C100.862 41.944 101.001 42.4507 101.246 42.856C101.502 43.2507 101.817 43.5493 102.19 43.752C102.574 43.9547 102.98 44.056 103.406 44.056C103.961 44.056 104.425 43.928 104.798 43.672C105.172 43.416 105.444 43.0693 105.614 42.632H106.942C106.729 43.368 106.318 43.9813 105.71 44.472C105.113 44.952 104.345 45.192 103.406 45.192ZM103.406 38.008C102.766 38.008 102.196 38.2053 101.694 38.6C101.204 38.984 100.921 39.5493 100.846 40.296H105.838C105.806 39.5813 105.561 39.0213 105.102 38.616C104.644 38.2107 104.078 38.008 103.406 38.008ZM111.988 45.192C111.038 45.192 110.249 44.952 109.62 44.472C108.99 43.992 108.622 43.3413 108.516 42.52H109.892C109.977 42.936 110.196 43.2987 110.548 43.608C110.91 43.9067 111.396 44.056 112.004 44.056C112.569 44.056 112.985 43.9387 113.252 43.704C113.518 43.4587 113.652 43.1707 113.652 42.84C113.652 42.36 113.476 42.04 113.124 41.88C112.782 41.72 112.297 41.576 111.668 41.448C111.241 41.3627 110.814 41.24 110.388 41.08C109.961 40.92 109.604 40.696 109.316 40.408C109.028 40.1093 108.884 39.72 108.884 39.24C108.884 38.5467 109.14 37.9813 109.652 37.544C110.174 37.096 110.878 36.872 111.764 36.872C112.606 36.872 113.294 37.0853 113.828 37.512C114.372 37.928 114.686 38.5253 114.772 39.304H113.444C113.39 38.8987 113.214 38.584 112.916 38.36C112.628 38.1253 112.238 38.008 111.748 38.008C111.268 38.008 110.894 38.1093 110.628 38.312C110.372 38.5147 110.244 38.7813 110.244 39.112C110.244 39.432 110.409 39.6827 110.74 39.864C111.081 40.0453 111.54 40.2 112.116 40.328C112.606 40.4347 113.07 40.568 113.508 40.728C113.956 40.8773 114.318 41.1067 114.596 41.416C114.884 41.7147 115.028 42.152 115.028 42.728C115.038 43.4427 114.766 44.0347 114.212 44.504C113.668 44.9627 112.926 45.192 111.988 45.192ZM117.764 35.304C117.497 35.304 117.273 35.2187 117.092 35.048C116.921 34.8667 116.836 34.6427 116.836 34.376C116.836 34.12 116.921 33.9067 117.092 33.736C117.273 33.5653 117.497 33.48 117.764 33.48C118.02 33.48 118.238 33.5653 118.42 33.736C118.601 33.9067 118.692 34.12 118.692 34.376C118.692 34.6427 118.601 34.8667 118.42 35.048C118.238 35.2187 118.02 35.304 117.764 35.304ZM117.092 45V37.064H118.436V45H117.092ZM123.912 42.504C123.464 42.504 123.053 42.4453 122.68 42.328L121.88 43.08C121.997 43.1653 122.141 43.24 122.312 43.304C122.493 43.3573 122.749 43.4107 123.08 43.464C123.411 43.5067 123.875 43.5547 124.472 43.608C125.539 43.6827 126.301 43.928 126.76 44.344C127.219 44.76 127.448 45.304 127.448 45.976C127.448 46.4347 127.32 46.872 127.064 47.288C126.819 47.704 126.435 48.0453 125.912 48.312C125.4 48.5787 124.739 48.712 123.928 48.712C123.213 48.712 122.579 48.616 122.024 48.424C121.469 48.2427 121.037 47.96 120.728 47.576C120.419 47.2027 120.264 46.728 120.264 46.152C120.264 45.8533 120.344 45.528 120.504 45.176C120.664 44.8347 120.963 44.5093 121.4 44.2C121.165 44.104 120.963 44.0027 120.792 43.896C120.632 43.7787 120.483 43.6507 120.344 43.512V43.144L121.704 41.8C121.075 41.2667 120.76 40.5627 120.76 39.688C120.76 39.1653 120.883 38.6907 121.128 38.264C121.373 37.8373 121.731 37.5013 122.2 37.256C122.669 37 123.24 36.872 123.912 36.872C124.371 36.872 124.787 36.936 125.16 37.064H128.088V38.072L126.6 38.136C126.909 38.584 127.064 39.1013 127.064 39.688C127.064 40.2107 126.936 40.6853 126.68 41.112C126.435 41.5387 126.077 41.88 125.608 42.136C125.149 42.3813 124.584 42.504 123.912 42.504ZM123.912 41.4C124.477 41.4 124.925 41.256 125.256 40.968C125.597 40.6693 125.768 40.2427 125.768 39.688C125.768 39.144 125.597 38.728 125.256 38.44C124.925 38.1413 124.477 37.992 123.912 37.992C123.336 37.992 122.877 38.1413 122.536 38.44C122.205 38.728 122.04 39.144 122.04 39.688C122.04 40.2427 122.205 40.6693 122.536 40.968C122.877 41.256 123.336 41.4 123.912 41.4ZM121.576 46.024C121.576 46.5573 121.8 46.952 122.248 47.208C122.696 47.4747 123.256 47.608 123.928 47.608C124.589 47.608 125.117 47.464 125.512 47.176C125.917 46.888 126.12 46.504 126.12 46.024C126.12 45.6827 125.981 45.384 125.704 45.128C125.427 44.8827 124.915 44.7387 124.168 44.696C123.581 44.6533 123.075 44.6 122.648 44.536C122.211 44.7707 121.923 45.0213 121.784 45.288C121.645 45.5653 121.576 45.8107 121.576 46.024ZM129.604 45V37.064H130.82L130.9 38.488C131.156 37.9867 131.524 37.592 132.004 37.304C132.484 37.016 133.028 36.872 133.636 36.872C134.575 36.872 135.321 37.16 135.876 37.736C136.441 38.3013 136.724 39.176 136.724 40.36V45H135.38V40.504C135.38 38.8507 134.697 38.024 133.332 38.024C132.649 38.024 132.079 38.2747 131.62 38.776C131.172 39.2667 130.948 39.9707 130.948 40.888V45H129.604ZM141.4 45.192C140.739 45.192 140.19 45.08 139.752 44.856C139.315 44.632 138.99 44.3333 138.776 43.96C138.563 43.5867 138.456 43.1813 138.456 42.744C138.456 41.9333 138.766 41.3093 139.384 40.872C140.003 40.4347 140.846 40.216 141.912 40.216H144.056V40.12C144.056 39.4267 143.875 38.904 143.512 38.552C143.15 38.1893 142.664 38.008 142.056 38.008C141.534 38.008 141.08 38.1413 140.696 38.408C140.323 38.664 140.088 39.0427 139.992 39.544H138.616C138.67 38.968 138.862 38.4827 139.192 38.088C139.534 37.6933 139.955 37.3947 140.456 37.192C140.958 36.9787 141.491 36.872 142.056 36.872C143.166 36.872 143.998 37.1707 144.552 37.768C145.118 38.3547 145.4 39.1387 145.4 40.12V45H144.2L144.12 43.576C143.896 44.024 143.566 44.408 143.128 44.728C142.702 45.0373 142.126 45.192 141.4 45.192ZM141.608 44.056C142.12 44.056 142.558 43.9227 142.92 43.656C143.294 43.3893 143.576 43.0427 143.768 42.616C143.96 42.1893 144.056 41.7413 144.056 41.272V41.256H142.024C141.235 41.256 140.675 41.3947 140.344 41.672C140.024 41.9387 139.864 42.2747 139.864 42.68C139.864 43.096 140.014 43.432 140.312 43.688C140.622 43.9333 141.054 44.056 141.608 44.056ZM150.334 45C149.608 45 149.038 44.824 148.622 44.472C148.206 44.12 147.998 43.4853 147.998 42.568V38.2H146.622V37.064H147.998L148.174 35.16H149.342V37.064H151.678V38.2H149.342V42.568C149.342 43.0693 149.443 43.4107 149.646 43.592C149.848 43.7627 150.206 43.848 150.718 43.848H151.55V45H150.334ZM156.735 45.192C155.977 45.192 155.305 45.0213 154.719 44.68C154.132 44.328 153.668 43.8427 153.327 43.224C152.996 42.6053 152.831 41.8747 152.831 41.032C152.831 40.2 152.996 39.4747 153.327 38.856C153.657 38.2267 154.116 37.7413 154.703 37.4C155.3 37.048 155.988 36.872 156.766 36.872C157.535 36.872 158.196 37.048 158.751 37.4C159.316 37.7413 159.748 38.1947 160.047 38.76C160.345 39.3253 160.495 39.9333 160.495 40.584C160.495 40.7013 160.489 40.8187 160.479 40.936C160.479 41.0533 160.479 41.1867 160.479 41.336H154.159C154.191 41.944 154.329 42.4507 154.575 42.856C154.831 43.2507 155.145 43.5493 155.519 43.752C155.903 43.9547 156.308 44.056 156.735 44.056C157.289 44.056 157.753 43.928 158.127 43.672C158.5 43.416 158.772 43.0693 158.943 42.632H160.271C160.057 43.368 159.647 43.9813 159.039 44.472C158.441 44.952 157.673 45.192 156.735 45.192ZM156.735 38.008C156.095 38.008 155.524 38.2053 155.023 38.6C154.532 38.984 154.249 39.5493 154.174 40.296H159.167C159.135 39.5813 158.889 39.0213 158.431 38.616C157.972 38.2107 157.407 38.008 156.735 38.008ZM165.876 45.192C165.087 45.192 164.393 45.0107 163.796 44.648C163.209 44.2853 162.751 43.7893 162.42 43.16C162.1 42.5307 161.94 41.816 161.94 41.016C161.94 40.216 162.105 39.5067 162.436 38.888C162.767 38.2587 163.225 37.768 163.812 37.416C164.399 37.0533 165.092 36.872 165.892 36.872C166.543 36.872 167.119 37.0053 167.62 37.272C168.121 37.5387 168.511 37.912 168.788 38.392V33.48H170.132V45H168.916L168.788 43.688C168.532 44.072 168.164 44.4187 167.684 44.728C167.204 45.0373 166.601 45.192 165.876 45.192ZM166.02 44.024C166.553 44.024 167.023 43.9013 167.428 43.656C167.844 43.4 168.164 43.048 168.388 42.6C168.623 42.152 168.74 41.6293 168.74 41.032C168.74 40.4347 168.623 39.912 168.388 39.464C168.164 39.016 167.844 38.6693 167.428 38.424C167.023 38.168 166.553 38.04 166.02 38.04C165.497 38.04 165.028 38.168 164.612 38.424C164.207 38.6693 163.887 39.016 163.652 39.464C163.428 39.912 163.316 40.4347 163.316 41.032C163.316 41.6293 163.428 42.152 163.652 42.6C163.887 43.048 164.207 43.4 164.612 43.656C165.028 43.9013 165.497 44.024 166.02 44.024ZM179.597 45.192C178.648 45.192 177.858 44.952 177.229 44.472C176.6 43.992 176.232 43.3413 176.125 42.52H177.501C177.586 42.936 177.805 43.2987 178.157 43.608C178.52 43.9067 179.005 44.056 179.613 44.056C180.178 44.056 180.594 43.9387 180.861 43.704C181.128 43.4587 181.261 43.1707 181.261 42.84C181.261 42.36 181.085 42.04 180.733 41.88C180.392 41.72 179.906 41.576 179.277 41.448C178.85 41.3627 178.424 41.24 177.997 41.08C177.57 40.92 177.213 40.696 176.925 40.408C176.637 40.1093 176.493 39.72 176.493 39.24C176.493 38.5467 176.749 37.9813 177.261 37.544C177.784 37.096 178.488 36.872 179.373 36.872C180.216 36.872 180.904 37.0853 181.437 37.512C181.981 37.928 182.296 38.5253 182.381 39.304H181.053C181 38.8987 180.824 38.584 180.525 38.36C180.237 38.1253 179.848 38.008 179.357 38.008C178.877 38.008 178.504 38.1093 178.237 38.312C177.981 38.5147 177.853 38.7813 177.853 39.112C177.853 39.432 178.018 39.6827 178.349 39.864C178.69 40.0453 179.149 40.2 179.725 40.328C180.216 40.4347 180.68 40.568 181.117 40.728C181.565 40.8773 181.928 41.1067 182.205 41.416C182.493 41.7147 182.637 42.152 182.637 42.728C182.648 43.4427 182.376 44.0347 181.821 44.504C181.277 44.9627 180.536 45.192 179.597 45.192ZM184.557 48.52V37.064H185.773L185.901 38.376C186.157 37.992 186.52 37.6453 186.989 37.336C187.469 37.0267 188.077 36.872 188.813 36.872C189.602 36.872 190.29 37.0533 190.877 37.416C191.464 37.7787 191.917 38.2747 192.237 38.904C192.568 39.5333 192.733 40.248 192.733 41.048C192.733 41.848 192.568 42.5627 192.237 43.192C191.917 43.8107 191.458 44.3013 190.861 44.664C190.274 45.016 189.586 45.192 188.797 45.192C188.146 45.192 187.565 45.0587 187.053 44.792C186.552 44.5253 186.168 44.152 185.901 43.672V48.52H184.557ZM188.653 44.024C189.186 44.024 189.656 43.9013 190.061 43.656C190.466 43.4 190.786 43.048 191.021 42.6C191.256 42.152 191.373 41.6293 191.373 41.032C191.373 40.4347 191.256 39.912 191.021 39.464C190.786 39.016 190.466 38.6693 190.061 38.424C189.656 38.168 189.186 38.04 188.653 38.04C188.12 38.04 187.65 38.168 187.245 38.424C186.84 38.6693 186.52 39.016 186.285 39.464C186.05 39.912 185.933 40.4347 185.933 41.032C185.933 41.6293 186.05 42.152 186.285 42.6C186.52 43.048 186.84 43.4 187.245 43.656C187.65 43.9013 188.12 44.024 188.653 44.024ZM198.22 45.192C197.473 45.192 196.801 45.0213 196.204 44.68C195.607 44.3387 195.132 43.8587 194.78 43.24C194.439 42.6107 194.268 41.8747 194.268 41.032C194.268 40.1893 194.444 39.4587 194.796 38.84C195.148 38.2107 195.623 37.7253 196.22 37.384C196.828 37.0427 197.505 36.872 198.252 36.872C198.999 36.872 199.671 37.0427 200.268 37.384C200.865 37.7253 201.335 38.2107 201.676 38.84C202.028 39.4587 202.204 40.1893 202.204 41.032C202.204 41.8747 202.028 42.6107 201.676 43.24C201.324 43.8587 200.844 44.3387 200.236 44.68C199.639 45.0213 198.967 45.192 198.22 45.192ZM198.22 44.04C198.679 44.04 199.105 43.928 199.5 43.704C199.895 43.48 200.215 43.144 200.46 42.696C200.705 42.248 200.828 41.6933 200.828 41.032C200.828 40.3707 200.705 39.816 200.46 39.368C200.225 38.92 199.911 38.584 199.516 38.36C199.121 38.136 198.7 38.024 198.252 38.024C197.793 38.024 197.367 38.136 196.972 38.36C196.577 38.584 196.257 38.92 196.012 39.368C195.767 39.816 195.644 40.3707 195.644 41.032C195.644 41.6933 195.767 42.248 196.012 42.696C196.257 43.144 196.572 43.48 196.956 43.704C197.351 43.928 197.772 44.04 198.22 44.04ZM206.896 45C206.171 45 205.6 44.824 205.184 44.472C204.768 44.12 204.56 43.4853 204.56 42.568V38.2H203.184V37.064H204.56L204.736 35.16H205.904V37.064H208.24V38.2H205.904V42.568C205.904 43.0693 206.006 43.4107 206.208 43.592C206.411 43.7627 206.768 43.848 207.28 43.848H208.112V45H206.896Z" fill="black"/>
<path d="M72.088 16V4.8H74.136V16H72.088ZM81.6233 16L79.3033 8.064H81.3353L82.7113 13.776L84.3113 8.064H86.5833L88.1833 13.776L89.5753 8.064H91.6073L89.2713 16H87.1433L85.4473 10.064L83.7513 16H81.6233ZM95.2291 16.192C94.5465 16.192 93.9865 16.0853 93.5491 15.872C93.1118 15.648 92.7865 15.3547 92.5731 14.992C92.3598 14.6293 92.2531 14.2293 92.2531 13.792C92.2531 13.056 92.5411 12.4587 93.1171 12C93.6931 11.5413 94.5571 11.312 95.7091 11.312H97.7251V11.12C97.7251 10.576 97.5705 10.176 97.2611 9.92C96.9518 9.664 96.5678 9.536 96.1091 9.536C95.6931 9.536 95.3305 9.63733 95.0211 9.84C94.7118 10.032 94.5198 10.32 94.4451 10.704H92.4451C92.4985 10.128 92.6905 9.62667 93.0211 9.2C93.3625 8.77333 93.7998 8.448 94.3331 8.224C94.8665 7.98933 95.4638 7.872 96.1251 7.872C97.2558 7.872 98.1465 8.15467 98.7971 8.72C99.4478 9.28533 99.7731 10.0853 99.7731 11.12V16H98.0291L97.8371 14.72C97.6025 15.1467 97.2718 15.4987 96.8451 15.776C96.4291 16.0533 95.8905 16.192 95.2291 16.192ZM95.6931 14.592C96.2798 14.592 96.7331 14.4 97.0531 14.016C97.3838 13.632 97.5918 13.1573 97.6771 12.592H95.9331C95.3891 12.592 94.9998 12.6933 94.7651 12.896C94.5305 13.088 94.4131 13.328 94.4131 13.616C94.4131 13.9253 94.5305 14.1653 94.7651 14.336C94.9998 14.5067 95.3091 14.592 95.6931 14.592ZM101.728 16V8.064H103.536L103.696 9.408C103.941 8.93867 104.293 8.56533 104.752 8.288C105.221 8.01067 105.77 7.872 106.4 7.872C107.381 7.872 108.144 8.18133 108.688 8.8C109.231 9.41867 109.503 10.3253 109.503 11.52V16H107.456V11.712C107.456 11.0293 107.317 10.5067 107.04 10.144C106.762 9.78133 106.33 9.6 105.744 9.6C105.168 9.6 104.693 9.80267 104.32 10.208C103.957 10.6133 103.776 11.1787 103.776 11.904V16H101.728ZM114.998 16C114.166 16 113.499 15.7973 112.998 15.392C112.497 14.9867 112.246 14.2667 112.246 13.232V9.776H110.886V8.064H112.246L112.486 5.936H114.294V8.064H116.438V9.776H114.294V13.248C114.294 13.632 114.374 13.8987 114.534 14.048C114.705 14.1867 114.993 14.256 115.398 14.256H116.39V16H114.998ZM125.545 16C124.713 16 124.046 15.7973 123.545 15.392C123.043 14.9867 122.793 14.2667 122.793 13.232V9.776H121.433V8.064H122.793L123.033 5.936H124.841V8.064H126.985V9.776H124.841V13.248C124.841 13.632 124.921 13.8987 125.081 14.048C125.251 14.1867 125.539 14.256 125.945 14.256H126.937V16H125.545ZM132.348 16.192C131.58 16.192 130.887 16.016 130.268 15.664C129.66 15.312 129.175 14.8267 128.812 14.208C128.46 13.5787 128.284 12.8533 128.284 12.032C128.284 11.2107 128.465 10.4907 128.828 9.872C129.191 9.24267 129.676 8.752 130.284 8.4C130.903 8.048 131.596 7.872 132.364 7.872C133.121 7.872 133.804 8.048 134.412 8.4C135.031 8.752 135.516 9.24267 135.868 9.872C136.231 10.4907 136.412 11.2107 136.412 12.032C136.412 12.8533 136.231 13.5787 135.868 14.208C135.516 14.8267 135.031 15.312 134.412 15.664C133.793 16.016 133.105 16.192 132.348 16.192ZM132.348 14.416C132.881 14.416 133.345 14.2187 133.74 13.824C134.135 13.4187 134.332 12.8213 134.332 12.032C134.332 11.2427 134.135 10.6507 133.74 10.256C133.345 9.85067 132.887 9.648 132.364 9.648C131.82 9.648 131.351 9.85067 130.956 10.256C130.572 10.6507 130.38 11.2427 130.38 12.032C130.38 12.8213 130.572 13.4187 130.956 13.824C131.351 14.2187 131.815 14.416 132.348 14.416Z" fill="#13A9FE"/>
<rect x="5" y="52" width="204" height="3" fill="#13A9FE"/>
</svg>
