<svg width="95" height="55" viewBox="0 0 95 55" fill="none" xmlns="http://www.w3.org/2000/svg">
<path d="M1.184 45V33.8H2.528V45H1.184ZM12.7051 45.192C11.9478 45.192 11.2651 45.0213 10.6571 44.68C10.0598 44.328 9.58513 43.8427 9.23313 43.224C8.89179 42.5947 8.72113 41.864 8.72113 41.032C8.72113 40.2 8.89179 39.4747 9.23313 38.856C9.58513 38.2267 10.0598 37.7413 10.6571 37.4C11.2651 37.048 11.9478 36.872 12.7051 36.872C13.6438 36.872 14.4331 37.1173 15.0731 37.608C15.7238 38.0987 16.1345 38.7547 16.3051 39.576H14.9291C14.8225 39.0853 14.5611 38.7067 14.1451 38.44C13.7291 38.1627 13.2438 38.024 12.6891 38.024C12.2411 38.024 11.8198 38.136 11.4251 38.36C11.0305 38.584 10.7105 38.92 10.4651 39.368C10.2198 39.816 10.0971 40.3707 10.0971 41.032C10.0971 41.6933 10.2198 42.248 10.4651 42.696C10.7105 43.144 11.0305 43.4853 11.4251 43.72C11.8198 43.944 12.2411 44.056 12.6891 44.056C13.2438 44.056 13.7291 43.9227 14.1451 43.656C14.5611 43.3787 14.8225 42.9893 14.9291 42.488H16.3051C16.1451 43.288 15.7398 43.9387 15.0891 44.44C14.4385 44.9413 13.6438 45.192 12.7051 45.192ZM18.1821 45V37.064H19.3981L19.5101 38.584C19.7555 38.0613 20.1288 37.6453 20.6301 37.336C21.1315 37.0267 21.7501 36.872 22.4861 36.872V38.28H22.1181C21.6488 38.28 21.2168 38.3653 20.8221 38.536C20.4275 38.696 20.1128 38.9733 19.8781 39.368C19.6435 39.7627 19.5261 40.3067 19.5261 41V45H18.1821ZM27.2658 45.192C26.5084 45.192 25.8364 45.0213 25.2498 44.68C24.6631 44.328 24.1991 43.8427 23.8578 43.224C23.5271 42.6053 23.3618 41.8747 23.3618 41.032C23.3618 40.2 23.5271 39.4747 23.8578 38.856C24.1884 38.2267 24.6471 37.7413 25.2338 37.4C25.8311 37.048 26.5191 36.872 27.2977 36.872C28.0658 36.872 28.7271 37.048 29.2818 37.4C29.8471 37.7413 30.2791 38.1947 30.5778 38.76C30.8764 39.3253 31.0258 39.9333 31.0258 40.584C31.0258 40.7013 31.0204 40.8187 31.0098 40.936C31.0098 41.0533 31.0098 41.1867 31.0098 41.336H24.6898C24.7218 41.944 24.8604 42.4507 25.1058 42.856C25.3618 43.2507 25.6764 43.5493 26.0498 43.752C26.4338 43.9547 26.8391 44.056 27.2658 44.056C27.8204 44.056 28.2844 43.928 28.6578 43.672C29.0311 43.416 29.3031 43.0693 29.4738 42.632H30.8018C30.5884 43.368 30.1778 43.9813 29.5698 44.472C28.9724 44.952 28.2044 45.192 27.2658 45.192ZM27.2658 38.008C26.6258 38.008 26.0551 38.2053 25.5538 38.6C25.0631 38.984 24.7804 39.5493 24.7057 40.296H29.6978C29.6658 39.5813 29.4204 39.0213 28.9618 38.616C28.5031 38.2107 27.9378 38.008 27.2658 38.008ZM35.4471 45.192C34.7858 45.192 34.2365 45.08 33.7991 44.856C33.3618 44.632 33.0365 44.3333 32.8231 43.96C32.6098 43.5867 32.5031 43.1813 32.5031 42.744C32.5031 41.9333 32.8125 41.3093 33.4311 40.872C34.0498 40.4347 34.8925 40.216 35.9591 40.216H38.1031V40.12C38.1031 39.4267 37.9218 38.904 37.5591 38.552C37.1965 38.1893 36.7111 38.008 36.1031 38.008C35.5805 38.008 35.1271 38.1413 34.7431 38.408C34.3698 38.664 34.1351 39.0427 34.0391 39.544H32.6631C32.7165 38.968 32.9085 38.4827 33.2391 38.088C33.5805 37.6933 34.0018 37.3947 34.5031 37.192C35.0045 36.9787 35.5378 36.872 36.1031 36.872C37.2125 36.872 38.0445 37.1707 38.5991 37.768C39.1645 38.3547 39.4471 39.1387 39.4471 40.12V45H38.2471L38.1671 43.576C37.9431 44.024 37.6125 44.408 37.1751 44.728C36.7485 45.0373 36.1725 45.192 35.4471 45.192ZM35.6551 44.056C36.1671 44.056 36.6045 43.9227 36.9671 43.656C37.3405 43.3893 37.6231 43.0427 37.8151 42.616C38.0071 42.1893 38.1031 41.7413 38.1031 41.272V41.256H36.0711C35.2818 41.256 34.7218 41.3947 34.3911 41.672C34.0711 41.9387 33.9111 42.2747 33.9111 42.68C33.9111 43.096 34.0605 43.432 34.3591 43.688C34.6685 43.9333 35.1005 44.056 35.6551 44.056ZM44.3806 45C43.6553 45 43.0846 44.824 42.6686 44.472C42.2526 44.12 42.0446 43.4853 42.0446 42.568V38.2H40.6686V37.064H42.0446L42.2206 35.16H43.3886V37.064H45.7246V38.2H43.3886V42.568C43.3886 43.0693 43.49 43.4107 43.6926 43.592C43.8953 43.7627 44.2526 43.848 44.7646 43.848H45.5966V45H44.3806ZM50.7814 45.192C50.024 45.192 49.352 45.0213 48.7654 44.68C48.1787 44.328 47.7147 43.8427 47.3734 43.224C47.0427 42.6053 46.8774 41.8747 46.8774 41.032C46.8774 40.2 47.0427 39.4747 47.3734 38.856C47.704 38.2267 48.1627 37.7413 48.7494 37.4C49.3467 37.048 50.0347 36.872 50.8134 36.872C51.5814 36.872 52.2427 37.048 52.7974 37.4C53.3627 37.7413 53.7947 38.1947 54.0934 38.76C54.392 39.3253 54.5414 39.9333 54.5414 40.584C54.5414 40.7013 54.536 40.8187 54.5254 40.936C54.5254 41.0533 54.5254 41.1867 54.5254 41.336H48.2054C48.2374 41.944 48.376 42.4507 48.6214 42.856C48.8774 43.2507 49.192 43.5493 49.5654 43.752C49.9494 43.9547 50.3547 44.056 50.7814 44.056C51.336 44.056 51.8 43.928 52.1734 43.672C52.5467 43.416 52.8187 43.0693 52.9894 42.632H54.3174C54.104 43.368 53.6934 43.9813 53.0854 44.472C52.488 44.952 51.72 45.192 50.7814 45.192ZM50.7814 38.008C50.1414 38.008 49.5707 38.2053 49.0694 38.6C48.5787 38.984 48.296 39.5493 48.2214 40.296H53.2134C53.1814 39.5813 52.936 39.0213 52.4774 38.616C52.0187 38.2107 51.4534 38.008 50.7814 38.008ZM63.1971 45.192C62.5358 45.192 61.9865 45.08 61.5491 44.856C61.1118 44.632 60.7865 44.3333 60.5731 43.96C60.3598 43.5867 60.2531 43.1813 60.2531 42.744C60.2531 41.9333 60.5625 41.3093 61.1811 40.872C61.7998 40.4347 62.6425 40.216 63.7091 40.216H65.8531V40.12C65.8531 39.4267 65.6718 38.904 65.3091 38.552C64.9465 38.1893 64.4611 38.008 63.8531 38.008C63.3305 38.008 62.8771 38.1413 62.4931 38.408C62.1198 38.664 61.8851 39.0427 61.7891 39.544H60.4131C60.4665 38.968 60.6585 38.4827 60.9891 38.088C61.3305 37.6933 61.7518 37.3947 62.2531 37.192C62.7545 36.9787 63.2878 36.872 63.8531 36.872C64.9625 36.872 65.7945 37.1707 66.3491 37.768C66.9145 38.3547 67.1971 39.1387 67.1971 40.12V45H65.9971L65.9171 43.576C65.6931 44.024 65.3625 44.408 64.9251 44.728C64.4985 45.0373 63.9225 45.192 63.1971 45.192ZM63.4051 44.056C63.9171 44.056 64.3545 43.9227 64.7171 43.656C65.0905 43.3893 65.3731 43.0427 65.5651 42.616C65.7571 42.1893 65.8531 41.7413 65.8531 41.272V41.256H63.8211C63.0318 41.256 62.4718 41.3947 62.1411 41.672C61.8211 41.9387 61.6611 42.2747 61.6611 42.68C61.6611 43.096 61.8105 43.432 62.1091 43.688C62.4185 43.9333 62.8505 44.056 63.4051 44.056ZM73.8798 45V38.2H72.6798V37.064H73.8798V35.688C73.8798 34.92 74.0718 34.36 74.4557 34.008C74.8398 33.656 75.3998 33.48 76.1358 33.48H76.9358V34.632H76.3438C75.9384 34.632 75.6504 34.7173 75.4798 34.888C75.3091 35.048 75.2238 35.3253 75.2238 35.72V37.064H80.1518V45H78.8078V38.2H75.2238V45H73.8798ZM79.4958 35.544C79.2398 35.544 79.0211 35.4587 78.8398 35.288C78.6584 35.1067 78.5678 34.8827 78.5678 34.616C78.5678 34.36 78.6584 34.1467 78.8398 33.976C79.0211 33.8053 79.2398 33.72 79.4958 33.72C79.7624 33.72 79.9811 33.8053 80.1518 33.976C80.3331 34.1467 80.4237 34.36 80.4237 34.616C80.4237 34.8827 80.3331 35.1067 80.1518 35.288C79.9811 35.4587 79.7624 35.544 79.4958 35.544ZM82.5259 45V33.48H83.8699V45H82.5259ZM89.6408 45.192C88.8834 45.192 88.2114 45.0213 87.6248 44.68C87.0381 44.328 86.5741 43.8427 86.2328 43.224C85.9021 42.6053 85.7368 41.8747 85.7368 41.032C85.7368 40.2 85.9021 39.4747 86.2328 38.856C86.5634 38.2267 87.0221 37.7413 87.6088 37.4C88.2061 37.048 88.8941 36.872 89.6727 36.872C90.4408 36.872 91.1021 37.048 91.6568 37.4C92.2221 37.7413 92.6541 38.1947 92.9528 38.76C93.2514 39.3253 93.4008 39.9333 93.4008 40.584C93.4008 40.7013 93.3954 40.8187 93.3848 40.936C93.3848 41.0533 93.3848 41.1867 93.3848 41.336H87.0648C87.0968 41.944 87.2354 42.4507 87.4808 42.856C87.7368 43.2507 88.0514 43.5493 88.4248 43.752C88.8088 43.9547 89.2141 44.056 89.6408 44.056C90.1954 44.056 90.6594 43.928 91.0328 43.672C91.4061 43.416 91.6781 43.0693 91.8488 42.632H93.1768C92.9634 43.368 92.5528 43.9813 91.9448 44.472C91.3474 44.952 90.5794 45.192 89.6408 45.192ZM89.6408 38.008C89.0008 38.008 88.4301 38.2053 87.9288 38.6C87.4381 38.984 87.1554 39.5493 87.0807 40.296H92.0728C92.0408 39.5813 91.7954 39.0213 91.3368 38.616C90.8781 38.2107 90.3128 38.008 89.6408 38.008Z" fill="black"/>
<path d="M27.36 16L24.4 4.8H26.592L28.608 13.712L30.976 4.8H33.232L35.536 13.712L37.552 4.8H39.76L36.72 16H34.288L32.064 7.696L29.776 16H27.36ZM41.1963 16V4.48H43.2443V9.28C43.5109 8.84267 43.8683 8.50133 44.3163 8.256C44.7749 8 45.2976 7.872 45.8843 7.872C46.8656 7.872 47.6229 8.18133 48.1562 8.8C48.7002 9.41867 48.9722 10.3253 48.9722 11.52V16H46.9403V11.712C46.9403 11.0293 46.8016 10.5067 46.5243 10.144C46.2576 9.78133 45.8309 9.6 45.2443 9.6C44.6683 9.6 44.1883 9.80267 43.8043 10.208C43.4309 10.6133 43.2443 11.1787 43.2443 11.904V16H41.1963ZM54.7866 16.192C53.9866 16.192 53.2773 16.0213 52.6586 15.68C52.04 15.3387 51.5546 14.8587 51.2026 14.24C50.8506 13.6213 50.6746 12.9067 50.6746 12.096C50.6746 11.2747 50.8453 10.544 51.1866 9.904C51.5386 9.264 52.0186 8.768 52.6266 8.416C53.2453 8.05333 53.9706 7.872 54.8026 7.872C55.5813 7.872 56.2693 8.04267 56.8666 8.384C57.464 8.72533 57.928 9.19467 58.2586 9.792C58.6 10.3787 58.7706 11.0347 58.7706 11.76C58.7706 11.8773 58.7653 12 58.7546 12.128C58.7546 12.256 58.7493 12.3893 58.7386 12.528H52.7066C52.7493 13.1467 52.9626 13.632 53.3466 13.984C53.7413 14.336 54.216 14.512 54.7706 14.512C55.1866 14.512 55.5333 14.4213 55.8106 14.24C56.0986 14.048 56.312 13.8027 56.4506 13.504H58.5306C58.3813 14.0053 58.1306 14.464 57.7786 14.88C57.4373 15.2853 57.0106 15.6053 56.4986 15.84C55.9973 16.0747 55.4266 16.192 54.7866 16.192ZM54.8026 9.536C54.3013 9.536 53.8586 9.68 53.4746 9.968C53.0906 10.2453 52.8453 10.672 52.7386 11.248H56.6906C56.6586 10.7253 56.4666 10.3093 56.1146 10C55.7626 9.69067 55.3253 9.536 54.8026 9.536ZM60.4931 16V8.064H62.3011L62.4611 9.408C62.7065 8.93867 63.0585 8.56533 63.5171 8.288C63.9865 8.01067 64.5358 7.872 65.1651 7.872C66.1465 7.872 66.9091 8.18133 67.4531 8.8C67.9971 9.41867 68.2691 10.3253 68.2691 11.52V16H66.2211V11.712C66.2211 11.0293 66.0825 10.5067 65.8051 10.144C65.5278 9.78133 65.0958 9.6 64.5091 9.6C63.9331 9.6 63.4585 9.80267 63.0851 10.208C62.7225 10.6133 62.5411 11.1787 62.5411 11.904V16H60.4931Z" fill="#8A13FE"/>
<rect y="52" width="95" height="3" fill="#8A13FE"/>
</svg>
