<svg width="309" height="48" viewBox="0 0 309 48" fill="none" xmlns="http://www.w3.org/2000/svg">
<path d="M3.744 38.192C3.08267 38.192 2.53333 38.08 2.096 37.856C1.65867 37.632 1.33333 37.3333 1.12 36.96C0.906667 36.5867 0.8 36.1813 0.8 35.744C0.8 34.9333 1.10933 34.3093 1.728 33.872C2.34667 33.4347 3.18933 33.216 4.256 33.216H6.4V33.12C6.4 32.4267 6.21867 31.904 5.856 31.552C5.49333 31.1893 5.008 31.008 4.4 31.008C3.87733 31.008 3.424 31.1413 3.04 31.408C2.66667 31.664 2.432 32.0427 2.336 32.544H0.96C1.01333 31.968 1.20533 31.4827 1.536 31.088C1.87733 30.6933 2.29867 30.3947 2.8 30.192C3.30133 29.9787 3.83467 29.872 4.4 29.872C5.50933 29.872 6.34133 30.1707 6.896 30.768C7.46133 31.3547 7.744 32.1387 7.744 33.12V38H6.544L6.464 36.576C6.24 37.024 5.90933 37.408 5.472 37.728C5.04533 38.0373 4.46933 38.192 3.744 38.192ZM3.952 37.056C4.464 37.056 4.90133 36.9227 5.264 36.656C5.63733 36.3893 5.92 36.0427 6.112 35.616C6.304 35.1893 6.4 34.7413 6.4 34.272V34.256H4.368C3.57867 34.256 3.01867 34.3947 2.688 34.672C2.368 34.9387 2.208 35.2747 2.208 35.68C2.208 36.096 2.35733 36.432 2.656 36.688C2.96533 36.9333 3.39733 37.056 3.952 37.056ZM11.7514 38L8.74338 30.064H10.1514L12.5354 36.704L14.9354 30.064H16.3114L13.3034 38H11.7514ZM21.0169 38.192C20.2702 38.192 19.5982 38.0213 19.0009 37.68C18.4035 37.3387 17.9289 36.8587 17.5769 36.24C17.2355 35.6107 17.0649 34.8747 17.0649 34.032C17.0649 33.1893 17.2409 32.4587 17.5929 31.84C17.9449 31.2107 18.4195 30.7253 19.0169 30.384C19.6249 30.0427 20.3022 29.872 21.0489 29.872C21.7955 29.872 22.4675 30.0427 23.0649 30.384C23.6622 30.7253 24.1315 31.2107 24.4729 31.84C24.8249 32.4587 25.0009 33.1893 25.0009 34.032C25.0009 34.8747 24.8249 35.6107 24.4729 36.24C24.1209 36.8587 23.6409 37.3387 23.0329 37.68C22.4355 38.0213 21.7635 38.192 21.0169 38.192ZM21.0169 37.04C21.4755 37.04 21.9022 36.928 22.2969 36.704C22.6915 36.48 23.0115 36.144 23.2569 35.696C23.5022 35.248 23.6249 34.6933 23.6249 34.032C23.6249 33.3707 23.5022 32.816 23.2569 32.368C23.0222 31.92 22.7075 31.584 22.3129 31.36C21.9182 31.136 21.4969 31.024 21.0489 31.024C20.5902 31.024 20.1635 31.136 19.7689 31.36C19.3742 31.584 19.0542 31.92 18.8089 32.368C18.5635 32.816 18.4409 33.3707 18.4409 34.032C18.4409 34.6933 18.5635 35.248 18.8089 35.696C19.0542 36.144 19.3689 36.48 19.7529 36.704C20.1475 36.928 20.5689 37.04 21.0169 37.04ZM27.6856 28.304C27.419 28.304 27.195 28.2187 27.0136 28.048C26.843 27.8667 26.7576 27.6427 26.7576 27.376C26.7576 27.12 26.843 26.9067 27.0136 26.736C27.195 26.5653 27.419 26.48 27.6856 26.48C27.9416 26.48 28.1603 26.5653 28.3416 26.736C28.523 26.9067 28.6136 27.12 28.6136 27.376C28.6136 27.6427 28.523 27.8667 28.3416 28.048C28.1603 28.2187 27.9416 28.304 27.6856 28.304ZM27.0136 38V30.064H28.3576V38H27.0136ZM34.2977 38.192C33.5084 38.192 32.8151 38.0107 32.2178 37.648C31.6311 37.2853 31.1724 36.7893 30.8418 36.16C30.5218 35.5307 30.3618 34.816 30.3618 34.016C30.3618 33.216 30.5271 32.5067 30.8578 31.888C31.1884 31.2587 31.6471 30.768 32.2338 30.416C32.8204 30.0533 33.5138 29.872 34.3138 29.872C34.9644 29.872 35.5404 30.0053 36.0418 30.272C36.5431 30.5387 36.9324 30.912 37.2098 31.392V26.48H38.5538V38H37.3378L37.2098 36.688C36.9538 37.072 36.5858 37.4187 36.1058 37.728C35.6258 38.0373 35.0231 38.192 34.2977 38.192ZM34.4418 37.024C34.9751 37.024 35.4444 36.9013 35.8498 36.656C36.2658 36.4 36.5858 36.048 36.8098 35.6C37.0444 35.152 37.1618 34.6293 37.1618 34.032C37.1618 33.4347 37.0444 32.912 36.8098 32.464C36.5858 32.016 36.2658 31.6693 35.8498 31.424C35.4444 31.168 34.9751 31.04 34.4418 31.04C33.9191 31.04 33.4498 31.168 33.0338 31.424C32.6284 31.6693 32.3084 32.016 32.0738 32.464C31.8498 32.912 31.7378 33.4347 31.7378 34.032C31.7378 34.6293 31.8498 35.152 32.0738 35.6C32.3084 36.048 32.6284 36.4 33.0338 36.656C33.4498 36.9013 33.9191 37.024 34.4418 37.024ZM44.979 38V30.064H46.195L46.291 31.216C46.547 30.7893 46.8883 30.4587 47.315 30.224C47.7417 29.9893 48.2217 29.872 48.755 29.872C49.3843 29.872 49.923 30 50.371 30.256C50.8297 30.512 51.1817 30.9013 51.427 31.424C51.7043 30.944 52.083 30.5653 52.563 30.288C53.0537 30.0107 53.5817 29.872 54.147 29.872C55.0963 29.872 55.8537 30.16 56.419 30.736C56.9843 31.3013 57.267 32.176 57.267 33.36V38H55.939V33.504C55.939 32.6827 55.7737 32.064 55.443 31.648C55.1123 31.232 54.6377 31.024 54.019 31.024C53.379 31.024 52.8457 31.2747 52.419 31.776C52.003 32.2667 51.795 32.9707 51.795 33.888V38H50.451V33.504C50.451 32.6827 50.2857 32.064 49.955 31.648C49.6243 31.232 49.1497 31.024 48.531 31.024C47.9017 31.024 47.3737 31.2747 46.947 31.776C46.531 32.2667 46.323 32.9707 46.323 33.888V38H44.979ZM59.9211 41.52L61.8891 37.232H61.4251L58.2731 30.064H59.7291L62.3531 36.24L65.1371 30.064H66.5291L61.3291 41.52H59.9211ZM75.7821 38.192C74.9928 38.192 74.2995 38.0107 73.7021 37.648C73.1155 37.2853 72.6568 36.7893 72.3261 36.16C72.0061 35.5307 71.8461 34.816 71.8461 34.016C71.8461 33.216 72.0115 32.5067 72.3421 31.888C72.6728 31.2587 73.1315 30.768 73.7181 30.416C74.3048 30.0533 74.9981 29.872 75.7981 29.872C76.4488 29.872 77.0248 30.0053 77.5261 30.272C78.0275 30.5387 78.4168 30.912 78.6941 31.392V26.48H80.0381V38H78.8221L78.6941 36.688C78.4381 37.072 78.0701 37.4187 77.5901 37.728C77.1101 38.0373 76.5075 38.192 75.7821 38.192ZM75.9261 37.024C76.4595 37.024 76.9288 36.9013 77.3341 36.656C77.7501 36.4 78.0701 36.048 78.2941 35.6C78.5288 35.152 78.6461 34.6293 78.6461 34.032C78.6461 33.4347 78.5288 32.912 78.2941 32.464C78.0701 32.016 77.7501 31.6693 77.3341 31.424C76.9288 31.168 76.4595 31.04 75.9261 31.04C75.4035 31.04 74.9341 31.168 74.5181 31.424C74.1128 31.6693 73.7928 32.016 73.5581 32.464C73.3341 32.912 73.2221 33.4347 73.2221 34.032C73.2221 34.6293 73.3341 35.152 73.5581 35.6C73.7928 36.048 74.1128 36.4 74.5181 36.656C74.9341 36.9013 75.4035 37.024 75.9261 37.024ZM84.869 38.192C84.2077 38.192 83.6583 38.08 83.221 37.856C82.7837 37.632 82.4583 37.3333 82.245 36.96C82.0317 36.5867 81.925 36.1813 81.925 35.744C81.925 34.9333 82.2343 34.3093 82.853 33.872C83.4717 33.4347 84.3143 33.216 85.381 33.216H87.525V33.12C87.525 32.4267 87.3437 31.904 86.981 31.552C86.6183 31.1893 86.133 31.008 85.525 31.008C85.0023 31.008 84.549 31.1413 84.165 31.408C83.7917 31.664 83.557 32.0427 83.461 32.544H82.085C82.1383 31.968 82.3303 31.4827 82.661 31.088C83.0023 30.6933 83.4237 30.3947 83.925 30.192C84.4263 29.9787 84.9597 29.872 85.525 29.872C86.6343 29.872 87.4663 30.1707 88.021 30.768C88.5863 31.3547 88.869 32.1387 88.869 33.12V38H87.669L87.589 36.576C87.365 37.024 87.0343 37.408 86.597 37.728C86.1703 38.0373 85.5943 38.192 84.869 38.192ZM85.077 37.056C85.589 37.056 86.0263 36.9227 86.389 36.656C86.7623 36.3893 87.045 36.0427 87.237 35.616C87.429 35.1893 87.525 34.7413 87.525 34.272V34.256H85.493C84.7037 34.256 84.1437 34.3947 83.813 34.672C83.493 34.9387 83.333 35.2747 83.333 35.68C83.333 36.096 83.4823 36.432 83.781 36.688C84.0903 36.9333 84.5223 37.056 85.077 37.056ZM93.9253 38.192C92.9759 38.192 92.1866 37.952 91.5573 37.472C90.9279 36.992 90.5599 36.3413 90.4533 35.52H91.8293C91.9146 35.936 92.1333 36.2987 92.4853 36.608C92.8479 36.9067 93.3333 37.056 93.9413 37.056C94.5066 37.056 94.9226 36.9387 95.1893 36.704C95.4559 36.4587 95.5893 36.1707 95.5893 35.84C95.5893 35.36 95.4133 35.04 95.0613 34.88C94.7199 34.72 94.2346 34.576 93.6053 34.448C93.1786 34.3627 92.7519 34.24 92.3253 34.08C91.8986 33.92 91.5413 33.696 91.2533 33.408C90.9653 33.1093 90.8213 32.72 90.8213 32.24C90.8213 31.5467 91.0773 30.9813 91.5893 30.544C92.1119 30.096 92.8159 29.872 93.7013 29.872C94.5439 29.872 95.2319 30.0853 95.7653 30.512C96.3093 30.928 96.6239 31.5253 96.7093 32.304H95.3813C95.3279 31.8987 95.1519 31.584 94.8533 31.36C94.5653 31.1253 94.1759 31.008 93.6853 31.008C93.2053 31.008 92.8319 31.1093 92.5653 31.312C92.3093 31.5147 92.1813 31.7813 92.1813 32.112C92.1813 32.432 92.3466 32.6827 92.6773 32.864C93.0186 33.0453 93.4773 33.2 94.0533 33.328C94.5439 33.4347 95.0079 33.568 95.4453 33.728C95.8933 33.8773 96.2559 34.1067 96.5333 34.416C96.8213 34.7147 96.9653 35.152 96.9653 35.728C96.9759 36.4427 96.7039 37.0347 96.1493 37.504C95.6053 37.9627 94.8639 38.192 93.9253 38.192ZM98.8853 38V26.48H100.229V31.424C100.496 30.9333 100.875 30.5547 101.365 30.288C101.856 30.0107 102.389 29.872 102.965 29.872C103.883 29.872 104.619 30.16 105.173 30.736C105.728 31.3013 106.005 32.176 106.005 33.36V38H104.677V33.504C104.677 31.8507 104.011 31.024 102.677 31.024C101.984 31.024 101.403 31.2747 100.933 31.776C100.464 32.2667 100.229 32.9707 100.229 33.888V38H98.8853ZM112.282 38.192C111.631 38.192 111.05 38.0587 110.538 37.792C110.036 37.5253 109.652 37.152 109.386 36.672L109.258 38H108.042V26.48H109.386V31.376C109.642 30.992 110.004 30.6453 110.474 30.336C110.954 30.0267 111.562 29.872 112.298 29.872C113.087 29.872 113.775 30.0533 114.362 30.416C114.948 30.7787 115.402 31.2747 115.722 31.904C116.052 32.5333 116.218 33.248 116.218 34.048C116.218 34.848 116.052 35.5627 115.722 36.192C115.402 36.8107 114.943 37.3013 114.346 37.664C113.759 38.016 113.071 38.192 112.282 38.192ZM112.138 37.024C112.671 37.024 113.14 36.9013 113.546 36.656C113.951 36.4 114.271 36.048 114.506 35.6C114.74 35.152 114.858 34.6293 114.858 34.032C114.858 33.4347 114.74 32.912 114.506 32.464C114.271 32.016 113.951 31.6693 113.546 31.424C113.14 31.168 112.671 31.04 112.138 31.04C111.604 31.04 111.135 31.168 110.73 31.424C110.324 31.6693 110.004 32.016 109.77 32.464C109.535 32.912 109.418 33.4347 109.418 34.032C109.418 34.6293 109.535 35.152 109.77 35.6C110.004 36.048 110.324 36.4 110.73 36.656C111.135 36.9013 111.604 37.024 112.138 37.024ZM121.704 38.192C120.958 38.192 120.286 38.0213 119.688 37.68C119.091 37.3387 118.616 36.8587 118.264 36.24C117.923 35.6107 117.752 34.8747 117.752 34.032C117.752 33.1893 117.928 32.4587 118.28 31.84C118.632 31.2107 119.107 30.7253 119.704 30.384C120.312 30.0427 120.99 29.872 121.736 29.872C122.483 29.872 123.155 30.0427 123.752 30.384C124.35 30.7253 124.819 31.2107 125.16 31.84C125.512 32.4587 125.688 33.1893 125.688 34.032C125.688 34.8747 125.512 35.6107 125.16 36.24C124.808 36.8587 124.328 37.3387 123.72 37.68C123.123 38.0213 122.451 38.192 121.704 38.192ZM121.704 37.04C122.163 37.04 122.59 36.928 122.984 36.704C123.379 36.48 123.699 36.144 123.944 35.696C124.19 35.248 124.312 34.6933 124.312 34.032C124.312 33.3707 124.19 32.816 123.944 32.368C123.71 31.92 123.395 31.584 123 31.36C122.606 31.136 122.184 31.024 121.736 31.024C121.278 31.024 120.851 31.136 120.456 31.36C120.062 31.584 119.742 31.92 119.496 32.368C119.251 32.816 119.128 33.3707 119.128 34.032C119.128 34.6933 119.251 35.248 119.496 35.696C119.742 36.144 120.056 36.48 120.44 36.704C120.835 36.928 121.256 37.04 121.704 37.04ZM130.197 38.192C129.536 38.192 128.986 38.08 128.549 37.856C128.112 37.632 127.786 37.3333 127.573 36.96C127.36 36.5867 127.253 36.1813 127.253 35.744C127.253 34.9333 127.562 34.3093 128.181 33.872C128.8 33.4347 129.642 33.216 130.709 33.216H132.853V33.12C132.853 32.4267 132.672 31.904 132.309 31.552C131.946 31.1893 131.461 31.008 130.853 31.008C130.33 31.008 129.877 31.1413 129.493 31.408C129.12 31.664 128.885 32.0427 128.789 32.544H127.413C127.466 31.968 127.658 31.4827 127.989 31.088C128.33 30.6933 128.752 30.3947 129.253 30.192C129.754 29.9787 130.288 29.872 130.853 29.872C131.962 29.872 132.794 30.1707 133.349 30.768C133.914 31.3547 134.197 32.1387 134.197 33.12V38H132.997L132.917 36.576C132.693 37.024 132.362 37.408 131.925 37.728C131.498 38.0373 130.922 38.192 130.197 38.192ZM130.405 37.056C130.917 37.056 131.354 36.9227 131.717 36.656C132.09 36.3893 132.373 36.0427 132.565 35.616C132.757 35.1893 132.853 34.7413 132.853 34.272V34.256H130.821C130.032 34.256 129.472 34.3947 129.141 34.672C128.821 34.9387 128.661 35.2747 128.661 35.68C128.661 36.096 128.81 36.432 129.109 36.688C129.418 36.9333 129.85 37.056 130.405 37.056ZM136.213 38V30.064H137.429L137.541 31.584C137.787 31.0613 138.16 30.6453 138.661 30.336C139.163 30.0267 139.781 29.872 140.517 29.872V31.28H140.149C139.68 31.28 139.248 31.3653 138.853 31.536C138.459 31.696 138.144 31.9733 137.909 32.368C137.675 32.7627 137.557 33.3067 137.557 34V38H136.213ZM145.329 38.192C144.54 38.192 143.846 38.0107 143.249 37.648C142.662 37.2853 142.204 36.7893 141.873 36.16C141.553 35.5307 141.393 34.816 141.393 34.016C141.393 33.216 141.558 32.5067 141.889 31.888C142.22 31.2587 142.678 30.768 143.265 30.416C143.852 30.0533 144.545 29.872 145.345 29.872C145.996 29.872 146.572 30.0053 147.073 30.272C147.574 30.5387 147.964 30.912 148.241 31.392V26.48H149.585V38H148.369L148.241 36.688C147.985 37.072 147.617 37.4187 147.137 37.728C146.657 38.0373 146.054 38.192 145.329 38.192ZM145.473 37.024C146.006 37.024 146.476 36.9013 146.881 36.656C147.297 36.4 147.617 36.048 147.841 35.6C148.076 35.152 148.193 34.6293 148.193 34.032C148.193 33.4347 148.076 32.912 147.841 32.464C147.617 32.016 147.297 31.6693 146.881 31.424C146.476 31.168 146.006 31.04 145.473 31.04C144.95 31.04 144.481 31.168 144.065 31.424C143.66 31.6693 143.34 32.016 143.105 32.464C142.881 32.912 142.769 33.4347 142.769 34.032C142.769 34.6293 142.881 35.152 143.105 35.6C143.34 36.048 143.66 36.4 144.065 36.656C144.481 36.9013 144.95 37.024 145.473 37.024ZM159.61 38.192C158.821 38.192 158.128 38.0107 157.53 37.648C156.944 37.2853 156.485 36.7893 156.154 36.16C155.834 35.5307 155.674 34.816 155.674 34.016C155.674 33.216 155.84 32.5067 156.17 31.888C156.501 31.2587 156.96 30.768 157.546 30.416C158.133 30.0533 158.826 29.872 159.626 29.872C160.277 29.872 160.853 30.0053 161.354 30.272C161.856 30.5387 162.245 30.912 162.522 31.392V26.48H163.866V38H162.65L162.522 36.688C162.266 37.072 161.898 37.4187 161.418 37.728C160.938 38.0373 160.336 38.192 159.61 38.192ZM159.754 37.024C160.288 37.024 160.757 36.9013 161.162 36.656C161.578 36.4 161.898 36.048 162.122 35.6C162.357 35.152 162.474 34.6293 162.474 34.032C162.474 33.4347 162.357 32.912 162.122 32.464C161.898 32.016 161.578 31.6693 161.162 31.424C160.757 31.168 160.288 31.04 159.754 31.04C159.232 31.04 158.762 31.168 158.346 31.424C157.941 31.6693 157.621 32.016 157.386 32.464C157.162 32.912 157.05 33.4347 157.05 34.032C157.05 34.6293 157.162 35.152 157.386 35.6C157.621 36.048 157.941 36.4 158.346 36.656C158.762 36.9013 159.232 37.024 159.754 37.024ZM169.673 38.192C168.926 38.192 168.254 38.0213 167.657 37.68C167.06 37.3387 166.585 36.8587 166.233 36.24C165.892 35.6107 165.721 34.8747 165.721 34.032C165.721 33.1893 165.897 32.4587 166.249 31.84C166.601 31.2107 167.076 30.7253 167.673 30.384C168.281 30.0427 168.958 29.872 169.705 29.872C170.452 29.872 171.124 30.0427 171.721 30.384C172.318 30.7253 172.788 31.2107 173.129 31.84C173.481 32.4587 173.657 33.1893 173.657 34.032C173.657 34.8747 173.481 35.6107 173.129 36.24C172.777 36.8587 172.297 37.3387 171.689 37.68C171.092 38.0213 170.42 38.192 169.673 38.192ZM169.673 37.04C170.132 37.04 170.558 36.928 170.953 36.704C171.348 36.48 171.668 36.144 171.913 35.696C172.158 35.248 172.281 34.6933 172.281 34.032C172.281 33.3707 172.158 32.816 171.913 32.368C171.678 31.92 171.364 31.584 170.969 31.36C170.574 31.136 170.153 31.024 169.705 31.024C169.246 31.024 168.82 31.136 168.425 31.36C168.03 31.584 167.71 31.92 167.465 32.368C167.22 32.816 167.097 33.3707 167.097 34.032C167.097 34.6933 167.22 35.248 167.465 35.696C167.71 36.144 168.025 36.48 168.409 36.704C168.804 36.928 169.225 37.04 169.673 37.04ZM179.094 38.192C178.337 38.192 177.665 38.0213 177.078 37.68C176.491 37.328 176.027 36.8427 175.686 36.224C175.355 35.6053 175.19 34.8747 175.19 34.032C175.19 33.2 175.355 32.4747 175.686 31.856C176.017 31.2267 176.475 30.7413 177.062 30.4C177.659 30.048 178.347 29.872 179.126 29.872C179.894 29.872 180.555 30.048 181.11 30.4C181.675 30.7413 182.107 31.1947 182.406 31.76C182.705 32.3253 182.854 32.9333 182.854 33.584C182.854 33.7013 182.849 33.8187 182.838 33.936C182.838 34.0533 182.838 34.1867 182.838 34.336H176.518C176.55 34.944 176.689 35.4507 176.934 35.856C177.19 36.2507 177.505 36.5493 177.878 36.752C178.262 36.9547 178.667 37.056 179.094 37.056C179.649 37.056 180.113 36.928 180.486 36.672C180.859 36.416 181.131 36.0693 181.302 35.632H182.63C182.417 36.368 182.006 36.9813 181.398 37.472C180.801 37.952 180.033 38.192 179.094 38.192ZM179.094 31.008C178.454 31.008 177.883 31.2053 177.382 31.6C176.891 31.984 176.609 32.5493 176.534 33.296H181.526C181.494 32.5813 181.249 32.0213 180.79 31.616C180.331 31.2107 179.766 31.008 179.094 31.008ZM187.675 38.192C186.726 38.192 185.937 37.952 185.307 37.472C184.678 36.992 184.31 36.3413 184.203 35.52H185.579C185.665 35.936 185.883 36.2987 186.235 36.608C186.598 36.9067 187.083 37.056 187.691 37.056C188.257 37.056 188.673 36.9387 188.939 36.704C189.206 36.4587 189.339 36.1707 189.339 35.84C189.339 35.36 189.163 35.04 188.811 34.88C188.47 34.72 187.985 34.576 187.355 34.448C186.929 34.3627 186.502 34.24 186.075 34.08C185.649 33.92 185.291 33.696 185.003 33.408C184.715 33.1093 184.571 32.72 184.571 32.24C184.571 31.5467 184.827 30.9813 185.339 30.544C185.862 30.096 186.566 29.872 187.451 29.872C188.294 29.872 188.982 30.0853 189.515 30.512C190.059 30.928 190.374 31.5253 190.459 32.304H189.131C189.078 31.8987 188.902 31.584 188.603 31.36C188.315 31.1253 187.926 31.008 187.435 31.008C186.955 31.008 186.582 31.1093 186.315 31.312C186.059 31.5147 185.931 31.7813 185.931 32.112C185.931 32.432 186.097 32.6827 186.427 32.864C186.769 33.0453 187.227 33.2 187.803 33.328C188.294 33.4347 188.758 33.568 189.195 33.728C189.643 33.8773 190.006 34.1067 190.283 34.416C190.571 34.7147 190.715 35.152 190.715 35.728C190.726 36.4427 190.454 37.0347 189.899 37.504C189.355 37.9627 188.614 38.192 187.675 38.192ZM192.635 38V30.064H193.851L193.931 31.488C194.187 30.9867 194.555 30.592 195.035 30.304C195.515 30.016 196.059 29.872 196.667 29.872C197.606 29.872 198.353 30.16 198.907 30.736C199.473 31.3013 199.755 32.176 199.755 33.36V38H198.411V33.504C198.411 31.8507 197.729 31.024 196.363 31.024C195.681 31.024 195.11 31.2747 194.651 31.776C194.203 32.2667 193.979 32.9707 193.979 33.888V38H192.635ZM200.691 29.072L200.483 25.92H201.811L201.619 29.072H200.691ZM206.646 38C205.921 38 205.35 37.824 204.934 37.472C204.518 37.12 204.31 36.4853 204.31 35.568V31.2H202.934V30.064H204.31L204.486 28.16H205.654V30.064H207.99V31.2H205.654V35.568C205.654 36.0693 205.756 36.4107 205.958 36.592C206.161 36.7627 206.518 36.848 207.03 36.848H207.862V38H206.646ZM217.068 35.504C216.62 35.504 216.209 35.4453 215.836 35.328L215.036 36.08C215.153 36.1653 215.297 36.24 215.468 36.304C215.649 36.3573 215.905 36.4107 216.236 36.464C216.567 36.5067 217.031 36.5547 217.628 36.608C218.695 36.6827 219.457 36.928 219.916 37.344C220.375 37.76 220.604 38.304 220.604 38.976C220.604 39.4347 220.476 39.872 220.22 40.288C219.975 40.704 219.591 41.0453 219.068 41.312C218.556 41.5787 217.895 41.712 217.084 41.712C216.369 41.712 215.735 41.616 215.18 41.424C214.625 41.2427 214.193 40.96 213.884 40.576C213.575 40.2027 213.42 39.728 213.42 39.152C213.42 38.8533 213.5 38.528 213.66 38.176C213.82 37.8347 214.119 37.5093 214.556 37.2C214.321 37.104 214.119 37.0027 213.948 36.896C213.788 36.7787 213.639 36.6507 213.5 36.512V36.144L214.86 34.8C214.231 34.2667 213.916 33.5627 213.916 32.688C213.916 32.1653 214.039 31.6907 214.284 31.264C214.529 30.8373 214.887 30.5013 215.356 30.256C215.825 30 216.396 29.872 217.068 29.872C217.527 29.872 217.943 29.936 218.316 30.064H221.244V31.072L219.756 31.136C220.065 31.584 220.22 32.1013 220.22 32.688C220.22 33.2107 220.092 33.6853 219.836 34.112C219.591 34.5387 219.233 34.88 218.764 35.136C218.305 35.3813 217.74 35.504 217.068 35.504ZM217.068 34.4C217.633 34.4 218.081 34.256 218.412 33.968C218.753 33.6693 218.924 33.2427 218.924 32.688C218.924 32.144 218.753 31.728 218.412 31.44C218.081 31.1413 217.633 30.992 217.068 30.992C216.492 30.992 216.033 31.1413 215.692 31.44C215.361 31.728 215.196 32.144 215.196 32.688C215.196 33.2427 215.361 33.6693 215.692 33.968C216.033 34.256 216.492 34.4 217.068 34.4ZM214.732 39.024C214.732 39.5573 214.956 39.952 215.404 40.208C215.852 40.4747 216.412 40.608 217.084 40.608C217.745 40.608 218.273 40.464 218.668 40.176C219.073 39.888 219.276 39.504 219.276 39.024C219.276 38.6827 219.137 38.384 218.86 38.128C218.583 37.8827 218.071 37.7387 217.324 37.696C216.737 37.6533 216.231 37.6 215.804 37.536C215.367 37.7707 215.079 38.0213 214.94 38.288C214.801 38.5653 214.732 38.8107 214.732 39.024ZM226.016 38.192C225.258 38.192 224.586 38.0213 224 37.68C223.413 37.328 222.949 36.8427 222.608 36.224C222.277 35.6053 222.112 34.8747 222.112 34.032C222.112 33.2 222.277 32.4747 222.608 31.856C222.938 31.2267 223.397 30.7413 223.984 30.4C224.581 30.048 225.269 29.872 226.048 29.872C226.816 29.872 227.477 30.048 228.032 30.4C228.597 30.7413 229.029 31.1947 229.328 31.76C229.626 32.3253 229.776 32.9333 229.776 33.584C229.776 33.7013 229.77 33.8187 229.76 33.936C229.76 34.0533 229.76 34.1867 229.76 34.336H223.44C223.472 34.944 223.61 35.4507 223.856 35.856C224.112 36.2507 224.426 36.5493 224.8 36.752C225.184 36.9547 225.589 37.056 226.016 37.056C226.57 37.056 227.034 36.928 227.408 36.672C227.781 36.416 228.053 36.0693 228.224 35.632H229.552C229.338 36.368 228.928 36.9813 228.32 37.472C227.722 37.952 226.954 38.192 226.016 38.192ZM226.016 31.008C225.376 31.008 224.805 31.2053 224.304 31.6C223.813 31.984 223.53 32.5493 223.456 33.296H228.448C228.416 32.5813 228.17 32.0213 227.712 31.616C227.253 31.2107 226.688 31.008 226.016 31.008ZM234.428 38C233.702 38 233.132 37.824 232.716 37.472C232.3 37.12 232.092 36.4853 232.092 35.568V31.2H230.715V30.064H232.092L232.268 28.16H233.436V30.064H235.772V31.2H233.436V35.568C233.436 36.0693 233.537 36.4107 233.74 36.592C233.942 36.7627 234.3 36.848 234.812 36.848H235.644V38H234.428ZM245.361 38.192C244.604 38.192 243.921 38.0213 243.313 37.68C242.716 37.328 242.241 36.8427 241.889 36.224C241.548 35.5947 241.377 34.864 241.377 34.032C241.377 33.2 241.548 32.4747 241.889 31.856C242.241 31.2267 242.716 30.7413 243.313 30.4C243.921 30.048 244.604 29.872 245.361 29.872C246.3 29.872 247.089 30.1173 247.729 30.608C248.38 31.0987 248.791 31.7547 248.961 32.576H247.585C247.479 32.0853 247.217 31.7067 246.801 31.44C246.385 31.1627 245.9 31.024 245.345 31.024C244.897 31.024 244.476 31.136 244.081 31.36C243.687 31.584 243.367 31.92 243.121 32.368C242.876 32.816 242.753 33.3707 242.753 34.032C242.753 34.6933 242.876 35.248 243.121 35.696C243.367 36.144 243.687 36.4853 244.081 36.72C244.476 36.944 244.897 37.056 245.345 37.056C245.9 37.056 246.385 36.9227 246.801 36.656C247.217 36.3787 247.479 35.9893 247.585 35.488H248.961C248.801 36.288 248.396 36.9387 247.745 37.44C247.095 37.9413 246.3 38.192 245.361 38.192ZM250.838 38V26.48H252.182V38H250.838ZM257.281 38.192C256.343 38.192 255.596 37.9093 255.041 37.344C254.487 36.768 254.209 35.888 254.209 34.704V30.064H255.553V34.56C255.553 36.2133 256.231 37.04 257.585 37.04C258.279 37.04 258.849 36.7947 259.297 36.304C259.756 35.8027 259.985 35.0933 259.985 34.176V30.064H261.329V38H260.113L260.017 36.576C259.772 37.0773 259.404 37.472 258.913 37.76C258.433 38.048 257.889 38.192 257.281 38.192ZM266.678 38C265.952 38 265.382 37.824 264.966 37.472C264.55 37.12 264.342 36.4853 264.342 35.568V31.2H262.965V30.064H264.342L264.518 28.16H265.686V30.064H268.022V31.2H265.686V35.568C265.686 36.0693 265.787 36.4107 265.99 36.592C266.192 36.7627 266.55 36.848 267.062 36.848H267.894V38H266.678ZM272.865 38C272.14 38 271.569 37.824 271.153 37.472C270.737 37.12 270.529 36.4853 270.529 35.568V31.2H269.153V30.064H270.529L270.705 28.16H271.873V30.064H274.209V31.2H271.873V35.568C271.873 36.0693 271.974 36.4107 272.177 36.592C272.38 36.7627 272.737 36.848 273.249 36.848H274.081V38H272.865ZM279.266 38.192C278.508 38.192 277.836 38.0213 277.25 37.68C276.663 37.328 276.199 36.8427 275.858 36.224C275.527 35.6053 275.362 34.8747 275.362 34.032C275.362 33.2 275.527 32.4747 275.858 31.856C276.188 31.2267 276.647 30.7413 277.234 30.4C277.831 30.048 278.519 29.872 279.298 29.872C280.066 29.872 280.727 30.048 281.282 30.4C281.847 30.7413 282.279 31.1947 282.578 31.76C282.876 32.3253 283.026 32.9333 283.026 33.584C283.026 33.7013 283.02 33.8187 283.01 33.936C283.01 34.0533 283.01 34.1867 283.01 34.336H276.69C276.722 34.944 276.86 35.4507 277.106 35.856C277.362 36.2507 277.676 36.5493 278.05 36.752C278.434 36.9547 278.839 37.056 279.266 37.056C279.82 37.056 280.284 36.928 280.658 36.672C281.031 36.416 281.303 36.0693 281.474 35.632H282.802C282.588 36.368 282.178 36.9813 281.57 37.472C280.972 37.952 280.204 38.192 279.266 38.192ZM279.266 31.008C278.626 31.008 278.055 31.2053 277.554 31.6C277.063 31.984 276.78 32.5493 276.706 33.296H281.698C281.666 32.5813 281.42 32.0213 280.962 31.616C280.503 31.2107 279.938 31.008 279.266 31.008ZM284.807 38V30.064H286.023L286.135 31.584C286.38 31.0613 286.754 30.6453 287.255 30.336C287.756 30.0267 288.375 29.872 289.111 29.872V31.28H288.743C288.274 31.28 287.842 31.3653 287.447 31.536C287.052 31.696 286.738 31.9733 286.503 32.368C286.268 32.7627 286.151 33.3067 286.151 34V38H284.807ZM293.891 38.192C293.133 38.192 292.461 38.0213 291.875 37.68C291.288 37.328 290.824 36.8427 290.483 36.224C290.152 35.6053 289.987 34.8747 289.987 34.032C289.987 33.2 290.152 32.4747 290.483 31.856C290.813 31.2267 291.272 30.7413 291.859 30.4C292.456 30.048 293.144 29.872 293.923 29.872C294.691 29.872 295.352 30.048 295.907 30.4C296.472 30.7413 296.904 31.1947 297.203 31.76C297.501 32.3253 297.651 32.9333 297.651 33.584C297.651 33.7013 297.645 33.8187 297.635 33.936C297.635 34.0533 297.635 34.1867 297.635 34.336H291.315C291.347 34.944 291.485 35.4507 291.731 35.856C291.987 36.2507 292.301 36.5493 292.675 36.752C293.059 36.9547 293.464 37.056 293.891 37.056C294.445 37.056 294.909 36.928 295.283 36.672C295.656 36.416 295.928 36.0693 296.099 35.632H297.427C297.213 36.368 296.803 36.9813 296.195 37.472C295.597 37.952 294.829 38.192 293.891 38.192ZM293.891 31.008C293.251 31.008 292.68 31.2053 292.179 31.6C291.688 31.984 291.405 32.5493 291.331 33.296H296.323C296.291 32.5813 296.045 32.0213 295.587 31.616C295.128 31.2107 294.563 31.008 293.891 31.008ZM303.032 38.192C302.243 38.192 301.549 38.0107 300.952 37.648C300.365 37.2853 299.907 36.7893 299.576 36.16C299.256 35.5307 299.096 34.816 299.096 34.016C299.096 33.216 299.261 32.5067 299.592 31.888C299.923 31.2587 300.381 30.768 300.968 30.416C301.555 30.0533 302.248 29.872 303.048 29.872C303.699 29.872 304.275 30.0053 304.776 30.272C305.277 30.5387 305.667 30.912 305.944 31.392V26.48H307.288V38H306.072L305.944 36.688C305.688 37.072 305.32 37.4187 304.84 37.728C304.36 38.0373 303.757 38.192 303.032 38.192ZM303.176 37.024C303.709 37.024 304.179 36.9013 304.584 36.656C305 36.4 305.32 36.048 305.544 35.6C305.779 35.152 305.896 34.6293 305.896 34.032C305.896 33.4347 305.779 32.912 305.544 32.464C305.32 32.016 305 31.6693 304.584 31.424C304.179 31.168 303.709 31.04 303.176 31.04C302.653 31.04 302.184 31.168 301.768 31.424C301.363 31.6693 301.043 32.016 300.808 32.464C300.584 32.912 300.472 33.4347 300.472 34.032C300.472 34.6293 300.584 35.152 300.808 35.6C301.043 36.048 301.363 36.4 301.768 36.656C302.184 36.9013 302.653 37.024 303.176 37.024Z" fill="black"/>
<path d="M129.32 16.192C128.616 16.192 127.997 16.08 127.464 15.856C126.931 15.6213 126.504 15.3013 126.184 14.896C125.864 14.4907 125.672 14.0213 125.608 13.488H127.672C127.736 13.7973 127.907 14.064 128.184 14.288C128.472 14.5013 128.84 14.608 129.288 14.608C129.736 14.608 130.061 14.5173 130.264 14.336C130.477 14.1547 130.584 13.9467 130.584 13.712C130.584 13.3707 130.435 13.1413 130.136 13.024C129.837 12.896 129.421 12.7733 128.888 12.656C128.547 12.5813 128.2 12.4907 127.848 12.384C127.496 12.2773 127.171 12.144 126.872 11.984C126.584 11.8133 126.349 11.6 126.168 11.344C125.987 11.0773 125.896 10.752 125.896 10.368C125.896 9.664 126.173 9.072 126.728 8.592C127.293 8.112 128.083 7.872 129.096 7.872C130.035 7.872 130.781 8.09067 131.336 8.528C131.901 8.96533 132.237 9.568 132.344 10.336H130.408C130.291 9.74933 129.848 9.456 129.08 9.456C128.696 9.456 128.397 9.53067 128.184 9.68C127.981 9.82933 127.88 10.016 127.88 10.24C127.88 10.4747 128.035 10.6613 128.344 10.8C128.653 10.9387 129.064 11.0667 129.576 11.184C130.131 11.312 130.637 11.456 131.096 11.616C131.565 11.7653 131.939 11.9947 132.216 12.304C132.493 12.6027 132.632 13.0347 132.632 13.6C132.643 14.0907 132.515 14.5333 132.248 14.928C131.981 15.3227 131.597 15.632 131.096 15.856C130.595 16.08 130.003 16.192 129.32 16.192ZM138.254 16.192C137.486 16.192 136.793 16.016 136.174 15.664C135.566 15.312 135.081 14.8267 134.718 14.208C134.366 13.5787 134.19 12.8533 134.19 12.032C134.19 11.2107 134.372 10.4907 134.734 9.872C135.097 9.24267 135.582 8.752 136.19 8.4C136.809 8.048 137.502 7.872 138.27 7.872C139.028 7.872 139.71 8.048 140.318 8.4C140.937 8.752 141.422 9.24267 141.774 9.872C142.137 10.4907 142.318 11.2107 142.318 12.032C142.318 12.8533 142.137 13.5787 141.774 14.208C141.422 14.8267 140.937 15.312 140.318 15.664C139.7 16.016 139.012 16.192 138.254 16.192ZM138.254 14.416C138.788 14.416 139.252 14.2187 139.646 13.824C140.041 13.4187 140.238 12.8213 140.238 12.032C140.238 11.2427 140.041 10.6507 139.646 10.256C139.252 9.85067 138.793 9.648 138.27 9.648C137.726 9.648 137.257 9.85067 136.862 10.256C136.478 10.6507 136.286 11.2427 136.286 12.032C136.286 12.8213 136.478 13.4187 136.862 13.824C137.257 14.2187 137.721 14.416 138.254 14.416ZM148.01 16V4.8H150.058V16H148.01ZM159.881 16.192C159.07 16.192 158.356 16.016 157.737 15.664C157.118 15.312 156.628 14.8213 156.265 14.192C155.913 13.5627 155.737 12.8427 155.737 12.032C155.737 11.2213 155.913 10.5013 156.265 9.872C156.628 9.24267 157.118 8.752 157.737 8.4C158.356 8.048 159.07 7.872 159.881 7.872C160.894 7.872 161.748 8.13867 162.441 8.672C163.134 9.19467 163.577 9.92 163.769 10.848H161.609C161.502 10.464 161.289 10.1653 160.969 9.952C160.66 9.728 160.292 9.616 159.865 9.616C159.3 9.616 158.82 9.82933 158.425 10.256C158.03 10.6827 157.833 11.2747 157.833 12.032C157.833 12.7893 158.03 13.3813 158.425 13.808C158.82 14.2347 159.3 14.448 159.865 14.448C160.292 14.448 160.66 14.3413 160.969 14.128C161.289 13.9147 161.502 13.6107 161.609 13.216H163.769C163.577 14.112 163.134 14.832 162.441 15.376C161.748 15.92 160.894 16.192 159.881 16.192ZM168.323 16.192C167.64 16.192 167.08 16.0853 166.643 15.872C166.206 15.648 165.88 15.3547 165.667 14.992C165.454 14.6293 165.347 14.2293 165.347 13.792C165.347 13.056 165.635 12.4587 166.211 12C166.787 11.5413 167.651 11.312 168.803 11.312H170.819V11.12C170.819 10.576 170.664 10.176 170.355 9.92C170.046 9.664 169.662 9.536 169.203 9.536C168.787 9.536 168.424 9.63733 168.115 9.84C167.806 10.032 167.614 10.32 167.539 10.704H165.539C165.592 10.128 165.784 9.62667 166.115 9.2C166.456 8.77333 166.894 8.448 167.427 8.224C167.96 7.98933 168.558 7.872 169.219 7.872C170.35 7.872 171.24 8.15467 171.891 8.72C172.542 9.28533 172.867 10.0853 172.867 11.12V16H171.123L170.931 14.72C170.696 15.1467 170.366 15.4987 169.939 15.776C169.523 16.0533 168.984 16.192 168.323 16.192ZM168.787 14.592C169.374 14.592 169.827 14.4 170.147 14.016C170.478 13.632 170.686 13.1573 170.771 12.592H169.027C168.483 12.592 168.094 12.6933 167.859 12.896C167.624 13.088 167.507 13.328 167.507 13.616C167.507 13.9253 167.624 14.1653 167.859 14.336C168.094 14.5067 168.403 14.592 168.787 14.592ZM174.821 16V8.064H176.629L176.789 9.408C177.035 8.93867 177.387 8.56533 177.845 8.288C178.315 8.01067 178.864 7.872 179.493 7.872C180.475 7.872 181.237 8.18133 181.781 8.8C182.325 9.41867 182.597 10.3253 182.597 11.52V16H180.549V11.712C180.549 11.0293 180.411 10.5067 180.133 10.144C179.856 9.78133 179.424 9.6 178.837 9.6C178.261 9.6 177.787 9.80267 177.413 10.208C177.051 10.6133 176.869 11.1787 176.869 11.904V16H174.821Z" fill="#03AB83"/>
<rect y="45" width="308" height="3" fill="#03AB83"/>
</svg>
