<svg width="388" height="134" viewBox="0 0 388 134" fill="none" xmlns="http://www.w3.org/2000/svg">
<path d="M49.5021 133.56C71.5181 133.56 90.2061 127.032 98.9101 115.384V3.00044H88.6701V101.688C88.6701 128.568 61.9181 131 49.5021 131C36.9581 131 10.3341 125.88 10.3341 99.0004V76.0884C10.3341 66.6164 10.5901 3.00044 10.5901 3.00044H0.350098V93.6244C0.350098 115.256 13.1501 133.56 49.5021 133.56Z" fill="#1A1A1A"/>
<path d="M115.525 67.0004C115.525 106.936 144.197 133.56 179.397 133.56C201.285 133.56 222.277 126.776 228.549 117.304V102.968C218.693 117.048 199.493 131 179.397 131C149.829 131 125.765 105.4 125.765 67.0004C125.765 28.6004 149.829 3.00044 179.397 3.00044C201.285 3.00044 219.973 18.1044 221.893 32.4404C221.893 32.4404 227.653 32.6964 227.653 25.4004C227.653 8.88844 202.565 0.44043 179.397 0.44043C144.197 0.44043 115.525 27.0644 115.525 67.0004ZM179.525 114.232H189.765V95.0324C189.765 69.3044 221.509 55.2244 244.421 55.2244C257.605 55.2244 267.845 59.8324 267.845 69.3044V131H278.085V3.00044H267.845V58.9364C259.013 53.9444 247.877 51.3844 236.357 51.3844C218.949 51.3844 200.901 57.4004 189.765 70.3284V19.1284H179.525V114.232Z" fill="#1A1A1A"/>
<path d="M298.615 131H387.319V119.608C374.263 123.96 338.807 128.44 315.511 128.44C310.903 128.44 308.727 126.648 308.727 119.736L308.855 69.8164C308.855 65.9764 311.415 64.1844 315.255 64.1844C329.463 64.1844 359.671 68.1524 374.775 71.8644V61.1124H315.127C311.287 61.1124 308.727 58.5524 308.727 54.7124V14.2644C308.727 7.35244 310.903 5.56044 315.511 5.56044C338.807 5.56044 374.263 10.0404 387.319 14.3924V3.00044H298.615V131Z" fill="#1A1A1A"/>
</svg>
