<svg width="18" height="18" viewBox="0 0 18 18" fill="none" xmlns="http://www.w3.org/2000/svg">
<circle cx="9" cy="9" r="9" fill="white"/>
<path d="M7.66658 6.45459L6.69141 7.4297L14.0274 14.7656L14.9995 13.7905L7.66658 6.45459ZM8.25624 8.34635L8.58323 8.01939L14.3543 13.7905L14.0274 14.1175L8.25624 8.34635Z" fill="#1155E6"/>
<path d="M7.89582 4H7.4375V5.14581H7.89582V4Z" fill="#1155E6"/>
<path d="M7.89582 9.84375H7.4375V10.9896H7.89582V9.84375Z" fill="#1155E6"/>
<path d="M11.3333 7.21021H10.1875V7.66853H11.3333V7.21021Z" fill="#1155E6"/>
<path d="M5.14581 7.21021H4V7.66853H5.14581V7.21021Z" fill="#1155E6"/>
<path d="M5.84389 6.00157L6.16797 5.67749L5.35776 4.86729L5.03368 5.19137L5.84389 6.00157Z" fill="#1155E6"/>
<path d="M5.03534 9.80975L5.35938 10.1338L6.16958 9.32359L5.84554 8.99955L5.03534 9.80975Z" fill="#1155E6"/>
<path d="M9.1642 5.67934L9.48828 6.00342L10.2985 5.19323L9.97439 4.86915L9.1642 5.67934Z" fill="#1155E6"/>
</svg>
