<?xml version="1.0" encoding="UTF-8"?>
<svg width="375px" height="667px" viewBox="0 0 375 667" version="1.1" xmlns="http://www.w3.org/2000/svg" xmlns:xlink="http://www.w3.org/1999/xlink">
    <!-- Generator: Sketch 59.1 (86144) - https://sketch.com -->
    <title>iPhone 8 Copy 86</title>
    <desc>Created with Sketch.</desc>
    <g id="iPhone-8-Copy-86" stroke="none" stroke-width="1" fill="none" fill-rule="evenodd">
        <g id="Background-white" fill="#FFFFFF">
            <rect id="Background" x="0" y="0" width="375" height="667"></rect>
        </g>
        <g id="Unscheduled-task" transform="translate(0.000000, 538.500000)">
            <g id="Group-4" stroke-width="1">
                <g id="Group-11-Copy-2" transform="translate(6.000000, 7.500000)">
                    <circle id="Oval" stroke="#DBDBDB" cx="19.5" cy="18.5" r="13.5"></circle>
                    <rect id="Rectangle" fill="#FFFFFF" transform="translate(20.060660, 19.146447) rotate(44.000000) translate(-20.060660, -19.146447) " x="17.5606602" y="-0.353553391" width="5" height="39"></rect>
                    <rect id="Rectangle-Copy-7" fill="#FFFFFF" x="17" y="0" width="5" height="39"></rect>
                    <rect id="Rectangle-Copy-6" fill="#FFFFFF" transform="translate(20.000000, 18.500000) rotate(90.000000) translate(-20.000000, -18.500000) " x="17" y="-1" width="6" height="39"></rect>
                    <rect id="Rectangle-Copy-5" fill="#FFFFFF" transform="translate(21.121320, 18.792893) rotate(-45.000000) translate(-21.121320, -18.792893) " x="19.1213203" y="-0.707106781" width="4" height="39"></rect>
                    <g id="Check-reg" opacity="0.305989583" transform="translate(10.000000, 12.000000)" fill="#000000" stroke="#000000">
                        <g id="Checkmark" transform="translate(0.000000, 0.000000)">
                            <path d="M4.46808155,5.68286452 C4.1671694,5.68634327 3.92408026,5.9294324 3.92060151,6.23034455 L3.84123643,13.0954239 C3.84119133,13.1012766 3.84119133,13.1012766 3.84123643,13.1071293 C3.84446879,13.3867278 4.07374851,13.6107669 4.35334702,13.6075345 C4.65425917,13.6040558 4.89734831,13.3609666 4.90082706,13.0600545 L4.98019214,6.19497511 C4.98023725,6.18912241 4.98023725,6.18912241 4.98019214,6.18326972 C4.97695979,5.9036712 4.74768006,5.67963216 4.46808155,5.68286452 Z" id="Rectangle" transform="translate(4.410714, 9.645200) rotate(-45.000000) translate(-4.410714, -9.645200) "></path>
                            <path d="M11.7713994,-0.793684203 C11.7655467,-0.793729309 11.7655467,-0.793729309 11.759694,-0.793684203 C11.4800955,-0.79045185 11.2560564,-0.561172128 11.2592888,-0.281573611 L11.4259554,14.1350931 C11.4294342,14.4360052 11.6725233,14.6790943 11.9734355,14.6825731 C11.9792882,14.6826182 11.9792882,14.6826182 11.9851409,14.6825731 C12.2647394,14.6793407 12.4887784,14.450061 12.4855461,14.1704625 L12.3188794,-0.246204166 C12.3154006,-0.547116316 12.0723115,-0.79020545 11.7713994,-0.793684203 Z" id="Rectangle-Copy-4" transform="translate(11.872417, 6.944444) rotate(45.000000) translate(-11.872417, -6.944444) "></path>
                        </g>
                    </g>
                </g>
                <line x1="0" y1="50.5" x2="375" y2="50.5" id="Line-5-Copy-6" stroke="#D8D8D8" stroke-linecap="square"></line>
                <line x1="0" y1="0.5" x2="375" y2="0.5" id="Line-5-Copy-5" stroke="#D8D8D8" stroke-linecap="square"></line>
                <text id="Clean-cobwebs" font-family="AvenirNext-Medium, Avenir Next" font-size="16" font-weight="400" fill="#4A4A4A">
                    <tspan x="55" y="31.5">Clean cobwebs</tspan>
                </text>
            </g>
            <rect id="Rectangle" fill="#EDEDED" x="368" y="1" width="7" height="50"></rect>
        </g>
        <g id="Task-Color" transform="translate(0.000000, 300.000000)">
            <g id="Group-14" stroke-width="1">
                <g id="Checkmark" transform="translate(12.000000, 13.000000)">
                    <circle id="Oval" stroke="#DBDBDB" cx="13.5" cy="13.5" r="13.5"></circle>
                    <g id="Check-reg" opacity="0.305989583" transform="translate(4.000000, 7.000000)" fill="#000000" stroke="#000000">
                        <g id="Checkmark" transform="translate(0.000000, 0.000000)">
                            <path d="M4.46808155,5.68286452 C4.1671694,5.68634327 3.92408026,5.9294324 3.92060151,6.23034455 L3.84123643,13.0954239 C3.84119133,13.1012766 3.84119133,13.1012766 3.84123643,13.1071293 C3.84446879,13.3867278 4.07374851,13.6107669 4.35334702,13.6075345 C4.65425917,13.6040558 4.89734831,13.3609666 4.90082706,13.0600545 L4.98019214,6.19497511 C4.98023725,6.18912241 4.98023725,6.18912241 4.98019214,6.18326972 C4.97695979,5.9036712 4.74768006,5.67963216 4.46808155,5.68286452 Z" id="Rectangle" transform="translate(4.410714, 9.645200) rotate(-45.000000) translate(-4.410714, -9.645200) "></path>
                            <path d="M11.7713994,-0.793684203 C11.7655467,-0.793729309 11.7655467,-0.793729309 11.759694,-0.793684203 C11.4800955,-0.79045185 11.2560564,-0.561172128 11.2592888,-0.281573611 L11.4259554,14.1350931 C11.4294342,14.4360052 11.6725233,14.6790943 11.9734355,14.6825731 C11.9792882,14.6826182 11.9792882,14.6826182 11.9851409,14.6825731 C12.2647394,14.6793407 12.4887784,14.450061 12.4855461,14.1704625 L12.3188794,-0.246204166 C12.3154006,-0.547116316 12.0723115,-0.79020545 11.7713994,-0.793684203 Z" id="Rectangle-Copy-4" transform="translate(11.872417, 6.944444) rotate(45.000000) translate(-11.872417, -6.944444) "></path>
                        </g>
                    </g>
                </g>
                <text id="Sweep-floor" font-family="AvenirNext-Medium, Avenir Next" font-size="16" font-weight="400" fill="#4A4A4A">
                    <tspan x="55" y="32">Sweep kitchen floor</tspan>
                </text>
                <rect id="Rectangle" stroke="#D8D8D8" x="0.5" y="0.5" width="374" height="1"></rect>
                <rect id="Rectangle" stroke="#D8D8D8" x="0.5" y="51.5" width="374" height="1"></rect>
            </g>
            <g id="Group-4" stroke-width="1" transform="translate(252.000000, 17.000000)" fill="#9B9B9B" font-family="AvenirNext-Medium, Avenir Next" font-size="14" font-weight="400">
                <text id="Today">
                    <tspan x="62.304" y="14">Today</tspan>
                </text>
            </g>
            <g id="Priority/Yellow" transform="translate(368.000000, 1.000000)" fill="#FFDCA2">
                <rect id="Rectangle-Copy" x="0" y="0" width="7" height="50"></rect>
            </g>
        </g>
        <g id="Task-Color" transform="translate(0.000000, 351.000000)">
            <g id="Group-14" stroke-width="1">
                <g id="Checkmark" transform="translate(12.000000, 13.000000)">
                    <circle id="Oval" stroke="#DBDBDB" cx="13.5" cy="13.5" r="13.5"></circle>
                    <g id="Check-reg" opacity="0.305989583" transform="translate(4.000000, 7.000000)" fill="#000000" stroke="#000000">
                        <g id="Checkmark" transform="translate(0.000000, 0.000000)">
                            <path d="M4.46808155,5.68286452 C4.1671694,5.68634327 3.92408026,5.9294324 3.92060151,6.23034455 L3.84123643,13.0954239 C3.84119133,13.1012766 3.84119133,13.1012766 3.84123643,13.1071293 C3.84446879,13.3867278 4.07374851,13.6107669 4.35334702,13.6075345 C4.65425917,13.6040558 4.89734831,13.3609666 4.90082706,13.0600545 L4.98019214,6.19497511 C4.98023725,6.18912241 4.98023725,6.18912241 4.98019214,6.18326972 C4.97695979,5.9036712 4.74768006,5.67963216 4.46808155,5.68286452 Z" id="Rectangle" transform="translate(4.410714, 9.645200) rotate(-45.000000) translate(-4.410714, -9.645200) "></path>
                            <path d="M11.7713994,-0.793684203 C11.7655467,-0.793729309 11.7655467,-0.793729309 11.759694,-0.793684203 C11.4800955,-0.79045185 11.2560564,-0.561172128 11.2592888,-0.281573611 L11.4259554,14.1350931 C11.4294342,14.4360052 11.6725233,14.6790943 11.9734355,14.6825731 C11.9792882,14.6826182 11.9792882,14.6826182 11.9851409,14.6825731 C12.2647394,14.6793407 12.4887784,14.450061 12.4855461,14.1704625 L12.3188794,-0.246204166 C12.3154006,-0.547116316 12.0723115,-0.79020545 11.7713994,-0.793684203 Z" id="Rectangle-Copy-4" transform="translate(11.872417, 6.944444) rotate(45.000000) translate(-11.872417, -6.944444) "></path>
                        </g>
                    </g>
                </g>
                <text id="Sweep-floor" font-family="AvenirNext-Medium, Avenir Next" font-size="16" font-weight="400" fill="#4A4A4A">
                    <tspan x="55" y="32">Mop floor</tspan>
                </text>
                <rect id="Rectangle" stroke="#D8D8D8" x="0.5" y="0.5" width="374" height="1"></rect>
                <rect id="Rectangle" stroke="#D8D8D8" x="0.5" y="51.5" width="374" height="1"></rect>
            </g>
            <g id="Group-4" stroke-width="1" transform="translate(252.000000, 17.000000)" fill="#9B9B9B" font-family="AvenirNext-Medium, Avenir Next" font-size="14" font-weight="400">
                <text id="Today">
                    <tspan x="62.304" y="14">Today</tspan>
                </text>
            </g>
            <g id="Priority/Yellow" transform="translate(368.000000, 1.000000)" fill="#FFDCA2">
                <rect id="Rectangle-Copy" x="0" y="0" width="7" height="50"></rect>
            </g>
        </g>
        <g id="Task-Color" transform="translate(0.000000, 402.000000)">
            <g id="Group-14" stroke-width="1">
                <g id="Checkmark" transform="translate(12.000000, 13.000000)">
                    <circle id="Oval" stroke="#DBDBDB" cx="13.5" cy="13.5" r="13.5"></circle>
                    <g id="Check-reg" opacity="0.305989583" transform="translate(4.000000, 7.000000)" fill="#000000" stroke="#000000">
                        <g id="Checkmark" transform="translate(0.000000, 0.000000)">
                            <path d="M4.46808155,5.68286452 C4.1671694,5.68634327 3.92408026,5.9294324 3.92060151,6.23034455 L3.84123643,13.0954239 C3.84119133,13.1012766 3.84119133,13.1012766 3.84123643,13.1071293 C3.84446879,13.3867278 4.07374851,13.6107669 4.35334702,13.6075345 C4.65425917,13.6040558 4.89734831,13.3609666 4.90082706,13.0600545 L4.98019214,6.19497511 C4.98023725,6.18912241 4.98023725,6.18912241 4.98019214,6.18326972 C4.97695979,5.9036712 4.74768006,5.67963216 4.46808155,5.68286452 Z" id="Rectangle" transform="translate(4.410714, 9.645200) rotate(-45.000000) translate(-4.410714, -9.645200) "></path>
                            <path d="M11.7713994,-0.793684203 C11.7655467,-0.793729309 11.7655467,-0.793729309 11.759694,-0.793684203 C11.4800955,-0.79045185 11.2560564,-0.561172128 11.2592888,-0.281573611 L11.4259554,14.1350931 C11.4294342,14.4360052 11.6725233,14.6790943 11.9734355,14.6825731 C11.9792882,14.6826182 11.9792882,14.6826182 11.9851409,14.6825731 C12.2647394,14.6793407 12.4887784,14.450061 12.4855461,14.1704625 L12.3188794,-0.246204166 C12.3154006,-0.547116316 12.0723115,-0.79020545 11.7713994,-0.793684203 Z" id="Rectangle-Copy-4" transform="translate(11.872417, 6.944444) rotate(45.000000) translate(-11.872417, -6.944444) "></path>
                        </g>
                    </g>
                </g>
                <text id="Sweep-floor" font-family="AvenirNext-Medium, Avenir Next" font-size="16" font-weight="400" fill="#4A4A4A">
                    <tspan x="55" y="32">Deep clean sink</tspan>
                </text>
                <rect id="Rectangle" stroke="#D8D8D8" x="0.5" y="0.5" width="374" height="1"></rect>
                <rect id="Rectangle" stroke="#D8D8D8" x="0.5" y="51.5" width="374" height="1"></rect>
            </g>
            <g id="Group-4" stroke-width="1" transform="translate(252.000000, 17.000000)" fill="#9B9B9B" font-family="AvenirNext-Medium, Avenir Next" font-size="14" font-weight="400">
                <text id="Today">
                    <tspan x="62.304" y="14">Today</tspan>
                </text>
            </g>
            <g id="Priority/Yellow" transform="translate(368.000000, 1.000000)" fill="#FFDCA2">
                <rect id="Rectangle-Copy" x="0" y="0" width="7" height="50"></rect>
            </g>
        </g>
        <g id="CTA" transform="translate(0.000000, 73.000000)" stroke="#D8D8D8" stroke-linecap="square">
            <line x1="-2.27318164e-13" y1="1" x2="375" y2="1" id="Line"></line>
        </g>
        <g id="Bars-/-Status-Bars-/-Black">
            <rect id="Background" fill-opacity="0" fill="#000000" fill-rule="evenodd" x="0" y="0" width="375" height="20"></rect>
            <g id="Charge" stroke-width="1" fill-rule="evenodd" transform="translate(305.000000, 3.000000)">
                <g id="Battery" transform="translate(38.000000, 1.000000)">
                    <rect id="Shape" stroke="#000000" opacity="0.5" x="0.5" y="1" width="23" height="10.5" rx="2"></rect>
                    <path d="M2.5,2.5 L22,2.5 L22,2.5 L22,10 L2.5,10 C2.22385763,10 2,9.77614237 2,9.5 L2,3 C2,2.72385763 2.22385763,2.5 2.5,2.5 Z" id="Shape" fill="#000000"></path>
                    <path d="M25,4.5 C25.8284271,4.5 26.5,5.17157288 26.5,6 L26.5,6.5 C26.5,7.32842712 25.8284271,8 25,8 L25,8 L25,8 L25,4.5 Z" id="Shape" fill="#000000" opacity="0.5"></path>
                </g>
                <text id="100%" font-family="SFProText-Regular, SF Pro Text" font-size="12" font-weight="normal" fill="#000000">
                    <tspan x="4.20898438" y="11">100%</tspan>
                </text>
            </g>
            <path d="M167.837891,14.7050781 C166.291016,14.7050781 165.113281,13.7910156 164.861328,12.4023438 L166.367188,12.4023438 C166.560547,13.0410156 167.123047,13.4394531 167.849609,13.4394531 C169.085938,13.4394531 169.818359,12.2851562 169.818359,10.3515625 L169.71875,10.3515625 C169.320312,11.1542969 168.517578,11.6171875 167.527344,11.6171875 C165.916016,11.6171875 164.744141,10.4335938 164.744141,8.8046875 C164.744141,7.0703125 166.044922,5.83398438 167.884766,5.83398438 C169.121094,5.83398438 170.099609,6.41992188 170.667969,7.50390625 C171.060547,8.20117188 171.265625,9.10351562 171.265625,10.1757812 C171.265625,13.0234375 169.988281,14.7050781 167.837891,14.7050781 Z M167.890625,10.4160156 C168.857422,10.4160156 169.566406,9.72460938 169.566406,8.78125 C169.566406,7.82617188 168.839844,7.09375 167.896484,7.09375 C166.953125,7.09375 166.226562,7.81445312 166.226562,8.7578125 C166.226562,9.72460938 166.917969,10.4160156 167.890625,10.4160156 Z M173.978516,13.6035156 C174.535156,13.6035156 174.916016,13.2050781 174.916016,12.6777344 C174.916016,12.1445312 174.535156,11.7519531 173.978516,11.7519531 C173.427734,11.7519531 173.041016,12.1445312 173.041016,12.6777344 C173.041016,13.2050781 173.427734,13.6035156 173.978516,13.6035156 Z M173.978516,9.20898438 C174.535156,9.20898438 174.916016,8.81640625 174.916016,8.2890625 C174.916016,7.75585938 174.535156,7.36328125 173.978516,7.36328125 C173.427734,7.36328125 173.041016,7.75585938 173.041016,8.2890625 C173.041016,8.81640625 173.427734,9.20898438 173.978516,9.20898438 Z M180.757812,14.5 L180.757812,12.9238281 L176.626953,12.9238281 L176.626953,11.5761719 C177.388672,10.1757812 178.578125,8.29492188 180.072266,6.04492188 L182.205078,6.04492188 L182.205078,11.6464844 L183.347656,11.6464844 L183.347656,12.9238281 L182.205078,12.9238281 L182.205078,14.5 L180.757812,14.5 Z M178.027344,11.59375 L178.027344,11.6816406 L180.78125,11.6816406 L180.78125,7.27539062 L180.699219,7.27539062 C179.890625,8.47070312 179.011719,9.859375 178.027344,11.59375 Z M186.945312,14.5 L188.457031,14.5 L188.457031,6.04492188 L186.951172,6.04492188 L184.742188,7.59179688 L184.742188,9.04492188 L186.845703,7.56835938 L186.945312,7.56835938 L186.945312,14.5 Z M199.671875,14.5 L198.957031,12.3378906 L195.845703,12.3378906 L195.119141,14.5 L193.589844,14.5 L196.589844,6.04492188 L198.289062,6.04492188 L201.294922,14.5 L199.671875,14.5 Z M197.357422,7.65625 L196.197266,11.1425781 L198.605469,11.1425781 L197.457031,7.65625 L197.357422,7.65625 Z M211.478516,14.5 L211.478516,6.04492188 L209.708984,6.04492188 L207.166016,12.203125 L207.060547,12.203125 L204.517578,6.04492188 L202.748047,6.04492188 L202.748047,14.5 L204.154297,14.5 L204.154297,8.55273438 L204.236328,8.55273438 L206.574219,14.171875 L207.652344,14.171875 L209.990234,8.55273438 L210.072266,8.55273438 L210.072266,14.5 L211.478516,14.5 Z" id="9:41" fill="#000000" fill-rule="evenodd"></path>
            <path d="M55.5939648,12.2681206 C55.0396726,11.8142533 54.3259403,11.5 53.5457329,11.5 C52.7670249,11.5 52.0542921,11.8137668 51.5,12.2656883 L53.5457329,14.5 L55.5939648,12.2681206 L55.5939648,12.2681206 Z M53.5344871,10.0198904 C54.6970511,10.0198904 55.7591528,10.4420274 56.5783456,11.1373699 L57.5739723,10.0376438 C56.4903786,9.10756164 55.0809072,8.5 53.5344871,8.5 C51.9910659,8.5 50.582594,9.10608219 49.5,10.0332055 L50.4941272,11.134411 C51.3128202,10.4405479 52.3734225,10.0198904 53.5344871,10.0198904 L53.5344871,10.0198904 Z M53.4957516,7.02087671 C55.4355242,7.02087671 57.2033612,7.73545205 58.5588529,8.90717808 L59.5,7.86810959 C57.894602,6.47446575 55.7978883,5.5 53.4957516,5.5 C51.1971136,5.5 49.1033987,6.47150685 47.5,7.86071233 L48.4391478,8.90126027 C49.7936399,7.7329863 51.5584781,7.02087671 53.4957516,7.02087671 L53.4957516,7.02087671 Z" id="Wifi" fill="#000000" fill-rule="evenodd"></path>
            <text id="GS" font-family="SFProText-Regular, SF Pro Text" font-size="12" font-weight="normal" fill="#000000">
                <tspan x="26" y="14.5">GS</tspan>
            </text>
            <path d="M22,5 C22.2761424,5 22.5,5.22385763 22.5,5.5 L22.5,14.5 C22.5,14.7761424 22.2761424,15 22,15 L20,15 C19.7238576,15 19.5,14.7761424 19.5,14.5 L19.5,5.5 C19.5,5.22385763 19.7238576,5 20,5 L22,5 Z M17.5,7 C17.7761424,7 18,7.22385763 18,7.5 L18,14.5 C18,14.7761424 17.7761424,15 17.5,15 L15.5,15 C15.2238576,15 15,14.7761424 15,14.5 L15,7.5 C15,7.22385763 15.2238576,7 15.5,7 L17.5,7 Z M13,9 C13.2761424,9 13.5,9.22385763 13.5,9.5 L13.5,14.5 C13.5,14.7761424 13.2761424,15 13,15 L11,15 C10.7238576,15 10.5,14.7761424 10.5,14.5 L10.5,9.5 C10.5,9.22385763 10.7238576,9 11,9 L13,9 Z M8.5,10.5 C8.77614237,10.5 9,10.7238576 9,11 L9,14.5 C9,14.7761424 8.77614237,15 8.5,15 L6.5,15 C6.22385763,15 6,14.7761424 6,14.5 L6,11 C6,10.7238576 6.22385763,10.5 6.5,10.5 L8.5,10.5 Z" id="Signal-Icon" fill="#000000" fill-rule="evenodd"></path>
        </g>
        <g id="Sign-up" transform="translate(127.000000, 32.000000)" fill="#2E374E" font-family="AvenirNext-Bold, Avenir Next" font-size="18" font-weight="bold">
            <text id="Title">
                <tspan x="0.263" y="18">Heavy Winers</tspan>
            </text>
        </g>
        <g id="Back-arrow-v1" opacity="0.509974888" transform="translate(25.000000, 36.000000)"></g>
        <rect id="Rectangle" x="0" y="612" width="375" height="55"></rect>
        <g id="Back-arrow-v1" opacity="0.509974888" transform="translate(25.000000, 36.000000)" fill="#000000">
            <g id="Arrow">
                <rect id="Rectangle" x="1" y="7" width="19" height="2" rx="1"></rect>
                <rect id="Rectangle" transform="translate(5.002641, 5.000000) rotate(45.000000) translate(-5.002641, -5.000000) " x="4.00264069" y="0" width="2" height="10" rx="1"></rect>
                <path d="M5.12264069,6 L5.28547131,6.01273595 C5.80592393,6.05344366 6.2074935,6.48764886 6.2074935,7.00969105 L6.2074935,15.0848528 C6.2074935,15.6371376 5.75977825,16.0848528 5.2074935,16.0848528 L5.19094536,16.0848528 C4.64516562,16.0848528 4.20019092,15.6472416 4.19108456,15.1015379 L4.05594398,7.00316188 C4.04682434,6.45666233 4.48245683,6.00624398 5.02895639,5.99712434 C5.06021238,5.99660276 5.09147553,5.99756239 5.12264069,6 Z" id="Rectangle-Copy-2" transform="translate(5.122641, 11.000000) rotate(-45.000000) translate(-5.122641, -11.000000) "></path>
            </g>
        </g>
        <g id="Group-6-Copy-2" transform="translate(5.000000, 82.000000)">
            <g id="Group-2-Copy-3" opacity="0.498883929" transform="translate(73.000000, 0.000000)">
                <g id="Categories-Copy" transform="translate(0.000000, 50.000000)" fill="#4A4A4A" font-family="AvenirNext-DemiBold, Avenir Next" font-size="12" font-weight="500" line-spacing="13">
                    <text id="Basement">
                        <tspan x="9.794" y="10.0280762">Kitchen</tspan>
                    </text>
                </g>
                <g id="Kitchen-Copy" transform="translate(12.000000, 0.000000)" fill="#FFA40D">
                    <g id="1275999" transform="translate(9.375000, 9.375000)">
                        <path d="M21.7731327,0.212557752 C20.2183028,0.239879428 18.7559657,0.956760524 17.7824111,2.16944263 L15.6129684,0 L14.7837927,0.828423768 C14.3875028,0.298282726 13.6956875,0.0817144507 13.0677899,0.291765593 C12.4398923,0.501566093 12.0172834,1.09036114 12.0195393,1.75259882 L12.0195393,5.859375 C12.0195393,6.1428689 11.7896862,6.37272202 11.5061922,6.37272202 C11.2226983,6.37272202 10.9928452,6.1428689 10.9928452,5.859375 L10.9928452,1.75259882 C10.9928452,0.902117171 10.3032858,0.212557752 9.45280416,0.212557752 C8.60232251,0.212557752 7.91276309,0.902117171 7.91276309,1.75259882 L7.91276309,5.859375 C7.91276309,6.1428689 7.68290997,6.37272202 7.39941607,6.37272202 C7.11592216,6.37272202 6.88606905,6.1428689 6.88606905,5.859375 L6.88606905,1.75259882 C6.88606905,0.902117171 6.19650963,0.212557752 5.34602798,0.212557752 C4.49554633,0.212557752 3.80598691,0.902117171 3.80598691,1.75259882 L3.80598691,6.88606905 C3.79871785,8.24714053 4.16292351,9.58414881 4.85925064,10.7537178 L-2.84217094e-14,15.6129684 L7.31770162,22.93067 L7.02042159,28.1318179 C6.97680711,28.8893056 7.24551219,29.6315031 7.76387243,30.185206 C8.26343326,30.7193576 8.96377092,31.0201469 9.6951902,31.0146324 C10.4266094,31.0091179 11.1224353,30.6980517 11.6139751,30.156631 C12.1350925,29.5853821 12.39327,28.8221292 12.3253417,28.0518581 L12.3145634,27.9260279 L15.6129684,31.2259369 L19.3793514,27.4600552 L19.3407501,28.1318179 C19.2971357,28.8893056 19.5658407,29.6315031 20.084201,30.185206 C20.5837618,30.7193576 21.2840995,31.0201469 22.0155187,31.0146324 C22.7469379,31.0091179 23.4427638,30.6980517 23.9343036,30.156631 C24.455421,29.5853821 24.7135985,28.8221292 24.6456702,28.0518581 L24.183708,22.6549466 L24.1904758,22.6484295 L31.2259369,15.6129684 L26.3664355,10.7537178 C27.0630133,9.58414881 27.427219,8.24714053 27.4199499,6.88606905 C27.4199499,3.20641363 24.8865523,0.212557752 21.7731327,0.212557752 Z M21.7731327,1.2392518 C24.3203165,1.2392518 26.3932559,3.77264945 26.3932559,6.88606905 C26.3932559,9.99948864 24.3203165,12.5328863 21.7731327,12.5328863 C19.2259489,12.5328863 17.1530095,9.99948864 17.1530095,6.88606905 C17.1530095,3.77264945 19.2259489,1.2392518 21.7731327,1.2392518 Z M4.83268095,1.75259882 C4.83268095,1.46910492 5.06253407,1.2392518 5.34602798,1.2392518 C5.62952188,1.2392518 5.859375,1.46910492 5.859375,1.75259882 L5.859375,5.859375 C5.859375,6.70985665 6.54893442,7.39941607 7.39941607,7.39941607 C8.24989772,7.39941607 8.93945714,6.70985665 8.93945714,5.859375 L8.93945714,1.75259882 C8.93945714,1.46910492 9.16931025,1.2392518 9.45280416,1.2392518 C9.73629806,1.2392518 9.96615118,1.46910492 9.96615118,1.75259882 L9.96615118,5.859375 C9.96615118,6.70985665 10.6557106,7.39941607 11.5061922,7.39941607 C12.3566739,7.39941607 13.0462333,6.70985665 13.0462333,5.859375 L13.0462333,1.75259882 C13.0462333,1.46910492 13.2760864,1.2392518 13.5595803,1.2392518 C13.8430742,1.2392518 14.0729274,1.46910492 14.0729274,1.75259882 L14.0729274,6.88606905 C14.0729274,9.99948864 11.9999879,12.5328863 9.45280416,12.5328863 C6.90562038,12.5328863 4.83268095,9.99948864 4.83268095,6.88606905 L4.83268095,1.75259882 Z M1.45180955,15.6129684 L5.46208252,11.6026955 C6.0982518,12.3702094 6.92968352,12.9522367 7.86864733,13.287366 L7.39640818,21.5575671 L1.45180955,15.6129684 Z M10.8572394,29.4615571 C10.5526903,29.783151 10.130332,29.9666324 9.68741979,29.9699351 C9.24450757,29.9731495 8.81939207,29.7956839 8.51033111,29.4783512 C8.1854787,29.1306889 8.01753799,28.6649669 8.04561165,28.1899705 L8.88130454,13.5595803 L10.0523774,13.5595803 L11.3009036,28.1385857 C11.3442673,28.6221044 11.1835957,29.1018633 10.8572394,29.4615571 L10.8572394,29.4615571 Z M15.6129684,29.7741273 L12.177203,26.3383618 L11.0580162,13.2798463 C13.392141,12.4604462 15.0996214,9.90599333 15.0996214,6.88606905 L15.0996214,1.96515657 L15.6129684,1.45180955 L17.1795792,3.0184203 C16.4832521,4.18773864 16.1190464,5.52499756 16.1263155,6.88606905 C16.1263155,9.91476636 17.8450755,12.475987 20.1889759,13.287366 L19.4670816,25.9200141 L15.6129684,29.7741273 Z M23.177568,29.4615571 C22.8730188,29.783151 22.4506605,29.9666324 22.0077483,29.9699351 C21.5648361,29.9731495 21.1397206,29.7956839 20.8306597,29.4783512 C20.5058072,29.1306889 20.3378665,28.6649669 20.3659402,28.1899705 L21.2016331,13.5595803 L22.372706,13.5595803 L23.6212321,28.1385857 C23.6645959,28.6221044 23.5039243,29.1018633 23.177568,29.4615571 L23.177568,29.4615571 Z M29.7741273,15.6129684 L24.0681548,21.3186903 L23.3793474,13.2808489 C24.3095382,12.9437143 25.1326982,12.3644443 25.7638543,11.6026955 L29.7741273,15.6129684 Z" id="Shape"></path>
                        <path d="M21.7854149,11.5385271 C23.4034105,11.5385271 24.865497,10.0543827 25.2622882,8.01026893 L24.2541428,7.81525725 C23.9513483,9.37785748 22.913124,10.511833 21.7854149,10.511833 C20.6577059,10.511833 19.6202335,9.37785748 19.3171883,7.81525725 L18.3090429,8.01026893 C18.7058341,10.0543827 20.1679206,11.5385271 21.7854149,11.5385271 L21.7854149,11.5385271 Z" id="Path"></path>
                    </g>
                </g>
            </g>
            <g id="Group-2-Copy-3">
                <g id="Categories-Copy" transform="translate(0.000000, 50.000000)" fill="#4A4A4A" font-family="AvenirNext-DemiBold, Avenir Next" font-size="12" font-weight="500" line-spacing="13">
                    <text id="Basement">
                        <tspan x="23.492" y="10.0280762">All</tspan>
                    </text>
                </g>
                <g id="Home-Copy" transform="translate(12.000000, 0.000000)">
                    <circle id="Oval" fill="#00D2D7" cx="25" cy="25" r="25"></circle>
                    <g id="263115" stroke-width="1" transform="translate(7.291667, 10.416667)" fill="#FFFFFF">
                        <path d="M36.0705824,11.0703331 L18.7887945,0.15779538 C18.4555432,-0.0525984599 18.0028056,-0.0525984599 17.6696966,0.15779538 L0.387766294,11.0703331 C-0.0343520718,11.3369179 -0.126067398,11.8481025 0.183044583,12.2121464 C0.492156564,12.5761904 1.08495943,12.6551649 1.50700659,12.3887029 L18.2291744,1.82946225 L34.9513422,12.3886415 C35.1199616,12.4951894 35.3159248,12.5465114 35.510179,12.5465114 C35.8018451,12.5465114 36.0896661,12.4307079 36.275233,12.212085 C36.5844161,11.8481025 36.4927008,11.3369179 36.0705824,11.0703331 Z" id="Path"></path>
                        <path d="M29.4336899,12.6225864 C28.9825652,12.6225864 28.6167403,12.9883499 28.6167403,13.439536 L28.6167403,26.4432386 L22.0812665,26.4432386 L22.0812665,19.344995 C22.0812665,17.0924422 20.2486416,15.2599401 17.9962116,15.2599401 C15.7437816,15.2599401 13.9111567,17.092565 13.9111567,19.344995 L13.9111567,26.4433 L7.37562146,26.4433 L7.37562146,13.4395974 C7.37562146,12.9884113 7.00979656,12.6225864 6.55867188,12.6225864 C6.1075472,12.6225864 5.74172231,12.9884113 5.74172231,13.4395974 L5.74172231,27.260311 C5.74172231,27.711497 6.1075472,28.0772605 6.55867188,28.0772605 L14.7281062,28.0772605 C15.1577371,28.0772605 15.5093146,27.7453345 15.5418624,27.3239327 C15.5438276,27.3048339 15.5450558,27.2839542 15.5450558,27.260311 L15.5450558,19.3450564 C15.5450558,17.9934633 16.6446185,16.8939007 17.9962116,16.8939007 C19.3478047,16.8939007 20.4473674,17.9935247 20.4473674,19.3450564 L20.4473674,27.260311 C20.4473674,27.2838313 20.4485956,27.3043426 20.4505607,27.3231958 C20.4827401,27.7449046 20.8344404,28.0772605 21.2643169,28.0772605 L29.4337513,28.0772605 C29.8849374,28.0772605 30.2507009,27.711497 30.2507009,27.260311 L30.2507009,13.4395974 C30.2507009,12.9883499 29.884876,12.6225864 29.4336899,12.6225864 Z" id="Path"></path>
                    </g>
                </g>
            </g>
            <g id="Group-2-Copy-3" opacity="0.494001116" transform="translate(219.000000, 0.000000)">
                <g id="Categories-Copy" transform="translate(0.000000, 50.000000)" fill="#4A4A4A" font-family="AvenirNext-DemiBold, Avenir Next" font-size="12" font-weight="500" line-spacing="13">
                    <text id="Basement">
                        <tspan x="0" y="14.5">Living Room</tspan>
                    </text>
                </g>
                <g id="Living-room-Copy" transform="translate(11.000000, 0.000000)" fill="#FF6D2D">
                    <g id="686640-copy-2" transform="translate(7.291667, 12.500000)">
                        <path d="M31.0294118,9.51839399 L31.0294118,9.4795434 L31.0294118,3.61310466 C31.0294118,0.971264693 29.2647059,0 27.6102941,0 L6.65441176,0 C5,0 3.23529412,0.932414105 3.23529412,3.61310466 L3.23529412,9.4795434 L3.23529412,9.51839399 C1.58088235,9.71264693 0,10.8781646 0,13.5588551 L0,18.1432245 C0,18.9202362 0.588235294,19.5418456 1.32352941,19.5418456 L1.76470588,19.5418456 L1.76470588,23.1549503 C1.76470588,23.931962 2.35294118,24.5535714 3.08823529,24.5535714 L4.33823529,24.5535714 C5.07352941,24.5535714 5.66176471,23.931962 5.66176471,23.1549503 L5.66176471,19.502995 L28.7132353,19.502995 L28.7132353,23.1549503 C28.7132353,23.931962 29.3014706,24.5535714 30.0367647,24.5535714 L31.2867647,24.5535714 C32.0220588,24.5535714 32.6102941,23.931962 32.6102941,23.1549503 L32.6102941,19.502995 L33.0514706,19.502995 C33.7867647,19.502995 34.375,18.8813856 34.375,18.1043739 L34.375,13.5588551 C34.2647059,10.8781646 32.6838235,9.71264693 31.0294118,9.51839399 Z M4.48529412,3.61310466 L4.55882353,3.61310466 C4.55882353,1.78712703 5.69852941,1.39862116 6.65441176,1.39862116 L27.6102941,1.39862116 C28.5661765,1.39862116 29.7058824,1.78712703 29.7058824,3.61310466 L29.7058824,9.4795434 L28.7132353,9.4795434 L28.7132353,6.13839286 C28.7132353,5.3613811 28.125,4.7397717 27.3897059,4.7397717 L19.3014706,4.7397717 C18.5661765,4.7397717 17.9779412,5.3613811 17.9779412,6.13839286 L17.9779412,9.4795434 L16.4338235,9.4795434 L16.4338235,6.13839286 C16.4338235,5.3613811 15.8455882,4.7397717 15.1102941,4.7397717 L7.02205882,4.7397717 C6.28676471,4.7397717 5.69852941,5.3613811 5.69852941,6.13839286 L5.69852941,9.4795434 L4.48529412,9.4795434 L4.48529412,3.61310466 Z M27.3897059,6.13839286 L27.3897059,9.4795434 L19.3014706,9.4795434 L19.3014706,6.13839286 L27.3897059,6.13839286 L27.3897059,6.13839286 Z M15.1838235,6.13839286 L15.1838235,9.4795434 L7.09558824,9.4795434 L7.09558824,6.13839286 L15.1838235,6.13839286 L15.1838235,6.13839286 Z M4.30147059,23.1549503 L3.05147059,23.1549503 L3.05147059,19.502995 L4.30147059,19.502995 L4.30147059,23.1549503 L4.30147059,23.1549503 Z M31.2132353,23.1549503 L29.9632353,23.1549503 L29.9632353,19.502995 L31.2132353,19.502995 L31.2132353,23.1549503 Z M32.9411765,18.1432245 L31.2132353,18.1432245 L29.9632353,18.1432245 L4.30147059,18.1432245 L3.05147059,18.1432245 L1.28676471,18.1432245 L1.28676471,16.0841433 L32.9411765,16.0841433 L32.9411765,18.1432245 Z M32.9411765,14.6855222 L1.28676471,14.6855222 L1.28676471,13.5588551 C1.28676471,11.2278198 2.90441176,10.8781646 3.82352941,10.8781646 L4.52205882,10.8781646 L7.05882353,10.8781646 L15.1470588,10.8781646 L19.3014706,10.8781646 L27.3897059,10.8781646 L29.7058824,10.8781646 L30.4044118,10.8781646 C31.3602941,10.8781646 32.9411765,11.2278198 32.9411765,13.5588551 L32.9411765,14.6855222 Z" id="Shape"></path>
                    </g>
                </g>
            </g>
            <g id="Group-2-Copy-3" opacity="0.503720238" transform="translate(146.000000, 0.000000)">
                <g id="Categories-Copy" transform="translate(0.000000, 50.000000)" fill="#4A4A4A" font-family="AvenirNext-DemiBold, Avenir Next" font-size="12" font-weight="500" line-spacing="13">
                    <text id="Basement">
                        <tspan x="18.278" y="10.0280762">Bath</tspan>
                    </text>
                </g>
                <g id="Bath-Copy" transform="translate(12.000000, 0.000000)" fill="#33A2FF">
                    <g id="1275978">
                        <g id="Group-7">
                            <g transform="translate(9.375000, 9.375000)">
                                <path d="M15.8329014,1.92488253 L15.6950628,1.7875763 C14.0971476,0.194450746 11.5631014,0.0403802949 9.78397373,1.42781252 L9.67487373,1.31897861 C7.9133085,-0.439659536 5.06047757,-0.439659536 3.29864625,1.31897861 C1.17891379,3.42886548 -0.00894528824,6.29925881 -4.1852169e-15,9.29019434 L-4.1852169e-15,33.066184 L1.09003727,34.0275784 L1.09003727,14.6560498 L2.1799725,14.6560498 L2.1799725,34.7406097 L3.26990773,35.5598116 L3.26990773,29.612058 L3.26990773,9.40461629 C3.2643197,7.32745942 4.08975401,5.33412335 5.56260351,3.86925674 C6.10278133,3.33094161 6.97664541,3.33094161 7.51682331,3.86925674 L7.56099545,3.91342895 C6.6839382,5.63774054 7.01682615,7.73033102 8.38563152,9.0972737 L8.52293781,9.23457999 C7.92368632,10.1278692 8.10197159,11.3306297 8.93459061,12.0115732 C9.76747565,12.6925166 10.9814123,12.6286532 11.7381935,11.8641551 L18.4630087,5.13800946 C19.0598654,4.54141897 19.2384167,3.64413831 18.9153744,2.8644727 C18.5923321,2.08480715 17.8315595,1.57656096 16.9877644,1.57682711 C16.7138614,1.57594008 16.328907,1.69195855 15.8329014,1.92488253 Z M1.09003727,13.5661146 L1.09003727,12.4761794 L2.1799725,12.4761794 L2.1799725,13.5661146 L1.09003727,13.5661146 Z M4.79198524,3.09890462 C3.11424066,4.76760179 2.17358616,7.03821146 2.1799725,9.40461629 L2.1799725,11.3862441 L1.08999876,11.3862441 L1.08999876,9.29019434 C1.08258654,6.58797461 2.15655592,3.99512089 4.07272377,2.08959687 C5.40800089,0.757512987 7.56951057,0.757512987 8.9047877,2.08959687 L8.98781011,2.17288543 L8.38563152,2.77559618 C8.31085815,2.85036955 8.24326936,2.92940048 8.17514841,3.00789925 C7.2009656,2.13855881 5.71800443,2.17820731 4.79198524,3.09890462 Z M8.16529083,5.93656801 C8.16290796,5.03928728 8.51947856,4.17846203 9.15545148,3.54568222 L10.1434714,2.55766234 C11.4651775,1.23994768 13.6035367,1.23994768 14.9252429,2.55766234 L15.0340767,2.66676233 L9.26455147,8.43575543 L9.15545148,8.32665543 C8.51947856,7.69414177 8.16290796,6.83331644 8.16529083,5.93656801 Z M17.6923905,4.36792343 L10.9654465,11.0946013 C10.68019,11.3790595 10.251773,11.4642107 9.87950267,11.3098742 C9.50723236,11.1555376 9.26454696,10.7923146 9.26454696,10.389443 C9.26375316,10.1249421 9.36886168,9.87135121 9.5561943,9.68481691 L16.2831383,2.95813901 C16.5683948,2.67368083 16.9968116,2.58852964 17.369082,2.74286617 C17.7410862,2.89720271 17.9837671,3.26042573 17.9840353,3.66329733 C17.9845654,3.92779818 17.8797231,4.18138905 17.6923905,4.36792343 Z" id="Shape"></path>
                                <g id="Group-4" transform="translate(12.694282, 5.551259)">
                                    <polygon id="Path" points="6.53907913 0.770884346 7.30996355 9.32587341e-15 9.489834 2.17987045 8.71921573 2.9507548"></polygon>
                                    <polygon id="Path" points="9.80888481 4.04042395 10.5797692 3.26980568 11.6694383 4.35947476 10.89882 5.13035917"></polygon>
                                    <polygon id="Path" points="11.9890214 6.22056048 12.7596397 5.44967613 14.9395101 7.62954659 14.1688919 8.40043093"></polygon>
                                    <polygon id="Path" points="4.90470852 2.40525496 5.67532679 1.63463669 6.76499593 2.72457192 5.99437767 3.49519018"></polygon>
                                    <polygon id="Path" points="7.08457897 4.58539156 7.85519724 3.81450714 10.0353338 5.99464375 9.26444943 6.76526201"></polygon>
                                    <polygon id="Path" points="10.3543847 7.85493109 11.1250029 7.08431283 12.2149381 8.17424805 11.4440538 8.94486632"></polygon>
                                    <polygon id="Path" points="3.26980568 3.49572241 4.04069003 2.72510415 6.22056048 4.9049746 5.44967613 5.67559287"></polygon>
                                    <polygon id="Path" points="6.53961136 6.76552809 7.31022963 5.99464375 8.40016485 7.08457897 7.62928051 7.85519724"></polygon>
                                    <polygon id="Path" points="8.71894958 8.94513247 9.48956785 8.1745142 13.3043411 11.9890213 12.5334568 12.7596396"></polygon>
                                    <polygon id="Path" points="12.5337229 10.0350677 13.3046073 9.26418328 15.4844777 11.4443199 14.7138595 12.2149381"></polygon>
                                    <polygon id="Path" points="1.63463676 5.13035917 2.40552111 4.35974091 3.49519025 5.44940998 2.72457199 6.22002825"></polygon>
                                    <polygon id="Path" points="3.81477329 7.31022963 4.58539156 6.53961136 6.76526201 8.71948181 5.99464375 9.49010008"></polygon>
                                    <polygon id="Path" points="7.08457897 10.5800353 7.85519724 9.80941704 8.94486639 10.8990861 8.17424812 11.6697044"></polygon>
                                    <polygon id="Path" points="9.26444943 12.7599058 10.0353338 11.9892875 12.2152042 14.1691579 11.4443199 14.9397762"></polygon>
                                    <polygon id="Path" points="-3.84581256e-13 6.76499586 0.770884346 5.9943776 2.9507548 8.17424805 2.17987045 8.94513247"></polygon>
                                    <polygon id="Path" points="3.2695396 10.0348015 4.04015787 9.26418328 6.22002832 11.4440537 5.44941005 12.2149381"></polygon>
                                    <polygon id="Path" points="6.53934528 13.3046072 7.30996355 12.533989 8.39963262 13.6236581 7.62901436 14.3942764"></polygon>
                                    <polygon id="Path" points="8.71921573 15.4844777 9.489834 14.7138594 11.6699705 16.8937299 10.8990862 17.6646143"></polygon>
                                    <polygon id="Path" points="11.9890214 18.7542834 12.7596397 17.9836651 13.8495749 19.0733342 13.0786905 19.8439525"></polygon>
                                    <polygon id="Path" points="12.5342551 16.0297114 13.3048734 15.2590932 14.3948086 16.3487623 13.6239243 17.1193805"></polygon>
                                    <polygon id="Path" points="13.6241903 13.8501071 14.3948086 13.0792227 15.4844777 14.1691579 14.7138595 14.9397762"></polygon>
                                    <polygon id="Path" points="15.8035286 13.3046072 16.574413 12.533989 17.6640821 13.6239242 16.8934638 14.3945425"></polygon>
                                    <polygon id="Path" points="15.2588271 9.49010008 16.0294454 8.71948181 17.1191144 9.80915089 16.3484962 10.5800353"></polygon>
                                </g>
                            </g>
                        </g>
                    </g>
                </g>
            </g>
            <g id="Group-5" opacity="0.49609375" transform="translate(290.000000, 0.000000)">
                <g id="Group-2-Copy-3">
                    <g id="Categories" transform="translate(0.000000, 50.000000)" fill="#4A4A4A" font-family="AvenirNext-Medium, Avenir Next" font-size="12" font-weight="400" line-spacing="13">
                        <text id="Basement-Copy">
                            <tspan x="3.788" y="10.1119385">Basement</tspan>
                        </text>
                    </g>
                    <g id="Hallway-Copy" transform="translate(12.000000, 0.000000)" fill="#D6049D">
                        <path d="M37.0967742,11.4583333 L34.0725806,11.4583333 C32.6829637,11.4583333 31.5524194,12.5888777 31.5524194,13.9784946 L31.5524194,15.4905914 L9.375,15.4905914 L9.375,37.6680108 L37.0967742,37.6680108 C39.0418347,37.6680108 40.625,36.0848454 40.625,34.1397849 L40.625,14.9865591 C40.625,13.0414987 39.0418347,11.4583333 37.0967742,11.4583333 Z M16.4314516,27.2012769 L12.875,25.0672043 L16.4314516,22.9331317 L16.4314516,27.2012769 Z M16.4314516,33.249664 L12.875,31.1155914 L16.4314516,28.9815188 L16.4314516,33.249664 Z M16.4314516,21.1528898 L12.3991935,18.7335349 L12.3991935,18.5147849 L16.4314516,18.5147849 L16.4314516,21.1528898 Z M12.3991935,19.9089382 L15.9556452,22.0430108 L12.3991935,24.1770833 L12.3991935,19.9089382 Z M12.3991935,25.9573253 L15.9556452,28.0913978 L12.3991935,30.2254704 L12.3991935,25.9573253 Z M12.3991935,32.0057124 L16.4314516,34.4250672 L16.4314516,34.6438172 L12.3991935,34.6438172 L12.3991935,32.0057124 Z M17.4395161,18.5147849 L18.4475806,18.5147849 L18.4475806,34.6438172 L17.4395161,34.6438172 L17.4395161,18.5147849 Z M24.4959677,24.9144825 L21.9758065,21.1342406 L19.4556452,24.9144825 L19.4556452,22.6992608 L21.9758065,18.9190188 L24.4959677,22.6992608 L24.4959677,24.9144825 Z M24.3941532,26.5793011 L21.9758065,30.2068212 L19.5574597,26.5793011 L21.9758065,22.9517809 L24.3941532,26.5793011 Z M19.4556452,28.2441196 L21.9758065,32.0243616 L24.4959677,28.2441196 L24.4959677,30.4593414 L21.9758065,34.2395833 L19.4556452,30.4593414 L19.4556452,28.2441196 Z M24.4959677,20.8822245 L22.9173387,18.5147849 L24.4959677,18.5147849 L24.4959677,20.8822245 Z M19.4556452,20.8822245 L19.4556452,18.5147849 L21.0342742,18.5147849 L19.4556452,20.8822245 Z M19.4556452,32.2763777 L21.0342742,34.6438172 L19.4556452,34.6438172 L19.4556452,32.2763777 Z M24.4959677,32.2763777 L24.4959677,34.6438172 L22.9173387,34.6438172 L24.4959677,32.2763777 Z M25.5040323,18.5147849 L26.5120968,18.5147849 L26.5120968,34.6438172 L25.5040323,34.6438172 L25.5040323,18.5147849 Z M27.5201613,22.9331317 L31.0766129,25.0672043 L27.5201613,27.2012769 L27.5201613,22.9331317 Z M27.5201613,28.9815188 L31.0766129,31.1155914 L27.5201613,33.249664 L27.5201613,28.9815188 Z M31.5524194,30.2254704 L27.9959677,28.0913978 L31.5524194,25.9573253 L31.5524194,30.2254704 Z M31.5524194,24.1770833 L27.9959677,22.0430108 L31.5524194,19.9089382 L31.5524194,24.1770833 Z M31.5524194,18.7335349 L27.5201613,21.1528898 L27.5201613,18.5147849 L31.5524194,18.5147849 L31.5524194,18.7335349 Z M27.5201613,34.4250672 L31.5524194,32.0057124 L31.5524194,33.1317204 C31.5524194,33.7012769 31.749496,34.2214382 32.0695565,34.6438172 L27.5201613,34.6438172 L27.5201613,34.4250672 Z M32.5604839,33.1317204 C32.5604839,32.2980511 33.2389113,31.6196237 34.0725806,31.6196237 L35.5846774,31.6196237 L35.5846774,34.6438172 L35.0806452,34.6438172 L34.0725806,34.6438172 C33.2389113,34.6438172 32.5604839,33.9653898 32.5604839,33.1317204 Z M37.0967742,36.6599462 L10.3830645,36.6599462 L10.3830645,16.4986559 L31.5524194,16.4986559 L31.5524194,17.5067204 L11.391129,17.5067204 L11.391129,35.6518817 L34.0725806,35.6518817 L35.0806452,35.6518817 L36.5927419,35.6518817 L36.5927419,31.6196237 L37.0967742,31.6196237 C38.4863911,31.6196237 39.6169355,32.750168 39.6169355,34.1397849 C39.6169355,35.5294019 38.4863911,36.6599462 37.0967742,36.6599462 Z M37.0967742,30.6115591 L34.0725806,30.6115591 C33.5030242,30.6115591 32.9828629,30.8086358 32.5604839,31.1286962 L32.5604839,13.9784946 C32.5604839,13.1448253 33.2389113,12.4663978 34.0725806,12.4663978 L37.0967742,12.4663978 C38.4863911,12.4663978 39.6169355,13.5969422 39.6169355,14.9865591 L39.6169355,31.6755712 C38.9758065,31.0198253 38.0836694,30.6115591 37.0967742,30.6115591 Z" id="Shape"></path>
                    </g>
                </g>
            </g>
        </g>
        <line x1="0" y1="152" x2="375" y2="152" id="Line-5" stroke="#D8D8D8" stroke-linecap="square"></line>
        <g id="Bottom-bar-tasks2-Copy" transform="translate(0.000000, 611.000000)">
            <g id="Group-9">
                <rect id="Rectangle" fill="#FFFFFF" x="0" y="0" width="375" height="56"></rect>
                <g id="Tasks" transform="translate(85.000000, 1.000000)">
                    <rect id="Rectangle" x="0" y="0" width="60" height="55"></rect>
                    <rect id="Rectangle" stroke="#979797" fill="#D8D8D8" style="mix-blend-mode: color;" x="4" y="2" width="53" height="50"></rect>
                    <g id="Bar3" transform="translate(0.000000, 35.000000)" fill="#000000" font-family="AvenirNext-DemiBold, Avenir Next" font-size="11.5" font-weight="500">
                        <text id="Karma">
                            <tspan x="15.92975" y="12">Tasks</tspan>
                        </text>
                    </g>
                    <circle id="Oval" fill="#B0EDFF" cx="32" cy="21" r="14"></circle>
                    <g id="Check-reg" transform="translate(21.000000, 13.000000)" fill="#FFFFFF">
                        <g id="Checkmark" transform="translate(0.000000, 0.000000)">
                            <path d="M5.10714286,5.80571145 C5.75804988,5.80571145 6.28571429,6.33337585 6.28571429,6.98428288 L6.28571429,14.8414257 C6.28571429,15.4923328 5.75804988,16.0199972 5.10714286,16.0199972 C4.45623583,16.0199972 3.92857143,15.4923328 3.92857143,14.8414257 L3.92857143,6.98428288 C3.92857143,6.33337585 4.45623583,5.80571145 5.10714286,5.80571145 Z" id="Rectangle" transform="translate(5.107143, 10.912854) rotate(-45.000000) translate(-5.107143, -10.912854) "></path>
                            <path d="M13.7470096,-1.57142857 C14.3979167,-1.57142857 14.9255811,-1.04376417 14.9255811,-0.392857143 L14.9255811,16.1071429 C14.9255811,16.7580499 14.3979167,17.2857143 13.7470096,17.2857143 C13.0961026,17.2857143 12.5684382,16.7580499 12.5684382,16.1071429 L12.5684382,-0.392857143 C12.5684382,-1.04376417 13.0961026,-1.57142857 13.7470096,-1.57142857 Z" id="Rectangle-Copy-4" transform="translate(13.747010, 7.857143) rotate(45.000000) translate(-13.747010, -7.857143) "></path>
                        </g>
                    </g>
                </g>
                <g id="Inbox" transform="translate(230.000000, 1.000000)">
                    <rect id="Rectangle" x="0" y="0" width="72" height="55"></rect>
                    <g id="Bar" transform="translate(0.000000, 35.000000)" fill="#9B9B9B" font-family="AvenirNext-Medium, Avenir Next" font-size="11.5" font-weight="400">
                        <text id="Karma">
                            <tspan x="21.05" y="12">Inbox</tspan>
                        </text>
                    </g>
                    <g id="Group-5" transform="translate(26.000000, 9.000000)" stroke="#979797">
                        <path d="M1.31175232,13.6119972 C0.931227726,13.8494649 0.7,14.2663221 0.7,14.714864 L0.7,15.7222222 C0.7,16.4401924 1.28202983,17.0222222 2,17.0222222 L17.25,17.0222222 C17.9679702,17.0222222 18.55,16.4401924 18.55,15.7222222 L18.55,14.7266408 C18.55,14.273943 18.3145004,13.853844 17.9283126,13.6176359 L17.2776805,13.2196828 C16.0980257,12.4981579 15.448594,11.1540357 15.6164444,9.78144002 C16.3742035,3.58503568 14.4190726,0.7 9.625,0.7 C5.42125052,0.7 3.47227655,3.61684182 3.72627892,9.84629169 C3.78178841,11.2080743 3.1019401,12.4948246 1.94570395,13.2163776 L1.31175232,13.6119972 Z" id="Rectangle" stroke-width="1.4"></path>
                        <path d="M9.625,21.7097222 C10.5914983,21.7097222 11.4664983,20.9712963 12.25,19.4944444 L7,19.4944444 C7.78350169,20.9712963 8.65850169,21.7097222 9.625,21.7097222 Z" id="Oval" stroke-width="1.3"></path>
                    </g>
                </g>
                <g id="Groceries" transform="translate(0.000000, 1.000000)">
                    <rect id="Rectangle" x="0" y="0" width="88" height="55"></rect>
                    <g id="Bar" transform="translate(0.000000, 35.000000)" fill="#9B9B9B" font-family="AvenirNext-Medium, Avenir Next" font-size="11.5" font-weight="400">
                        <text id="Karma">
                            <tspan x="23.2135" y="12">Settings</tspan>
                        </text>
                    </g>
                    <g id="22338" transform="translate(30.000000, 9.000000)" fill="#9B9B9B" fill-rule="nonzero" stroke="#9B9B9B" stroke-width="0.4">
                        <path d="M12.8212913,23.0598337 L10.3916831,23.0598337 C10.0261368,23.0598337 9.89861285,23.060637 8.65291431,19.9194685 L7.69090309,19.5214716 C5.0696142,20.7318733 4.7593171,20.7318733 4.65558406,20.7318733 L4.45499593,20.7318733 L4.28394916,20.5823376 L2.56164239,18.8672097 C2.29971646,18.6010751 2.20895004,18.5086912 3.55669033,15.4086076 L3.16442157,14.4639962 C0,13.3098282 0,13.1759002 0,12.7955768 L0,10.371101 C0,9.99123658 0,9.87130961 3.15393551,8.63003675 L3.54620427,7.68335963 C2.12055145,4.63044353 2.21864683,4.53564958 2.49985358,4.26618687 L4.35205216,2.41793434 L4.5820689,2.41058953 C4.8616971,2.41058953 5.89914029,2.79584776 7.66823968,3.55603557 L8.62743206,3.15964537 C9.78225144,0.00619718327 9.92398234,0.00665623386 10.2882883,0.00665623386 L12.7178965,0.00665623386 C13.0818642,0.00665623386 13.2098392,0.00711528449 14.4555378,3.1490872 L15.4191275,3.54421502 C18.0363573,2.33541999 18.3507135,2.33541999 18.4552358,2.33541999 L18.6545837,2.33541999 L18.8256304,2.48243095 L20.5479372,4.19468973 C20.8098632,4.46369339 20.8993893,4.55573304 19.551649,7.65707898 L19.9450453,8.60708422 C23.113526,9.75631743 23.113526,9.8897864 23.113526,10.2709132 L23.113526,12.6925199 C23.113526,13.0634328 23.113526,13.1940327 19.9555313,14.4359941 L19.5657432,15.3834746 C20.9841798,18.423193 20.8904818,18.518446 20.6249477,18.7907778 L18.758655,20.6505066 L18.527398,20.657048 C18.24901,20.657048 17.2139347,20.2713308 15.4473159,19.5103396 L14.4824858,19.9070741 C13.3245093,23.0598337 13.1929262,23.0598337 12.8212913,23.0598337 Z M10.6442505,22.0588738 L12.5606057,22.0588738 C12.7804746,21.6025775 13.2558426,20.3929792 13.636385,19.351049 L13.7130572,19.1436729 L15.4579147,18.4265211 L15.6455362,18.5074288 C16.6854599,18.9587903 17.9145837,19.4590407 18.3935598,19.6127079 L19.7401725,18.2721653 C19.5691258,17.7895884 19.0505733,16.6087955 18.5828726,15.6127704 L18.4884981,15.4103291 L19.2104575,13.6561819 L19.4069865,13.5789466 C20.4573963,13.1674078 21.6744555,12.6593535 22.1291896,12.4276477 L22.1291896,10.5443926 C21.6691561,10.3242778 20.4569453,9.85478379 19.4122859,9.47778847 L19.2077514,9.40342227 L18.4810563,7.64755368 L18.5677636,7.4495881 C19.0148305,6.42280665 19.5120726,5.2116016 19.671393,4.7236308 L18.3211722,3.38021919 C17.8853806,3.535034 16.6650516,4.06730319 15.6357266,4.5454044 L15.444046,4.63491927 L13.6991886,3.91902984 L13.621276,3.72152332 C13.2088244,2.67374029 12.6963607,1.45886285 12.4652164,1.00910801 L10.5502142,1.00910801 C10.329105,1.46414193 9.85531558,2.67419934 9.47567519,3.71578518 L9.40024323,3.92201367 L7.66023419,4.64157551 L7.47261269,4.5598645 C6.43032112,4.10930632 5.19871674,3.60985925 4.71816214,3.45630682 L3.37391721,4.79765271 C3.54259616,5.27942633 4.06272717,6.45941593 4.52884934,7.455441 L4.62446415,7.65834137 L3.89889661,9.41168518 L3.70360789,9.4884614 C2.65488937,9.89954122 1.43985973,10.4072512 0.985012893,10.6380389 L0.985012893,12.523704 C1.44504639,12.7446222 2.65601691,13.2153786 3.69999978,13.5939806 L3.90295573,13.6691501 L4.62976355,15.4191658 L4.54305626,15.6166723 C4.09598939,16.6426504 3.59919832,17.8522488 3.43942689,18.3393015 L4.79246657,19.6868446 C5.22701782,19.5307674 6.44576832,18.9984982 7.47633355,18.5199379 L7.66925446,18.429964 L9.41050378,19.1503292 L9.48841632,19.3478357 C9.9021082,20.395963 10.4129934,21.6087747 10.6442505,22.0588738 Z M11.5566502,15.5678982 C9.32875763,15.5678982 7.51455692,13.7578616 7.51455692,11.5329581 C7.51455692,9.30977595 9.32841937,7.50088701 11.5566502,7.50088701 C13.7833025,7.50088701 15.5931059,9.31012024 15.5931059,11.5329581 C15.5931059,13.7578616 13.7833025,15.5678982 11.5566502,15.5678982 Z M11.5566502,8.50276497 C9.87031177,8.50276497 8.49956981,9.86224336 8.49956981,11.5330728 C8.49956981,13.2050499 9.86997351,14.5657907 11.5566502,14.5657907 C13.2401699,14.5657907 14.6097843,13.2050499 14.6097843,11.5330728 C14.6093333,9.86224336 13.2401699,8.50276497 11.5566502,8.50276497 Z" id="Shape"></path>
                    </g>
                </g>
                <g id="Calendar" transform="translate(148.000000, 1.000000)">
                    <rect id="Rectangle" x="0" y="0" width="82" height="55"></rect>
                    <g id="Bar" transform="translate(0.000000, 35.000000)" fill="#9B9B9B" font-family="AvenirNext-Medium, Avenir Next" font-size="11.5" font-weight="400">
                        <text id="Karma">
                            <tspan x="16.9305" y="12">Calendar</tspan>
                        </text>
                    </g>
                    <g id="Group-7" transform="translate(27.000000, 9.000000)">
                        <rect id="Rectangle" stroke="#979797" stroke-width="1.3" x="1.57857143" y="2.56304348" width="22.8428571" height="18.7869565" rx="2"></rect>
                        <line x1="2.32142857" y1="7.17391304" x2="24.6071429" y2="7.17391304" id="Line-4" stroke="#979797" stroke-width="1.3" fill="#979797" stroke-linecap="square"></line>
                        <rect id="Rectangle" stroke="#979797" fill="#979797" x="6.07142857" y="0.5" width="1.78571429" height="2.82608696" rx="0.892857143"></rect>
                        <rect id="Rectangle-Copy-3" stroke="#979797" fill="#979797" x="18.1428571" y="0.5" width="1.78571429" height="2.82608696" rx="0.892857143"></rect>
                        <text id="31" font-family="Montserrat-Bold, Montserrat" font-size="9" font-weight="bold" letter-spacing="1.3" fill="#979797">
                            <tspan x="7.272" y="17.5">31</tspan>
                        </text>
                    </g>
                </g>
                <line x1="0" y1="1" x2="375" y2="1" id="Line-3" stroke="#979797" opacity="0.25" stroke-linecap="square"></line>
            </g>
            <g id="Group-3-Copy-4" transform="translate(302.000000, 1.000000)">
                <rect id="Rectangle" x="0" y="0" width="73" height="55"></rect>
                <g id="Bar" transform="translate(0.000000, 35.000000)" fill="#9B9B9B" font-family="AvenirNext-Medium, Avenir Next" font-size="11.5" font-weight="400">
                    <text id="Karma">
                        <tspan x="11.17125" y="12">Chat Wall</tspan>
                    </text>
                </g>
            </g>
            <g id="Group" transform="translate(322.000000, 10.000000)" stroke="#979797">
                <path d="M9.75549561,16.5277778 C15.1249307,16.5277778 19.4777178,12.8279087 19.4777178,8.26388889 C19.4777178,3.69986908 15.1249307,0 9.75549561,0 C4.38606054,0 0.0332733841,3.69986908 0.0332733841,8.26388889 C0.0332733841,10.4171613 0.634552444,11.774928 2.2219669,13.2457051 C2.38244509,13.394392 2.54315622,15.5404775 1.86122898,16.5277778 C1.08578317,17.6504751 0.522026277,17.8568678 0.733357156,18 C0.954067587,18.1494849 2.56148676,18.2732582 3.77831936,17.4317599 C4.82321975,16.7091611 5.66986678,15.8074864 5.88257109,15.9088073 C7.28627464,16.5774563 8.03195226,16.5277778 9.75549561,16.5277778 Z" id="Oval" stroke-width="1.4"></path>
                <path d="M24.1723919,21.5277778 C25.6924207,21.5277778 27.9774924,21.1425161 29.9806665,19.814552 C30.5557706,19.4332983 31.1691373,18.9120203 31.7303352,18.3427624 C32.0833511,17.9846764 32.1260138,17.9140955 32.4602719,17.4603297 C32.8712562,16.9024057 33.1993137,16.2702449 33.4444444,15.5638473 C33.0405358,15.3800025 32.649764,15.1606545 32.2721292,14.9058033 C32.0912623,14.7837431 31.6387208,14.4886269 31.1691373,14.0947292 C30.5175159,13.5481338 29.8453889,12.7429664 29.4666599,12.1517761 C29.22537,11.7751263 29.097086,11.5718331 28.9542263,11.2478952 C28.5669767,10.3697972 28.3179277,9.36809379 28.3179277,8.5142787 C28.3179277,8.18779329 28.3203196,7.69888622 28.4041639,7.1870332 C28.4530806,6.88840608 28.5581725,6.49788586 28.7194396,6.01547254 C28.2148499,5.79652081 27.8242731,5.64174668 27.5477093,5.55115015 C27.04217,5.38554605 26.3532496,5.22133674 26.0644895,5.16403624 C25.3066504,5.01365342 24.6201337,5 24.0734233,5 C18.7039882,5 14.3512011,8.69986908 14.3512011,13.2638889 C14.3512011,15.4171613 14.9524801,16.774928 16.5398946,18.2457051 C16.7003728,18.394392 16.8610839,20.5404775 16.1791566,21.5277778 C15.4037108,22.6504751 14.8399539,22.8568678 15.0512848,23 C15.2719953,23.1494849 16.8794144,23.2732582 18.096247,22.4317599 C19.1411474,21.7091611 19.9877944,20.8074864 20.2004988,20.9088073 C21.6042023,21.5774563 22.4488485,21.5277778 24.1723919,21.5277778 Z" id="Oval-Copy-2" stroke-width="1.4" transform="translate(23.897823, 14.053892) scale(-1, 1) translate(-23.897823, -14.053892) "></path>
                <g id="Group-2" transform="translate(18.000000, 11.000000)" fill="#D8D8D8" stroke-width="1.4">
                    <rect id="Rectangle" x="3.7" y="0.7" width="8.6" height="1" rx="0.5"></rect>
                    <rect id="Rectangle-Copy-2" x="0.7" y="3.7" width="11.6" height="1" rx="0.5"></rect>
                </g>
                <g id="Group-2" transform="translate(4.000000, 6.000000)" stroke-width="1.4">
                    <circle id="Oval" fill="#979797" cx="0.7" cy="0.7" r="1"></circle>
                    <rect id="Rectangle" fill="#D8D8D8" x="3.7" y="0.7" width="8.6" height="1" rx="0.5"></rect>
                    <rect id="Rectangle-Copy-2" fill="#D8D8D8" x="0.7" y="3.7" width="11.6" height="1" rx="0.5"></rect>
                </g>
            </g>
        </g>
        <g id="Task-type" transform="translate(0.000000, 213.000000)">
            <g id="Group-25">
                <line x1="0" y1="0.5" x2="375" y2="0.5" id="Line-5" stroke="#D8D8D8" stroke-linecap="square"></line>
                <line x1="0" y1="35.5" x2="375" y2="35.5" id="Line-5-Copy-8" stroke="#D8D8D8" stroke-linecap="square"></line>
                <text id="Scheduled" font-family="AvenirNext-Medium, Avenir Next" font-size="16" font-weight="400" fill="#2E374E">
                    <tspan x="19" y="23.5">Scheduled</tspan>
                </text>
                <text id="4" font-family="AvenirNext-Medium, Avenir Next" font-size="16" font-weight="400" fill="#979797">
                    <tspan x="333" y="22.5">4</tspan>
                </text>
                <g id="Group-12" transform="translate(350.000000, 14.500000)" fill="#D8D8D8" stroke="#979797">
                    <rect id="Rectangle" transform="translate(8.553553, 3.696447) rotate(45.000000) translate(-8.553553, -3.696447) " x="8.05355339" y="0.696446609" width="1" height="6" rx="0.5"></rect>
                    <path d="M4.5,0.5 L3.5,0.5 L3.5,7 C3.5,7.27614237 3.72385763,7.5 4,7.5 C4.27614237,7.5 4.5,7.27614237 4.5,7 L4.5,0.5 Z" id="Rectangle-Copy-4" transform="translate(4.000000, 4.000000) scale(1, -1) rotate(45.000000) translate(-4.000000, -4.000000) "></path>
                </g>
            </g>
        </g>
        <g id="Task-type" transform="translate(0.000000, 504.000000)">
            <g id="Group-25">
                <line x1="0" y1="0.5" x2="375" y2="0.5" id="Line-5" stroke="#D8D8D8" stroke-linecap="square"></line>
                <line x1="0" y1="35.5" x2="375" y2="35.5" id="Line-5-Copy-8" stroke="#D8D8D8" stroke-linecap="square"></line>
                <text id="Scheduled" font-family="AvenirNext-Medium, Avenir Next" font-size="16" font-weight="400" fill="#2E374E">
                    <tspan x="19" y="23.5">Unscheduled</tspan>
                </text>
                <text id="4" font-family="AvenirNext-Medium, Avenir Next" font-size="16" font-weight="400" fill="#979797">
                    <tspan x="333" y="22.5">1</tspan>
                </text>
                <g id="Group-12" transform="translate(350.000000, 14.500000)" fill="#D8D8D8" stroke="#979797">
                    <rect id="Rectangle" transform="translate(8.553553, 3.696447) rotate(45.000000) translate(-8.553553, -3.696447) " x="8.05355339" y="0.696446609" width="1" height="6" rx="0.5"></rect>
                    <path d="M4.5,0.5 L3.5,0.5 L3.5,7 C3.5,7.27614237 3.72385763,7.5 4,7.5 C4.27614237,7.5 4.5,7.27614237 4.5,7 L4.5,0.5 Z" id="Rectangle-Copy-4" transform="translate(4.000000, 4.000000) scale(1, -1) rotate(45.000000) translate(-4.000000, -4.000000) "></path>
                </g>
            </g>
        </g>
        <g id="Group-14" transform="translate(0.000000, 249.000000)">
            <rect id="Rectangle" fill="#FFFFFF" x="374" y="0" width="375" height="51"></rect>
            <rect id="Rectangle" fill="#28CF5F" x="0" y="0" width="375" height="51"></rect>
            <g id="Checkmark" transform="translate(13.000000, 12.000000)">
                <ellipse id="Oval" stroke="#FFFFFF" fill="#FFFFFF" cx="13.5" cy="14" rx="13.5" ry="14"></ellipse>
                <g id="Check-reg" transform="translate(4.000000, 7.259259)" fill="#28CF5F">
                    <g id="Checkmark" transform="translate(0.000000, 0.000000)">
                        <path d="M4.54589212,5.456537 C5.09180567,5.44030357 5.54751584,5.86969415 5.56374927,6.4156077 C5.56433183,6.43519885 5.56433183,6.45480299 5.56374927,6.47439414 L5.35578336,13.4680743 C5.33826293,14.0572685 4.86473058,14.5308008 4.27553645,14.5483212 C3.7296229,14.5645547 3.27391273,14.1351641 3.25767931,13.5892505 C3.25709674,13.5696594 3.25709674,13.5500553 3.25767931,13.5304641 L3.46564521,6.53678391 C3.48316564,5.94758978 3.95669799,5.47405743 4.54589212,5.456537 Z" id="Rectangle" transform="translate(4.410714, 10.002429) rotate(-45.000000) translate(-4.410714, -10.002429) "></path>
                        <path d="M11.6228583,-1.19077014 C12.2120525,-1.1732497 12.6855848,-0.699717357 12.7031052,-0.110523222 L13.1398336,14.5762052 C13.1560671,15.1221187 12.7266765,15.5778289 12.1807629,15.5940623 C12.1611718,15.5946449 12.1415676,15.5946449 12.1219765,15.5940623 C11.5327824,15.5765419 11.05925,15.1030095 11.0417296,14.5138154 L10.6050012,-0.172912992 C10.5887678,-0.718826542 11.0181583,-1.17453671 11.5640719,-1.19077014 C11.583663,-1.1913527 11.6032672,-1.1913527 11.6228583,-1.19077014 Z" id="Rectangle-Copy-4" transform="translate(11.872417, 7.201646) rotate(45.000000) translate(-11.872417, -7.201646) "></path>
                    </g>
                </g>
            </g>
            <text id="Done!-Great-job." font-family="AvenirNext-Medium, Avenir Next" font-size="16" font-weight="400">
                <tspan x="56" y="32" fill="#FFFFFF">Done! </tspan>
                <tspan x="105.76" y="32" fill="#F7F7F7">Great job.</tspan>
            </text>
        </g>
        <g id="Task-Color" transform="translate(0.000000, 453.000000)">
            <g id="Group-14" stroke-width="1">
                <g id="Checkmark" transform="translate(12.000000, 13.000000)">
                    <circle id="Oval" stroke="#DBDBDB" cx="13.5" cy="13.5" r="13.5"></circle>
                    <g id="Check-reg" opacity="0.305989583" transform="translate(4.000000, 7.000000)" fill="#000000" stroke="#000000">
                        <g id="Checkmark" transform="translate(0.000000, 0.000000)">
                            <path d="M4.46808155,5.68286452 C4.1671694,5.68634327 3.92408026,5.9294324 3.92060151,6.23034455 L3.84123643,13.0954239 C3.84119133,13.1012766 3.84119133,13.1012766 3.84123643,13.1071293 C3.84446879,13.3867278 4.07374851,13.6107669 4.35334702,13.6075345 C4.65425917,13.6040558 4.89734831,13.3609666 4.90082706,13.0600545 L4.98019214,6.19497511 C4.98023725,6.18912241 4.98023725,6.18912241 4.98019214,6.18326972 C4.97695979,5.9036712 4.74768006,5.67963216 4.46808155,5.68286452 Z" id="Rectangle" transform="translate(4.410714, 9.645200) rotate(-45.000000) translate(-4.410714, -9.645200) "></path>
                            <path d="M11.7713994,-0.793684203 C11.7655467,-0.793729309 11.7655467,-0.793729309 11.759694,-0.793684203 C11.4800955,-0.79045185 11.2560564,-0.561172128 11.2592888,-0.281573611 L11.4259554,14.1350931 C11.4294342,14.4360052 11.6725233,14.6790943 11.9734355,14.6825731 C11.9792882,14.6826182 11.9792882,14.6826182 11.9851409,14.6825731 C12.2647394,14.6793407 12.4887784,14.450061 12.4855461,14.1704625 L12.3188794,-0.246204166 C12.3154006,-0.547116316 12.0723115,-0.79020545 11.7713994,-0.793684203 Z" id="Rectangle-Copy-4" transform="translate(11.872417, 6.944444) rotate(45.000000) translate(-11.872417, -6.944444) "></path>
                        </g>
                    </g>
                </g>
                <text id="Sweep-floor" font-family="AvenirNext-Medium, Avenir Next" font-size="16" font-weight="400" fill="#4A4A4A">
                    <tspan x="55" y="32">Wipe down counters</tspan>
                </text>
                <rect id="Rectangle" stroke="#D8D8D8" x="0.5" y="0.5" width="374" height="1"></rect>
                <rect id="Rectangle" stroke="#D8D8D8" x="0.5" y="51.5" width="374" height="1"></rect>
            </g>
            <g id="Group-4" stroke-width="1" transform="translate(252.000000, 17.000000)" fill="#9B9B9B" font-family="AvenirNext-Medium, Avenir Next" font-size="14" font-weight="400">
                <text id="Today">
                    <tspan x="62.304" y="14">Today</tspan>
                </text>
            </g>
            <g id="Priority/Yellow" transform="translate(368.000000, 1.000000)" fill="#FFDCA2">
                <rect id="Rectangle-Copy" x="0" y="0" width="7" height="50"></rect>
            </g>
        </g>
        <g id="Group-4" transform="translate(20.000000, 164.000000)">
            <g id="Group-3">
                <rect id="Rectangle" stroke="#D8D8D8" x="0.5" y="0.5" width="335" height="36" rx="6"></rect>
                <g id="Group-2" transform="translate(20.000000, 18.500000) scale(-1, 1) translate(-20.000000, -18.500000) translate(12.000000, 10.000000)" stroke="#979797">
                    <ellipse id="Oval" stroke-width="1.7" cx="5.64705882" cy="5.66666667" rx="4.79705882" ry="4.81666667"></ellipse>
                    <path d="M11.1204873,15.8272232 L12.9489141,15.8240543 L12.9586715,10.1940555 C12.9586733,10.1924795 12.9586733,10.1924795 12.9586715,10.1909036 C12.9578011,9.68869838 12.5499778,9.2822862 12.0477726,9.28315657 C11.5413965,9.28403417 11.1311162,9.69431448 11.1302386,10.2006905 L11.1204873,15.8272232 Z" id="Rectangle" fill="#979797" transform="translate(12.040370, 12.554399) rotate(-45.000000) translate(-12.040370, -12.554399) "></path>
                </g>
            </g>
            <text id="Start-typing-to-sear" font-family="AvenirNext-Medium, Avenir Next" font-size="16" font-weight="400" fill="#9B9B9B">
                <tspan x="34" y="24">Start typing to search for tasks</tspan>
            </text>
        </g>
    </g>
</svg>