<svg width="100" height="101" viewBox="0 0 100 101" fill="none" xmlns="http://www.w3.org/2000/svg">
<path d="M50 100.209C77.6142 100.209 100 77.823 100 50.2088C100 22.5945 77.6142 0.208769 50 0.208769C22.3858 0.208769 0 22.5945 0 50.2088C0 77.823 22.3858 100.209 50 100.209ZM53.672 0.141129C53.896 0.15783 54.119 0.178916 54.3422 0.19854C54.119 0.178916 53.896 0.15783 53.672 0.141129Z" fill="#FFEDB9"/>
<mask id="mask0" mask-type="alpha" maskUnits="userSpaceOnUse" x="0" y="0" width="100" height="101">
<path d="M50 100.209C77.6142 100.209 100 77.823 100 50.2088C100 22.5945 77.6142 0.208771 50 0.208771C22.3858 0.208771 0 22.5945 0 50.2088C0 77.823 22.3858 100.209 50 100.209Z" fill="white"/>
</mask>
<g mask="url(#mask0)">
<path d="M50 100.209C77.6142 100.209 100 77.823 100 50.2088C100 22.5945 77.6142 0.208771 50 0.208771C22.3858 0.208771 0 22.5945 0 50.2088C0 77.823 22.3858 100.209 50 100.209Z" fill="#FFEDB9"/>
<path d="M0.0914335 55.5906C0.0716005 55.4092 0.0515588 55.2278 0.0338135 55.0459C0.0515588 55.228 0.0718093 55.4092 0.0914335 55.5906Z" fill="#FFEDB9"/>
<path d="M63.1651 1.77975C71.2146 3.98914 78.4532 8.15845 84.342 13.7382C82.3559 13.4987 80.3386 13.3612 78.2881 13.3612C75.9689 13.3612 73.6877 13.5223 71.4524 13.8273C71.5461 13.9499 71.6382 14.0749 71.7261 14.205C73.6301 17.0177 73.4002 20.4985 71.2125 21.9795C69.0248 23.4605 65.7077 22.3808 63.8037 19.5681C63.0098 18.3952 62.5883 17.1067 62.5236 15.895C58.7303 17.1516 55.1386 18.8493 51.8077 20.9271C52.7014 22.0628 53.2359 23.4946 53.2359 25.0522C53.2359 28.7418 50.2449 31.7328 46.5553 31.7328C44.5438 31.7328 42.7415 30.8426 41.5167 29.4361C33.243 38.372 28.1837 50.3271 28.1837 63.4655C28.1837 77.79 34.2046 90.7002 43.8417 99.8317C27.5756 97.8712 13.7075 88.123 6.08224 74.423C14.6365 89.8019 31.0495 100.209 49.8956 100.209C77.5674 100.209 100 77.7762 100 50.1044C100 27.0267 84.3964 7.59666 63.1651 1.77975ZM38.6889 38.8977C39.3234 38.2795 40.4259 38.2795 41.0603 38.8977C41.3605 39.215 41.5447 39.6488 41.5447 40.0835C41.5447 40.5173 41.3603 40.952 41.0603 41.2693C40.7424 41.5695 40.3083 41.7537 39.8745 41.7537C39.4407 41.7537 39.0052 41.5693 38.6887 41.2693C38.387 40.952 38.2044 40.5173 38.2044 40.0835C38.2046 39.6326 38.3873 39.215 38.6889 38.8977ZM37.7202 81.3526C37.4023 81.6528 36.9683 81.837 36.5344 81.837C36.1006 81.837 35.6651 81.6526 35.3486 81.3526C35.047 81.0353 34.8643 80.6006 34.8643 80.1668C34.8643 79.7322 35.047 79.2983 35.3486 78.981C35.9831 78.3628 37.0856 78.3628 37.72 78.981C38.0202 79.2983 38.2044 79.7322 38.2044 80.1668C38.2046 80.6008 38.0202 81.0355 37.7202 81.3526ZM38.2046 62.6305C38.2046 57.5574 42.3171 53.4447 47.3904 53.4447C52.4635 53.4447 56.5762 57.5572 56.5762 62.6305C56.5762 67.7038 52.4637 71.8163 47.3904 71.8163C42.3171 71.8163 38.2046 67.7038 38.2046 62.6305ZM55.7989 91.6307C51.6954 92.7294 47.6893 91.0825 46.8509 87.9518C46.0125 84.8211 48.6595 81.3925 52.763 80.2935C56.8666 79.1948 60.8726 80.8418 61.7111 83.9724C62.5495 87.1031 59.9025 90.5317 55.7989 91.6307ZM67.7829 61.3111C67.4649 61.6113 67.0309 61.7954 66.5971 61.7954C66.1632 61.7954 65.7278 61.6111 65.4113 61.3111C65.1096 60.9937 64.9269 60.5591 64.9269 60.1253C64.9269 59.6906 65.1096 59.2568 65.4113 58.9395C66.0457 58.3213 67.1482 58.3213 67.7827 58.9395C68.0829 59.2568 68.267 59.6906 68.267 60.1253C68.2672 60.5591 68.0829 60.9937 67.7829 61.3111ZM64.9269 45.0939C62.1597 45.0939 59.9165 42.8507 59.9165 40.0835C59.9165 37.3163 62.1597 35.0731 64.9269 35.0731C67.6941 35.0731 69.9374 37.3163 69.9374 40.0835C69.9374 42.8507 67.6941 45.0939 64.9269 45.0939ZM78.7887 30.547C79.3726 29.9451 80.5094 29.9288 81.1438 30.547C81.444 30.8643 81.6282 31.2981 81.6282 31.7328C81.6282 32.1666 81.4438 32.6012 81.1438 32.9186C80.8259 33.2188 80.3919 33.4029 79.958 33.4029C79.5063 33.4029 79.0887 33.2186 78.7722 32.9186C78.4706 32.6012 78.2879 32.1666 78.2879 31.7328C78.2881 31.2818 78.4708 30.8643 78.7887 30.547ZM79.9282 73.6061C78.0505 75.4837 75.3864 75.8643 73.9783 74.4559C72.5699 73.0476 72.9505 70.3837 74.8282 68.5061C76.706 66.6284 79.3699 66.2478 80.7781 67.656C82.1862 69.0641 81.8058 71.7282 79.9282 73.6061ZM80.8536 55.8739C78.285 55.4505 76.6605 52.3309 77.225 48.9061C77.7896 45.4812 80.3296 43.0482 82.8981 43.4716C85.4666 43.895 87.0912 47.0146 86.5267 50.4395C85.9622 53.8643 83.4221 56.2973 80.8536 55.8739Z" fill="#FFEDB9"/>
</g>
<mask id="mask1" mask-type="alpha" maskUnits="userSpaceOnUse" x="0" y="0" width="100" height="101">
<path d="M50 100.209C77.6142 100.209 100 77.823 100 50.2088C100 22.5945 77.6142 0.208771 50 0.208771C22.3858 0.208771 0 22.5945 0 50.2088C0 77.823 22.3858 100.209 50 100.209Z" fill="white"/>
</mask>
<g mask="url(#mask1)">
<path d="M50 100.209C77.6142 100.209 100 77.823 100 50.2088C100 22.5945 77.6142 0.208771 50 0.208771C22.3858 0.208771 0 22.5945 0 50.2088C0 77.823 22.3858 100.209 50 100.209Z" fill="#FFEDB9"/>
<path d="M62.0338 1.48372C62.396 1.57391 62.7566 1.66806 63.1157 1.76618C62.7566 1.66827 62.396 1.57391 62.0338 1.48372Z" fill="#FFEDB9"/>
<path d="M59.7184 0.965347C60.0397 1.02923 60.3595 1.09708 60.6785 1.16723C60.3593 1.09708 60.0395 1.02902 59.7184 0.965347Z" fill="#FFEDB9"/>
<path d="M54.9079 0.248856C55.1526 0.273281 55.396 0.301883 55.6399 0.329649C55.3962 0.301883 55.1528 0.273281 54.9079 0.248856Z" fill="#FFEDB9"/>
<path d="M60.8841 1.2119C61.225 1.28831 61.5645 1.36847 61.9027 1.45177C61.5645 1.36868 61.2253 1.28831 60.8841 1.2119Z" fill="#FFEDB9"/>
<path d="M56.1315 0.386017C56.3956 0.418793 56.6583 0.455745 56.9211 0.492697C56.6583 0.455745 56.3956 0.418793 56.1315 0.386017Z" fill="#FFEDB9"/>
<path d="M57.3411 0.551567C57.624 0.593738 57.9054 0.639876 58.1866 0.686849C57.9054 0.639876 57.624 0.593738 57.3411 0.551567Z" fill="#FFEDB9"/>
<path d="M58.5374 0.744888C58.8392 0.797498 59.1397 0.853865 59.4397 0.911903C59.1397 0.854074 58.8392 0.797498 58.5374 0.744888Z" fill="#FFEDB9"/>
<path d="M0.622559 59.2276C0.587694 59.0382 0.554292 58.8482 0.521515 58.658C0.554292 58.8482 0.587694 59.038 0.622559 59.2276Z" fill="#FFEDB9"/>
<path d="M0.239872 56.8157C0.215028 56.6307 0.190602 56.4457 0.167847 56.2603C0.190811 56.4457 0.215237 56.6307 0.239872 56.8157Z" fill="#FFEDB9"/>
<path d="M2.73654 67.0624C2.41191 66.1601 2.11379 65.2453 1.8403 64.32C2.11379 65.2455 2.41212 66.1601 2.73654 67.0624Z" fill="#FFEDB9"/>
<path d="M3.52066 69.0981C3.41231 68.834 3.30459 68.5693 3.20062 68.3029C3.30459 68.5695 3.41231 68.834 3.52066 69.0981Z" fill="#FFEDB9"/>
<path d="M3.97306 70.1658C3.85844 69.904 3.74487 69.6413 3.63464 69.3772C3.74487 69.6413 3.85844 69.9038 3.97306 70.1658Z" fill="#FFEDB9"/>
<path d="M3.10103 68.0409C2.9954 67.7658 2.89039 67.4902 2.78955 67.2127C2.89039 67.4902 2.99561 67.7656 3.10103 68.0409Z" fill="#FFEDB9"/>
<path d="M0.855938 60.4167C0.815855 60.2248 0.77765 60.0324 0.739655 59.8397C0.77765 60.0324 0.815646 60.2248 0.855938 60.4167Z" fill="#FFEDB9"/>
<path d="M1.40523 62.7614C1.35324 62.5618 1.3046 62.361 1.25491 62.1603C1.3046 62.361 1.35324 62.5618 1.40523 62.7614Z" fill="#FFEDB9"/>
<path d="M1.11671 61.5939C1.07099 61.3996 1.0282 61.2042 0.984772 61.009C1.0282 61.2042 1.0712 61.3996 1.11671 61.5939Z" fill="#FFEDB9"/>
<path d="M0.417119 58.0276C0.387265 57.8401 0.358455 57.652 0.330688 57.4639C0.358455 57.6522 0.387265 57.8399 0.417119 58.0276Z" fill="#FFEDB9"/>
<path d="M1.72067 63.9171C1.66013 63.7061 1.60376 63.4931 1.54593 63.281C1.60355 63.4933 1.66013 63.7061 1.72067 63.9171Z" fill="#FFEDB9"/>
<path d="M4.95741 72.28C4.82464 72.0115 4.69395 71.7415 4.56577 71.4704C4.69374 71.7418 4.82464 72.0115 4.95741 72.28Z" fill="#FFEDB9"/>
<path d="M6.04028 74.348C5.87932 74.0576 5.7217 73.7653 5.56659 73.4716C5.7217 73.7653 5.87953 74.0576 6.04028 74.348Z" fill="#FFEDB9"/>
<path d="M5.48706 73.3209C5.34175 73.0438 5.19937 72.7649 5.05908 72.485C5.19937 72.7651 5.34196 73.0438 5.48706 73.3209Z" fill="#FFEDB9"/>
<path d="M4.45239 71.2276C4.32964 70.9639 4.20855 70.6994 4.09018 70.4334C4.20834 70.6996 4.32964 70.9639 4.45239 71.2276Z" fill="#FFEDB9"/>
<path d="M43.8418 99.8317C34.2046 90.7002 28.1837 77.79 28.1837 63.4656C28.1837 50.3271 33.243 38.3722 41.5167 29.4363C42.7415 30.8426 44.5438 31.7328 46.5553 31.7328C50.2449 31.7328 53.2359 28.7418 53.2359 25.0522C53.2359 23.4946 52.7015 22.0628 51.8077 20.9267C55.1384 18.8489 58.7301 17.1511 62.5236 15.8946C62.5883 17.1063 63.0098 18.395 63.8038 19.5676C65.7077 22.3804 69.0248 23.4601 71.2125 21.9791C73.4002 20.4981 73.6303 17.0175 71.7261 14.2046C71.638 14.0745 71.5461 13.9495 71.4524 13.8269C73.6877 13.5223 75.9689 13.3612 78.2881 13.3612C80.3386 13.3612 82.356 13.4987 84.342 13.7382C78.4532 8.15846 71.2146 3.98914 63.1651 1.77975C63.1486 1.77516 63.1321 1.77077 63.1157 1.76639C62.7566 1.66827 62.396 1.57411 62.0338 1.48392C61.9902 1.47307 61.9466 1.46263 61.9029 1.45198C61.5647 1.36868 61.2253 1.28852 60.8843 1.21211C60.8159 1.19687 60.747 1.18225 60.6785 1.16722C60.3595 1.09708 60.0397 1.02944 59.7184 0.965344C59.6257 0.946973 59.5326 0.929854 59.4399 0.9119C59.1399 0.853862 58.8395 0.797495 58.5376 0.744885C58.4211 0.724635 58.3038 0.706263 58.1871 0.686848C57.9058 0.639875 57.6242 0.593737 57.3415 0.551566C57.2019 0.530689 57.0614 0.512526 56.9213 0.492693C56.6585 0.455741 56.3958 0.418789 56.1317 0.386013C55.9683 0.365762 55.804 0.348643 55.6401 0.329854C55.3964 0.301879 55.153 0.273278 54.9081 0.249061C54.72 0.230271 54.5309 0.215449 54.3424 0.198747C54.1192 0.179123 53.8962 0.158038 53.6722 0.141336C53.4559 0.125261 53.2382 0.113361 53.0211 0.1C52.8221 0.0876827 52.6236 0.0734864 52.424 0.0634656C52.1643 0.0505219 51.9033 0.0427975 51.6426 0.0338205C51.4833 0.0283925 51.3246 0.0202505 51.1649 0.0162839C50.743 0.00563674 50.32 0 49.8956 0C22.2238 0 -0.208771 22.4326 -0.208771 50.1044C-0.208771 50.5213 -0.203134 50.937 -0.192904 51.3514C-0.189564 51.491 -0.182675 51.6299 -0.178291 51.7691C-0.169314 52.0434 -0.160337 52.3177 -0.146975 52.591C-0.138833 52.757 -0.12756 52.9219 -0.117748 53.0875C-0.103343 53.333 -0.0891465 53.5783 -0.0711925 53.8228C-0.0582488 53.9992 -0.0425912 54.1747 -0.0277687 54.3507C-0.00835322 54.5829 0.011271 54.8148 0.0340267 55.0459C0.051772 55.228 0.0718138 55.4092 0.0916468 55.5906C0.116073 55.8142 0.140916 56.0376 0.168265 56.2603C0.19102 56.4459 0.215446 56.6309 0.24029 56.8157C0.269309 57.0322 0.299162 57.2482 0.330895 57.4639C0.358661 57.6522 0.387471 57.8401 0.417325 58.0276C0.450728 58.2382 0.485592 58.4482 0.521709 58.658C0.554486 58.8482 0.58768 59.0382 0.622753 59.2276C0.660332 59.4322 0.699998 59.6361 0.740081 59.8397C0.778077 60.0324 0.816073 60.2248 0.856365 60.4167C0.897701 60.6146 0.941542 60.8119 0.985175 61.009C1.0286 61.2042 1.0716 61.3996 1.11712 61.5939C1.16158 61.7833 1.20877 61.9718 1.25532 62.1603C1.3048 62.3608 1.35365 62.5618 1.40563 62.7614C1.45094 62.9353 1.49916 63.1077 1.54614 63.281C1.60396 63.4933 1.66033 63.7061 1.72087 63.9171C1.7595 64.052 1.80104 64.1856 1.84071 64.3198C2.11419 65.2453 2.41232 66.1599 2.73695 67.0622C2.7549 67.1121 2.77181 67.1626 2.78998 67.2125C2.89081 67.49 2.99582 67.7656 3.10146 68.0407C3.13486 68.128 3.16722 68.2159 3.20104 68.3027C3.30501 68.5691 3.41273 68.8338 3.52108 69.0979C3.55929 69.1908 3.59645 69.2843 3.63507 69.3768C3.7453 69.6411 3.85887 69.9035 3.97348 70.1653C4.01252 70.2545 4.05094 70.344 4.0906 70.433C4.20897 70.699 4.33006 70.9637 4.45282 71.2271C4.4906 71.3081 4.52797 71.3891 4.56618 71.4699C4.69436 71.7411 4.82505 72.0111 4.95783 72.2795C4.99165 72.348 5.02547 72.4163 5.05971 72.4843C5.2 72.7645 5.34238 73.0432 5.48768 73.3203C5.51399 73.3706 5.54071 73.4207 5.56722 73.471C5.72254 73.7647 5.87996 74.0572 6.04092 74.3474C6.0549 74.3724 6.06889 74.3973 6.08288 74.4223C13.7075 88.123 27.5758 97.8712 43.8418 99.8317ZM64.3173 11.7933C66.4023 10.3818 69.4992 11.3159 71.4349 13.8397C68.3737 14.2587 65.4025 14.9537 62.5436 15.8996C62.4532 14.2052 63.0418 12.6568 64.3173 11.7933ZM42.0292 7.16493C42.6474 6.54676 43.7662 6.54676 44.4006 7.16493C44.7008 7.48225 44.885 7.91608 44.885 8.35073C44.885 8.78455 44.7006 9.21921 44.4006 9.53653C44.0827 9.83653 43.6488 10.0209 43.215 10.0209C42.7812 10.0209 42.3457 9.83653 42.0292 9.53653C41.7276 9.21921 41.5449 8.80167 41.5449 8.35073C41.5449 7.89979 41.7276 7.46514 42.0292 7.16493ZM39.8835 24.7084C40.0566 21.2923 42.7956 18.5534 46.2117 18.3802C46.3255 18.3745 46.4401 18.3716 46.5553 18.3716C48.6887 18.3716 50.5664 19.39 51.7896 20.9468C48.0044 23.3109 44.5578 26.1637 41.5386 29.4213C40.5157 28.2476 39.8747 26.7315 39.8747 25.0522C39.8747 24.937 39.8777 24.8223 39.8835 24.7084ZM21.5451 20.9188C23.5083 18.9555 26.4927 18.7566 28.2104 20.4745C29.9284 22.1925 29.7294 25.1766 27.7662 27.1399C25.8029 29.1031 22.8186 29.3021 21.1008 27.5841C19.3831 25.8662 19.5818 22.882 21.5451 20.9188ZM24.8434 60.1044C24.8434 60.5382 24.6591 60.9729 24.3591 61.2902C24.0411 61.5904 23.6071 61.7745 23.1733 61.7745C22.7395 61.7745 22.304 61.5902 21.9875 61.2902C21.6858 60.9729 21.5031 60.5382 21.5031 60.1044C21.5031 59.6697 21.6858 59.2359 21.9875 58.9186C22.6056 58.3004 23.7407 58.3004 24.3589 58.9186C24.6591 59.2359 24.8434 59.6697 24.8434 60.1044ZM9.81211 46.7641C9.81211 43.0745 12.4292 40.0835 15.6576 40.0835C18.886 40.0835 21.5031 43.0745 21.5031 46.7641C21.5031 50.4537 18.886 53.4447 15.6576 53.4447C12.4292 53.4447 9.81211 50.4537 9.81211 46.7641ZM15.8845 67.8679C17.8413 65.9111 21.5424 66.4399 24.1514 69.0489C26.7603 71.6578 27.2891 75.3589 25.3324 77.3157C23.3756 79.2724 19.6745 78.7436 17.0656 76.1347C14.4566 73.5257 13.9278 69.8244 15.8845 67.8679Z" fill="#FFD586"/>
<path d="M15.6576 53.4447C18.886 53.4447 21.5031 50.4537 21.5031 46.7641C21.5031 43.0745 18.886 40.0835 15.6576 40.0835C12.4292 40.0835 9.8121 43.0745 9.8121 46.7641C9.8121 50.4537 12.4292 53.4447 15.6576 53.4447Z" fill="#E7B27E"/>
<path d="M17.0657 76.1338C19.6746 78.7428 23.3758 79.2715 25.3324 77.3148C27.2891 75.3581 26.7604 71.657 24.1515 69.0481C21.5426 66.4392 17.8414 65.9104 15.8848 67.8671C13.9281 69.8238 14.4568 73.5249 17.0657 76.1338Z" fill="#E7B27E"/>
<path d="M80.7781 67.657C79.3698 66.2487 76.7059 66.6293 74.8281 68.507C72.9504 70.3848 72.5698 73.0487 73.9781 74.457C75.3865 75.8653 78.0504 75.4848 79.9281 73.607C81.8059 71.7293 82.1864 69.0654 80.7781 67.657Z" fill="#FFD586"/>
<path d="M39.8747 41.7537C40.3086 41.7537 40.7424 41.5693 41.0605 41.2693C41.3608 40.952 41.5449 40.5173 41.5449 40.0835C41.5449 39.6489 41.3605 39.215 41.0605 38.8977C40.4261 38.2795 39.3236 38.2795 38.6891 38.8977C38.3875 39.215 38.2048 39.6326 38.2048 40.0835C38.2048 40.5173 38.3875 40.952 38.6891 41.2693C39.0054 41.5693 39.4409 41.7537 39.8747 41.7537Z" fill="#FFD586"/>
<path d="M21.9875 58.9188C21.6858 59.2361 21.5031 59.6699 21.5031 60.1046C21.5031 60.5384 21.6858 60.9731 21.9875 61.2904C22.304 61.5906 22.7395 61.7747 23.1733 61.7747C23.6071 61.7747 24.0409 61.5904 24.3591 61.2904C24.6593 60.9731 24.8434 60.5384 24.8434 60.1046C24.8434 59.6699 24.6591 59.2361 24.3591 58.9188C23.7409 58.3006 22.6056 58.3006 21.9875 58.9188Z" fill="#E7B27E"/>
<path d="M65.4113 58.9395C65.1096 59.2568 64.9269 59.6906 64.9269 60.1253C64.9269 60.5591 65.1096 60.9937 65.4113 61.3111C65.7278 61.6113 66.1633 61.7954 66.5971 61.7954C67.0309 61.7954 67.4647 61.6111 67.7829 61.3111C68.0831 60.9937 68.2672 60.5591 68.2672 60.1253C68.2672 59.6906 68.0829 59.2568 67.7829 58.9395C67.1484 58.3213 66.0457 58.3213 65.4113 58.9395Z" fill="#FFD586"/>
<path d="M79.9582 33.4029C80.3921 33.4029 80.8259 33.2186 81.144 32.9186C81.4443 32.6013 81.6284 32.1666 81.6284 31.7328C81.6284 31.2981 81.444 30.8643 81.144 30.547C80.5096 29.9288 79.3728 29.9451 78.7889 30.547C78.471 30.8643 78.2883 31.2818 78.2883 31.7328C78.2883 32.1666 78.471 32.6013 78.7726 32.9186C79.0889 33.2186 79.5065 33.4029 79.9582 33.4029Z" fill="#FFD586"/>
<path d="M43.215 10.0209C43.6489 10.0209 44.0827 9.83653 44.4008 9.53653C44.7011 9.21921 44.8852 8.78455 44.8852 8.35073C44.8852 7.91608 44.7008 7.48226 44.4008 7.16493C43.7664 6.54676 42.6476 6.54676 42.0294 7.16493C41.7276 7.46514 41.5449 7.89979 41.5449 8.35073C41.5449 8.80167 41.7276 9.21921 42.0292 9.53653C42.3457 9.83653 42.7812 10.0209 43.215 10.0209Z" fill="#E7B27E"/>
<path d="M35.3486 78.9812C35.047 79.2985 34.8643 79.7324 34.8643 80.167C34.8643 80.6008 35.047 81.0355 35.3486 81.3528C35.6651 81.653 36.1006 81.8372 36.5344 81.8372C36.9683 81.8372 37.4021 81.6528 37.7202 81.3528C38.0204 81.0355 38.2046 80.6008 38.2046 80.167C38.2046 79.7324 38.0202 79.2985 37.7202 78.9812C37.0858 78.363 35.9831 78.363 35.3486 78.9812Z" fill="#FFD586"/>
<path d="M47.3904 71.8163C52.4636 71.8163 56.5762 67.7037 56.5762 62.6305C56.5762 57.5573 52.4636 53.4447 47.3904 53.4447C42.3172 53.4447 38.2046 57.5573 38.2046 62.6305C38.2046 67.7037 42.3172 71.8163 47.3904 71.8163Z" fill="#FFD586"/>
<path d="M64.9269 45.0939C67.6941 45.0939 69.9374 42.8507 69.9374 40.0835C69.9374 37.3163 67.6941 35.0731 64.9269 35.0731C62.1598 35.0731 59.9165 37.3163 59.9165 40.0835C59.9165 42.8507 62.1598 45.0939 64.9269 45.0939Z" fill="#FFD586"/>
<path d="M61.7127 83.9677C60.8743 80.8369 56.8679 79.1899 52.7642 80.2888C48.6606 81.3878 46.0136 84.8167 46.852 87.9475C47.6905 91.0782 51.6968 92.7253 55.8005 91.6263C59.9041 90.5274 62.5511 87.0985 61.7127 83.9677Z" fill="#FFD586"/>
<path d="M86.5312 50.4403C87.0959 47.0155 85.4715 43.8957 82.9029 43.4722C80.3342 43.0487 77.7942 45.4817 77.2294 48.9065C76.6647 52.3313 78.2892 55.451 80.8578 55.8745C83.4264 56.2981 85.9665 53.8651 86.5312 50.4403Z" fill="#FFD586"/>
<path d="M41.5386 29.4213C44.5576 26.1637 48.0042 23.3109 51.7896 20.9468C50.5664 19.39 48.6887 18.3716 46.5553 18.3716C46.4401 18.3716 46.3255 18.3745 46.2115 18.3804C42.7954 18.5534 40.0566 21.2925 39.8833 24.7086C39.8777 24.8223 39.8748 24.937 39.8748 25.0522C39.8748 26.7313 40.5157 28.2476 41.5386 29.4213Z" fill="#E7B27E"/>
<path d="M21.1008 27.5837C22.8187 29.3016 25.8028 29.1026 27.7661 27.1394C29.7294 25.1761 29.9283 22.1919 28.2104 20.474C26.4926 18.7561 23.5084 18.9551 21.5451 20.9184C19.5818 22.8816 19.3829 25.8658 21.1008 27.5837Z" fill="#E7B27E"/>
<path d="M62.5436 15.8996C65.4025 14.9537 68.3737 14.2587 71.4349 13.8397C69.4992 11.3159 66.4023 10.3818 64.3173 11.7933C63.0418 12.6568 62.4532 14.2052 62.5436 15.8996Z" fill="#E7B27E"/>
<g style="mix-blend-mode:color">
<path d="M100.418 0H0V100.209H100.418V0Z" fill="white"/>
</g>
<g style="mix-blend-mode:lighten">
<path d="M100.418 0H0V100.209H100.418V0Z" fill="white" fill-opacity="0.25"/>
</g>
<path d="M23.832 38.928C26.7973 38.928 29.08 39.9093 30.68 41.872C32.28 43.8347 33.08 46.6293 33.08 50.256C33.08 52.752 32.696 54.9067 31.928 56.72C31.16 58.512 30.0613 59.888 28.632 60.848C27.2027 61.808 25.496 62.288 23.512 62.288C22.104 62.288 20.7387 62.064 19.416 61.616C18.0933 61.168 16.9627 60.5387 16.024 59.728L17.656 56.144C19.5973 57.616 21.4747 58.352 23.288 58.352C24.7813 58.352 25.9333 57.7547 26.744 56.56C27.576 55.344 28.0347 53.5733 28.12 51.248C27.6293 52.1013 26.9253 52.784 26.008 53.296C25.0907 53.7867 24.0667 54.032 22.936 54.032C21.6133 54.032 20.4187 53.7227 19.352 53.104C18.3067 52.464 17.4853 51.5893 16.888 50.48C16.312 49.3493 16.024 48.0693 16.024 46.64C16.024 45.168 16.3547 43.8453 17.016 42.672C17.6987 41.4987 18.6267 40.5813 19.8 39.92C20.9947 39.2587 22.3387 38.928 23.832 38.928ZM24.12 50.096C25.144 50.096 25.9653 49.7653 26.584 49.104C27.224 48.4213 27.544 47.536 27.544 46.448C27.544 45.3813 27.224 44.5173 26.584 43.856C25.944 43.1733 25.1227 42.832 24.12 42.832C23.096 42.832 22.2747 43.1627 21.656 43.824C21.0587 44.4853 20.76 45.36 20.76 46.448C20.76 47.5787 21.0587 48.4747 21.656 49.136C22.2533 49.776 23.0747 50.096 24.12 50.096ZM47.8835 50.256C49.3555 50.64 50.4968 51.312 51.3075 52.272C52.1182 53.232 52.5235 54.4053 52.5235 55.792C52.5235 57.1147 52.1502 58.2667 51.4035 59.248C50.6782 60.208 49.6542 60.9547 48.3315 61.488C47.0088 62 45.4942 62.256 43.7875 62.256C42.0808 62.256 40.5662 62 39.2435 61.488C37.9208 60.9547 36.8862 60.208 36.1395 59.248C35.4142 58.2667 35.0515 57.1147 35.0515 55.792C35.0515 54.4053 35.4568 53.232 36.2675 52.272C37.0995 51.2907 38.2408 50.6187 39.6915 50.256C38.4115 49.8293 37.4088 49.168 36.6835 48.272C35.9582 47.376 35.5955 46.32 35.5955 45.104C35.5955 43.8667 35.9475 42.7787 36.6515 41.84C37.3555 40.9013 38.3262 40.1867 39.5635 39.696C40.8222 39.184 42.2302 38.928 43.7875 38.928C45.3448 38.928 46.7422 39.184 47.9795 39.696C49.2382 40.1867 50.2195 40.9013 50.9235 41.84C51.6275 42.7787 51.9795 43.8667 51.9795 45.104C51.9795 46.3413 51.6062 47.4187 50.8595 48.336C50.1342 49.2533 49.1422 49.8933 47.8835 50.256ZM43.7875 42.768C42.7208 42.768 41.8675 43.0133 41.2275 43.504C40.6088 43.9947 40.2995 44.7093 40.2995 45.648C40.2995 46.544 40.6088 47.2693 41.2275 47.824C41.8675 48.3573 42.7208 48.7307 43.7875 48.944C44.8542 48.7307 45.6968 48.3573 46.3155 47.824C46.9555 47.2693 47.2755 46.544 47.2755 45.648C47.2755 44.7093 46.9555 43.9947 46.3155 43.504C45.6968 43.0133 44.8542 42.768 43.7875 42.768ZM43.7875 58.416C45.0462 58.416 46.0382 58.16 46.7635 57.648C47.5102 57.136 47.8835 56.3893 47.8835 55.408C47.8835 54.4907 47.5102 53.744 46.7635 53.168C46.0382 52.592 45.0462 52.208 43.7875 52.016C42.5288 52.208 41.5262 52.592 40.7795 53.168C40.0542 53.744 39.6915 54.4907 39.6915 55.408C39.6915 56.3893 40.0542 57.136 40.7795 57.648C41.5262 58.16 42.5288 58.416 43.7875 58.416ZM60.447 52.784C58.6123 52.784 57.1723 52.1867 56.127 50.992C55.0817 49.7973 54.559 48.0587 54.559 45.776C54.559 43.5573 55.0817 41.8507 56.127 40.656C57.1723 39.4613 58.6123 38.864 60.447 38.864C62.303 38.864 63.7537 39.4613 64.799 40.656C65.8443 41.8507 66.367 43.568 66.367 45.808C66.367 48.0693 65.8443 49.7973 64.799 50.992C63.7537 52.1867 62.303 52.784 60.447 52.784ZM64.255 62H60.095L73.311 39.216H77.471L64.255 62ZM60.447 49.744C61.1297 49.744 61.6203 49.4453 61.919 48.848C62.239 48.2293 62.399 47.216 62.399 45.808C62.399 44.4213 62.239 43.4293 61.919 42.832C61.599 42.2133 61.1083 41.904 60.447 41.904C59.807 41.904 59.327 42.2133 59.007 42.832C58.7083 43.4293 58.559 44.4213 58.559 45.808C58.559 47.216 58.7083 48.2293 59.007 48.848C59.3057 49.4453 59.7857 49.744 60.447 49.744ZM77.087 62.224C75.2523 62.224 73.8123 61.6267 72.767 60.432C71.743 59.2373 71.231 57.4987 71.231 55.216C71.231 52.976 71.743 51.2693 72.767 50.096C73.8123 48.9013 75.2523 48.304 77.087 48.304C78.9643 48.304 80.415 48.9013 81.439 50.096C82.4843 51.2693 83.007 52.9867 83.007 55.248C83.007 57.5093 82.4843 59.2373 81.439 60.432C80.415 61.6267 78.9643 62.224 77.087 62.224ZM77.087 59.184C77.7697 59.184 78.2603 58.8853 78.559 58.288C78.879 57.6693 79.039 56.656 79.039 55.248C79.039 53.8613 78.879 52.8693 78.559 52.272C78.239 51.6533 77.7483 51.344 77.087 51.344C76.447 51.344 75.967 51.6533 75.647 52.272C75.3483 52.8693 75.199 53.8613 75.199 55.248C75.199 56.656 75.3483 57.6693 75.647 58.288C75.9457 58.8853 76.4257 59.184 77.087 59.184Z" fill="#4A4A4A"/>
</g>
</svg>
