<svg width="100" height="100" viewBox="0 0 100 100" fill="none" xmlns="http://www.w3.org/2000/svg">
<path d="M50 100C77.6142 100 100 77.6142 100 50C100 22.3858 77.6142 0 50 0C22.3858 0 0 22.3858 0 50C0 77.6142 22.3858 100 50 100Z" fill="#8F47EC"/>
<path d="M30.7964 42.6184C32.9564 42.6184 34.6204 43.3544 35.7884 44.8264C36.9724 46.2824 37.5644 48.3624 37.5644 51.0664C37.5644 52.9544 37.2844 54.5784 36.7244 55.9384C36.1644 57.2984 35.3564 58.3384 34.3004 59.0584C33.2604 59.7784 32.0204 60.1384 30.5804 60.1384C29.5564 60.1384 28.5564 59.9704 27.5804 59.6344C26.6204 59.2824 25.7884 58.7864 25.0844 58.1464L26.1164 55.8904C27.6364 57.0744 29.0844 57.6664 30.4604 57.6664C31.7244 57.6664 32.7004 57.1304 33.3884 56.0584C34.0924 54.9704 34.4604 53.4184 34.4924 51.4024C34.1244 52.1384 33.5644 52.7224 32.8124 53.1544C32.0764 53.5864 31.2364 53.8024 30.2924 53.8024C29.2844 53.8024 28.3804 53.5704 27.5804 53.1064C26.7964 52.6424 26.1804 51.9944 25.7324 51.1624C25.2844 50.3304 25.0604 49.3784 25.0604 48.3064C25.0604 47.2184 25.3004 46.2424 25.7804 45.3784C26.2764 44.5144 26.9564 43.8424 27.8204 43.3624C28.7004 42.8664 29.6924 42.6184 30.7964 42.6184ZM30.9644 51.3304C31.8604 51.3304 32.5884 51.0424 33.1484 50.4664C33.7084 49.8904 33.9884 49.1384 33.9884 48.2104C33.9884 47.2824 33.7084 46.5304 33.1484 45.9544C32.5884 45.3624 31.8604 45.0664 30.9644 45.0664C30.0684 45.0664 29.3484 45.3544 28.8044 45.9304C28.2764 46.5064 28.0124 47.2664 28.0124 48.2104C28.0124 49.1544 28.2764 49.9144 28.8044 50.4904C29.3484 51.0504 30.0684 51.3304 30.9644 51.3304ZM48.6191 51.1384C49.7231 51.4104 50.5871 51.9144 51.2111 52.6504C51.8351 53.3864 52.1471 54.2744 52.1471 55.3144C52.1471 56.2904 51.8751 57.1464 51.3311 57.8824C50.8031 58.6024 50.0511 59.1544 49.0751 59.5384C48.1151 59.9224 47.0031 60.1144 45.7391 60.1144C44.4751 60.1144 43.3551 59.9224 42.3791 59.5384C41.4191 59.1544 40.6671 58.6024 40.1231 57.8824C39.5951 57.1464 39.3311 56.2904 39.3311 55.3144C39.3311 54.2744 39.6431 53.3864 40.2671 52.6504C40.8911 51.9144 41.7551 51.4104 42.8591 51.1384C41.8991 50.8184 41.1391 50.3144 40.5791 49.6264C40.0351 48.9384 39.7631 48.1384 39.7631 47.2264C39.7631 46.2984 40.0191 45.4904 40.5311 44.8024C41.0431 44.0984 41.7471 43.5624 42.6431 43.1944C43.5551 42.8104 44.5871 42.6184 45.7391 42.6184C46.8911 42.6184 47.9151 42.8104 48.8111 43.1944C49.7231 43.5624 50.4351 44.0984 50.9471 44.8024C51.4591 45.4904 51.7151 46.2984 51.7151 47.2264C51.7151 48.1544 51.4351 48.9704 50.8751 49.6744C50.3311 50.3624 49.5791 50.8504 48.6191 51.1384ZM45.7391 45.0424C44.7951 45.0424 44.0511 45.2584 43.5071 45.6904C42.9631 46.1224 42.6911 46.7384 42.6911 47.5384C42.6911 48.2904 42.9631 48.9064 43.5071 49.3864C44.0671 49.8504 44.8111 50.1544 45.7391 50.2984C46.6671 50.1544 47.4031 49.8504 47.9471 49.3864C48.5071 48.9064 48.7871 48.2904 48.7871 47.5384C48.7871 46.7384 48.5151 46.1224 47.9711 45.6904C47.4271 45.2584 46.6831 45.0424 45.7391 45.0424ZM45.7391 57.6904C46.8271 57.6904 47.6751 57.4664 48.2831 57.0184C48.9071 56.5704 49.2191 55.9304 49.2191 55.0984C49.2191 54.3144 48.8991 53.6824 48.2591 53.2024C47.6351 52.7224 46.7951 52.4104 45.7391 52.2664C44.6831 52.4104 43.8351 52.7224 43.1951 53.2024C42.5711 53.6824 42.2591 54.3144 42.2591 55.0984C42.2591 55.9304 42.5631 56.5704 43.1711 57.0184C43.7951 57.4664 44.6511 57.6904 45.7391 57.6904ZM58.2817 53.0344C56.9377 53.0344 55.8817 52.5944 55.1137 51.7144C54.3617 50.8184 53.9857 49.5144 53.9857 47.8024C53.9857 46.1064 54.3617 44.8184 55.1137 43.9384C55.8817 43.0424 56.9377 42.5944 58.2817 42.5944C59.6417 42.5944 60.7057 43.0424 61.4737 43.9384C62.2417 44.8184 62.6257 46.1064 62.6257 47.8024C62.6257 49.5144 62.2417 50.8184 61.4737 51.7144C60.7057 52.5944 59.6417 53.0344 58.2817 53.0344ZM60.7537 59.9224H58.1137L68.0017 42.8344H70.6657L60.7537 59.9224ZM58.2817 51.0904C58.9057 51.0904 59.3617 50.8344 59.6497 50.3224C59.9377 49.8104 60.0817 48.9704 60.0817 47.8024C60.0817 46.6664 59.9297 45.8424 59.6257 45.3304C59.3377 44.8024 58.8897 44.5384 58.2817 44.5384C57.6897 44.5384 57.2497 44.8024 56.9617 45.3304C56.6737 45.8424 56.5297 46.6664 56.5297 47.8024C56.5297 48.9544 56.6737 49.7944 56.9617 50.3224C57.2497 50.8344 57.6897 51.0904 58.2817 51.0904ZM70.4737 60.0904C69.1137 60.0904 68.0497 59.6504 67.2817 58.7704C66.5297 57.8744 66.1537 56.5624 66.1537 54.8344C66.1537 53.1384 66.5297 51.8504 67.2817 50.9704C68.0497 50.0904 69.1137 49.6504 70.4737 49.6504C71.8337 49.6504 72.8897 50.0904 73.6417 50.9704C74.4097 51.8504 74.7937 53.1464 74.7937 54.8584C74.7937 56.5704 74.4097 57.8744 73.6417 58.7704C72.8897 59.6504 71.8337 60.0904 70.4737 60.0904ZM70.4737 58.1464C71.0817 58.1464 71.5297 57.8904 71.8177 57.3784C72.1057 56.8504 72.2497 56.0104 72.2497 54.8584C72.2497 53.7224 72.0977 52.8984 71.7937 52.3864C71.5057 51.8584 71.0657 51.5944 70.4737 51.5944C69.8657 51.5944 69.4177 51.8584 69.1297 52.3864C68.8417 52.8984 68.6977 53.7224 68.6977 54.8584C68.6977 56.0104 68.8417 56.8504 69.1297 57.3784C69.4177 57.8904 69.8657 58.1464 70.4737 58.1464Z" fill="white"/>
</svg>
