<svg width="862" height="485" viewBox="0 0 862 485" fill="none" xmlns="http://www.w3.org/2000/svg">
<g clip-path="url(#clip0)">
<path opacity="0.6" fill-rule="evenodd" clip-rule="evenodd" d="M1058.85 -97.35C1056.49 -93.4164 1051.57 -92.0912 1047.85 -94.3902C1044.14 -96.6891 1043.05 -101.742 1045.41 -105.675C1047.78 -109.609 1052.7 -110.934 1056.41 -108.635C1060.12 -106.336 1061.22 -101.284 1058.85 -97.35ZM1030.44 -80.7469C1028.07 -76.8133 1023.15 -75.4882 1019.44 -77.7871C1015.73 -80.0861 1014.63 -85.1385 1017 -89.0721C1019.36 -93.0057 1024.28 -94.3309 1028 -92.0319C1031.71 -89.733 1032.8 -84.6805 1030.44 -80.7469ZM1047.39 -62.9173C1051.1 -60.6184 1056.02 -61.9435 1058.38 -65.8771C1060.75 -69.8107 1059.65 -74.8632 1055.94 -77.1621C1052.23 -79.461 1047.31 -78.1359 1044.94 -74.2023C1042.58 -70.2687 1043.67 -65.2163 1047.39 -62.9173ZM1064.18 -25.6398C1061.81 -21.7062 1056.89 -20.3811 1053.18 -22.68C1049.47 -24.9789 1048.37 -30.0314 1050.74 -33.965C1053.1 -37.8986 1058.02 -39.2237 1061.73 -36.9248C1065.45 -34.6258 1066.54 -29.5734 1064.18 -25.6398ZM1020.12 -50.3566C1020.51 -45.838 1024.39 -42.6481 1028.77 -43.2318C1033.15 -43.8155 1036.38 -47.9517 1035.99 -52.4703C1035.59 -56.9889 1031.71 -60.1788 1027.33 -59.5951C1022.95 -59.0114 1019.72 -54.8752 1020.12 -50.3566ZM1042.94 -9.47581C1040.58 -5.54221 1035.65 -4.21707 1031.94 -6.51601C1028.23 -8.81494 1027.14 -13.8674 1029.5 -17.801C1031.87 -21.7346 1036.79 -23.0597 1040.5 -20.7608C1044.21 -18.4619 1045.31 -13.4094 1042.94 -9.47581ZM970.096 -57.0452C973.807 -54.7462 978.731 -56.0714 981.095 -60.005C983.458 -63.9386 982.365 -68.991 978.654 -71.29C974.943 -73.5889 970.019 -72.2637 967.656 -68.3302C965.292 -64.3966 966.385 -59.3441 970.096 -57.0452ZM1006.45 -63.8429C1004.09 -59.9093 999.164 -58.5841 995.453 -60.8831C991.742 -63.182 990.649 -68.2345 993.012 -72.168C995.376 -76.1016 1000.3 -77.4268 1004.01 -75.1279C1007.72 -72.8289 1008.81 -67.7765 1006.45 -63.8429ZM897.116 18.3281C893.211 16.3847 888.403 18.1499 886.376 22.2707C884.349 26.3916 885.871 31.3076 889.776 33.2511C893.681 35.1945 898.489 33.4293 900.516 29.3085C902.543 25.1876 901.021 20.2716 897.116 18.3281ZM919.37 13.3914C921.397 9.27057 926.206 7.50541 930.111 9.44883C934.016 11.3922 935.538 16.3083 933.511 20.4291C931.484 24.55 926.675 26.3152 922.77 24.3717C918.866 22.4283 917.343 17.5123 919.37 13.3914ZM911.792 -21.4466C907.887 -23.39 903.078 -21.6249 901.051 -17.504C899.024 -13.3832 900.547 -8.46711 904.451 -6.5237C908.356 -4.58028 913.165 -6.34545 915.192 -10.4663C917.219 -14.5871 915.697 -19.5032 911.792 -21.4466ZM935.877 -17.9198C937.904 -22.0406 942.713 -23.8058 946.618 -21.8624C950.522 -19.919 952.045 -15.0029 950.018 -10.8821C947.991 -6.76123 943.182 -4.99606 939.277 -6.93948C935.372 -8.88289 933.85 -13.7989 935.877 -17.9198ZM955.769 20.4561C951.864 18.5127 947.055 20.2778 945.028 24.3987C943.001 28.5195 944.523 33.4356 948.428 35.379C952.333 37.3224 957.142 35.5572 959.169 31.4364C961.196 27.3156 959.674 22.3995 955.769 20.4561ZM928.096 -47.1726C930.123 -51.2934 934.931 -53.0586 938.836 -51.1152C942.741 -49.1717 944.263 -44.2557 942.236 -40.1348C940.209 -36.014 935.401 -34.2488 931.496 -36.1922C927.591 -38.1357 926.069 -43.0517 928.096 -47.1726ZM988.782 -42.1653C984.877 -44.1087 980.068 -42.3435 978.041 -38.2227C976.014 -34.1018 977.536 -29.1858 981.441 -27.2424C985.346 -25.299 990.155 -27.0641 992.182 -31.185C994.209 -35.3058 992.687 -40.2219 988.782 -42.1653ZM960.314 -12.5541C962.341 -16.675 967.15 -18.4402 971.055 -16.4967C974.96 -14.5533 976.482 -9.63726 974.455 -5.51642C972.428 -1.39558 967.619 0.369596 963.715 -1.57383C959.81 -3.51724 958.287 -8.4333 960.314 -12.5541ZM987.633 70.8763C983.728 68.9329 978.92 70.698 976.893 74.8189C974.865 78.9397 976.388 83.8558 980.293 85.7992C984.197 87.7426 989.006 85.9774 991.033 81.8566C993.06 77.7357 991.538 72.8197 987.633 70.8763ZM1000.47 58.7403C1002.49 54.6194 1007.3 52.8542 1011.21 54.7977C1015.11 56.7411 1016.63 61.6571 1014.61 65.778C1012.58 69.8988 1007.77 71.664 1003.87 69.7206C999.962 67.7771 998.44 62.8611 1000.47 58.7403ZM979.899 37.8467C975.994 35.9033 971.185 37.6685 969.158 41.7893C967.131 45.9102 968.653 50.8262 972.558 52.7696C976.463 54.713 981.272 52.9479 983.299 48.827C985.326 44.7062 983.804 39.7901 979.899 37.8467ZM982.304 8.39728C984.331 4.27643 989.14 2.51127 993.045 4.45469C996.95 6.39809 998.472 11.3142 996.445 15.435C994.418 19.5559 989.609 21.321 985.704 19.3776C981.799 17.4342 980.277 12.5181 982.304 8.39728ZM1041.14 58.6832C1037.24 56.7398 1032.43 58.505 1030.4 62.6258C1028.37 66.7467 1029.9 71.6627 1033.8 73.6061C1037.71 75.5496 1042.51 73.7844 1044.54 69.6635C1046.57 65.5427 1045.05 60.6266 1041.14 58.6832ZM1029.35 10.6641C1031.38 6.54327 1036.18 4.77811 1040.09 6.72152C1043.99 8.66494 1045.52 13.581 1043.49 17.7018C1041.46 21.8227 1036.65 23.5879 1032.75 21.6444C1028.84 19.701 1027.32 14.785 1029.35 10.6641ZM1016.12 -30.1168C1012.21 -32.0602 1007.41 -30.295 1005.38 -26.1742C1003.35 -22.0533 1004.87 -17.1373 1008.78 -15.1939C1012.68 -13.2504 1017.49 -15.0156 1019.52 -19.1365C1021.55 -23.2573 1020.02 -28.1734 1016.12 -30.1168ZM1050.51 32.5092C1052.54 28.3883 1057.35 26.6232 1061.25 28.5666C1065.16 30.51 1066.68 35.4261 1064.65 39.5469C1062.62 43.6678 1057.82 45.4329 1053.91 43.4895C1050.01 41.5461 1048.48 36.63 1050.51 32.5092ZM1016.71 26.4471C1012.81 24.5037 1008 26.2689 1005.97 30.3897C1003.94 34.5106 1005.47 39.4266 1009.37 41.37C1013.28 43.3135 1018.08 41.5483 1020.11 37.4274C1022.14 33.3066 1020.62 28.3905 1016.71 26.4471ZM805.251 84.4057C807.278 80.2848 812.086 78.5197 815.991 80.4631C819.896 82.4065 821.418 87.3225 819.391 91.4434C817.364 95.5642 812.555 97.3294 808.651 95.386C804.746 93.4426 803.223 88.5265 805.251 84.4057ZM828.526 44.2499C824.622 42.3065 819.813 44.0716 817.786 48.1925C815.759 52.3133 817.281 57.2294 821.186 59.1728C825.091 61.1162 829.899 59.351 831.926 55.2302C833.954 51.1093 832.431 46.1933 828.526 44.2499ZM786.178 16.3951C788.205 12.2742 793.013 10.5091 796.918 12.4525C800.823 14.3959 802.345 19.312 800.318 23.4328C798.291 27.5537 793.483 29.3188 789.578 27.3754C785.673 25.432 784.151 20.5159 786.178 16.3951ZM864.588 -4.26554C860.683 -6.20895 855.874 -4.4438 853.847 -0.322959C851.82 3.79792 853.342 8.71395 857.247 10.6574C861.152 12.6008 865.961 10.8356 867.988 6.71477C870.015 2.59393 868.492 -2.32211 864.588 -4.26554ZM879.799 52.4021C881.826 48.2813 886.635 46.5161 890.539 48.4595C894.444 50.4029 895.967 55.319 893.94 59.4398C891.912 63.5607 887.104 65.3258 883.199 63.3824C879.294 61.439 877.772 56.5229 879.799 52.4021ZM869.62 25.7275C865.715 23.7841 860.907 25.5492 858.879 29.6701C856.852 33.7909 858.375 38.707 862.28 40.6504C866.184 42.5938 870.993 40.8286 873.02 36.7078C875.047 32.5869 873.525 27.6709 869.62 25.7275ZM823.602 7.81646C825.629 3.69562 830.438 1.93046 834.343 3.87387C838.248 5.8173 839.77 10.7333 837.743 14.8542C835.716 18.975 830.907 20.7402 827.002 18.7968C823.097 16.8534 821.575 11.9373 823.602 7.81646ZM855.206 214.704C851.301 212.761 846.492 214.526 844.465 218.647C842.438 222.767 843.961 227.683 847.865 229.627C851.77 231.57 856.579 229.805 858.606 225.684C860.633 221.563 859.111 216.647 855.206 214.704ZM868.919 170.27C870.946 166.149 875.754 164.384 879.659 166.327C883.564 168.271 885.086 173.187 883.059 177.307C881.032 181.428 876.224 183.193 872.319 181.25C868.414 179.307 866.892 174.391 868.919 170.27ZM917.719 79.9563C913.814 78.0129 909.006 79.778 906.978 83.8989C904.951 88.0197 906.474 92.9358 910.379 94.8792C914.283 96.8226 919.092 95.0574 921.119 90.9366C923.146 86.8158 921.624 81.8997 917.719 79.9563ZM873.515 124.251C875.542 120.13 880.351 118.365 884.256 120.309C888.16 122.252 889.683 127.168 887.656 131.289C885.629 135.41 880.82 137.175 876.915 135.232C873.01 133.288 871.488 128.372 873.515 124.251ZM878.765 94.9174C874.86 92.974 870.051 94.7392 868.024 98.86C865.997 102.981 867.519 107.897 871.424 109.84C875.329 111.784 880.138 110.019 882.165 105.898C884.192 101.777 882.67 96.8609 878.765 94.9174ZM897.95 129.617C899.977 125.496 904.786 123.731 908.69 125.674C912.595 127.617 914.118 132.533 912.091 136.654C910.064 140.775 905.255 142.54 901.35 140.597C897.445 138.653 895.923 133.737 897.95 129.617ZM958.495 100.33C954.59 98.3867 949.782 100.152 947.755 104.273C945.727 108.393 947.25 113.31 951.155 115.253C955.059 117.196 959.868 115.431 961.895 111.31C963.922 107.19 962.4 102.273 958.495 100.33ZM920.123 50.5068C922.15 46.386 926.959 44.6208 930.864 46.5643C934.769 48.5077 936.291 53.4237 934.264 57.5446C932.237 61.6654 927.428 63.4306 923.523 61.4872C919.618 59.5438 918.096 54.6277 920.123 50.5068ZM1018.07 93.2548C1014.16 91.3114 1009.35 93.0765 1007.33 97.1974C1005.3 101.318 1006.82 106.234 1010.73 108.178C1014.63 110.121 1019.44 108.356 1021.47 104.235C1023.49 100.114 1021.97 95.1982 1018.07 93.2548ZM938.903 76.7999C940.93 72.679 945.739 70.9139 949.644 72.8573C953.549 74.8007 955.071 79.7168 953.044 83.8376C951.017 87.9585 946.208 89.7236 942.303 87.7802C938.398 85.8368 936.876 80.9208 938.903 76.7999ZM986.727 183.788C982.822 181.845 978.013 183.61 975.986 187.731C973.959 191.851 975.482 196.767 979.386 198.711C983.291 200.654 988.1 198.889 990.127 194.768C992.154 190.647 990.632 185.731 986.727 183.788ZM973.27 155C975.297 150.88 980.106 149.114 984.011 151.058C987.916 153.001 989.438 157.917 987.411 162.038C985.384 166.159 980.575 167.924 976.67 165.981C972.765 164.037 971.243 159.121 973.27 155ZM986.901 110.598C982.997 108.654 978.188 110.42 976.161 114.54C974.134 118.661 975.656 123.577 979.561 125.521C983.466 127.464 988.275 125.699 990.302 121.578C992.329 117.457 990.806 112.541 986.901 110.598ZM1029.46 148.133C1031.48 144.013 1036.29 142.247 1040.2 144.191C1044.1 146.134 1045.62 151.05 1043.6 155.171C1041.57 159.292 1036.76 161.057 1032.86 159.114C1028.95 157.17 1027.43 152.254 1029.46 148.133ZM1021.74 128.038C1017.83 126.095 1013.02 127.86 1011 131.981C1008.97 136.101 1010.49 141.017 1014.4 142.961C1018.3 144.904 1023.11 143.139 1025.14 139.018C1027.16 134.897 1025.64 129.981 1021.74 128.038ZM1052.07 149.345C1054.09 145.224 1058.9 143.459 1062.81 145.402C1066.71 147.346 1068.23 152.262 1066.21 156.383C1064.18 160.503 1059.37 162.269 1055.47 160.325C1051.56 158.382 1050.04 153.466 1052.07 149.345ZM988.09 223.725C984.185 221.781 979.377 223.547 977.35 227.667C975.323 231.788 976.845 236.704 980.75 238.648C984.655 240.591 989.463 238.826 991.49 234.705C993.517 230.584 991.995 225.668 988.09 223.725ZM1005.93 164.745C1007.96 160.624 1012.77 158.859 1016.67 160.802C1020.58 162.746 1022.1 167.662 1020.07 171.783C1018.05 175.904 1013.24 177.669 1009.33 175.725C1005.43 173.782 1003.9 168.866 1005.93 164.745ZM962.606 139.527C958.701 137.583 953.892 139.348 951.865 143.469C949.838 147.59 951.36 152.506 955.265 154.45C959.17 156.393 963.979 154.628 966.006 150.507C968.033 146.386 966.511 141.47 962.606 139.527ZM1053.45 108.668C1055.48 104.547 1060.29 102.782 1064.19 104.725C1068.1 106.669 1069.62 111.585 1067.59 115.706C1065.57 119.826 1060.76 121.592 1056.85 119.648C1052.95 117.705 1051.43 112.789 1053.45 108.668ZM1059.77 77.5537C1055.87 75.6103 1051.06 77.3754 1049.03 81.4963C1047 85.6171 1048.53 90.5332 1052.43 92.4766C1056.34 94.42 1061.14 92.6549 1063.17 88.534C1065.2 84.4131 1063.68 79.4971 1059.77 77.5537ZM859.438 74.651C857.637 78.8761 852.923 80.919 848.909 79.2139C844.895 77.5089 843.101 72.7016 844.902 68.4765C846.703 64.2515 851.417 62.2086 855.431 63.9137C859.445 65.6187 861.239 70.426 859.438 74.651ZM847.041 163.573C851.055 165.278 855.769 163.235 857.57 159.01C859.371 154.785 857.576 149.977 853.562 148.272C849.548 146.567 844.834 148.61 843.033 152.835C841.232 157.06 843.027 161.867 847.041 163.573ZM852.849 116.991C851.048 121.217 846.334 123.259 842.319 121.554C838.305 119.849 836.511 115.042 838.312 110.817C840.113 106.592 844.827 104.549 848.841 106.254C852.855 107.959 854.649 112.766 852.849 116.991ZM809.174 123.011C813.188 124.716 817.902 122.673 819.703 118.448C821.504 114.223 819.709 109.416 815.695 107.711C811.681 106.006 806.967 108.049 805.166 112.274C803.365 116.499 805.159 121.306 809.174 123.011ZM835.122 142.66C833.321 146.885 828.607 148.928 824.593 147.223C820.579 145.518 818.784 140.71 820.585 136.485C822.386 132.26 827.1 130.217 831.114 131.923C835.129 133.628 836.923 138.435 835.122 142.66ZM794.038 167.387C798.052 169.092 802.766 167.049 804.567 162.824C806.368 158.599 804.574 153.792 800.56 152.087C796.545 150.382 791.831 152.425 790.031 156.65C788.23 160.875 790.024 165.682 794.038 167.387ZM786.541 173.646C784.74 177.871 780.026 179.914 776.012 178.209C771.998 176.504 770.204 171.697 772.004 167.472C773.805 163.247 778.519 161.204 782.534 162.909C786.548 164.614 788.342 169.421 786.541 173.646ZM808.387 193.38C812.401 195.085 817.115 193.042 818.916 188.817C820.717 184.592 818.923 179.785 814.909 178.08C810.894 176.375 806.18 178.418 804.379 182.643C802.579 186.868 804.373 191.675 808.387 193.38ZM943.878 134.291C942.078 138.516 937.364 140.559 933.349 138.854C929.335 137.149 927.541 132.341 929.342 128.116C931.143 123.891 935.857 121.848 939.871 123.553C943.885 125.258 945.679 130.066 943.878 134.291ZM961.581 222.312C965.595 224.017 970.309 221.974 972.11 217.749C973.911 213.524 972.117 208.717 968.103 207.012C964.089 205.307 959.374 207.349 957.574 211.574C955.773 215.8 957.567 220.607 961.581 222.312ZM925.083 161.739C923.282 165.964 918.568 168.007 914.554 166.302C910.54 164.597 908.745 159.79 910.546 155.565C912.347 151.34 917.061 149.297 921.075 151.002C925.09 152.707 926.884 157.514 925.083 161.739ZM942.653 188.595C946.667 190.3 951.381 188.257 953.182 184.032C954.983 179.807 953.189 175 949.174 173.295C945.16 171.59 940.446 173.633 938.645 177.858C936.844 182.083 938.639 186.89 942.653 188.595ZM850.533 193.743C848.733 197.968 844.018 200.011 840.004 198.306C835.99 196.601 834.196 191.794 835.997 187.569C837.798 183.344 842.512 181.301 846.526 183.006C850.54 184.711 852.334 189.518 850.533 193.743ZM914.085 197.775C918.099 199.481 922.813 197.438 924.614 193.213C926.415 188.988 924.621 184.18 920.607 182.475C916.592 180.77 911.878 182.813 910.077 187.038C908.277 191.263 910.071 196.07 914.085 197.775ZM1047.27 188.567C1045.47 192.792 1040.76 194.834 1036.74 193.129C1032.73 191.424 1030.93 186.617 1032.73 182.392C1034.53 178.167 1039.25 176.124 1043.26 177.829C1047.28 179.534 1049.07 184.341 1047.27 188.567ZM1059.59 196.915C1063.6 198.62 1068.31 196.577 1070.12 192.352C1071.92 188.127 1070.12 183.319 1066.11 181.614C1062.09 179.909 1057.38 181.952 1055.58 186.177C1053.78 190.402 1055.57 195.21 1059.59 196.915ZM1072.42 227.215C1070.62 231.44 1065.91 233.483 1061.89 231.777C1057.88 230.072 1056.09 225.265 1057.89 221.04C1059.69 216.815 1064.4 214.772 1068.42 216.477C1072.43 218.182 1074.22 222.99 1072.42 227.215ZM1005.58 210.473C1009.59 212.178 1014.31 210.135 1016.11 205.91C1017.91 201.685 1016.11 196.877 1012.1 195.172C1008.08 193.467 1003.37 195.51 1001.57 199.735C999.769 203.96 1001.56 208.768 1005.58 210.473ZM1048.17 233.105C1046.37 237.33 1041.66 239.373 1037.65 237.668C1033.63 235.963 1031.84 231.156 1033.64 226.931C1035.44 222.706 1040.15 220.663 1044.17 222.368C1048.18 224.073 1049.97 228.88 1048.17 233.105ZM1045.58 274.344C1049.59 276.049 1054.3 274.006 1056.11 269.781C1057.91 265.556 1056.11 260.749 1052.1 259.044C1048.08 257.339 1043.37 259.381 1041.57 263.607C1039.77 267.832 1041.56 272.639 1045.58 274.344ZM992.713 279.377C990.912 283.602 986.198 285.645 982.184 283.94C978.17 282.235 976.376 277.428 978.176 273.202C979.977 268.977 984.691 266.935 988.706 268.64C992.72 270.345 994.514 275.152 992.713 279.377ZM1006.06 241.942C1010.07 243.647 1014.78 241.604 1016.59 237.379C1018.39 233.154 1016.59 228.347 1012.58 226.642C1008.56 224.937 1003.85 226.979 1002.05 231.204C1000.25 235.43 1002.04 240.237 1006.06 241.942ZM1078.95 273.566C1077.15 277.792 1072.44 279.834 1068.42 278.129C1064.41 276.424 1062.61 271.617 1064.41 267.392C1066.22 263.167 1070.93 261.124 1074.94 262.829C1078.96 264.534 1080.75 269.341 1078.95 273.566ZM1066.8 311.922C1070.81 313.627 1075.52 311.585 1077.33 307.36C1079.13 303.135 1077.33 298.327 1073.32 296.622C1069.3 294.917 1064.59 296.96 1062.79 301.185C1060.99 305.41 1062.78 310.217 1066.8 311.922ZM1054.57 303.035C1052.77 307.26 1048.05 309.303 1044.04 307.598C1040.02 305.893 1038.23 301.085 1040.03 296.86C1041.83 292.635 1046.54 290.592 1050.56 292.297C1054.57 294.003 1056.37 298.81 1054.57 303.035ZM1012.58 288.294C1016.6 289.999 1021.31 287.956 1023.11 283.731C1024.91 279.506 1023.12 274.699 1019.1 272.994C1015.09 271.289 1010.38 273.332 1008.57 277.557C1006.77 281.782 1008.57 286.589 1012.58 288.294ZM1051.96 338.069C1050.16 342.294 1045.45 344.337 1041.43 342.632C1037.42 340.927 1035.62 336.12 1037.42 331.895C1039.22 327.67 1043.94 325.627 1047.95 327.332C1051.97 329.037 1053.76 333.844 1051.96 338.069ZM1059.45 358.681C1063.47 360.386 1068.18 358.343 1069.98 354.118C1071.78 349.893 1069.99 345.086 1065.97 343.38C1061.96 341.675 1057.24 343.718 1055.44 347.943C1053.64 352.168 1055.44 356.976 1059.45 358.681ZM1004.31 306.11C1002.51 310.335 997.8 312.378 993.786 310.673C989.771 308.967 987.977 304.16 989.778 299.935C991.579 295.71 996.293 293.667 1000.31 295.372C1004.32 297.077 1006.12 301.885 1004.31 306.11ZM1014.89 323.156C1018.91 324.861 1023.62 322.819 1025.42 318.594C1027.22 314.369 1025.43 309.561 1021.41 307.856C1017.4 306.151 1012.69 308.194 1010.88 312.419C1009.08 316.644 1010.88 321.451 1014.89 323.156ZM876.876 230.496C881.273 230.154 884.969 233.56 885.132 238.103C885.295 242.646 881.862 246.607 877.466 246.949C873.069 247.291 869.373 243.885 869.21 239.342C869.047 234.798 872.48 230.838 876.876 230.496ZM911.593 252.543C911.43 248 907.734 244.594 903.337 244.936C898.941 245.278 895.508 249.238 895.671 253.782C895.834 258.325 899.53 261.731 903.927 261.389C908.323 261.047 911.756 257.086 911.593 252.543ZM908.202 208.245C912.598 207.903 916.295 211.309 916.457 215.852C916.62 220.395 913.188 224.356 908.791 224.698C904.395 225.04 900.698 221.634 900.536 217.091C900.373 212.547 903.805 208.587 908.202 208.245ZM890.801 204.844C890.638 200.3 886.942 196.895 882.546 197.237C878.149 197.579 874.717 201.539 874.879 206.082C875.042 210.626 878.738 214.031 883.135 213.689C887.532 213.347 890.964 209.387 890.801 204.844ZM941.331 260.531C945.727 260.188 949.424 263.594 949.586 268.137C949.749 272.681 946.317 276.641 941.92 276.983C937.524 277.325 933.827 273.919 933.665 269.376C933.502 264.833 936.934 260.873 941.331 260.531ZM956.774 240.827C956.611 236.284 952.915 232.878 948.518 233.22C944.122 233.562 940.689 237.523 940.852 242.066C941.015 246.609 944.711 250.015 949.108 249.673C953.504 249.331 956.937 245.371 956.774 240.827ZM784.208 92.3405C788.605 91.9984 792.301 95.4042 792.464 99.9474C792.627 104.491 789.194 108.451 784.798 108.793C780.401 109.135 776.705 105.729 776.542 101.186C776.379 96.6429 779.812 92.6825 784.208 92.3405ZM969.437 292.65C969.274 288.107 965.578 284.701 961.181 285.043C956.784 285.385 953.352 289.346 953.515 293.889C953.678 298.432 957.374 301.838 961.77 301.496C966.167 301.154 969.599 297.193 969.437 292.65ZM927.75 217.911C932.147 217.569 935.843 220.975 936.006 225.518C936.168 230.062 932.736 234.022 928.339 234.364C923.943 234.706 920.247 231.3 920.084 226.757C919.921 222.214 923.353 218.253 927.75 217.911ZM678.418 105.609C678.255 101.065 674.559 97.6596 670.163 98.0016C665.766 98.3437 662.334 102.304 662.497 106.847C662.659 111.391 666.355 114.796 670.752 114.454C675.149 114.112 678.581 110.152 678.418 105.609ZM696.625 112.441C701.022 112.099 704.718 115.505 704.88 120.048C705.043 124.592 701.611 128.552 697.214 128.894C692.818 129.236 689.122 125.83 688.959 121.287C688.796 116.744 692.228 112.784 696.625 112.441ZM651.331 93.1464C651.168 88.6031 647.472 85.1974 643.075 85.5394C638.679 85.8815 635.247 89.8418 635.409 94.3851C635.572 98.9284 639.268 102.334 643.665 101.992C648.061 101.65 651.494 97.6897 651.331 93.1464ZM715.793 45.0724C720.19 44.7303 723.886 48.1361 724.048 52.6793C724.211 57.2226 720.779 61.1829 716.382 61.525C711.986 61.867 708.29 58.4613 708.127 53.918C707.964 49.3748 711.396 45.4144 715.793 45.0724ZM686.923 76.1042C686.761 71.561 683.064 68.1552 678.668 68.4973C674.271 68.8393 670.839 72.7997 671.002 77.343C671.165 81.8862 674.861 85.292 679.257 84.9499C683.654 84.6078 687.086 80.6475 686.923 76.1042ZM723.099 132.669C727.496 132.327 731.192 135.733 731.354 140.276C731.517 144.82 728.085 148.78 723.688 149.122C719.292 149.464 715.596 146.058 715.433 141.515C715.27 136.972 718.702 133.011 723.099 132.669ZM730.459 109.809C730.296 105.266 726.6 101.86 722.203 102.202C717.806 102.544 714.374 106.504 714.537 111.047C714.7 115.591 718.396 118.996 722.792 118.654C727.189 118.312 730.621 114.352 730.459 109.809ZM750.896 140.116C755.292 139.774 758.989 143.18 759.151 147.723C759.314 152.266 755.882 156.227 751.485 156.569C747.089 156.911 743.392 153.505 743.23 148.962C743.067 144.418 746.499 140.458 750.896 140.116ZM754.636 116.177C754.473 111.634 750.777 108.228 746.38 108.57C741.983 108.912 738.551 112.873 738.714 117.416C738.877 121.959 742.573 125.365 746.97 125.023C751.366 124.681 754.798 120.721 754.636 116.177ZM768.178 65.3072C772.575 64.9651 776.271 68.3709 776.434 72.9141C776.597 77.4574 773.164 81.4177 768.768 81.7598C764.371 82.1019 760.675 78.6961 760.512 74.1529C760.349 69.6096 763.782 65.6492 768.178 65.3072ZM805 63.7342C804.837 59.191 801.141 55.7852 796.745 56.1272C792.348 56.4693 788.916 60.4296 789.079 64.9729C789.241 69.5162 792.938 72.9219 797.334 72.5799C801.731 72.2378 805.163 68.2775 805 63.7342ZM754.288 34.7131C758.684 34.371 762.38 37.7768 762.543 42.3201C762.706 46.8633 759.274 50.8236 754.877 51.1657C750.48 51.5078 746.784 48.102 746.622 43.5588C746.459 39.0155 749.891 35.0552 754.288 34.7131ZM888.423 -21.4102C888.261 -25.9535 884.565 -29.3592 880.168 -29.0172C875.771 -28.6751 872.339 -24.7148 872.502 -20.1715C872.665 -15.6282 876.361 -12.2225 880.757 -12.5645C885.154 -12.9066 888.586 -16.8669 888.423 -21.4102ZM732.892 70.3248C737.288 69.9828 740.985 73.3885 741.147 77.9318C741.31 82.4751 737.878 86.4354 733.481 86.7774C729.085 87.1195 725.389 83.7138 725.226 79.1705C725.063 74.6272 728.495 70.6669 732.892 70.3248ZM786.496 132.901C786.334 128.357 782.637 124.952 778.241 125.294C773.844 125.636 770.412 129.596 770.575 134.139C770.737 138.683 774.434 142.088 778.83 141.746C783.227 141.404 786.659 137.444 786.496 132.901Z" fill="#95F1F7" fill-opacity="0.5"/>
<path d="M593.582 536.945L591.533 537.385C577.095 540.484 561.884 537.383 549.638 528.844L537.042 520.063C528.671 514.226 519.566 509.518 509.974 506.064C486.728 497.696 470.564 476.194 469.028 451.871C467.035 420.305 491.822 393.641 523.707 393.407L552.327 393.197C555.201 393.176 558.072 393.562 560.853 394.344L576.002 398.602C629.834 413.734 652.129 477.767 618.681 521.18C612.49 529.215 603.61 534.793 593.582 536.945Z" fill="#95F1F7" fill-opacity="0.6"/>
<path d="M190.24 432.798L155.108 471.23C154.452 471.948 155.104 473.086 156.056 472.882L171.415 469.598C171.886 469.497 172.363 469.747 172.548 470.192L178.51 484.572C178.883 485.473 180.192 485.362 180.409 484.411L191.954 433.695C192.181 432.694 190.933 432.04 190.24 432.798Z" stroke="#95F1F7" stroke-width="9"/>
<path opacity="0.6" d="M435.338 120.858L433.058 124.772C429.59 130.725 423.754 134.936 416.942 136.398C408.518 138.205 399.651 135.83 393.163 130.027L383.857 121.705C378.175 116.624 371.834 112.321 365.011 108.916C350.982 101.916 341.484 88.2728 339.928 72.8851L339.771 71.3333C337.139 45.3259 358.149 23.4108 384.478 24.6985L386.063 24.776C388.839 24.9118 391.582 25.516 394.172 26.5626L403.044 30.1475C439.336 44.8127 454.623 87.7511 435.338 120.858Z" fill="#95F1F7" fill-opacity="0.6"/>
<path opacity="0.8" d="M835.382 474.324C835.382 483.34 827.686 490.648 818.191 490.648C808.697 490.648 801 483.34 801 474.324C801 465.309 808.697 458 818.191 458C827.686 458 835.382 465.309 835.382 474.324Z" fill="#705EDF" fill-opacity="0.5"/>
<path opacity="0.5" fill-rule="evenodd" clip-rule="evenodd" d="M133.865 251.094C133.163 250.213 132.429 249.354 131.664 248.52C131.118 247.925 130.56 247.347 129.989 246.785L-40.1844 419.931C-39.6706 420.551 -39.1407 421.158 -38.5946 421.753C-37.8292 422.587 -37.0398 423.389 -36.2274 424.158L133.865 251.094ZM138.264 257.625L-30.1798 429.012C-28.5347 430.125 -26.822 431.134 -25.0472 432.042L140.964 263.131C140.164 261.232 139.264 259.395 138.264 257.625ZM143.717 271.334L-17.3555 435.221C-15.2652 435.899 -13.1112 436.46 -10.9001 436.905L145.094 278.186C144.747 275.844 144.289 273.557 143.717 271.334ZM145.9 288.364L-1.26769 438.103C1.38224 438.242 4.09213 438.238 6.85237 438.093L145.613 296.909C145.845 294.009 145.941 291.158 145.9 288.364ZM143.752 309.808L19.1589 436.578C22.6714 435.909 26.2378 435.036 29.8408 433.962L140.903 320.96C142.045 317.205 142.997 313.482 143.752 309.808ZM134.075 338.913L47.1143 427.393C52.9285 424.709 58.7655 421.539 64.5568 417.899L124.465 356.944C128.119 350.974 131.328 344.94 134.075 338.913ZM-44.6922 413.518L124.057 241.821C122.442 240.679 120.758 239.639 119.012 238.701L-47.4798 408.102C-46.6494 409.971 -45.7207 411.778 -44.6922 413.518ZM-50.3574 400.026L111.446 235.395C109.391 234.684 107.271 234.088 105.094 233.606L-51.8377 393.279C-51.4552 395.587 -50.9624 397.838 -50.3574 400.026ZM-52.7999 383.251L95.6096 232.249C93.006 232.066 90.3421 232.023 87.6273 232.118L-52.6502 374.846C-52.8341 377.7 -52.8848 380.505 -52.7999 383.251ZM-51.0243 362.194L75.5627 233.395C72.1319 233.989 68.6467 234.78 65.1232 235.764L-48.4175 351.289C-49.473 354.963 -50.3432 358.603 -51.0243 362.194ZM-42.1276 333.881L48.3864 241.786C42.9048 244.192 37.3942 247.032 31.9125 250.295L-33.4863 316.836C-36.7711 322.493 -39.6563 328.194 -42.1276 333.881Z" fill="#95F1F7"/>
</g>
<defs>
<clipPath id="clip0">
<rect width="862" height="485" fill="white"/>
</clipPath>
</defs>
</svg>
