<svg width="80" height="20" viewBox="0 0 80 20" fill="none" xmlns="http://www.w3.org/2000/svg">
<g clip-path="url(#clip0)">
<path d="M5.58286 8.73131C5.58273 8.72682 5.58256 8.72233 5.5823 8.71789C5.57552 8.60286 5.57764 8.48282 5.57984 8.35575C5.58191 8.23809 5.58402 8.11641 5.5791 7.99081C5.57324 7.84165 5.56068 7.69538 5.54856 7.5539C5.53954 7.4484 5.53095 7.34878 5.52508 7.24898C5.52042 7.16997 5.51736 7.09075 5.5143 7.01149C5.50795 6.84701 5.50135 6.67706 5.48142 6.50252C5.46157 6.25322 5.24734 6.05392 4.98078 6.03782C4.70627 6.00508 4.45947 6.01017 4.22065 6.015C4.13962 6.01668 4.05725 6.01837 3.9722 6.01858C3.9272 6.01496 3.88224 6.0112 3.83737 6.00749C3.61969 5.98941 3.39459 5.97069 3.16854 5.96486C2.96846 5.95981 2.77167 5.96573 2.58143 5.97151C2.50389 5.97388 2.42644 5.97621 2.34904 5.97781C2.26145 5.97962 2.17373 5.98027 2.08592 5.98096C1.90691 5.98238 1.72176 5.9838 1.53415 5.99433C1.36847 6.00361 1.2036 6.02035 1.04417 6.03657C0.93889 6.04727 0.830072 6.05832 0.724965 6.06673C0.604497 6.0764 0.493651 6.13607 0.419308 6.2313C0.344965 6.32653 0.313942 6.44859 0.333833 6.56776C0.375082 6.81534 0.397605 7.07751 0.417453 7.30878L0.41879 7.32435C0.44058 7.57858 0.461161 7.81874 0.468021 8.06006C0.476263 8.35368 0.479542 8.59639 0.478334 8.82386C0.477686 8.94748 0.479887 9.07062 0.482044 9.18975C0.48459 9.33097 0.486963 9.46439 0.484979 9.59806C0.48377 9.68081 0.482174 9.76361 0.480577 9.84641C0.477298 10.0181 0.473889 10.1954 0.47376 10.372C0.466554 10.5187 0.45361 10.6654 0.439932 10.8206C0.430699 10.9255 0.421466 11.0305 0.413958 11.1356C0.399935 11.3328 0.382115 11.5353 0.364942 11.7311L0.34915 11.9115C0.338233 12.0377 0.330251 12.1639 0.322571 12.2859C0.313683 12.4263 0.305356 12.5588 0.292886 12.6918C0.280416 12.8245 0.269716 12.9575 0.259015 13.0906C0.248703 13.2185 0.238434 13.3465 0.226482 13.4746C0.215781 13.5891 0.199256 13.7051 0.181738 13.8279C0.161976 13.9665 0.141567 14.1098 0.128968 14.2577C0.115161 14.4199 0.105885 14.5824 0.0969531 14.7396C0.091085 14.8425 0.0852596 14.9454 0.0780971 15.0482C0.0713661 15.1454 0.0632113 15.2426 0.0550565 15.3399C0.041465 15.5028 0.0273557 15.6712 0.0192439 15.8456L0.0157493 15.9383C0.0079827 16.1435 -4.29743e-05 16.3556 1.73206e-07 16.5696C1.73206e-07 16.7129 0.00875921 16.8522 0.0172161 16.9869C0.0237745 17.0911 0.0299444 17.1895 0.0320586 17.2866C0.0343454 17.3917 0.0330512 17.4974 0.0317136 17.6094C0.0302035 17.7353 0.0286069 17.8656 0.0324471 17.9979C0.0367618 18.1467 0.0395231 18.2953 0.0422846 18.4436C0.0439242 18.5299 0.0455208 18.6162 0.0474193 18.7023C0.0495335 18.7981 0.0531583 18.8938 0.0567827 18.9892C0.0621762 19.1317 0.0673102 19.2663 0.0673102 19.4C0.0673102 19.601 0.206332 19.776 0.402178 19.8211C0.460039 19.8345 0.518159 19.8355 0.573776 19.8255C0.677675 19.826 0.781531 19.8275 0.885474 19.829C1.01694 19.8308 1.14841 19.8327 1.27993 19.8327C1.40152 19.8327 1.52345 19.8371 1.65255 19.8418C1.78368 19.8466 1.91929 19.8516 2.05658 19.8516C2.20009 19.8516 2.33886 19.8425 2.473 19.8338C2.59891 19.8256 2.71786 19.8178 2.83324 19.8178C2.96441 19.8178 3.09558 19.8163 3.22675 19.8147C3.35446 19.8131 3.48218 19.8116 3.60989 19.8116L4.38655 19.8119C4.51418 19.8119 4.63849 19.8135 4.76284 19.815C4.89069 19.8166 5.01858 19.8182 5.14983 19.8182C5.29938 19.8182 5.43827 19.7407 5.51684 19.6135C5.59546 19.4864 5.60262 19.3275 5.53574 19.1938C5.47382 19.0699 5.44742 18.9773 5.44742 18.8841C5.44742 18.8603 5.44548 18.8365 5.44155 18.8131C5.42425 18.7093 5.41963 18.6061 5.41471 18.4968C5.40932 18.3763 5.40319 18.2402 5.37912 18.0902C5.35314 17.8495 5.32669 17.5938 5.3112 17.3403C5.30624 17.2597 5.30059 17.1791 5.29489 17.0986C5.28203 16.9167 5.26991 16.7448 5.26637 16.5737C5.26007 16.2696 5.25843 16.0246 5.26132 15.8028C5.26296 15.678 5.27569 15.5483 5.2892 15.411C5.30128 15.2884 5.31375 15.1616 5.31888 15.0305C5.32212 14.9485 5.32492 14.8666 5.32777 14.7847C5.33381 14.61 5.34002 14.4294 5.35016 14.2545C5.35491 14.1721 5.35948 14.0897 5.36401 14.0073C5.37364 13.8325 5.3836 13.6518 5.39573 13.4757C5.40488 13.343 5.4104 13.2107 5.41571 13.0829C5.42131 12.948 5.42658 12.8206 5.43577 12.6932C5.44444 12.5736 5.45622 12.4549 5.46865 12.3293C5.48215 12.1928 5.49613 12.0516 5.5058 11.9092C5.51715 11.742 5.5253 11.5739 5.5332 11.4112C5.5379 11.3142 5.5426 11.2171 5.548 11.12C5.55391 11.0132 5.56275 10.9066 5.57211 10.7937C5.58463 10.6429 5.59757 10.4869 5.60318 10.328C5.61121 10.1011 5.61272 9.87282 5.61418 9.65208L5.61505 9.53075C5.61634 9.36148 5.60681 9.19635 5.59757 9.03666C5.59136 8.93104 5.58562 8.83115 5.58286 8.73131ZM4.75119 9.64647C4.74977 9.86113 4.7483 10.0831 4.74071 10.2977C4.73583 10.4361 4.72427 10.5752 4.71206 10.7225C4.70261 10.8362 4.69285 10.9538 4.6863 11.0724C4.68082 11.1714 4.67603 11.2705 4.67119 11.3695C4.66351 11.528 4.65558 11.692 4.64479 11.8509C4.63603 11.98 4.6233 12.1084 4.60984 12.2443C4.59737 12.37 4.58451 12.5 4.57502 12.631C4.56488 12.7717 4.55905 12.9117 4.55345 13.0471C4.54814 13.1749 4.54313 13.2955 4.53481 13.4165C4.52225 13.5985 4.51211 13.7823 4.50236 13.9601C4.49787 14.0416 4.49338 14.1232 4.48864 14.2047C4.47794 14.3897 4.47155 14.5755 4.46534 14.7551C4.46258 14.8356 4.45982 14.9162 4.45662 14.9968C4.45248 15.1026 4.44174 15.2114 4.43043 15.3267C4.41576 15.476 4.40053 15.6303 4.39846 15.7919C4.39548 16.0236 4.39708 16.2778 4.40359 16.5918C4.40756 16.7844 4.42107 16.9751 4.4341 17.1596C4.43958 17.2374 4.4451 17.3153 4.44985 17.3932C4.46676 17.6692 4.49494 17.9405 4.52242 18.1947C4.52333 18.2029 4.52445 18.2112 4.52583 18.2193C4.54313 18.3231 4.54775 18.4263 4.55267 18.5356C4.5578 18.6505 4.56358 18.7795 4.58503 18.9213C4.58529 18.931 4.58563 18.9405 4.58611 18.9502C4.52022 18.9495 4.45386 18.9491 4.38659 18.9491L3.60994 18.9488C3.47877 18.9488 3.3476 18.9504 3.21643 18.9519C3.08872 18.9534 2.961 18.955 2.83328 18.955C2.68977 18.955 2.55101 18.964 2.41687 18.9728C2.29096 18.981 2.172 18.9888 2.05663 18.9888C1.93504 18.9888 1.8131 18.9843 1.68401 18.9796C1.55288 18.9748 1.41727 18.9699 1.27997 18.9699C1.15985 18.9699 1.03973 18.9683 0.91956 18.9665C0.919431 18.9632 0.919302 18.9599 0.919172 18.9566C0.915721 18.8658 0.912226 18.7747 0.910241 18.6834C0.908385 18.5983 0.906789 18.513 0.905192 18.4276C0.902388 18.2763 0.899583 18.1247 0.895139 17.973C0.891816 17.8584 0.893241 17.7426 0.894708 17.62C0.896131 17.5057 0.897555 17.3875 0.894923 17.2679C0.89242 17.1531 0.885387 17.0411 0.87857 16.9327C0.870588 16.8058 0.863037 16.6859 0.863037 16.5696C0.862994 16.372 0.870717 16.1681 0.878182 15.971L0.881504 15.8818C0.88871 15.7273 0.901482 15.5741 0.915073 15.4119C0.92353 15.3106 0.931987 15.2094 0.93902 15.1081C0.946398 15.0016 0.952482 14.8951 0.958522 14.7887C0.967497 14.6306 0.975998 14.4812 0.988812 14.3311C0.99934 14.2075 1.0172 14.0822 1.03606 13.9497C1.05422 13.8222 1.07299 13.6902 1.08563 13.5549C1.09798 13.4233 1.10855 13.2915 1.11916 13.1599C1.12956 13.0306 1.13991 12.9015 1.15204 12.7726C1.16576 12.6265 1.17495 12.481 1.1838 12.3403C1.19152 12.2178 1.19885 12.1021 1.20891 11.9859L1.22457 11.8067C1.24209 11.6074 1.26021 11.4013 1.27475 11.1969C1.28191 11.0967 1.29076 10.9966 1.29956 10.8964C1.31367 10.7362 1.3283 10.5706 1.33624 10.4032C1.33654 10.3964 1.33671 10.3895 1.33671 10.3827C1.33671 10.2109 1.34012 10.034 1.3434 9.86307C1.345 9.77902 1.34659 9.69501 1.34789 9.61096C1.35004 9.46313 1.34741 9.3163 1.34487 9.17435C1.34271 9.05487 1.34068 8.94208 1.34128 8.82852C1.34254 8.59121 1.33917 8.3394 1.33063 8.03577C1.32308 7.76968 1.30047 7.50583 1.27859 7.25075L1.27725 7.23513C1.26767 7.12372 1.25753 7.00562 1.24498 6.88373C1.36053 6.8723 1.47202 6.8622 1.58248 6.85603C1.74933 6.84667 1.9161 6.84537 2.0927 6.84399C2.18409 6.84326 2.27539 6.84257 2.36664 6.84071C2.44694 6.83907 2.52732 6.83662 2.60771 6.83416C2.79428 6.82846 2.97045 6.82315 3.14636 6.82764C3.34773 6.83282 3.55087 6.84973 3.76587 6.8676C3.81743 6.87191 3.86908 6.87618 3.92077 6.88032C3.93225 6.88123 3.94368 6.8817 3.95516 6.8817C4.05375 6.8817 4.14756 6.87981 4.23834 6.87795C4.38202 6.87497 4.51358 6.8723 4.64496 6.87713C4.64764 6.9321 4.64979 6.98806 4.65199 7.0451C4.65532 7.13015 4.65864 7.21511 4.66364 7.29993C4.6702 7.41125 4.67965 7.52132 4.6888 7.62781C4.70062 7.76558 4.7118 7.89571 4.71685 8.02485C4.72081 8.12595 4.71896 8.23032 4.71702 8.34087C4.71464 8.47639 4.71223 8.61645 4.72043 8.76186C4.72358 8.8724 4.72988 8.98131 4.73596 9.08672C4.74476 9.23929 4.75309 9.38335 4.75205 9.52449L4.75119 9.64647Z" fill="black"/>
<path d="M20.2333 10.8788C20.2273 10.7807 20.2211 10.6792 20.2172 10.5811C20.2167 10.5709 20.216 10.5608 20.2148 10.5507C20.1689 10.1371 20.0924 9.7759 20.0044 9.38028C20.0012 9.36583 19.9973 9.3515 19.9926 9.33739C19.9289 9.14634 19.8457 8.97634 19.7653 8.81194C19.7421 8.76465 19.7191 8.71749 19.6966 8.67003C19.6726 8.61933 19.65 8.56786 19.6272 8.51643C19.5557 8.35445 19.4746 8.1709 19.3532 7.9993C19.2049 7.78965 19.0329 7.59467 18.8441 7.4216C18.6616 7.25207 18.4724 7.12047 18.2896 6.99315C18.2535 6.96799 18.2175 6.94301 18.182 6.91785C17.9466 6.75165 17.7104 6.61112 17.4598 6.48823C17.2844 6.40224 17.0988 6.32803 16.8759 6.25532C16.8092 6.20355 16.7283 6.16877 16.6377 6.15552C16.6068 6.14616 16.5745 6.14016 16.541 6.13792C16.3133 6.12277 16.0944 6.12325 15.8824 6.12359C15.7738 6.1239 15.6714 6.12403 15.5686 6.12226C15.2636 6.11708 14.9179 6.11104 14.5558 6.15928C14.5498 6.1601 14.5438 6.16105 14.5378 6.16208C14.2112 6.21973 13.918 6.32496 13.6457 6.42787C13.3826 6.5272 13.0846 6.63981 12.8026 6.80403C12.5514 6.9503 12.285 7.11206 12.039 7.30351C11.8651 7.43877 11.7167 7.5885 11.5732 7.7333C11.5445 7.76229 11.5165 7.79064 11.4887 7.8183C11.4885 7.80311 11.4884 7.78797 11.4882 7.77282C11.486 7.56312 11.4838 7.34627 11.4689 7.12755C11.4499 6.85063 11.4172 6.56741 11.3689 6.26167C11.3358 6.05193 11.1551 5.8975 10.9427 5.8975C10.7976 5.8975 10.6527 5.89957 10.5127 5.9016C10.3767 5.90358 10.2361 5.90561 10.0992 5.90561L9.2535 5.90535C9.12401 5.90535 8.99267 5.89836 8.85365 5.89099C8.7095 5.88331 8.56042 5.87537 8.40798 5.87537C8.26149 5.87537 8.11544 5.87942 7.97413 5.88335C7.832 5.88727 7.69773 5.89103 7.5622 5.89103C7.4149 5.89103 7.27186 5.89586 7.13358 5.90056C6.99537 5.90522 6.86485 5.90967 6.7301 5.90967C6.49409 5.90967 6.30186 6.09934 6.29867 6.33532C6.29703 6.45777 6.28866 6.57893 6.27977 6.70716C6.27067 6.83863 6.26126 6.97459 6.25902 7.1178C6.25686 7.25484 6.25876 7.39097 6.26061 7.52261C6.26251 7.65852 6.26433 7.78689 6.262 7.91555C6.25954 8.05168 6.25501 8.19165 6.2506 8.32705C6.24642 8.45559 6.24228 8.58417 6.23964 8.71279C6.23693 8.84573 6.23149 8.98298 6.22614 9.11566C6.221 9.24424 6.21565 9.37722 6.21268 9.50986C6.20961 9.64512 6.20974 9.78013 6.20987 9.91065C6.21 10.0477 6.21013 10.1771 6.2069 10.3075C6.20336 10.4497 6.19874 10.592 6.19404 10.7342C6.18998 10.8577 6.18593 10.9813 6.18265 11.1048C6.17911 11.235 6.17734 11.3653 6.17557 11.4957C6.17376 11.6296 6.1719 11.768 6.16798 11.9022C6.16392 12.0399 6.16431 12.1766 6.16465 12.3088C6.165 12.4443 6.16539 12.5722 6.16133 12.7C6.15758 12.8192 6.14515 12.9419 6.13203 13.0719C6.11827 13.2084 6.10399 13.3496 6.09907 13.496C6.09428 13.6384 6.09657 13.7779 6.09885 13.9128C6.10105 14.0456 6.10317 14.171 6.09872 14.2941C6.08919 14.5598 6.07918 14.8254 6.069 15.0911C6.06425 15.2156 6.05346 15.3412 6.04207 15.4743C6.03064 15.6079 6.01877 15.7462 6.01303 15.8887C6.00691 16.0539 6.00954 16.2172 6.01208 16.3752C6.01338 16.4546 6.01467 16.5341 6.0148 16.6137C6.0151 16.7844 6.02093 16.955 6.02654 17.1199C6.02896 17.1908 6.03137 17.2617 6.03336 17.3326C6.03612 17.4325 6.03569 17.5331 6.03521 17.6396C6.03465 17.7717 6.03405 17.9082 6.03991 18.0471C6.04453 18.1572 6.0476 18.2673 6.05066 18.3771C6.05411 18.5009 6.05765 18.629 6.06343 18.7562C6.06895 18.878 6.07914 18.9967 6.08893 19.1114C6.09929 19.2322 6.10904 19.3463 6.11318 19.4583C6.11754 19.5757 6.16949 19.6862 6.25708 19.7643C6.34462 19.8426 6.46017 19.8815 6.57745 19.8726C6.64605 19.8674 6.71526 19.8617 6.78494 19.856C6.99451 19.8389 7.2112 19.8212 7.42236 19.8134C7.49519 19.8107 7.56803 19.8084 7.64069 19.806C7.85647 19.7991 8.07958 19.792 8.29726 19.7753C8.45147 19.767 8.61121 19.769 8.78013 19.7712C8.87423 19.7724 8.96864 19.7735 9.06331 19.773C9.18882 19.7722 9.31438 19.775 9.44715 19.7778C9.57987 19.7807 9.71733 19.7836 9.85472 19.7828C10.1189 19.7813 10.4047 19.7723 10.6813 19.7569C10.7968 19.7505 10.9049 19.6979 10.9813 19.611C11.0577 19.5241 11.096 19.4102 11.0877 19.2948C11.0815 19.2107 11.0743 19.1253 11.0671 19.0395C11.0521 18.861 11.0365 18.6765 11.0318 18.5055C11.0296 18.4255 11.0267 18.3453 11.0238 18.2652C11.0172 18.078 11.0108 17.9013 11.0125 17.724C11.0137 17.5958 11.0263 17.4625 11.0396 17.3213C11.0512 17.1986 11.0632 17.0717 11.0683 16.9404C11.0732 16.8099 11.072 16.6821 11.0709 16.5584C11.0695 16.4164 11.0682 16.2823 11.0761 16.1521C11.0844 16.0125 11.098 15.8732 11.1124 15.7256C11.1239 15.6079 11.1359 15.486 11.1449 15.3634C11.1547 15.2304 11.1602 15.0982 11.1656 14.9704C11.1714 14.8315 11.177 14.7004 11.1874 14.5698C11.1976 14.4427 11.2107 14.3117 11.2234 14.1848C11.2367 14.0515 11.2504 13.9135 11.2614 13.7755C11.2737 13.6195 11.2832 13.4629 11.2923 13.3114C11.299 13.1996 11.3057 13.0879 11.3135 12.9764C11.3216 12.8636 11.3332 12.7517 11.3455 12.6332C11.3556 12.5371 11.3659 12.4388 11.3741 12.3387C11.4874 12.2116 11.5801 12.0865 11.6642 11.973C11.6749 11.9586 11.6855 11.9442 11.6962 11.9299C11.7527 11.8808 11.8089 11.8326 11.8648 11.7847C11.9702 11.6945 12.0792 11.6012 12.1869 11.504C12.2454 11.4511 12.3022 11.3972 12.357 11.345C12.4588 11.2481 12.5551 11.1564 12.6607 11.073C12.6904 11.0537 12.7184 11.0368 12.7479 11.0191C12.8201 10.9756 12.9007 10.9271 12.9832 10.8524C13.1204 10.7642 13.2696 10.6904 13.4496 10.6217C13.6258 10.5544 13.8138 10.4856 14.0042 10.4475C14.0317 10.442 14.0993 10.4654 14.1709 10.4902C14.2344 10.5121 14.3048 10.5364 14.3858 10.5558C14.5377 10.6251 14.6455 10.7196 14.732 10.8586C14.8363 11.0261 14.9326 11.2282 15.0146 11.4069C15.008 11.4826 14.9984 11.561 14.9885 11.6426C14.9722 11.776 14.9554 11.9139 14.9493 12.0575C14.9435 12.1936 14.9437 12.3277 14.9438 12.4574C14.9439 12.5782 14.944 12.6922 14.9396 12.8052C14.9345 12.9382 14.9328 13.0707 14.9312 13.1989C14.9296 13.3209 14.9282 13.4361 14.924 13.5522C14.9193 13.6827 14.9154 13.8133 14.9113 13.9438C14.9077 14.0619 14.9041 14.1801 14.9 14.2984C14.896 14.4117 14.8861 14.5269 14.8756 14.649C14.8646 14.7761 14.8532 14.9077 14.8485 15.0428C14.8439 15.1772 14.846 15.3083 14.8481 15.4352C14.8502 15.5584 14.8521 15.6748 14.848 15.7887C14.844 15.8996 14.832 16.0143 14.8194 16.1356C14.8061 16.263 14.7923 16.3948 14.787 16.5316C14.7819 16.6614 14.7819 16.7893 14.7818 16.913C14.7817 17.0392 14.7817 17.1584 14.7766 17.2761C14.7716 17.3938 14.7607 17.5127 14.7492 17.6387C14.7379 17.7614 14.7264 17.8883 14.7201 18.0179C14.7134 18.1555 14.7168 18.2878 14.72 18.4158C14.7231 18.5377 14.7261 18.6528 14.7201 18.7619C14.7135 18.8819 14.701 19.0036 14.6877 19.1323C14.6753 19.2527 14.6625 19.3772 14.6544 19.5036C14.6472 19.6182 14.6859 19.7309 14.7619 19.8169C14.838 19.9029 14.9451 19.955 15.0597 19.9617C15.228 19.9716 15.3957 19.9749 15.5578 19.978C15.6413 19.9796 15.7246 19.9811 15.8078 19.9837C15.9794 19.9888 16.1499 19.988 16.315 19.9871C16.3945 19.9866 16.4738 19.9862 16.5532 19.9865C16.6496 19.9868 16.7462 19.9897 16.8484 19.9929C16.9588 19.9963 17.072 19.9998 17.1873 19.9998C17.2241 19.9998 17.2612 19.9994 17.2985 19.9986C17.4626 19.995 17.6254 19.9857 17.7829 19.9768C17.8693 19.972 17.9556 19.967 18.0421 19.9631C18.139 19.9587 18.2355 19.9565 18.3379 19.9541C18.4831 19.9509 18.6334 19.9475 18.7856 19.9371C19.0402 19.9198 19.3039 19.8966 19.5173 19.8778C19.6416 19.8703 19.7717 19.8142 19.8615 19.7024C19.9641 19.6211 20.025 19.4968 20.025 19.3642C20.025 19.2334 20.0203 19.1027 20.0156 18.9764C20.0104 18.8333 20.0055 18.6982 20.0071 18.5663C20.0088 18.4324 20.0158 18.2981 20.0233 18.1559C20.0298 18.0324 20.0365 17.9048 20.0395 17.7758C20.042 17.6654 20.0437 17.5551 20.0453 17.4446C20.0475 17.2931 20.0498 17.1364 20.0546 16.984C20.059 16.8458 20.0665 16.7091 20.0746 16.5644C20.0813 16.4431 20.0883 16.3177 20.0931 16.1922C20.0984 16.0529 20.0972 15.9161 20.096 15.7839C20.0947 15.6497 20.0935 15.523 20.0989 15.3984C20.1045 15.2671 20.1133 15.1372 20.1226 14.9996C20.1312 14.8711 20.1402 14.7383 20.1463 14.6052C20.1521 14.4768 20.1611 14.3496 20.1706 14.2149C20.1798 14.0835 20.1895 13.9477 20.1959 13.8086C20.2019 13.6584 20.1989 13.5129 20.196 13.3722C20.1933 13.2448 20.1908 13.1245 20.195 13.0077C20.1989 12.8977 20.2051 12.7843 20.2112 12.6746C20.2195 12.5214 20.2282 12.3629 20.2315 12.2033C20.2336 12.1013 20.2378 11.9999 20.2422 11.8926C20.2489 11.7309 20.2558 11.5638 20.255 11.3937C20.2541 11.2187 20.2435 11.0459 20.2333 10.8788ZM19.3801 11.8572C19.3756 11.9642 19.371 12.0749 19.3687 12.1859C19.3658 12.3307 19.3579 12.475 19.3495 12.6277C19.3433 12.7413 19.3369 12.8589 19.3326 12.9771C19.3276 13.1183 19.3304 13.2567 19.3332 13.3903C19.336 13.524 19.3386 13.6503 19.3338 13.7716C19.3279 13.8976 19.3191 14.0224 19.3098 14.1545C19.3004 14.2885 19.2906 14.4271 19.2843 14.5662C19.2786 14.6898 19.2704 14.8122 19.2616 14.9417C19.2524 15.0784 19.2428 15.2198 19.2368 15.3617C19.2305 15.5087 19.2318 15.6527 19.233 15.792C19.2342 15.9199 19.2353 16.0407 19.2308 16.1597C19.2263 16.2775 19.2195 16.3991 19.213 16.5167C19.205 16.6601 19.1968 16.8086 19.1921 16.9572C19.1871 17.1167 19.1848 17.277 19.1825 17.4321C19.1809 17.5402 19.1793 17.6482 19.1768 17.7563C19.1741 17.8723 19.1681 17.9881 19.1616 18.1107C19.154 18.2552 19.1461 18.4045 19.1443 18.5559C19.1424 18.7087 19.148 18.8608 19.1533 19.008C19.1537 19.0198 19.1542 19.0316 19.1546 19.0433C19.007 19.0557 18.8684 19.0667 18.7271 19.0763C18.5943 19.0853 18.4602 19.0884 18.3183 19.0916C18.2156 19.094 18.1094 19.0964 18.0027 19.1013C17.9132 19.1054 17.8238 19.1104 17.7343 19.1154C17.5771 19.1243 17.4287 19.1327 17.2795 19.136C17.1483 19.1391 17.0155 19.1349 16.8749 19.1305C16.7714 19.1274 16.6644 19.1241 16.5561 19.1237C16.5384 19.1237 16.5208 19.1236 16.503 19.1236C16.4389 19.1236 16.3746 19.124 16.3104 19.1243C16.1458 19.1252 15.9903 19.126 15.8339 19.1214C15.7476 19.1187 15.661 19.117 15.5744 19.1154C15.5685 19.1153 15.5627 19.1151 15.5568 19.115C15.5668 19.0153 15.5759 18.9133 15.5817 18.8097C15.5897 18.6657 15.5861 18.5275 15.5827 18.3939C15.5797 18.2765 15.5768 18.1656 15.5819 18.0599C15.5873 17.9486 15.5976 17.8363 15.6084 17.7174C15.6203 17.5868 15.6327 17.4518 15.6386 17.3135C15.6446 17.1773 15.6446 17.0432 15.6446 16.9135C15.6447 16.7928 15.6448 16.6787 15.6492 16.5656C15.6534 16.4567 15.6651 16.3443 15.6776 16.2253C15.6911 16.095 15.7052 15.9603 15.7103 15.8202C15.7152 15.6835 15.713 15.55 15.7109 15.421C15.7089 15.2997 15.7069 15.1851 15.7109 15.0731C15.7148 14.9601 15.7247 14.8451 15.7352 14.7234C15.7462 14.5958 15.7576 14.4639 15.7623 14.3287C15.7665 14.2092 15.7702 14.0898 15.7738 13.9704C15.7778 13.8414 15.7817 13.7124 15.7863 13.5835C15.7908 13.4573 15.7925 13.3316 15.794 13.2099C15.7956 13.0817 15.7971 12.9605 15.8018 12.8387C15.8068 12.7087 15.8067 12.5807 15.8066 12.4569C15.8065 12.3308 15.8064 12.2118 15.8114 12.0942C15.816 11.9848 15.8301 11.8694 15.845 11.7473C15.8606 11.6187 15.8768 11.4858 15.8834 11.3479C15.8866 11.2795 15.8735 11.2113 15.8452 11.149C15.7211 10.8759 15.6068 10.6311 15.4644 10.4026C15.2762 10.1005 15.0214 9.8855 14.6855 9.74548C14.6593 9.73457 14.632 9.72624 14.6041 9.72067C14.5593 9.7117 14.5099 9.69461 14.4526 9.67485C14.3004 9.62225 14.092 9.5502 13.8349 9.60163C13.579 9.6528 13.3522 9.73543 13.1418 9.81573C12.8873 9.91285 12.6754 10.0203 12.4752 10.1537C12.4516 10.1695 12.4295 10.1875 12.4094 10.2076C12.39 10.2271 12.3611 10.2448 12.3029 10.2799C12.2661 10.302 12.2202 10.3296 12.169 10.3637C12.1602 10.3696 12.1517 10.3757 12.1433 10.3822C11.9988 10.4946 11.8784 10.6093 11.762 10.7201C11.7089 10.7707 11.6586 10.8184 11.6087 10.8635C11.5093 10.9531 11.4093 11.0388 11.3034 11.1294C11.2339 11.189 11.164 11.2489 11.0937 11.3103C11.0711 11.3301 11.0506 11.3522 11.0326 11.3762C11.0119 11.4039 10.9914 11.4316 10.9707 11.4593C10.8686 11.5971 10.7722 11.7273 10.6491 11.8503C10.574 11.9255 10.5292 12.0257 10.5234 12.1319C10.5161 12.2664 10.502 12.4012 10.4871 12.5439C10.4746 12.6642 10.4616 12.7885 10.4526 12.9157C10.4445 13.0302 10.4376 13.1449 10.4307 13.2598C10.4218 13.4072 10.4127 13.5597 10.401 13.7075C10.3907 13.8368 10.3774 13.9703 10.3645 14.0994C10.3514 14.2302 10.3379 14.3656 10.3271 14.5011C10.3153 14.6479 10.3092 14.7935 10.3032 14.9344C10.2979 15.0611 10.2929 15.1808 10.2841 15.3002C10.2758 15.4125 10.265 15.524 10.2534 15.6419C10.2389 15.7908 10.2238 15.9449 10.2145 16.1008C10.2049 16.2608 10.2064 16.4163 10.2078 16.5668C10.209 16.6855 10.21 16.7977 10.2059 16.9075C10.2017 17.0145 10.1914 17.1242 10.1804 17.2403C10.1659 17.3932 10.1509 17.5513 10.1494 17.7162C10.1476 17.9129 10.1545 18.1077 10.1613 18.2961C10.164 18.374 10.1668 18.4517 10.169 18.5295C10.1725 18.6578 10.1809 18.7867 10.1908 18.914C10.0746 18.9173 9.95995 18.9193 9.84941 18.92C9.72372 18.9208 9.59833 18.9181 9.46561 18.9152C9.33289 18.9124 9.19581 18.9095 9.05808 18.9102C8.96894 18.9107 8.8798 18.9095 8.791 18.9084C8.61349 18.9061 8.42981 18.9038 8.24484 18.9141C8.24178 18.9142 8.23876 18.9145 8.23569 18.9147C8.0357 18.93 7.83028 18.9367 7.61273 18.9437C7.53869 18.946 7.46443 18.9484 7.39017 18.9512C7.2392 18.9568 7.08995 18.9666 6.94338 18.9778C6.93587 18.8885 6.92914 18.8027 6.92526 18.7171C6.91982 18.5975 6.91637 18.4734 6.91305 18.3534C6.9099 18.2393 6.90671 18.1251 6.90192 18.0109C6.89687 17.8919 6.89739 17.7712 6.89795 17.6434C6.89842 17.5348 6.8989 17.4225 6.89575 17.3087C6.89372 17.2359 6.89126 17.1632 6.88876 17.0905C6.8831 16.9252 6.8778 16.769 6.87754 16.6123C6.87741 16.5286 6.87607 16.4449 6.87473 16.3614C6.87227 16.2079 6.86994 16.063 6.87516 15.9221C6.88008 15.8005 6.89061 15.6778 6.90174 15.5479C6.91348 15.4107 6.92565 15.2689 6.93117 15.1241C6.9414 14.8578 6.95141 14.5915 6.96099 14.3252C6.96625 14.1793 6.96383 14.0365 6.96155 13.8984C6.95939 13.7685 6.95732 13.6458 6.96142 13.5251C6.96539 13.4075 6.9776 13.2866 6.99054 13.1586C7.00456 13.0197 7.01906 12.8762 7.02376 12.7272C7.02825 12.5846 7.02786 12.4432 7.02752 12.3064C7.02713 12.1753 7.02679 12.0515 7.03045 11.9275C7.03455 11.7864 7.03649 11.6445 7.03835 11.5074C7.04007 11.3809 7.04176 11.2545 7.04521 11.1281C7.04849 11.0063 7.05246 10.8844 7.05647 10.7625C7.06122 10.618 7.06596 10.4735 7.06954 10.3289C7.07304 10.1874 7.07291 10.0463 7.07278 9.90988C7.07265 9.77853 7.07252 9.65448 7.07537 9.5294C7.07817 9.40423 7.08335 9.27505 7.08836 9.15018C7.09384 9.01327 7.09949 8.8717 7.10238 8.73035C7.10493 8.60522 7.10898 8.48014 7.11308 8.35501C7.11757 8.21659 7.12218 8.07347 7.12477 7.93113C7.12736 7.78866 7.12538 7.64722 7.12344 7.51048C7.12162 7.3794 7.11985 7.25557 7.1218 7.13139C7.12369 7.01122 7.13189 6.89248 7.14065 6.76675C7.14069 6.76576 7.14078 6.76477 7.14082 6.76377C7.14816 6.76351 7.15545 6.76326 7.16274 6.76304C7.29991 6.75838 7.42944 6.75402 7.56216 6.75402C7.70968 6.75402 7.85625 6.74997 7.99804 6.746C8.13965 6.74207 8.2734 6.73836 8.40794 6.73836C8.53742 6.73836 8.66872 6.74535 8.80774 6.75273C8.9519 6.76041 9.10102 6.76835 9.25346 6.76835L10.0992 6.76861C10.2423 6.76861 10.386 6.76653 10.5251 6.76451C10.5393 6.76429 10.5535 6.76412 10.5678 6.7639C10.5851 6.90862 10.5985 7.04872 10.6079 7.18662C10.6212 7.38022 10.6232 7.57525 10.6252 7.78167C10.626 7.85463 10.6268 7.92755 10.628 8.00034C10.63 8.11597 10.6335 8.22937 10.637 8.34189C10.6421 8.50538 10.6469 8.65981 10.6469 8.81703C10.6469 8.99498 10.7561 9.15466 10.9219 9.21917C11.0878 9.28363 11.2762 9.23979 11.3964 9.10863C11.5227 8.97094 11.6594 8.84387 11.8041 8.70938C11.8628 8.65493 11.9217 8.60013 11.9807 8.54395C12.0519 8.47626 12.1201 8.40735 12.1861 8.34077C12.3161 8.20965 12.4387 8.08581 12.5687 7.98472C12.7632 7.8334 12.9764 7.70146 13.2367 7.54988C13.4566 7.42182 13.7077 7.32698 13.9505 7.23525C14.1819 7.14783 14.4286 7.05882 14.6788 7.0136C14.9737 6.9752 15.2683 6.98029 15.5536 6.98521C15.6647 6.98711 15.7762 6.98693 15.8839 6.98667C15.9796 6.98654 16.0726 6.98633 16.1647 6.98749C16.2284 7.02456 16.3024 7.04583 16.3814 7.04583C16.3909 7.04583 16.4004 7.0457 16.4099 7.04544C16.4969 7.10037 16.6009 7.12242 16.7024 7.10762C16.8443 7.15711 16.9661 7.20746 17.0798 7.26321C17.2889 7.36568 17.4865 7.4833 17.684 7.6228C17.7211 7.64903 17.7587 7.67518 17.7964 7.70146C17.9621 7.81683 18.1186 7.92578 18.2589 8.05596C18.4045 8.18945 18.5356 8.3381 18.6485 8.4977C18.72 8.59875 18.7772 8.72819 18.8377 8.86527C18.8634 8.92344 18.8892 8.98156 18.9162 9.03881C18.9403 9.08973 18.9651 9.14043 18.99 9.19125C19.0576 9.32958 19.1217 9.46062 19.167 9.59054C19.2461 9.94737 19.3148 10.274 19.3554 10.6314C19.3596 10.7333 19.3658 10.834 19.3718 10.9316C19.3817 11.094 19.3911 11.2474 19.3919 11.3984C19.3928 11.5484 19.3866 11.6983 19.3801 11.8572Z" fill="black"/>
<path d="M0.832466 4.26434C1.04389 4.50058 1.3073 4.70367 1.61551 4.86793C1.90403 5.02171 2.19291 5.11797 2.47578 5.15478C2.52165 5.171 2.57032 5.17959 2.61989 5.17959C2.64013 5.17959 2.66054 5.17816 2.68099 5.17523C3.08632 5.11733 3.39875 5.02922 3.66337 4.89814C3.94094 4.77128 4.17748 4.62281 4.38635 4.44435C4.57862 4.28 4.75086 4.08304 4.94498 3.80573C4.95711 3.78843 4.96794 3.77022 4.97739 3.75128C5.02041 3.66528 5.05699 3.59241 5.09363 3.51953C5.13048 3.44618 5.16737 3.37283 5.21064 3.28623C5.21535 3.27683 5.2197 3.26725 5.22372 3.25754C5.38194 2.87322 5.334 2.50776 5.28417 2.26627C5.22937 2.00078 5.11585 1.7312 4.93704 1.44215C4.78007 1.18844 4.61292 0.964248 4.44024 0.775909C4.43602 0.771335 4.4317 0.766805 4.4273 0.762404C4.13109 0.466196 3.85741 0.273413 3.56608 0.155879C3.21706 0.0149163 2.83753 -0.0317261 2.46862 0.0210433C2.07214 0.077696 1.71237 0.260339 1.41271 0.431592C1.39567 0.441343 1.37932 0.45226 1.36374 0.464211C1.13273 0.641893 0.951164 0.81664 0.808691 0.998464C0.666995 1.17925 0.570604 1.37493 0.485517 1.54752C0.469207 1.58065 0.452897 1.6137 0.436371 1.64645L0.399265 1.71972C0.306497 1.9024 0.210581 2.0913 0.136971 2.29751C0.120359 2.34411 0.111816 2.39316 0.111816 2.44261C0.111816 2.78982 0.176926 3.13207 0.300026 3.43224C0.419199 3.7228 0.598347 4.00278 0.832466 4.26434ZM1.16871 2.11042L1.20686 2.03517C1.22459 2 1.24207 1.96454 1.25958 1.92907C1.33255 1.78099 1.4015 1.64115 1.48796 1.53078C1.58099 1.41208 1.70508 1.2926 1.86684 1.16614C2.07861 1.04631 2.34651 0.910271 2.59068 0.875364C2.80914 0.844125 3.03476 0.872042 3.24307 0.956136C3.4189 1.02711 3.60452 1.16117 3.81033 1.36591C3.94267 1.51136 4.07832 1.69448 4.20315 1.89619C4.32785 2.09778 4.40499 2.27589 4.43899 2.44071C4.48093 2.64398 4.47847 2.79159 4.43071 2.9165C4.39114 2.99559 4.35688 3.06385 4.32258 3.13211C4.28992 3.19713 4.25721 3.26216 4.22006 3.33637C4.0772 3.53782 3.95483 3.67797 3.82569 3.78838C3.67744 3.91506 3.50519 4.02216 3.29917 4.11583C3.29433 4.11803 3.2895 4.12032 3.28475 4.12269C3.12317 4.2035 2.92171 4.2624 2.6561 4.30607C2.65398 4.30589 2.65182 4.30568 2.64971 4.30551C2.45222 4.29032 2.24084 4.22331 2.02144 4.10638C1.80294 3.98988 1.61926 3.84939 1.47554 3.6888C1.3095 3.50331 1.17911 3.30133 1.09851 3.10471C1.0262 2.92841 0.984345 2.72678 0.976276 2.51752C1.02896 2.38561 1.09718 2.25134 1.16871 2.11042Z" fill="black"/>
</g>
<g clip-path="url(#clip1)">
<path d="M39.0696 15.7504C38.8991 15.9209 38.619 16.139 38.4911 15.9259C38.4058 15.798 38.6477 15.8002 38.7329 15.715C38.6903 15.715 38.7043 15.7343 38.6617 15.7343C38.7896 15.6916 38.9518 15.76 39.0797 15.76C39.0869 15.7594 39.0696 15.7504 39.0696 15.7504Z" fill="black"/>
<path d="M37.7519 15.5837C37.6667 15.6689 37.7173 15.7943 37.7173 15.8796C37.9305 15.837 38.1185 15.8505 38.3316 15.7652C38.1611 15.68 37.9723 15.5854 37.8017 15.5428C37.7591 15.5428 37.7021 15.5607 37.7021 15.6033C37.7448 15.6033 37.8008 15.5899 37.8008 15.6752C37.7582 15.6752 37.7508 15.6335 37.7508 15.5909C37.7503 15.5865 37.7519 15.5837 37.7519 15.5837Z" fill="black"/>
<path d="M39.3383 15.6726C39.317 15.6513 39.3241 15.6378 39.2972 15.6243C39.2545 15.6243 39.204 15.6828 39.2466 15.7254C39.2892 15.7254 39.328 15.7178 39.3706 15.7178C39.328 15.7605 39.299 15.8427 39.299 15.8854C39.3125 15.9124 39.3089 15.9136 39.3382 15.9208C39.4661 15.9208 39.5498 15.8496 39.6777 15.8496C39.7203 15.807 39.7716 15.705 39.6863 15.6197C39.6011 15.5771 39.4642 15.6347 39.3363 15.6773C39.3346 15.6779 39.3383 15.6726 39.3383 15.6726Z" fill="black"/>
<path d="M52.4769 9.59488C52.4758 9.57523 52.4733 9.55562 52.4694 9.5363C52.4569 9.4738 52.4577 9.40857 52.4588 9.32599C52.4601 9.22009 52.4618 9.08826 52.4317 8.93764C52.3923 8.74109 52.3631 8.54562 52.3321 8.33863L52.3291 8.31893C52.306 8.16498 52.2736 8.017 52.2423 7.87392C52.227 7.80379 52.2115 7.73357 52.1974 7.66288C52.1961 7.65627 52.1946 7.64967 52.1929 7.6431C52.1325 7.40149 52.0631 7.16019 51.9865 6.92587C51.9661 6.86345 51.9465 6.80087 51.927 6.73849C51.8736 6.56783 51.8184 6.39137 51.7465 6.21661C51.6781 6.05034 51.5968 5.90057 51.5183 5.75578C51.4792 5.68377 51.4422 5.61577 51.4081 5.54794C51.2857 5.30489 51.1546 5.08195 51.0425 4.89598C51.0171 4.8539 50.9919 4.81165 50.9668 4.76945C50.8678 4.60305 50.7653 4.43097 50.6463 4.26274L50.5795 4.16805C50.4622 4.00135 50.3409 3.82894 50.2041 3.66165L50.1617 3.60976C50.0229 3.43978 49.8794 3.26404 49.7214 3.09427C49.718 3.09056 49.7144 3.0869 49.7108 3.08327C49.6613 3.03369 49.609 2.99323 49.5629 2.9575C49.5214 2.9254 49.4698 2.88545 49.4537 2.86124C49.4362 2.83497 49.4158 2.81076 49.393 2.78901C49.202 2.6071 49.0016 2.44654 48.8078 2.29122L48.7543 2.24833C48.6892 2.19606 48.6251 2.14166 48.5573 2.08406C48.4144 1.96277 48.2667 1.8373 48.0998 1.725C47.9006 1.591 47.6955 1.47764 47.4972 1.36794C47.457 1.34577 47.417 1.3236 47.3771 1.30135C47.1227 1.15933 46.8566 1.03612 46.6271 0.931796C46.5633 0.90272 46.4997 0.872833 46.4361 0.842947C46.2531 0.756869 46.0638 0.667849 45.8616 0.594945C45.6781 0.528778 45.497 0.486783 45.3219 0.446153C45.2282 0.42441 45.1397 0.403903 45.0539 0.380411C44.761 0.300345 44.4958 0.237886 44.2432 0.189625C43.9315 0.130065 43.6701 0.0892219 43.4203 0.0611261C43.1522 0.0310265 42.8809 0.0113723 42.5909 0.000969664C42.5859 0.000799128 42.5808 0.000713838 42.5757 0.000713838C42.5679 0.000671204 42.5596 0.000926959 42.5517 0.00139593C42.2545 -0.00256902 42.0056 0.00152385 41.7713 0.0141009C41.5321 0.0269763 41.2489 0.0448826 40.9627 0.0803966C40.7128 0.111391 40.4698 0.159525 40.2348 0.206124L40.1629 0.220406C40.0881 0.2352 40.0129 0.248715 39.9379 0.262188C39.7521 0.295655 39.56 0.330231 39.3658 0.383737C39.1447 0.444661 38.9339 0.521615 38.73 0.596011C38.6847 0.612553 38.6394 0.629053 38.5941 0.645381C38.543 0.663799 38.4917 0.681919 38.4404 0.700038C38.2411 0.770384 38.0351 0.843118 37.8312 0.935591C37.5909 1.04452 37.3453 1.16876 37.1011 1.30489C36.8997 1.41718 36.7138 1.54427 36.5341 1.66723C36.4939 1.69469 36.4538 1.72219 36.4134 1.74951C36.3634 1.78337 36.313 1.81679 36.2625 1.85026C36.0908 1.96405 35.9133 2.08176 35.7423 2.22117C35.5697 2.36195 35.3436 2.5509 35.1254 2.76459C34.9474 2.93904 34.7852 3.12633 34.628 3.31115C34.5354 3.36325 34.4187 3.44528 34.3348 3.5838C34.2942 3.63406 34.2534 3.68373 34.2127 3.73319C34.0934 3.87823 33.9701 4.02821 33.858 4.18903C33.701 4.41452 33.5648 4.64073 33.4275 4.87202C33.3212 5.05109 33.2346 5.23198 33.1508 5.40699C33.1211 5.46894 33.0915 5.53076 33.0612 5.59211C33.0248 5.6657 32.9861 5.73877 32.9451 5.81619C32.8614 5.97432 32.7749 6.13787 32.7028 6.31672C32.6181 6.52647 32.5505 6.73982 32.4851 6.94612C32.4709 6.99097 32.4567 7.03582 32.4423 7.08067C32.3673 7.31401 32.2823 7.57851 32.2139 7.85205C32.2054 7.88586 32.2012 7.9206 32.2012 7.95544C32.2012 8.01755 32.2127 8.0746 32.2234 8.1223C32.2124 8.17061 32.201 8.21874 32.1896 8.26679C32.1452 8.45459 32.0993 8.64875 32.0725 8.85194C32.0434 9.07283 32.0354 9.28749 32.0277 9.49512C32.0254 9.5563 32.0231 9.61739 32.0203 9.67823L32.0177 9.73464C32.0059 9.9849 31.9937 10.2437 32.0037 10.5058L32.0063 10.572C32.0157 10.8195 32.0254 11.0753 32.0573 11.3327C32.0922 11.614 32.1377 11.8891 32.1926 12.1504C32.2329 12.3421 32.2924 12.5193 32.3499 12.6908C32.3793 12.7781 32.4069 12.8606 32.4314 12.9426C32.4565 13.0273 32.4787 13.115 32.5022 13.2079C32.5457 13.3797 32.5905 13.5572 32.6602 13.7371C32.7547 13.9814 32.8623 14.2158 32.9949 14.4925C33.1091 14.7308 33.2386 14.9762 33.3798 15.2217C33.477 15.3909 33.5866 15.5449 33.6925 15.6938C33.744 15.7662 33.7927 15.8347 33.8397 15.9042C33.8761 15.9581 33.912 16.0124 33.9481 16.0668C34.0596 16.2353 34.175 16.4095 34.3095 16.5816C34.3495 16.6319 34.3889 16.6825 34.4283 16.733C34.5508 16.8901 34.6774 17.0524 34.8184 17.2067C34.9535 17.3547 35.0964 17.4854 35.2344 17.6118C35.2904 17.663 35.3462 17.714 35.4009 17.7659C35.602 17.9564 35.806 18.1359 36.0071 18.2994C36.2515 18.4982 36.4563 18.6536 36.6517 18.7884C36.8487 18.9243 37.0519 19.041 37.2484 19.1538L37.3436 19.2086C37.5788 19.3443 37.8103 19.4758 38.0569 19.5923C38.3269 19.7198 38.5986 19.8251 38.8052 19.9025C38.8101 19.9044 38.8151 19.9061 38.82 19.9078C39.0672 19.9903 39.3016 19.906 39.4566 19.8503C39.4759 19.8433 39.4945 19.8366 39.5123 19.8307C39.5482 19.8187 39.5825 19.802 39.614 19.7809C39.8887 19.5978 40.0054 19.2431 39.8987 18.917C39.8254 18.6837 39.8006 18.4254 39.7815 18.1807C39.762 17.9304 39.746 17.6616 39.7612 17.3934C39.7761 17.1315 39.8015 16.8773 39.8284 16.608L39.831 16.5819C39.8441 16.4511 39.7961 16.3216 39.701 16.2309C39.6059 16.1403 39.4741 16.0986 39.3444 16.1177C39.1182 16.1513 38.891 16.1692 38.6499 16.1725C38.4443 16.1752 38.2124 16.1559 37.9598 16.1145C37.7535 16.0808 37.5493 16.0148 37.3528 15.9186C37.1544 15.8214 37.0179 15.7144 36.9233 15.582C36.8106 15.4244 36.7482 15.2632 36.7266 15.0748C36.7221 15.0357 36.7123 14.9974 36.6973 14.9609C36.6471 14.8391 36.548 14.7462 36.4253 14.706C36.4222 14.705 36.419 14.704 36.4157 14.703C36.3665 14.6422 36.3173 14.5776 36.2667 14.5109C36.2165 14.4448 36.1646 14.3765 36.1099 14.3087L36.0977 14.2934C35.9523 14.1128 35.8019 13.926 35.6416 13.749C35.4849 13.5759 35.2935 13.3762 35.0631 13.2073C34.9264 13.107 34.7775 13.0201 34.6184 12.9476C34.5966 12.8842 34.572 12.8259 34.5468 12.771C34.6218 12.7856 34.7077 12.8009 34.8017 12.8077C34.864 12.8426 34.9556 12.886 35.0721 12.886C35.0883 12.886 35.1054 12.8865 35.1226 12.8869C35.3115 12.9619 35.4917 13.0601 35.6482 13.1478C35.8243 13.2466 35.9614 13.3404 36.0723 13.4387C36.1819 13.7384 36.313 13.9735 36.4807 14.1721C36.6589 14.3832 36.8886 14.5769 37.1832 14.7643C37.1924 14.7702 37.2018 14.7757 37.2114 14.7808C37.4738 14.9207 37.7467 15.007 38.0227 15.037C38.2942 15.0666 38.5534 15.023 38.782 14.9847L38.8241 14.9776C39.1055 14.9306 39.354 14.8539 39.5391 14.7922C39.7239 14.7306 39.8434 14.5515 39.8296 14.3573C39.8127 14.122 39.9121 13.9081 39.9984 13.7701C40.1157 13.5826 40.2689 13.4541 40.4538 13.3881C40.6273 13.3261 40.7413 13.1597 40.7366 12.9755C40.7319 12.7914 40.6094 12.6311 40.4329 12.5782C40.211 12.5116 39.9847 12.4683 39.7207 12.4419C39.6433 12.4342 39.5696 12.4306 39.4983 12.4272C39.3669 12.4208 39.2533 12.4153 39.1565 12.3863C39.1168 12.3744 39.0755 12.3683 39.034 12.3683C38.998 12.3683 38.9397 12.3546 38.8779 12.3401C38.7893 12.3194 38.6809 12.2939 38.5596 12.2899C38.3145 12.2566 38.0338 12.2086 37.7837 12.1097C37.5598 12.0212 37.3354 11.8924 37.0984 11.7165C37.0543 11.6774 37.0121 11.6503 36.9823 11.6312C36.9799 11.6297 36.9776 11.6282 36.9752 11.6267C36.8575 11.4897 36.753 11.3223 36.6481 11.103C36.5638 10.9269 36.5001 10.7258 36.4476 10.4702C36.405 10.2623 36.396 10.044 36.3885 9.78025C36.3819 9.54466 36.3887 9.30254 36.4089 9.06068C36.4093 9.05569 36.4096 9.0507 36.4099 9.04567C36.4229 8.77183 36.4652 8.52225 36.5392 8.28261C36.6127 8.04454 36.716 7.80507 36.855 7.55058C36.9801 7.32168 37.1212 7.09849 37.2857 6.86912C37.4693 6.65885 37.4289 6.4201 37.4151 6.33901C37.4143 6.33441 37.4135 6.3298 37.4128 6.3252C37.4121 6.30627 37.4103 6.28743 37.4072 6.26875C37.3762 6.08274 37.3635 5.89549 37.3501 5.69725C37.3471 5.6535 37.3441 5.60993 37.341 5.56649C37.325 5.34483 37.3108 5.10996 37.3291 4.88925C37.3447 4.70106 37.3632 4.53743 37.3963 4.38382C37.5801 4.40595 37.7635 4.44125 37.9435 4.48926C38.1878 4.55436 38.4276 4.65438 38.6093 4.73419C38.8051 4.82027 39.0122 4.93039 39.2423 5.07078C39.4432 5.19336 39.6447 5.34944 39.8338 5.49874C39.9281 5.57322 40.0495 5.60443 40.168 5.58465C40.2964 5.56329 40.4266 5.54112 40.5568 5.51895C40.6825 5.49759 40.8081 5.47623 40.932 5.45555C41.0431 5.44251 41.1457 5.42115 41.2451 5.40047C41.3323 5.38231 41.4148 5.36513 41.4903 5.35673C41.6482 5.33912 41.8109 5.33938 41.9704 5.35711C42.1098 5.37387 42.2473 5.38683 42.3802 5.39936C42.5071 5.41134 42.6268 5.42264 42.746 5.43675C42.9309 5.45871 43.1195 5.48723 43.3018 5.51481C43.3698 5.52509 43.4377 5.53536 43.5055 5.54534C43.5557 5.55272 43.606 5.55996 43.6563 5.56717C43.8625 5.59676 44.0573 5.62472 44.2508 5.66467C44.4797 5.71191 44.7129 5.77834 44.9719 5.85388C45.1116 5.89464 45.2625 5.8613 45.3721 5.76546C45.5197 5.63628 45.6992 5.52705 45.8727 5.42145C46.0388 5.3204 46.2211 5.22925 46.4141 5.13273L46.4264 5.12655C46.5078 5.09325 46.5848 5.0565 46.6594 5.0209C46.7822 4.96232 46.8982 4.90703 47.0018 4.88298C47.0834 4.86405 47.1899 4.84819 47.3007 4.85633C47.3514 5.01489 47.3931 5.19549 47.4287 5.40964C47.476 5.69396 47.4913 5.94597 47.4755 6.17999C47.4604 6.40433 47.4122 6.64589 47.3239 6.94024C47.3129 6.9769 47.307 7.01485 47.3061 7.05309C47.305 7.06093 47.3033 7.06861 47.3019 7.07611C47.2868 7.15857 47.2478 7.36999 47.4003 7.54969C47.433 7.59326 47.466 7.63705 47.4991 7.68104C47.5897 7.8011 47.6833 7.92529 47.7723 8.04757C47.8877 8.20608 47.997 8.36101 48.0655 8.51403C48.1399 8.6884 48.1921 8.88106 48.2297 9.12015C48.2608 9.31716 48.2908 9.5479 48.278 9.76529C48.2658 9.97095 48.2336 10.1884 48.1795 10.43C48.1449 10.5842 48.0883 10.7415 48.0284 10.908C48.0067 10.968 47.9851 11.0281 47.9643 11.0885C47.9332 11.1792 47.9053 11.2689 47.8784 11.3557C47.8456 11.4615 47.8141 11.563 47.7791 11.6584C47.7036 11.7194 47.6614 11.7901 47.6381 11.8546C47.5347 12.0555 47.4187 12.2287 47.2931 12.37C47.1593 12.5203 46.9761 12.6453 46.7822 12.7777L46.734 12.8106C46.5489 12.9373 46.3741 13.0568 46.1935 13.1279C46.0245 13.1945 45.8284 13.245 45.5605 13.2908C45.4397 13.2971 45.3493 13.3302 45.2748 13.3648C45.2563 13.3667 45.2401 13.3689 45.2258 13.3708C45.2002 13.3741 45.1907 13.3753 45.1766 13.3753C45.1444 13.3753 45.1122 13.3789 45.0808 13.3862C44.7939 13.4524 44.5551 13.4938 44.3294 13.5166C44.1579 13.5339 43.9726 13.5311 43.776 13.5281C43.6989 13.527 43.6216 13.5258 43.5445 13.5258C43.3872 13.5258 43.2428 13.6124 43.1686 13.751C43.0944 13.8896 43.1025 14.0578 43.1898 14.1886C43.275 14.3165 43.387 14.3975 43.4689 14.4568C43.4897 14.4719 43.5189 14.493 43.5354 14.507C43.5526 14.5393 43.5683 14.5667 43.5827 14.5918C43.5999 14.6218 43.6148 14.6478 43.6307 14.6796C43.6355 14.6894 43.6408 14.6989 43.6464 14.7083C43.7673 14.9099 43.8293 15.0681 43.8415 15.2059C43.8545 15.3537 43.8231 15.529 43.7458 15.7417C43.7247 15.7996 43.7164 15.8614 43.7215 15.9228C43.7367 16.1045 43.7443 16.2859 43.7524 16.478C43.7552 16.5438 43.758 16.6097 43.7611 16.6753C43.7663 16.7865 43.7743 16.8966 43.782 17.0031C43.7927 17.1516 43.8028 17.2918 43.8058 17.4309L43.8097 17.6083C43.814 17.8002 43.8184 17.9988 43.8194 18.1922C43.8201 18.3107 43.8135 18.4336 43.8065 18.5638C43.7996 18.6941 43.7924 18.8287 43.7924 18.9651C43.7924 19.0619 43.8253 19.1558 43.8858 19.2314C43.918 19.2718 43.9521 19.3242 43.9882 19.3797C44.1206 19.5836 44.302 19.8628 44.6745 19.9692C44.6899 19.9736 44.7056 19.9771 44.7214 19.9797C44.8013 19.9931 44.8817 19.9998 44.9628 19.9998C45.2008 19.9998 45.4457 19.9422 45.7049 19.826C45.8314 19.7692 45.9524 19.705 46.0693 19.6428C46.1729 19.5879 46.271 19.5358 46.3686 19.4909C46.5668 19.4153 46.7464 19.3199 46.9204 19.2276C46.9688 19.2019 47.0172 19.1762 47.0658 19.1511C47.1234 19.1213 47.1817 19.0925 47.2402 19.0636C47.4098 18.9797 47.5852 18.8929 47.758 18.78C47.9627 18.6461 48.1695 18.4968 48.393 18.3212C48.6207 18.139 48.8299 17.9519 49.0145 17.7868C49.2368 17.588 49.4383 17.382 49.6061 17.2067C49.7859 17.0189 49.9776 16.8136 50.1608 16.5846C50.1635 16.5811 50.1663 16.5776 50.1689 16.574C50.2205 16.5052 50.2783 16.4419 50.3396 16.3749C50.4084 16.2995 50.4864 16.2141 50.5628 16.1124C50.5638 16.111 50.5648 16.1096 50.5658 16.1082C50.685 15.9452 50.7768 15.7804 50.8655 15.6209C50.9092 15.5425 50.9504 15.4684 50.9931 15.398C51.0313 15.3349 51.0704 15.2726 51.1094 15.2105C51.2137 15.0444 51.3216 14.8725 51.4139 14.685C51.5069 14.4959 51.5791 14.3056 51.6488 14.1215C51.6742 14.0546 51.6995 13.9875 51.7259 13.9209C51.8422 13.6268 51.9305 13.3819 52.004 13.1502C52.0183 13.1052 52.0328 13.0601 52.0473 13.0149C52.1136 12.8084 52.182 12.5949 52.2398 12.3709C52.2488 12.3362 52.2534 12.3003 52.2534 12.2644C52.2534 12.2465 52.254 12.2202 52.2545 12.1935C52.3164 12.0536 52.3485 11.9351 52.3537 11.8279C52.3692 11.6897 52.3761 11.5551 52.3829 11.4248C52.3885 11.3161 52.3938 11.2134 52.4036 11.1132C52.425 10.8959 52.4398 10.6648 52.4517 10.3639C52.4545 10.2924 52.4594 10.2201 52.4645 10.1435C52.4761 9.9681 52.4882 9.78656 52.4769 9.59488ZM51.6135 10.0867C51.6082 10.1657 51.6028 10.2473 51.5995 10.3304C51.5882 10.6141 51.5745 10.8299 51.5548 11.03C51.543 11.1499 51.5369 11.2674 51.5311 11.381C51.5245 11.5092 51.5182 11.6303 51.5044 11.7472C51.5034 11.7566 51.5026 11.766 51.5021 11.7754C51.4982 11.7895 51.4851 11.8303 51.4481 11.9043C51.4185 11.9635 51.4031 12.0287 51.4031 12.0949C51.4031 12.1139 51.4024 12.1422 51.4018 12.1705C51.4016 12.1828 51.4013 12.195 51.4011 12.2067C51.3518 12.3908 51.2925 12.5755 51.235 12.7547C51.2203 12.8007 51.2056 12.8466 51.191 12.8924C51.1235 13.105 51.0414 13.3323 50.9326 13.6077C50.9047 13.6781 50.8779 13.7488 50.8511 13.8195C50.7856 13.9926 50.7236 14.1561 50.6485 14.3087C50.5756 14.4567 50.484 14.6027 50.3869 14.7574C50.3455 14.8233 50.3041 14.8895 50.2634 14.9565C50.2127 15.0403 50.1657 15.1247 50.1203 15.2063C50.041 15.3486 49.9661 15.4831 49.8786 15.6031C49.8275 15.671 49.7702 15.7337 49.7096 15.8C49.6421 15.874 49.5657 15.9576 49.4907 16.0569C49.3294 16.258 49.1547 16.445 48.9898 16.6172C48.8333 16.7807 48.6463 16.972 48.4456 17.1514C48.2692 17.3092 48.0693 17.4881 47.8629 17.6532C47.6619 17.8112 47.4749 17.9463 47.2912 18.0665C47.1611 18.1514 47.0157 18.2233 46.8617 18.2995C46.7989 18.3306 46.7362 18.3617 46.6741 18.3937C46.6226 18.4203 46.5714 18.4475 46.5203 18.4746C46.359 18.5602 46.2066 18.6411 46.0543 18.6982C46.0452 18.7016 46.0363 18.7052 46.0275 18.7092C45.9021 18.7663 45.7836 18.8292 45.6691 18.8899C45.5597 18.948 45.4562 19.003 45.3556 19.0481C45.1769 19.1283 45.0288 19.1589 44.8918 19.1432C44.8357 19.1165 44.7819 19.037 44.7028 18.9153C44.6853 18.8883 44.6668 18.8599 44.6472 18.8308C44.6496 18.7592 44.6535 18.6857 44.6576 18.6096C44.6649 18.4728 44.6725 18.3315 44.6717 18.188C44.6707 17.9873 44.6661 17.785 44.6618 17.5894L44.658 17.4133C44.6546 17.2523 44.6431 17.0944 44.6321 16.9417C44.6244 16.8359 44.6172 16.7359 44.6125 16.6355C44.6095 16.5712 44.6067 16.5067 44.6041 16.4422C44.5972 16.2793 44.5901 16.1118 44.5781 15.9432C44.6757 15.6474 44.7125 15.3809 44.6906 15.1313C44.6638 14.8266 44.5413 14.559 44.4317 14.3634C44.6774 14.3378 44.9328 14.2942 45.2305 14.2268C45.2744 14.2245 45.3091 14.22 45.3365 14.2164C45.3621 14.213 45.3716 14.2119 45.3857 14.2119C45.4519 14.2119 45.5172 14.1965 45.5763 14.1669L45.5953 14.1573C45.6054 14.1522 45.617 14.1464 45.6263 14.1419C45.6419 14.141 45.6573 14.1393 45.6727 14.1368C45.904 14.0982 46.2077 14.0389 46.5058 13.9214C46.7758 13.815 47.0092 13.6554 47.2151 13.5146L47.2627 13.4821C47.4801 13.3337 47.7265 13.1655 47.9299 12.9368C48.0922 12.7544 48.2399 12.5388 48.3698 12.2948C48.4676 12.2232 48.5151 12.1356 48.5377 12.06C48.5996 11.9082 48.6469 11.7559 48.6926 11.6083C48.7188 11.5239 48.7435 11.4442 48.7704 11.3659C48.7898 11.3095 48.8101 11.2532 48.8304 11.1968C48.8966 11.0129 48.965 10.8229 49.0113 10.6165C49.0755 10.3296 49.114 10.0677 49.1289 9.81572C49.1465 9.51716 49.1099 9.22947 49.0718 8.9876C49.0227 8.67557 48.9515 8.41746 48.8478 8.17547C48.847 8.17372 48.8463 8.17202 48.8455 8.17031C48.7432 7.94022 48.6054 7.7435 48.4613 7.54568C48.3681 7.41769 48.2723 7.29065 48.1797 7.16782C48.1715 7.15695 48.1633 7.14607 48.1552 7.13524C48.2529 6.79993 48.3073 6.51343 48.326 6.23742C48.3463 5.93663 48.3278 5.62016 48.2696 5.26984C48.2069 4.89313 48.1254 4.59324 48.0129 4.32622C47.9669 4.21683 47.8772 4.1316 47.7657 4.09101C47.4794 3.98694 47.1484 3.97356 46.8087 4.05239C46.6146 4.09745 46.4432 4.17922 46.292 4.25136C46.2213 4.28512 46.1544 4.31701 46.0922 4.34187C46.0812 4.3463 46.0704 4.35112 46.0598 4.35645L46.0324 4.37009C45.8231 4.47476 45.6254 4.57359 45.4291 4.69305C45.293 4.77588 45.1442 4.86644 44.9977 4.974C44.8015 4.91841 44.6148 4.86921 44.4227 4.8296C44.2038 4.78441 43.9869 4.75329 43.7771 4.72319C43.7278 4.71611 43.6785 4.70903 43.6292 4.70179C43.5625 4.69198 43.4958 4.68188 43.429 4.67177C43.24 4.64321 43.0446 4.61366 42.8461 4.59008C42.7167 4.57474 42.5862 4.56242 42.4599 4.55048C42.3323 4.53846 42.2003 4.52601 42.068 4.51015C41.8423 4.48503 41.6159 4.48478 41.3955 4.50934C41.28 4.52221 41.1737 4.54434 41.0709 4.56574C40.9835 4.58395 40.9009 4.60113 40.8252 4.60953C40.8176 4.61038 40.8099 4.61144 40.8022 4.61272C40.6739 4.63408 40.5437 4.65625 40.4134 4.67842C40.3463 4.68985 40.2792 4.70127 40.2123 4.71257C40.0462 4.58429 39.871 4.45583 39.686 4.34298C39.4231 4.18255 39.183 4.0552 38.952 3.95369C38.7424 3.86156 38.4633 3.74555 38.1628 3.66544C37.9034 3.59629 37.6378 3.54875 37.3726 3.52398C37.2723 3.4958 37.088 3.46404 36.9038 3.57092C36.7543 3.65768 36.6554 3.8072 36.6096 4.01555C36.5306 4.29092 36.5001 4.56421 36.479 4.81886C36.4556 5.1005 36.4717 5.3731 36.4902 5.62822C36.4932 5.67034 36.4961 5.71264 36.499 5.75506C36.5127 5.9568 36.5268 6.16511 36.5614 6.38254C36.5621 6.39286 36.563 6.40279 36.564 6.41226C36.3911 6.65625 36.241 6.89556 36.1065 7.14185C35.9397 7.44707 35.8147 7.738 35.7241 8.03128C35.6295 8.33799 35.5751 8.65421 35.5582 8.99766C35.536 9.26839 35.5285 9.5398 35.5359 9.80438C35.5442 10.0998 35.5557 10.3666 35.6121 10.6417C35.6789 10.9672 35.7635 11.2308 35.8786 11.4712C36.0258 11.7788 36.179 12.0166 36.3609 12.2199C36.3662 12.2258 36.3716 12.2315 36.3772 12.2371C36.4311 12.291 36.4855 12.326 36.5217 12.3491C36.5265 12.3522 36.5314 12.3553 36.5361 12.3584C36.5467 12.3681 36.5577 12.3773 36.5691 12.3859C36.8742 12.6147 37.1688 12.7838 37.4699 12.9028C37.8138 13.0388 38.1686 13.0982 38.4703 13.1384C38.489 13.141 38.5078 13.1422 38.5267 13.1422C38.5626 13.1422 38.621 13.1559 38.6828 13.1704C38.7632 13.1892 38.8601 13.212 38.9682 13.219C39.0861 13.2492 39.1995 13.2626 39.306 13.2704C39.2955 13.2861 39.2853 13.302 39.2752 13.3181C39.1243 13.5593 39.0287 13.8138 38.9919 14.0684C38.8823 14.0983 38.7831 14.1201 38.6836 14.1368L38.6406 14.144C38.4496 14.176 38.2691 14.2064 38.1147 14.1895C37.9521 14.1718 37.7878 14.1201 37.6264 14.036C37.4129 13.8987 37.251 13.7633 37.132 13.6223C37.0174 13.4865 36.9261 13.3096 36.8447 13.0653C36.8238 13.0025 36.7885 12.9455 36.7417 12.8987C36.5633 12.7203 36.3483 12.5632 36.0649 12.4042C35.8468 12.282 35.6092 12.1558 35.3502 12.0616C35.3035 12.0446 35.2542 12.0359 35.2045 12.0359C35.1928 12.0359 35.1806 12.0356 35.1682 12.0353C35.106 12.0008 35.0156 11.9589 34.9013 11.9589C34.8341 11.9589 34.7562 11.9435 34.6737 11.9271C34.4733 11.8873 34.1987 11.8327 33.9058 11.9792C33.8031 12.0306 33.5642 12.1906 33.5642 12.5669C33.5642 12.6128 33.5716 12.6583 33.5861 12.7017C33.6297 12.8325 33.6816 12.9396 33.7274 13.034C33.7426 13.0654 33.7567 13.0944 33.7693 13.1217C33.765 13.1374 33.7615 13.1535 33.759 13.1699C33.7267 13.3777 33.8507 13.5779 34.0511 13.6416C34.2409 13.7019 34.4117 13.7872 34.5588 13.895C34.7276 14.0188 34.8813 14.1801 35.0093 14.3215C35.153 14.4801 35.2891 14.6492 35.4332 14.8282L35.4454 14.8434C35.4926 14.902 35.5387 14.9627 35.5875 15.0269C35.6862 15.1568 35.7883 15.2912 35.9078 15.4186C35.9144 15.4256 35.9212 15.4323 35.9281 15.4389C35.9866 15.6667 36.0861 15.8775 36.2293 16.0778C36.4069 16.3264 36.6516 16.5247 36.9775 16.6843C37.249 16.8174 37.5331 16.9089 37.8219 16.9561C38.1238 17.0055 38.4062 17.029 38.6616 17.0252C38.7536 17.0239 38.8439 17.0208 38.9332 17.0158C38.9241 17.1242 38.9161 17.2333 38.9097 17.3451C38.8916 17.6648 38.9105 17.9805 38.9313 18.2472C38.9521 18.5136 38.9793 18.7962 39.059 19.0843C39.0575 19.0846 39.056 19.0851 39.0545 19.0854C38.8708 19.0159 38.6422 18.9258 38.4209 18.8213C38.2036 18.7187 37.9889 18.5966 37.7697 18.4701L37.6728 18.4143C37.483 18.3054 37.3037 18.2025 37.1359 18.0867C36.9594 17.9649 36.7717 17.8222 36.545 17.6379C36.3604 17.4878 36.1727 17.3226 35.9871 17.1468C35.9289 17.0917 35.8696 17.0374 35.8101 16.9829C35.6801 16.8639 35.5573 16.7515 35.4479 16.6317C35.3292 16.5018 35.2181 16.3594 35.1005 16.2086C35.0596 16.1561 35.0186 16.1035 34.9792 16.054C34.8673 15.9108 34.7661 15.758 34.6589 15.5961C34.6215 15.5395 34.5841 15.4831 34.5462 15.4271C34.4935 15.3489 34.4395 15.273 34.3873 15.1996C34.2887 15.0611 34.1956 14.9303 34.1189 14.7968C33.9883 14.5695 33.8688 14.3432 33.7638 14.1241C33.6399 13.8654 33.54 13.6482 33.4553 13.4294C33.4044 13.2979 33.3677 13.1527 33.3288 12.9989C33.3042 12.9017 33.2788 12.8011 33.2485 12.6994C33.2198 12.6032 33.1885 12.5098 33.1582 12.4195C33.1062 12.2645 33.057 12.1181 33.0269 11.9751C32.9769 11.737 32.9354 11.4856 32.9034 11.2279C32.8759 11.0067 32.8674 10.7798 32.8582 10.5397L32.8556 10.473C32.8469 10.2475 32.8578 10.0179 32.8692 9.77488L32.8719 9.71796C32.8749 9.65444 32.8773 9.59074 32.8796 9.52692C32.887 9.33029 32.8939 9.14458 32.9178 8.9633C32.9389 8.80296 32.978 8.63788 33.0193 8.46308C33.0382 8.38322 33.057 8.3032 33.0745 8.22271C33.081 8.19295 33.0843 8.16259 33.0843 8.13211C33.0843 8.07281 33.0738 8.01807 33.0634 7.97172C33.1213 7.75408 33.1913 7.53635 33.2539 7.34151C33.2687 7.29563 33.2832 7.24972 33.2978 7.20384C33.3611 7.00402 33.421 6.81528 33.4934 6.63566C33.549 6.49774 33.6217 6.36046 33.6986 6.21512C33.7405 6.13603 33.7837 6.05426 33.8254 5.97019C33.8573 5.9056 33.8885 5.8405 33.9197 5.77531C33.9989 5.60985 34.0738 5.45359 34.1606 5.30719C34.2896 5.09001 34.4169 4.87829 34.5576 4.67633C34.6501 4.54353 34.7574 4.41303 34.8711 4.27485C34.9213 4.21371 34.9719 4.15228 35.0218 4.0899C35.0311 4.07822 35.0399 4.06603 35.0479 4.05345C35.0578 4.04791 35.0718 4.04058 35.0898 4.03162C35.1412 4.00591 35.1883 3.96844 35.2255 3.92461C35.3931 3.72722 35.5515 3.54074 35.7219 3.37378C35.9155 3.18419 36.1224 3.01139 36.281 2.88204C36.4194 2.76923 36.572 2.66802 36.7335 2.56097C36.7862 2.52601 36.8389 2.49105 36.8911 2.4557C36.9326 2.42765 36.9739 2.39938 37.0152 2.37112C37.1867 2.25383 37.3487 2.14307 37.5162 2.04966C37.7397 1.925 37.964 1.81146 38.183 1.71225C38.3535 1.63496 38.5335 1.57139 38.7241 1.50407C38.777 1.4854 38.83 1.46668 38.8828 1.44767C38.9293 1.43091 38.9757 1.41394 39.0222 1.39702C39.2188 1.32526 39.4044 1.25752 39.5922 1.20576C39.749 1.16253 39.914 1.13286 40.0887 1.10139C40.1685 1.08703 40.2484 1.07266 40.3278 1.05693L40.4003 1.0426C40.6306 0.996983 40.8481 0.953838 41.0674 0.92668C41.3276 0.894406 41.5923 0.877736 41.8167 0.865671C42.039 0.853733 42.278 0.850152 42.5688 0.854501C42.5756 0.854501 42.5825 0.854501 42.5894 0.85433C42.8465 0.864179 43.0875 0.881957 43.3249 0.908603C43.5523 0.934183 43.7931 0.971872 44.0828 1.02725C44.3134 1.07134 44.5574 1.12881 44.8287 1.20303C44.9306 1.23087 45.0315 1.25428 45.129 1.27687C45.2869 1.3135 45.436 1.34807 45.572 1.39715C45.7368 1.45653 45.9001 1.53336 46.073 1.61466C46.1398 1.64608 46.2067 1.67751 46.2738 1.70803C46.4977 1.80984 46.7351 1.91979 46.9614 2.04608C47.0023 2.06889 47.0433 2.09157 47.0844 2.11429C47.2751 2.21977 47.4553 2.31936 47.6236 2.4326C47.7509 2.51825 47.8744 2.62313 48.0051 2.73414C48.0743 2.79294 48.146 2.85373 48.2203 2.91342L48.2744 2.95674C48.4517 3.09884 48.6199 3.23356 48.7764 3.37988C48.8634 3.49456 48.9644 3.5728 49.0405 3.63172C49.0631 3.64924 49.0907 3.67064 49.1041 3.68296C49.2407 3.83039 49.3729 3.99236 49.5009 4.14908L49.5437 4.20148C49.661 4.34498 49.7684 4.49744 49.8819 4.65885L49.9501 4.7555C50.0497 4.89615 50.1392 5.04648 50.2339 5.20568C50.2598 5.24921 50.2858 5.29282 50.3119 5.33626C50.4158 5.50855 50.5367 5.71396 50.6463 5.93152C50.6863 6.01107 50.7282 6.08811 50.7686 6.16259C50.8396 6.29344 50.9067 6.41703 50.9578 6.5411C51.0155 6.68149 51.0629 6.83288 51.113 6.99315C51.1336 7.05897 51.1543 7.12501 51.1759 7.19088C51.2451 7.40299 51.3082 7.62148 51.3632 7.84045C51.3777 7.91272 51.3935 7.9846 51.4092 8.05635C51.4388 8.19176 51.4668 8.31966 51.4857 8.44547L51.4886 8.46508C51.5198 8.67297 51.552 8.88797 51.5954 9.10485C51.6079 9.16735 51.607 9.23258 51.606 9.31516C51.6048 9.41309 51.6032 9.53315 51.6268 9.66983C51.6327 9.80072 51.6234 9.93987 51.6135 10.0867Z" fill="black"/>
<path d="M36.0566 14.1346C36.1845 14.2199 36.3086 14.2258 36.4365 14.2684C36.3938 14.2684 36.3501 14.3127 36.3927 14.3553C36.478 14.398 36.6154 14.3508 36.6154 14.2229C36.5728 14.2229 36.5645 14.2693 36.5218 14.2693C36.4792 14.2693 36.4501 14.2189 36.4075 14.1762C36.4075 14.1336 36.3985 14.1385 36.3985 14.0959C36.3132 13.9254 36.146 14.0631 36.0607 14.1483C36.0581 14.1508 36.0566 14.1346 36.0566 14.1346Z" fill="black"/>
<path d="M35.6641 13.7333C35.8346 13.776 35.9209 13.9548 36.1341 13.9121C36.0915 13.9121 36.0952 13.9577 36.0526 13.9577C36.0952 13.9577 36.1876 13.967 36.1449 13.8391C36.1023 13.7538 35.9666 13.8015 35.9239 13.6736C35.8386 13.7589 35.7651 13.6873 35.6799 13.73C35.6717 13.7356 35.6641 13.7333 35.6641 13.7333Z" fill="black"/>
<path d="M37.1 15.0783C37.1 15.2488 36.8598 15.1654 36.9451 15.336C37.073 15.5065 37.3318 15.3866 37.5449 15.4292C37.5449 15.3866 37.549 15.3753 37.549 15.3327C37.5064 15.2474 37.3252 15.2586 37.24 15.2159C37.1973 15.1733 37.1665 15.1134 37.1238 15.0707C37.1162 15.0654 37.1 15.0783 37.1 15.0783Z" fill="black"/>
<path d="M36.5599 14.5651C36.5173 14.693 36.6588 14.7709 36.6588 14.8988C36.7015 14.8135 36.9241 14.8651 36.9241 14.7372C36.9241 14.6093 36.6499 14.5727 36.5219 14.5727C36.5006 14.5727 36.543 14.5602 36.5643 14.5594C36.5667 14.5593 36.5599 14.5651 36.5599 14.5651Z" fill="black"/>
</g>
<g clip-path="url(#clip2)">
<path d="M79.0609 8.70311C79.0609 8.68596 79.0599 8.66886 79.0577 8.65188C79.0033 8.21584 78.8918 7.85527 78.7172 7.54961C78.7139 7.54391 78.7105 7.53833 78.707 7.5328C78.548 7.28286 78.3325 7.05371 78.0665 6.85182C77.8613 6.69595 77.5837 6.50302 77.2561 6.39384C77.2182 6.3812 77.1786 6.37413 77.1387 6.37285C76.8351 6.36306 76.5902 6.35397 76.368 6.34431C76.2399 6.33869 76.113 6.33749 75.9902 6.33633C75.8542 6.33505 75.7258 6.33381 75.5981 6.32708C75.4746 6.32059 75.3508 6.31638 75.2311 6.31237C75.0979 6.30787 74.9601 6.3032 74.8274 6.29539C74.6942 6.28754 74.5569 6.27705 74.4242 6.26689C74.302 6.25751 74.1796 6.24817 74.0571 6.24049C73.9353 6.23285 73.8133 6.22054 73.6843 6.20748C73.5553 6.19447 73.422 6.18096 73.2868 6.17233C73.1503 6.16361 73.0146 6.15919 72.8833 6.15493C72.7552 6.15076 72.6343 6.14684 72.513 6.13924C72.4076 6.13263 72.3022 6.12564 72.1969 6.1187C72.0445 6.10862 71.892 6.09854 71.7395 6.08954C71.5969 6.08111 71.4556 6.07822 71.3191 6.07541C71.196 6.07285 71.0796 6.07045 70.9636 6.06434C70.8492 6.05831 70.7345 6.04777 70.6131 6.03666C70.4756 6.02402 70.3334 6.01096 70.1883 6.0046C70.0713 5.99948 69.9529 5.99638 69.8364 5.99378C69.838 5.97924 69.8396 5.96461 69.8413 5.9499C69.8522 5.85171 69.8635 5.75016 69.8719 5.64796C69.8826 5.51774 69.889 5.38794 69.8952 5.26244C69.9018 5.12756 69.9081 5.00015 69.9193 4.87324C69.9363 4.68015 69.9436 4.48872 69.9506 4.30356C69.9534 4.22874 69.9562 4.15397 69.9597 4.07924C69.97 3.85653 69.9802 3.5628 69.9669 3.2654L69.9635 3.18674C69.9531 2.94334 69.9423 2.69167 69.8935 2.4331C69.8438 2.16994 69.7653 1.90233 69.6536 1.61492C69.638 1.57473 69.6162 1.53734 69.5891 1.504C69.5831 1.49169 69.5747 1.4729 69.5681 1.45819C69.5546 1.42811 69.5406 1.39701 69.5254 1.36656C69.5135 1.34289 69.4995 1.32041 69.4833 1.29943C69.3233 1.09147 69.1401 0.924154 68.9809 0.783613C68.806 0.629232 68.6112 0.469935 68.3726 0.350957C68.157 0.243506 67.9159 0.164271 67.6558 0.115482C67.6306 0.110772 67.6052 0.108418 67.5796 0.108418C67.5579 0.108418 67.5253 0.108748 67.4927 0.109079C67.4865 0.10912 67.4803 0.109203 67.4741 0.109244C67.1711 0.0206308 66.8794 -0.01436 66.606 0.0050977C66.3195 0.0255882 66.017 0.106807 65.7066 0.246522C65.4103 0.379917 65.1519 0.547642 64.9384 0.74511C64.7225 0.937787 64.5355 1.1769 64.3977 1.43683C64.2328 1.74758 64.1604 2.05807 64.1823 2.35998C64.1855 2.60144 64.1885 2.85931 64.1893 3.11342C64.1896 3.24103 64.1942 3.36728 64.1985 3.48935C64.2034 3.62518 64.208 3.7535 64.2072 3.88111C64.2063 4.02508 64.2027 4.17318 64.1993 4.31645C64.1967 4.42745 64.194 4.53837 64.1925 4.64934C64.1907 4.77236 64.1828 4.89663 64.1744 5.0282C64.1663 5.15429 64.158 5.28467 64.1553 5.41736C64.1526 5.54575 64.1534 5.67353 64.1541 5.79709C64.1549 5.93181 64.1556 6.05909 64.1523 6.1867C64.149 6.31468 64.1484 6.44259 64.148 6.56627C64.1474 6.70103 64.1469 6.82831 64.143 6.9565C64.1392 7.08448 64.1377 7.21271 64.1363 7.33673C64.1348 7.46529 64.1333 7.59827 64.129 7.72671C64.1251 7.84747 64.1159 7.96892 64.1062 8.09744C64.0964 8.22671 64.0864 8.36039 64.0817 8.49639C64.0774 8.62032 64.0704 8.74302 64.063 8.8729C64.0556 9.00121 64.048 9.13386 64.0434 9.26697C64.0386 9.4083 64.0421 9.54603 64.0456 9.67922C64.0488 9.8048 64.0518 9.92345 64.0479 10.0393C64.0394 10.2965 64.0316 10.5539 64.0237 10.8114C64.0208 10.9085 64.0176 11.0054 64.0144 11.1022C64.0092 11.2619 64.004 11.4216 63.9997 11.5821C63.9988 11.6149 64.0018 11.6477 64.0087 11.6797C64.0637 11.9363 64.0683 12.2059 64.0684 12.4601C64.0684 12.5093 64.0682 12.5585 64.0681 12.6077C64.0673 12.8509 64.0666 13.1024 64.0848 13.3579C64.085 13.3595 64.0851 13.3611 64.0852 13.3628C64.0892 13.4108 64.0928 13.4587 64.0964 13.5064C64.1115 13.7091 64.1271 13.9188 64.174 14.131C64.2087 14.2884 64.2575 14.4317 64.3047 14.5703C64.3364 14.6634 64.3663 14.7513 64.3897 14.8371C64.3928 14.8484 64.3964 14.8596 64.4004 14.8706C64.4309 14.9539 64.4585 15.0396 64.4876 15.1304C64.5416 15.2982 64.5974 15.472 64.6775 15.6451C64.8027 15.9158 64.9475 16.1674 65.0726 16.3778C65.2092 16.6076 65.3683 16.8128 65.5222 17.0113L65.5602 17.0604C65.7108 17.2552 65.8854 17.4475 66.1261 17.6841C66.3143 17.8689 66.4981 18.03 66.6856 18.1744C66.7066 18.2192 66.7398 18.2756 66.7932 18.329C66.8107 18.3465 66.8298 18.3625 66.8502 18.3765C67.04 18.508 67.247 18.641 67.5016 18.7952C67.5531 18.8264 67.6042 18.8581 67.6551 18.8896C67.8218 18.9927 67.9942 19.0994 68.1792 19.1911C68.4324 19.3166 68.6919 19.4164 68.9121 19.4974C69.1496 19.5848 69.4008 19.6588 69.6803 19.7237C69.9511 19.7864 70.2291 19.8132 70.4776 19.8372C70.5703 19.8454 70.6626 19.8553 70.7548 19.8652C70.9253 19.8834 71.1016 19.9022 71.2812 19.9112C71.4495 19.9196 71.6146 19.9187 71.7742 19.9177C71.8816 19.9171 71.9829 19.9165 72.0846 19.9186L72.2578 19.9222C72.4622 19.9267 72.6735 19.9314 72.8835 19.9314C72.9983 19.9315 73.1156 19.9384 73.2398 19.9457C73.3815 19.954 73.528 19.9625 73.6789 19.9613C73.8162 19.96 73.9528 19.9548 74.085 19.9497C74.2179 19.9446 74.3434 19.9398 74.4697 19.9387C74.5877 19.9376 74.7061 19.9347 74.8205 19.9319C74.9642 19.9284 75.1126 19.9254 75.2563 19.925C75.3929 19.9253 75.5303 19.9328 75.6758 19.9407C75.7212 19.9432 75.7672 19.9457 75.8138 19.948C75.8735 19.9813 75.9421 20 76.0145 20C76.0798 20 76.1419 19.9871 76.1982 19.9638C76.2479 19.952 76.2997 19.9456 76.361 19.9379C76.4767 19.9235 76.6154 19.9062 76.7733 19.8454C76.8536 19.8524 76.9309 19.8538 77.0033 19.8296C77.3257 19.7222 77.578 19.6048 77.7974 19.4602C78.0812 19.2732 78.299 19.0568 78.4632 18.7986C78.4709 18.7867 78.4779 18.7743 78.4842 18.7616C78.5041 18.7218 78.5204 18.6902 78.5366 18.6586C78.5541 18.6246 78.5715 18.5905 78.5929 18.5476C78.5944 18.5447 78.5958 18.5417 78.5972 18.5388C78.743 18.2289 78.8266 17.9451 78.8527 17.6711C78.8804 17.3808 78.8649 17.0829 78.8066 16.7861C78.7463 16.4791 78.6575 16.1997 78.5425 15.9555C78.5222 15.9123 78.496 15.8746 78.4623 15.8409C78.4535 15.8313 78.4262 15.7943 78.4023 15.7466C78.393 15.7279 78.3823 15.71 78.3703 15.693C78.1719 15.412 77.9445 15.1855 77.6946 15.0199C77.4068 14.8292 77.0845 14.7416 76.8071 14.681C76.545 14.6238 76.2746 14.6035 76.0018 14.6202C75.9766 14.6155 75.9507 14.613 75.9242 14.613C75.8176 14.613 75.712 14.6149 75.6098 14.6168C75.4408 14.6198 75.2812 14.6227 75.1239 14.6174C74.9785 14.6125 74.8312 14.5975 74.6754 14.5816C74.5623 14.57 74.4454 14.5581 74.3263 14.55C74.1399 14.5372 73.9537 14.5176 73.7565 14.4969C73.6811 14.4889 73.6054 14.481 73.5292 14.4734C73.522 14.4726 73.5149 14.4721 73.5077 14.4718C73.3068 14.4622 73.1058 14.4514 72.9048 14.4407L72.8578 14.4382C72.75 14.4324 72.6447 14.4312 72.5428 14.43C72.4272 14.4287 72.318 14.4274 72.2121 14.4199C72.095 14.4115 71.9762 14.3963 71.8505 14.3803C71.7613 14.3689 71.669 14.357 71.5754 14.3476C71.4836 14.3383 71.3931 14.3319 71.3056 14.3258C71.1792 14.3168 71.0598 14.3085 70.9449 14.2922C70.7586 14.262 70.5693 14.1941 70.3825 14.0905C70.1938 13.9859 70.0316 13.8598 69.9003 13.7158C69.7501 13.5511 69.6291 13.3765 69.5404 13.197C69.455 13.0238 69.3876 12.8229 69.3402 12.5998C69.3126 12.3891 69.3467 12.1736 69.3828 11.9457L69.3886 11.9088C69.4114 11.7646 69.4358 11.6107 69.4403 11.4477C69.508 11.4503 69.5749 11.4538 69.6414 11.4587C69.8611 11.4749 70.0958 11.4946 70.4025 11.5226C70.5479 11.536 70.6977 11.5528 70.8426 11.5691C70.95 11.5811 71.0574 11.5932 71.1649 11.6041C71.2908 11.617 71.4154 11.6331 71.5475 11.6502C71.6716 11.6663 71.7999 11.6829 71.9288 11.6965C72.0421 11.7084 72.1552 11.7213 72.2683 11.7341C72.4111 11.7504 72.5539 11.7666 72.6968 11.781C72.8468 11.7961 72.9966 11.8068 73.1414 11.8171C73.2498 11.8249 73.3619 11.8329 73.4701 11.8425C73.5755 11.8519 73.6803 11.864 73.7912 11.8769C73.9383 11.894 74.0902 11.9116 74.2448 11.9225C74.4026 11.9335 74.5557 11.9329 74.7037 11.9323C74.8162 11.9319 74.9226 11.9314 75.0269 11.9359C75.1285 11.9404 75.2325 11.9506 75.3427 11.9614C75.4929 11.9762 75.6483 11.9915 75.8104 11.993C75.9769 11.9942 76.1387 11.9824 76.2944 11.9706C76.3999 11.9627 76.4996 11.9551 76.5977 11.952C76.6019 11.9518 76.6061 11.9516 76.6103 11.9513C76.904 11.933 77.1416 11.8831 77.3579 11.7944C77.6364 11.6801 77.8387 11.5676 78.0136 11.4295C78.2045 11.2788 78.3603 11.0983 78.5186 10.9082C78.729 10.6511 78.8774 10.3276 78.9596 9.94675C79.0327 9.60878 79.0598 9.28403 79.0402 8.98109C79.0412 8.95821 79.0451 8.92041 79.0482 8.88918C79.0545 8.82832 79.0609 8.76549 79.0609 8.70311ZM78.2263 8.80511C78.2201 8.86588 78.2137 8.92871 78.2137 8.99105C78.2137 9.00088 78.2141 9.01067 78.2147 9.02046C78.2311 9.25065 78.2101 9.50352 78.152 9.77209C78.0969 10.0274 78.0076 10.2278 77.8814 10.3821C77.7497 10.5402 77.6303 10.6793 77.5017 10.7808C77.3897 10.8692 77.2487 10.946 77.0444 11.0298C76.9154 11.0827 76.7628 11.1133 76.5648 11.1262C76.4509 11.13 76.3398 11.1384 76.2322 11.1466C76.0873 11.1575 75.9501 11.1681 75.8182 11.1666C75.6926 11.1654 75.562 11.1525 75.4236 11.139C75.3073 11.1276 75.1869 11.1157 75.0628 11.1103C74.939 11.1049 74.8177 11.1055 74.7005 11.1059C74.5612 11.1064 74.4298 11.107 74.3025 11.0981C74.1668 11.0886 74.0307 11.0728 73.8866 11.056C73.7752 11.0431 73.6599 11.0297 73.5435 11.0193C73.428 11.009 73.3122 11.0008 73.2001 10.9928C73.0548 10.9824 72.9176 10.9726 72.7798 10.9588C72.6402 10.9447 72.5009 10.9288 72.3616 10.913C72.2462 10.8999 72.1308 10.8868 72.0152 10.8746C71.8961 10.8621 71.7784 10.8468 71.6536 10.8307C71.5219 10.8136 71.3858 10.7959 71.2487 10.782C71.1439 10.7713 71.0394 10.7596 70.9348 10.7478C70.7858 10.7311 70.6317 10.7138 70.4778 10.6997C70.166 10.6712 69.9268 10.6511 69.7021 10.6345C69.5405 10.6226 69.3807 10.6185 69.2262 10.6145C69.1332 10.612 69.0448 10.6098 68.9566 10.6059C68.9388 10.6045 68.9204 10.6038 68.9012 10.6038C68.6769 10.6038 68.4936 10.7826 68.4882 11.0068C68.4853 11.1252 68.5326 11.2334 68.6108 11.3107C68.6246 11.45 68.6008 11.6005 68.5725 11.7796L68.5666 11.8164C68.524 12.0858 68.4756 12.3911 68.5239 12.7289C68.5251 12.7375 68.5266 12.7461 68.5284 12.7547C68.5902 13.0515 68.6814 13.3233 68.7994 13.5625C68.9223 13.8115 69.0873 14.0504 69.2898 14.2724C69.4816 14.4828 69.7144 14.6646 69.9818 14.813C70.2541 14.9639 70.5353 15.0633 70.8178 15.1085C70.8201 15.1089 70.8223 15.1092 70.8246 15.1095C70.9699 15.1302 71.1111 15.1402 71.2476 15.1498C71.3326 15.1558 71.4129 15.1615 71.4921 15.1695C71.5751 15.1779 71.658 15.1885 71.7458 15.1997C71.8773 15.2165 72.0132 15.2339 72.1531 15.2439C72.2838 15.2533 72.4106 15.2547 72.5333 15.2561C72.631 15.2572 72.7232 15.2583 72.8135 15.2631L72.8607 15.2656C73.0596 15.2763 73.2587 15.2869 73.4575 15.2964C73.5287 15.3036 73.5995 15.311 73.67 15.3185C73.8659 15.3391 74.0685 15.3604 74.27 15.3742C74.3752 15.3814 74.4803 15.3921 74.5915 15.4034C74.7542 15.42 74.9225 15.4372 75.0958 15.4431C75.2746 15.4491 75.4527 15.4459 75.6248 15.4427C75.6889 15.4416 75.7543 15.4404 75.8194 15.4397C75.8672 15.4525 75.9172 15.4568 75.9673 15.4517C76.1965 15.4288 76.4136 15.4407 76.6309 15.4881C76.8437 15.5346 77.0645 15.5935 77.2383 15.7086C77.3963 15.8133 77.5446 15.9608 77.6795 16.1472C77.7207 16.2247 77.7688 16.2977 77.8181 16.3583C77.8933 16.5296 77.953 16.7268 77.9959 16.9452C78.0388 17.1638 78.0504 17.3816 78.0302 17.5927C78.0132 17.7716 77.9565 17.9591 77.8518 18.1825C77.8329 18.2202 77.8172 18.2506 77.8016 18.2811C77.787 18.3095 77.7725 18.3379 77.7556 18.3714C77.6562 18.5222 77.5209 18.6529 77.3429 18.7702C77.2014 18.8634 77.0331 18.9435 76.8178 19.0197C76.7788 19.0162 76.7388 19.0127 76.7016 19.0127C76.6374 19.0127 76.5742 19.0276 76.5168 19.0563C76.4417 19.0939 76.3767 19.1033 76.259 19.1179C76.217 19.1232 76.1709 19.1289 76.1211 19.1372C76.12 19.137 76.1188 19.1368 76.1177 19.1366C76.0968 19.1329 76.0756 19.1307 76.0545 19.1303C75.9448 19.1278 75.8359 19.1219 75.7207 19.1157C75.571 19.1075 75.4163 19.0991 75.2579 19.0988C75.2525 19.0988 75.247 19.0988 75.2415 19.0988C75.0925 19.0988 74.9441 19.1024 74.8004 19.1059C74.6877 19.1086 74.5751 19.1115 74.4625 19.1124C74.3239 19.1136 74.1864 19.1189 74.0534 19.124C73.9214 19.1291 73.7967 19.1338 73.6714 19.135C73.5485 19.1364 73.4221 19.1287 73.2884 19.1209C73.1578 19.1132 73.0229 19.1053 72.8841 19.1052C72.6828 19.1051 72.476 19.1006 72.276 19.0962L72.1014 19.0925C71.9891 19.0902 71.8775 19.0908 71.7695 19.0914C71.6142 19.0924 71.4677 19.0932 71.3225 19.0859C71.1663 19.0781 71.0091 19.0613 70.8426 19.0435C70.7455 19.0332 70.6483 19.0228 70.5539 19.0145C70.3232 18.9922 70.0847 18.9691 69.867 18.9187C69.6214 18.8618 69.4025 18.7975 69.1976 18.7221C68.9979 18.6486 68.7644 18.5589 68.5462 18.4508C68.3961 18.3763 68.2474 18.2844 68.09 18.1869C68.0368 18.1541 67.9835 18.1211 67.9298 18.0885C67.7284 17.9665 67.5596 17.8592 67.4065 17.7559C67.3854 17.7127 67.3532 17.6603 67.3032 17.6104C67.2888 17.5959 67.2734 17.5826 67.257 17.5705C67.0728 17.434 66.8923 17.2784 66.7053 17.0946C66.4923 16.8853 66.3407 16.7188 66.2138 16.5548L66.1753 16.5051C66.0304 16.3182 65.8935 16.1416 65.783 15.9556C65.6686 15.7633 65.537 15.5348 65.4275 15.2981C65.3687 15.1709 65.3229 15.0284 65.2744 14.8775C65.2457 14.7882 65.216 14.6959 65.1823 14.6026C65.1532 14.4984 65.1196 14.3997 65.087 14.304C65.0453 14.1813 65.0058 14.0655 64.9809 13.9528C64.9468 13.7983 64.934 13.6266 64.9204 13.4449C64.9168 13.3958 64.9131 13.3464 64.909 13.2968C64.8931 13.0727 64.8937 12.848 64.8945 12.6102C64.8946 12.5602 64.8948 12.5101 64.8948 12.46C64.8947 12.1888 64.8893 11.8753 64.8271 11.5569C64.8311 11.414 64.8357 11.2717 64.8404 11.1292C64.8436 11.0318 64.8468 10.9343 64.8498 10.8366C64.8576 10.5797 64.8654 10.3231 64.8739 10.0666C64.8786 9.92651 64.8751 9.79001 64.8717 9.65802C64.8685 9.5314 64.8654 9.41181 64.8694 9.29527C64.8736 9.17171 64.8806 9.04951 64.8881 8.92012C64.8955 8.79127 64.9031 8.65808 64.9076 8.52464C64.9117 8.40562 64.9207 8.28607 64.9303 8.15953C64.9402 8.02808 64.9504 7.89212 64.955 7.75389C64.9595 7.61658 64.9611 7.47909 64.9626 7.34615C64.964 7.22593 64.9654 7.10167 64.9691 6.98133C64.9732 6.84236 64.9738 6.70363 64.9743 6.56949C64.9748 6.44486 64.9753 6.32712 64.9784 6.20831C64.9821 6.06744 64.9813 5.92747 64.9805 5.79214C64.9797 5.66861 64.979 5.55195 64.9815 5.43454C64.9839 5.31953 64.9913 5.20357 64.9991 5.08079C65.0077 4.94492 65.0167 4.80446 65.0188 4.66099C65.0203 4.55275 65.0229 4.44447 65.0255 4.33615C65.029 4.18933 65.0326 4.03751 65.0336 3.88631C65.0345 3.74131 65.0293 3.59821 65.0244 3.45981C65.0201 3.3391 65.016 3.22508 65.0157 3.11102C65.0149 2.84853 65.0117 2.58327 65.0084 2.33577C65.0083 2.32614 65.0079 2.31652 65.007 2.30693C64.9948 2.16048 65.0354 1.99796 65.1277 1.82404C65.2207 1.6488 65.3462 1.48822 65.4908 1.3597C65.493 1.35772 65.4952 1.35574 65.4974 1.35367C65.6456 1.2161 65.8301 1.09708 66.0459 0.99992C66.2675 0.900194 66.4758 0.842771 66.665 0.829221C66.8532 0.81567 67.0635 0.845167 67.2899 0.916718C67.3301 0.929442 67.3721 0.935887 67.4143 0.935887C67.436 0.935887 67.4686 0.935557 67.5012 0.935226C67.5147 0.935102 67.5282 0.934937 67.5408 0.934854C67.7112 0.969721 67.8669 1.02198 68.004 1.09039C68.1575 1.16694 68.3015 1.28592 68.4343 1.40308C68.5607 1.51462 68.6925 1.63446 68.8028 1.77063C68.8066 1.77905 68.8104 1.7874 68.8141 1.79562C68.8374 1.84792 68.8646 1.90861 68.904 1.96756C68.9862 2.18655 69.0445 2.38951 69.0817 2.58636C69.1195 2.78639 69.1285 2.99795 69.1381 3.2219L69.1415 3.30213C69.1533 3.56474 69.1445 3.82294 69.1344 4.04082C69.1308 4.11786 69.1279 4.19499 69.125 4.2722C69.1181 4.45526 69.1115 4.6281 69.0963 4.80054C69.0837 4.94339 69.0768 5.08484 69.07 5.22167C69.0639 5.34593 69.0581 5.4633 69.0485 5.57992C69.041 5.67052 69.0309 5.7619 69.0202 5.85865C69.0012 6.02939 68.9816 6.20599 68.9768 6.38512C68.9707 6.61233 69.1492 6.80183 69.3764 6.80918C69.4847 6.8127 69.5943 6.81497 69.7043 6.81724C69.8526 6.82034 70.006 6.82348 70.1523 6.82988C70.2776 6.83537 70.4039 6.84698 70.5377 6.85925C70.6616 6.87061 70.7897 6.88243 70.9202 6.88929C71.0495 6.8961 71.178 6.89875 71.3022 6.90131C71.4369 6.90408 71.5642 6.90668 71.691 6.9142C71.8415 6.92308 71.992 6.93304 72.1426 6.94299C72.2489 6.95001 72.3552 6.95704 72.4615 6.96369C72.5951 6.97207 72.7281 6.97641 72.8567 6.98054C72.9873 6.9848 73.1106 6.98881 73.2342 6.9967C73.3542 7.00438 73.4743 7.01653 73.6014 7.02937C73.7325 7.04263 73.868 7.05631 74.0055 7.06494C74.1242 7.07242 74.2428 7.08147 74.3614 7.09056C74.4977 7.10097 74.6385 7.11175 74.779 7.12001C74.9221 7.12844 75.065 7.13323 75.2033 7.13794C75.3192 7.14186 75.4391 7.14591 75.5548 7.15203C75.7002 7.15971 75.8437 7.16103 75.9825 7.16236C76.1037 7.16351 76.2181 7.16459 76.332 7.16954C76.5413 7.17871 76.7699 7.18727 77.0471 7.19635C77.2409 7.27183 77.425 7.40188 77.567 7.5097C77.7542 7.65186 77.8975 7.80182 78.0048 7.96789C78.1178 8.16883 78.1929 8.41628 78.234 8.72315C78.2323 8.74624 78.2291 8.77809 78.2263 8.80511Z" fill="black"/>
</g>
<defs>
<clipPath id="clip0">
<rect width="20.255" height="20" fill="white"/>
</clipPath>
<clipPath id="clip1">
<rect width="20.4814" height="20" fill="white" transform="translate(32)"/>
</clipPath>
<clipPath id="clip2">
<rect width="15.0613" height="20" fill="white" transform="translate(64)"/>
</clipPath>
</defs>
</svg>
