<svg width="29" height="26" viewBox="0 0 29 26" fill="none" xmlns="http://www.w3.org/2000/svg">
<path d="M17 21.8333V23.5C17 24.8832 15.8835 26 14.5 26C13.1165 26 12 24.8832 12 23.5V21.8333C12 21.3665 12.3665 21 12.8333 21H16.1667C16.6335 21 17 21.3665 17 21.8333Z" fill="#4A696F"/>
<path d="M17 21.8333V23.5C17 24.8832 15.6602 26 14 26V21H16C16.5602 21 17 21.3665 17 21.8333Z" fill="#384949"/>
<path d="M14.5 1C9.07641 1 5 5.08684 5 9.88461C5 12.7599 6.46818 15.4577 9.04177 17.1538C9.75 17.6223 10.1818 18.4462 10.1818 19.3668V19.5769C10.1818 20.9176 11.339 22 12.7727 22H16.2273C17.661 22 18.8182 20.9176 18.8182 19.5769V19.3184C18.8182 18.4462 19.319 17.6061 20.1827 16.9923C22.6009 15.2962 24 12.7115 24 9.88461C24 5.00607 19.8028 1.0162 14.5 1V1Z" fill="#FFE470"/>
<path d="M24 9.88461C24 12.7115 22.5272 15.2962 19.9818 16.9923C19.0727 17.6061 18.5455 18.4462 18.5455 19.3184V19.5769C18.5455 20.9176 17.3274 22 15.8182 22H14V1C19.5819 1.0162 24 5.00607 24 9.88461Z" fill="#FDBF00"/>
<path d="M28.0164 11H25.9836C25.4401 11 25 10.7763 25 10.5C25 10.2236 25.4401 10 25.9836 10H28.0164C28.5599 10 29 10.2236 29 10.5C29 10.7763 28.5599 11 28.0164 11Z" fill="#F4D7AF"/>
<path d="M3.01639 11H0.983607C0.440062 11 0 10.7763 0 10.5C0 10.2236 0.440062 10 0.983607 10H3.01639C3.55994 10 4 10.2236 4 10.5C4 10.7763 3.55994 11 3.01639 11Z" fill="#FAECD8"/>
<path d="M21.3432 3.65675C20.8856 3.19908 20.8856 2.45767 21.3432 2L23 0.343249C23.4577 -0.114416 24.1991 -0.114416 24.6568 0.343249C25.1144 0.800915 25.1144 1.54233 24.6568 2L23 3.65675C22.5423 4.11442 21.8009 4.11442 21.3432 3.65675Z" fill="#F4D7AF"/>
<path d="M4.34325 21.6568C3.88558 21.1991 3.88558 20.4577 4.34325 20L6 18.3432C6.45767 17.8856 7.19908 17.8856 7.65675 18.3432C8.11442 18.8006 8.11442 19.5423 7.65675 20L6 21.6568C5.54233 22.1144 4.80092 22.1144 4.34325 21.6568Z" fill="#FAECD8"/>
<path d="M6 3.65675L4.34325 2C3.88558 1.54233 3.88558 0.800915 4.34325 0.343249C4.80092 -0.114416 5.54233 -0.114416 6 0.343249L7.65675 2C8.11442 2.45767 8.11442 3.19908 7.65675 3.65675C7.19908 4.11442 6.45767 4.11442 6 3.65675Z" fill="#FAECD8"/>
<path d="M23 21.6568L21.3432 20C20.8856 19.5423 20.8856 18.8006 21.3432 18.3432C21.8009 17.8856 22.5423 17.8856 23 18.3432L24.6568 20C25.1144 20.4577 25.1144 21.1991 24.6568 21.6568C24.1991 22.1144 23.4577 22.1144 23 21.6568Z" fill="#F4D7AF"/>
<path d="M18.6315 11.1399L14.2332 8.07882L15.5827 5.2626C15.766 4.87792 15.6493 4.42309 15.3161 4.16071C14.9829 3.91587 14.5332 3.95072 14.2499 4.26571L9.25199 9.51324C9.06869 9.68815 8.98539 9.95053 9.00209 10.2129C9.0355 10.4753 9.16869 10.7026 9.36848 10.86L13.7668 13.921L12.4173 16.7372C12.234 17.1222 12.3507 17.577 12.6839 17.8394C13.0171 18.0842 13.4668 18.0491 13.7501 17.7344L18.748 12.4868C18.9313 12.3119 19.0146 12.0495 18.9979 11.7872C18.9645 11.5248 18.8313 11.2973 18.6315 11.1399Z" fill="#FDBF00"/>
<path d="M18.9979 11.8034C19.0146 12.0663 18.9313 12.3292 18.748 12.5045L14 17.5V4.52918L14.2499 4.26626C14.5332 3.95062 14.9829 3.9157 15.3161 4.16105C15.6493 4.42397 15.766 4.87975 15.5827 5.26523L14.2332 8.0873L18.6315 11.1547C18.8313 11.3124 18.9645 11.5404 18.9979 11.8034V11.8034Z" fill="#FF9F00"/>
</svg>
