<?xml version="1.0" encoding="UTF-8"?>
<svg width="8px" height="22px" viewBox="0 0 8 22" version="1.1" xmlns="http://www.w3.org/2000/svg" xmlns:xlink="http://www.w3.org/1999/xlink">
    <!-- Generator: Sketch 55.2 (78181) - https://sketchapp.com -->
    <title>Group</title>
    <desc>Created with Sketch.</desc>
    <g id="Page-1" stroke="none" stroke-width="1" fill="none" fill-rule="evenodd">
        <g id="idea" fill="#F8D11C" fill-rule="nonzero">
            <g id="Group" transform="translate(0.000000, 0.000000)">
                <path d="M3.01639,10.9999998 L0.983607,10.9999998 C0.440062,10.9999998 0,10.5525998 0,9.99999975 C0,9.44719975 0.440062,8.99999975 0.983607,8.99999975 L3.01639,8.99999975 C3.55994,8.99999975 4,9.44719975 4,9.99999975 C4,10.5525998 3.55994,10.9999998 3.01639,10.9999998 Z" id="Path"></path>
                <path d="M4.34325,21.6567998 C3.88558,21.1990998 3.88558,20.4576997 4.34325,19.9999998 L5.9999975,18.3431998 C6.45767,17.8855998 7.19908,17.8855998 7.65675,18.3431998 C8.11442,18.8005997 8.11442,19.5422998 7.65675,19.9999998 L5.9999975,21.6567998 C5.54233,22.1143998 4.80092,22.1143998 4.34325,21.6567998 Z" id="Path"></path>
                <path d="M5.9999975,3.65674975 L4.34325,2 C3.88558,1.54232975 3.88558,0.80091475 4.34325,0.34324875 C4.80092,-0.11441625 5.54233,-0.11441625 5.9999975,0.34324875 L7.65675,2 C8.11442,2.45766975 8.11442,3.19907975 7.65675,3.65674975 C7.19908,4.11441975 6.45767,4.11441975 5.9999975,3.65674975 Z" id="Path"></path>
            </g>
        </g>
    </g>
</svg>